  0
SECTION
  2
HEADER
  9
$ACADVER
  1
AC1014
  9
$HANDSEED
  5
FFFF
  9
$MEASUREMENT
 70
     1
  0
ENDSEC
  0
SECTION
  2
TABLES
  0
TABLE
  2
VPORT
  5
8
330
0
100
AcDbSymbolTable
 70
     4
  0
VPORT
  5
2E
330
8
100
AcDbSymbolTableRecord
100
AcDbViewportTableRecord
  2
*ACTIVE
 70
     0
 10
0.0
 20
0.0
 11
1.0
 21
1.0
 12
210.0
 22
148.5
 13
0.0
 23
0.0
 14
10.0
 24
10.0
 15
10.0
 25
10.0
 16
0.0
 26
0.0
 36
1.0
 17
0.0
 27
0.0
 37
0.0
 40
341.0
 41
1.24
 42
50.0
 43
0.0
 44
0.0
 50
0.0
 51
0.0
 71
     0
 72
   100
 73
     1
 74
     3
 75
     0
 76
     0
 77
     0
 78
     0
  0
ENDTAB
  0
TABLE
  2
LTYPE
  5
5
330
0
100
AcDbSymbolTable
 70
     1
  0
LTYPE
  5
14
330
5
100
AcDbSymbolTableRecord
100
AcDbLinetypeTableRecord
  2
BYBLOCK
 70
     0
  3

 72
    65
 73
     0
 40
0.0
  0
LTYPE
  5
15
330
5
100
AcDbSymbolTableRecord
100
AcDbLinetypeTableRecord
  2
BYLAYER
 70
     0
  3

 72
    65
 73
     0
 40
0.0
  0
LTYPE
  5
16
330
5
100
AcDbSymbolTableRecord
100
AcDbLinetypeTableRecord
  2
CONTINUOUS
 70
     0
  3
Solid line
 72
    65
 73
     0
 40
0.0
  0
ENDTAB
  0
TABLE
  2
LAYER
  5
2
100
AcDbSymbolTable
 70
2
  0
LAYER
  5
50
100
AcDbSymbolTableRecord
100
AcDbLayerTableRecord
  2
0
 70
0
  6
CONTINUOUS
  0
LAYER
  5
51
100
AcDbSymbolTableRecord
100
AcDbLayerTableRecord
  2
Layer_1
 70
0
  6
CONTINUOUS
  0
ENDTAB
  0
TABLE
  2
STYLE
  5
3
330
0
100
AcDbSymbolTable
 70
     1
  0
STYLE
  5
11
330
3
100
AcDbSymbolTableRecord
100
AcDbTextStyleTableRecord
  2
STANDARD
 70
     0
 40
0.0
 41
1.0
 50
0.0
 71
     0
 42
2.5
  3
txt
  4

  0
ENDTAB
  0
TABLE
  2
VIEW
  5
6
330
0
100
AcDbSymbolTable
 70
     0
  0
ENDTAB
  0
TABLE
  2
UCS
  5
7
330
0
100
AcDbSymbolTable
 70
     0
  0
ENDTAB
  0
TABLE
  2
APPID
  5
9
330
0
100
AcDbSymbolTable
 70
     2
  0
APPID
  5
12
330
9
100
AcDbSymbolTableRecord
100
AcDbRegAppTableRecord
  2
ACAD
 70
     0
  0
ENDTAB
  0
TABLE
  2
DIMSTYLE
  5
A
330
0
100
AcDbSymbolTable
 70
     1
  0
DIMSTYLE
105
27
330
A
100
AcDbSymbolTableRecord
100
AcDbDimStyleTableRecord
  2
ISO-25
 70
     0
  3

  4

  5

  6

  7

 40
1.0
 41
2.5
 42
0.625
 43
3.75
 44
1.25
 45
0.0
 46
0.0
 47
0.0
 48
0.0
140
2.5
141
2.5
142
0.0
143
0.03937007874016
144
1.0
145
0.0
146
1.0
147
0.625
 71
     0
 72
     0
 73
     0
 74
     0
 75
     0
 76
     0
 77
     1
 78
     8
170
     0
171
     3
172
     1
173
     0
174
     0
175
     0
176
     0
177
     0
178
     0
270
     2
271
     2
272
     2
273
     2
274
     3
340
11
275
     0
280
     0
281
     0
282
     0
283
     0
284
     8
285
     0
286
     0
287
     3
288
     0
  0
ENDTAB
  0
TABLE
  2
BLOCK_RECORD
  5
1
330
0
100
AcDbSymbolTable
 70
     1
  0
BLOCK_RECORD
  5
1F
330
1
100
AcDbSymbolTableRecord
100
AcDbBlockTableRecord
  2
*MODEL_SPACE
  0
BLOCK_RECORD
  5
1B
330
1
100
AcDbSymbolTableRecord
100
AcDbBlockTableRecord
  2
*PAPER_SPACE
  0
ENDTAB
  0
ENDSEC
  0
SECTION
  2
BLOCKS
  0
BLOCK
  5
20
330
1F
100
AcDbEntity
  8
0
100
AcDbBlockBegin
  2
*MODEL_SPACE
 70
     0
 10
0.0
 20
0.0
 30
0.0
  3
*MODEL_SPACE
  1

  0
ENDBLK
  5
21
330
1F
100
AcDbEntity
  8
0
100
AcDbBlockEnd
  0
BLOCK
  5
1C
330
1B
100
AcDbEntity
 67
     1
  8
0
100
AcDbBlockBegin
  2
*PAPER_SPACE
  1

  0
ENDBLK
  5
1D
330
1B
100
AcDbEntity
 67
     1
  8
0
100
AcDbBlockEnd
  0
ENDSEC
  0
SECTION
  2
ENTITIES
  0
LWPOLYLINE
  5
100
100
AcDbEntity
  8
Layer_1
 62
7
100
AcDbPolyline
 90
21
 70
1
 10
-336.571432
 20
364.571428
 30
0.0
 10
-334.285712
 20
297.714284
 30
0.0
 10
-280.000000
 20
264.571428
 30
0.0
 10
-210.857144
 20
234.285716
 30
0.0
 10
-194.285712
 20
218.857140
 30
0.0
 10
-100.000000
 20
309.714284
 30
0.0
 10
-10.285714
 20
322.857140
 30
0.0
 10
-36.000000
 20
347.428572
 30
0.0
 10
-47.428571
 20
365.142860
 30
0.0
 10
-58.857143
 20
352.000004
 30
0.0
 10
-78.285714
 20
352.000004
 30
0.0
 10
-104.000000
 20
365.714284
 30
0.0
 10
-129.714288
 20
370.857140
 30
0.0
 10
-185.142856
 20
356.571428
 30
0.0
 10
-225.714288
 20
382.857140
 30
0.0
 10
-246.857144
 20
379.428572
 30
0.0
 10
-276.571432
 20
354.857140
 30
0.0
 10
-301.142856
 20
356.000004
 30
0.0
 10
-313.714288
 20
360.571428
 30
0.0
 10
-325.142856
 20
360.000004
 30
0.0
 10
-336.571432
 20
364.571428
 30
0.0
  0
LWPOLYLINE
  5
101
100
AcDbEntity
  8
Layer_1
 62
7
100
AcDbPolyline
 90
26
 70
1
 10
-47.428571
 20
365.714284
 30
0.0
 10
-50.857143
 20
456.000004
 30
0.0
 10
-70.285714
 20
475.428572
 30
0.0
 10
-113.714288
 20
482.285716
 30
0.0
 10
-126.857144
 20
490.857140
 30
0.0
 10
-136.571432
 20
529.142860
 30
0.0
 10
-156.000000
 20
536.000004
 30
0.0
 10
-189.714288
 20
530.285716
 30
0.0
 10
-241.142856
 20
485.142860
 30
0.0
 10
-253.142856
 20
483.428572
 30
0.0
 10
-282.857144
 20
490.285716
 30
0.0
 10
-325.142856
 20
421.142860
 30
0.0
 10
-352.000000
 20
394.857140
 30
0.0
 10
-335.428568
 20
364.000004
 30
0.0
 10
-325.714288
 20
361.142860
 30
0.0
 10
-313.714288
 20
361.142860
 30
0.0
 10
-300.571432
 20
355.428572
 30
0.0
 10
-274.285712
 20
354.857140
 30
0.0
 10
-246.857144
 20
378.857140
 30
0.0
 10
-222.857144
 20
382.857140
 30
0.0
 10
-183.428568
 20
356.000004
 30
0.0
 10
-129.714288
 20
370.857140
 30
0.0
 10
-101.142856
 20
365.714284
 30
0.0
 10
-76.571429
 20
352.571428
 30
0.0
 10
-56.000000
 20
352.000004
 30
0.0
 10
-47.428571
 20
365.714284
 30
0.0
  0
LWPOLYLINE
  5
102
100
AcDbEntity
  8
Layer_1
 62
7
100
AcDbPolyline
 90
12
 70
1
 10
-9.142857
 20
324.000004
 30
0.0
 10
-32.571429
 20
343.428572
 30
0.0
 10
-46.857143
 20
365.142860
 30
0.0
 10
-50.285714
 20
456.000004
 30
0.0
 10
-19.428571
 20
463.428572
 30
0.0
 10
2.857143
 20
464.571428
 30
0.0
 10
21.714286
 20
468.571428
 30
0.0
 10
36.000000
 20
490.857140
 30
0.0
 10
76.571429
 20
465.714284
 30
0.0
 10
124.571432
 20
410.857140
 30
0.0
 10
102.857144
 20
354.285716
 30
0.0
 10
-9.142857
 20
324.000004
 30
0.0
  0
LWPOLYLINE
  5
103
100
AcDbEntity
  8
Layer_1
 62
7
100
AcDbPolyline
 90
31
 70
1
 10
35.428571
 20
492.000004
 30
0.0
 10
30.285714
 20
542.857140
 30
0.0
 10
7.428571
 20
552.000004
 30
0.0
 10
-9.142857
 20
573.714284
 30
0.0
 10
-12.571429
 20
591.428572
 30
0.0
 10
-52.571429
 20
630.285716
 30
0.0
 10
-58.285714
 20
650.285716
 30
0.0
 10
-50.857143
 20
674.285716
 30
0.0
 10
-21.142857
 20
702.857140
 30
0.0
 10
-17.142857
 20
721.142860
 30
0.0
 10
-40.571429
 20
745.714284
 30
0.0
 10
-64.571429
 20
714.285716
 30
0.0
 10
-89.714288
 20
703.428572
 30
0.0
 10
-113.142856
 20
682.285716
 30
0.0
 10
-122.285712
 20
630.285716
 30
0.0
 10
-144.000000
 20
607.428572
 30
0.0
 10
-263.428568
 20
539.428572
 30
0.0
 10
-260.571432
 20
525.142860
 30
0.0
 10
-280.571432
 20
490.857140
 30
0.0
 10
-252.571432
 20
484.000004
 30
0.0
 10
-239.428568
 20
488.000004
 30
0.0
 10
-190.857144
 20
530.285716
 30
0.0
 10
-153.714288
 20
536.571428
 30
0.0
 10
-135.428568
 20
529.714284
 30
0.0
 10
-125.142856
 20
489.714284
 30
0.0
 10
-112.000000
 20
482.285716
 30
0.0
 10
-69.142858
 20
476.000004
 30
0.0
 10
-50.857143
 20
457.142860
 30
0.0
 10
-18.857143
 20
464.000004
 30
0.0
 10
20.571429
 20
468.000004
 30
0.0
 10
35.428571
 20
492.000004
 30
0.0
  0
LWPOLYLINE
  5
104
100
AcDbEntity
  8
Layer_1
 62
7
100
AcDbPolyline
 90
19
 70
1
 10
30.285714
 20
543.428572
 30
0.0
 10
32.000000
 20
564.000004
 30
0.0
 10
48.000000
 20
591.428572
 30
0.0
 10
83.428568
 20
622.857140
 30
0.0
 10
102.285712
 20
657.142860
 30
0.0
 10
54.285714
 20
755.428572
 30
0.0
 10
32.000000
 20
766.285715
 30
0.0
 10
-9.142857
 20
744.000004
 30
0.0
 10
-38.285714
 20
745.714284
 30
0.0
 10
-14.857143
 20
721.142860
 30
0.0
 10
-20.000000
 20
702.857140
 30
0.0
 10
-48.000000
 20
675.428572
 30
0.0
 10
-52.000000
 20
672.571428
 30
0.0
 10
-57.142858
 20
652.000004
 30
0.0
 10
-52.000000
 20
629.714284
 30
0.0
 10
-10.857143
 20
589.714284
 30
0.0
 10
-8.000000
 20
572.571428
 30
0.0
 10
9.142857
 20
549.714284
 30
0.0
 10
30.285714
 20
543.428572
 30
0.0
  0
LWPOLYLINE
  5
105
100
AcDbEntity
  8
Layer_1
 62
7
100
AcDbPolyline
 90
13
 70
1
 10
-264.000000
 20
538.857140
 30
0.0
 10
-282.285712
 20
528.571428
 30
0.0
 10
-337.142856
 20
517.142860
 30
0.0
 10
-380.571432
 20
501.714284
 30
0.0
 10
-421.714288
 20
465.714284
 30
0.0
 10
-445.714288
 20
425.714284
 30
0.0
 10
-449.142856
 20
353.714284
 30
0.0
 10
-336.000000
 20
340.571428
 30
0.0
 10
-336.571432
 20
366.285716
 30
0.0
 10
-353.142856
 20
395.428572
 30
0.0
 10
-326.285712
 20
420.000004
 30
0.0
 10
-260.571432
 20
525.714284
 30
0.0
 10
-264.000000
 20
538.857140
 30
0.0
  0
ENDSEC
  0
SECTION
  2
OBJECTS
  0
DICTIONARY
  5
C
330
0
100
AcDbDictionary
  3
ACAD_GROUP
350
D
  3
ACAD_MLINESTYLE
350
17
  0
DICTIONARY
  5
D
330
C
100
AcDbDictionary
  0
DICTIONARY
  5
1A
330
C
100
AcDbDictionary
  0
DICTIONARY
  5
17
330
C
100
AcDbDictionary
  3
STANDARD
350
18
  0
DICTIONARY
  5
19
330
C
100
AcDbDictionary
  0
ENDSEC
  0
EOF
