  0
SECTION
  2
HEADER
  9
$ACADVER
  1
AC1014
  9
$HANDSEED
  5
FFFF
  9
$MEASUREMENT
 70
     1
  0
ENDSEC
  0
SECTION
  2
TABLES
  0
TABLE
  2
VPORT
  5
8
330
0
100
AcDbSymbolTable
 70
     4
  0
VPORT
  5
2E
330
8
100
AcDbSymbolTableRecord
100
AcDbViewportTableRecord
  2
*ACTIVE
 70
     0
 10
0.0
 20
0.0
 11
1.0
 21
1.0
 12
210.0
 22
148.5
 13
0.0
 23
0.0
 14
10.0
 24
10.0
 15
10.0
 25
10.0
 16
0.0
 26
0.0
 36
1.0
 17
0.0
 27
0.0
 37
0.0
 40
341.0
 41
1.24
 42
50.0
 43
0.0
 44
0.0
 50
0.0
 51
0.0
 71
     0
 72
   100
 73
     1
 74
     3
 75
     0
 76
     0
 77
     0
 78
     0
  0
ENDTAB
  0
TABLE
  2
LTYPE
  5
5
330
0
100
AcDbSymbolTable
 70
     1
  0
LTYPE
  5
14
330
5
100
AcDbSymbolTableRecord
100
AcDbLinetypeTableRecord
  2
BYBLOCK
 70
     0
  3

 72
    65
 73
     0
 40
0.0
  0
LTYPE
  5
15
330
5
100
AcDbSymbolTableRecord
100
AcDbLinetypeTableRecord
  2
BYLAYER
 70
     0
  3

 72
    65
 73
     0
 40
0.0
  0
LTYPE
  5
16
330
5
100
AcDbSymbolTableRecord
100
AcDbLinetypeTableRecord
  2
CONTINUOUS
 70
     0
  3
Solid line
 72
    65
 73
     0
 40
0.0
  0
ENDTAB
  0
TABLE
  2
LAYER
  5
2
100
AcDbSymbolTable
 70
2
  0
LAYER
  5
50
100
AcDbSymbolTableRecord
100
AcDbLayerTableRecord
  2
0
 70
0
  6
CONTINUOUS
  0
LAYER
  5
51
100
AcDbSymbolTableRecord
100
AcDbLayerTableRecord
  2
Layer_1
 70
0
  6
CONTINUOUS
  0
ENDTAB
  0
TABLE
  2
STYLE
  5
3
330
0
100
AcDbSymbolTable
 70
     1
  0
STYLE
  5
11
330
3
100
AcDbSymbolTableRecord
100
AcDbTextStyleTableRecord
  2
STANDARD
 70
     0
 40
0.0
 41
1.0
 50
0.0
 71
     0
 42
2.5
  3
txt
  4

  0
ENDTAB
  0
TABLE
  2
VIEW
  5
6
330
0
100
AcDbSymbolTable
 70
     0
  0
ENDTAB
  0
TABLE
  2
UCS
  5
7
330
0
100
AcDbSymbolTable
 70
     0
  0
ENDTAB
  0
TABLE
  2
APPID
  5
9
330
0
100
AcDbSymbolTable
 70
     2
  0
APPID
  5
12
330
9
100
AcDbSymbolTableRecord
100
AcDbRegAppTableRecord
  2
ACAD
 70
     0
  0
ENDTAB
  0
TABLE
  2
DIMSTYLE
  5
A
330
0
100
AcDbSymbolTable
 70
     1
  0
DIMSTYLE
105
27
330
A
100
AcDbSymbolTableRecord
100
AcDbDimStyleTableRecord
  2
ISO-25
 70
     0
  3

  4

  5

  6

  7

 40
1.0
 41
2.5
 42
0.625
 43
3.75
 44
1.25
 45
0.0
 46
0.0
 47
0.0
 48
0.0
140
2.5
141
2.5
142
0.0
143
0.03937007874016
144
1.0
145
0.0
146
1.0
147
0.625
 71
     0
 72
     0
 73
     0
 74
     0
 75
     0
 76
     0
 77
     1
 78
     8
170
     0
171
     3
172
     1
173
     0
174
     0
175
     0
176
     0
177
     0
178
     0
270
     2
271
     2
272
     2
273
     2
274
     3
340
11
275
     0
280
     0
281
     0
282
     0
283
     0
284
     8
285
     0
286
     0
287
     3
288
     0
  0
ENDTAB
  0
TABLE
  2
BLOCK_RECORD
  5
1
330
0
100
AcDbSymbolTable
 70
     1
  0
BLOCK_RECORD
  5
1F
330
1
100
AcDbSymbolTableRecord
100
AcDbBlockTableRecord
  2
*MODEL_SPACE
  0
BLOCK_RECORD
  5
1B
330
1
100
AcDbSymbolTableRecord
100
AcDbBlockTableRecord
  2
*PAPER_SPACE
  0
ENDTAB
  0
ENDSEC
  0
SECTION
  2
BLOCKS
  0
BLOCK
  5
20
330
1F
100
AcDbEntity
  8
0
100
AcDbBlockBegin
  2
*MODEL_SPACE
 70
     0
 10
0.0
 20
0.0
 30
0.0
  3
*MODEL_SPACE
  1

  0
ENDBLK
  5
21
330
1F
100
AcDbEntity
  8
0
100
AcDbBlockEnd
  0
BLOCK
  5
1C
330
1B
100
AcDbEntity
 67
     1
  8
0
100
AcDbBlockBegin
  2
*PAPER_SPACE
  1

  0
ENDBLK
  5
1D
330
1B
100
AcDbEntity
 67
     1
  8
0
100
AcDbBlockEnd
  0
ENDSEC
  0
SECTION
  2
ENTITIES
  0
LWPOLYLINE
  5
100
100
AcDbEntity
  8
Layer_1
 62
7
100
AcDbPolyline
 90
14
 70
1
 10
-416.990968
 20
209.303604
 30
0.0
 10
-384.666088
 20
240.012244
 30
0.0
 10
-425.072192
 20
294.156420
 30
0.0
 10
-413.758480
 20
308.702620
 30
0.0
 10
-353.149328
 20
337.795012
 30
0.0
 10
-339.411256
 20
347.492476
 30
0.0
 10
-327.289424
 20
366.887404
 30
0.0
 10
-315.975720
 20
373.352380
 30
0.0
 10
-277.185856
 20
345.876228
 30
0.0
 10
-292.540176
 20
271.529004
 30
0.0
 10
-320.824448
 20
210.919852
 30
0.0
 10
-319.208208
 20
197.181780
 30
0.0
 10
-370.119896
 20
187.484316
 30
0.0
 10
-416.990968
 20
209.303604
 30
0.0
  0
LWPOLYLINE
  5
101
100
AcDbEntity
  8
Layer_1
 62
7
100
AcDbPolyline
 90
15
 70
1
 10
-319.208208
 20
197.989900
 30
0.0
 10
-227.082296
 20
217.384828
 30
0.0
 10
-193.141168
 20
182.635580
 30
0.0
 10
-112.328960
 20
192.333044
 30
0.0
 10
-58.184786
 20
227.890412
 30
0.0
 10
-67.428571
 20
332.000004
 30
0.0
 10
-81.142856
 20
341.714284
 30
0.0
 10
-146.270088
 20
362.846796
 30
0.0
 10
-169.705624
 20
358.806188
 30
0.0
 10
-180.211216
 20
348.704660
 30
0.0
 10
-205.667056
 20
317.591964
 30
0.0
 10
-285.267080
 20
310.722924
 30
0.0
 10
-292.944240
 20
268.700580
 30
0.0
 10
-319.612264
 20
211.323916
 30
0.0
 10
-319.208208
 20
197.989900
 30
0.0
  0
LWPOLYLINE
  5
102
100
AcDbEntity
  8
Layer_1
 62
7
100
AcDbPolyline
 90
25
 70
1
 10
-283.650832
 20
311.935108
 30
0.0
 10
-276.377736
 20
347.088412
 30
0.0
 10
-314.763536
 20
373.352380
 30
0.0
 10
-273.549312
 20
410.930052
 30
0.0
 10
-262.235600
 20
419.011276
 30
0.0
 10
-250.921896
 20
431.537164
 30
0.0
 10
-277.589920
 20
444.871180
 30
0.0
 10
-284.863016
 20
463.457988
 30
0.0
 10
-283.246776
 20
489.317892
 30
0.0
 10
-280.418344
 20
497.399116
 30
0.0
 10
-261.831536
 20
506.692516
 30
0.0
 10
-250.113768
 20
518.410284
 30
0.0
 10
-221.829496
 20
526.491508
 30
0.0
 10
-184.251824
 20
530.936180
 30
0.0
 10
-139.401048
 20
528.107748
 30
0.0
 10
-148.290392
 20
508.308764
 30
0.0
 10
-148.290392
 20
477.600124
 30
0.0
 10
-111.924904
 20
433.557476
 30
0.0
 10
-29.092394
 20
393.151372
 30
0.0
 10
-66.266007
 20
330.925972
 30
0.0
 10
-79.600021
 20
341.835620
 30
0.0
 10
-145.461968
 20
363.250852
 30
0.0
 10
-169.301568
 20
358.806188
 30
0.0
 10
-205.667056
 20
317.996020
 30
0.0
 10
-283.650832
 20
311.935108
 30
0.0
  0
LWPOLYLINE
  5
103
100
AcDbEntity
  8
Layer_1
 62
7
100
AcDbPolyline
 90
13
 70
1
 10
-315.369624
 20
373.554412
 30
0.0
 10
-272.539160
 20
412.142236
 30
0.0
 10
-262.437632
 20
419.213308
 30
0.0
 10
-250.921896
 20
431.335140
 30
0.0
 10
-277.589920
 20
443.861028
 30
0.0
 10
-285.065048
 20
462.447836
 30
0.0
 10
-283.852864
 20
489.923988
 30
0.0
 10
-280.822408
 20
496.590996
 30
0.0
 10
-316.581808
 20
483.459012
 30
0.0
 10
-362.038672
 20
474.367636
 30
0.0
 10
-349.916840
 20
456.386924
 30
0.0
 10
-344.259984
 20
399.414316
 30
0.0
 10
-315.369624
 20
373.554412
 30
0.0
  0
LWPOLYLINE
  5
104
100
AcDbEntity
  8
Layer_1
 62
7
100
AcDbPolyline
 90
10
 70
1
 10
-376.382840
 20
481.034644
 30
0.0
 10
-361.836640
 20
474.165604
 30
0.0
 10
-350.118872
 20
455.376772
 30
0.0
 10
-348.704656
 20
439.214324
 30
0.0
 10
-392.949344
 20
419.415340
 30
0.0
 10
-419.213304
 20
413.758484
 30
0.0
 10
-454.366616
 20
407.495540
 30
0.0
 10
-450.730064
 20
429.920924
 30
0.0
 10
-412.748328
 20
445.477276
 30
0.0
 10
-376.382840
 20
481.034644
 30
0.0
  0
LWPOLYLINE
  5
105
100
AcDbEntity
  8
Layer_1
 62
7
100
AcDbPolyline
 90
13
 70
1
 10
-348.906688
 20
439.214324
 30
0.0
 10
-345.068112
 20
399.414316
 30
0.0
 10
-315.773688
 20
373.352380
 30
0.0
 10
-327.895520
 20
366.887404
 30
0.0
 10
-340.017344
 20
347.492476
 30
0.0
 10
-353.553392
 20
338.401100
 30
0.0
 10
-412.748328
 20
310.116828
 30
0.0
 10
-425.274224
 20
294.156420
 30
0.0
 10
-457.195040
 20
303.449828
 30
0.0
 10
-471.741240
 20
355.977756
 30
0.0
 10
-454.366616
 20
407.091476
 30
0.0
 10
-392.141216
 20
419.617372
 30
0.0
 10
-348.906688
 20
439.214324
 30
0.0
  0
LWPOLYLINE
  5
106
100
AcDbEntity
  8
Layer_1
 62
7
100
AcDbPolyline
 90
20
 70
1
 10
-391.939184
 20
594.373756
 30
0.0
 10
-381.837664
 20
566.089484
 30
0.0
 10
-352.745272
 20
536.997092
 30
0.0
 10
-375.776744
 20
481.640732
 30
0.0
 10
-362.038672
 20
474.771700
 30
0.0
 10
-317.187896
 20
483.661036
 30
0.0
 10
-280.822408
 20
496.995052
 30
0.0
 10
-260.619360
 20
507.904700
 30
0.0
 10
-251.325952
 20
519.218412
 30
0.0
 10
-219.405136
 20
527.299628
 30
0.0
 10
-184.655888
 20
530.936180
 30
0.0
 10
-139.401048
 20
528.511812
 30
0.0
 10
-115.965512
 20
542.653948
 30
0.0
 10
-66.266007
 20
555.583900
 30
0.0
 10
-48.083261
 20
573.362588
 30
0.0
 10
-98.994952
 20
625.890516
 30
0.0
 10
-124.854856
 20
660.235708
 30
0.0
 10
-158.391920
 20
631.951436
 30
0.0
 10
-203.646752
 20
609.728076
 30
0.0
 10
-391.939184
 20
594.373756
 30
0.0
  0
LWPOLYLINE
  5
107
100
AcDbEntity
  8
Layer_1
 62
7
100
AcDbPolyline
 90
18
 70
1
 10
-29.900515
 20
392.747308
 30
0.0
 10
76.367533
 20
409.717876
 30
0.0
 10
134.956384
 20
435.981836
 30
0.0
 10
140.613232
 20
455.780828
 30
0.0
 10
174.150296
 20
474.367636
 30
0.0
 10
176.978728
 20
532.552420
 30
0.0
 10
173.342176
 20
565.685428
 30
0.0
 10
58.588848
 20
569.726036
 30
0.0
 10
25.859905
 20
578.615380
 30
0.0
 10
-8.485282
 20
573.362588
 30
0.0
 10
-47.275139
 20
572.150404
 30
0.0
 10
-65.457885
 20
555.583900
 30
0.0
 10
-115.157392
 20
541.037700
 30
0.0
 10
-138.592928
 20
528.107748
 30
0.0
 10
-147.886336
 20
508.712820
 30
0.0
 10
-147.886336
 20
476.387940
 30
0.0
 10
-113.137088
 20
434.365596
 30
0.0
 10
-29.900515
 20
392.747308
 30
0.0
  0
ENDSEC
  0
SECTION
  2
OBJECTS
  0
DICTIONARY
  5
C
330
0
100
AcDbDictionary
  3
ACAD_GROUP
350
D
  3
ACAD_MLINESTYLE
350
17
  0
DICTIONARY
  5
D
330
C
100
AcDbDictionary
  0
DICTIONARY
  5
1A
330
C
100
AcDbDictionary
  0
DICTIONARY
  5
17
330
C
100
AcDbDictionary
  3
STANDARD
350
18
  0
DICTIONARY
  5
19
330
C
100
AcDbDictionary
  0
ENDSEC
  0
EOF
