  0
SECTION
  2
HEADER
  9
$ACADVER
  1
AC1014
  9
$HANDSEED
  5
FFFF
  9
$MEASUREMENT
 70
     1
  0
ENDSEC
  0
SECTION
  2
TABLES
  0
TABLE
  2
VPORT
  5
8
330
0
100
AcDbSymbolTable
 70
     4
  0
VPORT
  5
2E
330
8
100
AcDbSymbolTableRecord
100
AcDbViewportTableRecord
  2
*ACTIVE
 70
     0
 10
0.0
 20
0.0
 11
1.0
 21
1.0
 12
210.0
 22
148.5
 13
0.0
 23
0.0
 14
10.0
 24
10.0
 15
10.0
 25
10.0
 16
0.0
 26
0.0
 36
1.0
 17
0.0
 27
0.0
 37
0.0
 40
341.0
 41
1.24
 42
50.0
 43
0.0
 44
0.0
 50
0.0
 51
0.0
 71
     0
 72
   100
 73
     1
 74
     3
 75
     0
 76
     0
 77
     0
 78
     0
  0
ENDTAB
  0
TABLE
  2
LTYPE
  5
5
330
0
100
AcDbSymbolTable
 70
     1
  0
LTYPE
  5
14
330
5
100
AcDbSymbolTableRecord
100
AcDbLinetypeTableRecord
  2
BYBLOCK
 70
     0
  3

 72
    65
 73
     0
 40
0.0
  0
LTYPE
  5
15
330
5
100
AcDbSymbolTableRecord
100
AcDbLinetypeTableRecord
  2
BYLAYER
 70
     0
  3

 72
    65
 73
     0
 40
0.0
  0
LTYPE
  5
16
330
5
100
AcDbSymbolTableRecord
100
AcDbLinetypeTableRecord
  2
CONTINUOUS
 70
     0
  3
Solid line
 72
    65
 73
     0
 40
0.0
  0
ENDTAB
  0
TABLE
  2
LAYER
  5
2
100
AcDbSymbolTable
 70
2
  0
LAYER
  5
50
100
AcDbSymbolTableRecord
100
AcDbLayerTableRecord
  2
0
 70
0
  6
CONTINUOUS
  0
LAYER
  5
51
100
AcDbSymbolTableRecord
100
AcDbLayerTableRecord
  2
Layer_1
 70
0
  6
CONTINUOUS
  0
ENDTAB
  0
TABLE
  2
STYLE
  5
3
330
0
100
AcDbSymbolTable
 70
     1
  0
STYLE
  5
11
330
3
100
AcDbSymbolTableRecord
100
AcDbTextStyleTableRecord
  2
STANDARD
 70
     0
 40
0.0
 41
1.0
 50
0.0
 71
     0
 42
2.5
  3
txt
  4

  0
ENDTAB
  0
TABLE
  2
VIEW
  5
6
330
0
100
AcDbSymbolTable
 70
     0
  0
ENDTAB
  0
TABLE
  2
UCS
  5
7
330
0
100
AcDbSymbolTable
 70
     0
  0
ENDTAB
  0
TABLE
  2
APPID
  5
9
330
0
100
AcDbSymbolTable
 70
     2
  0
APPID
  5
12
330
9
100
AcDbSymbolTableRecord
100
AcDbRegAppTableRecord
  2
ACAD
 70
     0
  0
ENDTAB
  0
TABLE
  2
DIMSTYLE
  5
A
330
0
100
AcDbSymbolTable
 70
     1
  0
DIMSTYLE
105
27
330
A
100
AcDbSymbolTableRecord
100
AcDbDimStyleTableRecord
  2
ISO-25
 70
     0
  3

  4

  5

  6

  7

 40
1.0
 41
2.5
 42
0.625
 43
3.75
 44
1.25
 45
0.0
 46
0.0
 47
0.0
 48
0.0
140
2.5
141
2.5
142
0.0
143
0.03937007874016
144
1.0
145
0.0
146
1.0
147
0.625
 71
     0
 72
     0
 73
     0
 74
     0
 75
     0
 76
     0
 77
     1
 78
     8
170
     0
171
     3
172
     1
173
     0
174
     0
175
     0
176
     0
177
     0
178
     0
270
     2
271
     2
272
     2
273
     2
274
     3
340
11
275
     0
280
     0
281
     0
282
     0
283
     0
284
     8
285
     0
286
     0
287
     3
288
     0
  0
ENDTAB
  0
TABLE
  2
BLOCK_RECORD
  5
1
330
0
100
AcDbSymbolTable
 70
     1
  0
BLOCK_RECORD
  5
1F
330
1
100
AcDbSymbolTableRecord
100
AcDbBlockTableRecord
  2
*MODEL_SPACE
  0
BLOCK_RECORD
  5
1B
330
1
100
AcDbSymbolTableRecord
100
AcDbBlockTableRecord
  2
*PAPER_SPACE
  0
ENDTAB
  0
ENDSEC
  0
SECTION
  2
BLOCKS
  0
BLOCK
  5
20
330
1F
100
AcDbEntity
  8
0
100
AcDbBlockBegin
  2
*MODEL_SPACE
 70
     0
 10
0.0
 20
0.0
 30
0.0
  3
*MODEL_SPACE
  1

  0
ENDBLK
  5
21
330
1F
100
AcDbEntity
  8
0
100
AcDbBlockEnd
  0
BLOCK
  5
1C
330
1B
100
AcDbEntity
 67
     1
  8
0
100
AcDbBlockBegin
  2
*PAPER_SPACE
  1

  0
ENDBLK
  5
1D
330
1B
100
AcDbEntity
 67
     1
  8
0
100
AcDbBlockEnd
  0
ENDSEC
  0
SECTION
  2
ENTITIES
  0
LWPOLYLINE
  5
100
100
AcDbEntity
  8
Layer_1
 62
7
100
AcDbPolyline
 90
14
 70
1
 10
114.857144
 20
714.857140
 30
0.0
 10
82.857144
 20
696.000004
 30
0.0
 10
46.285714
 20
660.571428
 30
0.0
 10
-40.571429
 20
497.714284
 30
0.0
 10
-41.714286
 20
426.285716
 30
0.0
 10
-12.000000
 20
429.142860
 30
0.0
 10
47.428571
 20
476.000004
 30
0.0
 10
87.428568
 20
520.571428
 30
0.0
 10
92.571432
 20
575.428572
 30
0.0
 10
100.000000
 20
605.142860
 30
0.0
 10
100.571432
 20
625.142860
 30
0.0
 10
120.000000
 20
674.857140
 30
0.0
 10
121.714288
 20
694.285716
 30
0.0
 10
114.857144
 20
714.857140
 30
0.0
  0
LWPOLYLINE
  5
101
100
AcDbEntity
  8
Layer_1
 62
7
100
AcDbPolyline
 90
35
 70
1
 10
-41.142857
 20
427.428572
 30
0.0
 10
-33.714286
 20
380.000004
 30
0.0
 10
-61.142858
 20
324.571428
 30
0.0
 10
-52.000000
 20
314.285716
 30
0.0
 10
0.000000
 20
341.714284
 30
0.0
 10
39.428571
 20
354.285716
 30
0.0
 10
47.428571
 20
366.285716
 30
0.0
 10
73.714286
 20
384.571428
 30
0.0
 10
116.000000
 20
391.428572
 30
0.0
 10
146.285712
 20
365.142860
 30
0.0
 10
166.857144
 20
356.000004
 30
0.0
 10
181.142856
 20
360.000004
 30
0.0
 10
198.857144
 20
392.000004
 30
0.0
 10
201.714288
 20
410.857140
 30
0.0
 10
193.714288
 20
436.000004
 30
0.0
 10
196.000000
 20
453.714284
 30
0.0
 10
209.142856
 20
477.714284
 30
0.0
 10
225.714288
 20
495.428572
 30
0.0
 10
201.142856
 20
509.714284
 30
0.0
 10
186.285712
 20
524.571428
 30
0.0
 10
170.857144
 20
634.857140
 30
0.0
 10
215.428568
 20
706.857140
 30
0.0
 10
228.000000
 20
740.571428
 30
0.0
 10
195.428568
 20
741.714284
 30
0.0
 10
136.000000
 20
727.428572
 30
0.0
 10
113.142856
 20
713.714284
 30
0.0
 10
122.285712
 20
695.428572
 30
0.0
 10
114.857144
 20
656.571428
 30
0.0
 10
100.571432
 20
623.428572
 30
0.0
 10
99.428568
 20
603.428572
 30
0.0
 10
92.000000
 20
578.285716
 30
0.0
 10
87.428568
 20
519.428572
 30
0.0
 10
40.000000
 20
470.857140
 30
0.0
 10
-10.857143
 20
430.285716
 30
0.0
 10
-41.142857
 20
427.428572
 30
0.0
  0
LWPOLYLINE
  5
102
100
AcDbEntity
  8
Layer_1
 62
7
100
AcDbPolyline
 90
21
 70
1
 10
38.285714
 20
354.285716
 30
0.0
 10
46.857143
 20
366.285716
 30
0.0
 10
73.714286
 20
384.571428
 30
0.0
 10
118.285712
 20
392.571428
 30
0.0
 10
137.142856
 20
375.428572
 30
0.0
 10
148.000000
 20
365.142860
 30
0.0
 10
165.142856
 20
357.714284
 30
0.0
 10
224.000000
 20
368.000004
 30
0.0
 10
266.285712
 20
358.285716
 30
0.0
 10
253.714288
 20
344.000004
 30
0.0
 10
233.142856
 20
329.142860
 30
0.0
 10
206.285712
 20
301.142860
 30
0.0
 10
171.428568
 20
274.285716
 30
0.0
 10
139.428568
 20
261.714284
 30
0.0
 10
94.285712
 20
252.571428
 30
0.0
 10
94.857144
 20
241.714284
 30
0.0
 10
103.428568
 20
231.428572
 30
0.0
 10
61.142858
 20
234.857140
 30
0.0
 10
73.142858
 20
320.571428
 30
0.0
 10
61.714286
 20
341.142860
 30
0.0
 10
38.285714
 20
354.285716
 30
0.0
  0
LWPOLYLINE
  5
103
100
AcDbEntity
  8
Layer_1
 62
7
100
AcDbPolyline
 90
27
 70
1
 10
104.000000
 20
230.285716
 30
0.0
 10
94.285712
 20
241.714284
 30
0.0
 10
92.571432
 20
252.000004
 30
0.0
 10
137.714288
 20
260.571428
 30
0.0
 10
170.857144
 20
273.714284
 30
0.0
 10
202.285712
 20
298.857140
 30
0.0
 10
240.000000
 20
333.714284
 30
0.0
 10
256.571432
 20
346.857140
 30
0.0
 10
264.000000
 20
358.857140
 30
0.0
 10
303.428568
 20
361.714284
 30
0.0
 10
301.142856
 20
337.714284
 30
0.0
 10
308.000000
 20
329.142860
 30
0.0
 10
327.428568
 20
325.142860
 30
0.0
 10
339.428568
 20
327.428572
 30
0.0
 10
347.428568
 20
322.857140
 30
0.0
 10
347.428568
 20
299.428572
 30
0.0
 10
328.571432
 20
292.000004
 30
0.0
 10
322.857144
 20
286.857140
 30
0.0
 10
322.285712
 20
274.857140
 30
0.0
 10
346.285712
 20
264.571428
 30
0.0
 10
319.428568
 20
184.000004
 30
0.0
 10
281.142856
 20
177.142860
 30
0.0
 10
255.428568
 20
180.000004
 30
0.0
 10
234.285712
 20
190.285716
 30
0.0
 10
214.285712
 20
212.571428
 30
0.0
 10
198.857144
 20
225.714284
 30
0.0
 10
104.000000
 20
230.285716
 30
0.0
  0
LWPOLYLINE
  5
104
100
AcDbEntity
  8
Layer_1
 62
7
100
AcDbPolyline
 90
16
 70
1
 10
346.280296
 20
264.457940
 30
0.0
 10
322.642720
 20
274.357428
 30
0.0
 10
323.046784
 20
286.883324
 30
0.0
 10
328.905672
 20
292.742212
 30
0.0
 10
347.694504
 20
299.813276
 30
0.0
 10
346.280296
 20
322.642724
 30
0.0
 10
338.805168
 20
327.895516
 30
0.0
 10
326.885368
 20
325.269124
 30
0.0
 10
308.096528
 20
328.905668
 30
0.0
 10
301.227488
 20
337.390948
 30
0.0
 10
303.045760
 20
360.624460
 30
0.0
 10
333.148312
 20
367.291468
 30
0.0
 10
409.717872
 20
368.099588
 30
0.0
 10
438.204176
 20
364.665068
 30
0.0
 10
377.595024
 20
314.561500
 30
0.0
 10
346.280296
 20
264.457940
 30
0.0
  0
LWPOLYLINE
  5
105
100
AcDbEntity
  8
Layer_1
 62
7
100
AcDbPolyline
 90
13
 70
1
 10
452.144280
 20
481.640732
 30
0.0
 10
394.161520
 20
426.486404
 30
0.0
 10
374.160504
 20
409.919900
 30
0.0
 10
305.874192
 20
372.948324
 30
0.0
 10
303.651856
 20
361.028524
 30
0.0
 10
332.340184
 20
366.685372
 30
0.0
 10
411.940208
 20
367.291468
 30
0.0
 10
438.608232
 20
365.069132
 30
0.0
 10
446.285392
 20
379.413300
 30
0.0
 10
490.328048
 20
433.961532
 30
0.0
 10
490.328048
 20
437.598084
 30
0.0
 10
471.135144
 20
460.629564
 30
0.0
 10
452.144280
 20
481.640732
 30
0.0
  0
LWPOLYLINE
  5
106
100
AcDbEntity
  8
Layer_1
 62
7
100
AcDbPolyline
 90
19
 70
1
 10
452.548344
 20
482.044796
 30
0.0
 10
375.574720
 20
410.323964
 30
0.0
 10
306.480280
 20
372.948324
 30
0.0
 10
303.651856
 20
361.028524
 30
0.0
 10
263.649816
 20
358.806188
 30
0.0
 10
223.647776
 20
367.695524
 30
0.0
 10
181.423400
 20
359.816340
 30
0.0
 10
199.202080
 20
393.151372
 30
0.0
 10
201.222384
 20
411.132084
 30
0.0
 10
193.747256
 20
436.183868
 30
0.0
 10
195.161472
 20
453.154436
 30
0.0
 10
207.687360
 20
476.589972
 30
0.0
 10
224.859960
 20
495.176780
 30
0.0
 10
279.004136
 20
498.207236
 30
0.0
 10
320.016328
 20
512.753436
 30
0.0
 10
371.736136
 20
526.693540
 30
0.0
 10
394.969648
 20
525.279324
 30
0.0
 10
433.153408
 20
502.449876
 30
0.0
 10
452.548344
 20
482.044796
 30
0.0
  0
ENDSEC
  0
SECTION
  2
OBJECTS
  0
DICTIONARY
  5
C
330
0
100
AcDbDictionary
  3
ACAD_GROUP
350
D
  3
ACAD_MLINESTYLE
350
17
  0
DICTIONARY
  5
D
330
C
100
AcDbDictionary
  0
DICTIONARY
  5
1A
330
C
100
AcDbDictionary
  0
DICTIONARY
  5
17
330
C
100
AcDbDictionary
  3
STANDARD
350
18
  0
DICTIONARY
  5
19
330
C
100
AcDbDictionary
  0
ENDSEC
  0
EOF
