  0
SECTION
  2
HEADER
  9
$ACADVER
  1
AC1014
  9
$HANDSEED
  5
FFFF
  9
$MEASUREMENT
 70
     1
  0
ENDSEC
  0
SECTION
  2
TABLES
  0
TABLE
  2
VPORT
  5
8
330
0
100
AcDbSymbolTable
 70
     4
  0
VPORT
  5
2E
330
8
100
AcDbSymbolTableRecord
100
AcDbViewportTableRecord
  2
*ACTIVE
 70
     0
 10
0.0
 20
0.0
 11
1.0
 21
1.0
 12
210.0
 22
148.5
 13
0.0
 23
0.0
 14
10.0
 24
10.0
 15
10.0
 25
10.0
 16
0.0
 26
0.0
 36
1.0
 17
0.0
 27
0.0
 37
0.0
 40
341.0
 41
1.24
 42
50.0
 43
0.0
 44
0.0
 50
0.0
 51
0.0
 71
     0
 72
   100
 73
     1
 74
     3
 75
     0
 76
     0
 77
     0
 78
     0
  0
ENDTAB
  0
TABLE
  2
LTYPE
  5
5
330
0
100
AcDbSymbolTable
 70
     1
  0
LTYPE
  5
14
330
5
100
AcDbSymbolTableRecord
100
AcDbLinetypeTableRecord
  2
BYBLOCK
 70
     0
  3

 72
    65
 73
     0
 40
0.0
  0
LTYPE
  5
15
330
5
100
AcDbSymbolTableRecord
100
AcDbLinetypeTableRecord
  2
BYLAYER
 70
     0
  3

 72
    65
 73
     0
 40
0.0
  0
LTYPE
  5
16
330
5
100
AcDbSymbolTableRecord
100
AcDbLinetypeTableRecord
  2
CONTINUOUS
 70
     0
  3
Solid line
 72
    65
 73
     0
 40
0.0
  0
ENDTAB
  0
TABLE
  2
LAYER
  5
2
100
AcDbSymbolTable
 70
2
  0
LAYER
  5
50
100
AcDbSymbolTableRecord
100
AcDbLayerTableRecord
  2
0
 70
0
  6
CONTINUOUS
  0
LAYER
  5
51
100
AcDbSymbolTableRecord
100
AcDbLayerTableRecord
  2
Layer_1
 70
0
  6
CONTINUOUS
  0
ENDTAB
  0
TABLE
  2
STYLE
  5
3
330
0
100
AcDbSymbolTable
 70
     1
  0
STYLE
  5
11
330
3
100
AcDbSymbolTableRecord
100
AcDbTextStyleTableRecord
  2
STANDARD
 70
     0
 40
0.0
 41
1.0
 50
0.0
 71
     0
 42
2.5
  3
txt
  4

  0
ENDTAB
  0
TABLE
  2
VIEW
  5
6
330
0
100
AcDbSymbolTable
 70
     0
  0
ENDTAB
  0
TABLE
  2
UCS
  5
7
330
0
100
AcDbSymbolTable
 70
     0
  0
ENDTAB
  0
TABLE
  2
APPID
  5
9
330
0
100
AcDbSymbolTable
 70
     2
  0
APPID
  5
12
330
9
100
AcDbSymbolTableRecord
100
AcDbRegAppTableRecord
  2
ACAD
 70
     0
  0
ENDTAB
  0
TABLE
  2
DIMSTYLE
  5
A
330
0
100
AcDbSymbolTable
 70
     1
  0
DIMSTYLE
105
27
330
A
100
AcDbSymbolTableRecord
100
AcDbDimStyleTableRecord
  2
ISO-25
 70
     0
  3

  4

  5

  6

  7

 40
1.0
 41
2.5
 42
0.625
 43
3.75
 44
1.25
 45
0.0
 46
0.0
 47
0.0
 48
0.0
140
2.5
141
2.5
142
0.0
143
0.03937007874016
144
1.0
145
0.0
146
1.0
147
0.625
 71
     0
 72
     0
 73
     0
 74
     0
 75
     0
 76
     0
 77
     1
 78
     8
170
     0
171
     3
172
     1
173
     0
174
     0
175
     0
176
     0
177
     0
178
     0
270
     2
271
     2
272
     2
273
     2
274
     3
340
11
275
     0
280
     0
281
     0
282
     0
283
     0
284
     8
285
     0
286
     0
287
     3
288
     0
  0
ENDTAB
  0
TABLE
  2
BLOCK_RECORD
  5
1
330
0
100
AcDbSymbolTable
 70
     1
  0
BLOCK_RECORD
  5
1F
330
1
100
AcDbSymbolTableRecord
100
AcDbBlockTableRecord
  2
*MODEL_SPACE
  0
BLOCK_RECORD
  5
1B
330
1
100
AcDbSymbolTableRecord
100
AcDbBlockTableRecord
  2
*PAPER_SPACE
  0
ENDTAB
  0
ENDSEC
  0
SECTION
  2
BLOCKS
  0
BLOCK
  5
20
330
1F
100
AcDbEntity
  8
0
100
AcDbBlockBegin
  2
*MODEL_SPACE
 70
     0
 10
0.0
 20
0.0
 30
0.0
  3
*MODEL_SPACE
  1

  0
ENDBLK
  5
21
330
1F
100
AcDbEntity
  8
0
100
AcDbBlockEnd
  0
BLOCK
  5
1C
330
1B
100
AcDbEntity
 67
     1
  8
0
100
AcDbBlockBegin
  2
*PAPER_SPACE
  1

  0
ENDBLK
  5
1D
330
1B
100
AcDbEntity
 67
     1
  8
0
100
AcDbBlockEnd
  0
ENDSEC
  0
SECTION
  2
ENTITIES
  0
LWPOLYLINE
  5
100
100
AcDbEntity
  8
Layer_1
 62
7
100
AcDbPolyline
 90
21
 70
1
 10
-418.285712
 20
597.142860
 30
0.0
 10
-416.571432
 20
607.428572
 30
0.0
 10
-408.000000
 20
612.571428
 30
0.0
 10
-370.857144
 20
609.142860
 30
0.0
 10
-324.571432
 20
633.714284
 30
0.0
 10
-317.142856
 20
644.571428
 30
0.0
 10
-305.142856
 20
634.857140
 30
0.0
 10
-281.142856
 20
627.428572
 30
0.0
 10
-189.714288
 20
653.714284
 30
0.0
 10
-172.571432
 20
642.857140
 30
0.0
 10
-170.857144
 20
615.428572
 30
0.0
 10
-185.142856
 20
594.285716
 30
0.0
 10
-193.142856
 20
571.428572
 30
0.0
 10
-194.857144
 20
546.285716
 30
0.0
 10
-220.571432
 20
526.857140
 30
0.0
 10
-303.428568
 20
539.428572
 30
0.0
 10
-334.285712
 20
532.000004
 30
0.0
 10
-336.571432
 20
557.142860
 30
0.0
 10
-392.571432
 20
577.714284
 30
0.0
 10
-411.428568
 20
587.428572
 30
0.0
 10
-418.285712
 20
597.142860
 30
0.0
  0
LWPOLYLINE
  5
101
100
AcDbEntity
  8
Layer_1
 62
7
100
AcDbPolyline
 90
25
 70
1
 10
-189.714288
 20
654.285716
 30
0.0
 10
-170.285712
 20
641.714284
 30
0.0
 10
-170.285712
 20
614.285716
 30
0.0
 10
-184.000000
 20
594.857140
 30
0.0
 10
-193.714288
 20
572.000004
 30
0.0
 10
-194.285712
 20
548.000004
 30
0.0
 10
-218.857144
 20
528.000004
 30
0.0
 10
-216.000000
 20
520.571428
 30
0.0
 10
-194.285712
 20
525.142860
 30
0.0
 10
-149.714288
 20
525.142860
 30
0.0
 10
-133.714288
 20
520.571428
 30
0.0
 10
-125.142856
 20
527.428572
 30
0.0
 10
-119.428568
 20
527.428572
 30
0.0
 10
-121.714288
 20
513.142860
 30
0.0
 10
-125.142856
 20
507.428572
 30
0.0
 10
-124.571432
 20
499.428572
 30
0.0
 10
-96.000000
 20
484.571428
 30
0.0
 10
-67.428571
 20
538.285716
 30
0.0
 10
-53.714286
 20
550.285716
 30
0.0
 10
-53.714286
 20
563.428572
 30
0.0
 10
-46.857143
 20
581.142860
 30
0.0
 10
-48.000000
 20
640.571428
 30
0.0
 10
-53.714286
 20
647.428572
 30
0.0
 10
-143.428568
 20
666.857140
 30
0.0
 10
-189.714288
 20
654.285716
 30
0.0
  0
LWPOLYLINE
  5
102
100
AcDbEntity
  8
Layer_1
 62
7
100
AcDbPolyline
 90
22
 70
1
 10
-46.857143
 20
580.571428
 30
0.0
 10
-36.571429
 20
572.000004
 30
0.0
 10
-22.857143
 20
566.857140
 30
0.0
 10
-17.142857
 20
568.000004
 30
0.0
 10
-18.285714
 20
554.285716
 30
0.0
 10
17.714286
 20
527.428572
 30
0.0
 10
1.714286
 20
505.142860
 30
0.0
 10
-22.857143
 20
490.857140
 30
0.0
 10
-29.142857
 20
479.428572
 30
0.0
 10
-25.142857
 20
460.571428
 30
0.0
 10
-28.571429
 20
451.428572
 30
0.0
 10
-41.142857
 20
441.714284
 30
0.0
 10
-62.285714
 20
409.714284
 30
0.0
 10
-82.857144
 20
412.000004
 30
0.0
 10
-96.571432
 20
398.857140
 30
0.0
 10
-96.571432
 20
434.285716
 30
0.0
 10
-101.714288
 20
462.857140
 30
0.0
 10
-96.000000
 20
483.428572
 30
0.0
 10
-65.714286
 20
539.428572
 30
0.0
 10
-53.714286
 20
550.285716
 30
0.0
 10
-53.714286
 20
565.142860
 30
0.0
 10
-46.857143
 20
580.571428
 30
0.0
  0
LWPOLYLINE
  5
103
100
AcDbEntity
  8
Layer_1
 62
7
100
AcDbPolyline
 90
29
 70
1
 10
-96.857144
 20
398.285716
 30
0.0
 10
-103.714288
 20
386.000004
 30
0.0
 10
-118.285712
 20
379.714284
 30
0.0
 10
-131.142856
 20
378.000004
 30
0.0
 10
-156.571432
 20
397.714284
 30
0.0
 10
-180.000000
 20
401.428572
 30
0.0
 10
-189.428568
 20
393.428572
 30
0.0
 10
-202.000000
 20
417.428572
 30
0.0
 10
-202.000000
 20
452.285716
 30
0.0
 10
-182.285712
 20
462.571428
 30
0.0
 10
-179.714288
 20
468.857140
 30
0.0
 10
-182.857144
 20
483.142860
 30
0.0
 10
-178.285712
 20
490.285716
 30
0.0
 10
-180.285712
 20
497.142860
 30
0.0
 10
-212.285712
 20
516.571428
 30
0.0
 10
-214.000000
 20
520.571428
 30
0.0
 10
-194.857144
 20
525.428572
 30
0.0
 10
-150.000000
 20
525.428572
 30
0.0
 10
-132.571432
 20
520.285716
 30
0.0
 10
-126.000000
 20
527.142860
 30
0.0
 10
-120.000000
 20
526.857140
 30
0.0
 10
-120.571432
 20
518.285716
 30
0.0
 10
-122.000000
 20
512.857140
 30
0.0
 10
-125.714288
 20
507.714284
 30
0.0
 10
-124.285712
 20
500.000004
 30
0.0
 10
-95.428568
 20
483.714284
 30
0.0
 10
-101.428568
 20
463.142860
 30
0.0
 10
-96.000000
 20
432.000004
 30
0.0
 10
-96.857144
 20
398.285716
 30
0.0
  0
LWPOLYLINE
  5
104
100
AcDbEntity
  8
Layer_1
 62
7
100
AcDbPolyline
 90
24
 70
1
 10
-333.714288
 20
531.142860
 30
0.0
 10
-333.142856
 20
490.285716
 30
0.0
 10
-332.000000
 20
474.000004
 30
0.0
 10
-348.000000
 20
444.000004
 30
0.0
 10
-328.857144
 20
399.142860
 30
0.0
 10
-293.714288
 20
355.428572
 30
0.0
 10
-279.714288
 20
377.428572
 30
0.0
 10
-266.000000
 20
386.000004
 30
0.0
 10
-222.285712
 20
384.285716
 30
0.0
 10
-209.142856
 20
381.428572
 30
0.0
 10
-196.000000
 20
384.857140
 30
0.0
 10
-189.142856
 20
393.142860
 30
0.0
 10
-202.285712
 20
418.285716
 30
0.0
 10
-203.142856
 20
452.000004
 30
0.0
 10
-182.857144
 20
462.000004
 30
0.0
 10
-178.857144
 20
469.428572
 30
0.0
 10
-182.571432
 20
484.571428
 30
0.0
 10
-178.571432
 20
490.285716
 30
0.0
 10
-180.857144
 20
497.714284
 30
0.0
 10
-212.571432
 20
516.000004
 30
0.0
 10
-218.571432
 20
527.428572
 30
0.0
 10
-220.857144
 20
525.714284
 30
0.0
 10
-302.571432
 20
540.000004
 30
0.0
 10
-333.714288
 20
531.142860
 30
0.0
  0
LWPOLYLINE
  5
105
100
AcDbEntity
  8
Layer_1
 62
7
100
AcDbPolyline
 90
23
 70
1
 10
-292.571432
 20
355.428572
 30
0.0
 10
-279.142856
 20
347.142860
 30
0.0
 10
-264.285712
 20
304.000004
 30
0.0
 10
-256.857144
 20
256.571428
 30
0.0
 10
-229.142856
 20
270.571428
 30
0.0
 10
-209.428568
 20
271.428572
 30
0.0
 10
-172.285712
 20
281.142860
 30
0.0
 10
-154.285712
 20
293.428572
 30
0.0
 10
-138.857144
 20
293.714284
 30
0.0
 10
-125.714288
 20
301.142860
 30
0.0
 10
-121.428568
 20
346.000004
 30
0.0
 10
-148.000000
 20
361.428572
 30
0.0
 10
-152.571432
 20
366.571428
 30
0.0
 10
-149.142856
 20
375.428572
 30
0.0
 10
-131.428568
 20
378.857140
 30
0.0
 10
-157.428568
 20
397.428572
 30
0.0
 10
-180.571432
 20
401.142860
 30
0.0
 10
-196.571432
 20
384.285716
 30
0.0
 10
-210.000000
 20
381.142860
 30
0.0
 10
-222.857144
 20
384.285716
 30
0.0
 10
-266.285712
 20
386.285716
 30
0.0
 10
-279.714288
 20
377.142860
 30
0.0
 10
-292.571432
 20
355.428572
 30
0.0
  0
LWPOLYLINE
  5
106
100
AcDbEntity
  8
Layer_1
 62
7
100
AcDbPolyline
 90
25
 70
1
 10
-61.428571
 20
410.571428
 30
0.0
 10
-38.571429
 20
406.000004
 30
0.0
 10
-26.857143
 20
396.857140
 30
0.0
 10
-14.285714
 20
378.000004
 30
0.0
 10
8.000000
 20
367.428572
 30
0.0
 10
23.142857
 20
367.428572
 30
0.0
 10
36.285714
 20
375.714284
 30
0.0
 10
50.857143
 20
394.571428
 30
0.0
 10
72.857143
 20
401.714284
 30
0.0
 10
92.857144
 20
399.714284
 30
0.0
 10
87.428568
 20
428.571428
 30
0.0
 10
88.571432
 20
461.428572
 30
0.0
 10
84.857144
 20
474.857140
 30
0.0
 10
74.571429
 20
491.428572
 30
0.0
 10
76.857143
 20
503.714284
 30
0.0
 10
69.428571
 20
512.857140
 30
0.0
 10
17.142857
 20
528.000004
 30
0.0
 10
-0.285714
 20
503.142860
 30
0.0
 10
-19.714286
 20
492.571428
 30
0.0
 10
-23.142857
 20
490.571428
 30
0.0
 10
-29.428571
 20
479.142860
 30
0.0
 10
-25.428571
 20
463.142860
 30
0.0
 10
-27.714286
 20
451.714284
 30
0.0
 10
-40.857143
 20
441.428572
 30
0.0
 10
-61.428571
 20
410.571428
 30
0.0
  0
LWPOLYLINE
  5
107
100
AcDbEntity
  8
Layer_1
 62
7
100
AcDbPolyline
 90
29
 70
1
 10
-17.714286
 20
568.285716
 30
0.0
 10
-5.428571
 20
587.428572
 30
0.0
 10
20.571429
 20
591.142860
 30
0.0
 10
102.000000
 20
556.285716
 30
0.0
 10
136.571432
 20
533.714284
 30
0.0
 10
152.000000
 20
530.857140
 30
0.0
 10
193.142856
 20
537.142860
 30
0.0
 10
221.714288
 20
524.000004
 30
0.0
 10
250.571432
 20
526.857140
 30
0.0
 10
279.428568
 20
534.571428
 30
0.0
 10
300.857144
 20
533.714284
 30
0.0
 10
303.714288
 20
507.428572
 30
0.0
 10
286.857144
 20
424.000004
 30
0.0
 10
278.285712
 20
414.285716
 30
0.0
 10
247.428568
 20
400.857140
 30
0.0
 10
214.571432
 20
413.428572
 30
0.0
 10
172.857144
 20
411.714284
 30
0.0
 10
159.714288
 20
397.428572
 30
0.0
 10
141.428568
 20
393.428572
 30
0.0
 10
93.142856
 20
399.428572
 30
0.0
 10
88.000000
 20
428.857140
 30
0.0
 10
88.571432
 20
461.428572
 30
0.0
 10
85.428568
 20
474.571428
 30
0.0
 10
74.571429
 20
491.428572
 30
0.0
 10
76.857143
 20
503.428572
 30
0.0
 10
69.428571
 20
512.857140
 30
0.0
 10
17.142857
 20
528.571428
 30
0.0
 10
-18.000000
 20
554.285716
 30
0.0
 10
-17.714286
 20
568.285716
 30
0.0
  0
ENDSEC
  0
SECTION
  2
OBJECTS
  0
DICTIONARY
  5
C
330
0
100
AcDbDictionary
  3
ACAD_GROUP
350
D
  3
ACAD_MLINESTYLE
350
17
  0
DICTIONARY
  5
D
330
C
100
AcDbDictionary
  0
DICTIONARY
  5
1A
330
C
100
AcDbDictionary
  0
DICTIONARY
  5
17
330
C
100
AcDbDictionary
  3
STANDARD
350
18
  0
DICTIONARY
  5
19
330
C
100
AcDbDictionary
  0
ENDSEC
  0
EOF
