  0
SECTION
  2
HEADER
  9
$ACADVER
  1
AC1014
  9
$HANDSEED
  5
FFFF
  9
$MEASUREMENT
 70
     1
  0
ENDSEC
  0
SECTION
  2
TABLES
  0
TABLE
  2
VPORT
  5
8
330
0
100
AcDbSymbolTable
 70
     4
  0
VPORT
  5
2E
330
8
100
AcDbSymbolTableRecord
100
AcDbViewportTableRecord
  2
*ACTIVE
 70
     0
 10
0.0
 20
0.0
 11
1.0
 21
1.0
 12
210.0
 22
148.5
 13
0.0
 23
0.0
 14
10.0
 24
10.0
 15
10.0
 25
10.0
 16
0.0
 26
0.0
 36
1.0
 17
0.0
 27
0.0
 37
0.0
 40
341.0
 41
1.24
 42
50.0
 43
0.0
 44
0.0
 50
0.0
 51
0.0
 71
     0
 72
   100
 73
     1
 74
     3
 75
     0
 76
     0
 77
     0
 78
     0
  0
ENDTAB
  0
TABLE
  2
LTYPE
  5
5
330
0
100
AcDbSymbolTable
 70
     1
  0
LTYPE
  5
14
330
5
100
AcDbSymbolTableRecord
100
AcDbLinetypeTableRecord
  2
BYBLOCK
 70
     0
  3

 72
    65
 73
     0
 40
0.0
  0
LTYPE
  5
15
330
5
100
AcDbSymbolTableRecord
100
AcDbLinetypeTableRecord
  2
BYLAYER
 70
     0
  3

 72
    65
 73
     0
 40
0.0
  0
LTYPE
  5
16
330
5
100
AcDbSymbolTableRecord
100
AcDbLinetypeTableRecord
  2
CONTINUOUS
 70
     0
  3
Solid line
 72
    65
 73
     0
 40
0.0
  0
ENDTAB
  0
TABLE
  2
LAYER
  5
2
100
AcDbSymbolTable
 70
2
  0
LAYER
  5
50
100
AcDbSymbolTableRecord
100
AcDbLayerTableRecord
  2
0
 70
0
  6
CONTINUOUS
  0
LAYER
  5
51
100
AcDbSymbolTableRecord
100
AcDbLayerTableRecord
  2
Layer_1
 70
0
  6
CONTINUOUS
  0
ENDTAB
  0
TABLE
  2
STYLE
  5
3
330
0
100
AcDbSymbolTable
 70
     1
  0
STYLE
  5
11
330
3
100
AcDbSymbolTableRecord
100
AcDbTextStyleTableRecord
  2
STANDARD
 70
     0
 40
0.0
 41
1.0
 50
0.0
 71
     0
 42
2.5
  3
txt
  4

  0
ENDTAB
  0
TABLE
  2
VIEW
  5
6
330
0
100
AcDbSymbolTable
 70
     0
  0
ENDTAB
  0
TABLE
  2
UCS
  5
7
330
0
100
AcDbSymbolTable
 70
     0
  0
ENDTAB
  0
TABLE
  2
APPID
  5
9
330
0
100
AcDbSymbolTable
 70
     2
  0
APPID
  5
12
330
9
100
AcDbSymbolTableRecord
100
AcDbRegAppTableRecord
  2
ACAD
 70
     0
  0
ENDTAB
  0
TABLE
  2
DIMSTYLE
  5
A
330
0
100
AcDbSymbolTable
 70
     1
  0
DIMSTYLE
105
27
330
A
100
AcDbSymbolTableRecord
100
AcDbDimStyleTableRecord
  2
ISO-25
 70
     0
  3

  4

  5

  6

  7

 40
1.0
 41
2.5
 42
0.625
 43
3.75
 44
1.25
 45
0.0
 46
0.0
 47
0.0
 48
0.0
140
2.5
141
2.5
142
0.0
143
0.03937007874016
144
1.0
145
0.0
146
1.0
147
0.625
 71
     0
 72
     0
 73
     0
 74
     0
 75
     0
 76
     0
 77
     1
 78
     8
170
     0
171
     3
172
     1
173
     0
174
     0
175
     0
176
     0
177
     0
178
     0
270
     2
271
     2
272
     2
273
     2
274
     3
340
11
275
     0
280
     0
281
     0
282
     0
283
     0
284
     8
285
     0
286
     0
287
     3
288
     0
  0
ENDTAB
  0
TABLE
  2
BLOCK_RECORD
  5
1
330
0
100
AcDbSymbolTable
 70
     1
  0
BLOCK_RECORD
  5
1F
330
1
100
AcDbSymbolTableRecord
100
AcDbBlockTableRecord
  2
*MODEL_SPACE
  0
BLOCK_RECORD
  5
1B
330
1
100
AcDbSymbolTableRecord
100
AcDbBlockTableRecord
  2
*PAPER_SPACE
  0
ENDTAB
  0
ENDSEC
  0
SECTION
  2
BLOCKS
  0
BLOCK
  5
20
330
1F
100
AcDbEntity
  8
0
100
AcDbBlockBegin
  2
*MODEL_SPACE
 70
     0
 10
0.0
 20
0.0
 30
0.0
  3
*MODEL_SPACE
  1

  0
ENDBLK
  5
21
330
1F
100
AcDbEntity
  8
0
100
AcDbBlockEnd
  0
BLOCK
  5
1C
330
1B
100
AcDbEntity
 67
     1
  8
0
100
AcDbBlockBegin
  2
*PAPER_SPACE
  1

  0
ENDBLK
  5
1D
330
1B
100
AcDbEntity
 67
     1
  8
0
100
AcDbBlockEnd
  0
ENDSEC
  0
SECTION
  2
ENTITIES
  0
LWPOLYLINE
  5
100
100
AcDbEntity
  8
Layer_1
 62
7
100
AcDbPolyline
 90
18
 70
1
 10
-722.285712
 20
1286.857140
 30
0.0
 10
-774.857144
 20
1275.428572
 30
0.0
 10
-838.857120
 20
1216.000004
 30
0.0
 10
-937.142880
 20
1172.571428
 30
0.0
 10
-971.428560
 20
1168.000004
 30
0.0
 10
-1010.285680
 20
1115.428572
 30
0.0
 10
-916.571440
 20
868.571429
 30
0.0
 10
-800.000000
 20
765.714285
 30
0.0
 10
-772.571432
 20
630.857140
 30
0.0
 10
-697.142856
 20
500.571428
 30
0.0
 10
-603.428568
 20
582.857140
 30
0.0
 10
-491.428568
 20
880.000000
 30
0.0
 10
-441.142856
 20
930.285716
 30
0.0
 10
-518.857144
 20
1037.714284
 30
0.0
 10
-475.428568
 20
1174.857140
 30
0.0
 10
-685.714288
 20
1204.571428
 30
0.0
 10
-717.714288
 20
1238.857140
 30
0.0
 10
-722.285712
 20
1286.857140
 30
0.0
  0
LWPOLYLINE
  5
101
100
AcDbEntity
  8
Layer_1
 62
7
100
AcDbPolyline
 90
20
 70
1
 10
-720.000000
 20
1286.857140
 30
0.0
 10
-717.714288
 20
1237.714284
 30
0.0
 10
-680.000000
 20
1198.857140
 30
0.0
 10
-478.857144
 20
1166.857140
 30
0.0
 10
-414.857144
 20
1195.428572
 30
0.0
 10
-384.000000
 20
1242.285716
 30
0.0
 10
-395.428568
 20
1345.142860
 30
0.0
 10
-364.571432
 20
1401.142860
 30
0.0
 10
-226.285712
 20
1446.857140
 30
0.0
 10
-192.000000
 20
1475.428572
 30
0.0
 10
-130.285712
 20
1611.428572
 30
0.0
 10
-76.571429
 20
1673.142884
 30
0.0
 10
-188.571432
 20
1734.857124
 30
0.0
 10
-275.428568
 20
1757.714324
 30
0.0
 10
-302.857144
 20
1712.000004
 30
0.0
 10
-300.571432
 20
1677.714324
 30
0.0
 10
-462.857144
 20
1542.857140
 30
0.0
 10
-573.714288
 20
1356.571428
 30
0.0
 10
-673.142856
 20
1281.142860
 30
0.0
 10
-720.000000
 20
1286.857140
 30
0.0
  0
LWPOLYLINE
  5
102
100
AcDbEntity
  8
Layer_1
 62
7
100
AcDbPolyline
 90
23
 70
1
 10
-703.066168
 20
502.651908
 30
0.0
 10
-704.682416
 20
341.027500
 30
0.0
 10
-659.427584
 20
368.503652
 30
0.0
 10
-507.500640
 20
316.783836
 30
0.0
 10
-478.408248
 20
328.097548
 30
0.0
 10
-452.548344
 20
355.573692
 30
0.0
 10
-320.016328
 20
397.596044
 30
0.0
 10
-190.716800
 20
496.186932
 30
0.0
 10
-48.487322
 20
694.984948
 30
0.0
 10
42.022346
 20
817.819501
 30
0.0
 10
71.114739
 20
916.410389
 30
0.0
 10
50.103566
 20
972.978932
 30
0.0
 10
90.509672
 20
1024.698740
 30
0.0
 10
-16.162441
 20
1074.802308
 30
0.0
 10
-61.417274
 20
1044.093668
 30
0.0
 10
-105.055864
 20
1065.104844
 30
0.0
 10
-160.008160
 20
1132.987092
 30
0.0
 10
-476.792000
 20
1165.311972
 30
0.0
 10
-518.814344
 20
1037.628692
 30
0.0
 10
-439.618384
 20
924.491612
 30
0.0
 10
-491.338200
 20
882.469263
 30
0.0
 10
-604.475280
 20
583.464108
 30
0.0
 10
-703.066168
 20
502.651908
 30
0.0
  0
LWPOLYLINE
  5
103
100
AcDbEntity
  8
Layer_1
 62
7
100
AcDbPolyline
 90
46
 70
1
 10
-481.142856
 20
1168.000004
 30
0.0
 10
-409.142856
 20
1197.714284
 30
0.0
 10
-382.857144
 20
1245.714284
 30
0.0
 10
-396.571432
 20
1347.428572
 30
0.0
 10
-363.428568
 20
1403.428572
 30
0.0
 10
-229.714288
 20
1446.857140
 30
0.0
 10
-187.428568
 20
1481.142860
 30
0.0
 10
-128.000000
 20
1614.857140
 30
0.0
 10
-78.857143
 20
1673.142884
 30
0.0
 10
-29.714286
 20
1633.142860
 30
0.0
 10
124.571432
 20
1673.142884
 30
0.0
 10
139.428568
 20
1616.000004
 30
0.0
 10
313.142856
 20
1561.142860
 30
0.0
 10
312.000000
 20
1523.428572
 30
0.0
 10
363.428568
 20
1509.714284
 30
0.0
 10
393.142856
 20
1457.142860
 30
0.0
 10
414.857144
 20
1458.285716
 30
0.0
 10
451.428568
 20
1516.571428
 30
0.0
 10
531.428568
 20
1545.142860
 30
0.0
 10
585.142856
 20
1653.714324
 30
0.0
 10
749.714288
 20
1778.285684
 30
0.0
 10
818.285680
 20
1698.285684
 30
0.0
 10
922.285680
 20
1676.571444
 30
0.0
 10
949.714320
 20
1606.857140
 30
0.0
 10
985.142880
 20
1565.714284
 30
0.0
 10
961.142880
 20
1468.571428
 30
0.0
 10
969.142880
 20
1361.142860
 30
0.0
 10
898.285680
 20
1349.714284
 30
0.0
 10
891.428560
 20
1325.714284
 30
0.0
 10
944.000000
 20
1267.428572
 30
0.0
 10
914.285680
 20
1227.428572
 30
0.0
 10
818.285680
 20
1154.285716
 30
0.0
 10
733.714288
 20
1123.428572
 30
0.0
 10
632.000000
 20
1034.285716
 30
0.0
 10
547.428568
 20
1042.285716
 30
0.0
 10
356.571432
 20
1090.285716
 30
0.0
 10
275.428568
 20
1075.428572
 30
0.0
 10
242.285712
 20
1043.428572
 30
0.0
 10
197.714288
 20
1038.857140
 30
0.0
 10
178.285712
 20
1021.714284
 30
0.0
 10
89.142856
 20
1021.714284
 30
0.0
 10
-18.285714
 20
1072.000004
 30
0.0
 10
-61.714286
 20
1044.571428
 30
0.0
 10
-108.571432
 20
1065.142860
 30
0.0
 10
-161.142856
 20
1131.428572
 30
0.0
 10
-481.142856
 20
1168.000004
 30
0.0
  0
LWPOLYLINE
  5
104
100
AcDbEntity
  8
Layer_1
 62
7
100
AcDbPolyline
 90
42
 70
1
 10
968.000000
 20
1362.285716
 30
0.0
 10
992.000000
 20
1366.857140
 30
0.0
 10
1075.428560
 20
1304.000004
 30
0.0
 10
1132.571440
 20
1260.571428
 30
0.0
 10
1139.428560
 20
1060.571428
 30
0.0
 10
1170.285680
 20
1013.714284
 30
0.0
 10
1310.857120
 20
922.285716
 30
0.0
 10
1366.857120
 20
906.285715
 30
0.0
 10
1443.428560
 20
846.857143
 30
0.0
 10
1530.285680
 20
731.428572
 30
0.0
 10
1525.714320
 20
680.000004
 30
0.0
 10
1573.714320
 20
490.285716
 30
0.0
 10
1565.714320
 20
429.714284
 30
0.0
 10
1585.142880
 20
402.285716
 30
0.0
 10
1739.428560
 20
364.571428
 30
0.0
 10
2089.142880
 20
640.000004
 30
0.0
 10
2242.285680
 20
962.285716
 30
0.0
 10
2278.857120
 20
1134.857140
 30
0.0
 10
2241.142880
 20
1243.428572
 30
0.0
 10
2096.000000
 20
1379.428572
 30
0.0
 10
2099.428560
 20
1474.285716
 30
0.0
 10
2026.285680
 20
1512.000004
 30
0.0
 10
1974.857120
 20
1474.285716
 30
0.0
 10
1796.571440
 20
1574.857140
 30
0.0
 10
1768.000000
 20
1562.285716
 30
0.0
 10
1737.142880
 20
1578.285716
 30
0.0
 10
1699.428560
 20
1576.000004
 30
0.0
 10
1666.285680
 20
1593.142860
 30
0.0
 10
1625.142880
 20
1579.428572
 30
0.0
 10
1568.000000
 20
1632.000004
 30
0.0
 10
1411.428560
 20
1659.428564
 30
0.0
 10
1392.000000
 20
1676.571444
 30
0.0
 10
1341.714320
 20
1670.857124
 30
0.0
 10
1336.000000
 20
1652.571444
 30
0.0
 10
1277.714320
 20
1730.285684
 30
0.0
 10
1206.857120
 20
1691.428564
 30
0.0
 10
1091.428560
 20
1716.571444
 30
0.0
 10
925.714320
 20
1659.428564
 30
0.0
 10
948.571440
 20
1606.857140
 30
0.0
 10
984.000000
 20
1564.571428
 30
0.0
 10
960.000000
 20
1467.428572
 30
0.0
 10
968.000000
 20
1362.285716
 30
0.0
  0
LWPOLYLINE
  5
105
100
AcDbEntity
  8
Layer_1
 62
7
100
AcDbPolyline
 90
48
 70
1
 10
941.714320
 20
1265.142860
 30
0.0
 10
892.571440
 20
1323.428572
 30
0.0
 10
898.285680
 20
1349.714284
 30
0.0
 10
994.285680
 20
1369.142860
 30
0.0
 10
1133.714320
 20
1260.571428
 30
0.0
 10
1142.857120
 20
1060.571428
 30
0.0
 10
1171.428560
 20
1014.857140
 30
0.0
 10
1315.428560
 20
918.857143
 30
0.0
 10
1164.571440
 20
861.714286
 30
0.0
 10
771.428568
 20
627.428572
 30
0.0
 10
516.571432
 20
425.142860
 30
0.0
 10
448.000000
 20
339.428572
 30
0.0
 10
453.714288
 20
281.142860
 30
0.0
 10
507.428568
 20
154.285716
 30
0.0
 10
529.142856
 20
-31.999996
 30
0.0
 10
709.714288
 20
-125.714316
 30
0.0
 10
577.142856
 20
-234.285676
 30
0.0
 10
493.714288
 20
-371.428556
 30
0.0
 10
394.285712
 20
-215.999996
 30
0.0
 10
366.857144
 20
-187.428556
 30
0.0
 10
227.428568
 20
-189.714316
 30
0.0
 10
184.000000
 20
-76.571436
 30
0.0
 10
164.571432
 20
-50.285676
 30
0.0
 10
128.000000
 20
59.428572
 30
0.0
 10
94.857144
 20
84.571428
 30
0.0
 10
-153.142856
 20
145.142860
 30
0.0
 10
-180.571432
 20
163.428572
 30
0.0
 10
-254.857144
 20
154.285716
 30
0.0
 10
-395.428568
 20
214.857140
 30
0.0
 10
-486.857144
 20
323.428572
 30
0.0
 10
-453.714288
 20
357.714284
 30
0.0
 10
-313.142856
 20
402.285716
 30
0.0
 10
-186.285712
 20
502.857140
 30
0.0
 10
40.000000
 20
814.857143
 30
0.0
 10
72.000000
 20
915.428572
 30
0.0
 10
50.285714
 20
972.571428
 30
0.0
 10
88.000000
 20
1022.857140
 30
0.0
 10
187.428568
 20
1021.714284
 30
0.0
 10
193.142856
 20
1038.857140
 30
0.0
 10
243.428568
 20
1046.857140
 30
0.0
 10
274.285712
 20
1077.714284
 30
0.0
 10
361.142856
 20
1096.000004
 30
0.0
 10
556.571432
 20
1041.142860
 30
0.0
 10
633.142856
 20
1035.428572
 30
0.0
 10
733.714288
 20
1125.714284
 30
0.0
 10
832.000000
 20
1164.571428
 30
0.0
 10
914.285680
 20
1229.714284
 30
0.0
 10
941.714320
 20
1265.142860
 30
0.0
  0
LWPOLYLINE
  5
106
100
AcDbEntity
  8
Layer_1
 62
7
100
AcDbPolyline
 90
28
 70
1
 10
712.763632
 20
-127.683276
 30
0.0
 10
817.819520
 20
-30.708636
 30
0.0
 10
934.189040
 20
-42.022316
 30
0.0
 10
1081.267280
 20
-82.428476
 30
0.0
 10
1184.706880
 20
-98.590876
 30
0.0
 10
1297.844000
 20
-145.461996
 30
0.0
 10
1449.770960
 20
-140.613196
 30
0.0
 10
1548.361840
 20
-205.263036
 30
0.0
 10
1619.476560
 20
-192.333036
 30
0.0
 10
1716.451200
 20
-79.195996
 30
0.0
 10
1755.241040
 20
19.394964
 30
0.0
 10
1680.893840
 20
273.145252
 30
0.0
 10
1742.311120
 20
366.887404
 30
0.0
 10
1585.535440
 20
404.061020
 30
0.0
 10
1567.756720
 20
438.002140
 30
0.0
 10
1577.454240
 20
492.954444
 30
0.0
 10
1530.583120
 20
696.601196
 30
0.0
 10
1528.966880
 20
738.623540
 30
0.0
 10
1398.051120
 20
885.701751
 30
0.0
 10
1318.855200
 20
921.259121
 30
0.0
 10
1157.230720
 20
858.225602
 30
0.0
 10
770.948424
 20
630.335188
 30
0.0
 10
513.965616
 20
425.072188
 30
0.0
 10
444.467120
 20
339.411252
 30
0.0
 10
450.932096
 20
276.377740
 30
0.0
 10
505.884392
 20
155.159428
 30
0.0
 10
531.744296
 20
-32.324876
 30
0.0
 10
712.763632
 20
-127.683276
 30
0.0
  0
LWPOLYLINE
  5
107
100
AcDbEntity
  8
Layer_1
 62
7
100
AcDbPolyline
 90
48
 70
1
 10
-703.066168
 20
345.876228
 30
0.0
 10
-712.763632
 20
284.458956
 30
0.0
 10
-775.797152
 20
202.030508
 30
0.0
 10
-801.657040
 20
117.985820
 30
0.0
 10
-1003.687600
 20
-4.848716
 30
0.0
 10
-1052.174880
 20
-100.207116
 30
0.0
 10
-1103.894720
 20
-271.529036
 30
0.0
 10
-1173.393200
 20
-355.573676
 30
0.0
 10
-1226.729280
 20
-467.094556
 30
0.0
 10
-1192.788160
 20
-517.198076
 30
0.0
 10
-1158.846960
 20
-591.545356
 30
0.0
 10
-984.292640
 20
-636.800156
 30
0.0
 10
-926.107840
 20
-703.066156
 30
0.0
 10
-843.679440
 20
-709.531116
 30
0.0
 10
-769.332176
 20
-803.273276
 30
0.0
 10
-775.797152
 20
-911.561676
 30
0.0
 10
-824.284480
 20
-995.606316
 30
0.0
 10
-825.900720
 20
-1142.684556
 30
0.0
 10
-766.099688
 20
-1250.972876
 30
0.0
 10
-661.043824
 20
-1317.238956
 30
0.0
 10
-572.150400
 20
-1305.925196
 30
0.0
 10
-392.747312
 20
-1157.230716
 30
0.0
 10
-181.019336
 20
-919.642876
 30
0.0
 10
-80.812200
 20
-872.771836
 30
0.0
 10
33.941126
 20
-900.247916
 30
0.0
 10
130.915768
 20
-939.037836
 30
0.0
 10
255.366560
 20
-1040.861196
 30
0.0
 10
373.352384
 20
-985.908876
 30
0.0
 10
420.223456
 20
-762.867196
 30
0.0
 10
425.072192
 20
-725.693596
 30
0.0
 10
475.175760
 20
-711.147356
 30
0.0
 10
536.593032
 20
-581.847836
 30
0.0
 10
534.976784
 20
-528.511836
 30
0.0
 10
486.489464
 20
-362.038636
 30
0.0
 10
366.887408
 20
-184.251836
 30
0.0
 10
231.122904
 20
-185.868076
 30
0.0
 10
182.635584
 20
-66.265996
 30
0.0
 10
161.624408
 20
-42.022316
 30
0.0
 10
122.834552
 20
66.266004
 30
0.0
 10
90.509672
 20
90.509668
 30
0.0
 10
-156.775672
 20
145.461964
 30
0.0
 10
-176.170600
 20
166.473140
 30
0.0
 10
-248.901584
 20
155.159428
 30
0.0
 10
-395.979800
 20
216.576708
 30
0.0
 10
-483.256976
 20
323.248812
 30
0.0
 10
-505.884392
 20
316.783836
 30
0.0
 10
-661.043824
 20
370.119892
 30
0.0
 10
-703.066168
 20
345.876228
 30
0.0
  0
ENDSEC
  0
SECTION
  2
OBJECTS
  0
DICTIONARY
  5
C
330
0
100
AcDbDictionary
  3
ACAD_GROUP
350
D
  3
ACAD_MLINESTYLE
350
17
  0
DICTIONARY
  5
D
330
C
100
AcDbDictionary
  0
DICTIONARY
  5
1A
330
C
100
AcDbDictionary
  0
DICTIONARY
  5
17
330
C
100
AcDbDictionary
  3
STANDARD
350
18
  0
DICTIONARY
  5
19
330
C
100
AcDbDictionary
  0
ENDSEC
  0
EOF
