  0
SECTION
  2
HEADER
  9
$ACADVER
  1
AC1014
  9
$HANDSEED
  5
FFFF
  9
$MEASUREMENT
 70
     1
  0
ENDSEC
  0
SECTION
  2
TABLES
  0
TABLE
  2
VPORT
  5
8
330
0
100
AcDbSymbolTable
 70
     4
  0
VPORT
  5
2E
330
8
100
AcDbSymbolTableRecord
100
AcDbViewportTableRecord
  2
*ACTIVE
 70
     0
 10
0.0
 20
0.0
 11
1.0
 21
1.0
 12
210.0
 22
148.5
 13
0.0
 23
0.0
 14
10.0
 24
10.0
 15
10.0
 25
10.0
 16
0.0
 26
0.0
 36
1.0
 17
0.0
 27
0.0
 37
0.0
 40
341.0
 41
1.24
 42
50.0
 43
0.0
 44
0.0
 50
0.0
 51
0.0
 71
     0
 72
   100
 73
     1
 74
     3
 75
     0
 76
     0
 77
     0
 78
     0
  0
ENDTAB
  0
TABLE
  2
LTYPE
  5
5
330
0
100
AcDbSymbolTable
 70
     1
  0
LTYPE
  5
14
330
5
100
AcDbSymbolTableRecord
100
AcDbLinetypeTableRecord
  2
BYBLOCK
 70
     0
  3

 72
    65
 73
     0
 40
0.0
  0
LTYPE
  5
15
330
5
100
AcDbSymbolTableRecord
100
AcDbLinetypeTableRecord
  2
BYLAYER
 70
     0
  3

 72
    65
 73
     0
 40
0.0
  0
LTYPE
  5
16
330
5
100
AcDbSymbolTableRecord
100
AcDbLinetypeTableRecord
  2
CONTINUOUS
 70
     0
  3
Solid line
 72
    65
 73
     0
 40
0.0
  0
ENDTAB
  0
TABLE
  2
LAYER
  5
2
100
AcDbSymbolTable
 70
2
  0
LAYER
  5
50
100
AcDbSymbolTableRecord
100
AcDbLayerTableRecord
  2
0
 70
0
  6
CONTINUOUS
  0
LAYER
  5
51
100
AcDbSymbolTableRecord
100
AcDbLayerTableRecord
  2
Layer_1
 70
0
  6
CONTINUOUS
  0
ENDTAB
  0
TABLE
  2
STYLE
  5
3
330
0
100
AcDbSymbolTable
 70
     1
  0
STYLE
  5
11
330
3
100
AcDbSymbolTableRecord
100
AcDbTextStyleTableRecord
  2
STANDARD
 70
     0
 40
0.0
 41
1.0
 50
0.0
 71
     0
 42
2.5
  3
txt
  4

  0
ENDTAB
  0
TABLE
  2
VIEW
  5
6
330
0
100
AcDbSymbolTable
 70
     0
  0
ENDTAB
  0
TABLE
  2
UCS
  5
7
330
0
100
AcDbSymbolTable
 70
     0
  0
ENDTAB
  0
TABLE
  2
APPID
  5
9
330
0
100
AcDbSymbolTable
 70
     2
  0
APPID
  5
12
330
9
100
AcDbSymbolTableRecord
100
AcDbRegAppTableRecord
  2
ACAD
 70
     0
  0
ENDTAB
  0
TABLE
  2
DIMSTYLE
  5
A
330
0
100
AcDbSymbolTable
 70
     1
  0
DIMSTYLE
105
27
330
A
100
AcDbSymbolTableRecord
100
AcDbDimStyleTableRecord
  2
ISO-25
 70
     0
  3

  4

  5

  6

  7

 40
1.0
 41
2.5
 42
0.625
 43
3.75
 44
1.25
 45
0.0
 46
0.0
 47
0.0
 48
0.0
140
2.5
141
2.5
142
0.0
143
0.03937007874016
144
1.0
145
0.0
146
1.0
147
0.625
 71
     0
 72
     0
 73
     0
 74
     0
 75
     0
 76
     0
 77
     1
 78
     8
170
     0
171
     3
172
     1
173
     0
174
     0
175
     0
176
     0
177
     0
178
     0
270
     2
271
     2
272
     2
273
     2
274
     3
340
11
275
     0
280
     0
281
     0
282
     0
283
     0
284
     8
285
     0
286
     0
287
     3
288
     0
  0
ENDTAB
  0
TABLE
  2
BLOCK_RECORD
  5
1
330
0
100
AcDbSymbolTable
 70
     1
  0
BLOCK_RECORD
  5
1F
330
1
100
AcDbSymbolTableRecord
100
AcDbBlockTableRecord
  2
*MODEL_SPACE
  0
BLOCK_RECORD
  5
1B
330
1
100
AcDbSymbolTableRecord
100
AcDbBlockTableRecord
  2
*PAPER_SPACE
  0
ENDTAB
  0
ENDSEC
  0
SECTION
  2
BLOCKS
  0
BLOCK
  5
20
330
1F
100
AcDbEntity
  8
0
100
AcDbBlockBegin
  2
*MODEL_SPACE
 70
     0
 10
0.0
 20
0.0
 30
0.0
  3
*MODEL_SPACE
  1

  0
ENDBLK
  5
21
330
1F
100
AcDbEntity
  8
0
100
AcDbBlockEnd
  0
BLOCK
  5
1C
330
1B
100
AcDbEntity
 67
     1
  8
0
100
AcDbBlockBegin
  2
*PAPER_SPACE
  1

  0
ENDBLK
  5
1D
330
1B
100
AcDbEntity
 67
     1
  8
0
100
AcDbBlockEnd
  0
ENDSEC
  0
SECTION
  2
ENTITIES
  0
LWPOLYLINE
  5
100
100
AcDbEntity
  8
Layer_1
 62
7
100
AcDbPolyline
 90
17
 70
1
 10
402.857144
 20
736.000004
 30
0.0
 10
380.000000
 20
717.714284
 30
0.0
 10
328.571432
 20
688.571428
 30
0.0
 10
330.857144
 20
661.714284
 30
0.0
 10
355.428568
 20
630.285716
 30
0.0
 10
385.142856
 20
591.428572
 30
0.0
 10
412.000000
 20
565.142860
 30
0.0
 10
469.142856
 20
530.857140
 30
0.0
 10
490.857144
 20
549.142860
 30
0.0
 10
513.142856
 20
565.714284
 30
0.0
 10
517.142856
 20
570.857140
 30
0.0
 10
522.857144
 20
587.428572
 30
0.0
 10
514.857144
 20
601.714284
 30
0.0
 10
476.000000
 20
610.857140
 30
0.0
 10
431.428568
 20
658.857140
 30
0.0
 10
420.000000
 20
710.857140
 30
0.0
 10
402.857144
 20
736.000004
 30
0.0
  0
LWPOLYLINE
  5
101
100
AcDbEntity
  8
Layer_1
 62
7
100
AcDbPolyline
 90
16
 70
1
 10
328.299576
 20
689.934188
 30
0.0
 10
255.164536
 20
653.366668
 30
0.0
 10
256.578744
 20
612.354476
 30
0.0
 10
281.630528
 20
587.706748
 30
0.0
 10
310.318864
 20
534.976788
 30
0.0
 10
317.793992
 20
460.023468
 30
0.0
 10
336.380800
 20
413.960516
 30
0.0
 10
348.502632
 20
366.685372
 30
0.0
 10
359.816336
 20
374.362532
 30
0.0
 10
357.796032
 20
382.241724
 30
0.0
 10
369.513800
 20
411.738180
 30
0.0
 10
469.114840
 20
530.936180
 30
0.0
 10
413.152392
 20
564.675276
 30
0.0
 10
383.049848
 20
594.373756
 30
0.0
 10
331.330032
 20
662.256012
 30
0.0
 10
328.299576
 20
689.934188
 30
0.0
  0
LWPOLYLINE
  5
102
100
AcDbEntity
  8
Layer_1
 62
7
100
AcDbPolyline
 90
9
 70
1
 10
255.164536
 20
653.972756
 30
0.0
 10
242.436608
 20
647.305748
 30
0.0
 10
202.838632
 20
654.174788
 30
0.0
 10
160.412224
 20
632.355492
 30
0.0
 10
145.664000
 20
618.617420
 30
0.0
 10
188.696496
 20
581.039748
 30
0.0
 10
235.769608
 20
594.373756
 30
0.0
 10
256.780776
 20
613.162596
 30
0.0
 10
255.164536
 20
653.972756
 30
0.0
  0
LWPOLYLINE
  5
103
100
AcDbEntity
  8
Layer_1
 62
7
100
AcDbPolyline
 90
19
 70
1
 10
145.057904
 20
619.021484
 30
0.0
 10
85.054848
 20
567.301668
 30
0.0
 10
96.570584
 20
551.139228
 30
0.0
 10
96.368552
 20
534.168668
 30
0.0
 10
78.387838
 20
519.824500
 30
0.0
 10
114.551296
 20
473.357484
 30
0.0
 10
124.854856
 20
440.224476
 30
0.0
 10
129.501560
 20
424.870164
 30
0.0
 10
125.662976
 20
388.504668
 30
0.0
 10
167.281264
 20
352.947300
 30
0.0
 10
187.080248
 20
346.078260
 30
0.0
 10
209.505640
 20
379.211268
 30
0.0
 10
210.515792
 20
397.394012
 30
0.0
 10
204.050816
 20
421.637676
 30
0.0
 10
192.737104
 20
452.144276
 30
0.0
 10
186.878224
 20
492.348348
 30
0.0
 10
184.655888
 20
533.360548
 30
0.0
 10
188.696496
 20
581.645836
 30
0.0
 10
145.057904
 20
619.021484
 30
0.0
  0
LWPOLYLINE
  5
104
100
AcDbEntity
  8
Layer_1
 62
7
100
AcDbPolyline
 90
11
 70
1
 10
236.173664
 20
594.979852
 30
0.0
 10
188.494464
 20
581.039748
 30
0.0
 10
184.453856
 20
533.562572
 30
0.0
 10
187.484312
 20
491.136172
 30
0.0
 10
192.333048
 20
451.538188
 30
0.0
 10
205.667056
 20
419.819396
 30
0.0
 10
221.223408
 20
443.052908
 30
0.0
 10
232.335088
 20
489.115860
 30
0.0
 10
240.416304
 20
531.744300
 30
0.0
 10
242.436608
 20
577.605228
 30
0.0
 10
236.173664
 20
594.979852
 30
0.0
  0
LWPOLYLINE
  5
105
100
AcDbEntity
  8
Layer_1
 62
7
100
AcDbPolyline
 90
20
 70
1
 10
255.972656
 20
612.152444
 30
0.0
 10
236.577728
 20
594.575788
 30
0.0
 10
242.840672
 20
576.797108
 30
0.0
 10
240.820368
 20
546.896588
 30
0.0
 10
240.214272
 20
529.319932
 30
0.0
 10
227.890416
 20
471.741236
 30
0.0
 10
220.819344
 20
442.446812
 30
0.0
 10
203.848784
 20
419.011276
 30
0.0
 10
210.717824
 20
396.181828
 30
0.0
 10
209.303608
 20
379.009236
 30
0.0
 10
186.878224
 20
346.078260
 30
0.0
 10
205.263000
 20
330.319884
 30
0.0
 10
214.556400
 20
307.692468
 30
0.0
 10
221.829496
 20
280.216316
 30
0.0
 10
348.502632
 20
366.483348
 30
0.0
 10
336.986888
 20
413.556452
 30
0.0
 10
318.602112
 20
460.831588
 30
0.0
 10
310.924952
 20
535.178820
 30
0.0
 10
282.034592
 20
587.908780
 30
0.0
 10
255.972656
 20
612.152444
 30
0.0
  0
LWPOLYLINE
  5
106
100
AcDbEntity
  8
Layer_1
 62
7
100
AcDbPolyline
 90
10
 70
1
 10
78.185807
 20
520.228564
 30
0.0
 10
59.801030
 20
523.056988
 30
0.0
 10
55.154329
 20
504.672212
 30
0.0
 10
56.366512
 20
483.863068
 30
0.0
 10
60.811183
 20
463.053924
 30
0.0
 10
69.902556
 20
449.719916
 30
0.0
 10
86.873120
 20
440.426508
 30
0.0
 10
124.854856
 20
440.830572
 30
0.0
 10
114.349272
 20
473.963572
 30
0.0
 10
78.185807
 20
520.228564
 30
0.0
  0
LWPOLYLINE
  5
107
100
AcDbEntity
  8
Layer_1
 62
7
100
AcDbPolyline
 90
25
 70
1
 10
85.054848
 20
567.503700
 30
0.0
 10
97.176672
 20
551.745324
 30
0.0
 10
96.570584
 20
534.976788
 30
0.0
 10
79.195960
 20
519.622468
 30
0.0
 10
59.801030
 20
523.056988
 30
0.0
 10
55.558390
 20
505.076276
 30
0.0
 10
56.568542
 20
485.479316
 30
0.0
 10
61.013214
 20
462.851900
 30
0.0
 10
69.700526
 20
450.123972
 30
0.0
 10
86.671088
 20
441.032604
 30
0.0
 10
125.258912
 20
441.436660
 30
0.0
 10
130.309680
 20
424.668132
 30
0.0
 10
125.662976
 20
388.302636
 30
0.0
 10
89.297488
 20
393.555436
 30
0.0
 10
63.639610
 20
410.121932
 30
0.0
 10
49.497474
 20
411.132084
 30
0.0
 10
49.295444
 20
417.395036
 30
0.0
 10
25.253814
 20
461.639716
 30
0.0
 10
4.848732
 20
492.146324
 30
0.0
 10
-11.111678
 20
496.995052
 30
0.0
 10
-7.677159
 20
515.379828
 30
0.0
 10
-13.334014
 20
542.653948
 30
0.0
 10
2.020305
 20
541.239732
 30
0.0
 10
54.750268
 20
550.937196
 30
0.0
 10
85.054848
 20
567.503700
 30
0.0
  0
LWPOLYLINE
  5
108
100
AcDbEntity
  8
Layer_1
 62
7
100
AcDbPolyline
 90
6
 70
1
 10
-13.334014
 20
542.249884
 30
0.0
 10
-38.385797
 20
529.319932
 30
0.0
 10
-22.627417
 20
498.813324
 30
0.0
 10
-11.313709
 20
497.399116
 30
0.0
 10
-7.273098
 20
514.369676
 30
0.0
 10
-13.334014
 20
542.249884
 30
0.0
  0
LWPOLYLINE
  5
109
100
AcDbEntity
  8
Layer_1
 62
7
100
AcDbPolyline
 90
6
 70
1
 10
-38.789858
 20
529.926028
 30
0.0
 10
-51.921841
 20
523.663084
 30
0.0
 10
-69.902556
 20
506.086428
 30
0.0
 10
-47.679200
 20
476.994036
 30
0.0
 10
-21.617265
 20
498.813324
 30
0.0
 10
-38.789858
 20
529.926028
 30
0.0
  0
LWPOLYLINE
  5
10a
100
AcDbEntity
  8
Layer_1
 62
7
100
AcDbPolyline
 90
11
 70
1
 10
-47.679200
 20
476.792004
 30
0.0
 10
-21.819295
 20
498.611300
 30
0.0
 10
5.656854
 20
491.540228
 30
0.0
 10
27.072088
 20
458.811284
 30
0.0
 10
49.699506
 20
418.203156
 30
0.0
 10
49.901536
 20
410.930060
 30
0.0
 10
29.092394
 20
413.758484
 30
0.0
 10
12.727922
 20
409.717876
 30
0.0
 10
-9.495434
 20
411.536148
 30
0.0
 10
-14.950258
 20
434.567628
 30
0.0
 10
-47.679200
 20
476.792004
 30
0.0
  0
LWPOLYLINE
  5
10b
100
AcDbEntity
  8
Layer_1
 62
7
100
AcDbPolyline
 90
21
 70
1
 10
-9.899495
 20
411.536148
 30
0.0
 10
12.525891
 20
409.717876
 30
0.0
 10
28.688332
 20
414.768636
 30
0.0
 10
63.639610
 20
410.323964
 30
0.0
 10
89.701544
 20
394.161524
 30
0.0
 10
127.077192
 20
388.302636
 30
0.0
 10
168.493448
 20
351.937148
 30
0.0
 10
187.282280
 20
346.078260
 30
0.0
 10
205.667056
 20
330.925972
 30
0.0
 10
221.627472
 20
280.620380
 30
0.0
 10
192.131016
 20
260.619356
 30
0.0
 10
113.743176
 20
221.627468
 30
0.0
 10
2.222336
 20
172.129996
 30
0.0
 10
-5.858885
 20
189.908676
 30
0.0
 10
-6.667007
 20
216.778740
 30
0.0
 10
1.212183
 20
263.043724
 30
0.0
 10
14.344166
 20
285.671140
 30
0.0
 10
14.748227
 20
318.804140
 30
0.0
 10
7.879190
 20
343.047804
 30
0.0
 10
-5.858885
 20
373.756444
 30
0.0
 10
-9.899495
 20
411.536148
 30
0.0
  0
ENDSEC
  0
SECTION
  2
OBJECTS
  0
DICTIONARY
  5
C
330
0
100
AcDbDictionary
  3
ACAD_GROUP
350
D
  3
ACAD_MLINESTYLE
350
17
  0
DICTIONARY
  5
D
330
C
100
AcDbDictionary
  0
DICTIONARY
  5
1A
330
C
100
AcDbDictionary
  0
DICTIONARY
  5
17
330
C
100
AcDbDictionary
  3
STANDARD
350
18
  0
DICTIONARY
  5
19
330
C
100
AcDbDictionary
  0
ENDSEC
  0
EOF
