  0
SECTION
  2
HEADER
  9
$ACADVER
  1
AC1014
  9
$HANDSEED
  5
FFFF
  9
$MEASUREMENT
 70
     1
  0
ENDSEC
  0
SECTION
  2
TABLES
  0
TABLE
  2
VPORT
  5
8
330
0
100
AcDbSymbolTable
 70
     4
  0
VPORT
  5
2E
330
8
100
AcDbSymbolTableRecord
100
AcDbViewportTableRecord
  2
*ACTIVE
 70
     0
 10
0.0
 20
0.0
 11
1.0
 21
1.0
 12
210.0
 22
148.5
 13
0.0
 23
0.0
 14
10.0
 24
10.0
 15
10.0
 25
10.0
 16
0.0
 26
0.0
 36
1.0
 17
0.0
 27
0.0
 37
0.0
 40
341.0
 41
1.24
 42
50.0
 43
0.0
 44
0.0
 50
0.0
 51
0.0
 71
     0
 72
   100
 73
     1
 74
     3
 75
     0
 76
     0
 77
     0
 78
     0
  0
ENDTAB
  0
TABLE
  2
LTYPE
  5
5
330
0
100
AcDbSymbolTable
 70
     1
  0
LTYPE
  5
14
330
5
100
AcDbSymbolTableRecord
100
AcDbLinetypeTableRecord
  2
BYBLOCK
 70
     0
  3

 72
    65
 73
     0
 40
0.0
  0
LTYPE
  5
15
330
5
100
AcDbSymbolTableRecord
100
AcDbLinetypeTableRecord
  2
BYLAYER
 70
     0
  3

 72
    65
 73
     0
 40
0.0
  0
LTYPE
  5
16
330
5
100
AcDbSymbolTableRecord
100
AcDbLinetypeTableRecord
  2
CONTINUOUS
 70
     0
  3
Solid line
 72
    65
 73
     0
 40
0.0
  0
ENDTAB
  0
TABLE
  2
LAYER
  5
2
100
AcDbSymbolTable
 70
2
  0
LAYER
  5
50
100
AcDbSymbolTableRecord
100
AcDbLayerTableRecord
  2
0
 70
0
  6
CONTINUOUS
  0
LAYER
  5
51
100
AcDbSymbolTableRecord
100
AcDbLayerTableRecord
  2
Layer_1
 70
0
  6
CONTINUOUS
  0
ENDTAB
  0
TABLE
  2
STYLE
  5
3
330
0
100
AcDbSymbolTable
 70
     1
  0
STYLE
  5
11
330
3
100
AcDbSymbolTableRecord
100
AcDbTextStyleTableRecord
  2
STANDARD
 70
     0
 40
0.0
 41
1.0
 50
0.0
 71
     0
 42
2.5
  3
txt
  4

  0
ENDTAB
  0
TABLE
  2
VIEW
  5
6
330
0
100
AcDbSymbolTable
 70
     0
  0
ENDTAB
  0
TABLE
  2
UCS
  5
7
330
0
100
AcDbSymbolTable
 70
     0
  0
ENDTAB
  0
TABLE
  2
APPID
  5
9
330
0
100
AcDbSymbolTable
 70
     2
  0
APPID
  5
12
330
9
100
AcDbSymbolTableRecord
100
AcDbRegAppTableRecord
  2
ACAD
 70
     0
  0
ENDTAB
  0
TABLE
  2
DIMSTYLE
  5
A
330
0
100
AcDbSymbolTable
 70
     1
  0
DIMSTYLE
105
27
330
A
100
AcDbSymbolTableRecord
100
AcDbDimStyleTableRecord
  2
ISO-25
 70
     0
  3

  4

  5

  6

  7

 40
1.0
 41
2.5
 42
0.625
 43
3.75
 44
1.25
 45
0.0
 46
0.0
 47
0.0
 48
0.0
140
2.5
141
2.5
142
0.0
143
0.03937007874016
144
1.0
145
0.0
146
1.0
147
0.625
 71
     0
 72
     0
 73
     0
 74
     0
 75
     0
 76
     0
 77
     1
 78
     8
170
     0
171
     3
172
     1
173
     0
174
     0
175
     0
176
     0
177
     0
178
     0
270
     2
271
     2
272
     2
273
     2
274
     3
340
11
275
     0
280
     0
281
     0
282
     0
283
     0
284
     8
285
     0
286
     0
287
     3
288
     0
  0
ENDTAB
  0
TABLE
  2
BLOCK_RECORD
  5
1
330
0
100
AcDbSymbolTable
 70
     1
  0
BLOCK_RECORD
  5
1F
330
1
100
AcDbSymbolTableRecord
100
AcDbBlockTableRecord
  2
*MODEL_SPACE
  0
BLOCK_RECORD
  5
1B
330
1
100
AcDbSymbolTableRecord
100
AcDbBlockTableRecord
  2
*PAPER_SPACE
  0
ENDTAB
  0
ENDSEC
  0
SECTION
  2
BLOCKS
  0
BLOCK
  5
20
330
1F
100
AcDbEntity
  8
0
100
AcDbBlockBegin
  2
*MODEL_SPACE
 70
     0
 10
0.0
 20
0.0
 30
0.0
  3
*MODEL_SPACE
  1

  0
ENDBLK
  5
21
330
1F
100
AcDbEntity
  8
0
100
AcDbBlockEnd
  0
BLOCK
  5
1C
330
1B
100
AcDbEntity
 67
     1
  8
0
100
AcDbBlockBegin
  2
*PAPER_SPACE
  1

  0
ENDBLK
  5
1D
330
1B
100
AcDbEntity
 67
     1
  8
0
100
AcDbBlockEnd
  0
ENDSEC
  0
SECTION
  2
ENTITIES
  0
LWPOLYLINE
  5
100
100
AcDbEntity
  8
Layer_1
 62
7
100
AcDbPolyline
 90
19
 70
1
 10
-342.643744
 20
167.281260
 30
0.0
 10
-330.925976
 20
168.089380
 30
0.0
 10
-244.860976
 20
115.561452
 30
0.0
 10
-229.506656
 20
127.279220
 30
0.0
 10
-226.274168
 20
143.037604
 30
0.0
 10
-221.021376
 20
152.331004
 30
0.0
 10
-222.233560
 20
156.371612
 30
0.0
 10
-220.617320
 20
172.534052
 30
0.0
 10
-240.416304
 20
168.897508
 30
0.0
 10
-252.134072
 20
166.069076
 30
0.0
 10
-260.619360
 20
166.473140
 30
0.0
 10
-266.276208
 20
161.624404
 30
0.0
 10
-276.377736
 20
163.644716
 30
0.0
 10
-292.540176
 20
174.150300
 30
0.0
 10
-308.298560
 20
188.292436
 30
0.0
 10
-313.147288
 20
181.827460
 30
0.0
 10
-326.481304
 20
180.615276
 30
0.0
 10
-336.178768
 20
176.170604
 30
0.0
 10
-342.643744
 20
167.281260
 30
0.0
  0
LWPOLYLINE
  5
101
100
AcDbEntity
  8
Layer_1
 62
7
100
AcDbPolyline
 90
28
 70
1
 10
-229.102600
 20
128.491404
 30
0.0
 10
-211.323912
 20
136.168564
 30
0.0
 10
-197.585840
 20
126.875156
 30
0.0
 10
-184.251824
 20
132.532012
 30
0.0
 10
-180.615272
 20
140.209172
 30
0.0
 10
-180.211216
 20
157.987860
 30
0.0
 10
-193.141168
 20
160.412228
 30
0.0
 10
-186.272128
 20
174.150300
 30
0.0
 10
-175.362480
 20
179.403092
 30
0.0
 10
-149.502576
 20
181.827460
 30
0.0
 10
-138.188872
 20
185.464004
 30
0.0
 10
-115.965512
 20
211.323916
 30
0.0
 10
-124.450792
 20
212.132036
 30
0.0
 10
-138.188872
 20
207.283300
 30
0.0
 10
-153.543184
 20
198.798020
 30
0.0
 10
-167.685320
 20
198.798020
 30
0.0
 10
-183.847760
 20
202.434572
 30
0.0
 10
-190.312736
 20
200.818324
 30
0.0
 10
-180.615272
 20
189.100556
 30
0.0
 10
-185.059944
 20
185.059948
 30
0.0
 10
-191.524920
 20
185.868068
 30
0.0
 10
-200.010208
 20
173.342180
 30
0.0
 10
-220.617320
 20
170.513748
 30
0.0
 10
-221.425440
 20
155.563492
 30
0.0
 10
-220.213256
 20
150.714764
 30
0.0
 10
-223.041680
 20
148.290396
 30
0.0
 10
-226.274168
 20
142.633540
 30
0.0
 10
-229.102600
 20
128.491404
 30
0.0
  0
LWPOLYLINE
  5
102
100
AcDbEntity
  8
Layer_1
 62
7
100
AcDbPolyline
 90
44
 70
1
 10
-200.414264
 20
174.554364
 30
0.0
 10
-220.213256
 20
171.321876
 30
0.0
 10
-221.829496
 20
177.382788
 30
0.0
 10
-222.637624
 20
179.807156
 30
0.0
 10
-219.001072
 20
183.847764
 30
0.0
 10
-219.405136
 20
193.545228
 30
0.0
 10
-206.879240
 20
187.484316
 30
0.0
 10
-201.626448
 20
193.949292
 30
0.0
 10
-205.667056
 20
200.818324
 30
0.0
 10
-203.646752
 20
206.475180
 30
0.0
 10
-197.585840
 20
206.475180
 30
0.0
 10
-197.585840
 20
215.364524
 30
0.0
 10
-191.928984
 20
219.809196
 30
0.0
 10
-179.403096
 20
216.576708
 30
0.0
 10
-177.786848
 20
239.204124
 30
0.0
 10
-173.746240
 20
250.517828
 30
0.0
 10
-182.635584
 20
274.761492
 30
0.0
 10
-193.545224
 20
284.863020
 30
0.0
 10
-204.050816
 20
289.307692
 30
0.0
 10
-203.242696
 20
293.752364
 30
0.0
 10
-188.696496
 20
294.156420
 30
0.0
 10
-189.100560
 20
302.237644
 30
0.0
 10
-193.545224
 20
310.318860
 30
0.0
 10
-191.524920
 20
315.167596
 30
0.0
 10
-158.391920
 20
315.167596
 30
0.0
 10
-139.805112
 20
322.036628
 30
0.0
 10
-119.602064
 20
313.955412
 30
0.0
 10
-117.985816
 20
303.449828
 30
0.0
 10
-94.550280
 20
268.700580
 30
0.0
 10
-93.338096
 20
259.811236
 30
0.0
 10
-113.137088
 20
237.991940
 30
0.0
 10
-119.198000
 20
225.466052
 30
0.0
 10
-112.733024
 20
216.172644
 30
0.0
 10
-115.965512
 20
211.323916
 30
0.0
 10
-126.067040
 20
211.323916
 30
0.0
 10
-145.057904
 20
204.858940
 30
0.0
 10
-152.331000
 20
198.798020
 30
0.0
 10
-167.685320
 20
198.798020
 30
0.0
 10
-182.231520
 20
203.646756
 30
0.0
 10
-189.908680
 20
201.222388
 30
0.0
 10
-179.403096
 20
189.100556
 30
0.0
 10
-183.847760
 20
185.464004
 30
0.0
 10
-191.524920
 20
185.464004
 30
0.0
 10
-200.414264
 20
174.554364
 30
0.0
  0
LWPOLYLINE
  5
103
100
AcDbEntity
  8
Layer_1
 62
7
100
AcDbPolyline
 90
41
 70
1
 10
-290.923936
 20
174.150300
 30
0.0
 10
-261.427480
 20
200.414268
 30
0.0
 10
-252.134072
 20
213.344220
 30
0.0
 10
-250.113768
 20
244.860980
 30
0.0
 10
-254.154384
 20
259.003116
 30
0.0
 10
-263.851848
 20
264.659964
 30
0.0
 10
-256.174688
 20
280.418348
 30
0.0
 10
-264.659968
 20
286.479260
 30
0.0
 10
-265.872152
 20
296.984852
 30
0.0
 10
-263.043720
 20
303.045764
 30
0.0
 10
-247.689408
 20
303.045764
 30
0.0
 10
-230.718840
 20
313.955412
 30
0.0
 10
-218.192952
 20
319.612268
 30
0.0
 10
-200.414264
 20
320.420388
 30
0.0
 10
-191.524920
 20
314.763532
 30
0.0
 10
-194.353352
 20
309.106676
 30
0.0
 10
-187.888376
 20
302.237644
 30
0.0
 10
-189.100560
 20
294.156420
 30
0.0
 10
-203.242696
 20
294.156420
 30
0.0
 10
-204.454872
 20
288.903628
 30
0.0
 10
-191.524920
 20
282.842716
 30
0.0
 10
-183.443704
 20
275.569612
 30
0.0
 10
-173.342176
 20
249.709708
 30
0.0
 10
-178.999032
 20
235.163516
 30
0.0
 10
-178.999032
 20
216.576708
 30
0.0
 10
-193.141168
 20
221.021380
 30
0.0
 10
-197.585840
 20
215.364524
 30
0.0
 10
-196.777712
 20
206.879244
 30
0.0
 10
-204.454872
 20
206.071116
 30
0.0
 10
-206.071120
 20
200.818324
 30
0.0
 10
-200.818328
 20
193.545228
 30
0.0
 10
-205.667056
 20
188.292436
 30
0.0
 10
-219.809192
 20
193.949292
 30
0.0
 10
-219.809192
 20
184.251828
 30
0.0
 10
-223.041680
 20
179.403092
 30
0.0
 10
-221.021376
 20
172.938116
 30
0.0
 10
-251.730016
 20
166.877204
 30
0.0
 10
-261.427480
 20
166.069076
 30
0.0
 10
-265.468088
 20
162.028468
 30
0.0
 10
-275.973672
 20
163.644716
 30
0.0
 10
-290.923936
 20
174.150300
 30
0.0
  0
LWPOLYLINE
  5
104
100
AcDbEntity
  8
Layer_1
 62
7
100
AcDbPolyline
 90
14
 70
1
 10
-291.327992
 20
173.342180
 30
0.0
 10
-308.298560
 20
188.292436
 30
0.0
 10
-306.682312
 20
204.454876
 30
0.0
 10
-309.914800
 20
239.204124
 30
0.0
 10
-298.197032
 20
254.962500
 30
0.0
 10
-280.822408
 20
269.104636
 30
0.0
 10
-275.973672
 20
269.912764
 30
0.0
 10
-268.700576
 20
263.043724
 30
0.0
 10
-263.447784
 20
264.255908
 30
0.0
 10
-253.346256
 20
259.003116
 30
0.0
 10
-250.517832
 20
244.860980
 30
0.0
 10
-251.730016
 20
212.940156
 30
0.0
 10
-265.872152
 20
197.181780
 30
0.0
 10
-291.327992
 20
173.342180
 30
0.0
  0
LWPOLYLINE
  5
105
100
AcDbEntity
  8
Layer_1
 62
7
100
AcDbPolyline
 90
34
 70
1
 10
-309.510744
 20
238.800060
 30
0.0
 10
-321.632568
 20
265.468092
 30
0.0
 10
-334.966584
 20
272.741188
 30
0.0
 10
-349.916840
 20
329.713788
 30
0.0
 10
-329.309728
 20
336.582828
 30
0.0
 10
-324.865056
 20
351.129028
 30
0.0
 10
-315.571656
 20
359.210244
 30
0.0
 10
-309.914800
 20
375.776748
 30
0.0
 10
-315.167592
 20
390.322940
 30
0.0
 10
-311.935104
 20
398.000100
 30
0.0
 10
-303.045760
 20
397.596044
 30
0.0
 10
-296.580784
 20
400.828532
 30
0.0
 10
-291.327992
 20
395.171676
 30
0.0
 10
-277.589920
 20
393.959492
 30
0.0
 10
-266.680272
 20
385.878276
 30
0.0
 10
-259.003112
 20
392.747308
 30
0.0
 10
-246.477224
 20
385.878276
 30
0.0
 10
-242.436608
 20
374.968628
 30
0.0
 10
-231.122904
 20
364.867100
 30
0.0
 10
-228.294472
 20
354.361516
 30
0.0
 10
-219.405136
 20
339.007196
 30
0.0
 10
-232.335088
 20
320.824452
 30
0.0
 10
-231.931024
 20
313.147292
 30
0.0
 10
-246.881280
 20
303.853884
 30
0.0
 10
-263.043720
 20
303.045764
 30
0.0
 10
-266.276208
 20
296.176724
 30
0.0
 10
-265.064032
 20
286.479260
 30
0.0
 10
-256.174688
 20
279.206164
 30
0.0
 10
-263.447784
 20
264.255908
 30
0.0
 10
-269.912760
 20
265.064028
 30
0.0
 10
-275.569616
 20
269.912764
 30
0.0
 10
-281.226472
 20
270.720884
 30
0.0
 10
-297.388912
 20
255.366564
 30
0.0
 10
-309.510744
 20
238.800060
 30
0.0
  0
LWPOLYLINE
  5
106
100
AcDbEntity
  8
Layer_1
 62
7
100
AcDbPolyline
 90
14
 70
1
 10
-230.314784
 20
313.955412
 30
0.0
 10
-217.384824
 20
320.016324
 30
0.0
 10
-200.414264
 20
320.016324
 30
0.0
 10
-191.120864
 20
314.359476
 30
0.0
 10
-156.371616
 20
315.167596
 30
0.0
 10
-139.805112
 20
322.844756
 30
0.0
 10
-154.755368
 20
347.492476
 30
0.0
 10
-172.129992
 20
345.876228
 30
0.0
 10
-188.292432
 20
341.431564
 30
0.0
 10
-210.919848
 20
335.774708
 30
0.0
 10
-219.405136
 20
338.603132
 30
0.0
 10
-231.931024
 20
321.228508
 30
0.0
 10
-232.335088
 20
315.167596
 30
0.0
 10
-230.314784
 20
313.955412
 30
0.0
  0
LWPOLYLINE
  5
107
100
AcDbEntity
  8
Layer_1
 62
7
100
AcDbPolyline
 90
27
 70
1
 10
-120.006120
 20
314.763532
 30
0.0
 10
-121.218304
 20
355.573700
 30
0.0
 10
-88.893424
 20
419.011276
 30
0.0
 10
-64.649763
 20
438.002148
 30
0.0
 10
-40.406102
 20
446.487428
 30
0.0
 10
-24.243661
 20
446.891484
 30
0.0
 10
-11.717770
 20
477.196060
 30
0.0
 10
-14.950258
 20
484.065100
 30
0.0
 10
-66.266007
 20
486.893524
 30
0.0
 10
-76.771594
 20
469.518900
 30
0.0
 10
-88.893424
 20
462.245804
 30
0.0
 10
-115.157392
 20
463.053924
 30
0.0
 10
-142.229480
 20
467.094540
 30
0.0
 10
-156.371616
 20
459.417380
 30
0.0
 10
-169.301568
 20
457.801132
 30
0.0
 10
-176.170608
 20
463.457988
 30
0.0
 10
-186.272128
 20
455.780828
 30
0.0
 10
-181.019336
 20
439.214324
 30
0.0
 10
-191.928984
 20
419.011276
 30
0.0
 10
-198.798024
 20
399.212284
 30
0.0
 10
-202.434568
 20
382.645788
 30
0.0
 10
-214.152336
 20
364.058980
 30
0.0
 10
-208.899544
 20
353.149332
 30
0.0
 10
-208.899544
 20
336.986892
 30
0.0
 10
-154.351312
 20
348.300596
 30
0.0
 10
-138.592928
 20
321.632572
 30
0.0
 10
-120.006120
 20
314.763532
 30
0.0
  0
LWPOLYLINE
  5
108
100
AcDbEntity
  8
Layer_1
 62
7
100
AcDbPolyline
 90
17
 70
1
 10
-13.738074
 20
484.873220
 30
0.0
 10
-15.758380
 20
490.934140
 30
0.0
 10
-21.415234
 20
501.035660
 30
0.0
 10
-15.758380
 20
554.775780
 30
0.0
 10
-8.081220
 20
577.807260
 30
0.0
 10
-37.981736
 20
583.464108
 30
0.0
 10
-48.891383
 20
579.827564
 30
0.0
 10
-57.376665
 20
572.958524
 30
0.0
 10
-67.478190
 20
573.766644
 30
0.0
 10
-81.216264
 20
606.495588
 30
0.0
 10
-85.256872
 20
609.728076
 30
0.0
 10
-89.701544
 20
600.434676
 30
0.0
 10
-130.107648
 20
568.513852
 30
0.0
 10
-92.125912
 20
539.421460
 30
0.0
 10
-83.640632
 20
530.532116
 30
0.0
 10
-65.053824
 20
487.297588
 30
0.0
 10
-13.738074
 20
484.873220
 30
0.0
  0
LWPOLYLINE
  5
109
100
AcDbEntity
  8
Layer_1
 62
7
100
AcDbPolyline
 90
14
 70
1
 10
-66.670068
 20
488.105708
 30
0.0
 10
-75.155350
 20
470.731084
 30
0.0
 10
-89.297488
 20
463.457988
 30
0.0
 10
-107.480232
 20
463.457988
 30
0.0
 10
-143.037600
 20
467.094540
 30
0.0
 10
-153.947248
 20
461.437684
 30
0.0
 10
-168.897504
 20
458.205196
 30
0.0
 10
-175.362480
 20
463.862052
 30
0.0
 10
-194.757408
 20
503.055972
 30
0.0
 10
-185.464008
 20
530.532116
 30
0.0
 10
-129.703584
 20
568.917916
 30
0.0
 10
-88.489360
 20
535.380852
 30
0.0
 10
-83.640632
 20
530.128060
 30
0.0
 10
-66.670068
 20
488.105708
 30
0.0
  0
LWPOLYLINE
  5
10a
100
AcDbEntity
  8
Layer_1
 62
7
100
AcDbPolyline
 90
17
 70
1
 10
-8.485282
 20
577.807260
 30
0.0
 10
4.040610
 20
625.082396
 30
0.0
 10
12.121830
 20
638.012348
 30
0.0
 10
22.627417
 20
645.285444
 30
0.0
 10
17.778685
 20
646.093572
 30
0.0
 10
7.677159
 20
668.316924
 30
0.0
 10
5.252793
 20
679.630636
 30
0.0
 10
-5.656854
 20
688.924036
 30
0.0
 10
-16.970562
 20
690.136220
 30
0.0
 10
-58.184786
 20
668.720988
 30
0.0
 10
-85.660936
 20
611.344324
 30
0.0
 10
-80.408144
 20
606.091524
 30
0.0
 10
-65.861946
 20
573.766644
 30
0.0
 10
-56.568542
 20
572.958524
 30
0.0
 10
-49.699506
 20
579.423500
 30
0.0
 10
-37.981736
 20
583.868172
 30
0.0
 10
-8.485282
 20
577.807260
 30
0.0
  0
LWPOLYLINE
  5
10b
100
AcDbEntity
  8
Layer_1
 62
7
100
AcDbPolyline
 90
22
 70
1
 10
-351.129024
 20
330.117852
 30
0.0
 10
-366.887408
 20
366.079284
 30
0.0
 10
-365.675224
 20
389.110764
 30
0.0
 10
-350.724960
 20
400.828532
 30
0.0
 10
-348.300600
 20
412.142236
 30
0.0
 10
-358.806184
 20
444.467124
 30
0.0
 10
-348.704656
 20
461.033620
 30
0.0
 10
-315.167592
 20
454.164588
 30
0.0
 10
-295.772664
 20
465.478292
 30
0.0
 10
-270.720880
 20
494.570684
 30
0.0
 10
-264.659968
 20
457.397076
 30
0.0
 10
-268.700576
 20
444.063060
 30
0.0
 10
-287.287384
 20
418.203156
 30
0.0
 10
-291.327992
 20
405.273204
 30
0.0
 10
-296.176728
 20
399.616348
 30
0.0
 10
-312.339168
 20
398.000100
 30
0.0
 10
-315.167592
 20
391.535124
 30
0.0
 10
-309.914800
 20
376.988932
 30
0.0
 10
-315.167592
 20
357.998060
 30
0.0
 10
-324.865056
 20
351.129028
 30
0.0
 10
-328.905672
 20
336.986892
 30
0.0
 10
-351.129024
 20
330.117852
 30
0.0
  0
LWPOLYLINE
  5
10c
100
AcDbEntity
  8
Layer_1
 62
7
100
AcDbPolyline
 90
32
 70
1
 10
-295.368608
 20
400.222436
 30
0.0
 10
-291.327992
 20
395.575740
 30
0.0
 10
-276.781800
 20
394.363556
 30
0.0
 10
-266.074184
 20
386.080300
 30
0.0
 10
-259.407176
 20
393.353404
 30
0.0
 10
-245.467072
 20
385.474212
 30
0.0
 10
-242.032552
 20
375.170652
 30
0.0
 10
-229.910720
 20
364.058980
 30
0.0
 10
-228.092448
 20
353.755420
 30
0.0
 10
-219.001072
 20
338.805164
 30
0.0
 10
-209.101576
 20
336.178764
 30
0.0
 10
-208.899544
 20
353.149332
 30
0.0
 10
-214.556400
 20
364.261012
 30
0.0
 10
-202.636600
 20
382.645788
 30
0.0
 10
-192.333048
 20
418.203156
 30
0.0
 10
-180.817304
 20
440.022452
 30
0.0
 10
-186.272128
 20
455.578796
 30
0.0
 10
-175.968576
 20
463.660020
 30
0.0
 10
-195.161472
 20
502.651908
 30
0.0
 10
-185.868072
 20
531.542268
 30
0.0
 10
-215.768584
 20
524.471204
 30
0.0
 10
-244.860976
 20
528.309780
 30
0.0
 10
-260.619360
 20
532.956484
 30
0.0
 10
-267.286360
 20
528.915876
 30
0.0
 10
-271.326976
 20
519.420436
 30
0.0
 10
-268.094488
 20
499.217388
 30
0.0
 10
-270.518848
 20
493.964596
 30
0.0
 10
-264.659968
 20
456.184892
 30
0.0
 10
-267.892456
 20
446.083364
 30
0.0
 10
-286.277232
 20
418.405188
 30
0.0
 10
-290.923936
 20
404.465076
 30
0.0
 10
-295.368608
 20
400.222436
 30
0.0
  0
ENDSEC
  0
SECTION
  2
OBJECTS
  0
DICTIONARY
  5
C
330
0
100
AcDbDictionary
  3
ACAD_GROUP
350
D
  3
ACAD_MLINESTYLE
350
17
  0
DICTIONARY
  5
D
330
C
100
AcDbDictionary
  0
DICTIONARY
  5
1A
330
C
100
AcDbDictionary
  0
DICTIONARY
  5
17
330
C
100
AcDbDictionary
  3
STANDARD
350
18
  0
DICTIONARY
  5
19
330
C
100
AcDbDictionary
  0
ENDSEC
  0
EOF
