  0
SECTION
  2
HEADER
  9
$ACADVER
  1
AC1014
  9
$HANDSEED
  5
FFFF
  9
$MEASUREMENT
 70
     1
  0
ENDSEC
  0
SECTION
  2
TABLES
  0
TABLE
  2
VPORT
  5
8
330
0
100
AcDbSymbolTable
 70
     4
  0
VPORT
  5
2E
330
8
100
AcDbSymbolTableRecord
100
AcDbViewportTableRecord
  2
*ACTIVE
 70
     0
 10
0.0
 20
0.0
 11
1.0
 21
1.0
 12
210.0
 22
148.5
 13
0.0
 23
0.0
 14
10.0
 24
10.0
 15
10.0
 25
10.0
 16
0.0
 26
0.0
 36
1.0
 17
0.0
 27
0.0
 37
0.0
 40
341.0
 41
1.24
 42
50.0
 43
0.0
 44
0.0
 50
0.0
 51
0.0
 71
     0
 72
   100
 73
     1
 74
     3
 75
     0
 76
     0
 77
     0
 78
     0
  0
ENDTAB
  0
TABLE
  2
LTYPE
  5
5
330
0
100
AcDbSymbolTable
 70
     1
  0
LTYPE
  5
14
330
5
100
AcDbSymbolTableRecord
100
AcDbLinetypeTableRecord
  2
BYBLOCK
 70
     0
  3

 72
    65
 73
     0
 40
0.0
  0
LTYPE
  5
15
330
5
100
AcDbSymbolTableRecord
100
AcDbLinetypeTableRecord
  2
BYLAYER
 70
     0
  3

 72
    65
 73
     0
 40
0.0
  0
LTYPE
  5
16
330
5
100
AcDbSymbolTableRecord
100
AcDbLinetypeTableRecord
  2
CONTINUOUS
 70
     0
  3
Solid line
 72
    65
 73
     0
 40
0.0
  0
ENDTAB
  0
TABLE
  2
LAYER
  5
2
100
AcDbSymbolTable
 70
2
  0
LAYER
  5
50
100
AcDbSymbolTableRecord
100
AcDbLayerTableRecord
  2
0
 70
0
  6
CONTINUOUS
  0
LAYER
  5
51
100
AcDbSymbolTableRecord
100
AcDbLayerTableRecord
  2
Layer_1
 70
0
  6
CONTINUOUS
  0
ENDTAB
  0
TABLE
  2
STYLE
  5
3
330
0
100
AcDbSymbolTable
 70
     1
  0
STYLE
  5
11
330
3
100
AcDbSymbolTableRecord
100
AcDbTextStyleTableRecord
  2
STANDARD
 70
     0
 40
0.0
 41
1.0
 50
0.0
 71
     0
 42
2.5
  3
txt
  4

  0
ENDTAB
  0
TABLE
  2
VIEW
  5
6
330
0
100
AcDbSymbolTable
 70
     0
  0
ENDTAB
  0
TABLE
  2
UCS
  5
7
330
0
100
AcDbSymbolTable
 70
     0
  0
ENDTAB
  0
TABLE
  2
APPID
  5
9
330
0
100
AcDbSymbolTable
 70
     2
  0
APPID
  5
12
330
9
100
AcDbSymbolTableRecord
100
AcDbRegAppTableRecord
  2
ACAD
 70
     0
  0
ENDTAB
  0
TABLE
  2
DIMSTYLE
  5
A
330
0
100
AcDbSymbolTable
 70
     1
  0
DIMSTYLE
105
27
330
A
100
AcDbSymbolTableRecord
100
AcDbDimStyleTableRecord
  2
ISO-25
 70
     0
  3

  4

  5

  6

  7

 40
1.0
 41
2.5
 42
0.625
 43
3.75
 44
1.25
 45
0.0
 46
0.0
 47
0.0
 48
0.0
140
2.5
141
2.5
142
0.0
143
0.03937007874016
144
1.0
145
0.0
146
1.0
147
0.625
 71
     0
 72
     0
 73
     0
 74
     0
 75
     0
 76
     0
 77
     1
 78
     8
170
     0
171
     3
172
     1
173
     0
174
     0
175
     0
176
     0
177
     0
178
     0
270
     2
271
     2
272
     2
273
     2
274
     3
340
11
275
     0
280
     0
281
     0
282
     0
283
     0
284
     8
285
     0
286
     0
287
     3
288
     0
  0
ENDTAB
  0
TABLE
  2
BLOCK_RECORD
  5
1
330
0
100
AcDbSymbolTable
 70
     1
  0
BLOCK_RECORD
  5
1F
330
1
100
AcDbSymbolTableRecord
100
AcDbBlockTableRecord
  2
*MODEL_SPACE
  0
BLOCK_RECORD
  5
1B
330
1
100
AcDbSymbolTableRecord
100
AcDbBlockTableRecord
  2
*PAPER_SPACE
  0
ENDTAB
  0
ENDSEC
  0
SECTION
  2
BLOCKS
  0
BLOCK
  5
20
330
1F
100
AcDbEntity
  8
0
100
AcDbBlockBegin
  2
*MODEL_SPACE
 70
     0
 10
0.0
 20
0.0
 30
0.0
  3
*MODEL_SPACE
  1

  0
ENDBLK
  5
21
330
1F
100
AcDbEntity
  8
0
100
AcDbBlockEnd
  0
BLOCK
  5
1C
330
1B
100
AcDbEntity
 67
     1
  8
0
100
AcDbBlockBegin
  2
*PAPER_SPACE
  1

  0
ENDBLK
  5
1D
330
1B
100
AcDbEntity
 67
     1
  8
0
100
AcDbBlockEnd
  0
ENDSEC
  0
SECTION
  2
ENTITIES
  0
LWPOLYLINE
  5
100
100
AcDbEntity
  8
Layer_1
 62
7
100
AcDbPolyline
 90
28
 70
1
 10
-47.428571
 20
689.714284
 30
0.0
 10
-42.857143
 20
680.000004
 30
0.0
 10
-40.000000
 20
653.714284
 30
0.0
 10
-26.857143
 20
640.571428
 30
0.0
 10
10.857143
 20
614.857140
 30
0.0
 10
50.285714
 20
624.000004
 30
0.0
 10
80.571432
 20
614.857140
 30
0.0
 10
88.571432
 20
590.285716
 30
0.0
 10
120.000000
 20
565.142860
 30
0.0
 10
105.714288
 20
537.714284
 30
0.0
 10
124.000000
 20
527.428572
 30
0.0
 10
126.285712
 20
538.285716
 30
0.0
 10
138.285712
 20
546.857140
 30
0.0
 10
152.571432
 20
554.857140
 30
0.0
 10
160.571432
 20
563.428572
 30
0.0
 10
168.571432
 20
580.000004
 30
0.0
 10
177.142856
 20
600.000004
 30
0.0
 10
168.571432
 20
617.714284
 30
0.0
 10
158.857144
 20
627.428572
 30
0.0
 10
132.000000
 20
636.000004
 30
0.0
 10
108.571432
 20
652.571428
 30
0.0
 10
92.000000
 20
661.714284
 30
0.0
 10
86.857144
 20
671.428572
 30
0.0
 10
60.000000
 20
722.285716
 30
0.0
 10
49.142857
 20
710.857140
 30
0.0
 10
23.428571
 20
705.714284
 30
0.0
 10
-21.142857
 20
702.285716
 30
0.0
 10
-47.428571
 20
689.714284
 30
0.0
  0
LWPOLYLINE
  5
101
100
AcDbEntity
  8
Layer_1
 62
7
100
AcDbPolyline
 90
23
 70
1
 10
123.428568
 20
527.428572
 30
0.0
 10
150.285712
 20
506.857140
 30
0.0
 10
155.428568
 20
501.714284
 30
0.0
 10
204.571432
 20
479.428572
 30
0.0
 10
200.000000
 20
462.857140
 30
0.0
 10
220.000000
 20
453.714284
 30
0.0
 10
226.285712
 20
461.714284
 30
0.0
 10
236.571432
 20
466.857140
 30
0.0
 10
241.714288
 20
478.285716
 30
0.0
 10
257.142856
 20
494.857140
 30
0.0
 10
272.571432
 20
504.571428
 30
0.0
 10
249.714288
 20
526.857140
 30
0.0
 10
220.000000
 20
574.285716
 30
0.0
 10
215.428568
 20
584.571428
 30
0.0
 10
203.428568
 20
589.714284
 30
0.0
 10
186.857144
 20
588.000004
 30
0.0
 10
178.285712
 20
600.571428
 30
0.0
 10
168.571432
 20
579.428572
 30
0.0
 10
161.714288
 20
564.000004
 30
0.0
 10
152.000000
 20
554.285716
 30
0.0
 10
138.285712
 20
546.857140
 30
0.0
 10
127.428568
 20
540.000004
 30
0.0
 10
123.428568
 20
527.428572
 30
0.0
  0
LWPOLYLINE
  5
102
100
AcDbEntity
  8
Layer_1
 62
7
100
AcDbPolyline
 90
21
 70
1
 10
218.857144
 20
454.857140
 30
0.0
 10
245.714288
 20
442.285716
 30
0.0
 10
236.571432
 20
390.285716
 30
0.0
 10
248.000000
 20
385.142860
 30
0.0
 10
262.285712
 20
369.142860
 30
0.0
 10
268.571432
 20
358.285716
 30
0.0
 10
270.857144
 20
349.714284
 30
0.0
 10
288.571432
 20
359.428572
 30
0.0
 10
309.142856
 20
380.571428
 30
0.0
 10
316.571432
 20
390.857140
 30
0.0
 10
310.285712
 20
409.142860
 30
0.0
 10
292.571432
 20
428.000004
 30
0.0
 10
289.142856
 20
429.142860
 30
0.0
 10
288.571432
 20
445.714284
 30
0.0
 10
281.714288
 20
459.428572
 30
0.0
 10
275.428568
 20
465.714284
 30
0.0
 10
242.857144
 20
477.714284
 30
0.0
 10
240.416304
 20
477.600124
 30
0.0
 10
236.375696
 20
467.296572
 30
0.0
 10
226.880264
 20
462.649868
 30
0.0
 10
218.857144
 20
454.857140
 30
0.0
  0
LWPOLYLINE
  5
103
100
AcDbEntity
  8
Layer_1
 62
7
100
AcDbPolyline
 90
12
 70
1
 10
445.679304
 20
379.615324
 30
0.0
 10
458.407224
 20
383.655940
 30
0.0
 10
457.195040
 20
415.374724
 30
0.0
 10
451.336160
 20
426.284372
 30
0.0
 10
428.910768
 20
442.244788
 30
0.0
 10
424.668128
 20
448.305700
 30
0.0
 10
419.011280
 20
450.730068
 30
0.0
 10
417.193000
 20
435.779812
 30
0.0
 10
420.021432
 20
424.466100
 30
0.0
 10
426.486408
 20
408.707724
 30
0.0
 10
433.355440
 20
396.383860
 30
0.0
 10
445.679304
 20
379.615324
 30
0.0
  0
LWPOLYLINE
  5
104
100
AcDbEntity
  8
Layer_1
 62
7
100
AcDbPolyline
 90
43
 70
1
 10
445.073208
 20
380.019388
 30
0.0
 10
425.476256
 20
375.978780
 30
0.0
 10
428.506712
 20
359.210244
 30
0.0
 10
438.810264
 20
342.037652
 30
0.0
 10
359.210248
 20
299.813276
 30
0.0
 10
343.855928
 20
295.772668
 30
0.0
 10
300.823432
 20
312.339164
 30
0.0
 10
280.216320
 20
311.329012
 30
0.0
 10
273.751344
 20
328.905668
 30
0.0
 10
270.518848
 20
350.320900
 30
0.0
 10
288.903632
 20
360.624460
 30
0.0
 10
304.662008
 20
377.392988
 30
0.0
 10
315.571656
 20
390.524972
 30
0.0
 10
308.904648
 20
409.111780
 30
0.0
 10
291.732056
 20
427.092500
 30
0.0
 10
288.701600
 20
428.910772
 30
0.0
 10
288.297536
 20
445.275244
 30
0.0
 10
280.216320
 20
459.417380
 30
0.0
 10
275.165552
 20
464.872204
 30
0.0
 10
243.648792
 20
476.589972
 30
0.0
 10
239.608184
 20
477.196060
 30
0.0
 10
256.376720
 20
495.984900
 30
0.0
 10
271.731032
 20
505.480332
 30
0.0
 10
319.612264
 20
528.915876
 30
0.0
 10
319.006176
 20
514.571708
 30
0.0
 10
316.581808
 20
501.439724
 30
0.0
 10
315.975720
 20
485.681348
 30
0.0
 10
321.834600
 20
475.175756
 30
0.0
 10
334.158464
 20
466.892508
 30
0.0
 10
339.613288
 20
464.064084
 30
0.0
 10
354.563544
 20
463.862052
 30
0.0
 10
376.988928
 20
471.135148
 30
0.0
 10
386.888424
 20
471.539212
 30
0.0
 10
389.918880
 20
467.902660
 30
0.0
 10
392.949344
 20
457.599100
 30
0.0
 10
396.787920
 20
452.952404
 30
0.0
 10
423.051888
 20
460.629564
 30
0.0
 10
419.819400
 20
448.911788
 30
0.0
 10
418.203152
 20
436.991988
 30
0.0
 10
420.829552
 20
425.072188
 30
0.0
 10
429.920920
 20
403.454924
 30
0.0
 10
436.385904
 20
393.353404
 30
0.0
 10
445.073208
 20
380.019388
 30
0.0
  0
LWPOLYLINE
  5
105
100
AcDbEntity
  8
Layer_1
 62
7
100
AcDbPolyline
 90
40
 70
1
 10
319.410232
 20
529.521964
 30
0.0
 10
319.006176
 20
516.794044
 30
0.0
 10
316.581808
 20
503.460028
 30
0.0
 10
315.571656
 20
485.479316
 30
0.0
 10
321.632568
 20
474.367636
 30
0.0
 10
335.572672
 20
465.074236
 30
0.0
 10
339.613288
 20
462.851900
 30
0.0
 10
355.573696
 20
462.851900
 30
0.0
 10
377.190960
 20
469.922964
 30
0.0
 10
386.686392
 20
471.135148
 30
0.0
 10
392.343248
 20
458.205196
 30
0.0
 10
396.383856
 20
452.144276
 30
0.0
 10
422.445792
 20
459.619412
 30
0.0
 10
439.820416
 20
480.024492
 30
0.0
 10
443.861032
 20
508.308764
 30
0.0
 10
446.487424
 20
514.571708
 30
0.0
 10
465.276264
 20
513.157492
 30
0.0
 10
487.095560
 20
519.622468
 30
0.0
 10
503.055968
 20
527.097596
 30
0.0
 10
512.349368
 20
543.058012
 30
0.0
 10
519.622472
 20
546.290500
 30
0.0
 10
522.046832
 20
553.967660
 30
0.0
 10
518.006224
 20
559.624508
 30
0.0
 10
505.480336
 20
565.079332
 30
0.0
 10
482.650888
 20
571.140252
 30
0.0
 10
466.286416
 20
574.372740
 30
0.0
 10
461.437680
 20
577.605228
 30
0.0
 10
441.234632
 20
569.524004
 30
0.0
 10
397.394008
 20
570.130100
 30
0.0
 10
379.615328
 20
566.089484
 30
0.0
 10
380.019384
 20
556.998116
 30
0.0
 10
385.676240
 20
552.149380
 30
0.0
 10
387.696544
 20
546.088468
 30
0.0
 10
385.676240
 20
537.805212
 30
0.0
 10
366.079280
 20
538.209276
 30
0.0
 10
352.745272
 20
543.866132
 30
0.0
 10
346.078264
 20
544.270196
 30
0.0
 10
333.148312
 20
534.572724
 30
0.0
 10
324.865056
 20
532.350396
 30
0.0
 10
319.410232
 20
529.521964
 30
0.0
  0
LWPOLYLINE
  5
106
100
AcDbEntity
  8
Layer_1
 62
7
100
AcDbPolyline
 90
42
 70
1
 10
59.599000
 20
722.461100
 30
0.0
 10
91.317792
 20
661.649916
 30
0.0
 10
125.258912
 20
640.436716
 30
0.0
 10
132.329984
 20
635.183924
 30
0.0
 10
158.593952
 20
626.496612
 30
0.0
 10
168.695472
 20
616.597116
 30
0.0
 10
178.190912
 20
597.606244
 30
0.0
 10
186.878224
 20
587.504724
 30
0.0
 10
203.242696
 20
588.918932
 30
0.0
 10
215.162496
 20
583.868172
 30
0.0
 10
219.405136
 20
574.170708
 30
0.0
 10
249.305648
 20
526.491508
 30
0.0
 10
271.933064
 20
504.672212
 30
0.0
 10
319.410232
 20
528.107748
 30
0.0
 10
319.612264
 20
540.229580
 30
0.0
 10
310.924952
 20
554.573748
 30
0.0
 10
296.176728
 20
564.675276
 30
0.0
 10
287.287384
 20
576.999132
 30
0.0
 10
282.034592
 20
599.222492
 30
0.0
 10
282.438648
 20
622.658028
 30
0.0
 10
280.014288
 20
636.598132
 30
0.0
 10
280.014288
 20
651.750420
 30
0.0
 10
284.256928
 20
662.458044
 30
0.0
 10
284.256928
 20
689.934188
 30
0.0
 10
283.448808
 20
704.480388
 30
0.0
 10
288.095504
 20
712.965668
 30
0.0
 10
302.843736
 20
721.248916
 30
0.0
 10
306.682312
 20
727.107804
 30
0.0
 10
307.692464
 20
735.189020
 30
0.0
 10
296.984848
 20
747.714916
 30
0.0
 10
287.489416
 20
745.492580
 30
0.0
 10
273.751344
 20
746.704764
 30
0.0
 10
255.770624
 20
753.977860
 30
0.0
 10
242.436608
 20
753.977860
 30
0.0
 10
215.162496
 20
737.815420
 30
0.0
 10
205.060968
 20
731.350444
 30
0.0
 10
180.009184
 20
728.319988
 30
0.0
 10
130.915768
 20
727.511868
 30
0.0
 10
108.288352
 20
727.713892
 30
0.0
 10
75.963471
 20
731.552476
 30
0.0
 10
62.629458
 20
726.703740
 30
0.0
 10
59.599000
 20
722.461100
 30
0.0
  0
LWPOLYLINE
  5
107
100
AcDbEntity
  8
Layer_1
 62
7
100
AcDbPolyline
 90
51
 70
1
 10
313.147288
 20
757.412380
 30
0.0
 10
297.186880
 20
748.118980
 30
0.0
 10
307.692464
 20
734.986996
 30
0.0
 10
306.076224
 20
727.107804
 30
0.0
 10
302.843736
 20
721.652980
 30
0.0
 10
288.297536
 20
713.975820
 30
0.0
 10
282.842712
 20
704.884444
 30
0.0
 10
283.650832
 20
674.579868
 30
0.0
 10
283.448808
 20
662.256012
 30
0.0
 10
279.812256
 20
653.164636
 30
0.0
 10
279.206160
 20
635.183924
 30
0.0
 10
281.630528
 20
623.264124
 30
0.0
 10
281.832560
 20
598.010308
 30
0.0
 10
287.085352
 20
576.393044
 30
0.0
 10
296.378760
 20
563.665124
 30
0.0
 10
310.722920
 20
553.765628
 30
0.0
 10
319.208208
 20
539.623492
 30
0.0
 10
319.208208
 20
528.107748
 30
0.0
 10
333.350344
 20
533.764604
 30
0.0
 10
346.482320
 20
543.462068
 30
0.0
 10
353.149328
 20
543.058012
 30
0.0
 10
365.473192
 20
537.401156
 30
0.0
 10
386.686392
 20
536.997092
 30
0.0
 10
388.706696
 20
545.482372
 30
0.0
 10
386.484368
 20
552.755476
 30
0.0
 10
381.029544
 20
557.402172
 30
0.0
 10
379.615328
 20
565.079332
 30
0.0
 10
399.010256
 20
569.726036
 30
0.0
 10
408.909752
 20
595.585940
 30
0.0
 10
417.597064
 20
615.182900
 30
0.0
 10
426.890464
 20
620.839756
 30
0.0
 10
441.032600
 20
621.041788
 30
0.0
 10
450.123976
 20
633.769708
 30
0.0
 10
459.417376
 20
644.679356
 30
0.0
 10
464.064080
 20
654.376820
 30
0.0
 10
465.276264
 20
669.125044
 30
0.0
 10
460.629560
 20
677.610332
 30
0.0
 10
447.497576
 20
670.135196
 30
0.0
 10
430.729048
 20
674.377844
 30
0.0
 10
421.839704
 20
679.226572
 30
0.0
 10
411.738176
 20
691.348404
 30
0.0
 10
393.353400
 20
702.864140
 30
0.0
 10
385.272184
 20
713.975820
 30
0.0
 10
386.080304
 20
727.511868
 30
0.0
 10
384.060000
 20
739.027604
 30
0.0
 10
376.584872
 20
753.169740
 30
0.0
 10
370.321920
 20
757.008316
 30
0.0
 10
355.169632
 20
758.220500
 30
0.0
 10
335.168616
 20
749.129132
 30
0.0
 10
325.471152
 20
749.533188
 30
0.0
 10
313.147288
 20
757.412380
 30
0.0
  0
LWPOLYLINE
  5
108
100
AcDbEntity
  8
Layer_1
 62
7
100
AcDbPolyline
 90
32
 70
1
 10
485.883376
 20
685.893580
 30
0.0
 10
469.720936
 20
682.661092
 30
0.0
 10
459.821440
 20
676.802204
 30
0.0
 10
448.103672
 20
669.933172
 30
0.0
 10
431.133104
 20
673.569716
 30
0.0
 10
421.435640
 20
678.418452
 30
0.0
 10
410.930056
 20
690.944340
 30
0.0
 10
392.949344
 20
701.853988
 30
0.0
 10
384.464056
 20
713.167700
 30
0.0
 10
385.070152
 20
726.097652
 30
0.0
 10
383.857968
 20
734.380900
 30
0.0
 10
383.251880
 20
738.825572
 30
0.0
 10
376.180808
 20
753.169740
 30
0.0
 10
386.080304
 20
756.604260
 30
0.0
 10
391.939192
 20
765.089539
 30
0.0
 10
393.757464
 20
774.382942
 30
0.0
 10
393.353400
 20
783.878376
 30
0.0
 10
397.394008
 20
792.969749
 30
0.0
 10
406.081320
 20
798.222542
 30
0.0
 10
433.759504
 20
799.434725
 30
0.0
 10
449.719912
 20
808.930159
 30
0.0
 10
464.872200
 20
786.706803
 30
0.0
 10
470.529056
 20
778.221521
 30
0.0
 10
483.054944
 20
771.150454
 30
0.0
 10
492.954440
 20
768.524057
 30
0.0
 10
513.359528
 20
769.736241
 30
0.0
 10
509.722976
 20
756.200196
 30
0.0
 10
495.984904
 20
729.128108
 30
0.0
 10
495.782872
 20
716.400188
 30
0.0
 10
491.944288
 20
703.268204
 30
0.0
 10
488.105712
 20
695.995108
 30
0.0
 10
485.883376
 20
685.893580
 30
0.0
  0
LWPOLYLINE
  5
109
100
AcDbEntity
  8
Layer_1
 62
7
100
AcDbPolyline
 90
22
 70
1
 10
501.843784
 20
686.297644
 30
0.0
 10
485.075256
 20
686.297644
 30
0.0
 10
469.922968
 20
683.267180
 30
0.0
 10
459.619408
 20
677.408300
 30
0.0
 10
464.266112
 20
669.125044
 30
0.0
 10
463.457992
 20
654.174788
 30
0.0
 10
456.790984
 20
642.457020
 30
0.0
 10
440.224480
 20
620.839756
 30
0.0
 10
430.122952
 20
601.242796
 30
0.0
 10
429.920920
 20
594.373756
 30
0.0
 10
440.426512
 20
587.100660
 30
0.0
 10
445.275240
 20
586.494572
 30
0.0
 10
453.962552
 20
590.737212
 30
0.0
 10
459.619408
 20
594.575788
 30
0.0
 10
461.437680
 20
611.142292
 30
0.0
 10
468.104688
 20
624.678332
 30
0.0
 10
478.408248
 20
636.800164
 30
0.0
 10
484.671192
 20
647.709812
 30
0.0
 10
495.378808
 20
657.811340
 30
0.0
 10
504.874240
 20
669.125044
 30
0.0
 10
504.672216
 20
677.408300
 30
0.0
 10
501.843784
 20
686.297644
 30
0.0
  0
LWPOLYLINE
  5
10a
100
AcDbEntity
  8
Layer_1
 62
7
100
AcDbPolyline
 90
44
 70
1
 10
502.045816
 20
686.297644
 30
0.0
 10
504.874240
 20
676.802204
 30
0.0
 10
504.268152
 20
668.518956
 30
0.0
 10
493.762568
 20
657.205244
 30
0.0
 10
484.469160
 20
648.315908
 30
0.0
 10
477.600120
 20
636.396108
 30
0.0
 10
468.508752
 20
625.890516
 30
0.0
 10
461.235656
 20
612.152444
 30
0.0
 10
459.013320
 20
594.575788
 30
0.0
 10
447.093520
 20
587.706748
 30
0.0
 10
441.032600
 20
587.908780
 30
0.0
 10
430.729048
 20
594.373756
 30
0.0
 10
430.729048
 20
600.030612
 30
0.0
 10
441.638696
 20
622.051940
 30
0.0
 10
426.082344
 20
621.647876
 30
0.0
 10
417.193000
 20
615.384932
 30
0.0
 10
412.344272
 20
604.879348
 30
0.0
 10
398.606192
 20
569.321972
 30
0.0
 10
441.032600
 20
568.917916
 30
0.0
 10
461.235656
 20
576.797108
 30
0.0
 10
465.074232
 20
574.574772
 30
0.0
 10
504.066120
 20
564.877308
 30
0.0
 10
517.400136
 20
558.816388
 30
0.0
 10
521.440744
 20
553.967660
 30
0.0
 10
519.622472
 20
546.492524
 30
0.0
 10
511.945312
 20
543.260036
 30
0.0
 10
501.641752
 20
526.289476
 30
0.0
 10
537.805216
 20
527.097596
 30
0.0
 10
589.120968
 20
523.663084
 30
0.0
 10
608.717928
 20
518.814348
 30
0.0
 10
624.476304
 20
510.531100
 30
0.0
 10
633.567680
 20
536.188972
 30
0.0
 10
635.992040
 20
545.078316
 30
0.0
 10
643.265144
 20
548.714860
 30
0.0
 10
652.154480
 20
585.888476
 30
0.0
 10
647.709816
 20
621.041788
 30
0.0
 10
628.516912
 20
637.002196
 30
0.0
 10
624.274272
 20
668.720988
 30
0.0
 10
596.394064
 20
689.126068
 30
0.0
 10
584.272232
 20
691.954492
 30
0.0
 10
573.160552
 20
686.297644
 30
0.0
 10
540.633640
 20
685.691548
 30
0.0
 10
506.692520
 20
687.711852
 30
0.0
 10
502.045816
 20
686.297644
 30
0.0
  0
LWPOLYLINE
  5
10b
100
AcDbEntity
  8
Layer_1
 62
7
100
AcDbPolyline
 90
22
 70
1
 10
595.585944
 20
689.934188
 30
0.0
 10
605.687464
 20
708.116932
 30
0.0
 10
598.616400
 20
724.279380
 30
0.0
 10
594.777816
 20
734.380900
 30
0.0
 10
593.161576
 20
754.583956
 30
0.0
 10
583.868168
 20
771.958576
 30
0.0
 10
561.644816
 20
767.311874
 30
0.0
 10
544.270192
 20
766.301721
 30
0.0
 10
523.865112
 20
770.746393
 30
0.0
 10
511.945312
 20
769.736241
 30
0.0
 10
509.722976
 20
758.624564
 30
0.0
 10
495.580840
 20
730.542324
 30
0.0
 10
495.176776
 20
715.996124
 30
0.0
 10
491.944288
 20
705.086476
 30
0.0
 10
486.893528
 20
696.399164
 30
0.0
 10
485.883376
 20
685.085460
 30
0.0
 10
502.045816
 20
684.883428
 30
0.0
 10
508.510792
 20
687.105764
 30
0.0
 10
573.564616
 20
685.489516
 30
0.0
 10
584.070200
 20
691.146372
 30
0.0
 10
596.394064
 20
689.530132
 30
0.0
 10
595.585944
 20
689.934188
 30
0.0
  0
LWPOLYLINE
  5
10c
100
AcDbEntity
  8
Layer_1
 62
7
100
AcDbPolyline
 90
27
 70
1
 10
312.945256
 20
757.614412
 30
0.0
 10
329.511760
 20
771.352485
 30
0.0
 10
333.350344
 20
792.161627
 30
0.0
 10
326.077240
 20
810.344373
 30
0.0
 10
327.087392
 20
822.264173
 30
0.0
 10
336.582832
 20
827.516966
 30
0.0
 10
366.685376
 20
827.921027
 30
0.0
 10
373.352384
 20
828.931180
 30
0.0
 10
381.433600
 20
833.375851
 30
0.0
 10
386.080304
 20
823.880417
 30
0.0
 10
396.585888
 20
817.011380
 30
0.0
 10
422.849856
 20
817.011380
 30
0.0
 10
441.840720
 20
812.970769
 30
0.0
 10
450.528032
 20
808.122037
 30
0.0
 10
434.971688
 20
799.232695
 30
0.0
 10
405.879296
 20
797.414420
 30
0.0
 10
398.000104
 20
792.363657
 30
0.0
 10
393.555432
 20
783.474315
 30
0.0
 10
394.969648
 20
774.989033
 30
0.0
 10
392.747312
 20
764.685477
 30
0.0
 10
387.696544
 20
756.604260
 30
0.0
 10
376.180808
 20
752.361620
 30
0.0
 10
369.715832
 20
755.998164
 30
0.0
 10
354.563544
 20
757.412380
 30
0.0
 10
336.582832
 20
748.927100
 30
0.0
 10
325.673184
 20
748.321004
 30
0.0
 10
312.945256
 20
757.614412
 30
0.0
  0
LWPOLYLINE
  5
10d
100
AcDbEntity
  8
Layer_1
 62
7
100
AcDbPolyline
 90
22
 70
1
 10
458.000000
 20
382.857140
 30
0.0
 10
456.857144
 20
415.428572
 30
0.0
 10
451.714288
 20
425.428572
 30
0.0
 10
429.142856
 20
440.571428
 30
0.0
 10
424.000000
 20
448.000004
 30
0.0
 10
418.857144
 20
450.285716
 30
0.0
 10
422.571432
 20
461.142860
 30
0.0
 10
438.857144
 20
480.000004
 30
0.0
 10
442.571432
 20
506.000004
 30
0.0
 10
445.142856
 20
514.857140
 30
0.0
 10
464.285712
 20
514.285716
 30
0.0
 10
487.142856
 20
520.285716
 30
0.0
 10
500.285712
 20
527.142860
 30
0.0
 10
544.285712
 20
528.000004
 30
0.0
 10
589.142856
 20
525.142860
 30
0.0
 10
608.857144
 20
520.285716
 30
0.0
 10
625.142856
 20
511.142860
 30
0.0
 10
605.714288
 20
480.857140
 30
0.0
 10
547.714288
 20
440.000004
 30
0.0
 10
542.571432
 20
426.000004
 30
0.0
 10
495.142856
 20
382.000004
 30
0.0
 10
458.000000
 20
382.857140
 30
0.0
  0
ENDSEC
  0
SECTION
  2
OBJECTS
  0
DICTIONARY
  5
C
330
0
100
AcDbDictionary
  3
ACAD_GROUP
350
D
  3
ACAD_MLINESTYLE
350
17
  0
DICTIONARY
  5
D
330
C
100
AcDbDictionary
  0
DICTIONARY
  5
1A
330
C
100
AcDbDictionary
  0
DICTIONARY
  5
17
330
C
100
AcDbDictionary
  3
STANDARD
350
18
  0
DICTIONARY
  5
19
330
C
100
AcDbDictionary
  0
ENDSEC
  0
EOF
