  0
SECTION
  2
HEADER
  9
$ACADVER
  1
AC1014
  9
$HANDSEED
  5
FFFF
  9
$MEASUREMENT
 70
     1
  0
ENDSEC
  0
SECTION
  2
TABLES
  0
TABLE
  2
VPORT
  5
8
330
0
100
AcDbSymbolTable
 70
     4
  0
VPORT
  5
2E
330
8
100
AcDbSymbolTableRecord
100
AcDbViewportTableRecord
  2
*ACTIVE
 70
     0
 10
0.0
 20
0.0
 11
1.0
 21
1.0
 12
210.0
 22
148.5
 13
0.0
 23
0.0
 14
10.0
 24
10.0
 15
10.0
 25
10.0
 16
0.0
 26
0.0
 36
1.0
 17
0.0
 27
0.0
 37
0.0
 40
341.0
 41
1.24
 42
50.0
 43
0.0
 44
0.0
 50
0.0
 51
0.0
 71
     0
 72
   100
 73
     1
 74
     3
 75
     0
 76
     0
 77
     0
 78
     0
  0
ENDTAB
  0
TABLE
  2
LTYPE
  5
5
330
0
100
AcDbSymbolTable
 70
     1
  0
LTYPE
  5
14
330
5
100
AcDbSymbolTableRecord
100
AcDbLinetypeTableRecord
  2
BYBLOCK
 70
     0
  3

 72
    65
 73
     0
 40
0.0
  0
LTYPE
  5
15
330
5
100
AcDbSymbolTableRecord
100
AcDbLinetypeTableRecord
  2
BYLAYER
 70
     0
  3

 72
    65
 73
     0
 40
0.0
  0
LTYPE
  5
16
330
5
100
AcDbSymbolTableRecord
100
AcDbLinetypeTableRecord
  2
CONTINUOUS
 70
     0
  3
Solid line
 72
    65
 73
     0
 40
0.0
  0
ENDTAB
  0
TABLE
  2
LAYER
  5
2
100
AcDbSymbolTable
 70
2
  0
LAYER
  5
50
100
AcDbSymbolTableRecord
100
AcDbLayerTableRecord
  2
0
 70
0
  6
CONTINUOUS
  0
LAYER
  5
51
100
AcDbSymbolTableRecord
100
AcDbLayerTableRecord
  2
Layer_1
 70
0
  6
CONTINUOUS
  0
ENDTAB
  0
TABLE
  2
STYLE
  5
3
330
0
100
AcDbSymbolTable
 70
     1
  0
STYLE
  5
11
330
3
100
AcDbSymbolTableRecord
100
AcDbTextStyleTableRecord
  2
STANDARD
 70
     0
 40
0.0
 41
1.0
 50
0.0
 71
     0
 42
2.5
  3
txt
  4

  0
ENDTAB
  0
TABLE
  2
VIEW
  5
6
330
0
100
AcDbSymbolTable
 70
     0
  0
ENDTAB
  0
TABLE
  2
UCS
  5
7
330
0
100
AcDbSymbolTable
 70
     0
  0
ENDTAB
  0
TABLE
  2
APPID
  5
9
330
0
100
AcDbSymbolTable
 70
     2
  0
APPID
  5
12
330
9
100
AcDbSymbolTableRecord
100
AcDbRegAppTableRecord
  2
ACAD
 70
     0
  0
ENDTAB
  0
TABLE
  2
DIMSTYLE
  5
A
330
0
100
AcDbSymbolTable
 70
     1
  0
DIMSTYLE
105
27
330
A
100
AcDbSymbolTableRecord
100
AcDbDimStyleTableRecord
  2
ISO-25
 70
     0
  3

  4

  5

  6

  7

 40
1.0
 41
2.5
 42
0.625
 43
3.75
 44
1.25
 45
0.0
 46
0.0
 47
0.0
 48
0.0
140
2.5
141
2.5
142
0.0
143
0.03937007874016
144
1.0
145
0.0
146
1.0
147
0.625
 71
     0
 72
     0
 73
     0
 74
     0
 75
     0
 76
     0
 77
     1
 78
     8
170
     0
171
     3
172
     1
173
     0
174
     0
175
     0
176
     0
177
     0
178
     0
270
     2
271
     2
272
     2
273
     2
274
     3
340
11
275
     0
280
     0
281
     0
282
     0
283
     0
284
     8
285
     0
286
     0
287
     3
288
     0
  0
ENDTAB
  0
TABLE
  2
BLOCK_RECORD
  5
1
330
0
100
AcDbSymbolTable
 70
     1
  0
BLOCK_RECORD
  5
1F
330
1
100
AcDbSymbolTableRecord
100
AcDbBlockTableRecord
  2
*MODEL_SPACE
  0
BLOCK_RECORD
  5
1B
330
1
100
AcDbSymbolTableRecord
100
AcDbBlockTableRecord
  2
*PAPER_SPACE
  0
ENDTAB
  0
ENDSEC
  0
SECTION
  2
BLOCKS
  0
BLOCK
  5
20
330
1F
100
AcDbEntity
  8
0
100
AcDbBlockBegin
  2
*MODEL_SPACE
 70
     0
 10
0.0
 20
0.0
 30
0.0
  3
*MODEL_SPACE
  1

  0
ENDBLK
  5
21
330
1F
100
AcDbEntity
  8
0
100
AcDbBlockEnd
  0
BLOCK
  5
1C
330
1B
100
AcDbEntity
 67
     1
  8
0
100
AcDbBlockBegin
  2
*PAPER_SPACE
  1

  0
ENDBLK
  5
1D
330
1B
100
AcDbEntity
 67
     1
  8
0
100
AcDbBlockEnd
  0
ENDSEC
  0
SECTION
  2
ENTITIES
  0
LWPOLYLINE
  5
100
100
AcDbEntity
  8
Layer_1
 62
7
100
AcDbPolyline
 90
17
 70
1
 10
-48.571429
 20
705.714284
 30
0.0
 10
-42.857143
 20
752.000004
 30
0.0
 10
-33.714286
 20
784.571429
 30
0.0
 10
-10.857143
 20
764.571429
 30
0.0
 10
10.857143
 20
754.857140
 30
0.0
 10
33.142857
 20
753.714284
 30
0.0
 10
44.571429
 20
757.714284
 30
0.0
 10
41.714286
 20
742.285716
 30
0.0
 10
52.571429
 20
700.571428
 30
0.0
 10
56.000000
 20
681.714284
 30
0.0
 10
43.428571
 20
660.000004
 30
0.0
 10
22.857143
 20
641.714284
 30
0.0
 10
0.000000
 20
650.285716
 30
0.0
 10
-12.571429
 20
646.285716
 30
0.0
 10
-36.000000
 20
658.857140
 30
0.0
 10
-37.714286
 20
685.714284
 30
0.0
 10
-48.571429
 20
705.714284
 30
0.0
  0
LWPOLYLINE
  5
101
100
AcDbEntity
  8
Layer_1
 62
7
100
AcDbPolyline
 90
21
 70
1
 10
-36.571429
 20
657.142860
 30
0.0
 10
-9.142857
 20
645.714284
 30
0.0
 10
2.285714
 20
625.714284
 30
0.0
 10
15.428571
 20
613.714284
 30
0.0
 10
25.142857
 20
592.571428
 30
0.0
 10
7.428571
 20
576.571428
 30
0.0
 10
-9.142857
 20
558.857140
 30
0.0
 10
-33.714286
 20
550.285716
 30
0.0
 10
-49.142857
 20
547.428572
 30
0.0
 10
-67.428571
 20
554.857140
 30
0.0
 10
-93.714288
 20
558.285716
 30
0.0
 10
-117.714288
 20
550.285716
 30
0.0
 10
-133.142856
 20
565.142860
 30
0.0
 10
-142.857144
 20
566.857140
 30
0.0
 10
-138.285712
 20
585.714284
 30
0.0
 10
-112.571432
 20
594.857140
 30
0.0
 10
-87.428568
 20
588.571428
 30
0.0
 10
-69.142858
 20
608.000004
 30
0.0
 10
-57.142858
 20
630.285716
 30
0.0
 10
-36.000000
 20
642.857140
 30
0.0
 10
-36.571429
 20
657.142860
 30
0.0
  0
LWPOLYLINE
  5
102
100
AcDbEntity
  8
Layer_1
 62
7
100
AcDbPolyline
 90
31
 70
1
 10
-117.714288
 20
549.142860
 30
0.0
 10
-93.142856
 20
558.857140
 30
0.0
 10
-66.857143
 20
554.285716
 30
0.0
 10
-48.571429
 20
547.428572
 30
0.0
 10
-26.857143
 20
552.000004
 30
0.0
 10
-8.000000
 20
559.428572
 30
0.0
 10
9.714286
 20
577.714284
 30
0.0
 10
25.142857
 20
592.000004
 30
0.0
 10
40.000000
 20
566.285716
 30
0.0
 10
53.142857
 20
544.571428
 30
0.0
 10
73.142858
 20
531.428572
 30
0.0
 10
100.571432
 20
523.428572
 30
0.0
 10
118.857144
 20
507.428572
 30
0.0
 10
134.285712
 20
503.428572
 30
0.0
 10
185.142856
 20
506.285716
 30
0.0
 10
191.428568
 20
496.571428
 30
0.0
 10
172.571432
 20
462.857140
 30
0.0
 10
137.142856
 20
457.714284
 30
0.0
 10
129.714288
 20
452.000004
 30
0.0
 10
125.142856
 20
441.142860
 30
0.0
 10
121.714288
 20
428.000004
 30
0.0
 10
97.714288
 20
425.142860
 30
0.0
 10
55.428571
 20
414.285716
 30
0.0
 10
36.000000
 20
416.571428
 30
0.0
 10
16.571429
 20
409.142860
 30
0.0
 10
1.714286
 20
397.714284
 30
0.0
 10
-12.000000
 20
381.714284
 30
0.0
 10
-9.142857
 20
397.714284
 30
0.0
 10
-17.714286
 20
421.714284
 30
0.0
 10
-68.571429
 20
493.714284
 30
0.0
 10
-117.714288
 20
549.142860
 30
0.0
  0
LWPOLYLINE
  5
103
100
AcDbEntity
  8
Layer_1
 62
7
100
AcDbPolyline
 90
33
 70
1
 10
172.571432
 20
462.857140
 30
0.0
 10
137.714288
 20
458.285716
 30
0.0
 10
129.714288
 20
453.714284
 30
0.0
 10
121.714288
 20
428.571428
 30
0.0
 10
97.714288
 20
425.714284
 30
0.0
 10
56.571429
 20
414.285716
 30
0.0
 10
35.428571
 20
417.142860
 30
0.0
 10
14.857143
 20
409.142860
 30
0.0
 10
-1.142857
 20
397.142860
 30
0.0
 10
-12.000000
 20
382.285716
 30
0.0
 10
-19.428571
 20
365.142860
 30
0.0
 10
-31.428571
 20
350.857140
 30
0.0
 10
-37.142857
 20
338.857140
 30
0.0
 10
-38.285714
 20
300.000004
 30
0.0
 10
-30.285714
 20
285.142860
 30
0.0
 10
-6.857143
 20
267.428572
 30
0.0
 10
4.000000
 20
256.571428
 30
0.0
 10
10.285714
 20
234.285716
 30
0.0
 10
49.142857
 20
236.571428
 30
0.0
 10
80.571432
 20
254.857140
 30
0.0
 10
91.428568
 20
258.285716
 30
0.0
 10
108.571432
 20
258.857140
 30
0.0
 10
122.285712
 20
253.142860
 30
0.0
 10
121.142856
 20
296.000004
 30
0.0
 10
147.428568
 20
313.714284
 30
0.0
 10
151.428568
 20
330.857140
 30
0.0
 10
149.142856
 20
349.142860
 30
0.0
 10
140.000000
 20
370.285716
 30
0.0
 10
134.285712
 20
392.000004
 30
0.0
 10
137.714288
 20
405.714284
 30
0.0
 10
150.285712
 20
418.285716
 30
0.0
 10
188.000000
 20
410.285716
 30
0.0
 10
172.571432
 20
462.857140
 30
0.0
  0
LWPOLYLINE
  5
104
100
AcDbEntity
  8
Layer_1
 62
7
100
AcDbPolyline
 90
25
 70
1
 10
182.285712
 20
506.857140
 30
0.0
 10
192.000000
 20
496.571428
 30
0.0
 10
172.000000
 20
461.714284
 30
0.0
 10
188.000000
 20
410.857140
 30
0.0
 10
212.000000
 20
407.428572
 30
0.0
 10
233.142856
 20
416.571428
 30
0.0
 10
287.428568
 20
473.142860
 30
0.0
 10
292.571432
 20
484.000004
 30
0.0
 10
286.857144
 20
504.571428
 30
0.0
 10
286.857144
 20
519.428572
 30
0.0
 10
296.571432
 20
533.714284
 30
0.0
 10
308.571432
 20
538.285716
 30
0.0
 10
330.285712
 20
579.428572
 30
0.0
 10
328.571432
 20
652.571428
 30
0.0
 10
318.285712
 20
674.857140
 30
0.0
 10
309.142856
 20
684.571428
 30
0.0
 10
296.000000
 20
674.857140
 30
0.0
 10
286.285712
 20
672.000004
 30
0.0
 10
272.000000
 20
670.285716
 30
0.0
 10
252.571432
 20
660.000004
 30
0.0
 10
220.000000
 20
637.714284
 30
0.0
 10
188.571432
 20
588.000004
 30
0.0
 10
173.714288
 20
571.428572
 30
0.0
 10
166.285712
 20
547.428572
 30
0.0
 10
182.285712
 20
506.857140
 30
0.0
  0
LWPOLYLINE
  5
105
100
AcDbEntity
  8
Layer_1
 62
7
100
AcDbPolyline
 90
38
 70
1
 10
309.714288
 20
684.000004
 30
0.0
 10
296.571432
 20
674.285716
 30
0.0
 10
270.857144
 20
669.714284
 30
0.0
 10
252.571432
 20
659.428572
 30
0.0
 10
220.571432
 20
637.714284
 30
0.0
 10
188.000000
 20
586.285716
 30
0.0
 10
173.714288
 20
571.428572
 30
0.0
 10
166.285712
 20
545.714284
 30
0.0
 10
182.857144
 20
505.714284
 30
0.0
 10
134.857144
 20
502.857140
 30
0.0
 10
117.142856
 20
508.000004
 30
0.0
 10
100.000000
 20
523.428572
 30
0.0
 10
74.285714
 20
531.428572
 30
0.0
 10
52.000000
 20
544.571428
 30
0.0
 10
25.142857
 20
590.857140
 30
0.0
 10
16.571429
 20
613.142860
 30
0.0
 10
2.285714
 20
625.714284
 30
0.0
 10
-10.285714
 20
647.428572
 30
0.0
 10
1.142857
 20
652.000004
 30
0.0
 10
23.428571
 20
642.857140
 30
0.0
 10
42.857143
 20
660.000004
 30
0.0
 10
55.428571
 20
681.142860
 30
0.0
 10
41.142857
 20
740.000004
 30
0.0
 10
43.428571
 20
757.714284
 30
0.0
 10
68.571429
 20
766.857144
 30
0.0
 10
82.857144
 20
763.428573
 30
0.0
 10
97.142856
 20
754.285716
 30
0.0
 10
113.142856
 20
740.571428
 30
0.0
 10
128.000000
 20
736.571428
 30
0.0
 10
172.000000
 20
751.428572
 30
0.0
 10
172.000000
 20
783.428573
 30
0.0
 10
191.428568
 20
784.000001
 30
0.0
 10
204.571432
 20
772.571429
 30
0.0
 10
212.571432
 20
755.428572
 30
0.0
 10
226.285712
 20
706.285716
 30
0.0
 10
253.142856
 20
690.285716
 30
0.0
 10
285.142856
 20
693.714284
 30
0.0
 10
309.714288
 20
684.000004
 30
0.0
  0
ENDSEC
  0
SECTION
  2
OBJECTS
  0
DICTIONARY
  5
C
330
0
100
AcDbDictionary
  3
ACAD_GROUP
350
D
  3
ACAD_MLINESTYLE
350
17
  0
DICTIONARY
  5
D
330
C
100
AcDbDictionary
  0
DICTIONARY
  5
1A
330
C
100
AcDbDictionary
  0
DICTIONARY
  5
17
330
C
100
AcDbDictionary
  3
STANDARD
350
18
  0
DICTIONARY
  5
19
330
C
100
AcDbDictionary
  0
ENDSEC
  0
EOF
