  0
SECTION
  2
HEADER
  9
$ACADVER
  1
AC1014
  9
$HANDSEED
  5
FFFF
  9
$MEASUREMENT
 70
     1
  0
ENDSEC
  0
SECTION
  2
TABLES
  0
TABLE
  2
VPORT
  5
8
330
0
100
AcDbSymbolTable
 70
     4
  0
VPORT
  5
2E
330
8
100
AcDbSymbolTableRecord
100
AcDbViewportTableRecord
  2
*ACTIVE
 70
     0
 10
0.0
 20
0.0
 11
1.0
 21
1.0
 12
210.0
 22
148.5
 13
0.0
 23
0.0
 14
10.0
 24
10.0
 15
10.0
 25
10.0
 16
0.0
 26
0.0
 36
1.0
 17
0.0
 27
0.0
 37
0.0
 40
341.0
 41
1.24
 42
50.0
 43
0.0
 44
0.0
 50
0.0
 51
0.0
 71
     0
 72
   100
 73
     1
 74
     3
 75
     0
 76
     0
 77
     0
 78
     0
  0
ENDTAB
  0
TABLE
  2
LTYPE
  5
5
330
0
100
AcDbSymbolTable
 70
     1
  0
LTYPE
  5
14
330
5
100
AcDbSymbolTableRecord
100
AcDbLinetypeTableRecord
  2
BYBLOCK
 70
     0
  3

 72
    65
 73
     0
 40
0.0
  0
LTYPE
  5
15
330
5
100
AcDbSymbolTableRecord
100
AcDbLinetypeTableRecord
  2
BYLAYER
 70
     0
  3

 72
    65
 73
     0
 40
0.0
  0
LTYPE
  5
16
330
5
100
AcDbSymbolTableRecord
100
AcDbLinetypeTableRecord
  2
CONTINUOUS
 70
     0
  3
Solid line
 72
    65
 73
     0
 40
0.0
  0
ENDTAB
  0
TABLE
  2
LAYER
  5
2
100
AcDbSymbolTable
 70
2
  0
LAYER
  5
50
100
AcDbSymbolTableRecord
100
AcDbLayerTableRecord
  2
0
 70
0
  6
CONTINUOUS
  0
LAYER
  5
51
100
AcDbSymbolTableRecord
100
AcDbLayerTableRecord
  2
Layer_1
 70
0
  6
CONTINUOUS
  0
ENDTAB
  0
TABLE
  2
STYLE
  5
3
330
0
100
AcDbSymbolTable
 70
     1
  0
STYLE
  5
11
330
3
100
AcDbSymbolTableRecord
100
AcDbTextStyleTableRecord
  2
STANDARD
 70
     0
 40
0.0
 41
1.0
 50
0.0
 71
     0
 42
2.5
  3
txt
  4

  0
ENDTAB
  0
TABLE
  2
VIEW
  5
6
330
0
100
AcDbSymbolTable
 70
     0
  0
ENDTAB
  0
TABLE
  2
UCS
  5
7
330
0
100
AcDbSymbolTable
 70
     0
  0
ENDTAB
  0
TABLE
  2
APPID
  5
9
330
0
100
AcDbSymbolTable
 70
     2
  0
APPID
  5
12
330
9
100
AcDbSymbolTableRecord
100
AcDbRegAppTableRecord
  2
ACAD
 70
     0
  0
ENDTAB
  0
TABLE
  2
DIMSTYLE
  5
A
330
0
100
AcDbSymbolTable
 70
     1
  0
DIMSTYLE
105
27
330
A
100
AcDbSymbolTableRecord
100
AcDbDimStyleTableRecord
  2
ISO-25
 70
     0
  3

  4

  5

  6

  7

 40
1.0
 41
2.5
 42
0.625
 43
3.75
 44
1.25
 45
0.0
 46
0.0
 47
0.0
 48
0.0
140
2.5
141
2.5
142
0.0
143
0.03937007874016
144
1.0
145
0.0
146
1.0
147
0.625
 71
     0
 72
     0
 73
     0
 74
     0
 75
     0
 76
     0
 77
     1
 78
     8
170
     0
171
     3
172
     1
173
     0
174
     0
175
     0
176
     0
177
     0
178
     0
270
     2
271
     2
272
     2
273
     2
274
     3
340
11
275
     0
280
     0
281
     0
282
     0
283
     0
284
     8
285
     0
286
     0
287
     3
288
     0
  0
ENDTAB
  0
TABLE
  2
BLOCK_RECORD
  5
1
330
0
100
AcDbSymbolTable
 70
     1
  0
BLOCK_RECORD
  5
1F
330
1
100
AcDbSymbolTableRecord
100
AcDbBlockTableRecord
  2
*MODEL_SPACE
  0
BLOCK_RECORD
  5
1B
330
1
100
AcDbSymbolTableRecord
100
AcDbBlockTableRecord
  2
*PAPER_SPACE
  0
ENDTAB
  0
ENDSEC
  0
SECTION
  2
BLOCKS
  0
BLOCK
  5
20
330
1F
100
AcDbEntity
  8
0
100
AcDbBlockBegin
  2
*MODEL_SPACE
 70
     0
 10
0.0
 20
0.0
 30
0.0
  3
*MODEL_SPACE
  1

  0
ENDBLK
  5
21
330
1F
100
AcDbEntity
  8
0
100
AcDbBlockEnd
  0
BLOCK
  5
1C
330
1B
100
AcDbEntity
 67
     1
  8
0
100
AcDbBlockBegin
  2
*PAPER_SPACE
  1

  0
ENDBLK
  5
1D
330
1B
100
AcDbEntity
 67
     1
  8
0
100
AcDbBlockEnd
  0
ENDSEC
  0
SECTION
  2
ENTITIES
  0
LWPOLYLINE
  5
100
100
AcDbEntity
  8
Layer_1
 62
7
100
AcDbPolyline
 90
17
 70
1
 10
-113.137088
 20
505.884396
 30
0.0
 10
-153.543184
 20
471.135148
 30
0.0
 10
-175.362480
 20
438.810268
 30
0.0
 10
-199.606144
 20
373.352380
 30
0.0
 10
-116.369576
 20
303.853884
 30
0.0
 10
-47.679200
 20
289.307692
 30
0.0
 10
-39.597980
 20
311.126988
 30
0.0
 10
12.929953
 20
338.603132
 30
0.0
 10
32.324882
 20
365.271164
 30
0.0
 10
37.981736
 20
392.747308
 30
0.0
 10
23.435539
 20
421.839700
 30
0.0
 10
-0.000000
 20
421.839700
 30
0.0
 10
-23.435539
 20
411.334116
 30
0.0
 10
-54.952298
 20
412.950364
 30
0.0
 10
-62.225397
 20
429.112804
 30
0.0
 10
-66.266007
 20
455.780828
 30
0.0
 10
-113.137088
 20
505.884396
 30
0.0
  0
LWPOLYLINE
  5
101
100
AcDbEntity
  8
Layer_1
 62
7
100
AcDbPolyline
 90
22
 70
1
 10
8.081220
 20
619.021484
 30
0.0
 10
-3.232488
 20
604.475284
 30
0.0
 10
-76.771594
 20
553.563596
 30
0.0
 10
-113.945208
 20
505.076276
 30
0.0
 10
-65.861946
 20
456.588948
 30
0.0
 10
-61.821336
 20
428.708740
 30
0.0
 10
-54.952298
 20
413.354420
 30
0.0
 10
-23.435539
 20
410.930052
 30
0.0
 10
0.404061
 20
421.435644
 30
0.0
 10
23.839600
 20
422.647828
 30
0.0
 10
39.193918
 20
392.343252
 30
0.0
 10
69.902556
 20
406.485388
 30
0.0
 10
84.448752
 20
431.537164
 30
0.0
 10
79.600021
 20
485.277284
 30
0.0
 10
59.396970
 20
504.268148
 30
0.0
 10
58.992909
 20
527.703692
 30
0.0
 10
47.679200
 20
530.936180
 30
0.0
 10
37.981736
 20
545.482372
 30
0.0
 10
33.133003
 20
563.261060
 30
0.0
 10
30.304576
 20
583.464108
 30
0.0
 10
24.647722
 20
604.475284
 30
0.0
 10
8.081220
 20
619.021484
 30
0.0
  0
LWPOLYLINE
  5
102
100
AcDbEntity
  8
Layer_1
 62
7
100
AcDbPolyline
 90
31
 70
1
 10
70.306617
 20
406.889444
 30
0.0
 10
84.852816
 20
431.537164
 30
0.0
 10
82.428448
 20
467.902660
 30
0.0
 10
108.288352
 20
464.670172
 30
0.0
 10
134.956384
 20
460.225500
 30
0.0
 10
143.037600
 20
463.862052
 30
0.0
 10
152.735064
 20
472.751388
 30
0.0
 10
162.836592
 20
469.922964
 30
0.0
 10
163.240648
 20
461.841748
 30
0.0
 10
160.816288
 20
448.507732
 30
0.0
 10
168.493448
 20
444.063060
 30
0.0
 10
190.312736
 20
442.042756
 30
0.0
 10
214.152336
 20
416.586908
 30
0.0
 10
220.213256
 20
415.374724
 30
0.0
 10
236.779760
 20
429.920924
 30
0.0
 10
250.921896
 20
430.324988
 30
0.0
 10
262.235600
 20
424.668132
 30
0.0
 10
266.680272
 20
411.334116
 30
0.0
 10
275.165552
 20
407.697564
 30
0.0
 10
290.923936
 20
405.677260
 30
0.0
 10
296.580784
 20
400.020412
 30
0.0
 10
277.185856
 20
383.857964
 30
0.0
 10
262.639664
 20
363.654916
 30
0.0
 10
245.265040
 20
321.632572
 30
0.0
 10
237.587880
 20
293.752364
 30
0.0
 10
199.202080
 20
303.449828
 30
0.0
 10
165.260960
 20
324.460996
 30
0.0
 10
158.795984
 20
358.806188
 30
0.0
 10
147.482272
 20
390.322940
 30
0.0
 10
118.793936
 20
406.485388
 30
0.0
 10
70.306617
 20
406.889444
 30
0.0
  0
LWPOLYLINE
  5
103
100
AcDbEntity
  8
Layer_1
 62
7
100
AcDbPolyline
 90
39
 70
1
 10
81.620328
 20
468.710780
 30
0.0
 10
80.408144
 20
484.469164
 30
0.0
 10
58.588848
 20
505.076276
 30
0.0
 10
59.396970
 20
528.511812
 30
0.0
 10
80.004080
 20
537.401156
 30
0.0
 10
98.994952
 20
564.473244
 30
0.0
 10
124.854856
 20
581.847868
 30
0.0
 10
153.543184
 20
595.585940
 30
0.0
 10
271.124944
 20
619.425540
 30
0.0
 10
267.892456
 20
576.595076
 30
0.0
 10
300.621400
 20
541.441764
 30
0.0
 10
336.178768
 20
515.177796
 30
0.0
 10
336.178768
 20
503.460028
 30
0.0
 10
347.896536
 20
482.044796
 30
0.0
 10
357.189944
 20
459.417380
 30
0.0
 10
361.230552
 20
446.487428
 30
0.0
 10
358.402120
 20
432.749348
 30
0.0
 10
349.512784
 20
424.668132
 30
0.0
 10
349.916840
 20
403.252900
 30
0.0
 10
345.068112
 20
374.968628
 30
0.0
 10
319.612264
 20
394.363556
 30
0.0
 10
312.743232
 20
399.616348
 30
0.0
 10
297.388912
 20
400.424468
 30
0.0
 10
290.923936
 20
405.677260
 30
0.0
 10
267.892456
 20
410.525996
 30
0.0
 10
261.831536
 20
424.264068
 30
0.0
 10
250.315800
 20
430.527012
 30
0.0
 10
236.779760
 20
429.516860
 30
0.0
 10
220.415288
 20
414.970668
 30
0.0
 10
214.152336
 20
416.586908
 30
0.0
 10
190.514768
 20
441.840724
 30
0.0
 10
169.503600
 20
444.063060
 30
0.0
 10
161.422376
 20
448.305700
 30
0.0
 10
164.048776
 20
463.255956
 30
0.0
 10
162.836592
 20
469.720932
 30
0.0
 10
152.331000
 20
473.155452
 30
0.0
 10
142.633536
 20
463.862052
 30
0.0
 10
135.158408
 20
460.427532
 30
0.0
 10
81.620328
 20
468.710780
 30
0.0
  0
LWPOLYLINE
  5
104
100
AcDbEntity
  8
Layer_1
 62
7
100
AcDbPolyline
 90
21
 70
1
 10
237.587880
 20
293.550332
 30
0.0
 10
246.881280
 20
325.875212
 30
0.0
 10
262.437632
 20
363.250852
 30
0.0
 10
277.387888
 20
384.262028
 30
0.0
 10
296.580784
 20
400.020412
 30
0.0
 10
312.945256
 20
399.414316
 30
0.0
 10
345.068112
 20
374.564564
 30
0.0
 10
348.502632
 20
337.390948
 30
0.0
 10
347.896536
 20
327.895516
 30
0.0
 10
351.937144
 20
312.541196
 30
0.0
 10
360.018368
 20
297.995004
 30
0.0
 10
382.241720
 20
277.791948
 30
0.0
 10
392.747312
 20
256.578748
 30
0.0
 10
391.535128
 20
250.517828
 30
0.0
 10
371.130048
 20
245.063004
 30
0.0
 10
319.208208
 20
220.011228
 30
0.0
 10
306.278256
 20
210.111732
 30
0.0
 10
295.368608
 20
208.091428
 30
0.0
 10
275.569616
 20
231.526964
 30
0.0
 10
261.629512
 20
272.135100
 30
0.0
 10
237.587880
 20
293.550332
 30
0.0
  0
LWPOLYLINE
  5
105
100
AcDbEntity
  8
Layer_1
 62
7
100
AcDbPolyline
 90
15
 70
1
 10
389.716856
 20
263.447788
 30
0.0
 10
393.151368
 20
256.376716
 30
0.0
 10
391.333096
 20
250.315804
 30
0.0
 10
418.809248
 20
250.517828
 30
0.0
 10
482.448856
 20
274.761492
 30
0.0
 10
508.712824
 20
291.327996
 30
0.0
 10
532.956480
 20
299.207188
 30
0.0
 10
528.915872
 20
338.805164
 30
0.0
 10
503.460032
 20
332.340188
 30
0.0
 10
495.176776
 20
326.481300
 30
0.0
 10
467.094536
 20
329.107700
 30
0.0
 10
454.366616
 20
326.481300
 30
0.0
 10
448.911792
 20
305.268100
 30
0.0
 10
434.567624
 20
291.934084
 30
0.0
 10
389.716856
 20
263.447788
 30
0.0
  0
LWPOLYLINE
  5
106
100
AcDbEntity
  8
Layer_1
 62
7
100
AcDbPolyline
 90
36
 70
1
 10
528.915872
 20
338.401100
 30
0.0
 10
502.853936
 20
332.138156
 30
0.0
 10
495.176776
 20
326.481300
 30
0.0
 10
465.478296
 20
329.107700
 30
0.0
 10
454.366616
 20
326.077244
 30
0.0
 10
448.507728
 20
304.257948
 30
0.0
 10
433.355440
 20
290.923932
 30
0.0
 10
389.312792
 20
263.245756
 30
0.0
 10
381.837664
 20
278.398044
 30
0.0
 10
360.018368
 20
297.792972
 30
0.0
 10
351.533088
 20
312.743228
 30
0.0
 10
348.098568
 20
328.097548
 30
0.0
 10
347.694504
 20
349.916844
 30
0.0
 10
345.472168
 20
375.372684
 30
0.0
 10
349.310752
 20
397.596044
 30
0.0
 10
350.118872
 20
416.788940
 30
0.0
 10
349.512784
 20
424.668132
 30
0.0
 10
358.604152
 20
432.749348
 30
0.0
 10
361.634608
 20
446.891484
 30
0.0
 10
352.139176
 20
472.549364
 30
0.0
 10
341.835624
 20
493.964596
 30
0.0
 10
336.380800
 20
503.257996
 30
0.0
 10
335.976736
 20
516.996076
 30
0.0
 10
346.078264
 20
522.854956
 30
0.0
 10
365.877256
 20
526.693540
 30
0.0
 10
382.847816
 20
524.875260
 30
0.0
 10
402.646808
 20
531.340236
 30
0.0
 10
420.627520
 20
536.391004
 30
0.0
 10
447.295544
 20
541.239732
 30
0.0
 10
445.881336
 20
521.642772
 30
0.0
 10
455.982856
 20
468.508748
 30
0.0
 10
464.266112
 20
431.941228
 30
0.0
 10
482.852920
 20
423.051884
 30
0.0
 10
504.066120
 20
399.212284
 30
0.0
 10
525.481352
 20
367.291468
 30
0.0
 10
528.915872
 20
338.401100
 30
0.0
  0
LWPOLYLINE
  5
107
100
AcDbEntity
  8
Layer_1
 62
7
100
AcDbPolyline
 90
21
 70
1
 10
271.714288
 20
619.714284
 30
0.0
 10
269.571432
 20
594.000004
 30
0.0
 10
268.571432
 20
576.714284
 30
0.0
 10
299.000000
 20
543.142860
 30
0.0
 10
336.142856
 20
516.285716
 30
0.0
 10
343.571432
 20
521.571428
 30
0.0
 10
365.428576
 20
526.857148
 30
0.0
 10
384.142856
 20
525.285716
 30
0.0
 10
415.714288
 20
535.000004
 30
0.0
 10
448.142856
 20
541.428572
 30
0.0
 10
449.142856
 20
560.428572
 30
0.0
 10
455.857144
 20
580.571428
 30
0.0
 10
433.285712
 20
589.857148
 30
0.0
 10
407.571432
 20
605.142860
 30
0.0
 10
373.571432
 20
619.142860
 30
0.0
 10
351.857144
 20
620.285716
 30
0.0
 10
342.714288
 20
610.000004
 30
0.0
 10
331.857144
 20
606.714284
 30
0.0
 10
319.857144
 20
611.285716
 30
0.0
 10
308.142856
 20
626.285716
 30
0.0
 10
271.714288
 20
619.714284
 30
0.0
  0
LWPOLYLINE
  5
108
100
AcDbEntity
  8
Layer_1
 62
7
100
AcDbPolyline
 90
28
 70
1
 10
456.000000
 20
580.857148
 30
0.0
 10
432.000000
 20
590.428572
 30
0.0
 10
407.857144
 20
605.142860
 30
0.0
 10
374.000000
 20
619.285716
 30
0.0
 10
351.428576
 20
620.000004
 30
0.0
 10
343.714288
 20
610.714284
 30
0.0
 10
332.857144
 20
607.000004
 30
0.0
 10
320.428576
 20
611.000004
 30
0.0
 10
308.857144
 20
626.285716
 30
0.0
 10
320.285712
 20
625.428572
 30
0.0
 10
333.285712
 20
627.714284
 30
0.0
 10
342.571432
 20
634.428572
 30
0.0
 10
350.000000
 20
648.428572
 30
0.0
 10
346.714288
 20
700.285716
 30
0.0
 10
372.714288
 20
699.857148
 30
0.0
 10
403.857144
 20
711.285716
 30
0.0
 10
418.571432
 20
714.571428
 30
0.0
 10
429.142856
 20
715.571428
 30
0.0
 10
442.428576
 20
713.714284
 30
0.0
 10
518.857144
 20
684.857148
 30
0.0
 10
527.142856
 20
677.857148
 30
0.0
 10
540.000000
 20
663.142860
 30
0.0
 10
538.571432
 20
655.285716
 30
0.0
 10
514.571432
 20
653.428572
 30
0.0
 10
496.857144
 20
637.857148
 30
0.0
 10
472.857144
 20
608.571428
 30
0.0
 10
462.000000
 20
594.428572
 30
0.0
 10
456.000000
 20
580.857148
 30
0.0
  0
ENDSEC
  0
SECTION
  2
OBJECTS
  0
DICTIONARY
  5
C
330
0
100
AcDbDictionary
  3
ACAD_GROUP
350
D
  3
ACAD_MLINESTYLE
350
17
  0
DICTIONARY
  5
D
330
C
100
AcDbDictionary
  0
DICTIONARY
  5
1A
330
C
100
AcDbDictionary
  0
DICTIONARY
  5
17
330
C
100
AcDbDictionary
  3
STANDARD
350
18
  0
DICTIONARY
  5
19
330
C
100
AcDbDictionary
  0
ENDSEC
  0
EOF
