  0
SECTION
  2
HEADER
  9
$ACADVER
  1
AC1014
  9
$HANDSEED
  5
FFFF
  9
$MEASUREMENT
 70
     1
  0
ENDSEC
  0
SECTION
  2
TABLES
  0
TABLE
  2
VPORT
  5
8
330
0
100
AcDbSymbolTable
 70
     4
  0
VPORT
  5
2E
330
8
100
AcDbSymbolTableRecord
100
AcDbViewportTableRecord
  2
*ACTIVE
 70
     0
 10
0.0
 20
0.0
 11
1.0
 21
1.0
 12
210.0
 22
148.5
 13
0.0
 23
0.0
 14
10.0
 24
10.0
 15
10.0
 25
10.0
 16
0.0
 26
0.0
 36
1.0
 17
0.0
 27
0.0
 37
0.0
 40
341.0
 41
1.24
 42
50.0
 43
0.0
 44
0.0
 50
0.0
 51
0.0
 71
     0
 72
   100
 73
     1
 74
     3
 75
     0
 76
     0
 77
     0
 78
     0
  0
ENDTAB
  0
TABLE
  2
LTYPE
  5
5
330
0
100
AcDbSymbolTable
 70
     1
  0
LTYPE
  5
14
330
5
100
AcDbSymbolTableRecord
100
AcDbLinetypeTableRecord
  2
BYBLOCK
 70
     0
  3

 72
    65
 73
     0
 40
0.0
  0
LTYPE
  5
15
330
5
100
AcDbSymbolTableRecord
100
AcDbLinetypeTableRecord
  2
BYLAYER
 70
     0
  3

 72
    65
 73
     0
 40
0.0
  0
LTYPE
  5
16
330
5
100
AcDbSymbolTableRecord
100
AcDbLinetypeTableRecord
  2
CONTINUOUS
 70
     0
  3
Solid line
 72
    65
 73
     0
 40
0.0
  0
ENDTAB
  0
TABLE
  2
LAYER
  5
2
100
AcDbSymbolTable
 70
2
  0
LAYER
  5
50
100
AcDbSymbolTableRecord
100
AcDbLayerTableRecord
  2
0
 70
0
  6
CONTINUOUS
  0
LAYER
  5
51
100
AcDbSymbolTableRecord
100
AcDbLayerTableRecord
  2
Layer_1
 70
0
  6
CONTINUOUS
  0
ENDTAB
  0
TABLE
  2
STYLE
  5
3
330
0
100
AcDbSymbolTable
 70
     1
  0
STYLE
  5
11
330
3
100
AcDbSymbolTableRecord
100
AcDbTextStyleTableRecord
  2
STANDARD
 70
     0
 40
0.0
 41
1.0
 50
0.0
 71
     0
 42
2.5
  3
txt
  4

  0
ENDTAB
  0
TABLE
  2
VIEW
  5
6
330
0
100
AcDbSymbolTable
 70
     0
  0
ENDTAB
  0
TABLE
  2
UCS
  5
7
330
0
100
AcDbSymbolTable
 70
     0
  0
ENDTAB
  0
TABLE
  2
APPID
  5
9
330
0
100
AcDbSymbolTable
 70
     2
  0
APPID
  5
12
330
9
100
AcDbSymbolTableRecord
100
AcDbRegAppTableRecord
  2
ACAD
 70
     0
  0
ENDTAB
  0
TABLE
  2
DIMSTYLE
  5
A
330
0
100
AcDbSymbolTable
 70
     1
  0
DIMSTYLE
105
27
330
A
100
AcDbSymbolTableRecord
100
AcDbDimStyleTableRecord
  2
ISO-25
 70
     0
  3

  4

  5

  6

  7

 40
1.0
 41
2.5
 42
0.625
 43
3.75
 44
1.25
 45
0.0
 46
0.0
 47
0.0
 48
0.0
140
2.5
141
2.5
142
0.0
143
0.03937007874016
144
1.0
145
0.0
146
1.0
147
0.625
 71
     0
 72
     0
 73
     0
 74
     0
 75
     0
 76
     0
 77
     1
 78
     8
170
     0
171
     3
172
     1
173
     0
174
     0
175
     0
176
     0
177
     0
178
     0
270
     2
271
     2
272
     2
273
     2
274
     3
340
11
275
     0
280
     0
281
     0
282
     0
283
     0
284
     8
285
     0
286
     0
287
     3
288
     0
  0
ENDTAB
  0
TABLE
  2
BLOCK_RECORD
  5
1
330
0
100
AcDbSymbolTable
 70
     1
  0
BLOCK_RECORD
  5
1F
330
1
100
AcDbSymbolTableRecord
100
AcDbBlockTableRecord
  2
*MODEL_SPACE
  0
BLOCK_RECORD
  5
1B
330
1
100
AcDbSymbolTableRecord
100
AcDbBlockTableRecord
  2
*PAPER_SPACE
  0
ENDTAB
  0
ENDSEC
  0
SECTION
  2
BLOCKS
  0
BLOCK
  5
20
330
1F
100
AcDbEntity
  8
0
100
AcDbBlockBegin
  2
*MODEL_SPACE
 70
     0
 10
0.0
 20
0.0
 30
0.0
  3
*MODEL_SPACE
  1

  0
ENDBLK
  5
21
330
1F
100
AcDbEntity
  8
0
100
AcDbBlockEnd
  0
BLOCK
  5
1C
330
1B
100
AcDbEntity
 67
     1
  8
0
100
AcDbBlockBegin
  2
*PAPER_SPACE
  1

  0
ENDBLK
  5
1D
330
1B
100
AcDbEntity
 67
     1
  8
0
100
AcDbBlockEnd
  0
ENDSEC
  0
SECTION
  2
ENTITIES
  0
LWPOLYLINE
  5
100
100
AcDbEntity
  8
Layer_1
 62
7
100
AcDbPolyline
 90
30
 70
1
 10
-251.325952
 20
654.578852
 30
0.0
 10
-288.499568
 20
635.992044
 30
0.0
 10
-337.795008
 20
627.910820
 30
0.0
 10
-387.898576
 20
624.678332
 30
0.0
 10
-418.607216
 20
614.172748
 30
0.0
 10
-408.101632
 20
585.888476
 30
0.0
 10
-428.304680
 20
569.726036
 30
0.0
 10
-459.013320
 20
572.958524
 30
0.0
 10
-461.437680
 20
551.947348
 30
0.0
 10
-433.961536
 20
495.378812
 30
0.0
 10
-430.729048
 20
475.175756
 30
0.0
 10
-415.374728
 20
468.710780
 30
0.0
 10
-405.677264
 20
454.972708
 30
0.0
 10
-405.677264
 20
357.998060
 30
0.0
 10
-383.049848
 20
341.027500
 30
0.0
 10
-366.079280
 20
334.562524
 30
0.0
 10
-351.533088
 20
339.411252
 30
0.0
 10
-338.603136
 20
368.503652
 30
0.0
 10
-299.813272
 20
377.392988
 30
0.0
 10
-222.233560
 20
346.684356
 30
0.0
 10
-215.768584
 20
374.160500
 30
0.0
 10
-194.757408
 20
394.363556
 30
0.0
 10
-183.443704
 20
420.223460
 30
0.0
 10
-191.524920
 20
466.286412
 30
0.0
 10
-192.333048
 20
496.186932
 30
0.0
 10
-185.059944
 20
516.389980
 30
0.0
 10
-151.118824
 20
558.412324
 30
0.0
 10
-169.705624
 20
572.958524
 30
0.0
 10
-225.466048
 20
581.847868
 30
0.0
 10
-251.325952
 20
654.578852
 30
0.0
  0
LWPOLYLINE
  5
101
100
AcDbEntity
  8
Layer_1
 62
7
100
AcDbPolyline
 90
18
 70
1
 10
10.505586
 20
556.796084
 30
0.0
 10
36.365492
 20
569.726036
 30
0.0
 10
62.225397
 20
573.766644
 30
0.0
 10
91.317792
 20
565.685428
 30
0.0
 10
114.753328
 20
545.482372
 30
0.0
 10
103.439624
 20
518.814348
 30
0.0
 10
88.893424
 20
495.378812
 30
0.0
 10
76.771594
 20
477.600124
 30
0.0
 10
72.730983
 20
455.780828
 30
0.0
 10
57.714286
 20
462.857140
 30
0.0
 10
44.000000
 20
471.428572
 30
0.0
 10
35.428571
 20
476.571428
 30
0.0
 10
21.142857
 20
478.285716
 30
0.0
 10
6.857143
 20
485.714284
 30
0.0
 10
4.571429
 20
497.142860
 30
0.0
 10
7.428571
 20
516.571428
 30
0.0
 10
7.428571
 20
537.714284
 30
0.0
 10
10.505586
 20
556.796084
 30
0.0
  0
LWPOLYLINE
  5
102
100
AcDbEntity
  8
Layer_1
 62
7
100
AcDbPolyline
 90
21
 70
1
 10
114.285712
 20
545.142860
 30
0.0
 10
105.142856
 20
522.285716
 30
0.0
 10
78.285714
 20
479.428572
 30
0.0
 10
70.285714
 20
440.000004
 30
0.0
 10
77.142858
 20
430.857140
 30
0.0
 10
99.428568
 20
438.285716
 30
0.0
 10
104.000000
 20
430.285716
 30
0.0
 10
98.857144
 20
411.428572
 30
0.0
 10
57.142858
 20
341.142860
 30
0.0
 10
49.714286
 20
310.857140
 30
0.0
 10
52.000000
 20
264.571428
 30
0.0
 10
93.714288
 20
270.857140
 30
0.0
 10
106.857144
 20
277.714284
 30
0.0
 10
172.000000
 20
281.142860
 30
0.0
 10
247.428568
 20
336.571428
 30
0.0
 10
237.714288
 20
372.000004
 30
0.0
 10
216.000000
 20
420.000004
 30
0.0
 10
183.428568
 20
463.428572
 30
0.0
 10
172.000000
 20
490.857140
 30
0.0
 10
144.571432
 20
522.285716
 30
0.0
 10
114.285712
 20
545.142860
 30
0.0
  0
LWPOLYLINE
  5
103
100
AcDbEntity
  8
Layer_1
 62
7
100
AcDbPolyline
 90
33
 70
1
 10
51.428571
 20
265.142860
 30
0.0
 10
33.142857
 20
266.857140
 30
0.0
 10
4.000000
 20
284.000004
 30
0.0
 10
-26.285714
 20
285.714284
 30
0.0
 10
-77.714286
 20
276.571428
 30
0.0
 10
-102.285712
 20
281.714284
 30
0.0
 10
-156.571432
 20
316.000004
 30
0.0
 10
-222.857144
 20
346.285716
 30
0.0
 10
-214.857144
 20
375.428572
 30
0.0
 10
-194.285712
 20
394.857140
 30
0.0
 10
-183.428568
 20
420.000004
 30
0.0
 10
-192.000000
 20
468.571428
 30
0.0
 10
-192.571432
 20
500.000004
 30
0.0
 10
-185.142856
 20
517.714284
 30
0.0
 10
-150.857144
 20
557.142860
 30
0.0
 10
-129.142856
 20
545.142860
 30
0.0
 10
-101.714288
 20
537.714284
 30
0.0
 10
12.000000
 20
558.285716
 30
0.0
 10
6.285714
 20
535.428572
 30
0.0
 10
8.571429
 20
514.857140
 30
0.0
 10
5.714286
 20
499.428572
 30
0.0
 10
8.000000
 20
485.142860
 30
0.0
 10
22.285714
 20
478.285716
 30
0.0
 10
34.857143
 20
478.857140
 30
0.0
 10
73.714286
 20
454.857140
 30
0.0
 10
70.285714
 20
440.571428
 30
0.0
 10
77.142858
 20
430.857140
 30
0.0
 10
100.571432
 20
437.714284
 30
0.0
 10
104.571432
 20
429.142860
 30
0.0
 10
98.285712
 20
409.714284
 30
0.0
 10
57.714286
 20
342.285716
 30
0.0
 10
50.285714
 20
310.285716
 30
0.0
 10
51.428571
 20
265.142860
 30
0.0
  0
ENDSEC
  0
SECTION
  2
OBJECTS
  0
DICTIONARY
  5
C
330
0
100
AcDbDictionary
  3
ACAD_GROUP
350
D
  3
ACAD_MLINESTYLE
350
17
  0
DICTIONARY
  5
D
330
C
100
AcDbDictionary
  0
DICTIONARY
  5
1A
330
C
100
AcDbDictionary
  0
DICTIONARY
  5
17
330
C
100
AcDbDictionary
  3
STANDARD
350
18
  0
DICTIONARY
  5
19
330
C
100
AcDbDictionary
  0
ENDSEC
  0
EOF
