  0
SECTION
  2
HEADER
  9
$ACADVER
  1
AC1014
  9
$HANDSEED
  5
FFFF
  9
$MEASUREMENT
 70
     1
  0
ENDSEC
  0
SECTION
  2
TABLES
  0
TABLE
  2
VPORT
  5
8
330
0
100
AcDbSymbolTable
 70
     4
  0
VPORT
  5
2E
330
8
100
AcDbSymbolTableRecord
100
AcDbViewportTableRecord
  2
*ACTIVE
 70
     0
 10
0.0
 20
0.0
 11
1.0
 21
1.0
 12
210.0
 22
148.5
 13
0.0
 23
0.0
 14
10.0
 24
10.0
 15
10.0
 25
10.0
 16
0.0
 26
0.0
 36
1.0
 17
0.0
 27
0.0
 37
0.0
 40
341.0
 41
1.24
 42
50.0
 43
0.0
 44
0.0
 50
0.0
 51
0.0
 71
     0
 72
   100
 73
     1
 74
     3
 75
     0
 76
     0
 77
     0
 78
     0
  0
ENDTAB
  0
TABLE
  2
LTYPE
  5
5
330
0
100
AcDbSymbolTable
 70
     1
  0
LTYPE
  5
14
330
5
100
AcDbSymbolTableRecord
100
AcDbLinetypeTableRecord
  2
BYBLOCK
 70
     0
  3

 72
    65
 73
     0
 40
0.0
  0
LTYPE
  5
15
330
5
100
AcDbSymbolTableRecord
100
AcDbLinetypeTableRecord
  2
BYLAYER
 70
     0
  3

 72
    65
 73
     0
 40
0.0
  0
LTYPE
  5
16
330
5
100
AcDbSymbolTableRecord
100
AcDbLinetypeTableRecord
  2
CONTINUOUS
 70
     0
  3
Solid line
 72
    65
 73
     0
 40
0.0
  0
ENDTAB
  0
TABLE
  2
LAYER
  5
2
100
AcDbSymbolTable
 70
2
  0
LAYER
  5
50
100
AcDbSymbolTableRecord
100
AcDbLayerTableRecord
  2
0
 70
0
  6
CONTINUOUS
  0
LAYER
  5
51
100
AcDbSymbolTableRecord
100
AcDbLayerTableRecord
  2
Layer_1
 70
0
  6
CONTINUOUS
  0
ENDTAB
  0
TABLE
  2
STYLE
  5
3
330
0
100
AcDbSymbolTable
 70
     1
  0
STYLE
  5
11
330
3
100
AcDbSymbolTableRecord
100
AcDbTextStyleTableRecord
  2
STANDARD
 70
     0
 40
0.0
 41
1.0
 50
0.0
 71
     0
 42
2.5
  3
txt
  4

  0
ENDTAB
  0
TABLE
  2
VIEW
  5
6
330
0
100
AcDbSymbolTable
 70
     0
  0
ENDTAB
  0
TABLE
  2
UCS
  5
7
330
0
100
AcDbSymbolTable
 70
     0
  0
ENDTAB
  0
TABLE
  2
APPID
  5
9
330
0
100
AcDbSymbolTable
 70
     2
  0
APPID
  5
12
330
9
100
AcDbSymbolTableRecord
100
AcDbRegAppTableRecord
  2
ACAD
 70
     0
  0
ENDTAB
  0
TABLE
  2
DIMSTYLE
  5
A
330
0
100
AcDbSymbolTable
 70
     1
  0
DIMSTYLE
105
27
330
A
100
AcDbSymbolTableRecord
100
AcDbDimStyleTableRecord
  2
ISO-25
 70
     0
  3

  4

  5

  6

  7

 40
1.0
 41
2.5
 42
0.625
 43
3.75
 44
1.25
 45
0.0
 46
0.0
 47
0.0
 48
0.0
140
2.5
141
2.5
142
0.0
143
0.03937007874016
144
1.0
145
0.0
146
1.0
147
0.625
 71
     0
 72
     0
 73
     0
 74
     0
 75
     0
 76
     0
 77
     1
 78
     8
170
     0
171
     3
172
     1
173
     0
174
     0
175
     0
176
     0
177
     0
178
     0
270
     2
271
     2
272
     2
273
     2
274
     3
340
11
275
     0
280
     0
281
     0
282
     0
283
     0
284
     8
285
     0
286
     0
287
     3
288
     0
  0
ENDTAB
  0
TABLE
  2
BLOCK_RECORD
  5
1
330
0
100
AcDbSymbolTable
 70
     1
  0
BLOCK_RECORD
  5
1F
330
1
100
AcDbSymbolTableRecord
100
AcDbBlockTableRecord
  2
*MODEL_SPACE
  0
BLOCK_RECORD
  5
1B
330
1
100
AcDbSymbolTableRecord
100
AcDbBlockTableRecord
  2
*PAPER_SPACE
  0
ENDTAB
  0
ENDSEC
  0
SECTION
  2
BLOCKS
  0
BLOCK
  5
20
330
1F
100
AcDbEntity
  8
0
100
AcDbBlockBegin
  2
*MODEL_SPACE
 70
     0
 10
0.0
 20
0.0
 30
0.0
  3
*MODEL_SPACE
  1

  0
ENDBLK
  5
21
330
1F
100
AcDbEntity
  8
0
100
AcDbBlockEnd
  0
BLOCK
  5
1C
330
1B
100
AcDbEntity
 67
     1
  8
0
100
AcDbBlockBegin
  2
*PAPER_SPACE
  1

  0
ENDBLK
  5
1D
330
1B
100
AcDbEntity
 67
     1
  8
0
100
AcDbBlockEnd
  0
ENDSEC
  0
SECTION
  2
ENTITIES
  0
LWPOLYLINE
  5
100
100
AcDbEntity
  8
Layer_1
 62
7
100
AcDbPolyline
 90
24
 70
1
 10
-103.439624
 20
276.377740
 30
0.0
 10
17.778685
 20
293.348300
 30
0.0
 10
28.284271
 20
314.359476
 30
0.0
 10
24.243661
 20
342.643740
 30
0.0
 10
14.546197
 20
354.765572
 30
0.0
 10
15.354318
 20
367.695524
 30
0.0
 10
32.324882
 20
367.695524
 30
0.0
 10
29.900515
 20
385.474212
 30
0.0
 10
20.203051
 20
404.061020
 30
0.0
 10
26.668027
 20
438.810268
 30
0.0
 10
0.808122
 20
454.164588
 30
0.0
 10
-16.162441
 20
455.780828
 30
0.0
 10
-42.022346
 20
447.699612
 30
0.0
 10
-57.376665
 20
457.397076
 30
0.0
 10
-71.922862
 20
487.297588
 30
0.0
 10
-93.742160
 20
467.902660
 30
0.0
 10
-130.915768
 20
464.670172
 30
0.0
 10
-164.856896
 20
457.397076
 30
0.0
 10
-163.240648
 20
386.282332
 30
0.0
 10
-147.078208
 20
357.189940
 30
0.0
 10
-113.945208
 20
370.119892
 30
0.0
 10
-100.207136
 20
345.068108
 30
0.0
 10
-98.590888
 20
315.167596
 30
0.0
 10
-103.439624
 20
276.377740
 30
0.0
  0
LWPOLYLINE
  5
101
100
AcDbEntity
  8
Layer_1
 62
7
100
AcDbPolyline
 90
19
 70
1
 10
18.182746
 20
294.156420
 30
0.0
 10
69.902556
 20
313.551348
 30
0.0
 10
100.611192
 20
364.058980
 30
0.0
 10
144.249784
 20
345.876228
 30
0.0
 10
155.159432
 20
383.049844
 30
0.0
 10
166.069080
 20
405.273204
 30
0.0
 10
169.705624
 20
421.031580
 30
0.0
 10
130.511712
 20
423.051884
 30
0.0
 10
105.055864
 20
416.586908
 30
0.0
 10
60.609153
 20
422.243764
 30
0.0
 10
27.072088
 20
438.810268
 30
0.0
 10
19.394929
 20
402.848836
 30
0.0
 10
28.284271
 20
387.898580
 30
0.0
 10
31.516759
 20
369.311772
 30
0.0
 10
14.546197
 20
367.695524
 30
0.0
 10
13.738074
 20
354.765572
 30
0.0
 10
23.839600
 20
342.239684
 30
0.0
 10
27.476150
 20
313.551348
 30
0.0
 10
18.182746
 20
294.156420
 30
0.0
  0
LWPOLYLINE
  5
102
100
AcDbEntity
  8
Layer_1
 62
7
100
AcDbPolyline
 90
16
 70
1
 10
170.513752
 20
420.627524
 30
0.0
 10
166.877200
 20
406.889444
 30
0.0
 10
155.159432
 20
383.857964
 30
0.0
 10
143.441664
 20
346.280292
 30
0.0
 10
174.150296
 20
255.770628
 30
0.0
 10
262.235600
 20
271.933068
 30
0.0
 10
294.156424
 20
367.695524
 30
0.0
 10
311.531048
 20
378.201116
 30
0.0
 10
297.388912
 20
412.142236
 30
0.0
 10
286.075200
 20
427.496556
 30
0.0
 10
264.659968
 20
410.121932
 30
0.0
 10
246.073160
 20
401.232588
 30
0.0
 10
223.445744
 20
402.848836
 30
0.0
 10
208.495488
 20
404.869140
 30
0.0
 10
185.059944
 20
416.586908
 30
0.0
 10
170.513752
 20
420.627524
 30
0.0
  0
LWPOLYLINE
  5
103
100
AcDbEntity
  8
Layer_1
 62
7
100
AcDbPolyline
 90
26
 70
1
 10
275.165552
 20
490.934140
 30
0.0
 10
271.933064
 20
477.600124
 30
0.0
 10
275.165552
 20
448.103668
 30
0.0
 10
286.075200
 20
427.496556
 30
0.0
 10
297.388912
 20
411.738180
 30
0.0
 10
311.531048
 20
377.797052
 30
0.0
 10
339.411256
 20
390.727004
 30
0.0
 10
370.523952
 20
380.221420
 30
0.0
 10
421.435640
 20
350.724964
 30
0.0
 10
470.327024
 20
386.686396
 30
0.0
 10
573.362584
 20
334.158460
 30
0.0
 10
600.838736
 20
326.885364
 30
0.0
 10
589.929088
 20
339.007196
 30
0.0
 10
571.342280
 20
357.998060
 30
0.0
 10
555.583904
 20
382.241724
 30
0.0
 10
553.967656
 20
394.767612
 30
0.0
 10
488.105712
 20
422.243764
 30
0.0
 10
455.376768
 20
431.133108
 30
0.0
 10
409.717872
 20
436.789964
 30
0.0
 10
392.343248
 20
440.830572
 30
0.0
 10
357.189944
 20
462.649868
 30
0.0
 10
339.007192
 20
478.812308
 30
0.0
 10
324.056936
 20
486.893524
 30
0.0
 10
296.176728
 20
488.913836
 30
0.0
 10
291.732056
 20
485.681348
 30
0.0
 10
275.165552
 20
490.934140
 30
0.0
  0
LWPOLYLINE
  5
104
100
AcDbEntity
  8
Layer_1
 62
7
100
AcDbPolyline
 90
31
 70
1
 10
349.108720
 20
634.779860
 30
0.0
 10
341.835624
 20
605.283404
 30
0.0
 10
332.138160
 20
574.574772
 30
0.0
 10
314.763536
 20
539.017396
 30
0.0
 10
293.752360
 20
520.834652
 30
0.0
 10
282.842712
 20
507.500636
 30
0.0
 10
274.761496
 20
490.530076
 30
0.0
 10
292.944240
 20
484.469164
 30
0.0
 10
297.388912
 20
488.509772
 30
0.0
 10
324.865056
 20
485.681348
 30
0.0
 10
339.815320
 20
476.387940
 30
0.0
 10
355.573696
 20
462.649868
 30
0.0
 10
391.535128
 20
440.830572
 30
0.0
 10
439.214328
 20
432.345292
 30
0.0
 10
461.841744
 20
428.304676
 30
0.0
 10
495.378808
 20
418.607212
 30
0.0
 10
555.179840
 20
393.959492
 30
0.0
 10
553.563592
 20
466.286412
 30
0.0
 10
553.563592
 20
482.448860
 30
0.0
 10
562.857000
 20
515.177796
 30
0.0
 10
564.473240
 20
551.139228
 30
0.0
 10
574.574768
 20
565.281364
 30
0.0
 10
581.847864
 20
589.120964
 30
0.0
 10
519.622472
 20
590.333148
 30
0.0
 10
463.053928
 20
597.606244
 30
0.0
 10
440.022448
 20
605.687468
 30
0.0
 10
421.435640
 20
608.515892
 30
0.0
 10
410.525992
 20
610.536196
 30
0.0
 10
388.706696
 20
608.111836
 30
0.0
 10
364.463040
 20
626.698636
 30
0.0
 10
349.108720
 20
634.779860
 30
0.0
  0
LWPOLYLINE
  5
105
100
AcDbEntity
  8
Layer_1
 62
7
100
AcDbPolyline
 90
19
 70
1
 10
-101.823376
 20
595.990004
 30
0.0
 10
-65.457885
 20
540.633644
 30
0.0
 10
-77.983777
 20
525.279324
 30
0.0
 10
-71.114739
 20
485.681348
 30
0.0
 10
-57.780726
 20
456.184892
 30
0.0
 10
-42.426407
 20
445.679300
 30
0.0
 10
-15.354318
 20
454.972708
 30
0.0
 10
0.808122
 20
453.356460
 30
0.0
 10
27.476150
 20
438.406204
 30
0.0
 10
31.920821
 20
454.568644
 30
0.0
 10
8.081220
 20
522.046836
 30
0.0
 10
14.546197
 20
542.653948
 30
0.0
 10
23.839600
 20
556.392020
 30
0.0
 10
19.394929
 20
569.726036
 30
0.0
 10
6.869037
 20
568.109796
 30
0.0
 10
-10.909647
 20
572.554460
 30
0.0
 10
-34.345186
 20
568.513852
 30
0.0
 10
-63.033519
 20
572.958524
 30
0.0
 10
-101.823376
 20
595.990004
 30
0.0
  0
LWPOLYLINE
  5
106
100
AcDbEntity
  8
Layer_1
 62
7
100
AcDbPolyline
 90
34
 70
1
 10
19.798990
 20
569.726036
 30
0.0
 10
23.839600
 20
555.583900
 30
0.0
 10
14.142136
 20
542.653948
 30
0.0
 10
7.273098
 20
522.854956
 30
0.0
 10
31.920821
 20
454.164588
 30
0.0
 10
27.476150
 20
437.598084
 30
0.0
 10
55.760421
 20
423.860012
 30
0.0
 10
105.055864
 20
415.778788
 30
0.0
 10
132.127952
 20
421.839700
 30
0.0
 10
169.301568
 20
420.223460
 30
0.0
 10
192.333048
 20
412.546300
 30
0.0
 10
208.899544
 20
402.444772
 30
0.0
 10
246.477224
 20
400.020412
 30
0.0
 10
266.276208
 20
409.313812
 30
0.0
 10
287.287384
 20
428.304676
 30
0.0
 10
275.569616
 20
449.719916
 30
0.0
 10
273.549312
 20
476.387940
 30
0.0
 10
283.650832
 20
506.288460
 30
0.0
 10
315.167592
 20
537.401156
 30
0.0
 10
332.946280
 20
574.978828
 30
0.0
 10
350.320904
 20
634.375796
 30
0.0
 10
341.431560
 20
641.648900
 30
0.0
 10
307.490432
 20
648.113876
 30
0.0
 10
267.488392
 20
650.134180
 30
0.0
 10
235.567576
 20
670.741292
 30
0.0
 10
202.030512
 20
668.316924
 30
0.0
 10
186.272128
 20
661.043828
 30
0.0
 10
159.200040
 20
646.901692
 30
0.0
 10
136.976688
 20
623.870212
 30
0.0
 10
122.026424
 20
604.475284
 30
0.0
 10
109.096472
 20
590.333148
 30
0.0
 10
82.832512
 20
570.938220
 30
0.0
 10
28.284271
 20
572.150404
 30
0.0
 10
19.798990
 20
569.726036
 30
0.0
  0
ENDSEC
  0
SECTION
  2
OBJECTS
  0
DICTIONARY
  5
C
330
0
100
AcDbDictionary
  3
ACAD_GROUP
350
D
  3
ACAD_MLINESTYLE
350
17
  0
DICTIONARY
  5
D
330
C
100
AcDbDictionary
  0
DICTIONARY
  5
1A
330
C
100
AcDbDictionary
  0
DICTIONARY
  5
17
330
C
100
AcDbDictionary
  3
STANDARD
350
18
  0
DICTIONARY
  5
19
330
C
100
AcDbDictionary
  0
ENDSEC
  0
EOF
