  0
SECTION
  2
HEADER
  9
$ACADVER
  1
AC1014
  9
$HANDSEED
  5
FFFF
  9
$MEASUREMENT
 70
     1
  0
ENDSEC
  0
SECTION
  2
TABLES
  0
TABLE
  2
VPORT
  5
8
330
0
100
AcDbSymbolTable
 70
     4
  0
VPORT
  5
2E
330
8
100
AcDbSymbolTableRecord
100
AcDbViewportTableRecord
  2
*ACTIVE
 70
     0
 10
0.0
 20
0.0
 11
1.0
 21
1.0
 12
210.0
 22
148.5
 13
0.0
 23
0.0
 14
10.0
 24
10.0
 15
10.0
 25
10.0
 16
0.0
 26
0.0
 36
1.0
 17
0.0
 27
0.0
 37
0.0
 40
341.0
 41
1.24
 42
50.0
 43
0.0
 44
0.0
 50
0.0
 51
0.0
 71
     0
 72
   100
 73
     1
 74
     3
 75
     0
 76
     0
 77
     0
 78
     0
  0
ENDTAB
  0
TABLE
  2
LTYPE
  5
5
330
0
100
AcDbSymbolTable
 70
     1
  0
LTYPE
  5
14
330
5
100
AcDbSymbolTableRecord
100
AcDbLinetypeTableRecord
  2
BYBLOCK
 70
     0
  3

 72
    65
 73
     0
 40
0.0
  0
LTYPE
  5
15
330
5
100
AcDbSymbolTableRecord
100
AcDbLinetypeTableRecord
  2
BYLAYER
 70
     0
  3

 72
    65
 73
     0
 40
0.0
  0
LTYPE
  5
16
330
5
100
AcDbSymbolTableRecord
100
AcDbLinetypeTableRecord
  2
CONTINUOUS
 70
     0
  3
Solid line
 72
    65
 73
     0
 40
0.0
  0
ENDTAB
  0
TABLE
  2
LAYER
  5
2
100
AcDbSymbolTable
 70
2
  0
LAYER
  5
50
100
AcDbSymbolTableRecord
100
AcDbLayerTableRecord
  2
0
 70
0
  6
CONTINUOUS
  0
LAYER
  5
51
100
AcDbSymbolTableRecord
100
AcDbLayerTableRecord
  2
Layer_1
 70
0
  6
CONTINUOUS
  0
ENDTAB
  0
TABLE
  2
STYLE
  5
3
330
0
100
AcDbSymbolTable
 70
     1
  0
STYLE
  5
11
330
3
100
AcDbSymbolTableRecord
100
AcDbTextStyleTableRecord
  2
STANDARD
 70
     0
 40
0.0
 41
1.0
 50
0.0
 71
     0
 42
2.5
  3
txt
  4

  0
ENDTAB
  0
TABLE
  2
VIEW
  5
6
330
0
100
AcDbSymbolTable
 70
     0
  0
ENDTAB
  0
TABLE
  2
UCS
  5
7
330
0
100
AcDbSymbolTable
 70
     0
  0
ENDTAB
  0
TABLE
  2
APPID
  5
9
330
0
100
AcDbSymbolTable
 70
     2
  0
APPID
  5
12
330
9
100
AcDbSymbolTableRecord
100
AcDbRegAppTableRecord
  2
ACAD
 70
     0
  0
ENDTAB
  0
TABLE
  2
DIMSTYLE
  5
A
330
0
100
AcDbSymbolTable
 70
     1
  0
DIMSTYLE
105
27
330
A
100
AcDbSymbolTableRecord
100
AcDbDimStyleTableRecord
  2
ISO-25
 70
     0
  3

  4

  5

  6

  7

 40
1.0
 41
2.5
 42
0.625
 43
3.75
 44
1.25
 45
0.0
 46
0.0
 47
0.0
 48
0.0
140
2.5
141
2.5
142
0.0
143
0.03937007874016
144
1.0
145
0.0
146
1.0
147
0.625
 71
     0
 72
     0
 73
     0
 74
     0
 75
     0
 76
     0
 77
     1
 78
     8
170
     0
171
     3
172
     1
173
     0
174
     0
175
     0
176
     0
177
     0
178
     0
270
     2
271
     2
272
     2
273
     2
274
     3
340
11
275
     0
280
     0
281
     0
282
     0
283
     0
284
     8
285
     0
286
     0
287
     3
288
     0
  0
ENDTAB
  0
TABLE
  2
BLOCK_RECORD
  5
1
330
0
100
AcDbSymbolTable
 70
     1
  0
BLOCK_RECORD
  5
1F
330
1
100
AcDbSymbolTableRecord
100
AcDbBlockTableRecord
  2
*MODEL_SPACE
  0
BLOCK_RECORD
  5
1B
330
1
100
AcDbSymbolTableRecord
100
AcDbBlockTableRecord
  2
*PAPER_SPACE
  0
ENDTAB
  0
ENDSEC
  0
SECTION
  2
BLOCKS
  0
BLOCK
  5
20
330
1F
100
AcDbEntity
  8
0
100
AcDbBlockBegin
  2
*MODEL_SPACE
 70
     0
 10
0.0
 20
0.0
 30
0.0
  3
*MODEL_SPACE
  1

  0
ENDBLK
  5
21
330
1F
100
AcDbEntity
  8
0
100
AcDbBlockEnd
  0
BLOCK
  5
1C
330
1B
100
AcDbEntity
 67
     1
  8
0
100
AcDbBlockBegin
  2
*PAPER_SPACE
  1

  0
ENDBLK
  5
1D
330
1B
100
AcDbEntity
 67
     1
  8
0
100
AcDbBlockEnd
  0
ENDSEC
  0
SECTION
  2
ENTITIES
  0
LWPOLYLINE
  5
100
100
AcDbEntity
  8
Layer_1
 62
7
100
AcDbPolyline
 90
25
 70
1
 10
-413.142856
 20
524.571428
 30
0.0
 10
-405.428576
 20
540.857140
 30
0.0
 10
-401.714288
 20
564.285716
 30
0.0
 10
-410.857144
 20
584.000004
 30
0.0
 10
-355.428568
 20
597.714284
 30
0.0
 10
-344.571432
 20
588.285716
 30
0.0
 10
-332.571432
 20
584.000004
 30
0.0
 10
-316.285712
 20
583.714284
 30
0.0
 10
-275.142856
 20
596.571428
 30
0.0
 10
-280.000000
 20
582.857148
 30
0.0
 10
-275.428568
 20
574.571428
 30
0.0
 10
-273.428568
 20
562.000004
 30
0.0
 10
-286.857144
 20
561.428572
 30
0.0
 10
-292.000000
 20
554.000004
 30
0.0
 10
-293.428568
 20
544.285716
 30
0.0
 10
-303.714288
 20
534.285716
 30
0.0
 10
-321.428568
 20
529.428572
 30
0.0
 10
-335.714288
 20
526.000004
 30
0.0
 10
-348.571432
 20
514.000004
 30
0.0
 10
-352.285712
 20
506.857140
 30
0.0
 10
-368.000000
 20
503.714284
 30
0.0
 10
-368.571432
 20
520.571428
 30
0.0
 10
-382.285712
 20
529.428572
 30
0.0
 10
-403.142856
 20
518.285716
 30
0.0
 10
-413.142856
 20
524.571428
 30
0.0
  0
LWPOLYLINE
  5
101
100
AcDbEntity
  8
Layer_1
 62
7
100
AcDbPolyline
 90
34
 70
1
 10
-368.000000
 20
504.000004
 30
0.0
 10
-376.000000
 20
471.714284
 30
0.0
 10
-388.000000
 20
465.142860
 30
0.0
 10
-364.571432
 20
449.428572
 30
0.0
 10
-328.000000
 20
448.000004
 30
0.0
 10
-310.571432
 20
445.714284
 30
0.0
 10
-301.142856
 20
441.428572
 30
0.0
 10
-262.000000
 20
406.285716
 30
0.0
 10
-251.428568
 20
424.285716
 30
0.0
 10
-257.142856
 20
431.428572
 30
0.0
 10
-256.857144
 20
450.285716
 30
0.0
 10
-248.285712
 20
452.857140
 30
0.0
 10
-246.571432
 20
459.714284
 30
0.0
 10
-253.428568
 20
462.285716
 30
0.0
 10
-251.428568
 20
471.428572
 30
0.0
 10
-241.714288
 20
477.714284
 30
0.0
 10
-217.142856
 20
477.428572
 30
0.0
 10
-211.714288
 20
480.285716
 30
0.0
 10
-210.857144
 20
484.857140
 30
0.0
 10
-232.857144
 20
494.857140
 30
0.0
 10
-243.714288
 20
505.142860
 30
0.0
 10
-242.571432
 20
517.714284
 30
0.0
 10
-261.714288
 20
530.000004
 30
0.0
 10
-266.285712
 20
535.142860
 30
0.0
 10
-267.142856
 20
557.714284
 30
0.0
 10
-272.857144
 20
562.285716
 30
0.0
 10
-287.428568
 20
560.857140
 30
0.0
 10
-291.428568
 20
554.285716
 30
0.0
 10
-293.142856
 20
544.571428
 30
0.0
 10
-303.142856
 20
534.571428
 30
0.0
 10
-336.285712
 20
524.857140
 30
0.0
 10
-348.000000
 20
514.285716
 30
0.0
 10
-352.000000
 20
506.857140
 30
0.0
 10
-368.000000
 20
504.000004
 30
0.0
  0
LWPOLYLINE
  5
102
100
AcDbEntity
  8
Layer_1
 62
7
100
AcDbPolyline
 90
41
 70
1
 10
-262.000000
 20
406.000004
 30
0.0
 10
-231.714288
 20
382.571428
 30
0.0
 10
-204.000000
 20
386.857140
 30
0.0
 10
-193.714288
 20
402.857140
 30
0.0
 10
-182.285712
 20
429.142860
 30
0.0
 10
-174.571432
 20
451.142860
 30
0.0
 10
-145.714288
 20
500.571428
 30
0.0
 10
-137.142856
 20
529.428572
 30
0.0
 10
-137.714288
 20
556.857140
 30
0.0
 10
-133.714288
 20
567.714284
 30
0.0
 10
-139.142856
 20
594.285716
 30
0.0
 10
-145.428568
 20
598.285716
 30
0.0
 10
-154.857144
 20
600.000004
 30
0.0
 10
-163.714288
 20
605.428572
 30
0.0
 10
-172.571432
 20
618.285716
 30
0.0
 10
-187.714288
 20
623.142860
 30
0.0
 10
-194.571432
 20
610.000004
 30
0.0
 10
-218.571432
 20
598.857148
 30
0.0
 10
-240.285712
 20
600.000004
 30
0.0
 10
-260.571432
 20
600.857148
 30
0.0
 10
-274.285712
 20
597.428572
 30
0.0
 10
-280.000000
 20
582.571428
 30
0.0
 10
-275.142856
 20
574.857140
 30
0.0
 10
-272.571432
 20
562.285716
 30
0.0
 10
-266.571432
 20
556.857140
 30
0.0
 10
-265.428568
 20
534.285716
 30
0.0
 10
-242.000000
 20
517.428572
 30
0.0
 10
-244.000000
 20
504.857140
 30
0.0
 10
-232.285712
 20
494.285716
 30
0.0
 10
-210.571432
 20
484.857140
 30
0.0
 10
-211.142856
 20
479.714284
 30
0.0
 10
-216.857144
 20
476.857140
 30
0.0
 10
-242.571432
 20
477.714284
 30
0.0
 10
-251.714288
 20
470.571428
 30
0.0
 10
-252.857144
 20
461.714284
 30
0.0
 10
-246.000000
 20
459.142860
 30
0.0
 10
-248.571432
 20
452.285716
 30
0.0
 10
-256.000000
 20
450.571428
 30
0.0
 10
-256.857144
 20
430.857140
 30
0.0
 10
-250.857144
 20
424.000004
 30
0.0
 10
-262.000000
 20
406.000004
 30
0.0
  0
LWPOLYLINE
  5
103
100
AcDbEntity
  8
Layer_1
 62
7
100
AcDbPolyline
 90
25
 70
1
 10
-204.285712
 20
386.571428
 30
0.0
 10
-184.857144
 20
364.285716
 30
0.0
 10
-121.714288
 20
386.857140
 30
0.0
 10
-40.571429
 20
380.571428
 30
0.0
 10
-51.428571
 20
393.714284
 30
0.0
 10
-48.285714
 20
420.000004
 30
0.0
 10
-58.285714
 20
420.000004
 30
0.0
 10
-54.285714
 20
432.571428
 30
0.0
 10
-55.428571
 20
442.000004
 30
0.0
 10
-64.285714
 20
434.857140
 30
0.0
 10
-82.571432
 20
440.857140
 30
0.0
 10
-88.571432
 20
437.428572
 30
0.0
 10
-86.857144
 20
422.285716
 30
0.0
 10
-92.285712
 20
418.000004
 30
0.0
 10
-102.000000
 20
419.714284
 30
0.0
 10
-104.285712
 20
424.000004
 30
0.0
 10
-110.285712
 20
424.571428
 30
0.0
 10
-119.428568
 20
412.857140
 30
0.0
 10
-129.428568
 20
412.285716
 30
0.0
 10
-138.571432
 20
423.428572
 30
0.0
 10
-168.571432
 20
415.428572
 30
0.0
 10
-173.714288
 20
403.714284
 30
0.0
 10
-180.571432
 20
400.285716
 30
0.0
 10
-193.714288
 20
401.428572
 30
0.0
 10
-204.285712
 20
386.571428
 30
0.0
  0
LWPOLYLINE
  5
104
100
AcDbEntity
  8
Layer_1
 62
7
100
AcDbPolyline
 90
19
 70
1
 10
-57.428571
 20
420.571428
 30
0.0
 10
-47.142858
 20
420.000004
 30
0.0
 10
-43.714286
 20
428.285716
 30
0.0
 10
-47.142858
 20
452.000004
 30
0.0
 10
-42.000000
 20
477.714284
 30
0.0
 10
-34.857143
 20
491.714284
 30
0.0
 10
-37.714286
 20
511.142860
 30
0.0
 10
-69.428571
 20
508.571428
 30
0.0
 10
-88.000000
 20
502.000004
 30
0.0
 10
-109.428568
 20
502.571428
 30
0.0
 10
-128.571432
 20
524.000004
 30
0.0
 10
-137.428568
 20
528.571428
 30
0.0
 10
-146.571432
 20
499.714284
 30
0.0
 10
-114.000000
 20
483.142860
 30
0.0
 10
-100.857144
 20
466.000004
 30
0.0
 10
-87.428568
 20
455.142860
 30
0.0
 10
-54.857143
 20
442.000004
 30
0.0
 10
-54.285714
 20
432.285716
 30
0.0
 10
-57.428571
 20
420.571428
 30
0.0
  0
LWPOLYLINE
  5
105
100
AcDbEntity
  8
Layer_1
 62
7
100
AcDbPolyline
 90
22
 70
1
 10
-55.558390
 20
442.446812
 30
0.0
 10
-64.245702
 20
435.173716
 30
0.0
 10
-82.630480
 20
441.032604
 30
0.0
 10
-88.489360
 20
437.194020
 30
0.0
 10
-86.671088
 20
422.445796
 30
0.0
 10
-92.327944
 20
418.405188
 30
0.0
 10
-101.419312
 20
420.021428
 30
0.0
 10
-104.045712
 20
424.466100
 30
0.0
 10
-110.712720
 20
424.870164
 30
0.0
 10
-119.400032
 20
412.950364
 30
0.0
 10
-129.905616
 20
412.748332
 30
0.0
 10
-138.996992
 20
423.657980
 30
0.0
 10
-168.291416
 20
415.576756
 30
0.0
 10
-173.746240
 20
404.061020
 30
0.0
 10
-181.221368
 20
400.626500
 30
0.0
 10
-193.545224
 20
401.636652
 30
0.0
 10
-174.958424
 20
449.113820
 30
0.0
 10
-146.674152
 20
499.419420
 30
0.0
 10
-113.137088
 20
483.661036
 30
0.0
 10
-101.419312
 20
466.084388
 30
0.0
 10
-87.681240
 20
455.578796
 30
0.0
 10
-55.558390
 20
442.446812
 30
0.0
  0
LWPOLYLINE
  5
106
100
AcDbEntity
  8
Layer_1
 62
7
100
AcDbPolyline
 90
15
 70
1
 10
-137.178712
 20
527.501660
 30
0.0
 10
-127.077192
 20
523.056988
 30
0.0
 10
-109.096472
 20
502.651908
 30
0.0
 10
-85.458904
 20
502.449876
 30
0.0
 10
-68.488342
 20
508.510796
 30
0.0
 10
-36.567522
 20
510.733124
 30
0.0
 10
-8.485282
 20
543.866132
 30
0.0
 10
-13.536044
 20
551.341260
 30
0.0
 10
-60.003062
 20
553.765628
 30
0.0
 10
-76.771594
 20
574.776796
 30
0.0
 10
-94.146216
 20
577.807260
 30
0.0
 10
-113.137088
 20
571.948372
 30
0.0
 10
-133.340136
 20
566.897612
 30
0.0
 10
-137.986840
 20
556.189996
 30
0.0
 10
-137.178712
 20
527.501660
 30
0.0
  0
LWPOLYLINE
  5
107
100
AcDbEntity
  8
Layer_1
 62
7
100
AcDbPolyline
 90
26
 70
1
 10
8.283251
 20
566.291516
 30
0.0
 10
-13.131983
 20
551.341260
 30
0.0
 10
-60.205092
 20
554.775780
 30
0.0
 10
-76.165502
 20
574.372740
 30
0.0
 10
-94.550280
 20
577.605228
 30
0.0
 10
-133.340136
 20
566.695580
 30
0.0
 10
-138.794960
 20
594.171732
 30
0.0
 10
-145.664000
 20
598.616396
 30
0.0
 10
-154.351312
 20
599.626548
 30
0.0
 10
-164.452832
 20
606.091532
 30
0.0
 10
-171.927960
 20
618.415388
 30
0.0
 10
-187.080248
 20
622.455996
 30
0.0
 10
-177.584816
 20
639.426564
 30
0.0
 10
-175.564512
 20
649.528084
 30
0.0
 10
-164.250808
 20
652.558548
 30
0.0
 10
-107.278200
 20
639.426564
 30
0.0
 10
-29.698485
 20
638.820468
 30
0.0
 10
-34.547217
 20
632.759556
 30
0.0
 10
-41.012194
 20
631.547372
 30
0.0
 10
-48.891383
 20
622.658028
 30
0.0
 10
-42.830468
 20
618.617420
 30
0.0
 10
-23.839600
 20
615.788996
 30
0.0
 10
-27.880210
 20
594.373756
 30
0.0
 10
-19.596959
 20
584.070204
 30
0.0
 10
-3.030458
 20
571.342284
 30
0.0
 10
8.283251
 20
566.291516
 30
0.0
  0
LWPOLYLINE
  5
108
100
AcDbEntity
  8
Layer_1
 62
7
100
AcDbPolyline
 90
26
 70
1
 10
-29.092394
 20
639.022500
 30
0.0
 10
18.384776
 20
641.648900
 30
0.0
 10
21.819295
 20
648.921996
 30
0.0
 10
28.082241
 20
643.871236
 30
0.0
 10
32.728942
 20
639.022500
 30
0.0
 10
33.537065
 20
639.830620
 30
0.0
 10
41.214224
 20
629.325036
 30
0.0
 10
63.235550
 20
620.031636
 30
0.0
 10
65.053824
 20
603.263100
 30
0.0
 10
64.447733
 20
599.828580
 30
0.0
 10
60.811183
 20
596.394060
 30
0.0
 10
42.830468
 20
598.616396
 30
0.0
 10
36.971583
 20
595.383908
 30
0.0
 10
31.516759
 20
586.494572
 30
0.0
 10
30.910668
 20
574.776796
 30
0.0
 10
33.941126
 20
566.291516
 30
0.0
 10
9.293403
 20
565.887460
 30
0.0
 10
-4.040610
 20
571.544308
 30
0.0
 10
-20.405082
 20
585.080356
 30
0.0
 10
-27.476150
 20
594.777820
 30
0.0
 10
-23.839600
 20
615.991020
 30
0.0
 10
-43.032498
 20
619.223508
 30
0.0
 10
-48.285292
 20
622.658028
 30
0.0
 10
-39.800010
 20
631.749404
 30
0.0
 10
-33.941126
 20
632.759556
 30
0.0
 10
-29.092394
 20
639.022500
 30
0.0
  0
LWPOLYLINE
  5
109
100
AcDbEntity
  8
Layer_1
 62
7
100
AcDbPolyline
 90
11
 70
1
 10
9.495434
 20
565.685428
 30
0.0
 10
17.576654
 20
538.007244
 30
0.0
 10
34.951278
 20
539.017396
 30
0.0
 10
36.567522
 20
527.501660
 30
0.0
 10
43.436559
 20
525.683388
 30
0.0
 10
56.972604
 20
538.815372
 30
0.0
 10
82.226416
 20
543.260036
 30
0.0
 10
76.973624
 20
559.624508
 30
0.0
 10
75.761441
 20
575.382892
 30
0.0
 10
56.164482
 20
567.705732
 30
0.0
 10
9.495434
 20
565.685428
 30
0.0
  0
LWPOLYLINE
  5
10a
100
AcDbEntity
  8
Layer_1
 62
7
100
AcDbPolyline
 90
29
 70
1
 10
81.822360
 20
542.451916
 30
0.0
 10
93.540128
 20
508.914852
 30
0.0
 10
84.044688
 20
489.115860
 30
0.0
 10
34.143156
 20
469.720932
 30
0.0
 10
33.537065
 20
449.719916
 30
0.0
 10
43.840621
 20
437.598084
 30
0.0
 10
33.537065
 20
407.091476
 30
0.0
 10
33.133003
 20
394.767612
 30
0.0
 10
26.870058
 20
394.161524
 30
0.0
 10
17.576654
 20
385.474212
 30
0.0
 10
5.050763
 20
385.070148
 30
0.0
 10
-12.929953
 20
393.757460
 30
0.0
 10
-40.406102
 20
380.019388
 30
0.0
 10
-51.517780
 20
393.151372
 30
0.0
 10
-48.083262
 20
419.819396
 30
0.0
 10
-43.234529
 20
428.708740
 30
0.0
 10
-47.073109
 20
452.548340
 30
0.0
 10
-42.022346
 20
478.206212
 30
0.0
 10
-34.951278
 20
492.146324
 30
0.0
 10
-37.577674
 20
510.531100
 30
0.0
 10
-8.485282
 20
544.472220
 30
0.0
 10
-12.727922
 20
551.341260
 30
0.0
 10
9.091373
 20
566.695580
 30
0.0
 10
17.980715
 20
538.411308
 30
0.0
 10
34.749247
 20
539.623492
 30
0.0
 10
36.567522
 20
527.905724
 30
0.0
 10
44.244682
 20
525.885412
 30
0.0
 10
56.770573
 20
539.219428
 30
0.0
 10
81.822360
 20
542.451916
 30
0.0
  0
LWPOLYLINE
  5
10b
100
AcDbEntity
  8
Layer_1
 62
7
100
AcDbPolyline
 90
32
 70
1
 10
22.425386
 20
648.719964
 30
0.0
 10
32.728942
 20
639.022500
 30
0.0
 10
34.547217
 20
639.628596
 30
0.0
 10
41.820315
 20
629.527068
 30
0.0
 10
64.043671
 20
619.627572
 30
0.0
 10
64.851794
 20
601.040764
 30
0.0
 10
60.407122
 20
596.192036
 30
0.0
 10
43.234529
 20
599.222492
 30
0.0
 10
36.971583
 20
595.383908
 30
0.0
 10
32.324882
 20
587.706748
 30
0.0
 10
30.910668
 20
574.776796
 30
0.0
 10
33.739095
 20
567.301668
 30
0.0
 10
56.770573
 20
568.109796
 30
0.0
 10
87.277184
 20
580.029596
 30
0.0
 10
108.490384
 20
578.413348
 30
0.0
 10
123.238608
 20
590.939236
 30
0.0
 10
147.886336
 20
592.353452
 30
0.0
 10
161.220344
 20
603.869196
 30
0.0
 10
184.655888
 20
602.859036
 30
0.0
 10
170.715784
 20
624.880364
 30
0.0
 10
161.422376
 20
635.587980
 30
0.0
 10
158.795984
 20
635.385948
 30
0.0
 10
147.280240
 20
657.407276
 30
0.0
 10
149.704608
 20
673.771748
 30
0.0
 10
151.926944
 20
687.913884
 30
0.0
 10
116.167544
 20
688.924036
 30
0.0
 10
92.529976
 20
693.974796
 30
0.0
 10
41.618285
 20
695.995108
 30
0.0
 10
33.941126
 20
690.338252
 30
0.0
 10
30.102546
 20
674.175812
 30
0.0
 10
28.082241
 20
655.386972
 30
0.0
 10
22.425386
 20
648.719964
 30
0.0
  0
LWPOLYLINE
  5
10c
100
AcDbEntity
  8
Layer_1
 62
7
100
AcDbPolyline
 90
29
 70
1
 10
152.128976
 20
688.115916
 30
0.0
 10
166.675168
 20
688.722004
 30
0.0
 10
188.696496
 20
696.803228
 30
0.0
 10
265.872152
 20
734.380900
 30
0.0
 10
279.004136
 20
743.472276
 30
0.0
 10
281.832560
 20
735.795116
 30
0.0
 10
290.923936
 20
725.693588
 30
0.0
 10
315.571656
 20
708.318964
 30
0.0
 10
322.036632
 20
691.550436
 30
0.0
 10
316.379776
 20
673.973780
 30
0.0
 10
319.006176
 20
665.084436
 30
0.0
 10
331.330032
 20
661.245860
 30
0.0
 10
336.178768
 20
648.315908
 30
0.0
 10
330.925976
 20
640.032652
 30
0.0
 10
323.046784
 20
639.224532
 30
0.0
 10
315.975720
 20
642.861084
 30
0.0
 10
306.884344
 20
642.861084
 30
0.0
 10
273.953368
 20
624.072244
 30
0.0
 10
261.427480
 20
565.079332
 30
0.0
 10
253.144232
 20
559.826540
 30
0.0
 10
243.244736
 20
559.422484
 30
0.0
 10
231.324936
 20
569.928068
 30
0.0
 10
224.253864
 20
584.474260
 30
0.0
 10
202.232536
 20
591.545332
 30
0.0
 10
185.464008
 20
602.252948
 30
0.0
 10
162.028472
 20
635.992044
 30
0.0
 10
159.402072
 20
635.385948
 30
0.0
 10
147.482272
 20
658.215396
 30
0.0
 10
152.128976
 20
688.115916
 30
0.0
  0
LWPOLYLINE
  5
10d
100
AcDbEntity
  8
Layer_1
 62
7
100
AcDbPolyline
 90
19
 70
1
 10
93.742160
 20
509.318916
 30
0.0
 10
103.237592
 20
512.551404
 30
0.0
 10
124.854856
 20
527.097596
 30
0.0
 10
136.976688
 20
526.693540
 30
0.0
 10
144.653848
 20
524.067140
 30
0.0
 10
153.745216
 20
522.854956
 30
0.0
 10
164.452832
 20
540.431612
 30
0.0
 10
177.382784
 20
552.553444
 30
0.0
 10
181.625424
 20
553.967660
 30
0.0
 10
181.827456
 20
567.907764
 30
0.0
 10
166.473136
 20
580.433652
 30
0.0
 10
158.998008
 20
581.039748
 30
0.0
 10
147.280240
 20
592.353452
 30
0.0
 10
123.238608
 20
590.535180
 30
0.0
 10
108.490384
 20
578.009284
 30
0.0
 10
87.681240
 20
580.029596
 30
0.0
 10
75.761441
 20
575.180860
 30
0.0
 10
77.377685
 20
560.634660
 30
0.0
 10
93.742160
 20
509.318916
 30
0.0
  0
LWPOLYLINE
  5
10e
100
AcDbEntity
  8
Layer_1
 62
7
100
AcDbPolyline
 90
39
 70
1
 10
160.816288
 20
603.465132
 30
0.0
 10
148.142856
 20
592.571428
 30
0.0
 10
158.714288
 20
581.142860
 30
0.0
 10
167.142856
 20
580.000004
 30
0.0
 10
182.285712
 20
567.857148
 30
0.0
 10
181.428568
 20
554.142860
 30
0.0
 10
177.142856
 20
552.857148
 30
0.0
 10
164.285712
 20
539.857148
 30
0.0
 10
154.000000
 20
523.285716
 30
0.0
 10
143.714288
 20
524.000004
 30
0.0
 10
136.571432
 20
527.285716
 30
0.0
 10
124.571432
 20
527.142860
 30
0.0
 10
102.571432
 20
512.142860
 30
0.0
 10
94.000000
 20
509.142860
 30
0.0
 10
85.000000
 20
489.857148
 30
0.0
 10
92.571432
 20
486.000004
 30
0.0
 10
95.714288
 20
475.857148
 30
0.0
 10
100.142856
 20
471.571428
 30
0.0
 10
109.142856
 20
468.000004
 30
0.0
 10
118.714288
 20
452.428572
 30
0.0
 10
126.571432
 20
449.285716
 30
0.0
 10
136.857144
 20
454.142860
 30
0.0
 10
136.857144
 20
461.000004
 30
0.0
 10
145.142856
 20
469.285716
 30
0.0
 10
178.714288
 20
466.571428
 30
0.0
 10
203.285712
 20
454.428572
 30
0.0
 10
246.571432
 20
451.142860
 30
0.0
 10
264.571432
 20
499.857148
 30
0.0
 10
266.857144
 20
518.714284
 30
0.0
 10
266.714288
 20
531.714284
 30
0.0
 10
262.428568
 20
550.000004
 30
0.0
 10
261.714288
 20
565.428572
 30
0.0
 10
252.571432
 20
559.285716
 30
0.0
 10
243.428568
 20
559.571428
 30
0.0
 10
231.285712
 20
569.714284
 30
0.0
 10
223.714288
 20
585.142860
 30
0.0
 10
203.428568
 20
590.714284
 30
0.0
 10
184.714288
 20
602.571428
 30
0.0
 10
160.816288
 20
603.465132
 30
0.0
  0
LWPOLYLINE
  5
10f
100
AcDbEntity
  8
Layer_1
 62
7
100
AcDbPolyline
 90
30
 70
1
 10
33.571429
 20
395.142860
 30
0.0
 10
67.714286
 20
367.571428
 30
0.0
 10
80.714288
 20
362.285716
 30
0.0
 10
84.142856
 20
357.571428
 30
0.0
 10
60.857143
 20
359.000004
 30
0.0
 10
54.571429
 20
356.571428
 30
0.0
 10
47.571429
 20
346.142860
 30
0.0
 10
45.000000
 20
318.857140
 30
0.0
 10
34.857143
 20
311.428572
 30
0.0
 10
11.285714
 20
312.142860
 30
0.0
 10
-7.714286
 20
301.000004
 30
0.0
 10
-33.142858
 20
281.428572
 30
0.0
 10
-38.285714
 20
278.571428
 30
0.0
 10
-60.857143
 20
278.428572
 30
0.0
 10
-80.428568
 20
284.428572
 30
0.0
 10
-101.571432
 20
285.571428
 30
0.0
 10
-122.857144
 20
274.142860
 30
0.0
 10
-139.285712
 20
271.714284
 30
0.0
 10
-164.285712
 20
273.428572
 30
0.0
 10
-172.142856
 20
297.714284
 30
0.0
 10
-173.285712
 20
321.285716
 30
0.0
 10
-170.571432
 20
350.285716
 30
0.0
 10
-184.428568
 20
364.571428
 30
0.0
 10
-122.285712
 20
386.857140
 30
0.0
 10
-40.714286
 20
380.857140
 30
0.0
 10
-12.714286
 20
394.428572
 30
0.0
 10
4.000000
 20
385.714284
 30
0.0
 10
17.285714
 20
385.571428
 30
0.0
 10
26.857143
 20
394.571428
 30
0.0
 10
33.571429
 20
395.142860
 30
0.0
  0
LWPOLYLINE
  5
110
100
AcDbEntity
  8
Layer_1
 62
7
100
AcDbPolyline
 90
30
 70
1
 10
33.571429
 20
395.000004
 30
0.0
 10
68.285714
 20
367.000004
 30
0.0
 10
81.285712
 20
361.857140
 30
0.0
 10
84.142856
 20
357.571428
 30
0.0
 10
105.142856
 20
354.857140
 30
0.0
 10
122.714288
 20
339.714284
 30
0.0
 10
208.714288
 20
346.142860
 30
0.0
 10
214.857144
 20
349.000004
 30
0.0
 10
232.571432
 20
370.285716
 30
0.0
 10
212.571432
 20
381.285716
 30
0.0
 10
206.000000
 20
400.142860
 30
0.0
 10
231.714288
 20
418.428572
 30
0.0
 10
246.714288
 20
451.142860
 30
0.0
 10
202.714288
 20
454.428572
 30
0.0
 10
178.285712
 20
466.571428
 30
0.0
 10
144.857144
 20
469.571428
 30
0.0
 10
136.857144
 20
461.142860
 30
0.0
 10
137.000000
 20
454.285716
 30
0.0
 10
126.285712
 20
449.000004
 30
0.0
 10
117.857144
 20
453.142860
 30
0.0
 10
109.285712
 20
468.571428
 30
0.0
 10
99.571432
 20
472.000004
 30
0.0
 10
95.571432
 20
476.000004
 30
0.0
 10
92.714288
 20
486.285716
 30
0.0
 10
84.285712
 20
490.285716
 30
0.0
 10
34.285714
 20
469.857148
 30
0.0
 10
34.000000
 20
449.285716
 30
0.0
 10
44.000000
 20
437.285716
 30
0.0
 10
33.428571
 20
407.142860
 30
0.0
 10
33.571429
 20
395.000004
 30
0.0
  0
ENDSEC
  0
SECTION
  2
OBJECTS
  0
DICTIONARY
  5
C
330
0
100
AcDbDictionary
  3
ACAD_GROUP
350
D
  3
ACAD_MLINESTYLE
350
17
  0
DICTIONARY
  5
D
330
C
100
AcDbDictionary
  0
DICTIONARY
  5
1A
330
C
100
AcDbDictionary
  0
DICTIONARY
  5
17
330
C
100
AcDbDictionary
  3
STANDARD
350
18
  0
DICTIONARY
  5
19
330
C
100
AcDbDictionary
  0
ENDSEC
  0
EOF
