  0
SECTION
  2
HEADER
  9
$ACADVER
  1
AC1014
  9
$HANDSEED
  5
FFFF
  9
$MEASUREMENT
 70
     1
  0
ENDSEC
  0
SECTION
  2
TABLES
  0
TABLE
  2
VPORT
  5
8
330
0
100
AcDbSymbolTable
 70
     4
  0
VPORT
  5
2E
330
8
100
AcDbSymbolTableRecord
100
AcDbViewportTableRecord
  2
*ACTIVE
 70
     0
 10
0.0
 20
0.0
 11
1.0
 21
1.0
 12
210.0
 22
148.5
 13
0.0
 23
0.0
 14
10.0
 24
10.0
 15
10.0
 25
10.0
 16
0.0
 26
0.0
 36
1.0
 17
0.0
 27
0.0
 37
0.0
 40
341.0
 41
1.24
 42
50.0
 43
0.0
 44
0.0
 50
0.0
 51
0.0
 71
     0
 72
   100
 73
     1
 74
     3
 75
     0
 76
     0
 77
     0
 78
     0
  0
ENDTAB
  0
TABLE
  2
LTYPE
  5
5
330
0
100
AcDbSymbolTable
 70
     1
  0
LTYPE
  5
14
330
5
100
AcDbSymbolTableRecord
100
AcDbLinetypeTableRecord
  2
BYBLOCK
 70
     0
  3

 72
    65
 73
     0
 40
0.0
  0
LTYPE
  5
15
330
5
100
AcDbSymbolTableRecord
100
AcDbLinetypeTableRecord
  2
BYLAYER
 70
     0
  3

 72
    65
 73
     0
 40
0.0
  0
LTYPE
  5
16
330
5
100
AcDbSymbolTableRecord
100
AcDbLinetypeTableRecord
  2
CONTINUOUS
 70
     0
  3
Solid line
 72
    65
 73
     0
 40
0.0
  0
ENDTAB
  0
TABLE
  2
LAYER
  5
2
100
AcDbSymbolTable
 70
2
  0
LAYER
  5
50
100
AcDbSymbolTableRecord
100
AcDbLayerTableRecord
  2
0
 70
0
  6
CONTINUOUS
  0
LAYER
  5
51
100
AcDbSymbolTableRecord
100
AcDbLayerTableRecord
  2
Layer_1
 70
0
  6
CONTINUOUS
  0
ENDTAB
  0
TABLE
  2
STYLE
  5
3
330
0
100
AcDbSymbolTable
 70
     1
  0
STYLE
  5
11
330
3
100
AcDbSymbolTableRecord
100
AcDbTextStyleTableRecord
  2
STANDARD
 70
     0
 40
0.0
 41
1.0
 50
0.0
 71
     0
 42
2.5
  3
txt
  4

  0
ENDTAB
  0
TABLE
  2
VIEW
  5
6
330
0
100
AcDbSymbolTable
 70
     0
  0
ENDTAB
  0
TABLE
  2
UCS
  5
7
330
0
100
AcDbSymbolTable
 70
     0
  0
ENDTAB
  0
TABLE
  2
APPID
  5
9
330
0
100
AcDbSymbolTable
 70
     2
  0
APPID
  5
12
330
9
100
AcDbSymbolTableRecord
100
AcDbRegAppTableRecord
  2
ACAD
 70
     0
  0
ENDTAB
  0
TABLE
  2
DIMSTYLE
  5
A
330
0
100
AcDbSymbolTable
 70
     1
  0
DIMSTYLE
105
27
330
A
100
AcDbSymbolTableRecord
100
AcDbDimStyleTableRecord
  2
ISO-25
 70
     0
  3

  4

  5

  6

  7

 40
1.0
 41
2.5
 42
0.625
 43
3.75
 44
1.25
 45
0.0
 46
0.0
 47
0.0
 48
0.0
140
2.5
141
2.5
142
0.0
143
0.03937007874016
144
1.0
145
0.0
146
1.0
147
0.625
 71
     0
 72
     0
 73
     0
 74
     0
 75
     0
 76
     0
 77
     1
 78
     8
170
     0
171
     3
172
     1
173
     0
174
     0
175
     0
176
     0
177
     0
178
     0
270
     2
271
     2
272
     2
273
     2
274
     3
340
11
275
     0
280
     0
281
     0
282
     0
283
     0
284
     8
285
     0
286
     0
287
     3
288
     0
  0
ENDTAB
  0
TABLE
  2
BLOCK_RECORD
  5
1
330
0
100
AcDbSymbolTable
 70
     1
  0
BLOCK_RECORD
  5
1F
330
1
100
AcDbSymbolTableRecord
100
AcDbBlockTableRecord
  2
*MODEL_SPACE
  0
BLOCK_RECORD
  5
1B
330
1
100
AcDbSymbolTableRecord
100
AcDbBlockTableRecord
  2
*PAPER_SPACE
  0
ENDTAB
  0
ENDSEC
  0
SECTION
  2
BLOCKS
  0
BLOCK
  5
20
330
1F
100
AcDbEntity
  8
0
100
AcDbBlockBegin
  2
*MODEL_SPACE
 70
     0
 10
0.0
 20
0.0
 30
0.0
  3
*MODEL_SPACE
  1

  0
ENDBLK
  5
21
330
1F
100
AcDbEntity
  8
0
100
AcDbBlockEnd
  0
BLOCK
  5
1C
330
1B
100
AcDbEntity
 67
     1
  8
0
100
AcDbBlockBegin
  2
*PAPER_SPACE
  1

  0
ENDBLK
  5
1D
330
1B
100
AcDbEntity
 67
     1
  8
0
100
AcDbBlockEnd
  0
ENDSEC
  0
SECTION
  2
ENTITIES
  0
LWPOLYLINE
  5
100
100
AcDbEntity
  8
Layer_1
 62
7
100
AcDbPolyline
 90
46
 70
1
 10
94.857144
 20
668.000004
 30
0.0
 10
87.714288
 20
657.714284
 30
0.0
 10
63.714286
 20
641.428572
 30
0.0
 10
64.285714
 20
632.857148
 30
0.0
 10
73.142858
 20
622.857148
 30
0.0
 10
72.857143
 20
606.000004
 30
0.0
 10
68.857143
 20
592.571428
 30
0.0
 10
63.714286
 20
581.142860
 30
0.0
 10
60.285714
 20
576.000004
 30
0.0
 10
42.285714
 20
565.142860
 30
0.0
 10
34.000000
 20
556.857140
 30
0.0
 10
29.142857
 20
544.857140
 30
0.0
 10
46.000000
 20
539.428572
 30
0.0
 10
48.571429
 20
529.142860
 30
0.0
 10
57.714286
 20
525.714284
 30
0.0
 10
62.857143
 20
526.285716
 30
0.0
 10
68.857143
 20
519.142860
 30
0.0
 10
74.857143
 20
517.428572
 30
0.0
 10
84.857144
 20
534.285716
 30
0.0
 10
81.428568
 20
539.428572
 30
0.0
 10
81.142856
 20
545.428572
 30
0.0
 10
84.857144
 20
549.428572
 30
0.0
 10
91.142856
 20
548.857140
 30
0.0
 10
97.428568
 20
544.571428
 30
0.0
 10
105.428568
 20
546.571428
 30
0.0
 10
117.428568
 20
556.000004
 30
0.0
 10
120.571432
 20
560.857140
 30
0.0
 10
119.142856
 20
567.142860
 30
0.0
 10
112.571432
 20
579.142860
 30
0.0
 10
112.571432
 20
588.571428
 30
0.0
 10
118.857144
 20
594.285716
 30
0.0
 10
137.714288
 20
584.285716
 30
0.0
 10
138.857144
 20
586.571428
 30
0.0
 10
142.857144
 20
581.142860
 30
0.0
 10
169.142856
 20
566.285716
 30
0.0
 10
179.714288
 20
579.714284
 30
0.0
 10
185.142856
 20
596.857148
 30
0.0
 10
190.285712
 20
612.000004
 30
0.0
 10
208.285712
 20
629.428572
 30
0.0
 10
199.714288
 20
631.428572
 30
0.0
 10
185.142856
 20
646.285716
 30
0.0
 10
159.428568
 20
650.857148
 30
0.0
 10
152.000000
 20
654.571428
 30
0.0
 10
144.000000
 20
661.142860
 30
0.0
 10
142.857144
 20
668.000004
 30
0.0
 10
94.857144
 20
668.000004
 30
0.0
  0
LWPOLYLINE
  5
101
100
AcDbEntity
  8
Layer_1
 62
7
100
AcDbPolyline
 90
22
 70
1
 10
63.714286
 20
641.142860
 30
0.0
 10
50.285714
 20
652.000004
 30
0.0
 10
36.000000
 20
651.714284
 30
0.0
 10
25.142857
 20
639.714284
 30
0.0
 10
8.857143
 20
639.142860
 30
0.0
 10
7.142857
 20
635.142860
 30
0.0
 10
12.285714
 20
618.857148
 30
0.0
 10
4.571429
 20
604.857148
 30
0.0
 10
-8.000000
 20
596.571428
 30
0.0
 10
-28.000000
 20
560.000004
 30
0.0
 10
-19.428571
 20
555.428572
 30
0.0
 10
-1.714286
 20
555.142860
 30
0.0
 10
8.285714
 20
570.571428
 30
0.0
 10
11.142857
 20
576.571428
 30
0.0
 10
20.000000
 20
585.428572
 30
0.0
 10
32.285714
 20
594.285716
 30
0.0
 10
33.142857
 20
600.571428
 30
0.0
 10
52.571429
 20
608.285716
 30
0.0
 10
62.285714
 20
626.285716
 30
0.0
 10
68.571429
 20
627.428572
 30
0.0
 10
64.285714
 20
632.857148
 30
0.0
 10
63.714286
 20
641.142860
 30
0.0
  0
LWPOLYLINE
  5
102
100
AcDbEntity
  8
Layer_1
 62
7
100
AcDbPolyline
 90
47
 70
1
 10
-28.285714
 20
561.142860
 30
0.0
 10
-39.428571
 20
550.857140
 30
0.0
 10
-56.571429
 20
550.857140
 30
0.0
 10
-67.142858
 20
538.285716
 30
0.0
 10
-87.142856
 20
539.714284
 30
0.0
 10
-90.571432
 20
541.428572
 30
0.0
 10
-110.285712
 20
534.000004
 30
0.0
 10
-107.714288
 20
510.000004
 30
0.0
 10
-98.571432
 20
503.428572
 30
0.0
 10
-80.571432
 20
501.714284
 30
0.0
 10
-70.857143
 20
493.714284
 30
0.0
 10
-58.000000
 20
487.428572
 30
0.0
 10
-47.714286
 20
462.285716
 30
0.0
 10
-60.857143
 20
460.285716
 30
0.0
 10
-58.857143
 20
452.285716
 30
0.0
 10
-22.285714
 20
436.000004
 30
0.0
 10
-10.000000
 20
445.714284
 30
0.0
 10
-0.571429
 20
445.428572
 30
0.0
 10
16.571429
 20
421.714284
 30
0.0
 10
30.000000
 20
416.000004
 30
0.0
 10
40.857143
 20
423.714284
 30
0.0
 10
50.000000
 20
423.428572
 30
0.0
 10
58.285714
 20
418.571428
 30
0.0
 10
67.428571
 20
422.000004
 30
0.0
 10
71.428571
 20
472.571428
 30
0.0
 10
84.571432
 20
500.571428
 30
0.0
 10
88.571432
 20
516.285716
 30
0.0
 10
89.428568
 20
529.714284
 30
0.0
 10
97.142856
 20
545.428572
 30
0.0
 10
90.285712
 20
549.428572
 30
0.0
 10
84.857144
 20
549.142860
 30
0.0
 10
81.142856
 20
545.142860
 30
0.0
 10
81.714288
 20
538.857140
 30
0.0
 10
85.142856
 20
533.714284
 30
0.0
 10
75.142858
 20
518.000004
 30
0.0
 10
68.857143
 20
519.142860
 30
0.0
 10
63.428571
 20
526.000004
 30
0.0
 10
58.285714
 20
525.142860
 30
0.0
 10
48.000000
 20
528.857140
 30
0.0
 10
46.285714
 20
540.571428
 30
0.0
 10
29.428571
 20
545.428572
 30
0.0
 10
23.428571
 20
536.857140
 30
0.0
 10
16.285714
 20
534.285716
 30
0.0
 10
7.428571
 20
539.428572
 30
0.0
 10
-2.000000
 20
556.000004
 30
0.0
 10
-19.428571
 20
556.000004
 30
0.0
 10
-28.285714
 20
561.142860
 30
0.0
  0
LWPOLYLINE
  5
103
100
AcDbEntity
  8
Layer_1
 62
7
100
AcDbPolyline
 90
21
 70
1
 10
23.285714
 20
537.142860
 30
0.0
 10
29.571429
 20
545.142860
 30
0.0
 10
33.857143
 20
556.857148
 30
0.0
 10
42.142858
 20
565.428572
 30
0.0
 10
59.857143
 20
575.285716
 30
0.0
 10
64.857143
 20
582.428572
 30
0.0
 10
69.857143
 20
595.142860
 30
0.0
 10
72.857143
 20
606.000004
 30
0.0
 10
73.142858
 20
623.000004
 30
0.0
 10
68.428571
 20
628.000004
 30
0.0
 10
62.142858
 20
626.428572
 30
0.0
 10
52.857143
 20
608.857148
 30
0.0
 10
33.142858
 20
600.857148
 30
0.0
 10
32.142858
 20
594.285716
 30
0.0
 10
21.285714
 20
586.571428
 30
0.0
 10
10.714286
 20
576.714284
 30
0.0
 10
8.285714
 20
570.571428
 30
0.0
 10
-2.000000
 20
555.571428
 30
0.0
 10
6.857143
 20
539.571428
 30
0.0
 10
16.428571
 20
534.142860
 30
0.0
 10
23.285714
 20
537.142860
 30
0.0
  0
LWPOLYLINE
  5
104
100
AcDbEntity
  8
Layer_1
 62
7
100
AcDbPolyline
 90
24
 70
1
 10
67.285714
 20
422.000004
 30
0.0
 10
96.571432
 20
417.714284
 30
0.0
 10
109.000000
 20
445.000004
 30
0.0
 10
115.428568
 20
462.714284
 30
0.0
 10
171.285712
 20
511.857148
 30
0.0
 10
169.142856
 20
517.428572
 30
0.0
 10
175.714288
 20
553.714284
 30
0.0
 10
169.142856
 20
566.857148
 30
0.0
 10
142.142856
 20
581.714284
 30
0.0
 10
138.857144
 20
587.000004
 30
0.0
 10
137.857144
 20
584.000004
 30
0.0
 10
118.714288
 20
594.571428
 30
0.0
 10
112.857144
 20
589.000004
 30
0.0
 10
112.714288
 20
578.857148
 30
0.0
 10
118.857144
 20
567.428572
 30
0.0
 10
120.571432
 20
561.142860
 30
0.0
 10
117.285712
 20
556.571428
 30
0.0
 10
105.285712
 20
546.714284
 30
0.0
 10
97.000000
 20
544.714284
 30
0.0
 10
89.714288
 20
530.142860
 30
0.0
 10
88.428568
 20
516.142860
 30
0.0
 10
84.285712
 20
501.142860
 30
0.0
 10
71.857143
 20
473.714284
 30
0.0
 10
67.285714
 20
422.000004
 30
0.0
  0
LWPOLYLINE
  5
105
100
AcDbEntity
  8
Layer_1
 62
7
100
AcDbPolyline
 90
12
 70
1
 10
96.142856
 20
417.714284
 30
0.0
 10
109.428568
 20
402.857140
 30
0.0
 10
143.428568
 20
425.000004
 30
0.0
 10
166.571432
 20
438.000004
 30
0.0
 10
185.142856
 20
465.000004
 30
0.0
 10
202.428568
 20
473.714284
 30
0.0
 10
194.857144
 20
489.000004
 30
0.0
 10
194.142856
 20
506.571428
 30
0.0
 10
182.142856
 20
506.428572
 30
0.0
 10
171.285712
 20
511.714284
 30
0.0
 10
115.142856
 20
462.571428
 30
0.0
 10
96.142856
 20
417.714284
 30
0.0
  0
LWPOLYLINE
  5
106
100
AcDbEntity
  8
Layer_1
 62
7
100
AcDbPolyline
 90
16
 70
1
 10
109.428568
 20
403.000004
 30
0.0
 10
117.000000
 20
393.142860
 30
0.0
 10
122.285712
 20
372.571428
 30
0.0
 10
156.285712
 20
347.714284
 30
0.0
 10
212.428568
 20
332.000004
 30
0.0
 10
214.285712
 20
361.142860
 30
0.0
 10
225.857144
 20
382.428572
 30
0.0
 10
223.714288
 20
404.428572
 30
0.0
 10
236.142856
 20
431.142860
 30
0.0
 10
206.857144
 20
431.142860
 30
0.0
 10
191.285712
 20
437.285716
 30
0.0
 10
180.000000
 20
446.428572
 30
0.0
 10
172.571432
 20
447.428572
 30
0.0
 10
166.142856
 20
437.857148
 30
0.0
 10
140.428568
 20
423.571428
 30
0.0
 10
109.428568
 20
403.000004
 30
0.0
  0
LWPOLYLINE
  5
107
100
AcDbEntity
  8
Layer_1
 62
7
100
AcDbPolyline
 90
44
 70
1
 10
212.428568
 20
332.000004
 30
0.0
 10
236.714288
 20
325.428572
 30
0.0
 10
284.000000
 20
321.000004
 30
0.0
 10
287.000000
 20
316.571428
 30
0.0
 10
261.285712
 20
289.428572
 30
0.0
 10
265.571432
 20
243.714284
 30
0.0
 10
307.428576
 20
206.714284
 30
0.0
 10
319.857144
 20
203.857140
 30
0.0
 10
332.285712
 20
208.714284
 30
0.0
 10
334.428576
 20
215.714284
 30
0.0
 10
336.714288
 20
242.000004
 30
0.0
 10
343.285712
 20
245.571428
 30
0.0
 10
378.285712
 20
213.714284
 30
0.0
 10
417.000000
 20
232.571428
 30
0.0
 10
417.285712
 20
304.285716
 30
0.0
 10
442.000000
 20
294.285716
 30
0.0
 10
458.000000
 20
306.000004
 30
0.0
 10
489.571432
 20
304.428572
 30
0.0
 10
501.714288
 20
310.000004
 30
0.0
 10
519.714288
 20
337.285716
 30
0.0
 10
522.857144
 20
351.857140
 30
0.0
 10
509.714288
 20
357.857140
 30
0.0
 10
496.571432
 20
354.000004
 30
0.0
 10
457.714288
 20
357.142860
 30
0.0
 10
439.714288
 20
347.714284
 30
0.0
 10
414.000000
 20
347.857140
 30
0.0
 10
402.142856
 20
360.571428
 30
0.0
 10
392.857144
 20
381.714284
 30
0.0
 10
406.857144
 20
392.000004
 30
0.0
 10
410.714288
 20
399.000004
 30
0.0
 10
410.857144
 20
413.142860
 30
0.0
 10
384.000000
 20
440.571428
 30
0.0
 10
376.571432
 20
440.000004
 30
0.0
 10
359.714288
 20
431.571428
 30
0.0
 10
341.714288
 20
410.857140
 30
0.0
 10
335.857144
 20
401.428572
 30
0.0
 10
301.571432
 20
385.428572
 30
0.0
 10
293.285712
 20
378.571428
 30
0.0
 10
292.142856
 20
350.000004
 30
0.0
 10
286.857144
 20
349.428572
 30
0.0
 10
250.142856
 20
357.571428
 30
0.0
 10
225.571432
 20
382.000004
 30
0.0
 10
214.142856
 20
361.714284
 30
0.0
 10
212.428568
 20
332.000004
 30
0.0
  0
LWPOLYLINE
  5
108
100
AcDbEntity
  8
Layer_1
 62
7
100
AcDbPolyline
 90
18
 70
1
 10
236.428568
 20
431.142860
 30
0.0
 10
223.714288
 20
404.714284
 30
0.0
 10
226.000000
 20
381.714284
 30
0.0
 10
250.428568
 20
357.714284
 30
0.0
 10
287.142856
 20
349.571428
 30
0.0
 10
292.285712
 20
350.000004
 30
0.0
 10
293.428576
 20
379.000004
 30
0.0
 10
301.714288
 20
385.285716
 30
0.0
 10
336.142856
 20
401.285716
 30
0.0
 10
343.000000
 20
412.285716
 30
0.0
 10
359.714288
 20
431.428572
 30
0.0
 10
352.428576
 20
441.857148
 30
0.0
 10
342.000000
 20
442.000004
 30
0.0
 10
327.428576
 20
446.000004
 30
0.0
 10
310.428576
 20
455.000004
 30
0.0
 10
263.714288
 20
459.428572
 30
0.0
 10
241.000000
 20
447.428572
 30
0.0
 10
236.428568
 20
431.142860
 30
0.0
  0
LWPOLYLINE
  5
109
100
AcDbEntity
  8
Layer_1
 62
7
100
AcDbPolyline
 90
11
 70
1
 10
236.285712
 20
431.000004
 30
0.0
 10
239.714288
 20
444.000004
 30
0.0
 10
237.571432
 20
452.000004
 30
0.0
 10
214.714288
 20
478.714284
 30
0.0
 10
185.714288
 20
465.714284
 30
0.0
 10
173.142856
 20
448.000004
 30
0.0
 10
175.285712
 20
447.285716
 30
0.0
 10
180.857144
 20
446.428572
 30
0.0
 10
191.571432
 20
436.857140
 30
0.0
 10
207.000000
 20
431.285716
 30
0.0
 10
236.285712
 20
431.000004
 30
0.0
  0
LWPOLYLINE
  5
10a
100
AcDbEntity
  8
Layer_1
 62
7
100
AcDbPolyline
 90
15
 70
1
 10
215.142856
 20
478.571428
 30
0.0
 10
218.714288
 20
488.857148
 30
0.0
 10
226.142856
 20
497.714284
 30
0.0
 10
225.571432
 20
508.714284
 30
0.0
 10
230.714288
 20
510.000004
 30
0.0
 10
229.000000
 20
523.428572
 30
0.0
 10
221.857144
 20
539.285716
 30
0.0
 10
213.857144
 20
549.142860
 30
0.0
 10
203.714288
 20
538.857148
 30
0.0
 10
198.285712
 20
526.714284
 30
0.0
 10
198.571432
 20
511.142860
 30
0.0
 10
194.285712
 20
506.428572
 30
0.0
 10
195.000000
 20
488.714284
 30
0.0
 10
202.428568
 20
473.714284
 30
0.0
 10
215.142856
 20
478.571428
 30
0.0
  0
LWPOLYLINE
  5
10b
100
AcDbEntity
  8
Layer_1
 62
7
100
AcDbPolyline
 90
14
 70
1
 10
214.285712
 20
548.714284
 30
0.0
 10
221.000000
 20
559.000004
 30
0.0
 10
229.285712
 20
562.285716
 30
0.0
 10
241.714288
 20
558.428572
 30
0.0
 10
255.000000
 20
547.571428
 30
0.0
 10
260.857144
 20
546.285716
 30
0.0
 10
279.285712
 20
536.285716
 30
0.0
 10
252.857144
 20
500.714284
 30
0.0
 10
249.142856
 20
501.285716
 30
0.0
 10
230.857144
 20
508.571428
 30
0.0
 10
230.857144
 20
511.000004
 30
0.0
 10
229.142856
 20
523.428572
 30
0.0
 10
222.428568
 20
539.428572
 30
0.0
 10
214.285712
 20
548.714284
 30
0.0
  0
LWPOLYLINE
  5
10c
100
AcDbEntity
  8
Layer_1
 62
7
100
AcDbPolyline
 90
37
 70
1
 10
300.000000
 20
527.714284
 30
0.0
 10
295.000000
 20
527.857148
 30
0.0
 10
260.285712
 20
547.000004
 30
0.0
 10
255.142856
 20
547.285716
 30
0.0
 10
241.428568
 20
558.428572
 30
0.0
 10
229.285712
 20
562.000004
 30
0.0
 10
220.428568
 20
558.571428
 30
0.0
 10
214.428568
 20
548.285716
 30
0.0
 10
204.000000
 20
539.285716
 30
0.0
 10
198.285712
 20
527.142860
 30
0.0
 10
198.857144
 20
510.714284
 30
0.0
 10
194.285712
 20
506.428572
 30
0.0
 10
182.000000
 20
506.142860
 30
0.0
 10
171.142856
 20
511.428572
 30
0.0
 10
168.857144
 20
517.142860
 30
0.0
 10
175.142856
 20
554.285716
 30
0.0
 10
169.571432
 20
566.714284
 30
0.0
 10
180.142856
 20
579.857148
 30
0.0
 10
190.142856
 20
612.142860
 30
0.0
 10
208.571432
 20
629.857148
 30
0.0
 10
221.142856
 20
623.571428
 30
0.0
 10
229.714288
 20
606.428572
 30
0.0
 10
237.000000
 20
601.571428
 30
0.0
 10
255.571432
 20
599.142860
 30
0.0
 10
271.000000
 20
605.571428
 30
0.0
 10
278.428576
 20
611.857148
 30
0.0
 10
281.857144
 20
618.000004
 30
0.0
 10
283.714288
 20
615.285716
 30
0.0
 10
281.857144
 20
597.714284
 30
0.0
 10
290.000000
 20
590.571428
 30
0.0
 10
296.857144
 20
588.285716
 30
0.0
 10
297.714288
 20
578.000004
 30
0.0
 10
299.857144
 20
562.714284
 30
0.0
 10
307.285712
 20
551.000004
 30
0.0
 10
308.714288
 20
537.571428
 30
0.0
 10
304.857144
 20
529.714284
 30
0.0
 10
300.000000
 20
527.714284
 30
0.0
  0
LWPOLYLINE
  5
10d
100
AcDbEntity
  8
Layer_1
 62
7
100
AcDbPolyline
 90
21
 70
1
 10
310.285712
 20
455.142860
 30
0.0
 10
263.714288
 20
459.571428
 30
0.0
 10
242.000000
 20
447.714284
 30
0.0
 10
240.000000
 20
444.714284
 30
0.0
 10
237.714288
 20
451.285716
 30
0.0
 10
214.857144
 20
478.142860
 30
0.0
 10
218.857144
 20
489.142860
 30
0.0
 10
225.714288
 20
498.285716
 30
0.0
 10
225.428568
 20
509.000004
 30
0.0
 10
231.714288
 20
510.142860
 30
0.0
 10
231.714288
 20
508.428572
 30
0.0
 10
249.428568
 20
501.285716
 30
0.0
 10
253.142856
 20
501.285716
 30
0.0
 10
279.714288
 20
537.000004
 30
0.0
 10
294.857144
 20
528.285716
 30
0.0
 10
300.428576
 20
527.857148
 30
0.0
 10
288.285712
 20
500.142860
 30
0.0
 10
288.142856
 20
491.142860
 30
0.0
 10
291.428576
 20
479.428572
 30
0.0
 10
312.000000
 20
462.428572
 30
0.0
 10
310.285712
 20
455.142860
 30
0.0
  0
LWPOLYLINE
  5
10e
100
AcDbEntity
  8
Layer_1
 62
7
100
AcDbPolyline
 90
25
 70
1
 10
308.857144
 20
538.142860
 30
0.0
 10
305.142856
 20
529.714284
 30
0.0
 10
299.428576
 20
527.714284
 30
0.0
 10
288.285712
 20
500.285716
 30
0.0
 10
287.857144
 20
490.857148
 30
0.0
 10
291.571432
 20
479.000004
 30
0.0
 10
312.142856
 20
462.142860
 30
0.0
 10
310.142856
 20
454.571428
 30
0.0
 10
327.571432
 20
445.857148
 30
0.0
 10
341.428576
 20
442.000004
 30
0.0
 10
352.428576
 20
442.000004
 30
0.0
 10
359.857144
 20
431.142860
 30
0.0
 10
376.571432
 20
440.000004
 30
0.0
 10
385.000000
 20
440.571428
 30
0.0
 10
384.714288
 20
463.428572
 30
0.0
 10
382.571432
 20
471.142860
 30
0.0
 10
375.857144
 20
478.428572
 30
0.0
 10
370.714288
 20
491.571428
 30
0.0
 10
372.285712
 20
506.142860
 30
0.0
 10
380.000000
 20
509.428572
 30
0.0
 10
379.857144
 20
515.000004
 30
0.0
 10
376.000000
 20
518.142860
 30
0.0
 10
373.857144
 20
525.142860
 30
0.0
 10
357.571432
 20
540.142860
 30
0.0
 10
308.857144
 20
538.142860
 30
0.0
  0
LWPOLYLINE
  5
10f
100
AcDbEntity
  8
Layer_1
 62
7
100
AcDbPolyline
 90
29
 70
1
 10
457.857144
 20
356.857140
 30
0.0
 10
440.142856
 20
347.285716
 30
0.0
 10
414.428576
 20
347.857140
 30
0.0
 10
402.714288
 20
359.857140
 30
0.0
 10
393.428576
 20
381.428572
 30
0.0
 10
407.285712
 20
392.142860
 30
0.0
 10
410.714288
 20
399.000004
 30
0.0
 10
410.857144
 20
413.142860
 30
0.0
 10
385.000000
 20
439.714284
 30
0.0
 10
385.000000
 20
463.857148
 30
0.0
 10
383.000000
 20
470.857148
 30
0.0
 10
376.142856
 20
477.571428
 30
0.0
 10
370.428576
 20
491.428572
 30
0.0
 10
372.000000
 20
506.285716
 30
0.0
 10
398.142856
 20
514.857148
 30
0.0
 10
413.857144
 20
515.142860
 30
0.0
 10
421.857144
 20
502.714284
 30
0.0
 10
411.714288
 20
491.142860
 30
0.0
 10
408.142856
 20
484.714284
 30
0.0
 10
410.428576
 20
478.714284
 30
0.0
 10
433.571432
 20
476.428572
 30
0.0
 10
442.714288
 20
466.285716
 30
0.0
 10
435.857144
 20
457.285716
 30
0.0
 10
422.714288
 20
429.142860
 30
0.0
 10
423.428576
 20
421.285716
 30
0.0
 10
432.000000
 20
414.142860
 30
0.0
 10
455.571432
 20
410.714284
 30
0.0
 10
460.571432
 20
403.714284
 30
0.0
 10
457.857144
 20
356.857140
 30
0.0
  0
LWPOLYLINE
  5
110
100
AcDbEntity
  8
Layer_1
 62
7
100
AcDbPolyline
 90
31
 70
1
 10
443.052904
 20
465.276260
 30
0.0
 10
433.961536
 20
476.185908
 30
0.0
 10
410.728024
 20
478.812308
 30
0.0
 10
408.505688
 20
484.267132
 30
0.0
 10
411.536144
 20
492.146324
 30
0.0
 10
421.233608
 20
503.460028
 30
0.0
 10
413.556456
 20
514.975772
 30
0.0
 10
396.989952
 20
514.571708
 30
0.0
 10
379.615328
 20
508.914852
 30
0.0
 10
379.211264
 20
515.177796
 30
0.0
 10
376.786896
 20
517.400132
 30
0.0
 10
373.352384
 20
525.885412
 30
0.0
 10
357.796032
 20
540.027548
 30
0.0
 10
308.298560
 20
538.007244
 30
0.0
 10
307.086376
 20
551.543292
 30
0.0
 10
318.804144
 20
573.564620
 30
0.0
 10
370.523952
 20
584.070204
 30
0.0
 10
375.978776
 20
597.202188
 30
0.0
 10
387.898576
 20
593.565636
 30
0.0
 10
391.535128
 20
584.070204
 30
0.0
 10
392.343248
 20
574.170708
 30
0.0
 10
416.990968
 20
574.574772
 30
0.0
 10
427.900616
 20
571.948372
 30
0.0
 10
439.012296
 20
571.544308
 30
0.0
 10
439.618392
 20
564.877308
 30
0.0
 10
455.982856
 20
553.361564
 30
0.0
 10
468.104688
 20
529.723996
 30
0.0
 10
444.467120
 20
503.055972
 30
0.0
 10
443.861032
 20
487.701652
 30
0.0
 10
448.305704
 20
479.014340
 30
0.0
 10
443.052904
 20
465.276260
 30
0.0
  0
LWPOLYLINE
  5
111
100
AcDbEntity
  8
Layer_1
 62
7
100
AcDbPolyline
 90
10
 70
1
 10
468.306720
 20
528.915876
 30
0.0
 10
472.549360
 20
536.391004
 30
0.0
 10
473.357480
 20
545.684404
 30
0.0
 10
481.842768
 20
546.896588
 30
0.0
 10
493.964592
 20
556.594052
 30
0.0
 10
490.328048
 20
560.028572
 30
0.0
 10
439.012296
 20
572.554460
 30
0.0
 10
440.426512
 20
564.473244
 30
0.0
 10
456.993008
 20
552.351412
 30
0.0
 10
468.306720
 20
528.915876
 30
0.0
  0
LWPOLYLINE
  5
112
100
AcDbEntity
  8
Layer_1
 62
7
100
AcDbPolyline
 90
21
 70
1
 10
281.428496
 20
618.213356
 30
0.0
 10
284.458960
 20
614.172748
 30
0.0
 10
281.630528
 20
597.606244
 30
0.0
 10
289.509720
 20
590.737212
 30
0.0
 10
297.186880
 20
588.312844
 30
0.0
 10
299.813272
 20
562.452940
 30
0.0
 10
306.884344
 20
551.543292
 30
0.0
 10
319.410232
 20
573.160556
 30
0.0
 10
369.917864
 20
583.262084
 30
0.0
 10
375.776744
 20
597.000156
 30
0.0
 10
363.048824
 20
600.434676
 30
0.0
 10
348.502632
 20
624.678332
 30
0.0
 10
355.169632
 20
645.689508
 30
0.0
 10
353.553392
 20
648.921996
 30
0.0
 10
346.684352
 20
650.942300
 30
0.0
 10
319.814296
 20
650.336212
 30
0.0
 10
312.137136
 20
659.225556
 30
0.0
 10
302.035608
 20
653.770732
 30
0.0
 10
299.813272
 20
645.689508
 30
0.0
 10
295.974696
 20
641.850932
 30
0.0
 10
281.428496
 20
618.213356
 30
0.0
  0
ENDSEC
  0
SECTION
  2
OBJECTS
  0
DICTIONARY
  5
C
330
0
100
AcDbDictionary
  3
ACAD_GROUP
350
D
  3
ACAD_MLINESTYLE
350
17
  0
DICTIONARY
  5
D
330
C
100
AcDbDictionary
  0
DICTIONARY
  5
1A
330
C
100
AcDbDictionary
  0
DICTIONARY
  5
17
330
C
100
AcDbDictionary
  3
STANDARD
350
18
  0
DICTIONARY
  5
19
330
C
100
AcDbDictionary
  0
ENDSEC
  0
EOF
