  0
SECTION
  2
HEADER
  9
$ACADVER
  1
AC1014
  9
$HANDSEED
  5
FFFF
  9
$MEASUREMENT
 70
     1
  0
ENDSEC
  0
SECTION
  2
TABLES
  0
TABLE
  2
VPORT
  5
8
330
0
100
AcDbSymbolTable
 70
     4
  0
VPORT
  5
2E
330
8
100
AcDbSymbolTableRecord
100
AcDbViewportTableRecord
  2
*ACTIVE
 70
     0
 10
0.0
 20
0.0
 11
1.0
 21
1.0
 12
210.0
 22
148.5
 13
0.0
 23
0.0
 14
10.0
 24
10.0
 15
10.0
 25
10.0
 16
0.0
 26
0.0
 36
1.0
 17
0.0
 27
0.0
 37
0.0
 40
341.0
 41
1.24
 42
50.0
 43
0.0
 44
0.0
 50
0.0
 51
0.0
 71
     0
 72
   100
 73
     1
 74
     3
 75
     0
 76
     0
 77
     0
 78
     0
  0
ENDTAB
  0
TABLE
  2
LTYPE
  5
5
330
0
100
AcDbSymbolTable
 70
     1
  0
LTYPE
  5
14
330
5
100
AcDbSymbolTableRecord
100
AcDbLinetypeTableRecord
  2
BYBLOCK
 70
     0
  3

 72
    65
 73
     0
 40
0.0
  0
LTYPE
  5
15
330
5
100
AcDbSymbolTableRecord
100
AcDbLinetypeTableRecord
  2
BYLAYER
 70
     0
  3

 72
    65
 73
     0
 40
0.0
  0
LTYPE
  5
16
330
5
100
AcDbSymbolTableRecord
100
AcDbLinetypeTableRecord
  2
CONTINUOUS
 70
     0
  3
Solid line
 72
    65
 73
     0
 40
0.0
  0
ENDTAB
  0
TABLE
  2
LAYER
  5
2
100
AcDbSymbolTable
 70
2
  0
LAYER
  5
50
100
AcDbSymbolTableRecord
100
AcDbLayerTableRecord
  2
0
 70
0
  6
CONTINUOUS
  0
LAYER
  5
51
100
AcDbSymbolTableRecord
100
AcDbLayerTableRecord
  2
Layer_1
 70
0
  6
CONTINUOUS
  0
ENDTAB
  0
TABLE
  2
STYLE
  5
3
330
0
100
AcDbSymbolTable
 70
     1
  0
STYLE
  5
11
330
3
100
AcDbSymbolTableRecord
100
AcDbTextStyleTableRecord
  2
STANDARD
 70
     0
 40
0.0
 41
1.0
 50
0.0
 71
     0
 42
2.5
  3
txt
  4

  0
ENDTAB
  0
TABLE
  2
VIEW
  5
6
330
0
100
AcDbSymbolTable
 70
     0
  0
ENDTAB
  0
TABLE
  2
UCS
  5
7
330
0
100
AcDbSymbolTable
 70
     0
  0
ENDTAB
  0
TABLE
  2
APPID
  5
9
330
0
100
AcDbSymbolTable
 70
     2
  0
APPID
  5
12
330
9
100
AcDbSymbolTableRecord
100
AcDbRegAppTableRecord
  2
ACAD
 70
     0
  0
ENDTAB
  0
TABLE
  2
DIMSTYLE
  5
A
330
0
100
AcDbSymbolTable
 70
     1
  0
DIMSTYLE
105
27
330
A
100
AcDbSymbolTableRecord
100
AcDbDimStyleTableRecord
  2
ISO-25
 70
     0
  3

  4

  5

  6

  7

 40
1.0
 41
2.5
 42
0.625
 43
3.75
 44
1.25
 45
0.0
 46
0.0
 47
0.0
 48
0.0
140
2.5
141
2.5
142
0.0
143
0.03937007874016
144
1.0
145
0.0
146
1.0
147
0.625
 71
     0
 72
     0
 73
     0
 74
     0
 75
     0
 76
     0
 77
     1
 78
     8
170
     0
171
     3
172
     1
173
     0
174
     0
175
     0
176
     0
177
     0
178
     0
270
     2
271
     2
272
     2
273
     2
274
     3
340
11
275
     0
280
     0
281
     0
282
     0
283
     0
284
     8
285
     0
286
     0
287
     3
288
     0
  0
ENDTAB
  0
TABLE
  2
BLOCK_RECORD
  5
1
330
0
100
AcDbSymbolTable
 70
     1
  0
BLOCK_RECORD
  5
1F
330
1
100
AcDbSymbolTableRecord
100
AcDbBlockTableRecord
  2
*MODEL_SPACE
  0
BLOCK_RECORD
  5
1B
330
1
100
AcDbSymbolTableRecord
100
AcDbBlockTableRecord
  2
*PAPER_SPACE
  0
ENDTAB
  0
ENDSEC
  0
SECTION
  2
BLOCKS
  0
BLOCK
  5
20
330
1F
100
AcDbEntity
  8
0
100
AcDbBlockBegin
  2
*MODEL_SPACE
 70
     0
 10
0.0
 20
0.0
 30
0.0
  3
*MODEL_SPACE
  1

  0
ENDBLK
  5
21
330
1F
100
AcDbEntity
  8
0
100
AcDbBlockEnd
  0
BLOCK
  5
1C
330
1B
100
AcDbEntity
 67
     1
  8
0
100
AcDbBlockBegin
  2
*PAPER_SPACE
  1

  0
ENDBLK
  5
1D
330
1B
100
AcDbEntity
 67
     1
  8
0
100
AcDbBlockEnd
  0
ENDSEC
  0
SECTION
  2
ENTITIES
  0
LWPOLYLINE
  5
100
100
AcDbEntity
  8
Layer_1
 62
7
100
AcDbPolyline
 90
26
 70
1
 10
10.909647
 20
246.073164
 30
0.0
 10
62.225397
 20
297.792972
 30
0.0
 10
49.699506
 20
317.996020
 30
0.0
 10
41.618285
 20
351.937148
 30
0.0
 10
45.658895
 20
379.817356
 30
0.0
 10
53.336054
 20
395.575740
 30
0.0
 10
61.417274
 20
405.273204
 30
0.0
 10
77.983777
 20
434.769652
 30
0.0
 10
66.670068
 20
433.961532
 30
0.0
 10
36.769553
 20
453.356460
 30
0.0
 10
19.798990
 20
453.356460
 30
0.0
 10
-2.828427
 20
446.083364
 30
0.0
 10
-18.182746
 20
440.426508
 30
0.0
 10
-31.920821
 20
425.476252
 30
0.0
 10
-33.537065
 20
412.142236
 30
0.0
 10
-44.850773
 20
400.020412
 30
0.0
 10
-64.245702
 20
389.514820
 30
0.0
 10
-79.195959
 20
379.817356
 30
0.0
 10
-81.620328
 20
375.776748
 30
0.0
 10
-81.216264
 20
357.594004
 30
0.0
 10
-67.882251
 20
325.673180
 30
0.0
 10
-43.234529
 20
303.853884
 30
0.0
 10
-15.354318
 20
290.923932
 30
0.0
 10
-4.040610
 20
282.034588
 30
0.0
 10
5.656854
 20
252.538140
 30
0.0
 10
10.909647
 20
246.073164
 30
0.0
  0
LWPOLYLINE
  5
101
100
AcDbEntity
  8
Layer_1
 62
7
100
AcDbPolyline
 90
20
 70
1
 10
62.225397
 20
296.984852
 30
0.0
 10
81.216264
 20
297.792972
 30
0.0
 10
101.823376
 20
295.368604
 30
0.0
 10
128.895464
 20
315.167596
 30
0.0
 10
140.613232
 20
328.905668
 30
0.0
 10
145.461968
 20
343.451868
 30
0.0
 10
149.906640
 20
379.413300
 30
0.0
 10
163.644712
 20
419.011276
 30
0.0
 10
169.705624
 20
429.112804
 30
0.0
 10
174.958424
 20
431.133108
 30
0.0
 10
156.371616
 20
435.577780
 30
0.0
 10
131.319832
 20
439.214324
 30
0.0
 10
77.983777
 20
433.961532
 30
0.0
 10
61.013214
 20
403.656956
 30
0.0
 10
51.315750
 20
389.110764
 30
0.0
 10
46.467017
 20
379.009236
 30
0.0
 10
43.234529
 20
355.977756
 30
0.0
 10
42.022346
 20
348.704660
 30
0.0
 10
48.891383
 20
322.036628
 30
0.0
 10
62.225397
 20
296.984852
 30
0.0
  0
LWPOLYLINE
  5
102
100
AcDbEntity
  8
Layer_1
 62
7
100
AcDbPolyline
 90
27
 70
1
 10
-18.586807
 20
440.022452
 30
0.0
 10
18.182746
 20
453.356460
 30
0.0
 10
38.385797
 20
453.356460
 30
0.0
 10
66.670068
 20
433.961532
 30
0.0
 10
78.791898
 20
435.173716
 30
0.0
 10
85.256872
 20
459.013316
 30
0.0
 10
85.256872
 20
478.812308
 30
0.0
 10
94.954336
 20
490.530076
 30
0.0
 10
120.006120
 20
499.419420
 30
0.0
 10
140.209176
 20
501.843788
 30
0.0
 10
150.310696
 20
507.500636
 30
0.0
 10
162.432528
 20
526.895572
 30
0.0
 10
166.473136
 20
539.825524
 30
0.0
 10
173.342176
 20
552.351412
 30
0.0
 10
110.308656
 20
584.272236
 30
0.0
 10
56.568542
 20
590.333148
 30
0.0
 10
18.990868
 20
582.251924
 30
0.0
 10
20.607112
 20
571.746340
 30
0.0
 10
0.000000
 20
549.118924
 30
0.0
 10
-22.627417
 20
528.511812
 30
0.0
 10
-55.356359
 20
526.895572
 30
0.0
 10
-75.155350
 20
531.340236
 30
0.0
 10
-74.751288
 20
492.954444
 30
0.0
 10
-63.437580
 20
480.024492
 30
0.0
 10
-39.193918
 20
471.135148
 30
0.0
 10
-25.455844
 20
457.397076
 30
0.0
 10
-18.586807
 20
440.022452
 30
0.0
  0
LWPOLYLINE
  5
103
100
AcDbEntity
  8
Layer_1
 62
7
100
AcDbPolyline
 90
17
 70
1
 10
78.387838
 20
434.365596
 30
0.0
 10
85.256872
 20
458.205196
 30
0.0
 10
85.256872
 20
478.004188
 30
0.0
 10
94.954336
 20
489.317892
 30
0.0
 10
117.985816
 20
499.015356
 30
0.0
 10
143.845720
 20
503.055972
 30
0.0
 10
153.139128
 20
509.925004
 30
0.0
 10
173.342176
 20
552.351412
 30
0.0
 10
194.757408
 20
544.674252
 30
0.0
 10
192.333048
 20
537.401156
 30
0.0
 10
224.657928
 20
473.963572
 30
0.0
 10
249.709712
 20
439.214324
 30
0.0
 10
235.163512
 20
442.446812
 30
0.0
 10
194.353352
 20
439.618388
 30
0.0
 10
175.766544
 20
431.537164
 30
0.0
 10
134.552320
 20
439.618388
 30
0.0
 10
78.387838
 20
434.365596
 30
0.0
  0
LWPOLYLINE
  5
104
100
AcDbEntity
  8
Layer_1
 62
7
100
AcDbPolyline
 90
17
 70
1
 10
17.778685
 20
582.251924
 30
0.0
 10
-11.313709
 20
573.766644
 30
0.0
 10
-41.214224
 20
571.342284
 30
0.0
 10
-59.801030
 20
573.766644
 30
0.0
 10
-116.773632
 20
629.527068
 30
0.0
 10
-136.572624
 20
672.761596
 30
0.0
 10
-163.644712
 20
656.195092
 30
0.0
 10
-181.423400
 20
639.224532
 30
0.0
 10
-193.141168
 20
621.041788
 30
0.0
 10
-205.263000
 20
563.665124
 30
0.0
 10
-202.030512
 20
550.331108
 30
0.0
 10
-109.096472
 20
536.593036
 30
0.0
 10
-92.529976
 20
537.401156
 30
0.0
 10
-54.952298
 20
526.895572
 30
0.0
 10
-22.627417
 20
528.511812
 30
0.0
 10
20.607112
 20
571.746340
 30
0.0
 10
17.778685
 20
582.251924
 30
0.0
  0
LWPOLYLINE
  5
105
100
AcDbEntity
  8
Layer_1
 62
7
100
AcDbPolyline
 90
27
 70
1
 10
-201.222384
 20
549.522988
 30
0.0
 10
-124.046736
 20
538.209276
 30
0.0
 10
-102.227440
 20
536.188972
 30
0.0
 10
-92.125912
 20
536.997092
 30
0.0
 10
-75.559410
 20
532.552420
 30
0.0
 10
-74.751288
 20
493.358500
 30
0.0
 10
-63.841641
 20
481.236676
 30
0.0
 10
-41.618285
 20
471.539212
 30
0.0
 10
-28.284271
 20
460.629564
 30
0.0
 10
-18.586807
 20
439.618388
 30
0.0
 10
-32.728942
 20
425.880316
 30
0.0
 10
-34.345186
 20
410.930052
 30
0.0
 10
-50.911688
 20
395.979796
 30
0.0
 10
-75.963471
 20
382.645788
 30
0.0
 10
-81.620328
 20
378.201116
 30
0.0
 10
-81.620328
 20
372.544260
 30
0.0
 10
-81.216264
 20
356.381820
 30
0.0
 10
-77.175654
 20
346.684356
 30
0.0
 10
-137.380744
 20
369.311772
 30
0.0
 10
-177.786848
 20
395.575740
 30
0.0
 10
-198.393960
 20
411.334116
 30
0.0
 10
-254.154384
 20
395.979796
 30
0.0
 10
-246.073160
 20
441.234636
 30
0.0
 10
-237.587880
 20
462.245804
 30
0.0
 10
-200.414264
 20
490.934140
 30
0.0
 10
-184.251824
 20
526.491508
 30
0.0
 10
-201.222384
 20
549.522988
 30
0.0
  0
LWPOLYLINE
  5
106
100
AcDbEntity
  8
Layer_1
 62
7
100
AcDbPolyline
 90
13
 70
1
 10
-253.750320
 20
395.979796
 30
0.0
 10
-199.202080
 20
411.334116
 30
0.0
 10
-136.976688
 20
369.311772
 30
0.0
 10
-101.419312
 20
354.361516
 30
0.0
 10
-114.753328
 20
324.865060
 30
0.0
 10
-128.087344
 20
313.955412
 30
0.0
 10
-141.825416
 20
308.298556
 30
0.0
 10
-193.545224
 20
306.278252
 30
0.0
 10
-213.748280
 20
310.722924
 30
0.0
 10
-235.567576
 20
324.056940
 30
0.0
 10
-249.709712
 20
342.239684
 30
0.0
 10
-256.578744
 20
364.463036
 30
0.0
 10
-253.750320
 20
395.979796
 30
0.0
  0
LWPOLYLINE
  5
107
100
AcDbEntity
  8
Layer_1
 62
7
100
AcDbPolyline
 90
29
 70
1
 10
-101.419312
 20
354.361516
 30
0.0
 10
-114.753328
 20
324.460996
 30
0.0
 10
-130.511712
 20
311.935108
 30
0.0
 10
-143.845720
 20
307.490436
 30
0.0
 10
-197.181776
 20
305.874188
 30
0.0
 10
-213.344216
 20
311.126988
 30
0.0
 10
-206.879240
 20
299.005156
 30
0.0
 10
-212.940160
 20
278.398044
 30
0.0
 10
-233.951328
 20
272.337124
 30
0.0
 10
-261.831536
 20
277.993980
 30
0.0
 10
-255.366560
 20
260.619356
 30
0.0
 10
-259.811232
 20
232.335084
 30
0.0
 10
-249.709712
 20
212.940156
 30
0.0
 10
-246.881280
 20
176.574668
 30
0.0
 10
-220.617320
 20
162.432532
 30
0.0
 10
-132.532016
 20
139.401052
 30
0.0
 10
-81.620328
 20
142.633540
 30
0.0
 10
-111.520840
 20
168.493444
 30
0.0
 10
-109.500536
 20
206.071116
 30
0.0
 10
-89.297488
 20
232.739148
 30
0.0
 10
-55.760421
 20
251.730012
 30
0.0
 10
10.909647
 20
244.456916
 30
0.0
 10
4.848732
 20
253.346260
 30
0.0
 10
-4.444671
 20
282.034588
 30
0.0
 10
-18.182746
 20
292.136116
 30
0.0
 10
-44.850773
 20
304.662012
 30
0.0
 10
-67.478190
 20
324.460996
 30
0.0
 10
-77.579715
 20
346.280292
 30
0.0
 10
-101.419312
 20
354.361516
 30
0.0
  0
ENDSEC
  0
SECTION
  2
OBJECTS
  0
DICTIONARY
  5
C
330
0
100
AcDbDictionary
  3
ACAD_GROUP
350
D
  3
ACAD_MLINESTYLE
350
17
  0
DICTIONARY
  5
D
330
C
100
AcDbDictionary
  0
DICTIONARY
  5
1A
330
C
100
AcDbDictionary
  0
DICTIONARY
  5
17
330
C
100
AcDbDictionary
  3
STANDARD
350
18
  0
DICTIONARY
  5
19
330
C
100
AcDbDictionary
  0
ENDSEC
  0
EOF
