  0
SECTION
  2
HEADER
  9
$ACADVER
  1
AC1014
  9
$HANDSEED
  5
FFFF
  9
$MEASUREMENT
 70
     1
  0
ENDSEC
  0
SECTION
  2
TABLES
  0
TABLE
  2
VPORT
  5
8
330
0
100
AcDbSymbolTable
 70
     4
  0
VPORT
  5
2E
330
8
100
AcDbSymbolTableRecord
100
AcDbViewportTableRecord
  2
*ACTIVE
 70
     0
 10
0.0
 20
0.0
 11
1.0
 21
1.0
 12
210.0
 22
148.5
 13
0.0
 23
0.0
 14
10.0
 24
10.0
 15
10.0
 25
10.0
 16
0.0
 26
0.0
 36
1.0
 17
0.0
 27
0.0
 37
0.0
 40
341.0
 41
1.24
 42
50.0
 43
0.0
 44
0.0
 50
0.0
 51
0.0
 71
     0
 72
   100
 73
     1
 74
     3
 75
     0
 76
     0
 77
     0
 78
     0
  0
ENDTAB
  0
TABLE
  2
LTYPE
  5
5
330
0
100
AcDbSymbolTable
 70
     1
  0
LTYPE
  5
14
330
5
100
AcDbSymbolTableRecord
100
AcDbLinetypeTableRecord
  2
BYBLOCK
 70
     0
  3

 72
    65
 73
     0
 40
0.0
  0
LTYPE
  5
15
330
5
100
AcDbSymbolTableRecord
100
AcDbLinetypeTableRecord
  2
BYLAYER
 70
     0
  3

 72
    65
 73
     0
 40
0.0
  0
LTYPE
  5
16
330
5
100
AcDbSymbolTableRecord
100
AcDbLinetypeTableRecord
  2
CONTINUOUS
 70
     0
  3
Solid line
 72
    65
 73
     0
 40
0.0
  0
ENDTAB
  0
TABLE
  2
LAYER
  5
2
100
AcDbSymbolTable
 70
2
  0
LAYER
  5
50
100
AcDbSymbolTableRecord
100
AcDbLayerTableRecord
  2
0
 70
0
  6
CONTINUOUS
  0
LAYER
  5
51
100
AcDbSymbolTableRecord
100
AcDbLayerTableRecord
  2
Layer_1
 70
0
  6
CONTINUOUS
  0
ENDTAB
  0
TABLE
  2
STYLE
  5
3
330
0
100
AcDbSymbolTable
 70
     1
  0
STYLE
  5
11
330
3
100
AcDbSymbolTableRecord
100
AcDbTextStyleTableRecord
  2
STANDARD
 70
     0
 40
0.0
 41
1.0
 50
0.0
 71
     0
 42
2.5
  3
txt
  4

  0
ENDTAB
  0
TABLE
  2
VIEW
  5
6
330
0
100
AcDbSymbolTable
 70
     0
  0
ENDTAB
  0
TABLE
  2
UCS
  5
7
330
0
100
AcDbSymbolTable
 70
     0
  0
ENDTAB
  0
TABLE
  2
APPID
  5
9
330
0
100
AcDbSymbolTable
 70
     2
  0
APPID
  5
12
330
9
100
AcDbSymbolTableRecord
100
AcDbRegAppTableRecord
  2
ACAD
 70
     0
  0
ENDTAB
  0
TABLE
  2
DIMSTYLE
  5
A
330
0
100
AcDbSymbolTable
 70
     1
  0
DIMSTYLE
105
27
330
A
100
AcDbSymbolTableRecord
100
AcDbDimStyleTableRecord
  2
ISO-25
 70
     0
  3

  4

  5

  6

  7

 40
1.0
 41
2.5
 42
0.625
 43
3.75
 44
1.25
 45
0.0
 46
0.0
 47
0.0
 48
0.0
140
2.5
141
2.5
142
0.0
143
0.03937007874016
144
1.0
145
0.0
146
1.0
147
0.625
 71
     0
 72
     0
 73
     0
 74
     0
 75
     0
 76
     0
 77
     1
 78
     8
170
     0
171
     3
172
     1
173
     0
174
     0
175
     0
176
     0
177
     0
178
     0
270
     2
271
     2
272
     2
273
     2
274
     3
340
11
275
     0
280
     0
281
     0
282
     0
283
     0
284
     8
285
     0
286
     0
287
     3
288
     0
  0
ENDTAB
  0
TABLE
  2
BLOCK_RECORD
  5
1
330
0
100
AcDbSymbolTable
 70
     1
  0
BLOCK_RECORD
  5
1F
330
1
100
AcDbSymbolTableRecord
100
AcDbBlockTableRecord
  2
*MODEL_SPACE
  0
BLOCK_RECORD
  5
1B
330
1
100
AcDbSymbolTableRecord
100
AcDbBlockTableRecord
  2
*PAPER_SPACE
  0
ENDTAB
  0
ENDSEC
  0
SECTION
  2
BLOCKS
  0
BLOCK
  5
20
330
1F
100
AcDbEntity
  8
0
100
AcDbBlockBegin
  2
*MODEL_SPACE
 70
     0
 10
0.0
 20
0.0
 30
0.0
  3
*MODEL_SPACE
  1

  0
ENDBLK
  5
21
330
1F
100
AcDbEntity
  8
0
100
AcDbBlockEnd
  0
BLOCK
  5
1C
330
1B
100
AcDbEntity
 67
     1
  8
0
100
AcDbBlockBegin
  2
*PAPER_SPACE
  1

  0
ENDBLK
  5
1D
330
1B
100
AcDbEntity
 67
     1
  8
0
100
AcDbBlockEnd
  0
ENDSEC
  0
SECTION
  2
ENTITIES
  0
LWPOLYLINE
  5
100
100
AcDbEntity
  8
Layer_1
 62
7
100
AcDbPolyline
 90
23
 70
1
 10
147.482272
 20
555.583900
 30
0.0
 10
149.502576
 20
563.665124
 30
0.0
 10
144.653848
 20
569.321972
 30
0.0
 10
175.766544
 20
595.585940
 30
0.0
 10
179.403096
 20
619.021484
 30
0.0
 10
189.100560
 20
632.355492
 30
0.0
 10
203.646752
 20
641.648900
 30
0.0
 10
232.335088
 20
639.224532
 30
0.0
 10
270.720880
 20
599.626548
 30
0.0
 10
267.892456
 20
582.655988
 30
0.0
 10
270.316824
 20
578.211316
 30
0.0
 10
259.407176
 20
545.482372
 30
0.0
 10
250.113768
 20
545.482372
 30
0.0
 10
242.840672
 20
549.927044
 30
0.0
 10
223.445744
 20
549.522988
 30
0.0
 10
213.748280
 20
547.906740
 30
0.0
 10
212.536096
 20
539.825524
 30
0.0
 10
206.475184
 20
545.482372
 30
0.0
 10
205.263000
 20
543.866132
 30
0.0
 10
208.091424
 20
539.421460
 30
0.0
 10
186.676192
 20
534.572724
 30
0.0
 10
159.604104
 20
534.976788
 30
0.0
 10
147.482272
 20
555.583900
 30
0.0
  0
LWPOLYLINE
  5
101
100
AcDbEntity
  8
Layer_1
 62
7
100
AcDbPolyline
 90
27
 70
1
 10
259.407176
 20
545.684404
 30
0.0
 10
270.518848
 20
577.605228
 30
0.0
 10
267.690424
 20
582.655988
 30
0.0
 10
270.720880
 20
601.040764
 30
0.0
 10
290.721904
 20
600.838732
 30
0.0
 10
313.551352
 20
579.423500
 30
0.0
 10
314.157440
 20
571.948372
 30
0.0
 10
316.783840
 20
568.715884
 30
0.0
 10
310.318864
 20
559.422484
 30
0.0
 10
309.914800
 20
547.098620
 30
0.0
 10
320.420384
 20
526.289476
 30
0.0
 10
311.531048
 20
519.824500
 30
0.0
 10
310.116832
 20
510.127036
 30
0.0
 10
307.490432
 20
506.894548
 30
0.0
 10
307.490432
 20
486.893524
 30
0.0
 10
292.742208
 20
488.105708
 30
0.0
 10
281.226472
 20
484.873220
 30
0.0
 10
260.417328
 20
505.480332
 30
0.0
 10
261.023416
 20
509.318916
 30
0.0
 10
270.114792
 20
510.531100
 30
0.0
 10
272.943216
 20
514.773740
 30
0.0
 10
273.347280
 20
522.450900
 30
0.0
 10
267.488392
 20
531.542268
 30
0.0
 10
271.731032
 20
532.956484
 30
0.0
 10
272.741184
 20
537.603188
 30
0.0
 10
269.508696
 20
540.229580
 30
0.0
 10
259.407176
 20
545.684404
 30
0.0
  0
LWPOLYLINE
  5
102
100
AcDbEntity
  8
Layer_1
 62
7
100
AcDbPolyline
 90
41
 70
1
 10
266.680272
 20
531.138212
 30
0.0
 10
258.194992
 20
529.521964
 30
0.0
 10
249.103616
 20
525.279324
 30
0.0
 10
245.265040
 20
520.632620
 30
0.0
 10
224.859960
 20
513.157492
 30
0.0
 10
223.647776
 20
507.500636
 30
0.0
 10
222.031528
 20
505.682364
 30
0.0
 10
219.405136
 20
505.682364
 30
0.0
 10
217.788888
 20
509.318916
 30
0.0
 10
209.909696
 20
510.935156
 30
0.0
 10
203.040664
 20
503.460028
 30
0.0
 10
203.242696
 20
495.782868
 30
0.0
 10
199.404112
 20
492.348348
 30
0.0
 10
188.090408
 20
489.317892
 30
0.0
 10
185.261976
 20
485.075252
 30
0.0
 10
186.272128
 20
479.216372
 30
0.0
 10
178.797000
 20
469.720932
 30
0.0
 10
175.564512
 20
461.639716
 30
0.0
 10
172.736088
 20
457.801132
 30
0.0
 10
167.079232
 20
456.184892
 30
0.0
 10
167.887352
 20
453.558492
 30
0.0
 10
177.786848
 20
455.578796
 30
0.0
 10
180.615272
 20
456.790980
 30
0.0
 10
183.443704
 20
451.134124
 30
0.0
 10
188.090408
 20
446.891484
 30
0.0
 10
207.081272
 20
437.598084
 30
0.0
 10
208.899544
 20
428.910772
 30
0.0
 10
227.284320
 20
427.496556
 30
0.0
 10
232.133056
 20
443.052908
 30
0.0
 10
248.295496
 20
449.113820
 30
0.0
 10
251.123920
 20
483.256980
 30
0.0
 10
254.356408
 20
490.126012
 30
0.0
 10
253.952352
 20
496.388964
 30
0.0
 10
252.942200
 20
499.823484
 30
0.0
 10
266.276208
 20
500.631604
 30
0.0
 10
261.427480
 20
505.278300
 30
0.0
 10
262.033568
 20
509.116884
 30
0.0
 10
269.508696
 20
509.520948
 30
0.0
 10
273.549312
 20
513.965612
 30
0.0
 10
274.155400
 20
522.450900
 30
0.0
 10
266.680272
 20
531.138212
 30
0.0
  0
LWPOLYLINE
  5
103
100
AcDbEntity
  8
Layer_1
 62
7
100
AcDbPolyline
 90
33
 70
1
 10
208.697520
 20
429.314836
 30
0.0
 10
209.101576
 20
423.860012
 30
0.0
 10
212.940160
 20
423.860012
 30
0.0
 10
217.182800
 20
420.425492
 30
0.0
 10
221.223408
 20
422.445796
 30
0.0
 10
221.425440
 20
420.425492
 30
0.0
 10
220.011224
 20
418.203156
 30
0.0
 10
224.859960
 20
417.193004
 30
0.0
 10
226.476200
 20
419.819396
 30
0.0
 10
227.688384
 20
419.617372
 30
0.0
 10
231.324936
 20
405.677260
 30
0.0
 10
246.477224
 20
407.495540
 30
0.0
 10
251.325952
 20
414.566604
 30
0.0
 10
270.114792
 20
414.768636
 30
0.0
 10
278.196008
 20
421.233612
 30
0.0
 10
289.105656
 20
417.193004
 30
0.0
 10
292.944240
 20
417.193004
 30
0.0
 10
300.621400
 20
423.455948
 30
0.0
 10
297.590944
 20
427.698588
 30
0.0
 10
298.399064
 20
443.052908
 30
0.0
 10
305.874192
 20
448.709764
 30
0.0
 10
313.147288
 20
470.933116
 30
0.0
 10
306.884344
 20
487.903684
 30
0.0
 10
293.954392
 20
489.115860
 30
0.0
 10
281.832560
 20
486.085404
 30
0.0
 10
265.670120
 20
501.439724
 30
0.0
 10
253.144232
 20
500.429572
 30
0.0
 10
254.356408
 20
491.540228
 30
0.0
 10
250.921896
 20
483.256980
 30
0.0
 10
247.689408
 20
449.315852
 30
0.0
 10
231.728992
 20
443.861028
 30
0.0
 10
226.880264
 20
427.900620
 30
0.0
 10
208.697520
 20
429.314836
 30
0.0
  0
LWPOLYLINE
  5
104
100
AcDbEntity
  8
Layer_1
 62
7
100
AcDbPolyline
 90
25
 70
1
 10
208.697520
 20
423.860012
 30
0.0
 10
209.303608
 20
415.172700
 30
0.0
 10
205.060968
 20
409.717876
 30
0.0
 10
193.949288
 20
408.505692
 30
0.0
 10
173.948272
 20
390.727004
 30
0.0
 10
174.352328
 20
382.847812
 30
0.0
 10
180.615272
 20
385.676244
 30
0.0
 10
184.655888
 20
381.837660
 30
0.0
 10
193.747256
 20
384.868124
 30
0.0
 10
209.101576
 20
383.857964
 30
0.0
 10
210.313760
 20
391.131068
 30
0.0
 10
214.152336
 20
392.141220
 30
0.0
 10
235.163512
 20
392.747308
 30
0.0
 10
244.456920
 20
400.626500
 30
0.0
 10
246.679248
 20
407.697564
 30
0.0
 10
231.526960
 20
405.879292
 30
0.0
 10
227.688384
 20
420.627524
 30
0.0
 10
226.072136
 20
420.829548
 30
0.0
 10
224.859960
 20
417.799092
 30
0.0
 10
221.223408
 20
418.607212
 30
0.0
 10
222.031528
 20
421.637676
 30
0.0
 10
221.021376
 20
423.455948
 30
0.0
 10
216.172648
 20
421.637676
 30
0.0
 10
214.152336
 20
423.455948
 30
0.0
 10
208.697520
 20
423.860012
 30
0.0
  0
LWPOLYLINE
  5
105
100
AcDbEntity
  8
Layer_1
 62
7
100
AcDbPolyline
 90
49
 70
1
 10
209.303608
 20
384.059996
 30
0.0
 10
207.081272
 20
380.221420
 30
0.0
 10
210.515792
 20
366.887404
 30
0.0
 10
199.202080
 20
365.877252
 30
0.0
 10
179.201064
 20
365.877252
 30
0.0
 10
154.351312
 20
353.149332
 30
0.0
 10
139.603080
 20
354.361516
 30
0.0
 10
131.723896
 20
348.502628
 30
0.0
 10
128.087344
 20
336.986892
 30
0.0
 10
124.248760
 20
336.784860
 30
0.0
 10
120.006120
 20
347.694508
 30
0.0
 10
112.126936
 20
357.796036
 30
0.0
 10
92.934032
 20
363.250852
 30
0.0
 10
90.913728
 20
372.544260
 30
0.0
 10
82.226416
 20
375.776748
 30
0.0
 10
82.024384
 20
379.413300
 30
0.0
 10
89.499512
 20
385.272180
 30
0.0
 10
104.045712
 20
398.606196
 30
0.0
 10
99.196984
 20
411.536148
 30
0.0
 10
105.661960
 20
412.950364
 30
0.0
 10
107.278200
 20
420.223460
 30
0.0
 10
113.945208
 20
417.597060
 30
0.0
 10
116.975664
 20
420.223460
 30
0.0
 10
116.773632
 20
425.274220
 30
0.0
 10
120.208152
 20
427.294524
 30
0.0
 10
123.642672
 20
425.678284
 30
0.0
 10
120.410184
 20
423.455948
 30
0.0
 10
121.016272
 20
419.819396
 30
0.0
 10
122.632520
 20
419.011276
 30
0.0
 10
122.632520
 20
417.193004
 30
0.0
 10
121.016272
 20
416.788940
 30
0.0
 10
121.420336
 20
413.556452
 30
0.0
 10
130.107648
 20
413.152388
 30
0.0
 10
130.511712
 20
406.283356
 30
0.0
 10
126.875160
 20
406.485388
 30
0.0
 10
126.875160
 20
403.656956
 30
0.0
 10
134.148256
 20
395.373708
 30
0.0
 10
134.552320
 20
388.100612
 30
0.0
 10
132.127952
 20
385.676244
 30
0.0
 10
132.127952
 20
384.464060
 30
0.0
 10
139.805112
 20
385.070148
 30
0.0
 10
146.068056
 20
380.221420
 30
0.0
 10
164.654864
 20
382.241724
 30
0.0
 10
171.725936
 20
380.019388
 30
0.0
 10
174.958424
 20
383.453908
 30
0.0
 10
179.605120
 20
385.676244
 30
0.0
 10
184.251824
 20
383.049844
 30
0.0
 10
193.343200
 20
385.676244
 30
0.0
 10
209.303608
 20
384.059996
 30
0.0
  0
LWPOLYLINE
  5
106
100
AcDbEntity
  8
Layer_1
 62
7
100
AcDbPolyline
 90
17
 70
1
 10
92.732000
 20
363.856948
 30
0.0
 10
83.438600
 20
335.774708
 30
0.0
 10
84.044688
 20
324.865060
 30
0.0
 10
86.671088
 20
315.167596
 30
0.0
 10
83.236568
 20
307.086372
 30
0.0
 10
93.944184
 20
307.288404
 30
0.0
 10
95.762464
 20
302.439676
 30
0.0
 10
96.368552
 20
293.348300
 30
0.0
 10
110.712720
 20
292.742212
 30
0.0
 10
129.703584
 20
301.631548
 30
0.0
 10
134.350288
 20
305.874188
 30
0.0
 10
135.158408
 20
320.420388
 30
0.0
 10
127.279224
 20
336.986892
 30
0.0
 10
125.056888
 20
337.390948
 30
0.0
 10
120.814248
 20
348.098564
 30
0.0
 10
113.137088
 20
358.604156
 30
0.0
 10
92.732000
 20
363.856948
 30
0.0
  0
LWPOLYLINE
  5
107
100
AcDbEntity
  8
Layer_1
 62
7
100
AcDbPolyline
 90
33
 70
1
 10
96.368552
 20
294.358452
 30
0.0
 10
109.500536
 20
293.954388
 30
0.0
 10
128.693432
 20
302.237644
 30
0.0
 10
133.946224
 20
306.278252
 30
0.0
 10
134.754352
 20
320.622420
 30
0.0
 10
126.673128
 20
337.188924
 30
0.0
 10
130.915768
 20
348.300596
 30
0.0
 10
138.390896
 20
355.169636
 30
0.0
 10
155.159432
 20
353.755420
 30
0.0
 10
177.786848
 20
366.483348
 30
0.0
 10
210.111728
 20
367.695524
 30
0.0
 10
216.172648
 20
348.704660
 30
0.0
 10
212.536096
 20
344.664052
 30
0.0
 10
213.344216
 20
335.168612
 30
0.0
 10
215.566552
 20
329.713788
 30
0.0
 10
208.495488
 20
318.602116
 30
0.0
 10
204.252848
 20
318.198052
 30
0.0
 10
200.212232
 20
312.541196
 30
0.0
 10
187.888376
 20
306.076220
 30
0.0
 10
186.272128
 20
301.227492
 30
0.0
 10
172.332024
 20
288.499564
 30
0.0
 10
172.534056
 20
283.044740
 30
0.0
 10
178.999032
 20
278.802100
 30
0.0
 10
206.475184
 20
272.741188
 30
0.0
 10
209.707672
 20
260.619356
 30
0.0
 10
219.607160
 20
257.184836
 30
0.0
 10
226.476200
 20
249.305652
 30
0.0
 10
230.314784
 20
241.224428
 30
0.0
 10
206.475184
 20
241.830516
 30
0.0
 10
188.898528
 20
236.577724
 30
0.0
 10
123.036584
 20
246.073164
 30
0.0
 10
108.086320
 20
278.196012
 30
0.0
 10
96.368552
 20
294.358452
 30
0.0
  0
LWPOLYLINE
  5
108
100
AcDbEntity
  8
Layer_1
 62
7
100
AcDbPolyline
 90
58
 70
1
 10
229.910720
 20
241.628492
 30
0.0
 10
219.607160
 20
256.376716
 30
0.0
 10
208.899544
 20
260.215300
 30
0.0
 10
205.869088
 20
272.337124
 30
0.0
 10
181.221368
 20
277.387892
 30
0.0
 10
172.129992
 20
282.438652
 30
0.0
 10
170.917808
 20
288.701596
 30
0.0
 10
186.070096
 20
302.035612
 30
0.0
 10
186.676192
 20
305.874188
 30
0.0
 10
200.010208
 20
312.945260
 30
0.0
 10
203.242696
 20
318.198052
 30
0.0
 10
207.889392
 20
319.814300
 30
0.0
 10
214.556400
 20
329.511764
 30
0.0
 10
212.738128
 20
335.370644
 30
0.0
 10
211.121880
 20
343.855924
 30
0.0
 10
215.162496
 20
349.310748
 30
0.0
 10
206.273152
 20
379.615324
 30
0.0
 10
208.495488
 20
385.272180
 30
0.0
 10
209.909696
 20
392.141220
 30
0.0
 10
234.355392
 20
393.353404
 30
0.0
 10
243.446760
 20
401.030564
 30
0.0
 10
245.265040
 20
407.899596
 30
0.0
 10
251.325952
 20
415.374724
 30
0.0
 10
269.104640
 20
416.384876
 30
0.0
 10
276.579768
 20
422.445796
 30
0.0
 10
290.519872
 20
419.213308
 30
0.0
 10
301.429520
 20
424.062036
 30
0.0
 10
307.692464
 20
423.657980
 30
0.0
 10
310.318864
 20
425.678284
 30
0.0
 10
330.723944
 20
418.001124
 30
0.0
 10
341.633592
 20
422.647828
 30
0.0
 10
341.027496
 20
414.970668
 30
0.0
 10
339.613288
 20
411.940212
 30
0.0
 10
340.219376
 20
404.667108
 30
0.0
 10
346.684352
 20
399.616348
 30
0.0
 10
353.351360
 20
398.000100
 30
0.0
 10
354.159480
 20
390.727004
 30
0.0
 10
358.604152
 20
387.292484
 30
0.0
 10
365.069128
 20
374.968628
 30
0.0
 10
347.088416
 20
360.826492
 30
0.0
 10
326.885368
 20
352.745268
 30
0.0
 10
313.551352
 20
332.744252
 30
0.0
 10
313.349320
 20
326.481300
 30
0.0
 10
315.571656
 20
322.844756
 30
0.0
 10
312.541200
 20
318.198052
 30
0.0
 10
312.945256
 20
310.924956
 30
0.0
 10
315.369624
 20
308.096524
 30
0.0
 10
314.965560
 20
306.278252
 30
0.0
 10
304.662008
 20
295.772668
 30
0.0
 10
304.055920
 20
286.479260
 30
0.0
 10
298.399064
 20
283.246772
 30
0.0
 10
292.338144
 20
270.720884
 30
0.0
 10
282.438648
 20
262.841692
 30
0.0
 10
281.428496
 20
257.184836
 30
0.0
 10
284.256928
 20
245.063004
 30
0.0
 10
265.266056
 20
244.254884
 30
0.0
 10
257.386872
 20
239.002092
 30
0.0
 10
229.910720
 20
241.628492
 30
0.0
  0
LWPOLYLINE
  5
109
100
AcDbEntity
  8
Layer_1
 62
7
100
AcDbPolyline
 90
30
 70
1
 10
319.612264
 20
526.087444
 30
0.0
 10
351.331056
 20
523.663084
 30
0.0
 10
353.351360
 20
531.744300
 30
0.0
 10
361.634608
 20
537.199124
 30
0.0
 10
378.605176
 20
536.391004
 30
0.0
 10
379.615328
 20
531.340236
 30
0.0
 10
383.655936
 20
529.723996
 30
0.0
 10
381.433600
 20
523.259020
 30
0.0
 10
386.888424
 20
513.763588
 30
0.0
 10
398.202136
 20
511.945308
 30
0.0
 10
401.030560
 20
504.066124
 30
0.0
 10
395.171680
 20
488.105708
 30
0.0
 10
373.554408
 20
489.721956
 30
0.0
 10
361.634608
 20
473.559516
 30
0.0
 10
364.867096
 20
466.488444
 30
0.0
 10
358.200096
 20
441.436660
 30
0.0
 10
340.825472
 20
421.233612
 30
0.0
 10
331.532064
 20
417.395036
 30
0.0
 10
310.722920
 20
424.870164
 30
0.0
 10
307.894496
 20
423.051884
 30
0.0
 10
299.409216
 20
423.253916
 30
0.0
 10
295.166576
 20
427.092500
 30
0.0
 10
297.590944
 20
442.446812
 30
0.0
 10
305.268096
 20
449.315852
 30
0.0
 10
311.935104
 20
470.327028
 30
0.0
 10
306.076224
 20
486.691500
 30
0.0
 10
306.884344
 20
506.894548
 30
0.0
 10
310.116832
 20
510.329068
 30
0.0
 10
310.318864
 20
519.824500
 30
0.0
 10
319.612264
 20
526.087444
 30
0.0
  0
LWPOLYLINE
  5
10a
100
AcDbEntity
  8
Layer_1
 62
7
100
AcDbPolyline
 90
25
 70
1
 10
288.903632
 20
601.444828
 30
0.0
 10
314.965560
 20
632.759556
 30
0.0
 10
334.562520
 20
644.073260
 30
0.0
 10
348.098568
 20
642.659052
 30
0.0
 10
356.583848
 20
625.486460
 30
0.0
 10
361.836640
 20
622.051940
 30
0.0
 10
357.189944
 20
614.576812
 30
0.0
 10
360.422432
 20
599.626548
 30
0.0
 10
372.342232
 20
594.373756
 30
0.0
 10
381.231568
 20
582.453956
 30
0.0
 10
381.433600
 20
574.574772
 30
0.0
 10
377.595024
 20
570.130100
 30
0.0
 10
380.827512
 20
556.796084
 30
0.0
 10
374.766592
 20
550.331108
 30
0.0
 10
379.817360
 20
536.188972
 30
0.0
 10
363.250856
 20
536.188972
 30
0.0
 10
354.159480
 20
531.340236
 30
0.0
 10
351.129024
 20
523.865108
 30
0.0
 10
319.814296
 20
525.885412
 30
0.0
 10
309.510744
 20
546.290500
 30
0.0
 10
310.116832
 20
559.624508
 30
0.0
 10
315.975720
 20
568.311820
 30
0.0
 10
313.955408
 20
570.938220
 30
0.0
 10
312.541200
 20
578.413348
 30
0.0
 10
288.903632
 20
601.444828
 30
0.0
  0
LWPOLYLINE
  5
10b
100
AcDbEntity
  8
Layer_1
 62
7
100
AcDbPolyline
 90
26
 70
1
 10
394.767616
 20
488.711804
 30
0.0
 10
373.958472
 20
490.126012
 30
0.0
 10
360.624456
 20
474.165604
 30
0.0
 10
364.058976
 20
466.488444
 30
0.0
 10
358.402120
 20
441.840724
 30
0.0
 10
341.633592
 20
423.051884
 30
0.0
 10
341.431560
 20
416.182852
 30
0.0
 10
338.603136
 20
410.930060
 30
0.0
 10
340.219376
 20
404.061020
 30
0.0
 10
346.280296
 20
398.808228
 30
0.0
 10
353.553392
 20
396.989948
 30
0.0
 10
353.755424
 20
390.727004
 30
0.0
 10
358.200096
 20
387.292484
 30
0.0
 10
365.069128
 20
375.372684
 30
0.0
 10
375.978776
 20
382.443756
 30
0.0
 10
381.231568
 20
382.847812
 30
0.0
 10
391.333096
 20
389.918884
 30
0.0
 10
391.535128
 20
394.767612
 30
0.0
 10
399.818376
 20
399.818380
 30
0.0
 10
401.030560
 20
418.001124
 30
0.0
 10
403.252896
 20
425.072188
 30
0.0
 10
400.626496
 20
433.961532
 30
0.0
 10
404.061016
 20
448.709764
 30
0.0
 10
402.242744
 20
455.376772
 30
0.0
 10
390.929032
 20
479.216372
 30
0.0
 10
394.767616
 20
488.711804
 30
0.0
  0
LWPOLYLINE
  5
10c
100
AcDbEntity
  8
Layer_1
 62
7
100
AcDbPolyline
 90
45
 70
1
 10
399.212288
 20
400.626500
 30
0.0
 10
391.131064
 20
395.777764
 30
0.0
 10
389.918880
 20
390.120916
 30
0.0
 10
381.635632
 20
383.857964
 30
0.0
 10
375.170656
 20
383.453908
 30
0.0
 10
346.684352
 20
361.432580
 30
0.0
 10
326.683336
 20
353.149332
 30
0.0
 10
312.743232
 20
333.350340
 30
0.0
 10
312.945256
 20
326.683332
 30
0.0
 10
314.965560
 20
322.440692
 30
0.0
 10
310.520896
 20
318.400084
 30
0.0
 10
311.935104
 20
311.733076
 30
0.0
 10
314.561504
 20
308.096524
 30
0.0
 10
314.359472
 20
305.470132
 30
0.0
 10
304.662008
 20
296.580788
 30
0.0
 10
303.449824
 20
286.883324
 30
0.0
 10
298.601096
 20
284.863020
 30
0.0
 10
291.530024
 20
271.124940
 30
0.0
 10
281.832560
 20
264.457940
 30
0.0
 10
280.620376
 20
257.386868
 30
0.0
 10
283.650832
 20
245.063004
 30
0.0
 10
311.733072
 20
242.840676
 30
0.0
 10
323.450848
 20
247.083316
 30
0.0
 10
337.795008
 20
245.871132
 30
0.0
 10
343.047808
 20
254.356412
 30
0.0
 10
355.977760
 20
253.346260
 30
0.0
 10
360.018368
 20
238.396004
 30
0.0
 10
383.251880
 20
237.789908
 30
0.0
 10
401.434624
 20
249.709708
 30
0.0
 10
412.546296
 20
249.709708
 30
0.0
 10
420.021432
 20
255.164532
 30
0.0
 10
419.415336
 20
267.084332
 30
0.0
 10
388.706696
 20
271.124940
 30
0.0
 10
385.676240
 20
284.256924
 30
0.0
 10
388.706696
 20
295.974700
 30
0.0
 10
416.384880
 20
341.229532
 30
0.0
 10
419.213304
 20
364.463036
 30
0.0
 10
437.396056
 20
378.605172
 30
0.0
 10
438.406208
 20
388.908732
 30
0.0
 10
430.931080
 20
390.929036
 30
0.0
 10
428.102648
 20
397.798076
 30
0.0
 10
415.374728
 20
392.343252
 30
0.0
 10
408.303656
 20
396.585892
 30
0.0
 10
407.293504
 20
393.959492
 30
0.0
 10
399.212288
 20
400.626500
 30
0.0
  0
ENDSEC
  0
SECTION
  2
OBJECTS
  0
DICTIONARY
  5
C
330
0
100
AcDbDictionary
  3
ACAD_GROUP
350
D
  3
ACAD_MLINESTYLE
350
17
  0
DICTIONARY
  5
D
330
C
100
AcDbDictionary
  0
DICTIONARY
  5
1A
330
C
100
AcDbDictionary
  0
DICTIONARY
  5
17
330
C
100
AcDbDictionary
  3
STANDARD
350
18
  0
DICTIONARY
  5
19
330
C
100
AcDbDictionary
  0
ENDSEC
  0
EOF
