  0
SECTION
  2
HEADER
  9
$ACADVER
  1
AC1014
  9
$HANDSEED
  5
FFFF
  9
$MEASUREMENT
 70
     1
  0
ENDSEC
  0
SECTION
  2
TABLES
  0
TABLE
  2
VPORT
  5
8
330
0
100
AcDbSymbolTable
 70
     4
  0
VPORT
  5
2E
330
8
100
AcDbSymbolTableRecord
100
AcDbViewportTableRecord
  2
*ACTIVE
 70
     0
 10
0.0
 20
0.0
 11
1.0
 21
1.0
 12
210.0
 22
148.5
 13
0.0
 23
0.0
 14
10.0
 24
10.0
 15
10.0
 25
10.0
 16
0.0
 26
0.0
 36
1.0
 17
0.0
 27
0.0
 37
0.0
 40
341.0
 41
1.24
 42
50.0
 43
0.0
 44
0.0
 50
0.0
 51
0.0
 71
     0
 72
   100
 73
     1
 74
     3
 75
     0
 76
     0
 77
     0
 78
     0
  0
ENDTAB
  0
TABLE
  2
LTYPE
  5
5
330
0
100
AcDbSymbolTable
 70
     1
  0
LTYPE
  5
14
330
5
100
AcDbSymbolTableRecord
100
AcDbLinetypeTableRecord
  2
BYBLOCK
 70
     0
  3

 72
    65
 73
     0
 40
0.0
  0
LTYPE
  5
15
330
5
100
AcDbSymbolTableRecord
100
AcDbLinetypeTableRecord
  2
BYLAYER
 70
     0
  3

 72
    65
 73
     0
 40
0.0
  0
LTYPE
  5
16
330
5
100
AcDbSymbolTableRecord
100
AcDbLinetypeTableRecord
  2
CONTINUOUS
 70
     0
  3
Solid line
 72
    65
 73
     0
 40
0.0
  0
ENDTAB
  0
TABLE
  2
LAYER
  5
2
100
AcDbSymbolTable
 70
2
  0
LAYER
  5
50
100
AcDbSymbolTableRecord
100
AcDbLayerTableRecord
  2
0
 70
0
  6
CONTINUOUS
  0
LAYER
  5
51
100
AcDbSymbolTableRecord
100
AcDbLayerTableRecord
  2
Layer_1
 70
0
  6
CONTINUOUS
  0
ENDTAB
  0
TABLE
  2
STYLE
  5
3
330
0
100
AcDbSymbolTable
 70
     1
  0
STYLE
  5
11
330
3
100
AcDbSymbolTableRecord
100
AcDbTextStyleTableRecord
  2
STANDARD
 70
     0
 40
0.0
 41
1.0
 50
0.0
 71
     0
 42
2.5
  3
txt
  4

  0
ENDTAB
  0
TABLE
  2
VIEW
  5
6
330
0
100
AcDbSymbolTable
 70
     0
  0
ENDTAB
  0
TABLE
  2
UCS
  5
7
330
0
100
AcDbSymbolTable
 70
     0
  0
ENDTAB
  0
TABLE
  2
APPID
  5
9
330
0
100
AcDbSymbolTable
 70
     2
  0
APPID
  5
12
330
9
100
AcDbSymbolTableRecord
100
AcDbRegAppTableRecord
  2
ACAD
 70
     0
  0
ENDTAB
  0
TABLE
  2
DIMSTYLE
  5
A
330
0
100
AcDbSymbolTable
 70
     1
  0
DIMSTYLE
105
27
330
A
100
AcDbSymbolTableRecord
100
AcDbDimStyleTableRecord
  2
ISO-25
 70
     0
  3

  4

  5

  6

  7

 40
1.0
 41
2.5
 42
0.625
 43
3.75
 44
1.25
 45
0.0
 46
0.0
 47
0.0
 48
0.0
140
2.5
141
2.5
142
0.0
143
0.03937007874016
144
1.0
145
0.0
146
1.0
147
0.625
 71
     0
 72
     0
 73
     0
 74
     0
 75
     0
 76
     0
 77
     1
 78
     8
170
     0
171
     3
172
     1
173
     0
174
     0
175
     0
176
     0
177
     0
178
     0
270
     2
271
     2
272
     2
273
     2
274
     3
340
11
275
     0
280
     0
281
     0
282
     0
283
     0
284
     8
285
     0
286
     0
287
     3
288
     0
  0
ENDTAB
  0
TABLE
  2
BLOCK_RECORD
  5
1
330
0
100
AcDbSymbolTable
 70
     1
  0
BLOCK_RECORD
  5
1F
330
1
100
AcDbSymbolTableRecord
100
AcDbBlockTableRecord
  2
*MODEL_SPACE
  0
BLOCK_RECORD
  5
1B
330
1
100
AcDbSymbolTableRecord
100
AcDbBlockTableRecord
  2
*PAPER_SPACE
  0
ENDTAB
  0
ENDSEC
  0
SECTION
  2
BLOCKS
  0
BLOCK
  5
20
330
1F
100
AcDbEntity
  8
0
100
AcDbBlockBegin
  2
*MODEL_SPACE
 70
     0
 10
0.0
 20
0.0
 30
0.0
  3
*MODEL_SPACE
  1

  0
ENDBLK
  5
21
330
1F
100
AcDbEntity
  8
0
100
AcDbBlockEnd
  0
BLOCK
  5
1C
330
1B
100
AcDbEntity
 67
     1
  8
0
100
AcDbBlockBegin
  2
*PAPER_SPACE
  1

  0
ENDBLK
  5
1D
330
1B
100
AcDbEntity
 67
     1
  8
0
100
AcDbBlockEnd
  0
ENDSEC
  0
SECTION
  2
ENTITIES
  0
LWPOLYLINE
  5
100
100
AcDbEntity
  8
Layer_1
 62
7
100
AcDbPolyline
 90
27
 70
1
 10
26.285714
 20
557.142860
 30
0.0
 10
19.428571
 20
566.857140
 30
0.0
 10
17.714286
 20
577.142860
 30
0.0
 10
-8.000000
 20
585.142860
 30
0.0
 10
-18.857143
 20
577.714284
 30
0.0
 10
-22.857143
 20
585.714284
 30
0.0
 10
-37.714286
 20
586.285716
 30
0.0
 10
-45.714286
 20
582.285716
 30
0.0
 10
-57.714286
 20
587.428572
 30
0.0
 10
-53.142857
 20
565.142860
 30
0.0
 10
-51.428571
 20
557.142860
 30
0.0
 10
-50.857143
 20
544.571428
 30
0.0
 10
-41.714286
 20
545.714284
 30
0.0
 10
-38.857143
 20
532.571428
 30
0.0
 10
-34.285714
 20
532.000004
 30
0.0
 10
-32.571429
 20
528.000004
 30
0.0
 10
-37.714286
 20
524.571428
 30
0.0
 10
-34.285714
 20
519.428572
 30
0.0
 10
-3.428571
 20
525.714284
 30
0.0
 10
-4.000000
 20
536.000004
 30
0.0
 10
2.857143
 20
536.571428
 30
0.0
 10
10.285714
 20
543.428572
 30
0.0
 10
14.285714
 20
540.000004
 30
0.0
 10
16.000000
 20
546.285716
 30
0.0
 10
25.142857
 20
546.857140
 30
0.0
 10
27.428571
 20
552.000004
 30
0.0
 10
26.285714
 20
557.142860
 30
0.0
  0
LWPOLYLINE
  5
101
100
AcDbEntity
  8
Layer_1
 62
7
100
AcDbPolyline
 90
29
 70
1
 10
-57.714286
 20
586.857140
 30
0.0
 10
-75.428571
 20
573.714284
 30
0.0
 10
-82.857144
 20
562.285716
 30
0.0
 10
-96.000000
 20
565.714284
 30
0.0
 10
-103.428568
 20
564.000004
 30
0.0
 10
-106.285712
 20
546.857140
 30
0.0
 10
-113.142856
 20
539.428572
 30
0.0
 10
-117.714288
 20
538.857140
 30
0.0
 10
-117.142856
 20
535.428572
 30
0.0
 10
-133.142856
 20
532.571428
 30
0.0
 10
-128.571432
 20
524.000004
 30
0.0
 10
-112.571432
 20
524.000004
 30
0.0
 10
-97.714288
 20
497.142860
 30
0.0
 10
-74.857143
 20
495.428572
 30
0.0
 10
-70.857143
 20
493.142860
 30
0.0
 10
-75.428571
 20
504.000004
 30
0.0
 10
-72.571429
 20
507.428572
 30
0.0
 10
-56.571429
 20
496.571428
 30
0.0
 10
-41.142857
 20
500.571428
 30
0.0
 10
-33.142857
 20
510.857140
 30
0.0
 10
-33.714286
 20
519.428572
 30
0.0
 10
-36.000000
 20
522.857140
 30
0.0
 10
-33.142857
 20
528.000004
 30
0.0
 10
-33.142857
 20
533.142860
 30
0.0
 10
-37.142857
 20
533.714284
 30
0.0
 10
-41.142857
 20
545.142860
 30
0.0
 10
-48.571429
 20
546.857140
 30
0.0
 10
-50.285714
 20
560.571428
 30
0.0
 10
-57.714286
 20
586.857140
 30
0.0
  0
LWPOLYLINE
  5
102
100
AcDbEntity
  8
Layer_1
 62
7
100
AcDbPolyline
 90
30
 70
1
 10
33.714286
 20
574.857140
 30
0.0
 10
26.285714
 20
578.857140
 30
0.0
 10
29.714286
 20
580.000004
 30
0.0
 10
28.571429
 20
586.285716
 30
0.0
 10
37.142858
 20
584.857148
 30
0.0
 10
46.571429
 20
596.571428
 30
0.0
 10
54.000000
 20
604.857148
 30
0.0
 10
65.714286
 20
609.714284
 30
0.0
 10
70.857143
 20
613.714284
 30
0.0
 10
85.142856
 20
612.571428
 30
0.0
 10
90.000000
 20
604.000004
 30
0.0
 10
93.142856
 20
604.285716
 30
0.0
 10
100.285712
 20
596.285716
 30
0.0
 10
111.142856
 20
596.571428
 30
0.0
 10
115.714288
 20
601.428572
 30
0.0
 10
134.285712
 20
589.714284
 30
0.0
 10
130.857144
 20
575.428572
 30
0.0
 10
120.285712
 20
569.142860
 30
0.0
 10
116.000000
 20
563.428572
 30
0.0
 10
109.142856
 20
562.285716
 30
0.0
 10
106.857144
 20
567.714284
 30
0.0
 10
104.571432
 20
565.428572
 30
0.0
 10
99.142856
 20
568.000004
 30
0.0
 10
88.857144
 20
558.285716
 30
0.0
 10
86.857144
 20
564.285716
 30
0.0
 10
80.000000
 20
568.285716
 30
0.0
 10
76.285714
 20
566.571428
 30
0.0
 10
72.571429
 20
571.428572
 30
0.0
 10
54.857143
 20
584.857148
 30
0.0
 10
33.714286
 20
574.857140
 30
0.0
  0
LWPOLYLINE
  5
103
100
AcDbEntity
  8
Layer_1
 62
7
100
AcDbPolyline
 90
58
 70
1
 10
19.714286
 20
546.000004
 30
0.0
 10
24.000000
 20
528.857140
 30
0.0
 10
42.285714
 20
527.714284
 30
0.0
 10
48.000000
 20
512.285716
 30
0.0
 10
41.428571
 20
509.142860
 30
0.0
 10
39.428571
 20
495.428572
 30
0.0
 10
43.428571
 20
491.714284
 30
0.0
 10
41.428571
 20
480.857140
 30
0.0
 10
45.714286
 20
477.428572
 30
0.0
 10
45.428571
 20
470.000004
 30
0.0
 10
36.857143
 20
469.714284
 30
0.0
 10
37.142858
 20
463.142860
 30
0.0
 10
48.000000
 20
458.285716
 30
0.0
 10
46.285714
 20
454.571428
 30
0.0
 10
53.428571
 20
450.285716
 30
0.0
 10
55.142858
 20
461.142860
 30
0.0
 10
57.142858
 20
464.000004
 30
0.0
 10
59.714286
 20
462.571428
 30
0.0
 10
58.285714
 20
451.714284
 30
0.0
 10
78.857143
 20
448.857140
 30
0.0
 10
93.142856
 20
465.714284
 30
0.0
 10
95.142856
 20
461.714284
 30
0.0
 10
101.142856
 20
467.142860
 30
0.0
 10
101.714288
 20
472.857140
 30
0.0
 10
109.428568
 20
475.428572
 30
0.0
 10
106.857144
 20
484.285716
 30
0.0
 10
108.857144
 20
492.285716
 30
0.0
 10
113.714288
 20
497.142860
 30
0.0
 10
119.714288
 20
505.428572
 30
0.0
 10
114.000000
 20
515.714284
 30
0.0
 10
123.142856
 20
529.142860
 30
0.0
 10
118.857144
 20
532.000004
 30
0.0
 10
118.857144
 20
534.857140
 30
0.0
 10
123.142856
 20
534.285716
 30
0.0
 10
125.714288
 20
536.285716
 30
0.0
 10
122.000000
 20
539.714284
 30
0.0
 10
112.285712
 20
540.000004
 30
0.0
 10
116.000000
 20
550.285716
 30
0.0
 10
130.000000
 20
556.571428
 30
0.0
 10
118.857144
 20
566.857140
 30
0.0
 10
115.428568
 20
563.428572
 30
0.0
 10
110.000000
 20
562.285716
 30
0.0
 10
108.000000
 20
567.714284
 30
0.0
 10
104.571432
 20
565.714284
 30
0.0
 10
98.857144
 20
568.000004
 30
0.0
 10
89.428568
 20
559.428572
 30
0.0
 10
86.857144
 20
565.142860
 30
0.0
 10
80.285712
 20
569.142860
 30
0.0
 10
76.857143
 20
566.285716
 30
0.0
 10
72.571429
 20
571.714284
 30
0.0
 10
56.000000
 20
585.142860
 30
0.0
 10
32.571429
 20
575.142860
 30
0.0
 10
30.571429
 20
572.857140
 30
0.0
 10
30.571429
 20
567.428572
 30
0.0
 10
26.285714
 20
558.000004
 30
0.0
 10
26.571429
 20
551.428572
 30
0.0
 10
24.285714
 20
547.428572
 30
0.0
 10
19.714286
 20
546.000004
 30
0.0
  0
LWPOLYLINE
  5
104
100
AcDbEntity
  8
Layer_1
 62
7
100
AcDbPolyline
 90
29
 70
1
 10
128.571432
 20
557.142860
 30
0.0
 10
115.428568
 20
551.714284
 30
0.0
 10
111.714288
 20
540.857140
 30
0.0
 10
122.000000
 20
539.142860
 30
0.0
 10
125.714288
 20
536.571428
 30
0.0
 10
119.428568
 20
534.571428
 30
0.0
 10
119.142856
 20
531.142860
 30
0.0
 10
122.000000
 20
528.857140
 30
0.0
 10
112.857144
 20
516.285716
 30
0.0
 10
119.428568
 20
505.428572
 30
0.0
 10
110.285712
 20
494.285716
 30
0.0
 10
107.428568
 20
488.000004
 30
0.0
 10
106.571432
 20
483.714284
 30
0.0
 10
108.857144
 20
475.142860
 30
0.0
 10
112.857144
 20
470.571428
 30
0.0
 10
117.142856
 20
470.857140
 30
0.0
 10
130.000000
 20
463.714284
 30
0.0
 10
134.285712
 20
466.000004
 30
0.0
 10
137.714288
 20
478.000004
 30
0.0
 10
144.000000
 20
482.571428
 30
0.0
 10
144.000000
 20
486.285716
 30
0.0
 10
150.285712
 20
488.857140
 30
0.0
 10
153.142856
 20
502.000004
 30
0.0
 10
151.142856
 20
505.142860
 30
0.0
 10
154.571432
 20
506.285716
 30
0.0
 10
155.428568
 20
516.285716
 30
0.0
 10
148.857144
 20
521.714284
 30
0.0
 10
137.428568
 20
542.000004
 30
0.0
 10
128.571432
 20
557.142860
 30
0.0
  0
LWPOLYLINE
  5
105
100
AcDbEntity
  8
Layer_1
 62
7
100
AcDbPolyline
 90
42
 70
1
 10
151.428568
 20
493.428572
 30
0.0
 10
154.571432
 20
488.285716
 30
0.0
 10
167.714288
 20
484.285716
 30
0.0
 10
169.714288
 20
480.285716
 30
0.0
 10
158.857144
 20
469.714284
 30
0.0
 10
154.571432
 20
469.428572
 30
0.0
 10
153.714288
 20
463.428572
 30
0.0
 10
158.571432
 20
458.285716
 30
0.0
 10
141.714288
 20
436.857140
 30
0.0
 10
145.714288
 20
423.428572
 30
0.0
 10
156.857144
 20
423.428572
 30
0.0
 10
156.285712
 20
413.714284
 30
0.0
 10
144.571432
 20
410.000004
 30
0.0
 10
138.285712
 20
396.285716
 30
0.0
 10
140.857144
 20
392.571428
 30
0.0
 10
139.714288
 20
388.857140
 30
0.0
 10
138.571432
 20
385.714284
 30
0.0
 10
133.714288
 20
388.571428
 30
0.0
 10
133.714288
 20
390.285716
 30
0.0
 10
126.857144
 20
395.428572
 30
0.0
 10
114.571432
 20
390.000004
 30
0.0
 10
109.428568
 20
378.285716
 30
0.0
 10
99.142856
 20
378.000004
 30
0.0
 10
104.285712
 20
390.000004
 30
0.0
 10
99.428568
 20
396.285716
 30
0.0
 10
104.000000
 20
413.714284
 30
0.0
 10
99.428568
 20
419.428572
 30
0.0
 10
105.142856
 20
425.142860
 30
0.0
 10
102.285712
 20
438.285716
 30
0.0
 10
94.571432
 20
437.714284
 30
0.0
 10
88.571432
 20
444.857140
 30
0.0
 10
107.142856
 20
452.285716
 30
0.0
 10
105.428568
 20
462.857140
 30
0.0
 10
100.571432
 20
466.285716
 30
0.0
 10
100.857144
 20
472.000004
 30
0.0
 10
107.428568
 20
476.000004
 30
0.0
 10
112.571432
 20
471.428572
 30
0.0
 10
119.142856
 20
470.857140
 30
0.0
 10
130.285712
 20
464.571428
 30
0.0
 10
136.857144
 20
476.285716
 30
0.0
 10
142.857144
 20
484.857140
 30
0.0
 10
151.428568
 20
493.428572
 30
0.0
  0
LWPOLYLINE
  5
106
100
AcDbEntity
  8
Layer_1
 62
7
100
AcDbPolyline
 90
41
 70
1
 10
157.428568
 20
456.857140
 30
0.0
 10
162.857144
 20
457.142860
 30
0.0
 10
174.000000
 20
452.000004
 30
0.0
 10
174.571432
 20
445.142860
 30
0.0
 10
179.142856
 20
440.857140
 30
0.0
 10
178.571432
 20
437.142860
 30
0.0
 10
175.428568
 20
435.428572
 30
0.0
 10
176.857144
 20
425.428572
 30
0.0
 10
206.857144
 20
423.142860
 30
0.0
 10
208.857144
 20
428.571428
 30
0.0
 10
218.571432
 20
429.142860
 30
0.0
 10
218.000000
 20
423.142860
 30
0.0
 10
201.428568
 20
404.571428
 30
0.0
 10
200.000000
 20
394.000004
 30
0.0
 10
194.285712
 20
389.142860
 30
0.0
 10
178.285712
 20
399.142860
 30
0.0
 10
162.571432
 20
400.571428
 30
0.0
 10
158.000000
 20
389.142860
 30
0.0
 10
158.571432
 20
377.714284
 30
0.0
 10
170.571432
 20
369.428572
 30
0.0
 10
168.000000
 20
363.428572
 30
0.0
 10
148.285712
 20
370.000004
 30
0.0
 10
139.428568
 20
371.428572
 30
0.0
 10
135.428568
 20
366.571428
 30
0.0
 10
129.142856
 20
365.714284
 30
0.0
 10
124.857144
 20
362.571428
 30
0.0
 10
117.142856
 20
362.285716
 30
0.0
 10
120.571432
 20
371.142860
 30
0.0
 10
109.428568
 20
378.571428
 30
0.0
 10
114.857144
 20
390.571428
 30
0.0
 10
126.571432
 20
395.142860
 30
0.0
 10
134.000000
 20
390.857140
 30
0.0
 10
138.285712
 20
386.571428
 30
0.0
 10
140.857144
 20
391.714284
 30
0.0
 10
137.428568
 20
395.714284
 30
0.0
 10
143.428568
 20
409.428572
 30
0.0
 10
155.428568
 20
415.142860
 30
0.0
 10
156.285712
 20
422.285716
 30
0.0
 10
146.000000
 20
423.428572
 30
0.0
 10
140.857144
 20
436.000004
 30
0.0
 10
157.428568
 20
456.857140
 30
0.0
  0
LWPOLYLINE
  5
107
100
AcDbEntity
  8
Layer_1
 62
7
100
AcDbPolyline
 90
47
 70
1
 10
99.428568
 20
378.000004
 30
0.0
 10
104.857144
 20
389.428572
 30
0.0
 10
101.142856
 20
396.000004
 30
0.0
 10
105.142856
 20
413.142860
 30
0.0
 10
101.142856
 20
419.714284
 30
0.0
 10
105.142856
 20
424.285716
 30
0.0
 10
103.428568
 20
438.285716
 30
0.0
 10
95.428568
 20
438.857140
 30
0.0
 10
90.000000
 20
444.285716
 30
0.0
 10
108.000000
 20
452.000004
 30
0.0
 10
106.857144
 20
464.000004
 30
0.0
 10
102.000000
 20
466.857140
 30
0.0
 10
96.000000
 20
462.571428
 30
0.0
 10
94.285712
 20
466.285716
 30
0.0
 10
91.142856
 20
466.000004
 30
0.0
 10
78.857143
 20
450.285716
 30
0.0
 10
60.000000
 20
452.571428
 30
0.0
 10
59.714286
 20
463.142860
 30
0.0
 10
57.142858
 20
465.142860
 30
0.0
 10
54.285714
 20
461.142860
 30
0.0
 10
53.714286
 20
451.428572
 30
0.0
 10
45.142858
 20
455.142860
 30
0.0
 10
38.857143
 20
456.571428
 30
0.0
 10
40.857143
 20
450.857140
 30
0.0
 10
42.571429
 20
449.428572
 30
0.0
 10
38.571429
 20
445.428572
 30
0.0
 10
40.000000
 20
438.857140
 30
0.0
 10
35.714286
 20
436.285716
 30
0.0
 10
31.428571
 20
432.000004
 30
0.0
 10
40.571429
 20
426.857140
 30
0.0
 10
37.142858
 20
422.571428
 30
0.0
 10
27.714286
 20
426.000004
 30
0.0
 10
18.000000
 20
421.714284
 30
0.0
 10
16.285714
 20
414.000004
 30
0.0
 10
22.571429
 20
409.428572
 30
0.0
 10
33.142857
 20
410.571428
 30
0.0
 10
36.000000
 20
399.714284
 30
0.0
 10
35.714286
 20
379.142860
 30
0.0
 10
45.714286
 20
381.714284
 30
0.0
 10
47.142858
 20
390.285716
 30
0.0
 10
70.000000
 20
390.571428
 30
0.0
 10
78.000000
 20
384.000004
 30
0.0
 10
78.571429
 20
378.000004
 30
0.0
 10
81.142856
 20
378.571428
 30
0.0
 10
81.714288
 20
371.714284
 30
0.0
 10
93.142856
 20
369.714284
 30
0.0
 10
99.428568
 20
378.000004
 30
0.0
  0
LWPOLYLINE
  5
108
100
AcDbEntity
  8
Layer_1
 62
7
100
AcDbPolyline
 90
33
 70
1
 10
134.000000
 20
589.714284
 30
0.0
 10
146.285712
 20
604.000004
 30
0.0
 10
146.000000
 20
611.142860
 30
0.0
 10
145.142856
 20
622.285716
 30
0.0
 10
149.714288
 20
632.285716
 30
0.0
 10
150.285712
 20
638.285716
 30
0.0
 10
145.142856
 20
640.571428
 30
0.0
 10
144.571432
 20
646.000004
 30
0.0
 10
154.571432
 20
653.714284
 30
0.0
 10
193.142856
 20
662.285716
 30
0.0
 10
215.142856
 20
664.000004
 30
0.0
 10
221.714288
 20
660.571428
 30
0.0
 10
225.142856
 20
644.285716
 30
0.0
 10
241.428568
 20
644.571428
 30
0.0
 10
248.285712
 20
635.714284
 30
0.0
 10
245.142856
 20
626.571428
 30
0.0
 10
244.571432
 20
621.428572
 30
0.0
 10
260.000000
 20
602.857148
 30
0.0
 10
266.285712
 20
601.714284
 30
0.0
 10
270.000000
 20
570.571428
 30
0.0
 10
256.285712
 20
566.285716
 30
0.0
 10
246.571432
 20
552.857140
 30
0.0
 10
217.714288
 20
548.571428
 30
0.0
 10
208.285712
 20
531.714284
 30
0.0
 10
175.714288
 20
504.571428
 30
0.0
 10
162.000000
 20
502.000004
 30
0.0
 10
154.000000
 20
506.285716
 30
0.0
 10
155.142856
 20
515.142860
 30
0.0
 10
147.142856
 20
521.714284
 30
0.0
 10
128.000000
 20
556.000004
 30
0.0
 10
117.714288
 20
566.857140
 30
0.0
 10
129.428568
 20
575.714284
 30
0.0
 10
134.000000
 20
589.714284
 30
0.0
  0
SPLINE
  5
109
100
AcDbEntity
  8
Layer_1
 62
7
100
AcDbSpline
 70
8
 71
3
 72
8
 73
4
 74
0
 40
0
 40
0
 40
0
 40
0
 40
1
 40
1
 40
1
 40
1
 10
37.142858
 20
334.571428
 30
0.0
 10
37.142858
 20
333.142860
 30
0.0
 10
35.428571
 20
320.285716
 30
0.0
 10
35.428571
 20
320.285716
 30
0.0
  0
LWPOLYLINE
  5
10a
100
AcDbEntity
  8
Layer_1
 62
7
100
AcDbPolyline
 90
27
 70
1
 10
35.714286
 20
379.428572
 30
0.0
 10
34.000000
 20
374.571428
 30
0.0
 10
35.142857
 20
368.285716
 30
0.0
 10
28.857143
 20
358.571428
 30
0.0
 10
26.857143
 20
353.428572
 30
0.0
 10
34.857143
 20
350.000004
 30
0.0
 10
34.285714
 20
345.428572
 30
0.0
 10
33.142857
 20
338.000004
 30
0.0
 10
32.285714
 20
334.857140
 30
0.0
 10
45.428571
 20
333.142860
 30
0.0
 10
49.142858
 20
337.142860
 30
0.0
 10
53.142858
 20
336.000004
 30
0.0
 10
59.428571
 20
339.428572
 30
0.0
 10
61.142858
 20
336.000004
 30
0.0
 10
64.571429
 20
339.428572
 30
0.0
 10
72.857143
 20
332.857140
 30
0.0
 10
76.571429
 20
342.000004
 30
0.0
 10
73.714286
 20
347.714284
 30
0.0
 10
74.571429
 20
352.285716
 30
0.0
 10
75.428571
 20
373.142860
 30
0.0
 10
79.142858
 20
379.428572
 30
0.0
 10
79.428571
 20
385.142860
 30
0.0
 10
70.857143
 20
391.428572
 30
0.0
 10
48.285714
 20
392.000004
 30
0.0
 10
46.000000
 20
389.142860
 30
0.0
 10
45.714286
 20
383.142860
 30
0.0
 10
35.714286
 20
379.428572
 30
0.0
  0
LWPOLYLINE
  5
10b
100
AcDbEntity
  8
Layer_1
 62
7
100
AcDbPolyline
 90
73
 70
1
 10
35.428571
 20
320.285716
 30
0.0
 10
29.142857
 20
311.142860
 30
0.0
 10
34.285714
 20
305.142860
 30
0.0
 10
36.571429
 20
294.285716
 30
0.0
 10
34.000000
 20
290.571428
 30
0.0
 10
35.142857
 20
282.000004
 30
0.0
 10
32.571429
 20
273.714284
 30
0.0
 10
22.571429
 20
260.857140
 30
0.0
 10
18.571429
 20
247.142860
 30
0.0
 10
12.857143
 20
252.285716
 30
0.0
 10
11.428571
 20
248.000004
 30
0.0
 10
3.428571
 20
250.571428
 30
0.0
 10
4.571429
 20
241.428572
 30
0.0
 10
12.857143
 20
236.285716
 30
0.0
 10
-4.857143
 20
234.857140
 30
0.0
 10
-26.857143
 20
215.714284
 30
0.0
 10
-32.285714
 20
198.000004
 30
0.0
 10
-36.857143
 20
202.000004
 30
0.0
 10
-45.428571
 20
194.571428
 30
0.0
 10
-30.000000
 20
174.857140
 30
0.0
 10
-11.714286
 20
166.857140
 30
0.0
 10
-7.714286
 20
160.285716
 30
0.0
 10
0.285714
 20
156.000004
 30
0.0
 10
14.000000
 20
172.857140
 30
0.0
 10
13.142857
 20
182.000004
 30
0.0
 10
16.571429
 20
182.285716
 30
0.0
 10
17.428571
 20
187.714284
 30
0.0
 10
34.857143
 20
200.571428
 30
0.0
 10
52.000000
 20
206.285716
 30
0.0
 10
52.000000
 20
211.142860
 30
0.0
 10
59.142858
 20
206.857140
 30
0.0
 10
60.000000
 20
212.857140
 30
0.0
 10
70.000000
 20
218.285716
 30
0.0
 10
70.285714
 20
223.428572
 30
0.0
 10
74.857143
 20
228.571428
 30
0.0
 10
78.857143
 20
216.857140
 30
0.0
 10
90.285712
 20
214.285716
 30
0.0
 10
95.428568
 20
220.857140
 30
0.0
 10
106.285712
 20
237.428572
 30
0.0
 10
110.857144
 20
251.428572
 30
0.0
 10
130.571432
 20
250.285716
 30
0.0
 10
131.714288
 20
266.285716
 30
0.0
 10
138.285712
 20
267.714284
 30
0.0
 10
142.571432
 20
302.571428
 30
0.0
 10
136.571432
 20
306.571428
 30
0.0
 10
121.428568
 20
302.000004
 30
0.0
 10
114.857144
 20
320.285716
 30
0.0
 10
118.000000
 20
331.428572
 30
0.0
 10
120.571432
 20
333.714284
 30
0.0
 10
127.142856
 20
334.000004
 30
0.0
 10
130.285712
 20
340.857140
 30
0.0
 10
126.857144
 20
348.857140
 30
0.0
 10
119.714288
 20
349.142860
 30
0.0
 10
110.000000
 20
353.714284
 30
0.0
 10
118.571432
 20
363.428572
 30
0.0
 10
122.000000
 20
373.142860
 30
0.0
 10
111.142856
 20
378.857140
 30
0.0
 10
100.000000
 20
379.142860
 30
0.0
 10
92.571432
 20
370.857140
 30
0.0
 10
82.285712
 20
372.285716
 30
0.0
 10
81.142856
 20
380.000004
 30
0.0
 10
76.857143
 20
380.000004
 30
0.0
 10
74.000000
 20
369.428572
 30
0.0
 10
72.571429
 20
348.571428
 30
0.0
 10
75.142858
 20
341.142860
 30
0.0
 10
73.428571
 20
335.428572
 30
0.0
 10
65.142858
 20
340.571428
 30
0.0
 10
62.285714
 20
338.000004
 30
0.0
 10
60.000000
 20
342.000004
 30
0.0
 10
53.714286
 20
336.571428
 30
0.0
 10
48.571429
 20
338.285716
 30
0.0
 10
45.428571
 20
333.714284
 30
0.0
 10
37.142858
 20
334.571428
 30
0.0
  0
LWPOLYLINE
  5
10c
100
AcDbEntity
  8
Layer_1
 62
7
100
AcDbPolyline
 90
68
 70
1
 10
33.428571
 20
376.285716
 30
0.0
 10
22.571429
 20
379.142860
 30
0.0
 10
17.428571
 20
378.285716
 30
0.0
 10
16.285714
 20
382.285716
 30
0.0
 10
10.857143
 20
380.000004
 30
0.0
 10
9.142857
 20
384.571428
 30
0.0
 10
5.428571
 20
391.428572
 30
0.0
 10
-9.142857
 20
384.571428
 30
0.0
 10
-9.714286
 20
388.857140
 30
0.0
 10
-20.000000
 20
393.428572
 30
0.0
 10
-27.142857
 20
392.857140
 30
0.0
 10
-36.857143
 20
397.714284
 30
0.0
 10
-37.714286
 20
402.000004
 30
0.0
 10
-59.714286
 20
400.571428
 30
0.0
 10
-68.285714
 20
402.000004
 30
0.0
 10
-73.428571
 20
404.000004
 30
0.0
 10
-76.000000
 20
401.428572
 30
0.0
 10
-86.285712
 20
400.571428
 30
0.0
 10
-90.000000
 20
403.142860
 30
0.0
 10
-90.285712
 20
393.428572
 30
0.0
 10
-98.000000
 20
376.571428
 30
0.0
 10
-106.571432
 20
370.285716
 30
0.0
 10
-106.285712
 20
365.714284
 30
0.0
 10
-101.428568
 20
364.571428
 30
0.0
 10
-98.000000
 20
360.857140
 30
0.0
 10
-100.857144
 20
358.571428
 30
0.0
 10
-82.857144
 20
339.428572
 30
0.0
 10
-88.000000
 20
336.000004
 30
0.0
 10
-82.285712
 20
329.142860
 30
0.0
 10
-76.571429
 20
335.428572
 30
0.0
 10
-64.285714
 20
323.714284
 30
0.0
 10
-70.000000
 20
320.857140
 30
0.0
 10
-64.857143
 20
306.000004
 30
0.0
 10
-57.428571
 20
302.000004
 30
0.0
 10
-58.000000
 20
293.714284
 30
0.0
 10
-49.428571
 20
293.714284
 30
0.0
 10
-40.857143
 20
288.571428
 30
0.0
 10
-38.571429
 20
258.000004
 30
0.0
 10
-47.714286
 20
257.428572
 30
0.0
 10
-52.285714
 20
246.571428
 30
0.0
 10
-47.714286
 20
239.714284
 30
0.0
 10
-38.571429
 20
239.428572
 30
0.0
 10
-33.714286
 20
212.571428
 30
0.0
 10
-34.000000
 20
203.714284
 30
0.0
 10
-36.571429
 20
201.142860
 30
0.0
 10
-32.857143
 20
197.714284
 30
0.0
 10
-25.714286
 20
215.142860
 30
0.0
 10
-4.571429
 20
234.285716
 30
0.0
 10
14.857143
 20
235.142860
 30
0.0
 10
6.000000
 20
241.714284
 30
0.0
 10
4.000000
 20
249.714284
 30
0.0
 10
12.000000
 20
247.714284
 30
0.0
 10
13.142857
 20
250.857140
 30
0.0
 10
19.714286
 20
246.000004
 30
0.0
 10
24.571429
 20
262.857140
 30
0.0
 10
34.000000
 20
273.142860
 30
0.0
 10
37.142858
 20
282.571428
 30
0.0
 10
35.428571
 20
288.285716
 30
0.0
 10
38.000000
 20
294.000004
 30
0.0
 10
34.000000
 20
308.285716
 30
0.0
 10
30.857143
 20
310.285716
 30
0.0
 10
35.428571
 20
318.000004
 30
0.0
 10
38.571429
 20
335.428572
 30
0.0
 10
34.000000
 20
335.714284
 30
0.0
 10
35.428571
 20
350.000004
 30
0.0
 10
29.142857
 20
354.285716
 30
0.0
 10
36.000000
 20
368.571428
 30
0.0
 10
33.428571
 20
376.285716
 30
0.0
  0
LWPOLYLINE
  5
10d
100
AcDbEntity
  8
Layer_1
 62
7
100
AcDbPolyline
 90
44
 70
1
 10
-103.142856
 20
364.857140
 30
0.0
 10
-110.285712
 20
363.714284
 30
0.0
 10
-118.571432
 20
364.857140
 30
0.0
 10
-122.857144
 20
354.000004
 30
0.0
 10
-119.428568
 20
349.142860
 30
0.0
 10
-123.142856
 20
338.285716
 30
0.0
 10
-130.857144
 20
342.285716
 30
0.0
 10
-144.000000
 20
342.000004
 30
0.0
 10
-149.714288
 20
345.142860
 30
0.0
 10
-150.857144
 20
342.857140
 30
0.0
 10
-148.285712
 20
340.571428
 30
0.0
 10
-150.000000
 20
334.571428
 30
0.0
 10
-143.428568
 20
331.142860
 30
0.0
 10
-138.000000
 20
310.571428
 30
0.0
 10
-141.714288
 20
303.142860
 30
0.0
 10
-132.285712
 20
281.428572
 30
0.0
 10
-116.285712
 20
278.285716
 30
0.0
 10
-106.285712
 20
265.142860
 30
0.0
 10
-109.714288
 20
253.142860
 30
0.0
 10
-106.857144
 20
246.000004
 30
0.0
 10
-99.714288
 20
243.428572
 30
0.0
 10
-87.428568
 20
256.571428
 30
0.0
 10
-79.714286
 20
256.571428
 30
0.0
 10
-78.000000
 20
260.000004
 30
0.0
 10
-72.571429
 20
257.714284
 30
0.0
 10
-64.285714
 20
266.857140
 30
0.0
 10
-57.142858
 20
257.428572
 30
0.0
 10
-48.000000
 20
255.714284
 30
0.0
 10
-36.285714
 20
257.714284
 30
0.0
 10
-39.428571
 20
288.857140
 30
0.0
 10
-47.142858
 20
294.285716
 30
0.0
 10
-55.714286
 20
294.571428
 30
0.0
 10
-56.285714
 20
301.714284
 30
0.0
 10
-62.857143
 20
306.285716
 30
0.0
 10
-68.857143
 20
320.000004
 30
0.0
 10
-62.857143
 20
323.142860
 30
0.0
 10
-74.571429
 20
335.142860
 30
0.0
 10
-76.571429
 20
337.142860
 30
0.0
 10
-82.571432
 20
330.285716
 30
0.0
 10
-86.857144
 20
335.714284
 30
0.0
 10
-81.428568
 20
340.571428
 30
0.0
 10
-99.142856
 20
358.571428
 30
0.0
 10
-96.857144
 20
361.428572
 30
0.0
 10
-103.142856
 20
364.857140
 30
0.0
  0
LWPOLYLINE
  5
10e
100
AcDbEntity
  8
Layer_1
 62
7
100
AcDbPolyline
 90
26
 70
1
 10
-101.714288
 20
244.000004
 30
0.0
 10
-100.285712
 20
238.857140
 30
0.0
 10
-96.571432
 20
237.714284
 30
0.0
 10
-91.142856
 20
214.285716
 30
0.0
 10
-84.571432
 20
212.000004
 30
0.0
 10
-80.285712
 20
198.857140
 30
0.0
 10
-48.857143
 20
200.857140
 30
0.0
 10
-47.142858
 20
194.857140
 30
0.0
 10
-43.428571
 20
193.428572
 30
0.0
 10
-36.000000
 20
200.571428
 30
0.0
 10
-33.142857
 20
203.714284
 30
0.0
 10
-32.857143
 20
213.714284
 30
0.0
 10
-36.857143
 20
238.000004
 30
0.0
 10
-40.000000
 20
240.857140
 30
0.0
 10
-46.000000
 20
240.857140
 30
0.0
 10
-50.857143
 20
245.714284
 30
0.0
 10
-48.000000
 20
255.714284
 30
0.0
 10
-54.857143
 20
257.714284
 30
0.0
 10
-62.857143
 20
267.428572
 30
0.0
 10
-65.714286
 20
266.857140
 30
0.0
 10
-72.285714
 20
258.285716
 30
0.0
 10
-76.857143
 20
260.571428
 30
0.0
 10
-80.571432
 20
257.714284
 30
0.0
 10
-87.714288
 20
258.000004
 30
0.0
 10
-99.714288
 20
244.571428
 30
0.0
 10
-101.714288
 20
244.000004
 30
0.0
  0
LWPOLYLINE
  5
10f
100
AcDbEntity
  8
Layer_1
 62
7
100
AcDbPolyline
 90
49
 70
1
 10
-104.571432
 20
483.714284
 30
0.0
 10
-102.857144
 20
461.428572
 30
0.0
 10
-102.857144
 20
451.714284
 30
0.0
 10
-100.571432
 20
438.000004
 30
0.0
 10
-96.857144
 20
431.428572
 30
0.0
 10
-88.285712
 20
434.000004
 30
0.0
 10
-88.857144
 20
438.285716
 30
0.0
 10
-82.000000
 20
441.714284
 30
0.0
 10
-81.428568
 20
446.571428
 30
0.0
 10
-69.142858
 20
449.428572
 30
0.0
 10
-64.571429
 20
446.285716
 30
0.0
 10
-62.857143
 20
450.571428
 30
0.0
 10
-59.142858
 20
454.571428
 30
0.0
 10
-59.428571
 20
459.428572
 30
0.0
 10
-55.714286
 20
455.714284
 30
0.0
 10
-51.714286
 20
459.428572
 30
0.0
 10
-42.000000
 20
454.000004
 30
0.0
 10
-42.000000
 20
445.142860
 30
0.0
 10
-43.714286
 20
440.571428
 30
0.0
 10
-40.571429
 20
438.857140
 30
0.0
 10
-35.142857
 20
442.857140
 30
0.0
 10
-37.142858
 20
447.714284
 30
0.0
 10
-30.000000
 20
462.285716
 30
0.0
 10
-25.714286
 20
462.571428
 30
0.0
 10
-25.428571
 20
468.000004
 30
0.0
 10
-35.428571
 20
469.142860
 30
0.0
 10
-34.285714
 20
476.285716
 30
0.0
 10
-28.285714
 20
472.857140
 30
0.0
 10
-18.000000
 20
482.571428
 30
0.0
 10
-25.428571
 20
494.571428
 30
0.0
 10
-24.571429
 20
502.571428
 30
0.0
 10
-20.857143
 20
505.714284
 30
0.0
 10
-22.285714
 20
509.142860
 30
0.0
 10
-25.428571
 20
509.428572
 30
0.0
 10
-25.714286
 20
514.571428
 30
0.0
 10
-29.142857
 20
516.571428
 30
0.0
 10
-25.142857
 20
523.142860
 30
0.0
 10
-33.428571
 20
521.142860
 30
0.0
 10
-34.285714
 20
511.428572
 30
0.0
 10
-41.142858
 20
502.000004
 30
0.0
 10
-56.285714
 20
497.428572
 30
0.0
 10
-72.571429
 20
507.714284
 30
0.0
 10
-76.000000
 20
504.857140
 30
0.0
 10
-71.142858
 20
494.571428
 30
0.0
 10
-74.857143
 20
495.142860
 30
0.0
 10
-74.285714
 20
480.857140
 30
0.0
 10
-83.142856
 20
477.714284
 30
0.0
 10
-98.285712
 20
484.000004
 30
0.0
 10
-104.571432
 20
483.714284
 30
0.0
  0
LWPOLYLINE
  5
110
100
AcDbEntity
  8
Layer_1
 62
7
100
AcDbPolyline
 90
70
 70
1
 10
-25.142857
 20
522.285716
 30
0.0
 10
-29.142857
 20
518.000004
 30
0.0
 10
-28.285714
 20
514.285716
 30
0.0
 10
-25.428571
 20
513.428572
 30
0.0
 10
-25.714286
 20
508.857140
 30
0.0
 10
-22.285714
 20
508.285716
 30
0.0
 10
-21.714286
 20
505.142860
 30
0.0
 10
-24.285714
 20
503.428572
 30
0.0
 10
-25.428571
 20
495.142860
 30
0.0
 10
-19.142857
 20
483.142860
 30
0.0
 10
-14.571429
 20
479.428572
 30
0.0
 10
-22.285714
 20
475.714284
 30
0.0
 10
-23.142857
 20
472.857140
 30
0.0
 10
-15.428571
 20
473.428572
 30
0.0
 10
-13.714286
 20
465.142860
 30
0.0
 10
-4.857143
 20
467.428572
 30
0.0
 10
-2.571429
 20
455.428572
 30
0.0
 10
-7.142857
 20
451.714284
 30
0.0
 10
-9.714286
 20
446.571428
 30
0.0
 10
4.857143
 20
439.714284
 30
0.0
 10
3.714286
 20
436.285716
 30
0.0
 10
-0.285714
 20
436.285716
 30
0.0
 10
-4.285714
 20
425.428572
 30
0.0
 10
-9.714286
 20
426.000004
 30
0.0
 10
-8.285714
 20
419.428572
 30
0.0
 10
-16.571429
 20
419.142860
 30
0.0
 10
-14.571429
 20
404.857140
 30
0.0
 10
-18.857143
 20
402.571428
 30
0.0
 10
-20.571429
 20
392.571428
 30
0.0
 10
-11.714286
 20
388.857140
 30
0.0
 10
-10.000000
 20
383.428572
 30
0.0
 10
5.142857
 20
390.571428
 30
0.0
 10
10.571429
 20
380.285716
 30
0.0
 10
15.714286
 20
380.285716
 30
0.0
 10
20.857143
 20
376.285716
 30
0.0
 10
37.142858
 20
374.571428
 30
0.0
 10
38.000000
 20
399.428572
 30
0.0
 10
34.857143
 20
411.428572
 30
0.0
 10
24.285714
 20
410.857140
 30
0.0
 10
18.000000
 20
414.000004
 30
0.0
 10
18.000000
 20
420.571428
 30
0.0
 10
27.428571
 20
425.142860
 30
0.0
 10
36.285714
 20
422.000004
 30
0.0
 10
41.428571
 20
426.571428
 30
0.0
 10
33.714286
 20
432.000004
 30
0.0
 10
40.000000
 20
437.428572
 30
0.0
 10
40.000000
 20
444.285716
 30
0.0
 10
43.142858
 20
447.714284
 30
0.0
 10
40.571429
 20
454.857140
 30
0.0
 10
46.571429
 20
454.571428
 30
0.0
 10
49.142858
 20
458.000004
 30
0.0
 10
38.571429
 20
463.714284
 30
0.0
 10
37.142858
 20
469.428572
 30
0.0
 10
46.857143
 20
470.571428
 30
0.0
 10
46.285714
 20
477.714284
 30
0.0
 10
42.857143
 20
481.428572
 30
0.0
 10
44.571429
 20
491.142860
 30
0.0
 10
39.714286
 20
496.285716
 30
0.0
 10
42.000000
 20
509.142860
 30
0.0
 10
48.571429
 20
512.000004
 30
0.0
 10
42.857143
 20
527.714284
 30
0.0
 10
25.428571
 20
530.285716
 30
0.0
 10
19.714286
 20
546.571428
 30
0.0
 10
15.714286
 20
547.428572
 30
0.0
 10
14.285714
 20
542.000004
 30
0.0
 10
10.285714
 20
544.285716
 30
0.0
 10
2.571429
 20
536.857140
 30
0.0
 10
-5.142857
 20
537.428572
 30
0.0
 10
-4.571429
 20
526.857140
 30
0.0
 10
-25.142857
 20
522.285716
 30
0.0
  0
LWPOLYLINE
  5
111
100
AcDbEntity
  8
Layer_1
 62
7
100
AcDbPolyline
 90
27
 70
1
 10
-96.285712
 20
431.714284
 30
0.0
 10
-91.142856
 20
425.714284
 30
0.0
 10
-75.714286
 20
420.000004
 30
0.0
 10
-70.285714
 20
415.428572
 30
0.0
 10
-70.285714
 20
412.285716
 30
0.0
 10
-59.428571
 20
400.571428
 30
0.0
 10
-61.428571
 20
406.000004
 30
0.0
 10
-61.714286
 20
413.142860
 30
0.0
 10
-55.428571
 20
416.000004
 30
0.0
 10
-56.000000
 20
424.857140
 30
0.0
 10
-48.285714
 20
431.142860
 30
0.0
 10
-47.714286
 20
440.571428
 30
0.0
 10
-42.857143
 20
444.571428
 30
0.0
 10
-41.428571
 20
454.857140
 30
0.0
 10
-50.285714
 20
459.714284
 30
0.0
 10
-52.285714
 20
460.857140
 30
0.0
 10
-55.142858
 20
456.285716
 30
0.0
 10
-59.714286
 20
461.142860
 30
0.0
 10
-59.714286
 20
456.000004
 30
0.0
 10
-61.428571
 20
452.000004
 30
0.0
 10
-64.000000
 20
446.857140
 30
0.0
 10
-68.571429
 20
450.000004
 30
0.0
 10
-81.142856
 20
447.142860
 30
0.0
 10
-82.571432
 20
442.857140
 30
0.0
 10
-88.857144
 20
439.428572
 30
0.0
 10
-88.857144
 20
433.428572
 30
0.0
 10
-96.285712
 20
431.714284
 30
0.0
  0
LWPOLYLINE
  5
112
100
AcDbEntity
  8
Layer_1
 62
7
100
AcDbPolyline
 90
44
 70
1
 10
-59.714286
 20
400.571428
 30
0.0
 10
-37.428571
 20
401.428572
 30
0.0
 10
-38.000000
 20
397.142860
 30
0.0
 10
-28.000000
 20
392.571428
 30
0.0
 10
-19.142857
 20
392.571428
 30
0.0
 10
-17.714286
 20
401.142860
 30
0.0
 10
-12.857143
 20
404.285716
 30
0.0
 10
-14.857143
 20
417.142860
 30
0.0
 10
-7.714286
 20
418.000004
 30
0.0
 10
-8.571429
 20
424.285716
 30
0.0
 10
-3.714286
 20
424.285716
 30
0.0
 10
1.142857
 20
435.428572
 30
0.0
 10
5.428571
 20
435.714284
 30
0.0
 10
6.571429
 20
440.285716
 30
0.0
 10
-7.142857
 20
446.857140
 30
0.0
 10
-5.428571
 20
451.142860
 30
0.0
 10
-2.000000
 20
455.142860
 30
0.0
 10
-2.857143
 20
467.428572
 30
0.0
 10
-6.857143
 20
469.142860
 30
0.0
 10
-11.714286
 20
465.714284
 30
0.0
 10
-14.571429
 20
472.285716
 30
0.0
 10
-20.571429
 20
473.714284
 30
0.0
 10
-20.571429
 20
475.428572
 30
0.0
 10
-13.428571
 20
478.857140
 30
0.0
 10
-16.857143
 20
483.142860
 30
0.0
 10
-27.714286
 20
474.571428
 30
0.0
 10
-33.142857
 20
476.571428
 30
0.0
 10
-35.428571
 20
477.142860
 30
0.0
 10
-35.714286
 20
469.428572
 30
0.0
 10
-24.857143
 20
467.714284
 30
0.0
 10
-25.428571
 20
462.857140
 30
0.0
 10
-32.000000
 20
462.857140
 30
0.0
 10
-36.857143
 20
450.285716
 30
0.0
 10
-36.000000
 20
442.857140
 30
0.0
 10
-40.571429
 20
439.428572
 30
0.0
 10
-41.428571
 20
441.428572
 30
0.0
 10
-42.285714
 20
446.571428
 30
0.0
 10
-47.142858
 20
441.714284
 30
0.0
 10
-49.428571
 20
431.428572
 30
0.0
 10
-56.285714
 20
426.571428
 30
0.0
 10
-56.857143
 20
415.428572
 30
0.0
 10
-62.285714
 20
413.714284
 30
0.0
 10
-62.285714
 20
405.714284
 30
0.0
 10
-59.714286
 20
400.571428
 30
0.0
  0
LWPOLYLINE
  5
113
100
AcDbEntity
  8
Layer_1
 62
7
100
AcDbPolyline
 90
50
 70
1
 10
-0.571429
 20
157.428572
 30
0.0
 10
11.714286
 20
172.285716
 30
0.0
 10
11.428571
 20
182.000004
 30
0.0
 10
16.285714
 20
182.857140
 30
0.0
 10
16.285714
 20
188.000004
 30
0.0
 10
32.000000
 20
200.857140
 30
0.0
 10
51.714286
 20
207.142860
 30
0.0
 10
51.714286
 20
211.714284
 30
0.0
 10
59.142858
 20
208.285716
 30
0.0
 10
60.000000
 20
213.714284
 30
0.0
 10
69.428571
 20
218.857140
 30
0.0
 10
70.285714
 20
224.571428
 30
0.0
 10
74.571429
 20
229.142860
 30
0.0
 10
78.285714
 20
222.857140
 30
0.0
 10
80.285712
 20
216.571428
 30
0.0
 10
89.714288
 20
214.000004
 30
0.0
 10
92.857144
 20
206.285716
 30
0.0
 10
90.285712
 20
201.714284
 30
0.0
 10
90.571432
 20
192.285716
 30
0.0
 10
87.142856
 20
189.428572
 30
0.0
 10
85.142856
 20
181.714284
 30
0.0
 10
89.714288
 20
178.857140
 30
0.0
 10
85.428568
 20
162.000004
 30
0.0
 10
79.142858
 20
167.142860
 30
0.0
 10
78.000000
 20
171.714284
 30
0.0
 10
73.142858
 20
172.000004
 30
0.0
 10
67.428571
 20
163.714284
 30
0.0
 10
66.857143
 20
154.857140
 30
0.0
 10
70.857143
 20
143.142860
 30
0.0
 10
75.714286
 20
142.285716
 30
0.0
 10
72.571429
 20
137.142860
 30
0.0
 10
62.857143
 20
128.571428
 30
0.0
 10
61.142858
 20
123.142860
 30
0.0
 10
59.714286
 20
118.285716
 30
0.0
 10
47.714286
 20
120.285716
 30
0.0
 10
42.857143
 20
121.714284
 30
0.0
 10
40.000000
 20
118.285716
 30
0.0
 10
24.857143
 20
119.142860
 30
0.0
 10
19.428571
 20
107.142860
 30
0.0
 10
11.714286
 20
106.571428
 30
0.0
 10
5.428571
 20
110.571428
 30
0.0
 10
-7.142857
 20
126.285716
 30
0.0
 10
-7.714286
 20
134.857140
 30
0.0
 10
-9.714286
 20
140.285716
 30
0.0
 10
-8.000000
 20
142.000004
 30
0.0
 10
-1.428571
 20
138.857140
 30
0.0
 10
8.571429
 20
145.428572
 30
0.0
 10
7.714286
 20
148.285716
 30
0.0
 10
0.285714
 20
151.142860
 30
0.0
 10
-0.571429
 20
157.428572
 30
0.0
  0
ENDSEC
  0
SECTION
  2
OBJECTS
  0
DICTIONARY
  5
C
330
0
100
AcDbDictionary
  3
ACAD_GROUP
350
D
  3
ACAD_MLINESTYLE
350
17
  0
DICTIONARY
  5
D
330
C
100
AcDbDictionary
  0
DICTIONARY
  5
1A
330
C
100
AcDbDictionary
  0
DICTIONARY
  5
17
330
C
100
AcDbDictionary
  3
STANDARD
350
18
  0
DICTIONARY
  5
19
330
C
100
AcDbDictionary
  0
ENDSEC
  0
EOF
