  0
SECTION
  2
HEADER
  9
$ACADVER
  1
AC1014
  9
$HANDSEED
  5
FFFF
  9
$MEASUREMENT
 70
     1
  0
ENDSEC
  0
SECTION
  2
TABLES
  0
TABLE
  2
VPORT
  5
8
330
0
100
AcDbSymbolTable
 70
     4
  0
VPORT
  5
2E
330
8
100
AcDbSymbolTableRecord
100
AcDbViewportTableRecord
  2
*ACTIVE
 70
     0
 10
0.0
 20
0.0
 11
1.0
 21
1.0
 12
210.0
 22
148.5
 13
0.0
 23
0.0
 14
10.0
 24
10.0
 15
10.0
 25
10.0
 16
0.0
 26
0.0
 36
1.0
 17
0.0
 27
0.0
 37
0.0
 40
341.0
 41
1.24
 42
50.0
 43
0.0
 44
0.0
 50
0.0
 51
0.0
 71
     0
 72
   100
 73
     1
 74
     3
 75
     0
 76
     0
 77
     0
 78
     0
  0
ENDTAB
  0
TABLE
  2
LTYPE
  5
5
330
0
100
AcDbSymbolTable
 70
     1
  0
LTYPE
  5
14
330
5
100
AcDbSymbolTableRecord
100
AcDbLinetypeTableRecord
  2
BYBLOCK
 70
     0
  3

 72
    65
 73
     0
 40
0.0
  0
LTYPE
  5
15
330
5
100
AcDbSymbolTableRecord
100
AcDbLinetypeTableRecord
  2
BYLAYER
 70
     0
  3

 72
    65
 73
     0
 40
0.0
  0
LTYPE
  5
16
330
5
100
AcDbSymbolTableRecord
100
AcDbLinetypeTableRecord
  2
CONTINUOUS
 70
     0
  3
Solid line
 72
    65
 73
     0
 40
0.0
  0
ENDTAB
  0
TABLE
  2
LAYER
  5
2
100
AcDbSymbolTable
 70
2
  0
LAYER
  5
50
100
AcDbSymbolTableRecord
100
AcDbLayerTableRecord
  2
0
 70
0
  6
CONTINUOUS
  0
LAYER
  5
51
100
AcDbSymbolTableRecord
100
AcDbLayerTableRecord
  2
Layer_1
 70
0
  6
CONTINUOUS
  0
ENDTAB
  0
TABLE
  2
STYLE
  5
3
330
0
100
AcDbSymbolTable
 70
     1
  0
STYLE
  5
11
330
3
100
AcDbSymbolTableRecord
100
AcDbTextStyleTableRecord
  2
STANDARD
 70
     0
 40
0.0
 41
1.0
 50
0.0
 71
     0
 42
2.5
  3
txt
  4

  0
ENDTAB
  0
TABLE
  2
VIEW
  5
6
330
0
100
AcDbSymbolTable
 70
     0
  0
ENDTAB
  0
TABLE
  2
UCS
  5
7
330
0
100
AcDbSymbolTable
 70
     0
  0
ENDTAB
  0
TABLE
  2
APPID
  5
9
330
0
100
AcDbSymbolTable
 70
     2
  0
APPID
  5
12
330
9
100
AcDbSymbolTableRecord
100
AcDbRegAppTableRecord
  2
ACAD
 70
     0
  0
ENDTAB
  0
TABLE
  2
DIMSTYLE
  5
A
330
0
100
AcDbSymbolTable
 70
     1
  0
DIMSTYLE
105
27
330
A
100
AcDbSymbolTableRecord
100
AcDbDimStyleTableRecord
  2
ISO-25
 70
     0
  3

  4

  5

  6

  7

 40
1.0
 41
2.5
 42
0.625
 43
3.75
 44
1.25
 45
0.0
 46
0.0
 47
0.0
 48
0.0
140
2.5
141
2.5
142
0.0
143
0.03937007874016
144
1.0
145
0.0
146
1.0
147
0.625
 71
     0
 72
     0
 73
     0
 74
     0
 75
     0
 76
     0
 77
     1
 78
     8
170
     0
171
     3
172
     1
173
     0
174
     0
175
     0
176
     0
177
     0
178
     0
270
     2
271
     2
272
     2
273
     2
274
     3
340
11
275
     0
280
     0
281
     0
282
     0
283
     0
284
     8
285
     0
286
     0
287
     3
288
     0
  0
ENDTAB
  0
TABLE
  2
BLOCK_RECORD
  5
1
330
0
100
AcDbSymbolTable
 70
     1
  0
BLOCK_RECORD
  5
1F
330
1
100
AcDbSymbolTableRecord
100
AcDbBlockTableRecord
  2
*MODEL_SPACE
  0
BLOCK_RECORD
  5
1B
330
1
100
AcDbSymbolTableRecord
100
AcDbBlockTableRecord
  2
*PAPER_SPACE
  0
ENDTAB
  0
ENDSEC
  0
SECTION
  2
BLOCKS
  0
BLOCK
  5
20
330
1F
100
AcDbEntity
  8
0
100
AcDbBlockBegin
  2
*MODEL_SPACE
 70
     0
 10
0.0
 20
0.0
 30
0.0
  3
*MODEL_SPACE
  1

  0
ENDBLK
  5
21
330
1F
100
AcDbEntity
  8
0
100
AcDbBlockEnd
  0
BLOCK
  5
1C
330
1B
100
AcDbEntity
 67
     1
  8
0
100
AcDbBlockBegin
  2
*PAPER_SPACE
  1

  0
ENDBLK
  5
1D
330
1B
100
AcDbEntity
 67
     1
  8
0
100
AcDbBlockEnd
  0
ENDSEC
  0
SECTION
  2
ENTITIES
  0
LWPOLYLINE
  5
100
100
AcDbEntity
  8
Layer_1
 62
7
100
AcDbPolyline
 90
10
 70
1
 10
-191.524920
 20
484.873220
 30
0.0
 10
-168.089384
 20
484.065100
 30
0.0
 10
-170.513752
 20
442.850876
 30
0.0
 10
-138.996992
 20
443.658996
 30
0.0
 10
-137.380744
 20
505.076276
 30
0.0
 10
-132.532016
 20
519.622468
 30
0.0
 10
-144.653848
 20
532.552420
 30
0.0
 10
-172.129992
 20
540.633644
 30
0.0
 10
-180.211216
 20
527.703692
 30
0.0
 10
-191.524920
 20
484.873220
 30
0.0
  0
LWPOLYLINE
  5
101
100
AcDbEntity
  8
Layer_1
 62
7
100
AcDbPolyline
 90
13
 70
1
 10
-190.716800
 20
484.873220
 30
0.0
 10
-166.473136
 20
484.065100
 30
0.0
 10
-169.705624
 20
442.850876
 30
0.0
 10
-170.513752
 20
400.020412
 30
0.0
 10
-164.048776
 20
370.928012
 30
0.0
 10
-154.351312
 20
355.573700
 30
0.0
 10
-160.008160
 20
299.005156
 30
0.0
 10
-181.827456
 20
306.278252
 30
0.0
 10
-189.100560
 20
319.208204
 30
0.0
 10
-195.565536
 20
346.684356
 30
0.0
 10
-200.414264
 20
399.212284
 30
0.0
 10
-198.798024
 20
435.577780
 30
0.0
 10
-190.716800
 20
484.873220
 30
0.0
  0
LWPOLYLINE
  5
102
100
AcDbEntity
  8
Layer_1
 62
7
100
AcDbPolyline
 90
14
 70
1
 10
-131.723888
 20
519.622468
 30
0.0
 10
-114.753328
 20
514.773740
 30
0.0
 10
-101.015256
 20
517.198100
 30
0.0
 10
-71.114739
 20
492.146324
 30
0.0
 10
-52.527932
 20
467.902660
 30
0.0
 10
-41.214224
 20
457.397076
 30
0.0
 10
-52.527932
 20
438.002140
 30
0.0
 10
-54.144177
 20
421.839700
 30
0.0
 10
-73.539106
 20
408.101628
 30
0.0
 10
-81.620328
 20
410.525996
 30
0.0
 10
-91.317792
 20
423.455948
 30
0.0
 10
-140.613232
 20
442.042756
 30
0.0
 10
-137.380744
 20
505.884396
 30
0.0
 10
-131.723888
 20
519.622468
 30
0.0
  0
LWPOLYLINE
  5
103
100
AcDbEntity
  8
Layer_1
 62
7
100
AcDbPolyline
 90
8
 70
1
 10
-101.015256
 20
518.006228
 30
0.0
 10
-53.336054
 20
542.249884
 30
0.0
 10
-41.214224
 20
551.139228
 30
0.0
 10
-37.981736
 20
512.349372
 30
0.0
 10
-41.214224
 20
455.780828
 30
0.0
 10
-57.376665
 20
471.943268
 30
0.0
 10
-68.690373
 20
491.338196
 30
0.0
 10
-101.015256
 20
518.006228
 30
0.0
  0
LWPOLYLINE
  5
104
100
AcDbEntity
  8
Layer_1
 62
7
100
AcDbPolyline
 90
18
 70
1
 10
-53.336054
 20
423.455948
 30
0.0
 10
-53.336054
 20
438.810268
 30
0.0
 10
-42.022346
 20
458.205196
 30
0.0
 10
-39.597980
 20
519.622468
 30
0.0
 10
-42.830468
 20
549.522988
 30
0.0
 10
-31.516759
 20
557.604204
 30
0.0
 10
13.738074
 20
551.139228
 30
0.0
 10
48.487322
 20
518.006228
 30
0.0
 10
84.044688
 20
501.035660
 30
0.0
 10
75.155350
 20
490.530076
 30
0.0
 10
75.155350
 20
460.629564
 30
0.0
 10
71.114739
 20
395.171676
 30
0.0
 10
61.417274
 20
378.201116
 30
0.0
 10
14.546197
 20
355.573700
 30
0.0
 10
-8.081220
 20
353.149332
 30
0.0
 10
-3.232488
 20
392.747308
 30
0.0
 10
-8.889342
 20
405.677260
 30
0.0
 10
-53.336054
 20
423.455948
 30
0.0
  0
LWPOLYLINE
  5
105
100
AcDbEntity
  8
Layer_1
 62
7
100
AcDbPolyline
 90
10
 70
1
 10
-71.922862
 20
410.525996
 30
0.0
 10
-55.760421
 20
422.647828
 30
0.0
 10
-12.121830
 20
409.717876
 30
0.0
 10
-0.808122
 20
392.747308
 30
0.0
 10
-5.656854
 20
353.149332
 30
0.0
 10
-38.789858
 20
349.916844
 30
0.0
 10
-53.336054
 20
343.451868
 30
0.0
 10
-63.033519
 20
362.846796
 30
0.0
 10
-88.085304
 20
387.090452
 30
0.0
 10
-71.922862
 20
410.525996
 30
0.0
  0
LWPOLYLINE
  5
106
100
AcDbEntity
  8
Layer_1
 62
7
100
AcDbPolyline
 90
16
 70
1
 10
70.306617
 20
397.596044
 30
0.0
 10
74.347227
 20
489.721956
 30
0.0
 10
83.236568
 20
501.035660
 30
0.0
 10
124.450792
 20
480.832612
 30
0.0
 10
140.613232
 20
486.489468
 30
0.0
 10
193.141168
 20
465.478292
 30
0.0
 10
182.635584
 20
458.811284
 30
0.0
 10
176.574664
 20
446.285396
 30
0.0
 10
167.079232
 20
434.163564
 30
0.0
 10
160.816288
 20
421.031580
 30
0.0
 10
157.179736
 20
381.231572
 30
0.0
 10
141.219328
 20
393.151372
 30
0.0
 10
124.652824
 20
401.232588
 30
0.0
 10
94.146216
 20
403.050868
 30
0.0
 10
82.428448
 20
398.606196
 30
0.0
 10
70.306617
 20
397.596044
 30
0.0
  0
LWPOLYLINE
  5
107
100
AcDbEntity
  8
Layer_1
 62
7
100
AcDbPolyline
 90
20
 70
1
 10
192.737104
 20
466.286412
 30
0.0
 10
182.231520
 20
458.811284
 30
0.0
 10
177.382784
 20
447.699612
 30
0.0
 10
168.291416
 20
436.587932
 30
0.0
 10
160.614256
 20
422.041732
 30
0.0
 10
156.977704
 20
381.231572
 30
0.0
 10
162.836592
 20
365.069132
 30
0.0
 10
158.998008
 20
335.168612
 30
0.0
 10
151.522880
 20
317.591964
 30
0.0
 10
151.320848
 20
296.580788
 30
0.0
 10
166.069080
 20
255.770628
 30
0.0
 10
184.453856
 20
271.326972
 30
0.0
 10
200.010208
 20
298.197028
 30
0.0
 10
216.172648
 20
332.744252
 30
0.0
 10
219.405136
 20
358.200092
 30
0.0
 10
227.890416
 20
387.090460
 30
0.0
 10
230.314784
 20
430.729044
 30
0.0
 10
230.112752
 20
440.224476
 30
0.0
 10
234.961480
 20
451.336156
 30
0.0
 10
192.737104
 20
466.286412
 30
0.0
  0
LWPOLYLINE
  5
108
100
AcDbEntity
  8
Layer_1
 62
7
100
AcDbPolyline
 90
17
 70
1
 10
234.557424
 20
450.932100
 30
0.0
 10
295.166576
 20
433.961532
 30
0.0
 10
292.338144
 20
428.304676
 30
0.0
 10
285.873168
 20
415.374724
 30
0.0
 10
270.922912
 20
394.767612
 30
0.0
 10
267.084336
 20
386.484364
 30
0.0
 10
259.407176
 20
343.653900
 30
0.0
 10
238.800064
 20
305.672164
 30
0.0
 10
217.990920
 20
281.630532
 30
0.0
 10
203.444720
 20
260.821388
 30
0.0
 10
183.847760
 20
270.518852
 30
0.0
 10
201.020360
 20
300.015308
 30
0.0
 10
216.172648
 20
333.148308
 30
0.0
 10
219.405136
 20
358.806188
 30
0.0
 10
227.284320
 20
386.888428
 30
0.0
 10
230.112752
 20
440.830572
 30
0.0
 10
234.557424
 20
450.932100
 30
0.0
  0
LWPOLYLINE
  5
109
100
AcDbEntity
  8
Layer_1
 62
7
100
AcDbPolyline
 90
30
 70
1
 10
295.368608
 20
433.557476
 30
0.0
 10
329.915824
 20
424.466100
 30
0.0
 10
329.107696
 20
421.233612
 30
0.0
 10
321.228512
 20
407.899596
 30
0.0
 10
316.581808
 20
363.048828
 30
0.0
 10
306.480280
 20
328.097548
 30
0.0
 10
295.166576
 20
307.086372
 30
0.0
 10
290.519872
 20
293.146268
 30
0.0
 10
292.338144
 20
253.548292
 30
0.0
 10
300.217336
 20
236.375700
 30
0.0
 10
300.015304
 20
221.425436
 30
0.0
 10
283.852864
 20
216.980764
 30
0.0
 10
283.044744
 20
193.949292
 30
0.0
 10
294.762512
 20
180.817308
 30
0.0
 10
290.317840
 20
164.654868
 30
0.0
 10
276.983832
 20
156.371612
 30
0.0
 10
252.942200
 20
161.422380
 30
0.0
 10
241.628488
 20
194.555380
 30
0.0
 10
209.505640
 20
195.161476
 30
0.0
 10
197.585840
 20
200.818324
 30
0.0
 10
206.273152
 20
217.384828
 30
0.0
 10
203.242696
 20
261.831540
 30
0.0
 10
219.203104
 20
283.448804
 30
0.0
 10
239.406152
 20
307.086372
 30
0.0
 10
259.205144
 20
344.866076
 30
0.0
 10
266.478240
 20
386.080300
 30
0.0
 10
270.518848
 20
395.575740
 30
0.0
 10
285.873168
 20
415.778788
 30
0.0
 10
294.560480
 20
433.557476
 30
0.0
 10
295.368608
 20
433.557476
 30
0.0
  0
LWPOLYLINE
  5
10a
100
AcDbEntity
  8
Layer_1
 62
7
100
AcDbPolyline
 90
26
 70
1
 10
329.511760
 20
424.264068
 30
0.0
 10
357.391968
 20
416.990972
 30
0.0
 10
373.352384
 20
416.586908
 30
0.0
 10
418.607216
 20
434.365596
 30
0.0
 10
418.001120
 20
417.597060
 30
0.0
 10
414.566608
 20
388.908732
 30
0.0
 10
409.111784
 20
368.907708
 30
0.0
 10
409.111784
 20
357.391972
 30
0.0
 10
390.929032
 20
363.452884
 30
0.0
 10
354.967608
 20
365.473188
 30
0.0
 10
341.431560
 20
340.825468
 30
0.0
 10
332.340184
 20
313.551348
 30
0.0
 10
327.289424
 20
245.669100
 30
0.0
 10
326.885368
 20
234.759452
 30
0.0
 10
324.865056
 20
225.870108
 30
0.0
 10
319.208208
 20
216.980764
 30
0.0
 10
298.601096
 20
221.021380
 30
0.0
 10
300.015304
 20
235.769604
 30
0.0
 10
291.934088
 20
252.942196
 30
0.0
 10
289.913784
 20
293.954388
 30
0.0
 10
295.166576
 20
309.510740
 30
0.0
 10
305.874192
 20
328.097548
 30
0.0
 10
315.369624
 20
360.018364
 30
0.0
 10
315.975720
 20
364.058980
 30
0.0
 10
320.420384
 20
408.707724
 30
0.0
 10
329.511760
 20
424.264068
 30
0.0
  0
LWPOLYLINE
  5
10b
100
AcDbEntity
  8
Layer_1
 62
7
100
AcDbPolyline
 90
11
 70
1
 10
418.809248
 20
434.971684
 30
0.0
 10
491.944288
 20
466.488444
 30
0.0
 10
499.015360
 20
473.761548
 30
0.0
 10
521.036680
 20
446.285396
 30
0.0
 10
505.076272
 20
439.618388
 30
0.0
 10
494.166624
 20
412.344268
 30
0.0
 10
492.550384
 20
361.836644
 30
0.0
 10
408.505688
 20
356.987908
 30
0.0
 10
408.303656
 20
369.513804
 30
0.0
 10
413.758480
 20
388.706700
 30
0.0
 10
418.809248
 20
434.971684
 30
0.0
  0
LWPOLYLINE
  5
10c
100
AcDbEntity
  8
Layer_1
 62
7
100
AcDbPolyline
 90
18
 70
1
 10
521.036680
 20
446.083364
 30
0.0
 10
554.977808
 20
402.848836
 30
0.0
 10
560.634664
 20
381.231572
 30
0.0
 10
564.271216
 20
343.653900
 30
0.0
 10
585.686448
 20
285.671140
 30
0.0
 10
585.080352
 20
252.538140
 30
0.0
 10
572.150400
 20
229.102596
 30
0.0
 10
567.503704
 20
204.050812
 30
0.0
 10
529.319936
 20
223.445740
 30
0.0
 10
501.843784
 20
260.417324
 30
0.0
 10
489.721952
 20
292.136116
 30
0.0
 10
493.156472
 20
317.793988
 30
0.0
 10
499.621448
 20
334.158460
 30
0.0
 10
499.217392
 20
348.704660
 30
0.0
 10
492.146320
 20
362.240700
 30
0.0
 10
493.762568
 20
412.748332
 30
0.0
 10
504.066120
 20
440.022452
 30
0.0
 10
521.036680
 20
446.083364
 30
0.0
  0
LWPOLYLINE
  5
10d
100
AcDbEntity
  8
Layer_1
 62
7
100
AcDbPolyline
 90
7
 70
1
 10
409.111784
 20
358.200092
 30
0.0
 10
402.444776
 20
317.996020
 30
0.0
 10
493.358504
 20
316.177748
 30
0.0
 10
500.227544
 20
334.158460
 30
0.0
 10
500.025512
 20
349.310748
 30
0.0
 10
491.742256
 20
363.048828
 30
0.0
 10
409.111784
 20
358.200092
 30
0.0
  0
LWPOLYLINE
  5
10e
100
AcDbEntity
  8
Layer_1
 62
7
100
AcDbPolyline
 90
16
 70
1
 10
354.765576
 20
365.473188
 30
0.0
 10
341.431560
 20
342.239684
 30
0.0
 10
331.936128
 20
313.955412
 30
0.0
 10
326.077240
 20
241.426460
 30
0.0
 10
324.258968
 20
226.274172
 30
0.0
 10
318.400080
 20
217.384828
 30
0.0
 10
335.774704
 20
178.594972
 30
0.0
 10
356.987912
 20
158.998012
 30
0.0
 10
369.715832
 20
181.827460
 30
0.0
 10
385.474208
 20
212.334068
 30
0.0
 10
392.747312
 20
268.700580
 30
0.0
 10
395.979800
 20
308.702620
 30
0.0
 10
403.050864
 20
319.006172
 30
0.0
 10
410.121936
 20
359.008212
 30
0.0
 10
390.727008
 20
364.261012
 30
0.0
 10
354.765576
 20
365.473188
 30
0.0
  0
LWPOLYLINE
  5
10f
100
AcDbEntity
  8
Layer_1
 62
7
100
AcDbPolyline
 90
17
 70
1
 10
402.848832
 20
318.602116
 30
0.0
 10
395.575736
 20
309.308708
 30
0.0
 10
391.737160
 20
264.255908
 30
0.0
 10
384.464056
 20
212.132036
 30
0.0
 10
356.381816
 20
159.402076
 30
0.0
 10
349.108720
 20
122.632516
 30
0.0
 10
422.647824
 20
113.945204
 30
0.0
 10
544.068160
 20
127.683284
 30
0.0
 10
573.362584
 20
137.582780
 30
0.0
 10
565.079336
 20
154.957404
 30
0.0
 10
564.473240
 20
183.039644
 30
0.0
 10
567.301672
 20
205.262996
 30
0.0
 10
530.128056
 20
223.647772
 30
0.0
 10
502.247848
 20
260.417324
 30
0.0
 10
490.328048
 20
292.136116
 30
0.0
 10
494.368656
 20
317.389932
 30
0.0
 10
402.848832
 20
318.602116
 30
0.0
  0
ENDSEC
  0
SECTION
  2
OBJECTS
  0
DICTIONARY
  5
C
330
0
100
AcDbDictionary
  3
ACAD_GROUP
350
D
  3
ACAD_MLINESTYLE
350
17
  0
DICTIONARY
  5
D
330
C
100
AcDbDictionary
  0
DICTIONARY
  5
1A
330
C
100
AcDbDictionary
  0
DICTIONARY
  5
17
330
C
100
AcDbDictionary
  3
STANDARD
350
18
  0
DICTIONARY
  5
19
330
C
100
AcDbDictionary
  0
ENDSEC
  0
EOF
