  0
SECTION
  2
HEADER
  9
$ACADVER
  1
AC1014
  9
$HANDSEED
  5
FFFF
  9
$MEASUREMENT
 70
     1
  0
ENDSEC
  0
SECTION
  2
TABLES
  0
TABLE
  2
VPORT
  5
8
330
0
100
AcDbSymbolTable
 70
     4
  0
VPORT
  5
2E
330
8
100
AcDbSymbolTableRecord
100
AcDbViewportTableRecord
  2
*ACTIVE
 70
     0
 10
0.0
 20
0.0
 11
1.0
 21
1.0
 12
210.0
 22
148.5
 13
0.0
 23
0.0
 14
10.0
 24
10.0
 15
10.0
 25
10.0
 16
0.0
 26
0.0
 36
1.0
 17
0.0
 27
0.0
 37
0.0
 40
341.0
 41
1.24
 42
50.0
 43
0.0
 44
0.0
 50
0.0
 51
0.0
 71
     0
 72
   100
 73
     1
 74
     3
 75
     0
 76
     0
 77
     0
 78
     0
  0
ENDTAB
  0
TABLE
  2
LTYPE
  5
5
330
0
100
AcDbSymbolTable
 70
     1
  0
LTYPE
  5
14
330
5
100
AcDbSymbolTableRecord
100
AcDbLinetypeTableRecord
  2
BYBLOCK
 70
     0
  3

 72
    65
 73
     0
 40
0.0
  0
LTYPE
  5
15
330
5
100
AcDbSymbolTableRecord
100
AcDbLinetypeTableRecord
  2
BYLAYER
 70
     0
  3

 72
    65
 73
     0
 40
0.0
  0
LTYPE
  5
16
330
5
100
AcDbSymbolTableRecord
100
AcDbLinetypeTableRecord
  2
CONTINUOUS
 70
     0
  3
Solid line
 72
    65
 73
     0
 40
0.0
  0
ENDTAB
  0
TABLE
  2
LAYER
  5
2
100
AcDbSymbolTable
 70
2
  0
LAYER
  5
50
100
AcDbSymbolTableRecord
100
AcDbLayerTableRecord
  2
0
 70
0
  6
CONTINUOUS
  0
LAYER
  5
51
100
AcDbSymbolTableRecord
100
AcDbLayerTableRecord
  2
Layer_1
 70
0
  6
CONTINUOUS
  0
ENDTAB
  0
TABLE
  2
STYLE
  5
3
330
0
100
AcDbSymbolTable
 70
     1
  0
STYLE
  5
11
330
3
100
AcDbSymbolTableRecord
100
AcDbTextStyleTableRecord
  2
STANDARD
 70
     0
 40
0.0
 41
1.0
 50
0.0
 71
     0
 42
2.5
  3
txt
  4

  0
ENDTAB
  0
TABLE
  2
VIEW
  5
6
330
0
100
AcDbSymbolTable
 70
     0
  0
ENDTAB
  0
TABLE
  2
UCS
  5
7
330
0
100
AcDbSymbolTable
 70
     0
  0
ENDTAB
  0
TABLE
  2
APPID
  5
9
330
0
100
AcDbSymbolTable
 70
     2
  0
APPID
  5
12
330
9
100
AcDbSymbolTableRecord
100
AcDbRegAppTableRecord
  2
ACAD
 70
     0
  0
ENDTAB
  0
TABLE
  2
DIMSTYLE
  5
A
330
0
100
AcDbSymbolTable
 70
     1
  0
DIMSTYLE
105
27
330
A
100
AcDbSymbolTableRecord
100
AcDbDimStyleTableRecord
  2
ISO-25
 70
     0
  3

  4

  5

  6

  7

 40
1.0
 41
2.5
 42
0.625
 43
3.75
 44
1.25
 45
0.0
 46
0.0
 47
0.0
 48
0.0
140
2.5
141
2.5
142
0.0
143
0.03937007874016
144
1.0
145
0.0
146
1.0
147
0.625
 71
     0
 72
     0
 73
     0
 74
     0
 75
     0
 76
     0
 77
     1
 78
     8
170
     0
171
     3
172
     1
173
     0
174
     0
175
     0
176
     0
177
     0
178
     0
270
     2
271
     2
272
     2
273
     2
274
     3
340
11
275
     0
280
     0
281
     0
282
     0
283
     0
284
     8
285
     0
286
     0
287
     3
288
     0
  0
ENDTAB
  0
TABLE
  2
BLOCK_RECORD
  5
1
330
0
100
AcDbSymbolTable
 70
     1
  0
BLOCK_RECORD
  5
1F
330
1
100
AcDbSymbolTableRecord
100
AcDbBlockTableRecord
  2
*MODEL_SPACE
  0
BLOCK_RECORD
  5
1B
330
1
100
AcDbSymbolTableRecord
100
AcDbBlockTableRecord
  2
*PAPER_SPACE
  0
ENDTAB
  0
ENDSEC
  0
SECTION
  2
BLOCKS
  0
BLOCK
  5
20
330
1F
100
AcDbEntity
  8
0
100
AcDbBlockBegin
  2
*MODEL_SPACE
 70
     0
 10
0.0
 20
0.0
 30
0.0
  3
*MODEL_SPACE
  1

  0
ENDBLK
  5
21
330
1F
100
AcDbEntity
  8
0
100
AcDbBlockEnd
  0
BLOCK
  5
1C
330
1B
100
AcDbEntity
 67
     1
  8
0
100
AcDbBlockBegin
  2
*PAPER_SPACE
  1

  0
ENDBLK
  5
1D
330
1B
100
AcDbEntity
 67
     1
  8
0
100
AcDbBlockEnd
  0
ENDSEC
  0
SECTION
  2
ENTITIES
  0
LWPOLYLINE
  5
100
100
AcDbEntity
  8
Layer_1
 62
7
100
AcDbPolyline
 90
11
 70
1
 10
-301.714288
 20
534.285716
 30
0.0
 10
-304.000000
 20
510.285716
 30
0.0
 10
-277.714288
 20
433.714284
 30
0.0
 10
-263.428568
 20
422.857140
 30
0.0
 10
-231.428568
 20
422.285716
 30
0.0
 10
-234.857144
 20
456.000004
 30
0.0
 10
-246.857144
 20
488.571428
 30
0.0
 10
-264.000000
 20
513.714284
 30
0.0
 10
-274.857144
 20
524.571428
 30
0.0
 10
-290.285712
 20
529.142860
 30
0.0
 10
-301.714288
 20
534.285716
 30
0.0
  0
LWPOLYLINE
  5
101
100
AcDbEntity
  8
Layer_1
 62
7
100
AcDbPolyline
 90
20
 70
1
 10
-231.428568
 20
421.714284
 30
0.0
 10
-206.285712
 20
418.285716
 30
0.0
 10
-212.000000
 20
448.571428
 30
0.0
 10
-206.857144
 20
486.857140
 30
0.0
 10
-190.857144
 20
500.571428
 30
0.0
 10
-172.571432
 20
502.857140
 30
0.0
 10
-157.142856
 20
506.857140
 30
0.0
 10
-155.428568
 20
537.714284
 30
0.0
 10
-164.000000
 20
576.000004
 30
0.0
 10
-182.857144
 20
606.857140
 30
0.0
 10
-187.428568
 20
631.428572
 30
0.0
 10
-244.571432
 20
652.000004
 30
0.0
 10
-280.000000
 20
657.714284
 30
0.0
 10
-277.142856
 20
629.714284
 30
0.0
 10
-297.142856
 20
577.714284
 30
0.0
 10
-301.714288
 20
534.285716
 30
0.0
 10
-274.285712
 20
525.142860
 30
0.0
 10
-251.428568
 20
498.285716
 30
0.0
 10
-236.000000
 20
462.857140
 30
0.0
 10
-231.428568
 20
421.714284
 30
0.0
  0
LWPOLYLINE
  5
102
100
AcDbEntity
  8
Layer_1
 62
7
100
AcDbPolyline
 90
23
 70
1
 10
-206.857144
 20
417.142860
 30
0.0
 10
-176.000000
 20
411.428572
 30
0.0
 10
-138.857144
 20
391.428572
 30
0.0
 10
-122.857144
 20
413.714284
 30
0.0
 10
-94.285712
 20
408.000004
 30
0.0
 10
-71.428571
 20
421.714284
 30
0.0
 10
-65.714286
 20
449.142860
 30
0.0
 10
-65.714286
 20
468.000004
 30
0.0
 10
-53.142857
 20
484.000004
 30
0.0
 10
-48.571429
 20
525.142860
 30
0.0
 10
-31.428571
 20
545.714284
 30
0.0
 10
-38.857143
 20
570.285716
 30
0.0
 10
-115.428568
 20
621.714284
 30
0.0
 10
-137.142856
 20
617.714284
 30
0.0
 10
-186.285712
 20
630.285716
 30
0.0
 10
-181.714288
 20
604.000004
 30
0.0
 10
-165.714288
 20
578.285716
 30
0.0
 10
-156.571432
 20
545.142860
 30
0.0
 10
-156.000000
 20
506.285716
 30
0.0
 10
-188.000000
 20
500.571428
 30
0.0
 10
-205.142856
 20
488.000004
 30
0.0
 10
-211.428568
 20
451.428572
 30
0.0
 10
-206.857144
 20
417.142860
 30
0.0
  0
LWPOLYLINE
  5
103
100
AcDbEntity
  8
Layer_1
 62
7
100
AcDbPolyline
 90
15
 70
1
 10
-70.857143
 20
422.285716
 30
0.0
 10
-24.571429
 20
412.000004
 30
0.0
 10
-9.714286
 20
412.000004
 30
0.0
 10
10.285714
 20
422.857140
 30
0.0
 10
37.714286
 20
470.857140
 30
0.0
 10
72.000000
 20
485.142860
 30
0.0
 10
102.285712
 20
532.000004
 30
0.0
 10
80.571432
 20
541.714284
 30
0.0
 10
41.142857
 20
536.000004
 30
0.0
 10
-20.000000
 20
539.428572
 30
0.0
 10
-32.000000
 20
544.571428
 30
0.0
 10
-47.428571
 20
524.571428
 30
0.0
 10
-53.142857
 20
482.857140
 30
0.0
 10
-65.142858
 20
466.285716
 30
0.0
 10
-70.857143
 20
422.285716
 30
0.0
  0
LWPOLYLINE
  5
104
100
AcDbEntity
  8
Layer_1
 62
7
100
AcDbPolyline
 90
33
 70
1
 10
-138.857144
 20
392.571428
 30
0.0
 10
-121.714288
 20
414.285716
 30
0.0
 10
-95.428568
 20
408.571428
 30
0.0
 10
-70.285714
 20
422.285716
 30
0.0
 10
-22.857143
 20
412.000004
 30
0.0
 10
-8.000000
 20
413.142860
 30
0.0
 10
10.857143
 20
424.000004
 30
0.0
 10
37.142857
 20
470.285716
 30
0.0
 10
73.142858
 20
485.142860
 30
0.0
 10
102.285712
 20
532.571428
 30
0.0
 10
124.000000
 20
521.714284
 30
0.0
 10
138.857144
 20
520.571428
 30
0.0
 10
148.000000
 20
505.714284
 30
0.0
 10
152.571432
 20
489.142860
 30
0.0
 10
156.571432
 20
442.285716
 30
0.0
 10
201.714288
 20
398.857140
 30
0.0
 10
246.857144
 20
339.428572
 30
0.0
 10
188.571432
 20
295.428572
 30
0.0
 10
163.428568
 20
294.857140
 30
0.0
 10
127.428568
 20
304.571428
 30
0.0
 10
107.428568
 20
324.571428
 30
0.0
 10
68.000000
 20
331.428572
 30
0.0
 10
40.000000
 20
327.428572
 30
0.0
 10
22.285714
 20
291.428572
 30
0.0
 10
4.571429
 20
298.285716
 30
0.0
 10
-3.428571
 20
318.857140
 30
0.0
 10
-24.000000
 20
333.714284
 30
0.0
 10
-53.142857
 20
311.428572
 30
0.0
 10
-86.285712
 20
327.428572
 30
0.0
 10
-122.285712
 20
332.571428
 30
0.0
 10
-119.428568
 20
372.571428
 30
0.0
 10
-127.428568
 20
386.857140
 30
0.0
 10
-138.857144
 20
392.571428
 30
0.0
  0
LWPOLYLINE
  5
105
100
AcDbEntity
  8
Layer_1
 62
7
100
AcDbPolyline
 90
20
 70
1
 10
139.428568
 20
522.285716
 30
0.0
 10
185.142856
 20
553.714284
 30
0.0
 10
189.142856
 20
564.571428
 30
0.0
 10
197.142856
 20
600.571428
 30
0.0
 10
228.000000
 20
591.428572
 30
0.0
 10
259.428568
 20
585.714284
 30
0.0
 10
271.428568
 20
577.142860
 30
0.0
 10
265.142856
 20
558.857140
 30
0.0
 10
305.142856
 20
532.571428
 30
0.0
 10
298.857144
 20
532.571428
 30
0.0
 10
291.428568
 20
526.857140
 30
0.0
 10
288.000000
 20
506.285716
 30
0.0
 10
304.000000
 20
489.714284
 30
0.0
 10
313.714288
 20
449.142860
 30
0.0
 10
301.142856
 20
400.000004
 30
0.0
 10
246.285712
 20
339.428572
 30
0.0
 10
200.000000
 20
400.571428
 30
0.0
 10
157.714288
 20
441.714284
 30
0.0
 10
152.571432
 20
492.000004
 30
0.0
 10
139.428568
 20
522.285716
 30
0.0
  0
LWPOLYLINE
  5
106
100
AcDbEntity
  8
Layer_1
 62
7
100
AcDbPolyline
 90
20
 70
1
 10
-122.285712
 20
331.428572
 30
0.0
 10
-83.428568
 20
328.000004
 30
0.0
 10
-50.857143
 20
310.857140
 30
0.0
 10
-23.428571
 20
334.285716
 30
0.0
 10
-3.428571
 20
318.285716
 30
0.0
 10
4.000000
 20
298.857140
 30
0.0
 10
23.428571
 20
290.285716
 30
0.0
 10
12.000000
 20
261.714284
 30
0.0
 10
-18.285714
 20
221.714284
 30
0.0
 10
-28.000000
 20
215.428572
 30
0.0
 10
-56.000000
 20
206.285716
 30
0.0
 10
-82.285712
 20
187.428572
 30
0.0
 10
-97.714288
 20
150.285716
 30
0.0
 10
-124.000000
 20
154.285716
 30
0.0
 10
-156.571432
 20
153.714284
 30
0.0
 10
-172.571432
 20
165.714284
 30
0.0
 10
-178.285712
 20
176.571428
 30
0.0
 10
-168.571432
 20
237.142860
 30
0.0
 10
-135.428568
 20
289.714284
 30
0.0
 10
-122.285712
 20
331.428572
 30
0.0
  0
ENDSEC
  0
SECTION
  2
OBJECTS
  0
DICTIONARY
  5
C
330
0
100
AcDbDictionary
  3
ACAD_GROUP
350
D
  3
ACAD_MLINESTYLE
350
17
  0
DICTIONARY
  5
D
330
C
100
AcDbDictionary
  0
DICTIONARY
  5
1A
330
C
100
AcDbDictionary
  0
DICTIONARY
  5
17
330
C
100
AcDbDictionary
  3
STANDARD
350
18
  0
DICTIONARY
  5
19
330
C
100
AcDbDictionary
  0
ENDSEC
  0
EOF
