  0
SECTION
  2
HEADER
  9
$ACADVER
  1
AC1014
  9
$HANDSEED
  5
FFFF
  9
$MEASUREMENT
 70
     1
  0
ENDSEC
  0
SECTION
  2
TABLES
  0
TABLE
  2
VPORT
  5
8
330
0
100
AcDbSymbolTable
 70
     4
  0
VPORT
  5
2E
330
8
100
AcDbSymbolTableRecord
100
AcDbViewportTableRecord
  2
*ACTIVE
 70
     0
 10
0.0
 20
0.0
 11
1.0
 21
1.0
 12
210.0
 22
148.5
 13
0.0
 23
0.0
 14
10.0
 24
10.0
 15
10.0
 25
10.0
 16
0.0
 26
0.0
 36
1.0
 17
0.0
 27
0.0
 37
0.0
 40
341.0
 41
1.24
 42
50.0
 43
0.0
 44
0.0
 50
0.0
 51
0.0
 71
     0
 72
   100
 73
     1
 74
     3
 75
     0
 76
     0
 77
     0
 78
     0
  0
ENDTAB
  0
TABLE
  2
LTYPE
  5
5
330
0
100
AcDbSymbolTable
 70
     1
  0
LTYPE
  5
14
330
5
100
AcDbSymbolTableRecord
100
AcDbLinetypeTableRecord
  2
BYBLOCK
 70
     0
  3

 72
    65
 73
     0
 40
0.0
  0
LTYPE
  5
15
330
5
100
AcDbSymbolTableRecord
100
AcDbLinetypeTableRecord
  2
BYLAYER
 70
     0
  3

 72
    65
 73
     0
 40
0.0
  0
LTYPE
  5
16
330
5
100
AcDbSymbolTableRecord
100
AcDbLinetypeTableRecord
  2
CONTINUOUS
 70
     0
  3
Solid line
 72
    65
 73
     0
 40
0.0
  0
ENDTAB
  0
TABLE
  2
LAYER
  5
2
100
AcDbSymbolTable
 70
2
  0
LAYER
  5
50
100
AcDbSymbolTableRecord
100
AcDbLayerTableRecord
  2
0
 70
0
  6
CONTINUOUS
  0
LAYER
  5
51
100
AcDbSymbolTableRecord
100
AcDbLayerTableRecord
  2
Layer_1
 70
0
  6
CONTINUOUS
  0
ENDTAB
  0
TABLE
  2
STYLE
  5
3
330
0
100
AcDbSymbolTable
 70
     1
  0
STYLE
  5
11
330
3
100
AcDbSymbolTableRecord
100
AcDbTextStyleTableRecord
  2
STANDARD
 70
     0
 40
0.0
 41
1.0
 50
0.0
 71
     0
 42
2.5
  3
txt
  4

  0
ENDTAB
  0
TABLE
  2
VIEW
  5
6
330
0
100
AcDbSymbolTable
 70
     0
  0
ENDTAB
  0
TABLE
  2
UCS
  5
7
330
0
100
AcDbSymbolTable
 70
     0
  0
ENDTAB
  0
TABLE
  2
APPID
  5
9
330
0
100
AcDbSymbolTable
 70
     2
  0
APPID
  5
12
330
9
100
AcDbSymbolTableRecord
100
AcDbRegAppTableRecord
  2
ACAD
 70
     0
  0
ENDTAB
  0
TABLE
  2
DIMSTYLE
  5
A
330
0
100
AcDbSymbolTable
 70
     1
  0
DIMSTYLE
105
27
330
A
100
AcDbSymbolTableRecord
100
AcDbDimStyleTableRecord
  2
ISO-25
 70
     0
  3

  4

  5

  6

  7

 40
1.0
 41
2.5
 42
0.625
 43
3.75
 44
1.25
 45
0.0
 46
0.0
 47
0.0
 48
0.0
140
2.5
141
2.5
142
0.0
143
0.03937007874016
144
1.0
145
0.0
146
1.0
147
0.625
 71
     0
 72
     0
 73
     0
 74
     0
 75
     0
 76
     0
 77
     1
 78
     8
170
     0
171
     3
172
     1
173
     0
174
     0
175
     0
176
     0
177
     0
178
     0
270
     2
271
     2
272
     2
273
     2
274
     3
340
11
275
     0
280
     0
281
     0
282
     0
283
     0
284
     8
285
     0
286
     0
287
     3
288
     0
  0
ENDTAB
  0
TABLE
  2
BLOCK_RECORD
  5
1
330
0
100
AcDbSymbolTable
 70
     1
  0
BLOCK_RECORD
  5
1F
330
1
100
AcDbSymbolTableRecord
100
AcDbBlockTableRecord
  2
*MODEL_SPACE
  0
BLOCK_RECORD
  5
1B
330
1
100
AcDbSymbolTableRecord
100
AcDbBlockTableRecord
  2
*PAPER_SPACE
  0
ENDTAB
  0
ENDSEC
  0
SECTION
  2
BLOCKS
  0
BLOCK
  5
20
330
1F
100
AcDbEntity
  8
0
100
AcDbBlockBegin
  2
*MODEL_SPACE
 70
     0
 10
0.0
 20
0.0
 30
0.0
  3
*MODEL_SPACE
  1

  0
ENDBLK
  5
21
330
1F
100
AcDbEntity
  8
0
100
AcDbBlockEnd
  0
BLOCK
  5
1C
330
1B
100
AcDbEntity
 67
     1
  8
0
100
AcDbBlockBegin
  2
*PAPER_SPACE
  1

  0
ENDBLK
  5
1D
330
1B
100
AcDbEntity
 67
     1
  8
0
100
AcDbBlockEnd
  0
ENDSEC
  0
SECTION
  2
ENTITIES
  0
LWPOLYLINE
  5
100
100
AcDbEntity
  8
Layer_1
 62
7
100
AcDbPolyline
 90
32
 70
1
 10
212.132032
 20
722.461100
 30
0.0
 10
264.255904
 20
705.490540
 30
0.0
 10
255.366560
 20
690.944340
 30
0.0
 10
254.154384
 20
676.398148
 30
0.0
 10
267.488392
 20
668.316924
 30
0.0
 10
273.549312
 20
648.921996
 30
0.0
 10
273.145248
 20
640.840772
 30
0.0
 10
265.468088
 20
633.567676
 30
0.0
 10
251.730016
 20
631.951436
 30
0.0
 10
250.921896
 20
611.344324
 30
0.0
 10
245.265040
 20
602.454980
 30
0.0
 10
245.265040
 20
588.716900
 30
0.0
 10
231.122904
 20
577.807260
 30
0.0
 10
233.143208
 20
567.705732
 30
0.0
 10
229.506656
 20
562.048876
 30
0.0
 10
225.870112
 20
565.685428
 30
0.0
 10
212.536096
 20
568.109796
 30
0.0
 10
203.242696
 20
571.342284
 30
0.0
 10
192.333048
 20
565.281364
 30
0.0
 10
186.676192
 20
568.109796
 30
0.0
 10
178.190912
 20
566.897612
 30
0.0
 10
177.786848
 20
576.191012
 30
0.0
 10
169.705624
 20
585.484412
 30
0.0
 10
157.583800
 20
591.949396
 30
0.0
 10
155.159432
 20
600.434676
 30
0.0
 10
160.412224
 20
631.143308
 30
0.0
 10
165.665016
 20
638.820468
 30
0.0
 10
161.220344
 20
656.599156
 30
0.0
 10
170.917808
 20
655.386972
 30
0.0
 10
204.050816
 20
700.641804
 30
0.0
 10
206.475184
 20
712.359572
 30
0.0
 10
212.132032
 20
722.461100
 30
0.0
  0
LWPOLYLINE
  5
101
100
AcDbEntity
  8
Layer_1
 62
7
100
AcDbPolyline
 90
34
 70
1
 10
265.064032
 20
705.490540
 30
0.0
 10
302.237640
 20
697.409316
 30
0.0
 10
330.117848
 20
693.368708
 30
0.0
 10
408.505688
 20
661.447884
 30
0.0
 10
453.760520
 20
657.407276
 30
0.0
 10
451.336160
 20
645.689508
 30
0.0
 10
447.699608
 20
633.971740
 30
0.0
 10
442.446816
 20
626.698636
 30
0.0
 10
436.789960
 20
626.294580
 30
0.0
 10
424.668128
 20
621.041788
 30
0.0
 10
420.223456
 20
608.515892
 30
0.0
 10
419.819400
 20
603.667164
 30
0.0
 10
413.758480
 20
596.798124
 30
0.0
 10
412.546296
 20
571.746340
 30
0.0
 10
408.909752
 20
564.069180
 30
0.0
 10
374.564568
 20
572.958524
 30
0.0
 10
345.068112
 20
574.170708
 30
0.0
 10
339.007192
 20
577.807260
 30
0.0
 10
327.693488
 20
576.999132
 30
0.0
 10
318.804144
 20
579.019436
 30
0.0
 10
310.722920
 20
594.373756
 30
0.0
 10
308.298560
 20
596.798124
 30
0.0
 10
307.086376
 20
610.940260
 30
0.0
 10
317.996024
 20
612.556508
 30
0.0
 10
325.269120
 20
606.495588
 30
0.0
 10
334.562520
 20
604.879348
 30
0.0
 10
313.147288
 20
642.052956
 30
0.0
 10
297.792968
 20
652.154484
 30
0.0
 10
283.246776
 20
648.517932
 30
0.0
 10
273.145248
 20
649.326060
 30
0.0
 10
267.892456
 20
667.104740
 30
0.0
 10
254.154384
 20
675.994084
 30
0.0
 10
255.366560
 20
691.348404
 30
0.0
 10
265.064032
 20
705.490540
 30
0.0
  0
LWPOLYLINE
  5
102
100
AcDbEntity
  8
Layer_1
 62
7
100
AcDbPolyline
 90
29
 70
1
 10
454.568648
 20
657.407276
 30
0.0
 10
510.733128
 20
654.174788
 30
0.0
 10
512.753432
 20
646.497628
 30
0.0
 10
518.006224
 20
645.285444
 30
0.0
 10
523.259016
 20
638.012348
 30
0.0
 10
535.380848
 20
638.012348
 30
0.0
 10
535.784912
 20
633.163612
 30
0.0
 10
516.389984
 20
610.536196
 30
0.0
 10
509.925008
 20
607.707772
 30
0.0
 10
513.561552
 20
598.818428
 30
0.0
 10
510.733128
 20
593.565636
 30
0.0
 10
501.035664
 20
583.060052
 30
0.0
 10
469.922968
 20
550.735172
 30
0.0
 10
454.568648
 20
549.927044
 30
0.0
 10
447.295544
 20
551.947348
 30
0.0
 10
435.981840
 20
544.674252
 30
0.0
 10
430.324984
 20
544.674252
 30
0.0
 10
425.880312
 20
546.694556
 30
0.0
 10
419.011280
 20
559.624508
 30
0.0
 10
409.717872
 20
565.685428
 30
0.0
 10
411.738176
 20
571.342284
 30
0.0
 10
413.758480
 20
596.798124
 30
0.0
 10
419.819400
 20
603.263100
 30
0.0
 10
420.223456
 20
608.515892
 30
0.0
 10
424.264072
 20
621.041788
 30
0.0
 10
435.577776
 20
626.698636
 30
0.0
 10
442.042752
 20
627.102700
 30
0.0
 10
448.103672
 20
635.992044
 30
0.0
 10
454.568648
 20
657.407276
 30
0.0
  0
LWPOLYLINE
  5
103
100
AcDbEntity
  8
Layer_1
 62
7
100
AcDbPolyline
 90
33
 70
1
 10
244.456920
 20
592.757516
 30
0.0
 10
244.860976
 20
602.859036
 30
0.0
 10
250.517832
 20
610.536196
 30
0.0
 10
251.325952
 20
632.759556
 30
0.0
 10
263.043720
 20
634.779860
 30
0.0
 10
271.933064
 20
640.436716
 30
0.0
 10
273.549312
 20
649.326060
 30
0.0
 10
284.054896
 20
648.921996
 30
0.0
 10
296.176728
 20
653.366668
 30
0.0
 10
313.955408
 20
643.669204
 30
0.0
 10
335.370648
 20
605.687468
 30
0.0
 10
324.461000
 20
605.687468
 30
0.0
 10
317.996024
 20
612.556508
 30
0.0
 10
307.894496
 20
611.748380
 30
0.0
 10
307.894496
 20
598.010308
 30
0.0
 10
313.551352
 20
593.161572
 30
0.0
 10
319.208208
 20
579.423500
 30
0.0
 10
329.713792
 20
577.807260
 30
0.0
 10
324.865056
 20
569.321972
 30
0.0
 10
317.591960
 20
556.796084
 30
0.0
 10
307.490432
 20
552.351412
 30
0.0
 10
290.923936
 20
552.755476
 30
0.0
 10
288.499568
 20
549.522988
 30
0.0
 10
280.822408
 20
555.179836
 30
0.0
 10
277.185856
 20
552.351412
 30
0.0
 10
265.872152
 20
560.028572
 30
0.0
 10
265.064032
 20
567.301668
 30
0.0
 10
257.790928
 20
572.554460
 30
0.0
 10
260.619360
 20
574.574772
 30
0.0
 10
258.599048
 20
585.484412
 30
0.0
 10
254.558440
 20
592.757516
 30
0.0
 10
250.517832
 20
594.373756
 30
0.0
 10
244.456920
 20
592.757516
 30
0.0
  0
LWPOLYLINE
  5
104
100
AcDbEntity
  8
Layer_1
 62
7
100
AcDbPolyline
 90
48
 70
1
 10
229.506656
 20
563.665124
 30
0.0
 10
231.931024
 20
567.301668
 30
0.0
 10
230.314784
 20
577.807260
 30
0.0
 10
243.648792
 20
589.120964
 30
0.0
 10
244.456920
 20
593.565636
 30
0.0
 10
252.134072
 20
595.181884
 30
0.0
 10
258.194992
 20
590.333148
 30
0.0
 10
261.427480
 20
575.786948
 30
0.0
 10
257.790928
 20
572.150404
 30
0.0
 10
265.468088
 20
568.109796
 30
0.0
 10
266.276208
 20
560.432636
 30
0.0
 10
277.993984
 20
552.755476
 30
0.0
 10
280.822408
 20
555.987964
 30
0.0
 10
288.095504
 20
550.331108
 30
0.0
 10
292.540176
 20
553.563596
 30
0.0
 10
306.682312
 20
553.563596
 30
0.0
 10
316.783840
 20
557.604204
 30
0.0
 10
324.865056
 20
569.726036
 30
0.0
 10
331.330032
 20
565.685428
 30
0.0
 10
331.734096
 20
555.987964
 30
0.0
 10
336.178768
 20
550.735172
 30
0.0
 10
327.289424
 20
547.098620
 30
0.0
 10
332.946280
 20
532.148364
 30
0.0
 10
326.077240
 20
520.834652
 30
0.0
 10
313.551352
 20
519.622468
 30
0.0
 10
304.257944
 20
510.733124
 30
0.0
 10
288.903632
 20
508.712820
 30
0.0
 10
285.671136
 20
512.349372
 30
0.0
 10
278.398040
 20
512.349372
 30
0.0
 10
279.610224
 20
502.651908
 30
0.0
 10
273.145248
 20
502.247844
 30
0.0
 10
273.145248
 20
507.096580
 30
0.0
 10
269.104640
 20
508.308764
 30
0.0
 10
265.064032
 20
505.480332
 30
0.0
 10
253.750320
 20
508.712820
 30
0.0
 10
252.134072
 20
511.541252
 30
0.0
 10
254.962504
 20
516.794044
 30
0.0
 10
251.325952
 20
523.259020
 30
0.0
 10
256.578744
 20
529.723996
 30
0.0
 10
254.154384
 20
536.188972
 30
0.0
 10
248.093464
 20
536.593036
 30
0.0
 10
244.860976
 20
534.168668
 30
0.0
 10
235.971632
 20
542.653948
 30
0.0
 10
231.122904
 20
544.270188
 30
0.0
 10
225.466048
 20
544.270188
 30
0.0
 10
219.001072
 20
553.159532
 30
0.0
 10
229.506656
 20
556.392020
 30
0.0
 10
229.506656
 20
563.665124
 30
0.0
  0
LWPOLYLINE
  5
105
100
AcDbEntity
  8
Layer_1
 62
7
100
AcDbPolyline
 90
73
 70
1
 10
332.542216
 20
532.148364
 30
0.0
 10
326.077240
 20
522.046836
 30
0.0
 10
312.743232
 20
519.218412
 30
0.0
 10
305.874192
 20
511.945308
 30
0.0
 10
288.903632
 20
509.116884
 30
0.0
 10
286.883320
 20
512.349372
 30
0.0
 10
278.398040
 20
512.753436
 30
0.0
 10
280.418344
 20
502.247844
 30
0.0
 10
273.549312
 20
501.439724
 30
0.0
 10
272.741184
 20
506.288460
 30
0.0
 10
268.296520
 20
507.500636
 30
0.0
 10
264.255904
 20
506.288460
 30
0.0
 10
254.558440
 20
510.329068
 30
0.0
 10
254.154384
 20
514.773740
 30
0.0
 10
251.325952
 20
524.067140
 30
0.0
 10
255.366560
 20
528.915876
 30
0.0
 10
255.770624
 20
534.976788
 30
0.0
 10
248.497528
 20
536.593036
 30
0.0
 10
244.052856
 20
534.976788
 30
0.0
 10
237.183816
 20
542.249884
 30
0.0
 10
229.910720
 20
545.078316
 30
0.0
 10
225.870112
 20
545.078316
 30
0.0
 10
220.213256
 20
551.947348
 30
0.0
 10
229.506656
 20
555.179836
 30
0.0
 10
229.910720
 20
562.856996
 30
0.0
 10
224.657928
 20
566.897612
 30
0.0
 10
211.727976
 20
568.513852
 30
0.0
 10
203.646752
 20
571.746340
 30
0.0
 10
191.120864
 20
566.089484
 30
0.0
 10
187.484312
 20
569.726036
 30
0.0
 10
178.190912
 20
567.301668
 30
0.0
 10
177.382784
 20
561.644812
 30
0.0
 10
183.039640
 20
554.775780
 30
0.0
 10
177.786848
 20
551.139228
 30
0.0
 10
180.615272
 20
544.270188
 30
0.0
 10
187.888376
 20
538.209276
 30
0.0
 10
183.443704
 20
530.936180
 30
0.0
 10
165.665016
 20
541.037700
 30
0.0
 10
153.543184
 20
535.784908
 30
0.0
 10
168.897504
 20
525.683388
 30
0.0
 10
172.129992
 20
514.773740
 30
0.0
 10
166.877200
 20
509.116884
 30
0.0
 10
167.281264
 20
499.419420
 30
0.0
 10
163.240648
 20
496.995052
 30
0.0
 10
164.048776
 20
484.873220
 30
0.0
 10
160.008160
 20
479.216364
 30
0.0
 10
164.048776
 20
474.771700
 30
0.0
 10
173.746240
 20
480.832612
 30
0.0
 10
176.574664
 20
473.155452
 30
0.0
 10
180.615272
 20
481.236676
 30
0.0
 10
199.606144
 20
484.873220
 30
0.0
 10
208.899544
 20
494.570684
 30
0.0
 10
220.617320
 20
475.175756
 30
0.0
 10
227.890416
 20
455.780828
 30
0.0
 10
231.122904
 20
452.144276
 30
0.0
 10
226.678232
 20
444.467124
 30
0.0
 10
223.041680
 20
443.254940
 30
0.0
 10
226.274168
 20
439.214324
 30
0.0
 10
225.870112
 20
429.112804
 30
0.0
 10
231.122904
 20
430.729044
 30
0.0
 10
237.587880
 20
449.315852
 30
0.0
 10
244.860976
 20
449.315852
 30
0.0
 10
279.206160
 20
459.821436
 30
0.0
 10
301.833584
 20
452.548340
 30
0.0
 10
306.278248
 20
460.225500
 30
0.0
 10
313.551352
 20
469.922964
 30
0.0
 10
313.147288
 20
484.469164
 30
0.0
 10
324.461000
 20
495.378812
 30
0.0
 10
325.269120
 20
500.227540
 30
0.0
 10
330.117848
 20
505.884396
 30
0.0
 10
337.390952
 20
505.884396
 30
0.0
 10
339.007192
 20
527.299628
 30
0.0
 10
332.542216
 20
532.148364
 30
0.0
  0
LWPOLYLINE
  5
106
100
AcDbEntity
  8
Layer_1
 62
7
100
AcDbPolyline
 90
29
 70
1
 10
208.091424
 20
495.378812
 30
0.0
 10
222.233560
 20
473.155452
 30
0.0
 10
228.294472
 20
456.588948
 30
0.0
 10
230.718840
 20
452.144276
 30
0.0
 10
227.082296
 20
445.275244
 30
0.0
 10
221.425440
 20
443.658996
 30
0.0
 10
227.486352
 20
440.022452
 30
0.0
 10
227.486352
 20
429.516860
 30
0.0
 10
221.021376
 20
422.647828
 30
0.0
 10
207.687360
 20
417.799092
 30
0.0
 10
201.222384
 20
416.990972
 30
0.0
 10
199.606144
 20
412.950364
 30
0.0
 10
165.665016
 20
424.264068
 30
0.0
 10
159.604104
 20
426.284372
 30
0.0
 10
167.281264
 20
429.112804
 30
0.0
 10
162.028472
 20
438.810268
 30
0.0
 10
161.220344
 20
451.740220
 30
0.0
 10
152.735064
 20
472.751388
 30
0.0
 10
151.118824
 20
493.358500
 30
0.0
 10
156.371616
 20
498.611300
 30
0.0
 10
165.665016
 20
498.611300
 30
0.0
 10
164.856896
 20
487.297588
 30
0.0
 10
160.816288
 20
480.832612
 30
0.0
 10
163.644712
 20
475.175756
 30
0.0
 10
173.746240
 20
481.640732
 30
0.0
 10
176.574664
 20
474.367636
 30
0.0
 10
178.999032
 20
480.428548
 30
0.0
 10
199.606144
 20
485.277284
 30
0.0
 10
208.091424
 20
495.378812
 30
0.0
  0
LWPOLYLINE
  5
107
100
AcDbEntity
  8
Layer_1
 62
7
100
AcDbPolyline
 90
21
 70
1
 10
197.989896
 20
413.354420
 30
0.0
 10
158.391920
 20
428.708740
 30
0.0
 10
157.179736
 20
423.455948
 30
0.0
 10
143.441664
 20
425.072188
 30
0.0
 10
114.753328
 20
413.758484
 30
0.0
 10
120.814248
 20
408.101628
 30
0.0
 10
120.814248
 20
387.898580
 30
0.0
 10
100.611192
 20
351.937148
 30
0.0
 10
116.773632
 20
349.108724
 30
0.0
 10
121.218304
 20
354.361516
 30
0.0
 10
140.209176
 20
353.149332
 30
0.0
 10
143.845720
 20
349.512780
 30
0.0
 10
159.200040
 20
352.341212
 30
0.0
 10
170.917808
 20
347.088412
 30
0.0
 10
182.635584
 20
352.341212
 30
0.0
 10
195.565536
 20
368.907708
 30
0.0
 10
199.606144
 20
378.605172
 30
0.0
 10
211.727976
 20
382.645788
 30
0.0
 10
214.960464
 20
393.151372
 30
0.0
 10
207.687360
 20
398.000100
 30
0.0
 10
197.989896
 20
413.354420
 30
0.0
  0
LWPOLYLINE
  5
108
100
AcDbEntity
  8
Layer_1
 62
7
100
AcDbPolyline
 90
20
 70
1
 10
198.393960
 20
411.738180
 30
0.0
 10
200.818328
 20
417.395036
 30
0.0
 10
210.919848
 20
419.415340
 30
0.0
 10
220.213256
 20
423.455948
 30
0.0
 10
227.082296
 20
429.920924
 30
0.0
 10
250.113768
 20
432.345292
 30
0.0
 10
251.730016
 20
427.496556
 30
0.0
 10
245.669096
 20
422.647828
 30
0.0
 10
247.689408
 20
418.607212
 30
0.0
 10
257.790928
 20
418.607212
 30
0.0
 10
256.578744
 20
404.465076
 30
0.0
 10
251.325952
 20
379.009236
 30
0.0
 10
242.032552
 20
373.352380
 30
0.0
 10
241.224424
 20
377.392988
 30
0.0
 10
226.678232
 20
384.666092
 30
0.0
 10
223.041680
 20
381.433604
 30
0.0
 10
210.919848
 20
381.433604
 30
0.0
 10
215.364520
 20
393.151372
 30
0.0
 10
208.091424
 20
397.596044
 30
0.0
 10
198.393960
 20
411.738180
 30
0.0
  0
LWPOLYLINE
  5
109
100
AcDbEntity
  8
Layer_1
 62
7
100
AcDbPolyline
 90
24
 70
1
 10
242.032552
 20
373.756444
 30
0.0
 10
250.113768
 20
379.817356
 30
0.0
 10
256.578744
 20
406.889444
 30
0.0
 10
257.386872
 20
418.203156
 30
0.0
 10
248.497528
 20
417.799092
 30
0.0
 10
245.669096
 20
422.647828
 30
0.0
 10
250.921896
 20
429.112804
 30
0.0
 10
248.901584
 20
431.941228
 30
0.0
 10
231.122904
 20
430.324988
 30
0.0
 10
236.375696
 20
449.719916
 30
0.0
 10
247.285344
 20
450.932100
 30
0.0
 10
279.610224
 20
459.821436
 30
0.0
 10
301.429520
 20
452.952404
 30
0.0
 10
301.025456
 20
441.638692
 30
0.0
 10
296.176728
 20
433.961532
 30
0.0
 10
299.409216
 20
419.819396
 30
0.0
 10
294.964544
 20
414.566604
 30
0.0
 10
297.388912
 20
404.061020
 30
0.0
 10
278.802104
 20
372.544260
 30
0.0
 10
269.508696
 20
367.291468
 30
0.0
 10
271.933064
 20
358.806188
 30
0.0
 10
255.770624
 20
347.088412
 30
0.0
 10
244.860976
 20
362.846796
 30
0.0
 10
242.032552
 20
373.756444
 30
0.0
  0
LWPOLYLINE
  5
10a
100
AcDbEntity
  8
Layer_1
 62
7
100
AcDbPolyline
 90
25
 70
1
 10
100.207136
 20
352.745268
 30
0.0
 10
117.177696
 20
350.320900
 30
0.0
 10
119.198000
 20
353.957452
 30
0.0
 10
132.936072
 20
353.553388
 30
0.0
 10
141.017296
 20
328.097548
 30
0.0
 10
149.502576
 20
316.379780
 30
0.0
 10
171.321872
 20
299.813276
 30
0.0
 10
173.342176
 20
279.610228
 30
0.0
 10
166.877200
 20
273.145252
 30
0.0
 10
106.672112
 20
245.669100
 30
0.0
 10
82.024384
 20
247.689404
 30
0.0
 10
80.812200
 20
244.860980
 30
0.0
 10
74.347227
 20
244.456916
 30
0.0
 10
69.094434
 20
233.547268
 30
0.0
 10
58.588848
 20
221.021380
 30
0.0
 10
44.446712
 20
233.951332
 30
0.0
 10
44.042651
 20
250.517828
 30
0.0
 10
29.496454
 20
283.246772
 30
0.0
 10
27.476150
 20
290.115812
 30
0.0
 10
23.839600
 20
294.964540
 30
0.0
 10
54.144177
 20
321.228508
 30
0.0
 10
71.922862
 20
331.330036
 30
0.0
 10
83.640632
 20
332.946276
 30
0.0
 10
92.934032
 20
334.562524
 30
0.0
 10
100.207136
 20
352.745268
 30
0.0
  0
LWPOLYLINE
  5
10b
100
AcDbEntity
  8
Layer_1
 62
7
100
AcDbPolyline
 90
39
 70
1
 10
79.600021
 20
244.456916
 30
0.0
 10
82.428448
 20
248.497524
 30
0.0
 10
105.863984
 20
247.285340
 30
0.0
 10
165.260960
 20
272.741188
 30
0.0
 10
172.534056
 20
280.014284
 30
0.0
 10
170.917808
 20
298.601092
 30
0.0
 10
149.906640
 20
315.571652
 30
0.0
 10
140.209176
 20
328.905668
 30
0.0
 10
133.744200
 20
355.169636
 30
0.0
 10
141.421360
 20
353.553388
 30
0.0
 10
144.249784
 20
351.129028
 30
0.0
 10
158.391920
 20
353.149332
 30
0.0
 10
170.109688
 20
349.108724
 30
0.0
 10
183.443704
 20
352.745268
 30
0.0
 10
195.565536
 20
369.311772
 30
0.0
 10
197.989896
 20
378.201116
 30
0.0
 10
211.727976
 20
382.645788
 30
0.0
 10
224.253864
 20
381.029540
 30
0.0
 10
226.274168
 20
387.090452
 30
0.0
 10
242.436608
 20
378.201116
 30
0.0
 10
246.881280
 20
360.826492
 30
0.0
 10
256.578744
 20
347.896540
 30
0.0
 10
288.903632
 20
307.490436
 30
0.0
 10
295.772664
 20
303.449828
 30
0.0
 10
296.984848
 20
299.005156
 30
0.0
 10
242.032552
 20
251.730012
 30
0.0
 10
244.456920
 20
245.265036
 30
0.0
 10
238.800064
 20
235.971636
 30
0.0
 10
231.526960
 20
227.486356
 30
0.0
 10
246.477224
 20
205.667060
 30
0.0
 10
245.669096
 20
200.414268
 30
0.0
 10
207.283304
 20
200.010204
 30
0.0
 10
183.443704
 20
193.141164
 30
0.0
 10
150.714760
 20
179.403092
 30
0.0
 10
124.450792
 20
182.231516
 30
0.0
 10
95.358400
 20
198.393964
 30
0.0
 10
88.085304
 20
217.788892
 30
0.0
 10
86.065000
 20
237.183820
 30
0.0
 10
79.600021
 20
244.456916
 30
0.0
  0
LWPOLYLINE
  5
10c
100
AcDbEntity
  8
Layer_1
 62
7
100
AcDbPolyline
 90
37
 70
1
 10
296.580784
 20
299.409212
 30
0.0
 10
242.436608
 20
253.346260
 30
0.0
 10
243.648792
 20
244.456916
 30
0.0
 10
231.526960
 20
229.102596
 30
0.0
 10
245.265040
 20
206.475180
 30
0.0
 10
245.669096
 20
200.414268
 30
0.0
 10
262.235600
 20
199.202084
 30
0.0
 10
277.589920
 20
193.141164
 30
0.0
 10
285.671136
 20
181.827460
 30
0.0
 10
282.034592
 20
156.775676
 30
0.0
 10
301.025456
 20
153.139124
 30
0.0
 10
312.339168
 20
144.653844
 30
0.0
 10
324.461000
 20
144.249780
 30
0.0
 10
339.411256
 20
134.956380
 30
0.0
 10
339.815320
 20
138.592932
 30
0.0
 10
335.774704
 20
142.229476
 30
0.0
 10
334.158464
 20
147.078212
 30
0.0
 10
325.269120
 20
153.543188
 30
0.0
 10
329.309728
 20
166.877204
 30
0.0
 10
341.835624
 20
165.260956
 30
0.0
 10
347.492472
 20
168.089380
 30
0.0
 10
345.472168
 20
174.150300
 30
0.0
 10
332.946280
 20
177.382788
 30
0.0
 10
330.521912
 20
177.382788
 30
0.0
 10
322.036632
 20
185.464004
 30
0.0
 10
330.117848
 20
193.949292
 30
0.0
 10
332.946280
 20
203.242692
 30
0.0
 10
330.117848
 20
213.748276
 30
0.0
 10
326.077240
 20
220.617316
 30
0.0
 10
327.289424
 20
246.477220
 30
0.0
 10
332.946280
 20
249.305652
 30
0.0
 10
334.562520
 20
260.619356
 30
0.0
 10
339.411256
 20
263.043724
 30
0.0
 10
338.603136
 20
274.357428
 30
0.0
 10
336.178768
 20
280.418348
 30
0.0
 10
303.449824
 20
300.217340
 30
0.0
 10
296.580784
 20
299.409212
 30
0.0
  0
LWPOLYLINE
  5
10d
100
AcDbEntity
  8
Layer_1
 62
7
100
AcDbPolyline
 90
60
 70
1
 10
304.662008
 20
299.813276
 30
0.0
 10
335.774704
 20
280.822404
 30
0.0
 10
339.815320
 20
263.043724
 30
0.0
 10
349.108720
 20
263.043724
 30
0.0
 10
347.088416
 20
273.145252
 30
0.0
 10
360.018368
 20
276.377740
 30
0.0
 10
368.099584
 20
285.267076
 30
0.0
 10
391.131064
 20
284.863020
 30
0.0
 10
395.979800
 20
280.014284
 30
0.0
 10
407.697568
 20
279.206164
 30
0.0
 10
414.566608
 20
270.316820
 30
0.0
 10
430.729048
 20
283.650836
 30
0.0
 10
435.981840
 20
280.822404
 30
0.0
 10
465.478296
 20
292.540180
 30
0.0
 10
471.539208
 20
289.711748
 30
0.0
 10
480.428552
 20
303.853884
 30
0.0
 10
475.175760
 20
307.086372
 30
0.0
 10
473.155456
 20
328.905668
 30
0.0
 10
478.004184
 20
339.815316
 30
0.0
 10
476.387944
 20
351.937148
 30
0.0
 10
483.256976
 20
360.422428
 30
0.0
 10
486.085408
 20
378.201116
 30
0.0
 10
474.771696
 20
379.009236
 30
0.0
 10
465.882352
 20
374.160500
 30
0.0
 10
431.941232
 20
380.221420
 30
0.0
 10
422.647824
 20
390.727004
 30
0.0
 10
416.586912
 20
390.322940
 30
0.0
 10
400.020408
 20
397.596044
 30
0.0
 10
383.857968
 20
417.799092
 30
0.0
 10
370.523952
 20
423.051884
 30
0.0
 10
361.230552
 20
436.385900
 30
0.0
 10
355.977760
 20
441.234636
 30
0.0
 10
355.169632
 20
451.740220
 30
0.0
 10
345.068112
 20
456.993012
 30
0.0
 10
333.350344
 20
458.205196
 30
0.0
 10
332.138160
 20
475.579820
 30
0.0
 10
324.461000
 20
483.661036
 30
0.0
 10
324.056936
 20
494.570684
 30
0.0
 10
313.955408
 20
486.489468
 30
0.0
 10
312.743232
 20
469.518900
 30
0.0
 10
303.045760
 20
460.225500
 30
0.0
 10
301.025456
 20
451.740220
 30
0.0
 10
299.813272
 20
440.022452
 30
0.0
 10
296.176728
 20
436.385900
 30
0.0
 10
299.005152
 20
419.819396
 30
0.0
 10
294.964544
 20
415.778788
 30
0.0
 10
296.984848
 20
403.656956
 30
0.0
 10
302.641704
 20
399.616348
 30
0.0
 10
305.470128
 20
392.343252
 30
0.0
 10
309.106680
 20
387.494516
 30
0.0
 10
315.571656
 20
389.514820
 30
0.0
 10
316.379776
 20
395.979796
 30
0.0
 10
320.016328
 20
401.232588
 30
0.0
 10
329.713792
 20
398.000100
 30
0.0
 10
332.542216
 20
383.453908
 30
0.0
 10
324.865056
 20
369.715836
 30
0.0
 10
324.056936
 20
356.381820
 30
0.0
 10
336.986888
 20
343.855924
 30
0.0
 10
339.007192
 20
336.582828
 30
0.0
 10
304.662008
 20
299.813276
 30
0.0
  0
LWPOLYLINE
  5
10e
100
AcDbEntity
  8
Layer_1
 62
7
100
AcDbPolyline
 90
23
 70
1
 10
304.257944
 20
299.813276
 30
0.0
 10
339.411256
 20
336.582828
 30
0.0
 10
336.582832
 20
344.259988
 30
0.0
 10
325.269120
 20
355.977756
 30
0.0
 10
324.056936
 20
368.907708
 30
0.0
 10
333.350344
 20
382.645788
 30
0.0
 10
329.309728
 20
399.212284
 30
0.0
 10
318.804144
 20
401.636652
 30
0.0
 10
316.783840
 20
395.979796
 30
0.0
 10
314.763536
 20
389.110764
 30
0.0
 10
309.510744
 20
389.110764
 30
0.0
 10
305.874192
 20
393.959492
 30
0.0
 10
302.641704
 20
399.616348
 30
0.0
 10
296.176728
 20
403.252900
 30
0.0
 10
278.802104
 20
373.352380
 30
0.0
 10
269.912760
 20
369.311772
 30
0.0
 10
268.700576
 20
365.675220
 30
0.0
 10
271.933064
 20
359.614308
 30
0.0
 10
255.770624
 20
347.896540
 30
0.0
 10
288.499568
 20
306.278252
 30
0.0
 10
296.580784
 20
303.449828
 30
0.0
 10
295.772664
 20
299.005156
 30
0.0
 10
304.257944
 20
299.813276
 30
0.0
  0
LWPOLYLINE
  5
10f
100
AcDbEntity
  8
Layer_1
 62
7
100
AcDbPolyline
 90
59
 70
1
 10
453.760520
 20
549.927044
 30
0.0
 10
446.487424
 20
552.351412
 30
0.0
 10
436.385896
 20
546.290500
 30
0.0
 10
426.688432
 20
546.290500
 30
0.0
 10
420.223456
 20
559.220452
 30
0.0
 10
408.909752
 20
565.281364
 30
0.0
 10
374.968624
 20
574.574772
 30
0.0
 10
342.643744
 20
574.574772
 30
0.0
 10
339.411256
 20
577.807260
 30
0.0
 10
327.693488
 20
578.615380
 30
0.0
 10
324.056936
 20
569.321972
 30
0.0
 10
330.925976
 20
565.281364
 30
0.0
 10
330.521912
 20
555.583900
 30
0.0
 10
334.158464
 20
552.351412
 30
0.0
 10
327.289424
 20
548.714860
 30
0.0
 10
332.542216
 20
530.532116
 30
0.0
 10
337.795008
 20
526.087444
 30
0.0
 10
336.178768
 20
506.692516
 30
0.0
 10
330.117848
 20
507.904700
 30
0.0
 10
324.865056
 20
500.631604
 30
0.0
 10
322.844752
 20
492.146324
 30
0.0
 10
324.865056
 20
481.640732
 30
0.0
 10
332.138160
 20
473.963572
 30
0.0
 10
331.734096
 20
458.609260
 30
0.0
 10
345.068112
 20
456.184892
 30
0.0
 10
354.765576
 20
450.528036
 30
0.0
 10
355.169632
 20
442.850876
 30
0.0
 10
370.523952
 20
422.243764
 30
0.0
 10
383.453904
 20
417.799092
 30
0.0
 10
400.424472
 20
396.787924
 30
0.0
 10
418.607216
 20
389.514820
 30
0.0
 10
423.455944
 20
391.131068
 30
0.0
 10
431.133104
 20
380.221420
 30
0.0
 10
466.690480
 20
374.160500
 30
0.0
 10
475.579816
 20
379.009236
 30
0.0
 10
486.489464
 20
378.201116
 30
0.0
 10
485.681344
 20
387.898580
 30
0.0
 10
500.631600
 20
387.090452
 30
0.0
 10
506.288456
 20
395.171676
 30
0.0
 10
507.096576
 20
408.505692
 30
0.0
 10
508.712824
 20
418.203156
 30
0.0
 10
505.076272
 20
424.264068
 30
0.0
 10
492.550384
 20
423.860012
 30
0.0
 10
484.469160
 20
425.476252
 30
0.0
 10
475.175760
 20
438.002148
 30
0.0
 10
455.376768
 20
448.911788
 30
0.0
 10
456.184888
 20
465.074236
 30
0.0
 10
451.740216
 20
470.327028
 30
0.0
 10
459.013320
 20
480.024492
 30
0.0
 10
480.024488
 20
490.126012
 30
0.0
 10
482.852920
 20
495.378812
 30
0.0
 10
473.559512
 20
499.015356
 30
0.0
 10
475.579816
 20
516.389980
 30
0.0
 10
472.347328
 20
522.450900
 30
0.0
 10
454.164584
 20
518.006228
 30
0.0
 10
446.487424
 20
514.369676
 30
0.0
 10
440.022448
 20
526.895572
 30
0.0
 10
444.063056
 20
539.421460
 30
0.0
 10
453.760520
 20
549.927044
 30
0.0
  0
ENDSEC
  0
SECTION
  2
OBJECTS
  0
DICTIONARY
  5
C
330
0
100
AcDbDictionary
  3
ACAD_GROUP
350
D
  3
ACAD_MLINESTYLE
350
17
  0
DICTIONARY
  5
D
330
C
100
AcDbDictionary
  0
DICTIONARY
  5
1A
330
C
100
AcDbDictionary
  0
DICTIONARY
  5
17
330
C
100
AcDbDictionary
  3
STANDARD
350
18
  0
DICTIONARY
  5
19
330
C
100
AcDbDictionary
  0
ENDSEC
  0
EOF
