  0
SECTION
  2
HEADER
  9
$ACADVER
  1
AC1014
  9
$HANDSEED
  5
FFFF
  9
$MEASUREMENT
 70
     1
  0
ENDSEC
  0
SECTION
  2
TABLES
  0
TABLE
  2
VPORT
  5
8
330
0
100
AcDbSymbolTable
 70
     4
  0
VPORT
  5
2E
330
8
100
AcDbSymbolTableRecord
100
AcDbViewportTableRecord
  2
*ACTIVE
 70
     0
 10
0.0
 20
0.0
 11
1.0
 21
1.0
 12
210.0
 22
148.5
 13
0.0
 23
0.0
 14
10.0
 24
10.0
 15
10.0
 25
10.0
 16
0.0
 26
0.0
 36
1.0
 17
0.0
 27
0.0
 37
0.0
 40
341.0
 41
1.24
 42
50.0
 43
0.0
 44
0.0
 50
0.0
 51
0.0
 71
     0
 72
   100
 73
     1
 74
     3
 75
     0
 76
     0
 77
     0
 78
     0
  0
ENDTAB
  0
TABLE
  2
LTYPE
  5
5
330
0
100
AcDbSymbolTable
 70
     1
  0
LTYPE
  5
14
330
5
100
AcDbSymbolTableRecord
100
AcDbLinetypeTableRecord
  2
BYBLOCK
 70
     0
  3

 72
    65
 73
     0
 40
0.0
  0
LTYPE
  5
15
330
5
100
AcDbSymbolTableRecord
100
AcDbLinetypeTableRecord
  2
BYLAYER
 70
     0
  3

 72
    65
 73
     0
 40
0.0
  0
LTYPE
  5
16
330
5
100
AcDbSymbolTableRecord
100
AcDbLinetypeTableRecord
  2
CONTINUOUS
 70
     0
  3
Solid line
 72
    65
 73
     0
 40
0.0
  0
ENDTAB
  0
TABLE
  2
LAYER
  5
2
100
AcDbSymbolTable
 70
2
  0
LAYER
  5
50
100
AcDbSymbolTableRecord
100
AcDbLayerTableRecord
  2
0
 70
0
  6
CONTINUOUS
  0
LAYER
  5
51
100
AcDbSymbolTableRecord
100
AcDbLayerTableRecord
  2
Layer_1
 70
0
  6
CONTINUOUS
  0
ENDTAB
  0
TABLE
  2
STYLE
  5
3
330
0
100
AcDbSymbolTable
 70
     1
  0
STYLE
  5
11
330
3
100
AcDbSymbolTableRecord
100
AcDbTextStyleTableRecord
  2
STANDARD
 70
     0
 40
0.0
 41
1.0
 50
0.0
 71
     0
 42
2.5
  3
txt
  4

  0
ENDTAB
  0
TABLE
  2
VIEW
  5
6
330
0
100
AcDbSymbolTable
 70
     0
  0
ENDTAB
  0
TABLE
  2
UCS
  5
7
330
0
100
AcDbSymbolTable
 70
     0
  0
ENDTAB
  0
TABLE
  2
APPID
  5
9
330
0
100
AcDbSymbolTable
 70
     2
  0
APPID
  5
12
330
9
100
AcDbSymbolTableRecord
100
AcDbRegAppTableRecord
  2
ACAD
 70
     0
  0
ENDTAB
  0
TABLE
  2
DIMSTYLE
  5
A
330
0
100
AcDbSymbolTable
 70
     1
  0
DIMSTYLE
105
27
330
A
100
AcDbSymbolTableRecord
100
AcDbDimStyleTableRecord
  2
ISO-25
 70
     0
  3

  4

  5

  6

  7

 40
1.0
 41
2.5
 42
0.625
 43
3.75
 44
1.25
 45
0.0
 46
0.0
 47
0.0
 48
0.0
140
2.5
141
2.5
142
0.0
143
0.03937007874016
144
1.0
145
0.0
146
1.0
147
0.625
 71
     0
 72
     0
 73
     0
 74
     0
 75
     0
 76
     0
 77
     1
 78
     8
170
     0
171
     3
172
     1
173
     0
174
     0
175
     0
176
     0
177
     0
178
     0
270
     2
271
     2
272
     2
273
     2
274
     3
340
11
275
     0
280
     0
281
     0
282
     0
283
     0
284
     8
285
     0
286
     0
287
     3
288
     0
  0
ENDTAB
  0
TABLE
  2
BLOCK_RECORD
  5
1
330
0
100
AcDbSymbolTable
 70
     1
  0
BLOCK_RECORD
  5
1F
330
1
100
AcDbSymbolTableRecord
100
AcDbBlockTableRecord
  2
*MODEL_SPACE
  0
BLOCK_RECORD
  5
1B
330
1
100
AcDbSymbolTableRecord
100
AcDbBlockTableRecord
  2
*PAPER_SPACE
  0
ENDTAB
  0
ENDSEC
  0
SECTION
  2
BLOCKS
  0
BLOCK
  5
20
330
1F
100
AcDbEntity
  8
0
100
AcDbBlockBegin
  2
*MODEL_SPACE
 70
     0
 10
0.0
 20
0.0
 30
0.0
  3
*MODEL_SPACE
  1

  0
ENDBLK
  5
21
330
1F
100
AcDbEntity
  8
0
100
AcDbBlockEnd
  0
BLOCK
  5
1C
330
1B
100
AcDbEntity
 67
     1
  8
0
100
AcDbBlockBegin
  2
*PAPER_SPACE
  1

  0
ENDBLK
  5
1D
330
1B
100
AcDbEntity
 67
     1
  8
0
100
AcDbBlockEnd
  0
ENDSEC
  0
SECTION
  2
ENTITIES
  0
LWPOLYLINE
  5
100
100
AcDbEntity
  8
Layer_1
 62
7
100
AcDbPolyline
 90
14
 70
1
 10
-304.000000
 20
617.142860
 30
0.0
 10
-269.714288
 20
654.857140
 30
0.0
 10
-256.000000
 20
698.285716
 30
0.0
 10
-208.571432
 20
704.000004
 30
0.0
 10
-157.142856
 20
695.428572
 30
0.0
 10
-93.142856
 20
608.571428
 30
0.0
 10
-106.285712
 20
604.571428
 30
0.0
 10
-124.571432
 20
613.714284
 30
0.0
 10
-186.285712
 20
617.142860
 30
0.0
 10
-205.142856
 20
612.000004
 30
0.0
 10
-258.857144
 20
570.285716
 30
0.0
 10
-285.714288
 20
560.571428
 30
0.0
 10
-301.714288
 20
596.571428
 30
0.0
 10
-304.000000
 20
617.142860
 30
0.0
  0
LWPOLYLINE
  5
101
100
AcDbEntity
  8
Layer_1
 62
7
100
AcDbPolyline
 90
12
 70
1
 10
-228.000000
 20
594.285716
 30
0.0
 10
-192.571432
 20
545.142860
 30
0.0
 10
-143.428568
 20
549.142860
 30
0.0
 10
-114.285712
 20
560.000004
 30
0.0
 10
-88.000000
 20
565.142860
 30
0.0
 10
-82.285712
 20
597.142860
 30
0.0
 10
-93.142856
 20
608.571428
 30
0.0
 10
-106.857144
 20
603.428572
 30
0.0
 10
-126.857144
 20
613.714284
 30
0.0
 10
-181.714288
 20
616.571428
 30
0.0
 10
-201.142856
 20
613.142860
 30
0.0
 10
-228.000000
 20
594.285716
 30
0.0
  0
LWPOLYLINE
  5
102
100
AcDbEntity
  8
Layer_1
 62
7
100
AcDbPolyline
 90
17
 70
1
 10
-228.571432
 20
596.000004
 30
0.0
 10
-193.142856
 20
545.714284
 30
0.0
 10
-144.000000
 20
549.714284
 30
0.0
 10
-112.571432
 20
560.000004
 30
0.0
 10
-90.285712
 20
562.857140
 30
0.0
 10
-93.714288
 20
547.428572
 30
0.0
 10
-85.142856
 20
540.571428
 30
0.0
 10
-80.000000
 20
517.142860
 30
0.0
 10
-84.000000
 20
507.428572
 30
0.0
 10
-104.571432
 20
488.000004
 30
0.0
 10
-129.142856
 20
489.142860
 30
0.0
 10
-136.571432
 20
492.571428
 30
0.0
 10
-212.000000
 20
486.857140
 30
0.0
 10
-262.285712
 20
508.571428
 30
0.0
 10
-287.428568
 20
561.142860
 30
0.0
 10
-261.142856
 20
568.571428
 30
0.0
 10
-228.571432
 20
596.000004
 30
0.0
  0
LWPOLYLINE
  5
103
100
AcDbEntity
  8
Layer_1
 62
7
100
AcDbPolyline
 90
23
 70
1
 10
-126.857144
 20
489.142860
 30
0.0
 10
-130.857144
 20
476.571428
 30
0.0
 10
-120.571432
 20
441.142860
 30
0.0
 10
-70.285714
 20
378.857140
 30
0.0
 10
-20.571429
 20
388.000004
 30
0.0
 10
2.285714
 20
410.857140
 30
0.0
 10
13.714286
 20
442.285716
 30
0.0
 10
18.857143
 20
486.857140
 30
0.0
 10
64.571429
 20
492.571428
 30
0.0
 10
84.571432
 20
480.571428
 30
0.0
 10
88.571432
 20
501.714284
 30
0.0
 10
66.857143
 20
536.000004
 30
0.0
 10
56.571429
 20
541.714284
 30
0.0
 10
36.571429
 20
540.000004
 30
0.0
 10
-11.428571
 20
516.000004
 30
0.0
 10
-40.000000
 20
555.428572
 30
0.0
 10
-25.142857
 20
579.428572
 30
0.0
 10
-82.857144
 20
593.714284
 30
0.0
 10
-92.571432
 20
546.285716
 30
0.0
 10
-82.285712
 20
538.285716
 30
0.0
 10
-79.428571
 20
517.714284
 30
0.0
 10
-104.571432
 20
487.428572
 30
0.0
 10
-126.857144
 20
489.142860
 30
0.0
  0
LWPOLYLINE
  5
104
100
AcDbEntity
  8
Layer_1
 62
7
100
AcDbPolyline
 90
17
 70
1
 10
-136.000000
 20
342.285716
 30
0.0
 10
-155.428568
 20
228.000004
 30
0.0
 10
-210.285712
 20
218.857140
 30
0.0
 10
-225.714288
 20
210.857140
 30
0.0
 10
-244.000000
 20
192.571428
 30
0.0
 10
-273.142856
 20
191.428572
 30
0.0
 10
-271.428568
 20
196.000004
 30
0.0
 10
-355.428568
 20
320.000004
 30
0.0
 10
-365.142856
 20
361.142860
 30
0.0
 10
-341.714288
 20
365.142860
 30
0.0
 10
-333.714288
 20
371.428572
 30
0.0
 10
-302.285712
 20
372.000004
 30
0.0
 10
-270.857144
 20
389.142860
 30
0.0
 10
-234.285712
 20
389.142860
 30
0.0
 10
-186.285712
 20
371.428572
 30
0.0
 10
-162.285712
 20
352.571428
 30
0.0
 10
-136.000000
 20
342.285716
 30
0.0
  0
LWPOLYLINE
  5
105
100
AcDbEntity
  8
Layer_1
 62
7
100
AcDbPolyline
 90
23
 70
1
 10
-262.285712
 20
507.428572
 30
0.0
 10
-264.000000
 20
489.142860
 30
0.0
 10
-310.285712
 20
464.571428
 30
0.0
 10
-329.142856
 20
443.428572
 30
0.0
 10
-363.428568
 20
376.000004
 30
0.0
 10
-363.428568
 20
360.000004
 30
0.0
 10
-339.428568
 20
365.714284
 30
0.0
 10
-333.714288
 20
372.571428
 30
0.0
 10
-301.142856
 20
372.571428
 30
0.0
 10
-269.714288
 20
388.571428
 30
0.0
 10
-229.714288
 20
387.428572
 30
0.0
 10
-189.142856
 20
373.142860
 30
0.0
 10
-170.857144
 20
359.428572
 30
0.0
 10
-160.000000
 20
352.000004
 30
0.0
 10
-132.571432
 20
340.000004
 30
0.0
 10
-109.714288
 20
364.571428
 30
0.0
 10
-69.714286
 20
378.857140
 30
0.0
 10
-120.000000
 20
441.142860
 30
0.0
 10
-129.142856
 20
474.285716
 30
0.0
 10
-126.857144
 20
492.000004
 30
0.0
 10
-161.142856
 20
489.714284
 30
0.0
 10
-212.000000
 20
488.571428
 30
0.0
 10
-262.285712
 20
507.428572
 30
0.0
  0
ENDSEC
  0
SECTION
  2
OBJECTS
  0
DICTIONARY
  5
C
330
0
100
AcDbDictionary
  3
ACAD_GROUP
350
D
  3
ACAD_MLINESTYLE
350
17
  0
DICTIONARY
  5
D
330
C
100
AcDbDictionary
  0
DICTIONARY
  5
1A
330
C
100
AcDbDictionary
  0
DICTIONARY
  5
17
330
C
100
AcDbDictionary
  3
STANDARD
350
18
  0
DICTIONARY
  5
19
330
C
100
AcDbDictionary
  0
ENDSEC
  0
EOF
