  0
SECTION
  2
HEADER
  9
$ACADVER
  1
AC1014
  9
$HANDSEED
  5
FFFF
  9
$MEASUREMENT
 70
     1
  0
ENDSEC
  0
SECTION
  2
TABLES
  0
TABLE
  2
VPORT
  5
8
330
0
100
AcDbSymbolTable
 70
     4
  0
VPORT
  5
2E
330
8
100
AcDbSymbolTableRecord
100
AcDbViewportTableRecord
  2
*ACTIVE
 70
     0
 10
0.0
 20
0.0
 11
1.0
 21
1.0
 12
210.0
 22
148.5
 13
0.0
 23
0.0
 14
10.0
 24
10.0
 15
10.0
 25
10.0
 16
0.0
 26
0.0
 36
1.0
 17
0.0
 27
0.0
 37
0.0
 40
341.0
 41
1.24
 42
50.0
 43
0.0
 44
0.0
 50
0.0
 51
0.0
 71
     0
 72
   100
 73
     1
 74
     3
 75
     0
 76
     0
 77
     0
 78
     0
  0
ENDTAB
  0
TABLE
  2
LTYPE
  5
5
330
0
100
AcDbSymbolTable
 70
     1
  0
LTYPE
  5
14
330
5
100
AcDbSymbolTableRecord
100
AcDbLinetypeTableRecord
  2
BYBLOCK
 70
     0
  3

 72
    65
 73
     0
 40
0.0
  0
LTYPE
  5
15
330
5
100
AcDbSymbolTableRecord
100
AcDbLinetypeTableRecord
  2
BYLAYER
 70
     0
  3

 72
    65
 73
     0
 40
0.0
  0
LTYPE
  5
16
330
5
100
AcDbSymbolTableRecord
100
AcDbLinetypeTableRecord
  2
CONTINUOUS
 70
     0
  3
Solid line
 72
    65
 73
     0
 40
0.0
  0
ENDTAB
  0
TABLE
  2
LAYER
  5
2
100
AcDbSymbolTable
 70
2
  0
LAYER
  5
50
100
AcDbSymbolTableRecord
100
AcDbLayerTableRecord
  2
0
 70
0
  6
CONTINUOUS
  0
LAYER
  5
51
100
AcDbSymbolTableRecord
100
AcDbLayerTableRecord
  2
Layer_1
 70
0
  6
CONTINUOUS
  0
ENDTAB
  0
TABLE
  2
STYLE
  5
3
330
0
100
AcDbSymbolTable
 70
     1
  0
STYLE
  5
11
330
3
100
AcDbSymbolTableRecord
100
AcDbTextStyleTableRecord
  2
STANDARD
 70
     0
 40
0.0
 41
1.0
 50
0.0
 71
     0
 42
2.5
  3
txt
  4

  0
ENDTAB
  0
TABLE
  2
VIEW
  5
6
330
0
100
AcDbSymbolTable
 70
     0
  0
ENDTAB
  0
TABLE
  2
UCS
  5
7
330
0
100
AcDbSymbolTable
 70
     0
  0
ENDTAB
  0
TABLE
  2
APPID
  5
9
330
0
100
AcDbSymbolTable
 70
     2
  0
APPID
  5
12
330
9
100
AcDbSymbolTableRecord
100
AcDbRegAppTableRecord
  2
ACAD
 70
     0
  0
ENDTAB
  0
TABLE
  2
DIMSTYLE
  5
A
330
0
100
AcDbSymbolTable
 70
     1
  0
DIMSTYLE
105
27
330
A
100
AcDbSymbolTableRecord
100
AcDbDimStyleTableRecord
  2
ISO-25
 70
     0
  3

  4

  5

  6

  7

 40
1.0
 41
2.5
 42
0.625
 43
3.75
 44
1.25
 45
0.0
 46
0.0
 47
0.0
 48
0.0
140
2.5
141
2.5
142
0.0
143
0.03937007874016
144
1.0
145
0.0
146
1.0
147
0.625
 71
     0
 72
     0
 73
     0
 74
     0
 75
     0
 76
     0
 77
     1
 78
     8
170
     0
171
     3
172
     1
173
     0
174
     0
175
     0
176
     0
177
     0
178
     0
270
     2
271
     2
272
     2
273
     2
274
     3
340
11
275
     0
280
     0
281
     0
282
     0
283
     0
284
     8
285
     0
286
     0
287
     3
288
     0
  0
ENDTAB
  0
TABLE
  2
BLOCK_RECORD
  5
1
330
0
100
AcDbSymbolTable
 70
     1
  0
BLOCK_RECORD
  5
1F
330
1
100
AcDbSymbolTableRecord
100
AcDbBlockTableRecord
  2
*MODEL_SPACE
  0
BLOCK_RECORD
  5
1B
330
1
100
AcDbSymbolTableRecord
100
AcDbBlockTableRecord
  2
*PAPER_SPACE
  0
ENDTAB
  0
ENDSEC
  0
SECTION
  2
BLOCKS
  0
BLOCK
  5
20
330
1F
100
AcDbEntity
  8
0
100
AcDbBlockBegin
  2
*MODEL_SPACE
 70
     0
 10
0.0
 20
0.0
 30
0.0
  3
*MODEL_SPACE
  1

  0
ENDBLK
  5
21
330
1F
100
AcDbEntity
  8
0
100
AcDbBlockEnd
  0
BLOCK
  5
1C
330
1B
100
AcDbEntity
 67
     1
  8
0
100
AcDbBlockBegin
  2
*PAPER_SPACE
  1

  0
ENDBLK
  5
1D
330
1B
100
AcDbEntity
 67
     1
  8
0
100
AcDbBlockEnd
  0
ENDSEC
  0
SECTION
  2
ENTITIES
  0
LWPOLYLINE
  5
100
100
AcDbEntity
  8
Layer_1
 62
7
100
AcDbPolyline
 90
23
 70
1
 10
396.787920
 20
784.686497
 30
0.0
 10
391.535128
 20
771.352484
 30
0.0
 10
341.835624
 20
741.047908
 30
0.0
 10
351.129024
 20
718.824548
 30
0.0
 10
362.038672
 20
701.449932
 30
0.0
 10
375.776744
 20
696.601196
 30
0.0
 10
417.799096
 20
697.005260
 30
0.0
 10
419.011280
 20
682.054996
 30
0.0
 10
432.345288
 20
682.459060
 30
0.0
 10
443.254936
 20
667.104740
 30
0.0
 10
456.184888
 20
669.529108
 30
0.0
 10
467.498600
 20
666.296620
 30
0.0
 10
472.751392
 20
654.578852
 30
0.0
 10
482.044792
 20
651.750420
 30
0.0
 10
483.661040
 20
662.256012
 30
0.0
 10
474.771696
 20
673.569716
 30
0.0
 10
486.489464
 20
680.438756
 30
0.0
 10
481.236672
 20
702.662108
 30
0.0
 10
447.295544
 20
721.248916
 30
0.0
 10
423.455944
 20
739.027604
 30
0.0
 10
414.162544
 20
756.402228
 30
0.0
 10
406.485384
 20
766.099691
 30
0.0
 10
396.787920
 20
784.686497
 30
0.0
  0
LWPOLYLINE
  5
101
100
AcDbEntity
  8
Layer_1
 62
7
100
AcDbPolyline
 90
40
 70
1
 10
396.787920
 20
785.494620
 30
0.0
 10
428.708744
 20
787.110864
 30
0.0
 10
451.740216
 20
800.444877
 30
0.0
 10
469.922968
 20
803.677365
 30
0.0
 10
481.236672
 20
798.020511
 30
0.0
 10
488.913832
 20
776.605277
 30
0.0
 10
501.843784
 20
753.169740
 30
0.0
 10
511.137192
 20
722.057044
 30
0.0
 10
524.471200
 20
682.459060
 30
0.0
 10
542.653944
 20
673.973780
 30
0.0
 10
557.200144
 20
642.052956
 30
0.0
 10
562.857000
 20
589.525028
 30
0.0
 10
558.412328
 20
574.170708
 30
0.0
 10
552.351416
 20
569.726036
 30
0.0
 10
541.845824
 20
569.726036
 30
0.0
 10
526.087448
 20
565.685428
 30
0.0
 10
517.198104
 20
558.008268
 30
0.0
 10
514.369680
 20
549.927044
 30
0.0
 10
507.904704
 20
564.877300
 30
0.0
 10
493.762568
 20
576.999132
 30
0.0
 10
461.841744
 20
627.102700
 30
0.0
 10
447.295544
 20
630.739252
 30
0.0
 10
435.577776
 20
647.709812
 30
0.0
 10
433.153408
 20
658.215396
 30
0.0
 10
418.607216
 20
669.125044
 30
0.0
 10
417.395032
 20
682.054996
 30
0.0
 10
432.345288
 20
682.863124
 30
0.0
 10
443.659000
 20
667.508804
 30
0.0
 10
455.780832
 20
669.529108
 30
0.0
 10
469.518904
 20
666.296620
 30
0.0
 10
473.559512
 20
655.386972
 30
0.0
 10
482.044792
 20
651.346364
 30
0.0
 10
484.065096
 20
662.256012
 30
0.0
 10
475.175760
 20
674.781900
 30
0.0
 10
486.085408
 20
680.438756
 30
0.0
 10
480.832608
 20
703.470236
 30
0.0
 10
446.083368
 20
721.248916
 30
0.0
 10
423.051888
 20
739.835724
 30
0.0
 10
406.889448
 20
765.291569
 30
0.0
 10
396.787920
 20
785.494620
 30
0.0
  0
LWPOLYLINE
  5
102
100
AcDbEntity
  8
Layer_1
 62
7
100
AcDbPolyline
 90
22
 70
1
 10
492.550384
 20
580.231620
 30
0.0
 10
462.245808
 20
627.506764
 30
0.0
 10
449.315856
 20
631.143308
 30
0.0
 10
435.981840
 20
646.901692
 30
0.0
 10
424.668128
 20
645.689508
 30
0.0
 10
425.072192
 20
625.486460
 30
0.0
 10
427.496560
 20
621.041788
 30
0.0
 10
420.223456
 20
614.576812
 30
0.0
 10
424.264072
 20
607.707772
 30
0.0
 10
429.112800
 20
608.111836
 30
0.0
 10
429.516864
 20
613.768684
 30
0.0
 10
434.365592
 20
613.768684
 30
0.0
 10
434.365592
 20
608.515892
 30
0.0
 10
440.426512
 20
604.475284
 30
0.0
 10
439.214328
 20
599.626548
 30
0.0
 10
435.173720
 20
598.818428
 30
0.0
 10
434.365592
 20
591.141268
 30
0.0
 10
440.022448
 20
589.120964
 30
0.0
 10
438.002144
 20
586.292540
 30
0.0
 10
445.275240
 20
582.655988
 30
0.0
 10
473.963576
 20
584.676292
 30
0.0
 10
492.550384
 20
580.231620
 30
0.0
  0
LWPOLYLINE
  5
103
100
AcDbEntity
  8
Layer_1
 62
7
100
AcDbPolyline
 90
54
 70
1
 10
342.643744
 20
741.451972
 30
0.0
 10
363.250856
 20
701.853988
 30
0.0
 10
375.776744
 20
697.409316
 30
0.0
 10
418.607216
 20
697.409316
 30
0.0
 10
419.011280
 20
668.316924
 30
0.0
 10
433.961536
 20
659.427580
 30
0.0
 10
435.981840
 20
646.497628
 30
0.0
 10
425.476256
 20
645.285444
 30
0.0
 10
426.284376
 20
624.678332
 30
0.0
 10
427.900616
 20
619.829604
 30
0.0
 10
420.627520
 20
614.980868
 30
0.0
 10
424.668128
 20
608.111836
 30
0.0
 10
428.708744
 20
608.919956
 30
0.0
 10
429.112800
 20
613.364628
 30
0.0
 10
434.365592
 20
613.364628
 30
0.0
 10
435.173720
 20
608.111836
 30
0.0
 10
441.234632
 20
604.475284
 30
0.0
 10
439.214328
 20
598.818428
 30
0.0
 10
435.173720
 20
598.818428
 30
0.0
 10
435.173720
 20
591.545332
 30
0.0
 10
441.234632
 20
589.525028
 30
0.0
 10
438.002144
 20
585.080356
 30
0.0
 10
427.496560
 20
590.333148
 30
0.0
 10
427.496560
 20
595.585940
 30
0.0
 10
419.415336
 20
597.202188
 30
0.0
 10
407.697568
 20
601.646860
 30
0.0
 10
404.869144
 20
609.324012
 30
0.0
 10
399.212288
 20
609.728076
 30
0.0
 10
399.212288
 20
618.213356
 30
0.0
 10
386.686392
 20
619.425540
 30
0.0
 10
384.666088
 20
622.253972
 30
0.0
 10
383.857968
 20
626.698636
 30
0.0
 10
379.009232
 20
628.314884
 30
0.0
 10
381.837664
 20
632.759556
 30
0.0
 10
383.453904
 20
644.881388
 30
0.0
 10
378.201112
 20
646.497628
 30
0.0
 10
373.756440
 20
650.538236
 30
0.0
 10
371.332072
 20
656.195092
 30
0.0
 10
361.634608
 20
657.407276
 30
0.0
 10
354.361512
 20
659.831644
 30
0.0
 10
342.239680
 20
659.831644
 30
0.0
 10
336.986888
 20
656.195092
 30
0.0
 10
327.693488
 20
656.195092
 30
0.0
 10
326.481304
 20
648.517932
 30
0.0
 10
318.400080
 20
648.113876
 30
0.0
 10
317.187896
 20
651.346364
 30
0.0
 10
312.339168
 20
651.346364
 30
0.0
 10
315.167592
 20
636.800164
 30
0.0
 10
296.580784
 20
633.567676
 30
0.0
 10
289.307688
 20
655.386972
 30
0.0
 10
287.691448
 20
679.630636
 30
0.0
 10
296.580784
 20
701.449932
 30
0.0
 10
294.964544
 20
712.763636
 30
0.0
 10
342.643744
 20
741.451972
 30
0.0
  0
LWPOLYLINE
  5
104
100
AcDbEntity
  8
Layer_1
 62
7
100
AcDbPolyline
 90
19
 70
1
 10
443.659000
 20
583.868172
 30
0.0
 10
435.981840
 20
575.382892
 30
0.0
 10
410.121936
 20
569.321972
 30
0.0
 10
399.212288
 20
583.868172
 30
0.0
 10
386.282336
 20
586.292540
 30
0.0
 10
389.918880
 20
595.585940
 30
0.0
 10
375.776744
 20
599.222492
 30
0.0
 10
374.564568
 20
619.829604
 30
0.0
 10
378.201112
 20
628.314884
 30
0.0
 10
385.070152
 20
626.294580
 30
0.0
 10
385.878272
 20
621.041788
 30
0.0
 10
388.302640
 20
619.425540
 30
0.0
 10
399.212288
 20
619.021484
 30
0.0
 10
399.616344
 20
609.728076
 30
0.0
 10
405.273200
 20
609.728076
 30
0.0
 10
406.081320
 20
601.242796
 30
0.0
 10
427.092496
 20
595.585940
 30
0.0
 10
428.708744
 20
590.333148
 30
0.0
 10
443.659000
 20
583.868172
 30
0.0
  0
LWPOLYLINE
  5
105
100
AcDbEntity
  8
Layer_1
 62
7
100
AcDbPolyline
 90
26
 70
1
 10
410.525992
 20
570.130100
 30
0.0
 10
400.424472
 20
584.272236
 30
0.0
 10
387.494520
 20
587.100660
 30
0.0
 10
390.727008
 20
595.585940
 30
0.0
 10
376.988928
 20
600.030612
 30
0.0
 10
374.968624
 20
619.829604
 30
0.0
 10
381.837664
 20
632.355492
 30
0.0
 10
384.262032
 20
645.285444
 30
0.0
 10
378.201112
 20
646.497628
 30
0.0
 10
371.736136
 20
655.791036
 30
0.0
 10
354.765576
 20
660.235708
 30
0.0
 10
341.027496
 20
659.427580
 30
0.0
 10
337.390952
 20
656.599156
 30
0.0
 10
328.097544
 20
656.599156
 30
0.0
 10
327.289424
 20
647.709812
 30
0.0
 10
319.612264
 20
648.921996
 30
0.0
 10
316.379776
 20
651.750420
 30
0.0
 10
312.743232
 20
651.750420
 30
0.0
 10
314.763536
 20
638.012348
 30
0.0
 10
297.388912
 20
633.971740
 30
0.0
 10
301.833584
 20
625.486460
 30
0.0
 10
345.472168
 20
596.798124
 30
0.0
 10
362.038672
 20
565.281364
 30
0.0
 10
373.756440
 20
556.392020
 30
0.0
 10
378.605176
 20
538.613340
 30
0.0
 10
410.525992
 20
570.130100
 30
0.0
  0
LWPOLYLINE
  5
106
100
AcDbEntity
  8
Layer_1
 62
7
100
AcDbPolyline
 90
30
 70
1
 10
378.201112
 20
539.825524
 30
0.0
 10
339.007192
 20
509.925004
 30
0.0
 10
317.591960
 20
489.317892
 30
0.0
 10
311.531048
 20
475.983876
 30
0.0
 10
291.327992
 20
455.780828
 30
0.0
 10
284.054896
 20
466.690476
 30
0.0
 10
275.569616
 20
466.286412
 30
0.0
 10
273.953368
 20
495.782868
 30
0.0
 10
271.124944
 20
507.904700
 30
0.0
 10
261.831536
 20
513.965612
 30
0.0
 10
235.971632
 20
552.755476
 30
0.0
 10
215.364520
 20
582.655988
 30
0.0
 10
202.434568
 20
596.394060
 30
0.0
 10
194.757408
 20
611.344324
 30
0.0
 10
194.757408
 20
673.165660
 30
0.0
 10
212.536096
 20
679.226572
 30
0.0
 10
227.890416
 20
694.176828
 30
0.0
 10
251.730016
 20
704.682420
 30
0.0
 10
266.680272
 20
703.470236
 30
0.0
 10
283.246776
 20
707.914908
 30
0.0
 10
295.368608
 20
713.167700
 30
0.0
 10
296.984848
 20
699.429620
 30
0.0
 10
288.095504
 20
680.034692
 30
0.0
 10
290.115808
 20
657.811340
 30
0.0
 10
298.197032
 20
633.567676
 30
0.0
 10
302.641704
 20
625.486460
 30
0.0
 10
345.876232
 20
597.606244
 30
0.0
 10
363.250856
 20
565.281364
 30
0.0
 10
375.372688
 20
556.796084
 30
0.0
 10
378.201112
 20
539.825524
 30
0.0
  0
LWPOLYLINE
  5
107
100
AcDbEntity
  8
Layer_1
 62
7
100
AcDbPolyline
 90
40
 70
1
 10
291.732056
 20
455.376764
 30
0.0
 10
268.700576
 20
434.365596
 30
0.0
 10
269.104640
 20
419.819396
 30
0.0
 10
255.366560
 20
396.787924
 30
0.0
 10
242.032552
 20
388.302636
 30
0.0
 10
223.041680
 20
392.343252
 30
0.0
 10
206.879240
 20
399.616348
 30
0.0
 10
160.816288
 20
351.937148
 30
0.0
 10
141.421360
 20
355.169636
 30
0.0
 10
130.915768
 20
353.149332
 30
0.0
 10
134.552320
 20
370.928012
 30
0.0
 10
143.845720
 20
379.413300
 30
0.0
 10
150.310696
 20
388.302636
 30
0.0
 10
149.906640
 20
400.828532
 30
0.0
 10
122.834552
 20
412.546300
 30
0.0
 10
117.985816
 20
428.304676
 30
0.0
 10
117.985816
 20
438.002148
 30
0.0
 10
126.067040
 20
444.063060
 30
0.0
 10
141.421360
 20
454.972708
 30
0.0
 10
154.755368
 20
474.771700
 30
0.0
 10
159.604104
 20
488.105708
 30
0.0
 10
170.513752
 20
503.055972
 30
0.0
 10
175.766544
 20
527.703692
 30
0.0
 10
158.795984
 20
548.714860
 30
0.0
 10
138.188872
 20
587.100660
 30
0.0
 10
122.430488
 20
631.951436
 30
0.0
 10
111.924904
 20
657.811340
 30
0.0
 10
131.319832
 20
666.700684
 30
0.0
 10
144.249784
 20
672.357532
 30
0.0
 10
151.926944
 20
672.357532
 30
0.0
 10
169.705624
 20
665.488500
 30
0.0
 10
195.969592
 20
673.165660
 30
0.0
 10
195.565536
 20
611.344324
 30
0.0
 10
204.050816
 20
595.181884
 30
0.0
 10
211.727976
 20
588.312844
 30
0.0
 10
262.639664
 20
513.157492
 30
0.0
 10
272.337128
 20
507.904700
 30
0.0
 10
276.781800
 20
466.286412
 30
0.0
 10
284.458960
 20
466.286412
 30
0.0
 10
291.732056
 20
455.376764
 30
0.0
  0
LWPOLYLINE
  5
108
100
AcDbEntity
  8
Layer_1
 62
7
100
AcDbPolyline
 90
28
 70
1
 10
111.924904
 20
657.811340
 30
0.0
 10
135.360440
 20
595.181884
 30
0.0
 10
160.008160
 20
547.906740
 30
0.0
 10
176.574664
 20
526.491508
 30
0.0
 10
171.321872
 20
503.460028
 30
0.0
 10
160.816288
 20
489.317892
 30
0.0
 10
154.351312
 20
472.347332
 30
0.0
 10
142.229480
 20
454.568644
 30
0.0
 10
126.471096
 20
443.658996
 30
0.0
 10
116.773632
 20
450.528036
 30
0.0
 10
97.782768
 20
450.528036
 30
0.0
 10
77.579715
 20
466.690476
 30
0.0
 10
64.245702
 20
467.094540
 30
0.0
 10
48.083261
 20
475.579820
 30
0.0
 10
19.394929
 20
477.196060
 30
0.0
 10
13.334014
 20
481.640732
 30
0.0
 10
19.798990
 20
492.550380
 30
0.0
 10
4.040610
 20
513.157492
 30
0.0
 10
-19.798990
 20
519.218412
 30
0.0
 10
-37.577674
 20
534.168668
 30
0.0
 10
-59.801030
 20
573.766644
 30
0.0
 10
-59.801030
 20
581.443804
 30
0.0
 10
-18.990868
 20
598.818428
 30
0.0
 10
-14.546197
 20
598.818428
 30
0.0
 10
12.525891
 20
622.658028
 30
0.0
 10
56.164482
 20
648.517932
 30
0.0
 10
73.539106
 20
655.386972
 30
0.0
 10
111.924904
 20
657.811340
 30
0.0
  0
LWPOLYLINE
  5
109
100
AcDbEntity
  8
Layer_1
 62
7
100
AcDbPolyline
 90
32
 70
1
 10
14.142136
 20
482.044796
 30
0.0
 10
21.415234
 20
477.196060
 30
0.0
 10
48.083261
 20
477.196060
 30
0.0
 10
64.245702
 20
468.710780
 30
0.0
 10
78.387838
 20
466.690476
 30
0.0
 10
97.378704
 20
450.528036
 30
0.0
 10
117.177696
 20
450.528036
 30
0.0
 10
127.279224
 20
443.658996
 30
0.0
 10
119.602064
 20
438.406204
 30
0.0
 10
118.793936
 20
427.900620
 30
0.0
 10
122.834552
 20
413.758484
 30
0.0
 10
150.714760
 20
401.232588
 30
0.0
 10
150.714760
 20
387.090452
 30
0.0
 10
134.956384
 20
370.523956
 30
0.0
 10
131.319832
 20
352.341212
 30
0.0
 10
111.924904
 20
336.986892
 30
0.0
 10
82.428448
 20
336.986892
 30
0.0
 10
86.873120
 20
355.573700
 30
0.0
 10
78.387838
 20
379.009236
 30
0.0
 10
53.336054
 20
387.090452
 30
0.0
 10
37.577674
 20
395.979796
 30
0.0
 10
23.839600
 20
400.424468
 30
0.0
 10
8.081220
 20
398.000100
 30
0.0
 10
-7.677159
 20
387.898580
 30
0.0
 10
-18.990868
 20
397.191980
 30
0.0
 10
-19.798990
 20
429.920924
 30
0.0
 10
-27.072088
 20
436.385900
 30
0.0
 10
-36.365492
 20
438.406204
 30
0.0
 10
-52.123871
 20
444.871180
 30
0.0
 10
-60.609153
 20
455.376764
 30
0.0
 10
-34.345186
 20
458.205196
 30
0.0
 10
14.142136
 20
482.044796
 30
0.0
  0
LWPOLYLINE
  5
10a
100
AcDbEntity
  8
Layer_1
 62
7
100
AcDbPolyline
 90
14
 70
1
 10
-6.464976
 20
388.706700
 30
0.0
 10
8.889342
 20
398.404164
 30
0.0
 10
26.263966
 20
400.424468
 30
0.0
 10
40.406102
 20
394.767612
 30
0.0
 10
51.719810
 20
388.706700
 30
0.0
 10
78.387838
 20
379.413300
 30
0.0
 10
87.681240
 20
355.573700
 30
0.0
 10
83.236568
 20
336.178764
 30
0.0
 10
54.952298
 20
336.178764
 30
0.0
 10
19.798990
 20
329.309732
 30
0.0
 10
16.970562
 20
349.916844
 30
0.0
 10
7.677159
 20
362.442732
 30
0.0
 10
2.828427
 20
381.433604
 30
0.0
 10
-6.464976
 20
388.706700
 30
0.0
  0
LWPOLYLINE
  5
10b
100
AcDbEntity
  8
Layer_1
 62
7
100
AcDbPolyline
 90
17
 70
1
 10
-37.173614
 20
438.810268
 30
0.0
 10
-25.859905
 20
436.789964
 30
0.0
 10
-19.394929
 20
430.324988
 30
0.0
 10
-18.182746
 20
397.191980
 30
0.0
 10
4.848732
 20
381.433604
 30
0.0
 10
9.293403
 20
362.442732
 30
0.0
 10
17.778685
 20
349.916844
 30
0.0
 10
20.607112
 20
328.501612
 30
0.0
 10
-33.537065
 20
320.420388
 30
0.0
 10
-67.882251
 20
320.824452
 30
0.0
 10
-73.135044
 20
330.925972
 30
0.0
 10
-75.155350
 20
364.058980
 30
0.0
 10
-54.144177
 20
386.282332
 30
0.0
 10
-47.275139
 20
398.808228
 30
0.0
 10
-44.042651
 20
414.162548
 30
0.0
 10
-43.638590
 20
428.708740
 30
0.0
 10
-37.173614
 20
438.810268
 30
0.0
  0
LWPOLYLINE
  5
10c
100
AcDbEntity
  8
Layer_1
 62
7
100
AcDbPolyline
 90
22
 70
1
 10
-61.013214
 20
454.568644
 30
0.0
 10
-51.315750
 20
445.275244
 30
0.0
 10
-36.365492
 20
439.214324
 30
0.0
 10
-42.022346
 20
429.920924
 30
0.0
 10
-43.234529
 20
411.738180
 30
0.0
 10
-46.871078
 20
398.404164
 30
0.0
 10
-53.740115
 20
386.282332
 30
0.0
 10
-74.347227
 20
363.654916
 30
0.0
 10
-73.135044
 20
330.925972
 30
0.0
 10
-67.074129
 20
321.632572
 30
0.0
 10
-88.085304
 20
310.722924
 30
0.0
 10
-102.631496
 20
296.984852
 30
0.0
 10
-147.886336
 20
299.813276
 30
0.0
 10
-177.382784
 20
320.016324
 30
0.0
 10
-167.281264
 20
338.603132
 30
0.0
 10
-153.543184
 20
381.433604
 30
0.0
 10
-155.159432
 20
429.112804
 30
0.0
 10
-153.139128
 20
448.507732
 30
0.0
 10
-130.511712
 20
450.932100
 30
0.0
 10
-107.884288
 20
445.275244
 30
0.0
 10
-91.721848
 20
447.295548
 30
0.0
 10
-61.013214
 20
454.568644
 30
0.0
  0
ENDSEC
  0
SECTION
  2
OBJECTS
  0
DICTIONARY
  5
C
330
0
100
AcDbDictionary
  3
ACAD_GROUP
350
D
  3
ACAD_MLINESTYLE
350
17
  0
DICTIONARY
  5
D
330
C
100
AcDbDictionary
  0
DICTIONARY
  5
1A
330
C
100
AcDbDictionary
  0
DICTIONARY
  5
17
330
C
100
AcDbDictionary
  3
STANDARD
350
18
  0
DICTIONARY
  5
19
330
C
100
AcDbDictionary
  0
ENDSEC
  0
EOF
