  0
SECTION
  2
HEADER
  9
$ACADVER
  1
AC1014
  9
$HANDSEED
  5
FFFF
  9
$MEASUREMENT
 70
     1
  0
ENDSEC
  0
SECTION
  2
TABLES
  0
TABLE
  2
VPORT
  5
8
330
0
100
AcDbSymbolTable
 70
     4
  0
VPORT
  5
2E
330
8
100
AcDbSymbolTableRecord
100
AcDbViewportTableRecord
  2
*ACTIVE
 70
     0
 10
0.0
 20
0.0
 11
1.0
 21
1.0
 12
210.0
 22
148.5
 13
0.0
 23
0.0
 14
10.0
 24
10.0
 15
10.0
 25
10.0
 16
0.0
 26
0.0
 36
1.0
 17
0.0
 27
0.0
 37
0.0
 40
341.0
 41
1.24
 42
50.0
 43
0.0
 44
0.0
 50
0.0
 51
0.0
 71
     0
 72
   100
 73
     1
 74
     3
 75
     0
 76
     0
 77
     0
 78
     0
  0
ENDTAB
  0
TABLE
  2
LTYPE
  5
5
330
0
100
AcDbSymbolTable
 70
     1
  0
LTYPE
  5
14
330
5
100
AcDbSymbolTableRecord
100
AcDbLinetypeTableRecord
  2
BYBLOCK
 70
     0
  3

 72
    65
 73
     0
 40
0.0
  0
LTYPE
  5
15
330
5
100
AcDbSymbolTableRecord
100
AcDbLinetypeTableRecord
  2
BYLAYER
 70
     0
  3

 72
    65
 73
     0
 40
0.0
  0
LTYPE
  5
16
330
5
100
AcDbSymbolTableRecord
100
AcDbLinetypeTableRecord
  2
CONTINUOUS
 70
     0
  3
Solid line
 72
    65
 73
     0
 40
0.0
  0
ENDTAB
  0
TABLE
  2
LAYER
  5
2
100
AcDbSymbolTable
 70
2
  0
LAYER
  5
50
100
AcDbSymbolTableRecord
100
AcDbLayerTableRecord
  2
0
 70
0
  6
CONTINUOUS
  0
LAYER
  5
51
100
AcDbSymbolTableRecord
100
AcDbLayerTableRecord
  2
Layer_1
 70
0
  6
CONTINUOUS
  0
ENDTAB
  0
TABLE
  2
STYLE
  5
3
330
0
100
AcDbSymbolTable
 70
     1
  0
STYLE
  5
11
330
3
100
AcDbSymbolTableRecord
100
AcDbTextStyleTableRecord
  2
STANDARD
 70
     0
 40
0.0
 41
1.0
 50
0.0
 71
     0
 42
2.5
  3
txt
  4

  0
ENDTAB
  0
TABLE
  2
VIEW
  5
6
330
0
100
AcDbSymbolTable
 70
     0
  0
ENDTAB
  0
TABLE
  2
UCS
  5
7
330
0
100
AcDbSymbolTable
 70
     0
  0
ENDTAB
  0
TABLE
  2
APPID
  5
9
330
0
100
AcDbSymbolTable
 70
     2
  0
APPID
  5
12
330
9
100
AcDbSymbolTableRecord
100
AcDbRegAppTableRecord
  2
ACAD
 70
     0
  0
ENDTAB
  0
TABLE
  2
DIMSTYLE
  5
A
330
0
100
AcDbSymbolTable
 70
     1
  0
DIMSTYLE
105
27
330
A
100
AcDbSymbolTableRecord
100
AcDbDimStyleTableRecord
  2
ISO-25
 70
     0
  3

  4

  5

  6

  7

 40
1.0
 41
2.5
 42
0.625
 43
3.75
 44
1.25
 45
0.0
 46
0.0
 47
0.0
 48
0.0
140
2.5
141
2.5
142
0.0
143
0.03937007874016
144
1.0
145
0.0
146
1.0
147
0.625
 71
     0
 72
     0
 73
     0
 74
     0
 75
     0
 76
     0
 77
     1
 78
     8
170
     0
171
     3
172
     1
173
     0
174
     0
175
     0
176
     0
177
     0
178
     0
270
     2
271
     2
272
     2
273
     2
274
     3
340
11
275
     0
280
     0
281
     0
282
     0
283
     0
284
     8
285
     0
286
     0
287
     3
288
     0
  0
ENDTAB
  0
TABLE
  2
BLOCK_RECORD
  5
1
330
0
100
AcDbSymbolTable
 70
     1
  0
BLOCK_RECORD
  5
1F
330
1
100
AcDbSymbolTableRecord
100
AcDbBlockTableRecord
  2
*MODEL_SPACE
  0
BLOCK_RECORD
  5
1B
330
1
100
AcDbSymbolTableRecord
100
AcDbBlockTableRecord
  2
*PAPER_SPACE
  0
ENDTAB
  0
ENDSEC
  0
SECTION
  2
BLOCKS
  0
BLOCK
  5
20
330
1F
100
AcDbEntity
  8
0
100
AcDbBlockBegin
  2
*MODEL_SPACE
 70
     0
 10
0.0
 20
0.0
 30
0.0
  3
*MODEL_SPACE
  1

  0
ENDBLK
  5
21
330
1F
100
AcDbEntity
  8
0
100
AcDbBlockEnd
  0
BLOCK
  5
1C
330
1B
100
AcDbEntity
 67
     1
  8
0
100
AcDbBlockBegin
  2
*PAPER_SPACE
  1

  0
ENDBLK
  5
1D
330
1B
100
AcDbEntity
 67
     1
  8
0
100
AcDbBlockEnd
  0
ENDSEC
  0
SECTION
  2
ENTITIES
  0
LWPOLYLINE
  5
100
100
AcDbEntity
  8
Layer_1
 62
7
100
AcDbPolyline
 90
28
 70
1
 10
-2.424366
 20
606.899652
 30
0.0
 10
24.243661
 20
581.847868
 30
0.0
 10
46.062956
 20
564.877300
 30
0.0
 10
94.550280
 20
524.471204
 30
0.0
 10
125.258912
 20
505.884396
 30
0.0
 10
106.672112
 20
445.275244
 30
0.0
 10
108.288352
 20
406.485388
 30
0.0
 10
101.823376
 20
390.322940
 30
0.0
 10
105.863984
 20
364.463036
 30
0.0
 10
115.561448
 20
341.027500
 30
0.0
 10
112.328960
 20
315.167596
 30
0.0
 10
113.137088
 20
292.540180
 30
0.0
 10
118.793936
 20
269.104636
 30
0.0
 10
129.299528
 20
253.750316
 30
0.0
 10
142.229480
 20
227.890412
 30
0.0
 10
34.749247
 20
241.628492
 30
0.0
 10
19.394929
 20
254.558444
 30
0.0
 10
-18.586807
 20
269.104636
 30
0.0
 10
-32.324882
 20
268.296516
 30
0.0
 10
-95.358400
 20
342.643740
 30
0.0
 10
-80.004080
 20
367.695524
 30
0.0
 10
-76.771594
 20
399.212284
 30
0.0
 10
-88.893424
 20
469.518900
 30
0.0
 10
-80.812200
 20
511.541252
 30
0.0
 10
-90.509672
 20
520.430588
 30
0.0
 10
-46.871078
 20
585.080356
 30
0.0
 10
-17.778685
 20
596.394060
 30
0.0
 10
-2.424366
 20
606.899652
 30
0.0
  0
LWPOLYLINE
  5
101
100
AcDbEntity
  8
Layer_1
 62
7
100
AcDbPolyline
 90
30
 70
1
 10
141.825416
 20
229.102596
 30
0.0
 10
132.127952
 20
249.709708
 30
0.0
 10
118.793936
 20
267.892452
 30
0.0
 10
113.137088
 20
291.732052
 30
0.0
 10
112.328960
 20
314.763532
 30
0.0
 10
115.561448
 20
341.835620
 30
0.0
 10
105.863984
 20
365.675220
 30
0.0
 10
103.843680
 20
378.201116
 30
0.0
 10
101.015256
 20
389.110764
 30
0.0
 10
107.884288
 20
406.081324
 30
0.0
 10
105.863984
 20
443.658996
 30
0.0
 10
124.046736
 20
508.308764
 30
0.0
 10
148.290392
 20
505.480332
 30
0.0
 10
156.775672
 20
507.096580
 30
0.0
 10
177.786848
 20
497.803172
 30
0.0
 10
191.120864
 20
482.044796
 30
0.0
 10
203.646752
 20
458.205196
 30
0.0
 10
216.576704
 20
449.315852
 30
0.0
 10
308.298560
 20
423.455948
 30
0.0
 10
313.551352
 20
393.959492
 30
0.0
 10
282.034592
 20
374.160500
 30
0.0
 10
273.549312
 20
362.038676
 30
0.0
 10
271.933064
 20
343.855924
 30
0.0
 10
279.610224
 20
328.905668
 30
0.0
 10
279.610224
 20
320.016324
 30
0.0
 10
265.872152
 20
293.752364
 30
0.0
 10
267.892456
 20
269.912764
 30
0.0
 10
258.194992
 20
275.165556
 30
0.0
 10
225.061984
 20
244.860980
 30
0.0
 10
141.825416
 20
229.102596
 30
0.0
  0
LWPOLYLINE
  5
102
100
AcDbEntity
  8
Layer_1
 62
7
100
AcDbPolyline
 90
17
 70
1
 10
269.508696
 20
269.508700
 30
0.0
 10
362.038672
 20
214.556404
 30
0.0
 10
373.756440
 20
243.648796
 30
0.0
 10
371.736136
 20
285.267076
 30
0.0
 10
404.061016
 20
332.946276
 30
0.0
 10
382.645784
 20
354.765572
 30
0.0
 10
349.512784
 20
381.837660
 30
0.0
 10
329.309728
 20
391.535124
 30
0.0
 10
313.147288
 20
393.959492
 30
0.0
 10
283.246776
 20
375.372684
 30
0.0
 10
274.357432
 20
364.867100
 30
0.0
 10
270.720880
 20
341.431564
 30
0.0
 10
278.802104
 20
327.693484
 30
0.0
 10
279.206160
 20
318.400084
 30
0.0
 10
265.872152
 20
295.368604
 30
0.0
 10
267.488392
 20
270.316820
 30
0.0
 10
269.508696
 20
269.508700
 30
0.0
  0
LWPOLYLINE
  5
103
100
AcDbEntity
  8
Layer_1
 62
7
100
AcDbPolyline
 90
19
 70
1
 10
404.869144
 20
334.158460
 30
0.0
 10
422.243768
 20
410.121932
 30
0.0
 10
469.922968
 20
421.839700
 30
0.0
 10
476.792000
 20
457.397076
 30
0.0
 10
483.661040
 20
462.649868
 30
0.0
 10
473.963576
 20
478.004188
 30
0.0
 10
471.135144
 20
497.399116
 30
0.0
 10
458.205192
 20
513.157492
 30
0.0
 10
432.345288
 20
528.511812
 30
0.0
 10
402.848832
 20
526.895572
 30
0.0
 10
379.817360
 20
544.270188
 30
0.0
 10
364.463040
 20
532.552420
 30
0.0
 10
359.210248
 20
521.642772
 30
0.0
 10
304.662008
 20
447.295548
 30
0.0
 10
313.551352
 20
393.959492
 30
0.0
 10
330.925976
 20
390.727004
 30
0.0
 10
351.937144
 20
380.221420
 30
0.0
 10
404.465080
 20
332.138156
 30
0.0
 10
404.869144
 20
334.158460
 30
0.0
  0
LWPOLYLINE
  5
104
100
AcDbEntity
  8
Layer_1
 62
7
100
AcDbPolyline
 90
33
 70
1
 10
381.029544
 20
544.674252
 30
0.0
 10
364.058976
 20
531.340236
 30
0.0
 10
351.533088
 20
509.520948
 30
0.0
 10
305.470128
 20
447.295548
 30
0.0
 10
309.106680
 20
423.860012
 30
0.0
 10
218.192952
 20
448.103668
 30
0.0
 10
204.050816
 20
456.993012
 30
0.0
 10
190.716800
 20
480.428548
 30
0.0
 10
178.190912
 20
496.995052
 30
0.0
 10
155.563496
 20
507.500636
 30
0.0
 10
149.906640
 20
504.268148
 30
0.0
 10
122.026424
 20
507.096580
 30
0.0
 10
92.125912
 20
523.663084
 30
0.0
 10
-6.060915
 20
607.707772
 30
0.0
 10
15.354318
 20
624.274276
 30
0.0
 10
28.688332
 20
640.840772
 30
0.0
 10
73.943166
 20
644.073260
 30
0.0
 10
124.450792
 20
647.709812
 30
0.0
 10
136.572624
 20
645.689508
 30
0.0
 10
153.947248
 20
638.416412
 30
0.0
 10
183.443704
 20
670.337228
 30
0.0
 10
210.515792
 20
685.287484
 30
0.0
 10
277.185856
 20
708.318964
 30
0.0
 10
297.792968
 20
679.226572
 30
0.0
 10
311.531048
 20
669.529108
 30
0.0
 10
333.754400
 20
660.235708
 30
0.0
 10
355.977760
 20
654.982908
 30
0.0
 10
368.503648
 20
646.093572
 30
0.0
 10
372.948320
 20
631.547372
 30
0.0
 10
372.544256
 20
610.940260
 30
0.0
 10
368.503648
 20
583.868172
 30
0.0
 10
371.736136
 20
562.856996
 30
0.0
 10
381.029544
 20
544.674252
 30
0.0
  0
LWPOLYLINE
  5
105
100
AcDbEntity
  8
Layer_1
 62
7
100
AcDbPolyline
 90
29
 70
1
 10
483.661040
 20
464.670172
 30
0.0
 10
545.078312
 20
570.534156
 30
0.0
 10
551.139232
 20
622.658028
 30
0.0
 10
554.371720
 20
693.368708
 30
0.0
 10
536.593032
 20
728.117956
 30
0.0
 10
512.753432
 20
740.239788
 30
0.0
 10
423.860008
 20
764.079385
 30
0.0
 10
387.090456
 20
759.230652
 30
0.0
 10
373.352384
 20
754.381924
 30
0.0
 10
355.977760
 20
741.047908
 30
0.0
 10
327.289424
 20
727.309836
 30
0.0
 10
303.853888
 20
716.804244
 30
0.0
 10
276.377736
 20
707.510844
 30
0.0
 10
296.984848
 20
678.822508
 30
0.0
 10
310.318864
 20
668.720988
 30
0.0
 10
339.815320
 20
657.003220
 30
0.0
 10
355.977760
 20
654.578852
 30
0.0
 10
366.887408
 20
645.689508
 30
0.0
 10
372.948320
 20
630.335188
 30
0.0
 10
371.332072
 20
607.303708
 30
0.0
 10
367.695528
 20
585.484412
 30
0.0
 10
370.523952
 20
560.028572
 30
0.0
 10
380.221416
 20
541.845828
 30
0.0
 10
404.061016
 20
524.067140
 30
0.0
 10
431.537168
 20
526.087444
 30
0.0
 10
457.801136
 20
511.541252
 30
0.0
 10
469.922968
 20
497.803172
 30
0.0
 10
474.771696
 20
474.771700
 30
0.0
 10
483.661040
 20
464.670172
 30
0.0
  0
ENDSEC
  0
SECTION
  2
OBJECTS
  0
DICTIONARY
  5
C
330
0
100
AcDbDictionary
  3
ACAD_GROUP
350
D
  3
ACAD_MLINESTYLE
350
17
  0
DICTIONARY
  5
D
330
C
100
AcDbDictionary
  0
DICTIONARY
  5
1A
330
C
100
AcDbDictionary
  0
DICTIONARY
  5
17
330
C
100
AcDbDictionary
  3
STANDARD
350
18
  0
DICTIONARY
  5
19
330
C
100
AcDbDictionary
  0
ENDSEC
  0
EOF
