  0
SECTION
  2
HEADER
  9
$ACADVER
  1
AC1014
  9
$HANDSEED
  5
FFFF
  9
$MEASUREMENT
 70
     1
  0
ENDSEC
  0
SECTION
  2
TABLES
  0
TABLE
  2
VPORT
  5
8
330
0
100
AcDbSymbolTable
 70
     4
  0
VPORT
  5
2E
330
8
100
AcDbSymbolTableRecord
100
AcDbViewportTableRecord
  2
*ACTIVE
 70
     0
 10
0.0
 20
0.0
 11
1.0
 21
1.0
 12
210.0
 22
148.5
 13
0.0
 23
0.0
 14
10.0
 24
10.0
 15
10.0
 25
10.0
 16
0.0
 26
0.0
 36
1.0
 17
0.0
 27
0.0
 37
0.0
 40
341.0
 41
1.24
 42
50.0
 43
0.0
 44
0.0
 50
0.0
 51
0.0
 71
     0
 72
   100
 73
     1
 74
     3
 75
     0
 76
     0
 77
     0
 78
     0
  0
ENDTAB
  0
TABLE
  2
LTYPE
  5
5
330
0
100
AcDbSymbolTable
 70
     1
  0
LTYPE
  5
14
330
5
100
AcDbSymbolTableRecord
100
AcDbLinetypeTableRecord
  2
BYBLOCK
 70
     0
  3

 72
    65
 73
     0
 40
0.0
  0
LTYPE
  5
15
330
5
100
AcDbSymbolTableRecord
100
AcDbLinetypeTableRecord
  2
BYLAYER
 70
     0
  3

 72
    65
 73
     0
 40
0.0
  0
LTYPE
  5
16
330
5
100
AcDbSymbolTableRecord
100
AcDbLinetypeTableRecord
  2
CONTINUOUS
 70
     0
  3
Solid line
 72
    65
 73
     0
 40
0.0
  0
ENDTAB
  0
TABLE
  2
LAYER
  5
2
100
AcDbSymbolTable
 70
2
  0
LAYER
  5
50
100
AcDbSymbolTableRecord
100
AcDbLayerTableRecord
  2
0
 70
0
  6
CONTINUOUS
  0
LAYER
  5
51
100
AcDbSymbolTableRecord
100
AcDbLayerTableRecord
  2
Layer_1
 70
0
  6
CONTINUOUS
  0
ENDTAB
  0
TABLE
  2
STYLE
  5
3
330
0
100
AcDbSymbolTable
 70
     1
  0
STYLE
  5
11
330
3
100
AcDbSymbolTableRecord
100
AcDbTextStyleTableRecord
  2
STANDARD
 70
     0
 40
0.0
 41
1.0
 50
0.0
 71
     0
 42
2.5
  3
txt
  4

  0
ENDTAB
  0
TABLE
  2
VIEW
  5
6
330
0
100
AcDbSymbolTable
 70
     0
  0
ENDTAB
  0
TABLE
  2
UCS
  5
7
330
0
100
AcDbSymbolTable
 70
     0
  0
ENDTAB
  0
TABLE
  2
APPID
  5
9
330
0
100
AcDbSymbolTable
 70
     2
  0
APPID
  5
12
330
9
100
AcDbSymbolTableRecord
100
AcDbRegAppTableRecord
  2
ACAD
 70
     0
  0
ENDTAB
  0
TABLE
  2
DIMSTYLE
  5
A
330
0
100
AcDbSymbolTable
 70
     1
  0
DIMSTYLE
105
27
330
A
100
AcDbSymbolTableRecord
100
AcDbDimStyleTableRecord
  2
ISO-25
 70
     0
  3

  4

  5

  6

  7

 40
1.0
 41
2.5
 42
0.625
 43
3.75
 44
1.25
 45
0.0
 46
0.0
 47
0.0
 48
0.0
140
2.5
141
2.5
142
0.0
143
0.03937007874016
144
1.0
145
0.0
146
1.0
147
0.625
 71
     0
 72
     0
 73
     0
 74
     0
 75
     0
 76
     0
 77
     1
 78
     8
170
     0
171
     3
172
     1
173
     0
174
     0
175
     0
176
     0
177
     0
178
     0
270
     2
271
     2
272
     2
273
     2
274
     3
340
11
275
     0
280
     0
281
     0
282
     0
283
     0
284
     8
285
     0
286
     0
287
     3
288
     0
  0
ENDTAB
  0
TABLE
  2
BLOCK_RECORD
  5
1
330
0
100
AcDbSymbolTable
 70
     1
  0
BLOCK_RECORD
  5
1F
330
1
100
AcDbSymbolTableRecord
100
AcDbBlockTableRecord
  2
*MODEL_SPACE
  0
BLOCK_RECORD
  5
1B
330
1
100
AcDbSymbolTableRecord
100
AcDbBlockTableRecord
  2
*PAPER_SPACE
  0
ENDTAB
  0
ENDSEC
  0
SECTION
  2
BLOCKS
  0
BLOCK
  5
20
330
1F
100
AcDbEntity
  8
0
100
AcDbBlockBegin
  2
*MODEL_SPACE
 70
     0
 10
0.0
 20
0.0
 30
0.0
  3
*MODEL_SPACE
  1

  0
ENDBLK
  5
21
330
1F
100
AcDbEntity
  8
0
100
AcDbBlockEnd
  0
BLOCK
  5
1C
330
1B
100
AcDbEntity
 67
     1
  8
0
100
AcDbBlockBegin
  2
*PAPER_SPACE
  1

  0
ENDBLK
  5
1D
330
1B
100
AcDbEntity
 67
     1
  8
0
100
AcDbBlockEnd
  0
ENDSEC
  0
SECTION
  2
ENTITIES
  0
LWPOLYLINE
  5
100
100
AcDbEntity
  8
Layer_1
 62
7
100
AcDbPolyline
 90
59
 70
1
 10
-77.142855
 20
612.857143
 30
0.0
 10
-153.214279
 20
611.785718
 30
0.0
 10
-196.071426
 20
612.857143
 30
0.0
 10
-233.571424
 20
628.928572
 30
0.0
 10
-263.571423
 20
621.428573
 30
0.0
 10
-301.071430
 20
596.785717
 30
0.0
 10
-330.000009
 20
543.214290
 30
0.0
 10
-364.285701
 20
500.357140
 30
0.0
 10
-405.000000
 20
490.714299
 30
0.0
 10
-444.642860
 20
533.571449
 30
0.0
 10
-474.642850
 20
530.357159
 30
0.0
 10
-516.428561
 20
488.571449
 30
0.0
 10
-556.071420
 20
567.857146
 30
0.0
 10
-556.071420
 20
646.071435
 30
0.0
 10
-537.857150
 20
767.142859
 30
0.0
 10
-497.142850
 20
806.785716
 30
0.0
 10
-475.714290
 20
844.285715
 30
0.0
 10
-417.857131
 20
852.857143
 30
0.0
 10
-324.642841
 20
844.285715
 30
0.0
 10
-198.214279
 20
845.357143
 30
0.0
 10
-127.499998
 20
827.142858
 30
0.0
 10
-161.785715
 20
759.642860
 30
0.0
 10
-140.357143
 20
750.000005
 30
0.0
 10
-114.642853
 20
757.500004
 30
0.0
 10
-93.214281
 20
752.142861
 30
0.0
 10
-81.428570
 20
712.500007
 30
0.0
 10
-87.857144
 20
686.785717
 30
0.0
 10
-64.285713
 20
673.928572
 30
0.0
 10
-5.357143
 20
680.357143
 30
0.0
 10
11.785714
 20
675.000006
 30
0.0
 10
11.785714
 20
661.071433
 30
0.0
 10
-26.785714
 20
639.642861
 30
0.0
 10
-70.714284
 20
625.714288
 30
0.0
 10
-77.142855
 20
612.857143
 30
0.0
 10
-196.071426
 20
612.857143
 30
0.0
 10
-233.571424
 20
628.928572
 30
0.0
 10
-263.571418
 20
621.428579
 30
0.0
 10
-301.071430
 20
596.785717
 30
0.0
 10
-330.000009
 20
543.214290
 30
0.0
 10
-364.285701
 20
500.357140
 30
0.0
 10
-405.000000
 20
490.714299
 30
0.0
 10
-444.642860
 20
533.571449
 30
0.0
 10
-474.642850
 20
530.357159
 30
0.0
 10
-516.428561
 20
488.571449
 30
0.0
 10
-473.571411
 20
459.642869
 30
0.0
 10
-414.642841
 20
333.214299
 30
0.0
 10
-319.285701
 20
256.071430
 30
0.0
 10
-184.285715
 20
178.928589
 30
0.0
 10
-53.571427
 20
169.285720
 30
0.0
 10
-20.357143
 20
196.071449
 30
0.0
 10
-17.142857
 20
240.000009
 30
0.0
 10
-2.142857
 20
267.857150
 30
0.0
 10
-13.928571
 20
295.714290
 30
0.0
 10
-13.928571
 20
320.357140
 30
0.0
 10
40.714285
 20
370.714280
 30
0.0
 10
56.785714
 20
396.428570
 30
0.0
 10
-2.142857
 20
517.500000
 30
0.0
 10
-12.857143
 20
556.071449
 30
0.0
 10
-50.357143
 20
590.357146
 30
0.0
  0
LWPOLYLINE
  5
101
100
AcDbEntity
  8
Layer_1
 62
7
100
AcDbPolyline
 90
32
 70
1
 10
-2.142857
 20
517.500000
 30
0.0
 10
56.785714
 20
396.428570
 30
0.0
 10
40.714285
 20
370.714280
 30
0.0
 10
-13.928571
 20
320.357140
 30
0.0
 10
-13.928571
 20
295.714290
 30
0.0
 10
-2.142857
 20
267.857150
 30
0.0
 10
35.357142
 20
253.928580
 30
0.0
 10
71.249998
 20
263.035729
 30
0.0
 10
104.464281
 20
278.035710
 30
0.0
 10
132.321427
 20
283.392879
 30
0.0
 10
156.964280
 20
276.428580
 30
0.0
 10
186.428571
 20
257.678589
 30
0.0
 10
187.499996
 20
212.142869
 30
0.0
 10
214.821425
 20
206.250009
 30
0.0
 10
254.464279
 20
210.535710
 30
0.0
 10
259.821425
 20
178.928589
 30
0.0
 10
279.642852
 20
147.857159
 30
0.0
 10
348.214280
 20
185.892860
 30
0.0
 10
364.285701
 20
213.750000
 30
0.0
 10
333.214271
 20
241.607140
 30
0.0
 10
331.607140
 20
252.321449
 30
0.0
 10
336.964280
 20
309.642860
 30
0.0
 10
323.571430
 20
350.892879
 30
0.0
 10
322.499991
 20
374.464290
 30
0.0
 10
292.500000
 20
405.000000
 30
0.0
 10
293.571411
 20
433.392860
 30
0.0
 10
260.357142
 20
438.214280
 30
0.0
 10
228.749998
 20
462.321439
 30
0.0
 10
211.607141
 20
483.214280
 30
0.0
 10
168.214280
 20
509.464290
 30
0.0
 10
138.214281
 20
521.250009
 30
0.0
 10
59.999998
 20
525.000019
 30
0.0
  0
LWPOLYLINE
  5
102
100
AcDbEntity
  8
Layer_1
 62
7
100
AcDbPolyline
 90
18
 70
1
 10
364.285701
 20
213.750000
 30
0.0
 10
333.214271
 20
241.607140
 30
0.0
 10
331.607140
 20
252.321449
 30
0.0
 10
336.964280
 20
309.642860
 30
0.0
 10
323.571430
 20
350.892879
 30
0.0
 10
322.499991
 20
374.464290
 30
0.0
 10
292.500000
 20
405.000000
 30
0.0
 10
293.571411
 20
433.392860
 30
0.0
 10
337.500000
 20
444.642860
 30
0.0
 10
406.607131
 20
442.500009
 30
0.0
 10
470.357150
 20
478.928580
 30
0.0
 10
495.535720
 20
468.750019
 30
0.0
 10
535.178580
 20
413.571430
 30
0.0
 10
572.678561
 20
357.321430
 30
0.0
 10
625.178551
 20
326.250000
 30
0.0
 10
567.857140
 20
213.214280
 30
0.0
 10
524.999991
 20
147.321439
 30
0.0
 10
419.999981
 20
186.964299
 30
0.0
  0
LWPOLYLINE
  5
103
100
AcDbEntity
  8
Layer_1
 62
7
100
AcDbPolyline
 90
16
 70
1
 10
524.999991
 20
147.321439
 30
0.0
 10
485.892850
 20
85.178551
 30
0.0
 10
487.499981
 20
17.142888
 30
0.0
 10
481.607150
 20
16.071449
 30
0.0
 10
479.999991
 20
-11.785720
 30
0.0
 10
463.928570
 20
-34.285720
 30
0.0
 10
394.285720
 20
-40.714271
 30
0.0
 10
333.214271
 20
-41.785739
 30
0.0
 10
253.928568
 20
-23.571439
 30
0.0
 10
200.892852
 20
28.928551
 30
0.0
 10
154.821424
 20
35.892907
 30
0.0
 10
160.178570
 20
77.142898
 30
0.0
 10
279.642852
 20
147.857159
 30
0.0
 10
348.214280
 20
185.892860
 30
0.0
 10
364.285701
 20
213.750000
 30
0.0
 10
419.999981
 20
186.964299
 30
0.0
  0
LWPOLYLINE
  5
104
100
AcDbEntity
  8
Layer_1
 62
7
100
AcDbPolyline
 90
21
 70
1
 10
-2.142857
 20
267.857150
 30
0.0
 10
-17.142857
 20
240.000009
 30
0.0
 10
-20.357143
 20
196.071449
 30
0.0
 10
-53.571427
 20
169.285720
 30
0.0
 10
43.928572
 20
41.249991
 30
0.0
 10
71.249998
 20
28.392888
 30
0.0
 10
95.892854
 20
30.535710
 30
0.0
 10
123.214280
 20
39.107169
 30
0.0
 10
154.821424
 20
35.892907
 30
0.0
 10
160.178570
 20
77.142898
 30
0.0
 10
279.642852
 20
147.857159
 30
0.0
 10
259.821425
 20
178.928589
 30
0.0
 10
254.464279
 20
210.535710
 30
0.0
 10
214.821425
 20
206.250009
 30
0.0
 10
187.499991
 20
212.142869
 30
0.0
 10
186.428571
 20
257.678589
 30
0.0
 10
156.964280
 20
276.428580
 30
0.0
 10
132.321427
 20
283.392879
 30
0.0
 10
104.464281
 20
278.035710
 30
0.0
 10
71.249998
 20
263.035729
 30
0.0
 10
35.357142
 20
253.928580
 30
0.0
  0
LWPOLYLINE
  5
105
100
AcDbEntity
  8
Layer_1
 62
7
100
AcDbPolyline
 90
10
 70
1
 10
319.821420
 20
679.285715
 30
0.0
 10
296.250009
 20
662.678572
 30
0.0
 10
287.142860
 20
645.000007
 30
0.0
 10
292.500000
 20
617.142861
 30
0.0
 10
291.964280
 20
593.035716
 30
0.0
 10
317.142850
 20
559.285719
 30
0.0
 10
348.750000
 20
591.428571
 30
0.0
 10
377.678580
 20
615.000008
 30
0.0
 10
374.464290
 20
648.750008
 30
0.0
 10
354.642860
 20
653.571434
 30
0.0
  0
LWPOLYLINE
  5
106
100
AcDbEntity
  8
Layer_1
 62
7
100
AcDbPolyline
 90
30
 70
1
 10
287.142860
 20
645.000007
 30
0.0
 10
269.464280
 20
655.714290
 30
0.0
 10
247.499997
 20
625.178571
 30
0.0
 10
235.178569
 20
601.607143
 30
0.0
 10
189.642852
 20
571.607144
 30
0.0
 10
164.464279
 20
548.571430
 30
0.0
 10
152.678571
 20
541.607159
 30
0.0
 10
138.214281
 20
521.250009
 30
0.0
 10
168.214280
 20
509.464290
 30
0.0
 10
211.607135
 20
483.214280
 30
0.0
 10
228.749998
 20
462.321439
 30
0.0
 10
260.357142
 20
438.214280
 30
0.0
 10
293.571411
 20
433.392860
 30
0.0
 10
337.500000
 20
444.642860
 30
0.0
 10
406.607131
 20
442.500009
 30
0.0
 10
470.357150
 20
478.928580
 30
0.0
 10
495.535720
 20
468.750019
 30
0.0
 10
523.392860
 20
477.857140
 30
0.0
 10
539.464280
 20
525.535710
 30
0.0
 10
554.999981
 20
548.571430
 30
0.0
 10
525.535710
 20
536.250019
 30
0.0
 10
482.142841
 20
513.750019
 30
0.0
 10
459.107150
 20
508.392850
 30
0.0
 10
416.250000
 20
514.285710
 30
0.0
 10
391.607150
 20
520.714290
 30
0.0
 10
370.714280
 20
533.571449
 30
0.0
 10
344.999991
 20
536.785710
 30
0.0
 10
317.142850
 20
559.285724
 30
0.0
 10
291.964280
 20
593.035716
 30
0.0
 10
292.500000
 20
617.142861
 30
0.0
  0
LWPOLYLINE
  5
107
100
AcDbEntity
  8
Layer_1
 62
7
100
AcDbPolyline
 90
19
 70
1
 10
319.821420
 20
679.285715
 30
0.0
 10
345.535710
 20
704.464288
 30
0.0
 10
370.178561
 20
721.071434
 30
0.0
 10
404.464280
 20
729.642861
 30
0.0
 10
431.785701
 20
740.357144
 30
0.0
 10
458.035710
 20
745.178570
 30
0.0
 10
459.642841
 20
759.642860
 30
0.0
 10
471.428561
 20
774.107144
 30
0.0
 10
496.607131
 20
782.678574
 30
0.0
 10
502.499991
 20
763.928569
 30
0.0
 10
497.142850
 20
738.214288
 30
0.0
 10
479.999991
 20
720.535714
 30
0.0
 10
478.392860
 20
710.892862
 30
0.0
 10
469.285710
 20
690.535715
 30
0.0
 10
457.499991
 20
675.000006
 30
0.0
 10
427.500000
 20
662.678572
 30
0.0
 10
401.785710
 20
654.107145
 30
0.0
 10
374.464290
 20
648.750013
 30
0.0
 10
354.642860
 20
653.571434
 30
0.0
  0
LWPOLYLINE
  5
108
100
AcDbEntity
  8
Layer_1
 62
7
100
AcDbPolyline
 90
44
 70
1
 10
431.785701
 20
740.357144
 30
0.0
 10
411.964271
 20
775.714286
 30
0.0
 10
366.428580
 20
779.464287
 30
0.0
 10
327.857131
 20
780.000001
 30
0.0
 10
309.107140
 20
790.178573
 30
0.0
 10
276.428568
 20
786.964286
 30
0.0
 10
259.821425
 20
807.321430
 30
0.0
 10
235.178569
 20
801.428573
 30
0.0
 10
209.999996
 20
804.642860
 30
0.0
 10
215.892853
 20
785.892858
 30
0.0
 10
206.785715
 20
776.785717
 30
0.0
 10
205.178570
 20
762.321433
 30
0.0
 10
183.749998
 20
743.035714
 30
0.0
 10
151.071426
 20
727.500005
 30
0.0
 10
104.464281
 20
724.285715
 30
0.0
 10
58.928570
 20
701.250007
 30
0.0
 10
49.285715
 20
701.785715
 30
0.0
 10
1.607143
 20
716.785716
 30
0.0
 10
-17.678572
 20
720.535714
 30
0.0
 10
-81.428570
 20
712.500007
 30
0.0
 10
-87.857144
 20
686.785717
 30
0.0
 10
-64.285713
 20
673.928572
 30
0.0
 10
-5.357143
 20
680.357143
 30
0.0
 10
11.785714
 20
675.000006
 30
0.0
 10
11.785714
 20
661.071433
 30
0.0
 10
-26.785714
 20
639.642861
 30
0.0
 10
-70.714284
 20
625.714288
 30
0.0
 10
-77.142855
 20
612.857143
 30
0.0
 10
-12.857143
 20
556.071449
 30
0.0
 10
-2.142857
 20
517.500000
 30
0.0
 10
59.999998
 20
525.000019
 30
0.0
 10
138.214281
 20
521.250009
 30
0.0
 10
152.678571
 20
541.607159
 30
0.0
 10
164.464279
 20
548.571430
 30
0.0
 10
189.642852
 20
571.607144
 30
0.0
 10
235.178569
 20
601.607143
 30
0.0
 10
247.499997
 20
625.178571
 30
0.0
 10
269.464280
 20
655.714290
 30
0.0
 10
287.142860
 20
645.000007
 30
0.0
 10
296.250009
 20
662.678572
 30
0.0
 10
319.821420
 20
679.285715
 30
0.0
 10
345.535710
 20
704.464288
 30
0.0
 10
370.178561
 20
721.071434
 30
0.0
 10
404.464280
 20
729.642861
 30
0.0
  0
LWPOLYLINE
  5
109
100
AcDbEntity
  8
Layer_1
 62
7
100
AcDbPolyline
 90
23
 70
1
 10
209.999991
 20
804.642860
 30
0.0
 10
175.577136
 20
808.942785
 30
0.0
 10
133.718939
 20
830.155990
 30
0.0
 10
85.042213
 20
840.762591
 30
0.0
 10
54.927045
 20
844.171856
 30
0.0
 10
18.182746
 20
836.027501
 30
0.0
 10
-45.078058
 20
810.268611
 30
0.0
 10
-127.499998
 20
827.142858
 30
0.0
 10
-161.785715
 20
759.642860
 30
0.0
 10
-140.357143
 20
750.000005
 30
0.0
 10
-114.642853
 20
757.500004
 30
0.0
 10
-93.214281
 20
752.142861
 30
0.0
 10
-81.428570
 20
712.500007
 30
0.0
 10
-17.678572
 20
720.535714
 30
0.0
 10
1.607143
 20
716.785716
 30
0.0
 10
49.285715
 20
701.785715
 30
0.0
 10
58.928570
 20
701.250007
 30
0.0
 10
104.464281
 20
724.285715
 30
0.0
 10
151.071426
 20
727.500005
 30
0.0
 10
183.749998
 20
743.035714
 30
0.0
 10
205.178570
 20
762.321433
 30
0.0
 10
206.785715
 20
776.785717
 30
0.0
 10
215.892853
 20
785.892858
 30
0.0
  0
LWPOLYLINE
  5
10a
100
AcDbEntity
  8
Layer_1
 62
7
100
AcDbPolyline
 90
25
 70
1
 10
496.607131
 20
782.678574
 30
0.0
 10
471.428561
 20
774.107144
 30
0.0
 10
459.642841
 20
759.642860
 30
0.0
 10
458.035710
 20
745.178570
 30
0.0
 10
431.785701
 20
740.357144
 30
0.0
 10
411.964271
 20
775.714286
 30
0.0
 10
366.428580
 20
779.464287
 30
0.0
 10
327.857131
 20
780.000001
 30
0.0
 10
309.107140
 20
790.178573
 30
0.0
 10
276.428563
 20
786.964286
 30
0.0
 10
259.821425
 20
807.321430
 30
0.0
 10
304.560992
 20
813.109666
 30
0.0
 10
384.678709
 20
886.408858
 30
0.0
 10
327.668230
 20
927.509440
 30
0.0
 10
276.908066
 20
929.024674
 30
0.0
 10
236.565094
 20
912.546556
 30
0.0
 10
235.428673
 20
922.395543
 30
0.0
 10
251.717383
 20
945.313376
 30
0.0
 10
302.098734
 20
1008.005973
 30
0.0
 10
436.196494
 20
1002.513266
 30
0.0
 10
448.697140
 20
863.680427
 30
0.0
 10
468.395093
 20
836.595712
 30
0.0
 10
557.982992
 20
819.549388
 30
0.0
 10
547.944605
 20
799.662010
 30
0.0
 10
526.352598
 20
782.047474
 30
0.0
  0
LWPOLYLINE
  5
10b
100
AcDbEntity
  8
Layer_1
 62
7
100
AcDbPolyline
 90
12
 70
1
 10
436.196494
 20
1002.513266
 30
0.0
 10
448.697140
 20
863.680426
 30
0.0
 10
468.395093
 20
836.595712
 30
0.0
 10
557.982992
 20
819.549388
 30
0.0
 10
697.762857
 20
807.616962
 30
0.0
 10
704.770809
 20
904.781010
 30
0.0
 10
707.611861
 20
919.743897
 30
0.0
 10
686.777443
 20
973.913321
 30
0.0
 10
662.533795
 20
1007.816567
 30
0.0
 10
592.454466
 20
1028.461561
 30
0.0
 10
506.654646
 20
1008.574180
 30
0.0
 10
452.485191
 20
1008.763591
 30
0.0
  0
LWPOLYLINE
  5
10c
100
AcDbEntity
  8
Layer_1
 62
7
100
AcDbPolyline
 90
26
 70
1
 10
625.178551
 20
326.250000
 30
0.0
 10
572.678561
 20
357.321430
 30
0.0
 10
495.535720
 20
468.750019
 30
0.0
 10
523.392860
 20
477.857140
 30
0.0
 10
539.464280
 20
525.535710
 30
0.0
 10
554.999981
 20
548.571430
 30
0.0
 10
577.491591
 20
570.104850
 30
0.0
 10
576.355153
 20
594.727311
 30
0.0
 10
620.296781
 20
638.858353
 30
0.0
 10
681.663543
 20
638.479545
 30
0.0
 10
754.394542
 20
615.372307
 30
0.0
 10
802.881893
 20
585.067731
 30
0.0
 10
841.520154
 20
578.438603
 30
0.0
 10
903.265795
 20
585.825344
 30
0.0
 10
885.272457
 20
484.494435
 30
0.0
 10
895.121376
 20
451.159398
 30
0.0
 10
918.039203
 20
419.718387
 30
0.0
 10
968.988813
 20
388.087994
 30
0.0
 10
981.110608
 20
368.958217
 30
0.0
 10
972.966274
 20
342.062901
 30
0.0
 10
962.170271
 20
332.592718
 30
0.0
 10
931.108110
 20
327.478819
 30
0.0
 10
877.317449
 20
334.865565
 30
0.0
 10
812.730813
 20
318.008665
 30
0.0
 10
744.734948
 20
322.933153
 30
0.0
 10
657.419896
 20
352.858904
 30
0.0
  0
LWPOLYLINE
  5
10d
100
AcDbEntity
  8
Layer_1
 62
7
100
AcDbPolyline
 90
20
 70
1
 10
903.265795
 20
585.825344
 30
0.0
 10
841.520154
 20
578.438609
 30
0.0
 10
802.881893
 20
585.067731
 30
0.0
 10
754.394542
 20
615.372307
 30
0.0
 10
681.663543
 20
638.479545
 30
0.0
 10
620.296781
 20
638.858353
 30
0.0
 10
579.953820
 20
680.905956
 30
0.0
 10
579.764466
 20
722.953551
 30
0.0
 10
547.944661
 20
799.662010
 30
0.0
 10
557.983049
 20
819.549388
 30
0.0
 10
697.762913
 20
807.616962
 30
0.0
 10
804.397181
 20
814.435491
 30
0.0
 10
895.879106
 20
826.367918
 30
0.0
 10
948.912123
 20
844.740067
 30
0.0
 10
997.778211
 20
848.906946
 30
0.0
 10
984.141184
 20
804.397099
 30
0.0
 10
990.580932
 20
787.540181
 30
0.0
 10
1022.968913
 20
745.492581
 30
0.0
 10
995.315981
 20
684.694026
 30
0.0
 10
927.320060
 20
640.373579
 30
0.0
  0
LWPOLYLINE
  5
10e
100
AcDbEntity
  8
Layer_1
 62
7
100
AcDbPolyline
 90
26
 70
1
 10
496.607131
 20
782.678574
 30
0.0
 10
502.499991
 20
763.928569
 30
0.0
 10
497.142850
 20
738.214288
 30
0.0
 10
479.999991
 20
720.535714
 30
0.0
 10
478.392860
 20
710.892862
 30
0.0
 10
469.285710
 20
690.535715
 30
0.0
 10
457.499991
 20
675.000006
 30
0.0
 10
401.785710
 20
654.107145
 30
0.0
 10
374.464290
 20
648.750013
 30
0.0
 10
377.678580
 20
615.000013
 30
0.0
 10
348.750000
 20
591.428571
 30
0.0
 10
317.142850
 20
559.285724
 30
0.0
 10
344.999991
 20
536.785710
 30
0.0
 10
370.714280
 20
533.571449
 30
0.0
 10
391.607150
 20
520.714290
 30
0.0
 10
459.107150
 20
508.392850
 30
0.0
 10
482.142841
 20
513.750019
 30
0.0
 10
525.535710
 20
536.250019
 30
0.0
 10
554.999981
 20
548.571430
 30
0.0
 10
577.491591
 20
570.104850
 30
0.0
 10
576.355153
 20
594.727311
 30
0.0
 10
620.296781
 20
638.858353
 30
0.0
 10
579.953820
 20
680.905956
 30
0.0
 10
579.764466
 20
722.953551
 30
0.0
 10
547.944605
 20
799.662010
 30
0.0
 10
526.352598
 20
782.047474
 30
0.0
  0
LWPOLYLINE
  5
10f
100
AcDbEntity
  8
Layer_1
 62
7
100
AcDbPolyline
 90
18
 70
1
 10
662.533795
 20
1007.816567
 30
0.0
 10
686.777443
 20
973.913321
 30
0.0
 10
707.611861
 20
919.743897
 30
0.0
 10
704.770809
 20
904.781010
 30
0.0
 10
697.762857
 20
807.616962
 30
0.0
 10
804.397181
 20
814.435491
 30
0.0
 10
895.879106
 20
826.367918
 30
0.0
 10
948.912151
 20
844.740067
 30
0.0
 10
997.778154
 20
848.906946
 30
0.0
 10
1011.604649
 20
902.318763
 30
0.0
 10
1040.015169
 20
941.904116
 30
0.0
 10
1086.040261
 20
973.723921
 30
0.0
 10
1118.617625
 20
985.656348
 30
0.0
 10
1104.033600
 20
1030.923805
 30
0.0
 10
1070.698564
 20
1031.113216
 30
0.0
 10
988.876176
 20
1065.395268
 30
0.0
 10
937.169008
 20
1066.152886
 30
0.0
 10
743.030334
 20
1003.081487
 30
0.0
  0
ENDSEC
  0
SECTION
  2
OBJECTS
  0
DICTIONARY
  5
C
330
0
100
AcDbDictionary
  3
ACAD_GROUP
350
D
  3
ACAD_MLINESTYLE
350
17
  0
DICTIONARY
  5
D
330
C
100
AcDbDictionary
  0
DICTIONARY
  5
1A
330
C
100
AcDbDictionary
  0
DICTIONARY
  5
17
330
C
100
AcDbDictionary
  3
STANDARD
350
18
  0
DICTIONARY
  5
19
330
C
100
AcDbDictionary
  0
ENDSEC
  0
EOF
