  0
SECTION
  2
HEADER
  9
$ACADVER
  1
AC1014
  9
$HANDSEED
  5
FFFF
  9
$MEASUREMENT
 70
     1
  0
ENDSEC
  0
SECTION
  2
TABLES
  0
TABLE
  2
VPORT
  5
8
330
0
100
AcDbSymbolTable
 70
     4
  0
VPORT
  5
2E
330
8
100
AcDbSymbolTableRecord
100
AcDbViewportTableRecord
  2
*ACTIVE
 70
     0
 10
0.0
 20
0.0
 11
1.0
 21
1.0
 12
210.0
 22
148.5
 13
0.0
 23
0.0
 14
10.0
 24
10.0
 15
10.0
 25
10.0
 16
0.0
 26
0.0
 36
1.0
 17
0.0
 27
0.0
 37
0.0
 40
341.0
 41
1.24
 42
50.0
 43
0.0
 44
0.0
 50
0.0
 51
0.0
 71
     0
 72
   100
 73
     1
 74
     3
 75
     0
 76
     0
 77
     0
 78
     0
  0
ENDTAB
  0
TABLE
  2
LTYPE
  5
5
330
0
100
AcDbSymbolTable
 70
     1
  0
LTYPE
  5
14
330
5
100
AcDbSymbolTableRecord
100
AcDbLinetypeTableRecord
  2
BYBLOCK
 70
     0
  3

 72
    65
 73
     0
 40
0.0
  0
LTYPE
  5
15
330
5
100
AcDbSymbolTableRecord
100
AcDbLinetypeTableRecord
  2
BYLAYER
 70
     0
  3

 72
    65
 73
     0
 40
0.0
  0
LTYPE
  5
16
330
5
100
AcDbSymbolTableRecord
100
AcDbLinetypeTableRecord
  2
CONTINUOUS
 70
     0
  3
Solid line
 72
    65
 73
     0
 40
0.0
  0
ENDTAB
  0
TABLE
  2
LAYER
  5
2
100
AcDbSymbolTable
 70
2
  0
LAYER
  5
50
100
AcDbSymbolTableRecord
100
AcDbLayerTableRecord
  2
0
 70
0
  6
CONTINUOUS
  0
LAYER
  5
51
100
AcDbSymbolTableRecord
100
AcDbLayerTableRecord
  2
Layer_1
 70
0
  6
CONTINUOUS
  0
ENDTAB
  0
TABLE
  2
STYLE
  5
3
330
0
100
AcDbSymbolTable
 70
     1
  0
STYLE
  5
11
330
3
100
AcDbSymbolTableRecord
100
AcDbTextStyleTableRecord
  2
STANDARD
 70
     0
 40
0.0
 41
1.0
 50
0.0
 71
     0
 42
2.5
  3
txt
  4

  0
ENDTAB
  0
TABLE
  2
VIEW
  5
6
330
0
100
AcDbSymbolTable
 70
     0
  0
ENDTAB
  0
TABLE
  2
UCS
  5
7
330
0
100
AcDbSymbolTable
 70
     0
  0
ENDTAB
  0
TABLE
  2
APPID
  5
9
330
0
100
AcDbSymbolTable
 70
     2
  0
APPID
  5
12
330
9
100
AcDbSymbolTableRecord
100
AcDbRegAppTableRecord
  2
ACAD
 70
     0
  0
ENDTAB
  0
TABLE
  2
DIMSTYLE
  5
A
330
0
100
AcDbSymbolTable
 70
     1
  0
DIMSTYLE
105
27
330
A
100
AcDbSymbolTableRecord
100
AcDbDimStyleTableRecord
  2
ISO-25
 70
     0
  3

  4

  5

  6

  7

 40
1.0
 41
2.5
 42
0.625
 43
3.75
 44
1.25
 45
0.0
 46
0.0
 47
0.0
 48
0.0
140
2.5
141
2.5
142
0.0
143
0.03937007874016
144
1.0
145
0.0
146
1.0
147
0.625
 71
     0
 72
     0
 73
     0
 74
     0
 75
     0
 76
     0
 77
     1
 78
     8
170
     0
171
     3
172
     1
173
     0
174
     0
175
     0
176
     0
177
     0
178
     0
270
     2
271
     2
272
     2
273
     2
274
     3
340
11
275
     0
280
     0
281
     0
282
     0
283
     0
284
     8
285
     0
286
     0
287
     3
288
     0
  0
ENDTAB
  0
TABLE
  2
BLOCK_RECORD
  5
1
330
0
100
AcDbSymbolTable
 70
     1
  0
BLOCK_RECORD
  5
1F
330
1
100
AcDbSymbolTableRecord
100
AcDbBlockTableRecord
  2
*MODEL_SPACE
  0
BLOCK_RECORD
  5
1B
330
1
100
AcDbSymbolTableRecord
100
AcDbBlockTableRecord
  2
*PAPER_SPACE
  0
ENDTAB
  0
ENDSEC
  0
SECTION
  2
BLOCKS
  0
BLOCK
  5
20
330
1F
100
AcDbEntity
  8
0
100
AcDbBlockBegin
  2
*MODEL_SPACE
 70
     0
 10
0.0
 20
0.0
 30
0.0
  3
*MODEL_SPACE
  1

  0
ENDBLK
  5
21
330
1F
100
AcDbEntity
  8
0
100
AcDbBlockEnd
  0
BLOCK
  5
1C
330
1B
100
AcDbEntity
 67
     1
  8
0
100
AcDbBlockBegin
  2
*PAPER_SPACE
  1

  0
ENDBLK
  5
1D
330
1B
100
AcDbEntity
 67
     1
  8
0
100
AcDbBlockEnd
  0
ENDSEC
  0
SECTION
  2
ENTITIES
  0
LWPOLYLINE
  5
100
100
AcDbEntity
  8
Layer_1
 62
7
100
AcDbPolyline
 90
42
 70
1
 10
-237.142856
 20
294.857140
 30
0.0
 10
-274.857144
 20
298.857140
 30
0.0
 10
-289.714288
 20
310.857140
 30
0.0
 10
-279.428568
 20
332.000004
 30
0.0
 10
-253.714288
 20
345.142860
 30
0.0
 10
-206.285712
 20
370.285716
 30
0.0
 10
-162.857144
 20
405.142860
 30
0.0
 10
-128.571432
 20
421.714284
 30
0.0
 10
-56.000000
 20
429.714284
 30
0.0
 10
18.285714
 20
420.000004
 30
0.0
 10
31.428571
 20
416.571428
 30
0.0
 10
66.857143
 20
424.000004
 30
0.0
 10
72.000000
 20
402.285716
 30
0.0
 10
101.142856
 20
403.428572
 30
0.0
 10
101.142856
 20
382.285716
 30
0.0
 10
107.428568
 20
377.142860
 30
0.0
 10
104.571432
 20
369.714284
 30
0.0
 10
113.142856
 20
344.000004
 30
0.0
 10
100.000000
 20
340.000004
 30
0.0
 10
89.142856
 20
333.142860
 30
0.0
 10
85.142856
 20
321.714284
 30
0.0
 10
84.571432
 20
293.714284
 30
0.0
 10
76.571429
 20
290.285716
 30
0.0
 10
69.142858
 20
292.571428
 30
0.0
 10
51.428571
 20
297.142860
 30
0.0
 10
17.714286
 20
272.000004
 30
0.0
 10
7.428571
 20
285.142860
 30
0.0
 10
-26.285714
 20
284.571428
 30
0.0
 10
-41.142857
 20
278.285716
 30
0.0
 10
-38.285714
 20
262.857140
 30
0.0
 10
-100.571432
 20
267.428572
 30
0.0
 10
-114.857144
 20
261.714284
 30
0.0
 10
-127.428568
 20
264.571428
 30
0.0
 10
-124.571432
 20
284.571428
 30
0.0
 10
-112.000000
 20
302.857140
 30
0.0
 10
-121.142856
 20
310.285716
 30
0.0
 10
-128.000000
 20
297.142860
 30
0.0
 10
-141.142856
 20
286.857140
 30
0.0
 10
-164.000000
 20
277.714284
 30
0.0
 10
-185.142856
 20
278.857140
 30
0.0
 10
-208.000000
 20
280.571428
 30
0.0
 10
-237.142856
 20
294.857140
 30
0.0
  0
LWPOLYLINE
  5
101
100
AcDbEntity
  8
Layer_1
 62
7
100
AcDbPolyline
 90
36
 70
1
 10
-236.000000
 20
295.428572
 30
0.0
 10
-205.714288
 20
279.428572
 30
0.0
 10
-165.714288
 20
277.142860
 30
0.0
 10
-139.428568
 20
289.142860
 30
0.0
 10
-128.000000
 20
299.428572
 30
0.0
 10
-121.142856
 20
309.714284
 30
0.0
 10
-111.428568
 20
302.285716
 30
0.0
 10
-117.714288
 20
292.571428
 30
0.0
 10
-122.857144
 20
284.000004
 30
0.0
 10
-126.285712
 20
265.714284
 30
0.0
 10
-115.428568
 20
262.285716
 30
0.0
 10
-100.571432
 20
268.571428
 30
0.0
 10
-38.285714
 20
263.428572
 30
0.0
 10
-41.142857
 20
277.714284
 30
0.0
 10
-27.428571
 20
284.571428
 30
0.0
 10
9.714286
 20
286.285716
 30
0.0
 10
18.285714
 20
270.285716
 30
0.0
 10
16.571429
 20
258.857140
 30
0.0
 10
10.285714
 20
251.428572
 30
0.0
 10
9.714286
 20
221.714284
 30
0.0
 10
-21.714286
 20
213.714284
 30
0.0
 10
-23.428571
 20
180.571428
 30
0.0
 10
-36.000000
 20
164.571428
 30
0.0
 10
-52.000000
 20
165.714284
 30
0.0
 10
-77.714286
 20
150.857140
 30
0.0
 10
-90.285712
 20
136.000004
 30
0.0
 10
-101.714288
 20
133.714284
 30
0.0
 10
-109.714288
 20
135.428572
 30
0.0
 10
-136.000000
 20
152.000004
 30
0.0
 10
-156.000000
 20
186.857140
 30
0.0
 10
-177.714288
 20
228.571428
 30
0.0
 10
-198.857144
 20
237.142860
 30
0.0
 10
-205.714288
 20
262.285716
 30
0.0
 10
-212.571432
 20
270.857140
 30
0.0
 10
-232.000000
 20
284.571428
 30
0.0
 10
-236.000000
 20
295.428572
 30
0.0
  0
LWPOLYLINE
  5
102
100
AcDbEntity
  8
Layer_1
 62
7
100
AcDbPolyline
 90
29
 70
1
 10
-156.571432
 20
186.857140
 30
0.0
 10
-168.000000
 20
176.000004
 30
0.0
 10
-173.142856
 20
139.428572
 30
0.0
 10
-177.142856
 20
129.142860
 30
0.0
 10
-188.571432
 20
120.571428
 30
0.0
 10
-187.428568
 20
108.000004
 30
0.0
 10
-192.000000
 20
88.571428
 30
0.0
 10
-172.000000
 20
85.142860
 30
0.0
 10
-82.857144
 20
57.142860
 30
0.0
 10
-67.428571
 20
48.571428
 30
0.0
 10
2.285714
 20
14.857124
 30
0.0
 10
21.714286
 20
14.857124
 30
0.0
 10
84.571432
 20
38.857124
 30
0.0
 10
92.000000
 20
93.714284
 30
0.0
 10
87.428568
 20
104.571428
 30
0.0
 10
83.428568
 20
112.000004
 30
0.0
 10
50.285714
 20
137.714284
 30
0.0
 10
24.000000
 20
134.857140
 30
0.0
 10
-0.571429
 20
136.571428
 30
0.0
 10
-12.571429
 20
146.857140
 30
0.0
 10
-18.857143
 20
158.857140
 30
0.0
 10
-35.428571
 20
166.285716
 30
0.0
 10
-52.571429
 20
165.714284
 30
0.0
 10
-77.142858
 20
151.428572
 30
0.0
 10
-89.714288
 20
137.142860
 30
0.0
 10
-101.142856
 20
133.714284
 30
0.0
 10
-106.857144
 20
135.428572
 30
0.0
 10
-135.428568
 20
152.000004
 30
0.0
 10
-156.571432
 20
186.857140
 30
0.0
  0
LWPOLYLINE
  5
103
100
AcDbEntity
  8
Layer_1
 62
7
100
AcDbPolyline
 90
32
 70
1
 10
-192.571432
 20
88.000004
 30
0.0
 10
-187.428568
 20
106.285716
 30
0.0
 10
-188.571432
 20
120.571428
 30
0.0
 10
-176.571432
 20
128.571428
 30
0.0
 10
-172.000000
 20
137.142860
 30
0.0
 10
-169.714288
 20
155.428572
 30
0.0
 10
-167.428568
 20
176.000004
 30
0.0
 10
-154.285712
 20
187.428572
 30
0.0
 10
-176.000000
 20
229.142860
 30
0.0
 10
-198.857144
 20
238.857140
 30
0.0
 10
-204.000000
 20
263.428572
 30
0.0
 10
-212.000000
 20
271.428572
 30
0.0
 10
-232.571432
 20
285.714284
 30
0.0
 10
-235.428568
 20
275.428572
 30
0.0
 10
-274.857144
 20
258.285716
 30
0.0
 10
-285.714288
 20
259.428572
 30
0.0
 10
-300.000000
 20
254.857140
 30
0.0
 10
-300.000000
 20
239.428572
 30
0.0
 10
-312.000000
 20
233.714284
 30
0.0
 10
-322.285712
 20
213.714284
 30
0.0
 10
-313.142856
 20
205.142860
 30
0.0
 10
-308.571432
 20
172.571428
 30
0.0
 10
-309.142856
 20
168.000004
 30
0.0
 10
-296.571432
 20
149.714284
 30
0.0
 10
-290.857144
 20
131.428572
 30
0.0
 10
-296.000000
 20
117.142860
 30
0.0
 10
-298.857144
 20
98.285716
 30
0.0
 10
-289.714288
 20
81.714284
 30
0.0
 10
-278.857144
 20
76.000004
 30
0.0
 10
-245.142856
 20
82.285716
 30
0.0
 10
-205.714288
 20
90.857140
 30
0.0
 10
-192.571432
 20
88.000004
 30
0.0
  0
LWPOLYLINE
  5
104
100
AcDbEntity
  8
Layer_1
 62
7
100
AcDbPolyline
 90
20
 70
1
 10
84.000000
 20
38.857124
 30
0.0
 10
91.428568
 20
93.142860
 30
0.0
 10
82.285712
 20
111.428572
 30
0.0
 10
49.142857
 20
137.142860
 30
0.0
 10
43.428571
 20
145.142860
 30
0.0
 10
43.428571
 20
157.714284
 30
0.0
 10
66.285714
 20
183.428572
 30
0.0
 10
74.857143
 20
185.714284
 30
0.0
 10
121.714288
 20
180.000004
 30
0.0
 10
146.857144
 20
182.285716
 30
0.0
 10
177.714288
 20
201.714284
 30
0.0
 10
194.285712
 20
188.571428
 30
0.0
 10
187.428568
 20
184.000004
 30
0.0
 10
182.285712
 20
170.285716
 30
0.0
 10
195.428568
 20
153.714284
 30
0.0
 10
192.000000
 20
121.142860
 30
0.0
 10
185.142856
 20
98.285716
 30
0.0
 10
141.142856
 20
45.714284
 30
0.0
 10
111.428568
 20
38.857124
 30
0.0
 10
84.000000
 20
38.857124
 30
0.0
  0
LWPOLYLINE
  5
105
100
AcDbEntity
  8
Layer_1
 62
7
100
AcDbPolyline
 90
28
 70
1
 10
194.285712
 20
189.714284
 30
0.0
 10
176.000000
 20
201.142860
 30
0.0
 10
143.428568
 20
236.000004
 30
0.0
 10
137.142856
 20
252.571428
 30
0.0
 10
161.142856
 20
251.428572
 30
0.0
 10
161.714288
 20
273.142860
 30
0.0
 10
170.857144
 20
305.142860
 30
0.0
 10
157.142856
 20
321.142860
 30
0.0
 10
142.285712
 20
329.714284
 30
0.0
 10
131.428568
 20
353.142860
 30
0.0
 10
144.571432
 20
360.000004
 30
0.0
 10
154.285712
 20
360.000004
 30
0.0
 10
167.428568
 20
354.857140
 30
0.0
 10
175.428568
 20
348.000004
 30
0.0
 10
188.571432
 20
336.000004
 30
0.0
 10
193.142856
 20
325.714284
 30
0.0
 10
214.285712
 20
332.571428
 30
0.0
 10
232.571432
 20
324.571428
 30
0.0
 10
239.428568
 20
324.571428
 30
0.0
 10
245.142856
 20
335.428572
 30
0.0
 10
264.571432
 20
334.857140
 30
0.0
 10
277.714288
 20
325.142860
 30
0.0
 10
268.000000
 20
296.000004
 30
0.0
 10
252.571432
 20
263.428572
 30
0.0
 10
257.714288
 20
233.714284
 30
0.0
 10
246.285712
 20
201.714284
 30
0.0
 10
206.857144
 20
200.000004
 30
0.0
 10
194.285712
 20
189.714284
 30
0.0
  0
LWPOLYLINE
  5
106
100
AcDbEntity
  8
Layer_1
 62
7
100
AcDbPolyline
 90
33
 70
1
 10
99.428568
 20
403.428572
 30
0.0
 10
101.714288
 20
381.142860
 30
0.0
 10
106.857144
 20
376.571428
 30
0.0
 10
104.000000
 20
370.285716
 30
0.0
 10
113.714288
 20
342.857140
 30
0.0
 10
144.000000
 20
358.285716
 30
0.0
 10
156.000000
 20
358.857140
 30
0.0
 10
176.000000
 20
348.000004
 30
0.0
 10
192.571432
 20
326.285716
 30
0.0
 10
198.857144
 20
325.714284
 30
0.0
 10
215.428568
 20
332.000004
 30
0.0
 10
233.142856
 20
323.428572
 30
0.0
 10
240.571432
 20
323.428572
 30
0.0
 10
245.714288
 20
334.285716
 30
0.0
 10
264.000000
 20
334.857140
 30
0.0
 10
277.142856
 20
324.571428
 30
0.0
 10
321.142856
 20
314.857140
 30
0.0
 10
333.714288
 20
320.000004
 30
0.0
 10
337.142856
 20
326.285716
 30
0.0
 10
381.142856
 20
344.571428
 30
0.0
 10
408.571432
 20
372.571428
 30
0.0
 10
397.714288
 20
380.571428
 30
0.0
 10
378.285712
 20
386.857140
 30
0.0
 10
472.000000
 20
441.142860
 30
0.0
 10
484.000000
 20
458.285716
 30
0.0
 10
433.714288
 20
457.714284
 30
0.0
 10
298.285712
 20
467.428572
 30
0.0
 10
247.428568
 20
449.142860
 30
0.0
 10
232.000000
 20
449.142860
 30
0.0
 10
216.571432
 20
448.571428
 30
0.0
 10
196.571432
 20
461.714284
 30
0.0
 10
152.000000
 20
452.000004
 30
0.0
 10
99.428568
 20
403.428572
 30
0.0
  0
LWPOLYLINE
  5
107
100
AcDbEntity
  8
Layer_1
 62
7
100
AcDbPolyline
 90
34
 70
1
 10
50.285714
 20
137.714284
 30
0.0
 10
44.571429
 20
146.285716
 30
0.0
 10
44.000000
 20
156.571428
 30
0.0
 10
65.714286
 20
181.714284
 30
0.0
 10
76.000000
 20
185.142860
 30
0.0
 10
122.857144
 20
178.285716
 30
0.0
 10
148.571432
 20
181.142860
 30
0.0
 10
178.285712
 20
201.714284
 30
0.0
 10
145.142856
 20
237.142860
 30
0.0
 10
137.714288
 20
251.428572
 30
0.0
 10
162.857144
 20
251.428572
 30
0.0
 10
163.428568
 20
273.142860
 30
0.0
 10
172.000000
 20
305.142860
 30
0.0
 10
157.142856
 20
323.428572
 30
0.0
 10
142.285712
 20
330.857140
 30
0.0
 10
132.000000
 20
353.142860
 30
0.0
 10
92.000000
 20
337.142860
 30
0.0
 10
88.000000
 20
331.428572
 30
0.0
 10
84.571432
 20
321.142860
 30
0.0
 10
83.428568
 20
294.857140
 30
0.0
 10
77.714286
 20
291.428572
 30
0.0
 10
50.857143
 20
297.714284
 30
0.0
 10
16.571429
 20
272.000004
 30
0.0
 10
15.428571
 20
258.285716
 30
0.0
 10
10.285714
 20
252.000004
 30
0.0
 10
9.142857
 20
224.000004
 30
0.0
 10
-22.857143
 20
214.857140
 30
0.0
 10
-25.142857
 20
180.571428
 30
0.0
 10
-36.571429
 20
166.285716
 30
0.0
 10
-19.428571
 20
158.857140
 30
0.0
 10
-11.428571
 20
144.000004
 30
0.0
 10
-0.571429
 20
135.428572
 30
0.0
 10
24.571429
 20
133.714284
 30
0.0
 10
50.285714
 20
137.714284
 30
0.0
  0
ENDSEC
  0
SECTION
  2
OBJECTS
  0
DICTIONARY
  5
C
330
0
100
AcDbDictionary
  3
ACAD_GROUP
350
D
  3
ACAD_MLINESTYLE
350
17
  0
DICTIONARY
  5
D
330
C
100
AcDbDictionary
  0
DICTIONARY
  5
1A
330
C
100
AcDbDictionary
  0
DICTIONARY
  5
17
330
C
100
AcDbDictionary
  3
STANDARD
350
18
  0
DICTIONARY
  5
19
330
C
100
AcDbDictionary
  0
ENDSEC
  0
EOF
