  0
SECTION
  2
HEADER
  9
$ACADVER
  1
AC1014
  9
$HANDSEED
  5
FFFF
  9
$MEASUREMENT
 70
     1
  0
ENDSEC
  0
SECTION
  2
TABLES
  0
TABLE
  2
VPORT
  5
8
330
0
100
AcDbSymbolTable
 70
     4
  0
VPORT
  5
2E
330
8
100
AcDbSymbolTableRecord
100
AcDbViewportTableRecord
  2
*ACTIVE
 70
     0
 10
0.0
 20
0.0
 11
1.0
 21
1.0
 12
210.0
 22
148.5
 13
0.0
 23
0.0
 14
10.0
 24
10.0
 15
10.0
 25
10.0
 16
0.0
 26
0.0
 36
1.0
 17
0.0
 27
0.0
 37
0.0
 40
341.0
 41
1.24
 42
50.0
 43
0.0
 44
0.0
 50
0.0
 51
0.0
 71
     0
 72
   100
 73
     1
 74
     3
 75
     0
 76
     0
 77
     0
 78
     0
  0
ENDTAB
  0
TABLE
  2
LTYPE
  5
5
330
0
100
AcDbSymbolTable
 70
     1
  0
LTYPE
  5
14
330
5
100
AcDbSymbolTableRecord
100
AcDbLinetypeTableRecord
  2
BYBLOCK
 70
     0
  3

 72
    65
 73
     0
 40
0.0
  0
LTYPE
  5
15
330
5
100
AcDbSymbolTableRecord
100
AcDbLinetypeTableRecord
  2
BYLAYER
 70
     0
  3

 72
    65
 73
     0
 40
0.0
  0
LTYPE
  5
16
330
5
100
AcDbSymbolTableRecord
100
AcDbLinetypeTableRecord
  2
CONTINUOUS
 70
     0
  3
Solid line
 72
    65
 73
     0
 40
0.0
  0
ENDTAB
  0
TABLE
  2
LAYER
  5
2
100
AcDbSymbolTable
 70
2
  0
LAYER
  5
50
100
AcDbSymbolTableRecord
100
AcDbLayerTableRecord
  2
0
 70
0
  6
CONTINUOUS
  0
LAYER
  5
51
100
AcDbSymbolTableRecord
100
AcDbLayerTableRecord
  2
Layer_1
 70
0
  6
CONTINUOUS
  0
ENDTAB
  0
TABLE
  2
STYLE
  5
3
330
0
100
AcDbSymbolTable
 70
     1
  0
STYLE
  5
11
330
3
100
AcDbSymbolTableRecord
100
AcDbTextStyleTableRecord
  2
STANDARD
 70
     0
 40
0.0
 41
1.0
 50
0.0
 71
     0
 42
2.5
  3
txt
  4

  0
ENDTAB
  0
TABLE
  2
VIEW
  5
6
330
0
100
AcDbSymbolTable
 70
     0
  0
ENDTAB
  0
TABLE
  2
UCS
  5
7
330
0
100
AcDbSymbolTable
 70
     0
  0
ENDTAB
  0
TABLE
  2
APPID
  5
9
330
0
100
AcDbSymbolTable
 70
     2
  0
APPID
  5
12
330
9
100
AcDbSymbolTableRecord
100
AcDbRegAppTableRecord
  2
ACAD
 70
     0
  0
ENDTAB
  0
TABLE
  2
DIMSTYLE
  5
A
330
0
100
AcDbSymbolTable
 70
     1
  0
DIMSTYLE
105
27
330
A
100
AcDbSymbolTableRecord
100
AcDbDimStyleTableRecord
  2
ISO-25
 70
     0
  3

  4

  5

  6

  7

 40
1.0
 41
2.5
 42
0.625
 43
3.75
 44
1.25
 45
0.0
 46
0.0
 47
0.0
 48
0.0
140
2.5
141
2.5
142
0.0
143
0.03937007874016
144
1.0
145
0.0
146
1.0
147
0.625
 71
     0
 72
     0
 73
     0
 74
     0
 75
     0
 76
     0
 77
     1
 78
     8
170
     0
171
     3
172
     1
173
     0
174
     0
175
     0
176
     0
177
     0
178
     0
270
     2
271
     2
272
     2
273
     2
274
     3
340
11
275
     0
280
     0
281
     0
282
     0
283
     0
284
     8
285
     0
286
     0
287
     3
288
     0
  0
ENDTAB
  0
TABLE
  2
BLOCK_RECORD
  5
1
330
0
100
AcDbSymbolTable
 70
     1
  0
BLOCK_RECORD
  5
1F
330
1
100
AcDbSymbolTableRecord
100
AcDbBlockTableRecord
  2
*MODEL_SPACE
  0
BLOCK_RECORD
  5
1B
330
1
100
AcDbSymbolTableRecord
100
AcDbBlockTableRecord
  2
*PAPER_SPACE
  0
ENDTAB
  0
ENDSEC
  0
SECTION
  2
BLOCKS
  0
BLOCK
  5
20
330
1F
100
AcDbEntity
  8
0
100
AcDbBlockBegin
  2
*MODEL_SPACE
 70
     0
 10
0.0
 20
0.0
 30
0.0
  3
*MODEL_SPACE
  1

  0
ENDBLK
  5
21
330
1F
100
AcDbEntity
  8
0
100
AcDbBlockEnd
  0
BLOCK
  5
1C
330
1B
100
AcDbEntity
 67
     1
  8
0
100
AcDbBlockBegin
  2
*PAPER_SPACE
  1

  0
ENDBLK
  5
1D
330
1B
100
AcDbEntity
 67
     1
  8
0
100
AcDbBlockEnd
  0
ENDSEC
  0
SECTION
  2
ENTITIES
  0
LWPOLYLINE
  5
100
100
AcDbEntity
  8
Layer_1
 62
7
100
AcDbPolyline
 90
51
 70
1
 10
107.428568
 20
672.000004
 30
0.0
 10
91.428568
 20
648.571428
 30
0.0
 10
81.142856
 20
644.000004
 30
0.0
 10
80.571432
 20
620.000004
 30
0.0
 10
70.857143
 20
620.571428
 30
0.0
 10
77.142858
 20
611.428572
 30
0.0
 10
85.142856
 20
620.000004
 30
0.0
 10
82.285712
 20
606.285716
 30
0.0
 10
68.000000
 20
602.285716
 30
0.0
 10
65.142858
 20
588.000004
 30
0.0
 10
97.714288
 20
580.571428
 30
0.0
 10
105.714288
 20
572.571428
 30
0.0
 10
123.428568
 20
574.285716
 30
0.0
 10
135.428568
 20
562.857140
 30
0.0
 10
129.142856
 20
536.000004
 30
0.0
 10
134.285712
 20
530.285716
 30
0.0
 10
134.285712
 20
522.857140
 30
0.0
 10
125.142856
 20
526.285716
 30
0.0
 10
120.571432
 20
524.571428
 30
0.0
 10
122.285712
 20
509.142860
 30
0.0
 10
131.428568
 20
500.571428
 30
0.0
 10
139.428568
 20
500.000004
 30
0.0
 10
150.857144
 20
485.142860
 30
0.0
 10
154.857144
 20
470.285716
 30
0.0
 10
168.571432
 20
469.142860
 30
0.0
 10
170.857144
 20
482.285716
 30
0.0
 10
177.142856
 20
482.857140
 30
0.0
 10
174.285712
 20
473.714284
 30
0.0
 10
184.000000
 20
472.571428
 30
0.0
 10
185.142856
 20
480.571428
 30
0.0
 10
182.285712
 20
484.000004
 30
0.0
 10
190.285712
 20
484.000004
 30
0.0
 10
201.714288
 20
487.428572
 30
0.0
 10
190.285712
 20
492.571428
 30
0.0
 10
190.285712
 20
496.000004
 30
0.0
 10
207.428568
 20
512.571428
 30
0.0
 10
210.857144
 20
529.714284
 30
0.0
 10
234.857144
 20
548.000004
 30
0.0
 10
255.428568
 20
556.571428
 30
0.0
 10
247.428568
 20
599.428572
 30
0.0
 10
248.000000
 20
620.571428
 30
0.0
 10
247.428568
 20
633.142860
 30
0.0
 10
225.714288
 20
625.714284
 30
0.0
 10
220.571432
 20
614.285716
 30
0.0
 10
212.571432
 20
619.428572
 30
0.0
 10
212.571432
 20
625.714284
 30
0.0
 10
197.142856
 20
633.142860
 30
0.0
 10
194.285712
 20
641.142860
 30
0.0
 10
158.857144
 20
649.714284
 30
0.0
 10
153.142856
 20
658.285716
 30
0.0
 10
107.428568
 20
672.000004
 30
0.0
  0
LWPOLYLINE
  5
101
100
AcDbEntity
  8
Layer_1
 62
7
100
AcDbPolyline
 90
44
 70
1
 10
254.857144
 20
557.142860
 30
0.0
 10
234.285712
 20
549.142860
 30
0.0
 10
210.285712
 20
530.285716
 30
0.0
 10
206.571432
 20
512.857140
 30
0.0
 10
190.000000
 20
496.571428
 30
0.0
 10
190.571432
 20
492.000004
 30
0.0
 10
200.571432
 20
488.000004
 30
0.0
 10
189.428568
 20
485.142860
 30
0.0
 10
181.714288
 20
484.857140
 30
0.0
 10
184.000000
 20
480.571428
 30
0.0
 10
183.142856
 20
472.857140
 30
0.0
 10
176.571432
 20
470.285716
 30
0.0
 10
176.000000
 20
450.000004
 30
0.0
 10
171.142856
 20
441.714284
 30
0.0
 10
181.714288
 20
428.571428
 30
0.0
 10
181.428568
 20
406.857140
 30
0.0
 10
186.000000
 20
399.142860
 30
0.0
 10
184.571432
 20
391.714284
 30
0.0
 10
186.857144
 20
382.857140
 30
0.0
 10
193.714288
 20
379.714284
 30
0.0
 10
202.571432
 20
412.857140
 30
0.0
 10
208.285712
 20
412.000004
 30
0.0
 10
210.000000
 20
413.714284
 30
0.0
 10
206.285712
 20
419.428572
 30
0.0
 10
216.571432
 20
424.285716
 30
0.0
 10
230.000000
 20
419.428572
 30
0.0
 10
241.142856
 20
423.714284
 30
0.0
 10
256.000000
 20
422.571428
 30
0.0
 10
261.714288
 20
419.142860
 30
0.0
 10
263.428568
 20
422.571428
 30
0.0
 10
263.428568
 20
427.714284
 30
0.0
 10
272.571432
 20
439.428572
 30
0.0
 10
282.857144
 20
445.142860
 30
0.0
 10
288.000000
 20
445.142860
 30
0.0
 10
293.428568
 20
447.714284
 30
0.0
 10
306.571432
 20
448.000004
 30
0.0
 10
306.285712
 20
453.142860
 30
0.0
 10
301.142856
 20
453.142860
 30
0.0
 10
287.714288
 20
473.428572
 30
0.0
 10
278.857144
 20
506.285716
 30
0.0
 10
274.285712
 20
523.428572
 30
0.0
 10
267.714288
 20
540.000004
 30
0.0
 10
257.428568
 20
548.571428
 30
0.0
 10
254.857144
 20
557.142860
 30
0.0
  0
LWPOLYLINE
  5
102
100
AcDbEntity
  8
Layer_1
 62
7
100
AcDbPolyline
 90
30
 70
1
 10
193.714288
 20
380.000004
 30
0.0
 10
202.000000
 20
413.142860
 30
0.0
 10
207.714288
 20
413.428572
 30
0.0
 10
210.000000
 20
413.428572
 30
0.0
 10
205.714288
 20
419.428572
 30
0.0
 10
216.285712
 20
425.428572
 30
0.0
 10
230.285712
 20
420.571428
 30
0.0
 10
239.428568
 20
424.285716
 30
0.0
 10
254.571432
 20
423.428572
 30
0.0
 10
261.714288
 20
419.428572
 30
0.0
 10
263.714288
 20
422.857140
 30
0.0
 10
263.142856
 20
426.571428
 30
0.0
 10
272.000000
 20
440.285716
 30
0.0
 10
282.285712
 20
445.428572
 30
0.0
 10
288.571432
 20
446.000004
 30
0.0
 10
292.857144
 20
448.857140
 30
0.0
 10
306.857144
 20
448.000004
 30
0.0
 10
309.428568
 20
440.571428
 30
0.0
 10
321.142856
 20
425.428572
 30
0.0
 10
322.571432
 20
408.571428
 30
0.0
 10
331.428568
 20
401.428572
 30
0.0
 10
331.714288
 20
386.285716
 30
0.0
 10
319.142856
 20
379.142860
 30
0.0
 10
290.000000
 20
367.428572
 30
0.0
 10
260.571432
 20
353.714284
 30
0.0
 10
247.714288
 20
347.714284
 30
0.0
 10
228.571432
 20
347.142860
 30
0.0
 10
196.285712
 20
338.000004
 30
0.0
 10
200.000000
 20
366.857140
 30
0.0
 10
193.714288
 20
380.000004
 30
0.0
  0
LWPOLYLINE
  5
103
100
AcDbEntity
  8
Layer_1
 62
7
100
AcDbPolyline
 90
32
 70
1
 10
197.714288
 20
352.285716
 30
0.0
 10
196.000000
 20
337.428572
 30
0.0
 10
165.714288
 20
335.142860
 30
0.0
 10
135.714288
 20
327.428572
 30
0.0
 10
122.571432
 20
326.571428
 30
0.0
 10
93.142856
 20
336.000004
 30
0.0
 10
29.428571
 20
335.714284
 30
0.0
 10
-3.428571
 20
366.571428
 30
0.0
 10
-3.142857
 20
377.428572
 30
0.0
 10
4.571429
 20
394.571428
 30
0.0
 10
44.000000
 20
388.285716
 30
0.0
 10
55.142858
 20
397.142860
 30
0.0
 10
64.571429
 20
397.142860
 30
0.0
 10
63.714286
 20
390.000004
 30
0.0
 10
69.142858
 20
384.857140
 30
0.0
 10
67.714286
 20
379.428572
 30
0.0
 10
67.714286
 20
370.285716
 30
0.0
 10
78.000000
 20
361.142860
 30
0.0
 10
87.714288
 20
355.428572
 30
0.0
 10
93.428568
 20
356.285716
 30
0.0
 10
97.428568
 20
353.714284
 30
0.0
 10
94.571432
 20
347.428572
 30
0.0
 10
111.714288
 20
346.857140
 30
0.0
 10
113.714288
 20
341.428572
 30
0.0
 10
115.714288
 20
341.428572
 30
0.0
 10
117.142856
 20
345.142860
 30
0.0
 10
140.000000
 20
340.857140
 30
0.0
 10
151.428568
 20
343.142860
 30
0.0
 10
174.857144
 20
354.571428
 30
0.0
 10
180.571432
 20
351.714284
 30
0.0
 10
186.571432
 20
356.000004
 30
0.0
 10
197.714288
 20
352.285716
 30
0.0
  0
LWPOLYLINE
  5
104
100
AcDbEntity
  8
Layer_1
 62
7
100
AcDbPolyline
 90
74
 70
1
 10
181.714288
 20
407.142860
 30
0.0
 10
186.571432
 20
400.000004
 30
0.0
 10
185.142856
 20
391.428572
 30
0.0
 10
187.714288
 20
383.714284
 30
0.0
 10
193.428568
 20
380.571428
 30
0.0
 10
200.000000
 20
367.428572
 30
0.0
 10
196.857144
 20
368.571428
 30
0.0
 10
192.571432
 20
366.285716
 30
0.0
 10
192.000000
 20
370.285716
 30
0.0
 10
193.714288
 20
374.000004
 30
0.0
 10
186.857144
 20
369.428572
 30
0.0
 10
170.000000
 20
377.428572
 30
0.0
 10
157.428568
 20
378.857140
 30
0.0
 10
150.857144
 20
386.285716
 30
0.0
 10
136.571432
 20
391.428572
 30
0.0
 10
129.714288
 20
392.285716
 30
0.0
 10
127.142856
 20
389.428572
 30
0.0
 10
117.714288
 20
390.285716
 30
0.0
 10
114.000000
 20
394.000004
 30
0.0
 10
84.285712
 20
398.857140
 30
0.0
 10
80.857144
 20
399.142860
 30
0.0
 10
78.285714
 20
398.000004
 30
0.0
 10
70.857143
 20
400.857140
 30
0.0
 10
63.142858
 20
396.285716
 30
0.0
 10
54.571429
 20
397.428572
 30
0.0
 10
44.571429
 20
388.000004
 30
0.0
 10
4.857143
 20
394.285716
 30
0.0
 10
-3.428571
 20
398.571428
 30
0.0
 10
-7.142857
 20
399.428572
 30
0.0
 10
-7.142857
 20
404.857140
 30
0.0
 10
-4.000000
 20
409.142860
 30
0.0
 10
-19.428571
 20
424.857140
 30
0.0
 10
-8.285714
 20
436.000004
 30
0.0
 10
-5.428571
 20
437.142860
 30
0.0
 10
-1.428571
 20
432.000004
 30
0.0
 10
-1.428571
 20
428.000004
 30
0.0
 10
-4.285714
 20
425.142860
 30
0.0
 10
0.285714
 20
412.571428
 30
0.0
 10
12.857143
 20
417.142860
 30
0.0
 10
14.000000
 20
424.000004
 30
0.0
 10
6.571429
 20
431.142860
 30
0.0
 10
1.714286
 20
431.142860
 30
0.0
 10
0.857143
 20
434.571428
 30
0.0
 10
8.571429
 20
438.285716
 30
0.0
 10
8.571429
 20
441.714284
 30
0.0
 10
17.714286
 20
442.000004
 30
0.0
 10
20.000000
 20
444.857140
 30
0.0
 10
16.285714
 20
450.000004
 30
0.0
 10
15.714286
 20
454.285716
 30
0.0
 10
19.714286
 20
456.857140
 30
0.0
 10
32.571429
 20
458.857140
 30
0.0
 10
34.571429
 20
453.142860
 30
0.0
 10
48.857143
 20
446.285716
 30
0.0
 10
52.857143
 20
440.000004
 30
0.0
 10
56.571429
 20
440.571428
 30
0.0
 10
56.857143
 20
435.714284
 30
0.0
 10
61.142858
 20
439.142860
 30
0.0
 10
64.857143
 20
432.571428
 30
0.0
 10
71.428571
 20
437.714284
 30
0.0
 10
77.428571
 20
434.571428
 30
0.0
 10
82.285712
 20
436.571428
 30
0.0
 10
84.857144
 20
428.571428
 30
0.0
 10
109.142856
 20
421.142860
 30
0.0
 10
113.142856
 20
426.285716
 30
0.0
 10
128.571432
 20
418.000004
 30
0.0
 10
129.714288
 20
425.428572
 30
0.0
 10
132.571432
 20
430.285716
 30
0.0
 10
140.571432
 20
430.285716
 30
0.0
 10
142.285712
 20
416.000004
 30
0.0
 10
158.000000
 20
416.000004
 30
0.0
 10
163.714288
 20
424.285716
 30
0.0
 10
171.142856
 20
418.857140
 30
0.0
 10
173.714288
 20
406.571428
 30
0.0
 10
181.714288
 20
407.142860
 30
0.0
  0
LWPOLYLINE
  5
105
100
AcDbEntity
  8
Layer_1
 62
7
100
AcDbPolyline
 90
36
 70
1
 10
70.000000
 20
401.142860
 30
0.0
 10
62.857143
 20
396.571428
 30
0.0
 10
62.857143
 20
389.142860
 30
0.0
 10
69.142858
 20
383.428572
 30
0.0
 10
66.857143
 20
379.714284
 30
0.0
 10
67.142858
 20
370.285716
 30
0.0
 10
79.142858
 20
358.857140
 30
0.0
 10
87.142856
 20
355.142860
 30
0.0
 10
93.714288
 20
355.428572
 30
0.0
 10
96.000000
 20
353.714284
 30
0.0
 10
93.714288
 20
346.000004
 30
0.0
 10
110.285712
 20
345.714284
 30
0.0
 10
113.428568
 20
341.142860
 30
0.0
 10
117.142856
 20
340.000004
 30
0.0
 10
118.000000
 20
344.000004
 30
0.0
 10
139.142856
 20
340.000004
 30
0.0
 10
154.285712
 20
342.857140
 30
0.0
 10
174.571432
 20
353.714284
 30
0.0
 10
180.285712
 20
351.142860
 30
0.0
 10
186.857144
 20
354.857140
 30
0.0
 10
198.857144
 20
351.142860
 30
0.0
 10
200.857144
 20
368.285716
 30
0.0
 10
196.571432
 20
369.142860
 30
0.0
 10
193.142856
 20
367.142860
 30
0.0
 10
194.857144
 20
375.714284
 30
0.0
 10
187.428568
 20
370.285716
 30
0.0
 10
170.857144
 20
378.000004
 30
0.0
 10
158.000000
 20
379.142860
 30
0.0
 10
151.142856
 20
387.714284
 30
0.0
 10
129.428568
 20
393.428572
 30
0.0
 10
126.857144
 20
390.285716
 30
0.0
 10
118.000000
 20
390.857140
 30
0.0
 10
115.142856
 20
394.857140
 30
0.0
 10
80.857144
 20
400.571428
 30
0.0
 10
77.428571
 20
398.285716
 30
0.0
 10
70.000000
 20
401.142860
 30
0.0
  0
LWPOLYLINE
  5
106
100
AcDbEntity
  8
Layer_1
 62
7
100
AcDbPolyline
 90
60
 70
1
 10
130.000000
 20
536.285716
 30
0.0
 10
134.857144
 20
531.142860
 30
0.0
 10
135.142856
 20
522.857140
 30
0.0
 10
126.285712
 20
525.142860
 30
0.0
 10
122.000000
 20
524.285716
 30
0.0
 10
123.428568
 20
509.428572
 30
0.0
 10
133.428568
 20
501.428572
 30
0.0
 10
140.000000
 20
500.857140
 30
0.0
 10
151.428568
 20
486.571428
 30
0.0
 10
155.142856
 20
471.714284
 30
0.0
 10
167.428568
 20
470.285716
 30
0.0
 10
169.428568
 20
483.428572
 30
0.0
 10
179.142856
 20
483.714284
 30
0.0
 10
175.428568
 20
474.571428
 30
0.0
 10
184.000000
 20
473.714284
 30
0.0
 10
178.000000
 20
469.142860
 30
0.0
 10
177.142856
 20
451.142860
 30
0.0
 10
173.142856
 20
442.285716
 30
0.0
 10
182.857144
 20
429.714284
 30
0.0
 10
182.285712
 20
406.285716
 30
0.0
 10
173.142856
 20
405.142860
 30
0.0
 10
170.000000
 20
418.000004
 30
0.0
 10
164.285712
 20
422.857140
 30
0.0
 10
159.428568
 20
415.714284
 30
0.0
 10
141.142856
 20
415.428572
 30
0.0
 10
139.428568
 20
429.142860
 30
0.0
 10
133.714288
 20
429.714284
 30
0.0
 10
130.000000
 20
424.571428
 30
0.0
 10
129.142856
 20
416.571428
 30
0.0
 10
113.428568
 20
425.428572
 30
0.0
 10
108.857144
 20
420.285716
 30
0.0
 10
84.000000
 20
427.714284
 30
0.0
 10
81.428568
 20
435.714284
 30
0.0
 10
77.428571
 20
434.857140
 30
0.0
 10
71.428571
 20
436.857140
 30
0.0
 10
65.428571
 20
431.714284
 30
0.0
 10
61.142858
 20
437.714284
 30
0.0
 10
55.714286
 20
434.285716
 30
0.0
 10
56.000000
 20
439.428572
 30
0.0
 10
52.571429
 20
439.142860
 30
0.0
 10
48.857143
 20
445.714284
 30
0.0
 10
35.142857
 20
452.285716
 30
0.0
 10
32.857143
 20
457.428572
 30
0.0
 10
37.428571
 20
456.285716
 30
0.0
 10
41.714286
 20
454.285716
 30
0.0
 10
45.428571
 20
460.000004
 30
0.0
 10
48.285714
 20
475.142860
 30
0.0
 10
57.142858
 20
479.714284
 30
0.0
 10
51.714286
 20
484.000004
 30
0.0
 10
51.428571
 20
487.714284
 30
0.0
 10
64.857143
 20
498.857140
 30
0.0
 10
67.142858
 20
507.428572
 30
0.0
 10
75.428571
 20
513.428572
 30
0.0
 10
81.428568
 20
508.571428
 30
0.0
 10
85.714288
 20
508.571428
 30
0.0
 10
97.428568
 20
530.571428
 30
0.0
 10
106.000000
 20
524.857140
 30
0.0
 10
112.285712
 20
530.285716
 30
0.0
 10
120.285712
 20
531.142860
 30
0.0
 10
130.000000
 20
536.285716
 30
0.0
  0
LWPOLYLINE
  5
107
100
AcDbEntity
  8
Layer_1
 62
7
100
AcDbPolyline
 90
52
 70
1
 10
101.142856
 20
577.142860
 30
0.0
 10
105.714288
 20
572.857140
 30
0.0
 10
123.714288
 20
574.857140
 30
0.0
 10
136.571432
 20
562.571428
 30
0.0
 10
131.142856
 20
534.000004
 30
0.0
 10
120.571432
 20
529.428572
 30
0.0
 10
113.714288
 20
528.571428
 30
0.0
 10
106.571432
 20
523.428572
 30
0.0
 10
97.428568
 20
528.285716
 30
0.0
 10
86.571432
 20
507.428572
 30
0.0
 10
82.285712
 20
506.857140
 30
0.0
 10
71.428571
 20
515.428572
 30
0.0
 10
71.142858
 20
520.000004
 30
0.0
 10
78.857143
 20
524.571428
 30
0.0
 10
82.571432
 20
528.857140
 30
0.0
 10
79.142858
 20
534.000004
 30
0.0
 10
72.285714
 20
534.000004
 30
0.0
 10
64.000000
 20
528.571428
 30
0.0
 10
54.571429
 20
531.428572
 30
0.0
 10
50.857143
 20
528.857140
 30
0.0
 10
43.428571
 20
528.571428
 30
0.0
 10
39.714286
 20
533.428572
 30
0.0
 10
33.428571
 20
533.428572
 30
0.0
 10
33.142857
 20
537.714284
 30
0.0
 10
24.857143
 20
539.714284
 30
0.0
 10
16.000000
 20
536.571428
 30
0.0
 10
4.285714
 20
546.285716
 30
0.0
 10
10.857143
 20
547.714284
 30
0.0
 10
10.857143
 20
551.714284
 30
0.0
 10
7.714286
 20
553.428572
 30
0.0
 10
10.285714
 20
559.142860
 30
0.0
 10
15.142857
 20
561.142860
 30
0.0
 10
15.142857
 20
566.571428
 30
0.0
 10
21.142857
 20
568.285716
 30
0.0
 10
23.714286
 20
564.571428
 30
0.0
 10
27.428571
 20
566.571428
 30
0.0
 10
26.285714
 20
569.714284
 30
0.0
 10
36.857143
 20
572.000004
 30
0.0
 10
40.285714
 20
566.285716
 30
0.0
 10
43.142858
 20
567.428572
 30
0.0
 10
41.714286
 20
571.714284
 30
0.0
 10
50.571429
 20
562.857140
 30
0.0
 10
52.571429
 20
565.142860
 30
0.0
 10
48.000000
 20
573.714284
 30
0.0
 10
53.714286
 20
574.285716
 30
0.0
 10
56.285714
 20
573.714284
 30
0.0
 10
56.000000
 20
580.000004
 30
0.0
 10
48.571429
 20
584.571428
 30
0.0
 10
61.428571
 20
587.142860
 30
0.0
 10
70.000000
 20
582.571428
 30
0.0
 10
71.428571
 20
578.285716
 30
0.0
 10
101.142856
 20
577.142860
 30
0.0
  0
LWPOLYLINE
  5
108
100
AcDbEntity
  8
Layer_1
 62
7
100
AcDbPolyline
 90
67
 70
1
 10
4.857143
 20
546.571428
 30
0.0
 10
16.000000
 20
537.428572
 30
0.0
 10
23.714286
 20
540.571428
 30
0.0
 10
32.571429
 20
538.571428
 30
0.0
 10
35.142857
 20
534.285716
 30
0.0
 10
40.857143
 20
534.285716
 30
0.0
 10
44.000000
 20
529.714284
 30
0.0
 10
52.000000
 20
530.571428
 30
0.0
 10
54.857143
 20
533.428572
 30
0.0
 10
62.857143
 20
529.714284
 30
0.0
 10
71.714286
 20
534.000004
 30
0.0
 10
79.714286
 20
535.428572
 30
0.0
 10
84.000000
 20
528.857140
 30
0.0
 10
79.714286
 20
522.285716
 30
0.0
 10
72.571429
 20
520.285716
 30
0.0
 10
72.571429
 20
515.428572
 30
0.0
 10
75.428571
 20
511.428572
 30
0.0
 10
68.857143
 20
507.714284
 30
0.0
 10
65.714286
 20
498.285716
 30
0.0
 10
52.857143
 20
487.142860
 30
0.0
 10
52.571429
 20
483.142860
 30
0.0
 10
58.000000
 20
478.857140
 30
0.0
 10
49.714286
 20
474.857140
 30
0.0
 10
46.857143
 20
460.571428
 30
0.0
 10
42.000000
 20
453.714284
 30
0.0
 10
32.285714
 20
456.857140
 30
0.0
 10
19.714286
 20
455.714284
 30
0.0
 10
16.571429
 20
452.571428
 30
0.0
 10
21.142857
 20
446.571428
 30
0.0
 10
20.571429
 20
442.285716
 30
0.0
 10
9.714286
 20
440.285716
 30
0.0
 10
8.571429
 20
435.714284
 30
0.0
 10
3.714286
 20
434.571428
 30
0.0
 10
4.857143
 20
431.428572
 30
0.0
 10
11.714286
 20
429.714284
 30
0.0
 10
15.142857
 20
424.000004
 30
0.0
 10
13.428571
 20
417.142860
 30
0.0
 10
1.142857
 20
411.714284
 30
0.0
 10
-4.000000
 20
425.142860
 30
0.0
 10
-2.000000
 20
427.714284
 30
0.0
 10
-1.428571
 20
431.428572
 30
0.0
 10
-5.142857
 20
436.285716
 30
0.0
 10
-18.857143
 20
424.857140
 30
0.0
 10
-28.571429
 20
427.714284
 30
0.0
 10
-34.000000
 20
433.428572
 30
0.0
 10
-34.285714
 20
442.285716
 30
0.0
 10
-28.285714
 20
457.142860
 30
0.0
 10
-31.142857
 20
466.000004
 30
0.0
 10
-19.428571
 20
462.571428
 30
0.0
 10
-6.857143
 20
464.571428
 30
0.0
 10
8.857143
 20
473.714284
 30
0.0
 10
10.285714
 20
484.571428
 30
0.0
 10
3.142857
 20
490.857140
 30
0.0
 10
2.571429
 20
499.142860
 30
0.0
 10
12.857143
 20
502.571428
 30
0.0
 10
9.142857
 20
510.000004
 30
0.0
 10
22.000000
 20
516.285716
 30
0.0
 10
22.285714
 20
519.428572
 30
0.0
 10
13.428571
 20
520.285716
 30
0.0
 10
1.714286
 20
514.285716
 30
0.0
 10
-15.142857
 20
527.714284
 30
0.0
 10
-9.142857
 20
533.142860
 30
0.0
 10
8.857143
 20
530.571428
 30
0.0
 10
9.142857
 20
534.000004
 30
0.0
 10
2.285714
 20
542.571428
 30
0.0
 10
2.285714
 20
547.714284
 30
0.0
 10
4.857143
 20
546.571428
 30
0.0
  0
LWPOLYLINE
  5
109
100
AcDbEntity
  8
Layer_1
 62
7
100
AcDbPolyline
 90
24
 70
1
 10
-2.571429
 20
366.857140
 30
0.0
 10
-10.857143
 20
374.000004
 30
0.0
 10
-16.857143
 20
375.142860
 30
0.0
 10
-41.714286
 20
385.714284
 30
0.0
 10
-74.000000
 20
392.000004
 30
0.0
 10
-84.285712
 20
400.285716
 30
0.0
 10
-84.857144
 20
404.857140
 30
0.0
 10
-76.857143
 20
410.285716
 30
0.0
 10
-78.000000
 20
421.714284
 30
0.0
 10
-81.714288
 20
424.000004
 30
0.0
 10
-82.000000
 20
431.142860
 30
0.0
 10
-60.000000
 20
444.857140
 30
0.0
 10
-54.000000
 20
444.857140
 30
0.0
 10
-50.285714
 20
448.571428
 30
0.0
 10
-32.000000
 20
432.571428
 30
0.0
 10
-18.857143
 20
426.000004
 30
0.0
 10
-3.142857
 20
409.714284
 30
0.0
 10
-6.000000
 20
404.000004
 30
0.0
 10
-6.285714
 20
398.857140
 30
0.0
 10
-1.714286
 20
398.857140
 30
0.0
 10
5.714286
 20
394.571428
 30
0.0
 10
-1.142857
 20
380.000004
 30
0.0
 10
-2.857143
 20
375.714284
 30
0.0
 10
-2.571429
 20
366.857140
 30
0.0
  0
LWPOLYLINE
  5
10a
100
AcDbEntity
  8
Layer_1
 62
7
100
AcDbPolyline
 90
35
 70
1
 10
-72.285714
 20
391.714284
 30
0.0
 10
-112.571432
 20
375.142860
 30
0.0
 10
-119.428568
 20
402.285716
 30
0.0
 10
-126.285712
 20
407.142860
 30
0.0
 10
-129.714288
 20
416.571428
 30
0.0
 10
-124.571432
 20
417.714284
 30
0.0
 10
-127.142856
 20
426.285716
 30
0.0
 10
-142.000000
 20
426.285716
 30
0.0
 10
-147.428568
 20
447.142860
 30
0.0
 10
-140.571432
 20
456.285716
 30
0.0
 10
-125.714288
 20
458.000004
 30
0.0
 10
-120.000000
 20
454.571428
 30
0.0
 10
-106.000000
 20
460.000004
 30
0.0
 10
-83.714288
 20
458.857140
 30
0.0
 10
-81.142856
 20
462.285716
 30
0.0
 10
-89.714288
 20
462.285716
 30
0.0
 10
-89.714288
 20
465.428572
 30
0.0
 10
-82.857144
 20
465.428572
 30
0.0
 10
-82.000000
 20
473.142860
 30
0.0
 10
-75.142858
 20
478.857140
 30
0.0
 10
-69.428571
 20
472.857140
 30
0.0
 10
-70.285714
 20
462.000004
 30
0.0
 10
-66.000000
 20
460.000004
 30
0.0
 10
-66.857143
 20
452.857140
 30
0.0
 10
-63.428571
 20
450.000004
 30
0.0
 10
-49.428571
 20
448.285716
 30
0.0
 10
-53.142858
 20
444.571428
 30
0.0
 10
-60.000000
 20
443.714284
 30
0.0
 10
-81.428568
 20
430.571428
 30
0.0
 10
-80.571432
 20
424.571428
 30
0.0
 10
-76.000000
 20
419.714284
 30
0.0
 10
-76.000000
 20
410.285716
 30
0.0
 10
-83.428568
 20
404.000004
 30
0.0
 10
-82.857144
 20
400.571428
 30
0.0
 10
-72.285714
 20
391.714284
 30
0.0
  0
LWPOLYLINE
  5
10b
100
AcDbEntity
  8
Layer_1
 62
7
100
AcDbPolyline
 90
26
 70
1
 10
-109.428568
 20
521.428572
 30
0.0
 10
-108.857144
 20
511.142860
 30
0.0
 10
-93.142856
 20
488.000004
 30
0.0
 10
-78.000000
 20
482.285716
 30
0.0
 10
-74.000000
 20
477.714284
 30
0.0
 10
-80.285712
 20
472.571428
 30
0.0
 10
-81.142856
 20
466.571428
 30
0.0
 10
-89.142856
 20
464.285716
 30
0.0
 10
-87.714288
 20
462.857140
 30
0.0
 10
-79.428571
 20
462.000004
 30
0.0
 10
-82.285712
 20
458.571428
 30
0.0
 10
-105.714288
 20
459.428572
 30
0.0
 10
-119.714288
 20
453.142860
 30
0.0
 10
-126.000000
 20
456.857140
 30
0.0
 10
-140.000000
 20
456.000004
 30
0.0
 10
-146.857144
 20
447.714284
 30
0.0
 10
-155.142856
 20
464.857140
 30
0.0
 10
-144.857144
 20
463.714284
 30
0.0
 10
-144.000000
 20
470.285716
 30
0.0
 10
-151.142856
 20
477.428572
 30
0.0
 10
-149.714288
 20
489.714284
 30
0.0
 10
-145.142856
 20
492.000004
 30
0.0
 10
-142.857144
 20
496.000004
 30
0.0
 10
-145.714288
 20
497.714284
 30
0.0
 10
-126.571432
 20
519.428572
 30
0.0
 10
-109.428568
 20
521.428572
 30
0.0
  0
LWPOLYLINE
  5
10c
100
AcDbEntity
  8
Layer_1
 62
7
100
AcDbPolyline
 90
45
 70
1
 10
-110.285712
 20
520.857140
 30
0.0
 10
-109.428568
 20
509.428572
 30
0.0
 10
-94.285712
 20
487.714284
 30
0.0
 10
-78.857143
 20
480.571428
 30
0.0
 10
-71.142858
 20
472.571428
 30
0.0
 10
-71.428571
 20
460.857140
 30
0.0
 10
-67.142858
 20
458.571428
 30
0.0
 10
-67.428571
 20
451.714284
 30
0.0
 10
-63.142858
 20
448.571428
 30
0.0
 10
-51.714286
 20
447.428572
 30
0.0
 10
-34.000000
 20
432.571428
 30
0.0
 10
-33.142857
 20
441.428572
 30
0.0
 10
-27.428571
 20
455.428572
 30
0.0
 10
-30.285714
 20
464.285716
 30
0.0
 10
-19.714286
 20
461.714284
 30
0.0
 10
-6.285714
 20
463.714284
 30
0.0
 10
9.428571
 20
472.571428
 30
0.0
 10
10.571429
 20
485.428572
 30
0.0
 10
4.285714
 20
491.428572
 30
0.0
 10
2.857143
 20
498.000004
 30
0.0
 10
14.000000
 20
502.000004
 30
0.0
 10
10.857143
 20
508.857140
 30
0.0
 10
22.285714
 20
516.000004
 30
0.0
 10
23.428571
 20
519.428572
 30
0.0
 10
14.000000
 20
521.142860
 30
0.0
 10
2.285714
 20
514.857140
 30
0.0
 10
4.000000
 20
511.714284
 30
0.0
 10
-6.571429
 20
507.714284
 30
0.0
 10
-9.142857
 20
512.285716
 30
0.0
 10
-26.000000
 20
526.000004
 30
0.0
 10
-37.428571
 20
525.428572
 30
0.0
 10
-51.142858
 20
532.000004
 30
0.0
 10
-54.857143
 20
529.428572
 30
0.0
 10
-57.428571
 20
532.571428
 30
0.0
 10
-65.428571
 20
530.857140
 30
0.0
 10
-69.142858
 20
523.428572
 30
0.0
 10
-75.428571
 20
521.714284
 30
0.0
 10
-78.000000
 20
525.428572
 30
0.0
 10
-82.571432
 20
524.285716
 30
0.0
 10
-82.571432
 20
515.714284
 30
0.0
 10
-84.857144
 20
514.000004
 30
0.0
 10
-91.142856
 20
518.000004
 30
0.0
 10
-96.571432
 20
517.428572
 30
0.0
 10
-104.285712
 20
524.000004
 30
0.0
 10
-110.285712
 20
520.857140
 30
0.0
  0
ENDSEC
  0
SECTION
  2
OBJECTS
  0
DICTIONARY
  5
C
330
0
100
AcDbDictionary
  3
ACAD_GROUP
350
D
  3
ACAD_MLINESTYLE
350
17
  0
DICTIONARY
  5
D
330
C
100
AcDbDictionary
  0
DICTIONARY
  5
1A
330
C
100
AcDbDictionary
  0
DICTIONARY
  5
17
330
C
100
AcDbDictionary
  3
STANDARD
350
18
  0
DICTIONARY
  5
19
330
C
100
AcDbDictionary
  0
ENDSEC
  0
EOF
