  0
SECTION
  2
HEADER
  9
$ACADVER
  1
AC1014
  9
$HANDSEED
  5
FFFF
  9
$MEASUREMENT
 70
     1
  0
ENDSEC
  0
SECTION
  2
TABLES
  0
TABLE
  2
VPORT
  5
8
330
0
100
AcDbSymbolTable
 70
     4
  0
VPORT
  5
2E
330
8
100
AcDbSymbolTableRecord
100
AcDbViewportTableRecord
  2
*ACTIVE
 70
     0
 10
0.0
 20
0.0
 11
1.0
 21
1.0
 12
210.0
 22
148.5
 13
0.0
 23
0.0
 14
10.0
 24
10.0
 15
10.0
 25
10.0
 16
0.0
 26
0.0
 36
1.0
 17
0.0
 27
0.0
 37
0.0
 40
341.0
 41
1.24
 42
50.0
 43
0.0
 44
0.0
 50
0.0
 51
0.0
 71
     0
 72
   100
 73
     1
 74
     3
 75
     0
 76
     0
 77
     0
 78
     0
  0
ENDTAB
  0
TABLE
  2
LTYPE
  5
5
330
0
100
AcDbSymbolTable
 70
     1
  0
LTYPE
  5
14
330
5
100
AcDbSymbolTableRecord
100
AcDbLinetypeTableRecord
  2
BYBLOCK
 70
     0
  3

 72
    65
 73
     0
 40
0.0
  0
LTYPE
  5
15
330
5
100
AcDbSymbolTableRecord
100
AcDbLinetypeTableRecord
  2
BYLAYER
 70
     0
  3

 72
    65
 73
     0
 40
0.0
  0
LTYPE
  5
16
330
5
100
AcDbSymbolTableRecord
100
AcDbLinetypeTableRecord
  2
CONTINUOUS
 70
     0
  3
Solid line
 72
    65
 73
     0
 40
0.0
  0
ENDTAB
  0
TABLE
  2
LAYER
  5
2
100
AcDbSymbolTable
 70
2
  0
LAYER
  5
50
100
AcDbSymbolTableRecord
100
AcDbLayerTableRecord
  2
0
 70
0
  6
CONTINUOUS
  0
LAYER
  5
51
100
AcDbSymbolTableRecord
100
AcDbLayerTableRecord
  2
Layer_1
 70
0
  6
CONTINUOUS
  0
ENDTAB
  0
TABLE
  2
STYLE
  5
3
330
0
100
AcDbSymbolTable
 70
     1
  0
STYLE
  5
11
330
3
100
AcDbSymbolTableRecord
100
AcDbTextStyleTableRecord
  2
STANDARD
 70
     0
 40
0.0
 41
1.0
 50
0.0
 71
     0
 42
2.5
  3
txt
  4

  0
ENDTAB
  0
TABLE
  2
VIEW
  5
6
330
0
100
AcDbSymbolTable
 70
     0
  0
ENDTAB
  0
TABLE
  2
UCS
  5
7
330
0
100
AcDbSymbolTable
 70
     0
  0
ENDTAB
  0
TABLE
  2
APPID
  5
9
330
0
100
AcDbSymbolTable
 70
     2
  0
APPID
  5
12
330
9
100
AcDbSymbolTableRecord
100
AcDbRegAppTableRecord
  2
ACAD
 70
     0
  0
ENDTAB
  0
TABLE
  2
DIMSTYLE
  5
A
330
0
100
AcDbSymbolTable
 70
     1
  0
DIMSTYLE
105
27
330
A
100
AcDbSymbolTableRecord
100
AcDbDimStyleTableRecord
  2
ISO-25
 70
     0
  3

  4

  5

  6

  7

 40
1.0
 41
2.5
 42
0.625
 43
3.75
 44
1.25
 45
0.0
 46
0.0
 47
0.0
 48
0.0
140
2.5
141
2.5
142
0.0
143
0.03937007874016
144
1.0
145
0.0
146
1.0
147
0.625
 71
     0
 72
     0
 73
     0
 74
     0
 75
     0
 76
     0
 77
     1
 78
     8
170
     0
171
     3
172
     1
173
     0
174
     0
175
     0
176
     0
177
     0
178
     0
270
     2
271
     2
272
     2
273
     2
274
     3
340
11
275
     0
280
     0
281
     0
282
     0
283
     0
284
     8
285
     0
286
     0
287
     3
288
     0
  0
ENDTAB
  0
TABLE
  2
BLOCK_RECORD
  5
1
330
0
100
AcDbSymbolTable
 70
     1
  0
BLOCK_RECORD
  5
1F
330
1
100
AcDbSymbolTableRecord
100
AcDbBlockTableRecord
  2
*MODEL_SPACE
  0
BLOCK_RECORD
  5
1B
330
1
100
AcDbSymbolTableRecord
100
AcDbBlockTableRecord
  2
*PAPER_SPACE
  0
ENDTAB
  0
ENDSEC
  0
SECTION
  2
BLOCKS
  0
BLOCK
  5
20
330
1F
100
AcDbEntity
  8
0
100
AcDbBlockBegin
  2
*MODEL_SPACE
 70
     0
 10
0.0
 20
0.0
 30
0.0
  3
*MODEL_SPACE
  1

  0
ENDBLK
  5
21
330
1F
100
AcDbEntity
  8
0
100
AcDbBlockEnd
  0
BLOCK
  5
1C
330
1B
100
AcDbEntity
 67
     1
  8
0
100
AcDbBlockBegin
  2
*PAPER_SPACE
  1

  0
ENDBLK
  5
1D
330
1B
100
AcDbEntity
 67
     1
  8
0
100
AcDbBlockEnd
  0
ENDSEC
  0
SECTION
  2
ENTITIES
  0
LWPOLYLINE
  5
100
100
AcDbEntity
  8
Layer_1
 62
7
100
AcDbPolyline
 90
34
 70
1
 10
258.857144
 20
650.571428
 30
0.0
 10
261.428568
 20
645.142860
 30
0.0
 10
273.142856
 20
643.714284
 30
0.0
 10
279.714288
 20
646.000004
 30
0.0
 10
284.857144
 20
639.714284
 30
0.0
 10
295.714288
 20
637.142860
 30
0.0
 10
308.571432
 20
619.142860
 30
0.0
 10
310.285712
 20
611.142860
 30
0.0
 10
317.428568
 20
604.571428
 30
0.0
 10
350.857144
 20
604.000004
 30
0.0
 10
358.857144
 20
618.857148
 30
0.0
 10
371.142856
 20
625.714284
 30
0.0
 10
378.571432
 20
635.428572
 30
0.0
 10
370.000000
 20
663.142860
 30
0.0
 10
366.857144
 20
662.571428
 30
0.0
 10
361.428576
 20
657.428572
 30
0.0
 10
356.571432
 20
663.428572
 30
0.0
 10
348.571432
 20
664.000004
 30
0.0
 10
343.142856
 20
683.714284
 30
0.0
 10
348.000000
 20
691.142860
 30
0.0
 10
348.571432
 20
696.000004
 30
0.0
 10
343.142856
 20
697.142860
 30
0.0
 10
330.857144
 20
684.857148
 30
0.0
 10
320.000000
 20
684.285716
 30
0.0
 10
318.000000
 20
691.428572
 30
0.0
 10
312.571432
 20
695.428572
 30
0.0
 10
308.857144
 20
690.571428
 30
0.0
 10
300.571432
 20
695.714284
 30
0.0
 10
289.714288
 20
694.285716
 30
0.0
 10
289.142856
 20
686.285716
 30
0.0
 10
297.428568
 20
677.714284
 30
0.0
 10
287.714288
 20
666.857148
 30
0.0
 10
279.714288
 20
668.000004
 30
0.0
 10
258.857144
 20
650.571428
 30
0.0
  0
LWPOLYLINE
  5
101
100
AcDbEntity
  8
Layer_1
 62
7
100
AcDbPolyline
 90
49
 70
1
 10
256.571432
 20
650.000004
 30
0.0
 10
252.857144
 20
645.142860
 30
0.0
 10
244.571432
 20
644.285716
 30
0.0
 10
234.571432
 20
637.142860
 30
0.0
 10
232.000000
 20
636.857148
 30
0.0
 10
231.428568
 20
630.857148
 30
0.0
 10
222.285712
 20
618.857148
 30
0.0
 10
221.714288
 20
612.571428
 30
0.0
 10
216.000000
 20
605.714284
 30
0.0
 10
226.571432
 20
597.142860
 30
0.0
 10
233.714288
 20
597.142860
 30
0.0
 10
247.428568
 20
589.714284
 30
0.0
 10
261.714288
 20
573.142860
 30
0.0
 10
257.714288
 20
552.571428
 30
0.0
 10
259.714288
 20
547.142860
 30
0.0
 10
263.142856
 20
543.714284
 30
0.0
 10
258.285712
 20
523.714284
 30
0.0
 10
277.428568
 20
535.714284
 30
0.0
 10
284.857144
 20
535.714284
 30
0.0
 10
283.142856
 20
530.857140
 30
0.0
 10
276.857144
 20
526.571428
 30
0.0
 10
278.857144
 20
519.142860
 30
0.0
 10
284.857144
 20
515.714284
 30
0.0
 10
289.714288
 20
517.142860
 30
0.0
 10
293.142856
 20
523.428572
 30
0.0
 10
296.285712
 20
528.285716
 30
0.0
 10
314.571432
 20
524.285716
 30
0.0
 10
311.714288
 20
510.000004
 30
0.0
 10
316.285712
 20
509.428572
 30
0.0
 10
321.428568
 20
515.714284
 30
0.0
 10
336.285712
 20
514.000004
 30
0.0
 10
342.857144
 20
517.428572
 30
0.0
 10
349.714288
 20
517.428572
 30
0.0
 10
360.571432
 20
520.285716
 30
0.0
 10
374.571432
 20
542.000004
 30
0.0
 10
373.428576
 20
559.142860
 30
0.0
 10
362.571432
 20
564.857140
 30
0.0
 10
352.571432
 20
584.000004
 30
0.0
 10
349.142856
 20
597.142860
 30
0.0
 10
351.428568
 20
604.857148
 30
0.0
 10
317.714288
 20
604.000004
 30
0.0
 10
309.714288
 20
611.142860
 30
0.0
 10
308.285712
 20
620.571428
 30
0.0
 10
296.000000
 20
636.857148
 30
0.0
 10
284.571432
 20
639.428572
 30
0.0
 10
279.142856
 20
645.714284
 30
0.0
 10
272.857144
 20
643.714284
 30
0.0
 10
261.142856
 20
645.142860
 30
0.0
 10
256.571432
 20
650.000004
 30
0.0
  0
LWPOLYLINE
  5
102
100
AcDbEntity
  8
Layer_1
 62
7
100
AcDbPolyline
 90
42
 70
1
 10
230.857144
 20
637.428572
 30
0.0
 10
231.714288
 20
630.857148
 30
0.0
 10
222.000000
 20
619.428572
 30
0.0
 10
222.285712
 20
613.142860
 30
0.0
 10
215.714288
 20
606.000004
 30
0.0
 10
192.571432
 20
606.285716
 30
0.0
 10
184.857144
 20
598.571428
 30
0.0
 10
174.857144
 20
584.571428
 30
0.0
 10
172.857144
 20
578.571428
 30
0.0
 10
182.285712
 20
570.857140
 30
0.0
 10
182.000000
 20
567.142860
 30
0.0
 10
167.142856
 20
559.714284
 30
0.0
 10
152.571432
 20
547.142860
 30
0.0
 10
136.571432
 20
539.142860
 30
0.0
 10
130.285712
 20
542.000004
 30
0.0
 10
118.285712
 20
568.857140
 30
0.0
 10
107.714288
 20
571.428572
 30
0.0
 10
97.428568
 20
569.714284
 30
0.0
 10
90.285712
 20
579.428572
 30
0.0
 10
90.000000
 20
588.285716
 30
0.0
 10
100.571432
 20
602.857148
 30
0.0
 10
102.000000
 20
610.857148
 30
0.0
 10
98.000000
 20
615.142860
 30
0.0
 10
100.857144
 20
625.714284
 30
0.0
 10
108.000000
 20
630.857148
 30
0.0
 10
113.714288
 20
631.428572
 30
0.0
 10
117.428568
 20
628.285716
 30
0.0
 10
123.714288
 20
628.285716
 30
0.0
 10
125.714288
 20
619.428572
 30
0.0
 10
132.000000
 20
611.428572
 30
0.0
 10
141.428568
 20
620.857148
 30
0.0
 10
135.142856
 20
628.857148
 30
0.0
 10
146.857144
 20
632.000004
 30
0.0
 10
152.285712
 20
627.142860
 30
0.0
 10
170.571432
 20
626.857148
 30
0.0
 10
176.285712
 20
622.571428
 30
0.0
 10
179.714288
 20
625.428572
 30
0.0
 10
179.714288
 20
634.000004
 30
0.0
 10
194.000000
 20
645.428572
 30
0.0
 10
205.714288
 20
642.857148
 30
0.0
 10
220.285712
 20
644.571428
 30
0.0
 10
230.857144
 20
637.428572
 30
0.0
  0
LWPOLYLINE
  5
103
100
AcDbEntity
  8
Layer_1
 62
7
100
AcDbPolyline
 90
23
 70
1
 10
179.142856
 20
633.428572
 30
0.0
 10
172.571432
 20
634.285716
 30
0.0
 10
147.714288
 20
652.285716
 30
0.0
 10
138.571432
 20
665.142860
 30
0.0
 10
126.285712
 20
663.714284
 30
0.0
 10
117.142856
 20
653.142860
 30
0.0
 10
106.571432
 20
653.714284
 30
0.0
 10
100.000000
 20
648.000004
 30
0.0
 10
104.000000
 20
644.571428
 30
0.0
 10
117.428568
 20
638.285716
 30
0.0
 10
113.428568
 20
631.428572
 30
0.0
 10
117.428568
 20
627.428572
 30
0.0
 10
123.714288
 20
627.428572
 30
0.0
 10
125.428568
 20
618.857148
 30
0.0
 10
132.000000
 20
611.714284
 30
0.0
 10
141.142856
 20
620.571428
 30
0.0
 10
134.857144
 20
628.571428
 30
0.0
 10
146.857144
 20
632.000004
 30
0.0
 10
152.285712
 20
626.857148
 30
0.0
 10
172.000000
 20
626.285716
 30
0.0
 10
176.857144
 20
622.285716
 30
0.0
 10
178.857144
 20
625.142860
 30
0.0
 10
179.142856
 20
633.428572
 30
0.0
  0
LWPOLYLINE
  5
104
100
AcDbEntity
  8
Layer_1
 62
7
100
AcDbPolyline
 90
15
 70
1
 10
97.142856
 20
570.285716
 30
0.0
 10
96.000000
 20
564.857140
 30
0.0
 10
86.857144
 20
557.142860
 30
0.0
 10
86.571432
 20
544.857140
 30
0.0
 10
92.000000
 20
541.714284
 30
0.0
 10
89.714288
 20
526.285716
 30
0.0
 10
105.142856
 20
514.000004
 30
0.0
 10
111.714288
 20
513.714284
 30
0.0
 10
118.571432
 20
507.428572
 30
0.0
 10
133.428568
 20
520.000004
 30
0.0
 10
132.571432
 20
528.571428
 30
0.0
 10
132.571432
 20
542.285716
 30
0.0
 10
118.000000
 20
568.857140
 30
0.0
 10
106.571432
 20
571.428572
 30
0.0
 10
97.142856
 20
570.285716
 30
0.0
  0
LWPOLYLINE
  5
105
100
AcDbEntity
  8
Layer_1
 62
7
100
AcDbPolyline
 90
19
 70
1
 10
118.571432
 20
507.142860
 30
0.0
 10
106.857144
 20
495.142860
 30
0.0
 10
82.285712
 20
475.714284
 30
0.0
 10
68.857143
 20
484.000004
 30
0.0
 10
55.714286
 20
499.428572
 30
0.0
 10
50.571429
 20
501.428572
 30
0.0
 10
46.285714
 20
513.428572
 30
0.0
 10
41.142858
 20
524.285716
 30
0.0
 10
56.571429
 20
536.857140
 30
0.0
 10
62.571429
 20
533.142860
 30
0.0
 10
67.428571
 20
534.000004
 30
0.0
 10
72.571429
 20
530.000004
 30
0.0
 10
84.000000
 20
540.000004
 30
0.0
 10
86.571432
 20
544.285716
 30
0.0
 10
92.285712
 20
541.714284
 30
0.0
 10
90.857144
 20
527.428572
 30
0.0
 10
105.428568
 20
514.285716
 30
0.0
 10
112.285712
 20
514.285716
 30
0.0
 10
118.571432
 20
507.142860
 30
0.0
  0
LWPOLYLINE
  5
106
100
AcDbEntity
  8
Layer_1
 62
7
100
AcDbPolyline
 90
32
 70
1
 10
108.285712
 20
496.000004
 30
0.0
 10
120.285712
 20
489.142860
 30
0.0
 10
119.428568
 20
482.285716
 30
0.0
 10
130.571432
 20
472.571428
 30
0.0
 10
128.857144
 20
466.857140
 30
0.0
 10
125.142856
 20
463.714284
 30
0.0
 10
113.142856
 20
437.714284
 30
0.0
 10
124.571432
 20
437.428572
 30
0.0
 10
135.428568
 20
442.571428
 30
0.0
 10
158.857144
 20
444.000004
 30
0.0
 10
175.142856
 20
457.714284
 30
0.0
 10
184.285712
 20
462.285716
 30
0.0
 10
184.285712
 20
464.000004
 30
0.0
 10
178.571432
 20
468.285716
 30
0.0
 10
178.000000
 20
482.000004
 30
0.0
 10
173.714288
 20
494.000004
 30
0.0
 10
178.000000
 20
508.571428
 30
0.0
 10
182.000000
 20
513.142860
 30
0.0
 10
182.571432
 20
517.428572
 30
0.0
 10
176.285712
 20
518.857140
 30
0.0
 10
174.857144
 20
522.285716
 30
0.0
 10
178.285712
 20
526.857140
 30
0.0
 10
179.142856
 20
537.142860
 30
0.0
 10
176.000000
 20
541.428572
 30
0.0
 10
178.000000
 20
548.000004
 30
0.0
 10
177.428568
 20
565.142860
 30
0.0
 10
165.714288
 20
559.142860
 30
0.0
 10
154.571432
 20
548.857140
 30
0.0
 10
138.000000
 20
540.000004
 30
0.0
 10
132.285712
 20
541.428572
 30
0.0
 10
133.142856
 20
519.428572
 30
0.0
 10
108.285712
 20
496.000004
 30
0.0
  0
LWPOLYLINE
  5
107
100
AcDbEntity
  8
Layer_1
 62
7
100
AcDbPolyline
 90
14
 70
1
 10
107.428568
 20
496.571428
 30
0.0
 10
82.000000
 20
475.714284
 30
0.0
 10
83.142856
 20
458.000004
 30
0.0
 10
88.857144
 20
452.571428
 30
0.0
 10
86.285712
 20
444.571428
 30
0.0
 10
93.714288
 20
444.000004
 30
0.0
 10
104.285712
 20
438.000004
 30
0.0
 10
113.714288
 20
437.428572
 30
0.0
 10
125.714288
 20
463.714284
 30
0.0
 10
129.714288
 20
466.571428
 30
0.0
 10
130.857144
 20
472.285716
 30
0.0
 10
120.571432
 20
482.000004
 30
0.0
 10
120.000000
 20
489.714284
 30
0.0
 10
107.428568
 20
496.571428
 30
0.0
  0
LWPOLYLINE
  5
108
100
AcDbEntity
  8
Layer_1
 62
7
100
AcDbPolyline
 90
22
 70
1
 10
86.428568
 20
444.571428
 30
0.0
 10
82.142856
 20
438.571428
 30
0.0
 10
81.142856
 20
430.428572
 30
0.0
 10
77.714286
 20
424.285716
 30
0.0
 10
94.571432
 20
406.285716
 30
0.0
 10
100.142856
 20
407.428572
 30
0.0
 10
105.142856
 20
402.428572
 30
0.0
 10
107.714288
 20
403.571428
 30
0.0
 10
114.142856
 20
413.428572
 30
0.0
 10
116.714288
 20
413.428572
 30
0.0
 10
118.857144
 20
410.857140
 30
0.0
 10
121.714288
 20
413.714284
 30
0.0
 10
124.857144
 20
413.857140
 30
0.0
 10
128.142856
 20
416.142860
 30
0.0
 10
127.857144
 20
418.000004
 30
0.0
 10
125.000000
 20
420.571428
 30
0.0
 10
126.142856
 20
428.000004
 30
0.0
 10
125.857144
 20
432.428572
 30
0.0
 10
121.857144
 20
437.571428
 30
0.0
 10
104.571432
 20
438.000004
 30
0.0
 10
93.714288
 20
444.142860
 30
0.0
 10
86.428568
 20
444.571428
 30
0.0
  0
LWPOLYLINE
  5
109
100
AcDbEntity
  8
Layer_1
 62
7
100
AcDbPolyline
 90
65
 70
1
 10
95.714288
 20
406.142860
 30
0.0
 10
98.714288
 20
401.000004
 30
0.0
 10
97.714288
 20
393.285716
 30
0.0
 10
105.714288
 20
395.714284
 30
0.0
 10
107.714288
 20
393.857140
 30
0.0
 10
108.142856
 20
385.142860
 30
0.0
 10
115.857144
 20
375.285716
 30
0.0
 10
113.714288
 20
370.857140
 30
0.0
 10
107.000000
 20
368.000004
 30
0.0
 10
99.714288
 20
364.714284
 30
0.0
 10
92.000000
 20
364.285716
 30
0.0
 10
87.857144
 20
361.285716
 30
0.0
 10
87.857144
 20
355.142860
 30
0.0
 10
73.571429
 20
356.857140
 30
0.0
 10
72.571429
 20
359.142860
 30
0.0
 10
75.571429
 20
365.714284
 30
0.0
 10
75.857143
 20
369.857140
 30
0.0
 10
74.142858
 20
372.285716
 30
0.0
 10
75.000000
 20
376.285716
 30
0.0
 10
75.428571
 20
379.714284
 30
0.0
 10
71.000000
 20
385.571428
 30
0.0
 10
69.857143
 20
379.714284
 30
0.0
 10
59.857143
 20
373.142860
 30
0.0
 10
56.000000
 20
367.428572
 30
0.0
 10
55.285714
 20
356.428572
 30
0.0
 10
57.714286
 20
352.142860
 30
0.0
 10
57.714286
 20
344.142860
 30
0.0
 10
63.285714
 20
333.000004
 30
0.0
 10
69.571429
 20
336.142860
 30
0.0
 10
78.285714
 20
330.142860
 30
0.0
 10
83.857144
 20
329.571428
 30
0.0
 10
87.571432
 20
333.428572
 30
0.0
 10
90.571432
 20
333.714284
 30
0.0
 10
97.285712
 20
325.142860
 30
0.0
 10
102.428568
 20
326.571428
 30
0.0
 10
103.571432
 20
335.428572
 30
0.0
 10
113.714288
 20
342.142860
 30
0.0
 10
115.142856
 20
347.428572
 30
0.0
 10
130.571432
 20
353.428572
 30
0.0
 10
139.428568
 20
356.000004
 30
0.0
 10
144.142856
 20
360.714284
 30
0.0
 10
144.000000
 20
365.714284
 30
0.0
 10
154.285712
 20
372.428572
 30
0.0
 10
160.571432
 20
382.285716
 30
0.0
 10
161.571432
 20
396.714284
 30
0.0
 10
157.285712
 20
413.000004
 30
0.0
 10
155.000000
 20
419.000004
 30
0.0
 10
144.428568
 20
424.571428
 30
0.0
 10
138.000000
 20
432.000004
 30
0.0
 10
135.142856
 20
442.571428
 30
0.0
 10
125.142856
 20
437.714284
 30
0.0
 10
122.142856
 20
437.714284
 30
0.0
 10
126.000000
 20
432.428572
 30
0.0
 10
124.857144
 20
421.000004
 30
0.0
 10
128.142856
 20
417.714284
 30
0.0
 10
128.571432
 20
416.285716
 30
0.0
 10
125.714288
 20
414.571428
 30
0.0
 10
122.000000
 20
414.000004
 30
0.0
 10
119.428568
 20
411.000004
 30
0.0
 10
116.857144
 20
413.571428
 30
0.0
 10
114.142856
 20
413.857140
 30
0.0
 10
107.714288
 20
403.857140
 30
0.0
 10
105.142856
 20
402.857140
 30
0.0
 10
100.285712
 20
407.571428
 30
0.0
 10
95.714288
 20
406.142860
 30
0.0
  0
LWPOLYLINE
  5
10a
100
AcDbEntity
  8
Layer_1
 62
7
100
AcDbPolyline
 90
17
 70
1
 10
62.571429
 20
333.714284
 30
0.0
 10
62.428571
 20
317.285716
 30
0.0
 10
86.142856
 20
304.571428
 30
0.0
 10
100.285712
 20
304.857140
 30
0.0
 10
121.428568
 20
311.714284
 30
0.0
 10
117.285712
 20
324.000004
 30
0.0
 10
113.714288
 20
326.000004
 30
0.0
 10
113.142856
 20
342.285716
 30
0.0
 10
104.142856
 20
336.000004
 30
0.0
 10
102.428568
 20
326.571428
 30
0.0
 10
97.428568
 20
325.571428
 30
0.0
 10
90.714288
 20
334.000004
 30
0.0
 10
87.000000
 20
333.571428
 30
0.0
 10
84.428568
 20
329.857140
 30
0.0
 10
78.714286
 20
329.857140
 30
0.0
 10
69.571429
 20
335.857140
 30
0.0
 10
62.571429
 20
333.714284
 30
0.0
  0
LWPOLYLINE
  5
10b
100
AcDbEntity
  8
Layer_1
 62
7
100
AcDbPolyline
 90
28
 70
1
 10
121.428568
 20
311.428572
 30
0.0
 10
117.571432
 20
323.857140
 30
0.0
 10
113.714288
 20
326.142860
 30
0.0
 10
113.428568
 20
341.714284
 30
0.0
 10
115.857144
 20
347.714284
 30
0.0
 10
139.142856
 20
355.857140
 30
0.0
 10
144.285712
 20
361.142860
 30
0.0
 10
144.285712
 20
365.857140
 30
0.0
 10
154.714288
 20
373.142860
 30
0.0
 10
160.857144
 20
381.857140
 30
0.0
 10
169.571432
 20
379.714284
 30
0.0
 10
176.000000
 20
373.857140
 30
0.0
 10
176.142856
 20
362.857140
 30
0.0
 10
186.857144
 20
351.857140
 30
0.0
 10
188.857144
 20
346.285716
 30
0.0
 10
187.000000
 20
340.571428
 30
0.0
 10
188.428568
 20
332.714284
 30
0.0
 10
195.857144
 20
332.142860
 30
0.0
 10
192.000000
 20
326.714284
 30
0.0
 10
191.142856
 20
322.428572
 30
0.0
 10
181.571432
 20
312.000004
 30
0.0
 10
168.285712
 20
305.142860
 30
0.0
 10
159.857144
 20
295.571428
 30
0.0
 10
163.000000
 20
290.714284
 30
0.0
 10
162.285712
 20
285.571428
 30
0.0
 10
148.000000
 20
278.428572
 30
0.0
 10
134.857144
 20
298.428572
 30
0.0
 10
121.428568
 20
311.428572
 30
0.0
  0
LWPOLYLINE
  5
10c
100
AcDbEntity
  8
Layer_1
 62
7
100
AcDbPolyline
 90
16
 70
1
 10
158.142856
 20
282.857140
 30
0.0
 10
158.714288
 20
280.285716
 30
0.0
 10
159.142856
 20
274.571428
 30
0.0
 10
162.571432
 20
273.714284
 30
0.0
 10
165.142856
 20
279.857140
 30
0.0
 10
172.428568
 20
291.571428
 30
0.0
 10
179.142856
 20
291.571428
 30
0.0
 10
183.428568
 20
297.000004
 30
0.0
 10
183.285712
 20
303.285716
 30
0.0
 10
176.571432
 20
305.285716
 30
0.0
 10
174.857144
 20
308.428572
 30
0.0
 10
168.714288
 20
305.285716
 30
0.0
 10
160.285712
 20
296.000004
 30
0.0
 10
162.857144
 20
291.142860
 30
0.0
 10
162.285712
 20
285.571428
 30
0.0
 10
158.142856
 20
282.857140
 30
0.0
  0
LWPOLYLINE
  5
10d
100
AcDbEntity
  8
Layer_1
 62
7
100
AcDbPolyline
 90
31
 70
1
 10
158.000000
 20
282.857140
 30
0.0
 10
148.428568
 20
278.428572
 30
0.0
 10
150.285712
 20
274.428572
 30
0.0
 10
150.857144
 20
268.428572
 30
0.0
 10
164.857144
 20
256.857140
 30
0.0
 10
173.571432
 20
267.714284
 30
0.0
 10
182.714288
 20
271.857140
 30
0.0
 10
182.571432
 20
275.714284
 30
0.0
 10
178.857144
 20
276.857140
 30
0.0
 10
178.142856
 20
281.714284
 30
0.0
 10
182.142856
 20
282.571428
 30
0.0
 10
192.857144
 20
291.714284
 30
0.0
 10
195.285712
 20
300.428572
 30
0.0
 10
196.000000
 20
310.428572
 30
0.0
 10
200.857144
 20
315.285716
 30
0.0
 10
201.285712
 20
318.428572
 30
0.0
 10
198.714288
 20
320.428572
 30
0.0
 10
196.000000
 20
320.142860
 30
0.0
 10
192.142856
 20
326.571428
 30
0.0
 10
191.142856
 20
322.000004
 30
0.0
 10
181.571432
 20
311.857140
 30
0.0
 10
175.000000
 20
308.571428
 30
0.0
 10
176.571432
 20
305.571428
 30
0.0
 10
183.571432
 20
303.142860
 30
0.0
 10
183.285712
 20
297.285716
 30
0.0
 10
179.428568
 20
291.285716
 30
0.0
 10
171.857144
 20
291.571428
 30
0.0
 10
164.571432
 20
279.142860
 30
0.0
 10
163.000000
 20
273.714284
 30
0.0
 10
159.142856
 20
274.714284
 30
0.0
 10
158.000000
 20
282.857140
 30
0.0
  0
LWPOLYLINE
  5
10e
100
AcDbEntity
  8
Layer_1
 62
7
100
AcDbPolyline
 90
36
 70
1
 10
195.285712
 20
300.000004
 30
0.0
 10
193.142856
 20
291.428572
 30
0.0
 10
182.428568
 20
282.428572
 30
0.0
 10
178.142856
 20
281.428572
 30
0.0
 10
179.285712
 20
276.857140
 30
0.0
 10
182.857144
 20
275.142860
 30
0.0
 10
182.857144
 20
272.000004
 30
0.0
 10
173.857144
 20
267.571428
 30
0.0
 10
165.285712
 20
257.142860
 30
0.0
 10
174.285712
 20
244.285716
 30
0.0
 10
190.714288
 20
231.857140
 30
0.0
 10
196.285712
 20
239.142860
 30
0.0
 10
199.000000
 20
246.571428
 30
0.0
 10
206.428568
 20
246.285716
 30
0.0
 10
210.714288
 20
242.857140
 30
0.0
 10
214.571432
 20
243.857140
 30
0.0
 10
213.000000
 20
251.000004
 30
0.0
 10
219.571432
 20
256.428572
 30
0.0
 10
237.000000
 20
260.000004
 30
0.0
 10
246.142856
 20
253.285716
 30
0.0
 10
254.571432
 20
255.285716
 30
0.0
 10
258.857144
 20
258.857140
 30
0.0
 10
255.857144
 20
264.857140
 30
0.0
 10
255.142856
 20
269.857140
 30
0.0
 10
260.142856
 20
273.285716
 30
0.0
 10
258.142856
 20
276.571428
 30
0.0
 10
259.285712
 20
288.428572
 30
0.0
 10
256.857144
 20
289.857140
 30
0.0
 10
243.285712
 20
290.142860
 30
0.0
 10
231.571432
 20
291.571428
 30
0.0
 10
229.142856
 20
293.428572
 30
0.0
 10
228.857144
 20
298.714284
 30
0.0
 10
227.142856
 20
300.428572
 30
0.0
 10
215.857144
 20
291.142860
 30
0.0
 10
211.000000
 20
289.714284
 30
0.0
 10
195.285712
 20
300.000004
 30
0.0
  0
LWPOLYLINE
  5
10f
100
AcDbEntity
  8
Layer_1
 62
7
100
AcDbPolyline
 90
46
 70
1
 10
191.000000
 20
231.714284
 30
0.0
 10
202.285712
 20
223.142860
 30
0.0
 10
210.857144
 20
205.000004
 30
0.0
 10
221.285712
 20
196.428572
 30
0.0
 10
229.428568
 20
193.000004
 30
0.0
 10
234.142856
 20
188.285716
 30
0.0
 10
237.142856
 20
195.571428
 30
0.0
 10
238.285712
 20
209.285716
 30
0.0
 10
230.000000
 20
214.000004
 30
0.0
 10
227.857144
 20
215.428572
 30
0.0
 10
233.714288
 20
229.571428
 30
0.0
 10
242.857144
 20
230.000004
 30
0.0
 10
245.285712
 20
231.571428
 30
0.0
 10
250.000000
 20
231.000004
 30
0.0
 10
252.428568
 20
227.142860
 30
0.0
 10
256.285712
 20
227.428572
 30
0.0
 10
262.142856
 20
234.142860
 30
0.0
 10
267.000000
 20
232.285716
 30
0.0
 10
268.428568
 20
227.571428
 30
0.0
 10
264.142856
 20
224.000004
 30
0.0
 10
264.142856
 20
221.428572
 30
0.0
 10
272.285712
 20
219.857140
 30
0.0
 10
278.428576
 20
220.571428
 30
0.0
 10
288.857144
 20
214.142860
 30
0.0
 10
292.142856
 20
225.285716
 30
0.0
 10
288.428576
 20
236.714284
 30
0.0
 10
287.571432
 20
247.857140
 30
0.0
 10
285.285712
 20
249.000004
 30
0.0
 10
276.000000
 20
244.000004
 30
0.0
 10
272.285712
 20
243.857140
 30
0.0
 10
269.428568
 20
248.714284
 30
0.0
 10
265.857144
 20
263.571428
 30
0.0
 10
255.571432
 20
267.428572
 30
0.0
 10
256.428568
 20
263.428572
 30
0.0
 10
258.571432
 20
258.571428
 30
0.0
 10
254.571432
 20
255.285716
 30
0.0
 10
246.285712
 20
253.285716
 30
0.0
 10
236.714288
 20
259.714284
 30
0.0
 10
219.571432
 20
256.571428
 30
0.0
 10
213.428568
 20
251.428572
 30
0.0
 10
214.714288
 20
244.285716
 30
0.0
 10
211.000000
 20
242.857140
 30
0.0
 10
206.571432
 20
246.000004
 30
0.0
 10
198.714288
 20
246.142860
 30
0.0
 10
196.714288
 20
239.571428
 30
0.0
 10
191.000000
 20
231.714284
 30
0.0
  0
LWPOLYLINE
  5
110
100
AcDbEntity
  8
Layer_1
 62
7
100
AcDbPolyline
 90
31
 70
1
 10
234.000000
 20
229.285716
 30
0.0
 10
227.857144
 20
215.714284
 30
0.0
 10
238.571432
 20
208.714284
 30
0.0
 10
236.857144
 20
196.000004
 30
0.0
 10
234.285712
 20
188.714284
 30
0.0
 10
235.857144
 20
181.857140
 30
0.0
 10
244.285712
 20
184.428572
 30
0.0
 10
249.714288
 20
190.000004
 30
0.0
 10
249.285712
 20
195.285716
 30
0.0
 10
244.142856
 20
205.142860
 30
0.0
 10
247.857144
 20
210.428572
 30
0.0
 10
253.714288
 20
205.428572
 30
0.0
 10
261.000000
 20
207.285716
 30
0.0
 10
266.714288
 20
202.428572
 30
0.0
 10
271.142856
 20
204.571428
 30
0.0
 10
283.285712
 20
200.142860
 30
0.0
 10
288.857144
 20
207.285716
 30
0.0
 10
288.428576
 20
214.428572
 30
0.0
 10
278.571432
 20
221.000004
 30
0.0
 10
272.571432
 20
220.000004
 30
0.0
 10
264.428568
 20
221.571428
 30
0.0
 10
264.285712
 20
224.428572
 30
0.0
 10
268.000000
 20
227.571428
 30
0.0
 10
267.000000
 20
232.285716
 30
0.0
 10
262.428568
 20
234.142860
 30
0.0
 10
256.714288
 20
227.428572
 30
0.0
 10
252.714288
 20
227.571428
 30
0.0
 10
250.285712
 20
231.000004
 30
0.0
 10
245.857144
 20
231.714284
 30
0.0
 10
243.285712
 20
230.285716
 30
0.0
 10
234.000000
 20
229.285716
 30
0.0
  0
LWPOLYLINE
  5
111
100
AcDbEntity
  8
Layer_1
 62
7
100
AcDbPolyline
 90
23
 70
1
 10
288.000000
 20
247.857140
 30
0.0
 10
291.714288
 20
253.428572
 30
0.0
 10
289.142856
 20
258.142860
 30
0.0
 10
286.000000
 20
276.571428
 30
0.0
 10
291.000000
 20
291.428572
 30
0.0
 10
288.571432
 20
302.000004
 30
0.0
 10
292.714288
 20
306.000004
 30
0.0
 10
281.428576
 20
310.714284
 30
0.0
 10
273.857144
 20
307.142860
 30
0.0
 10
267.000000
 20
309.142860
 30
0.0
 10
265.142856
 20
303.000004
 30
0.0
 10
256.714288
 20
289.571428
 30
0.0
 10
259.714288
 20
288.142860
 30
0.0
 10
258.285712
 20
276.000004
 30
0.0
 10
260.571432
 20
272.857140
 30
0.0
 10
255.285712
 20
269.714284
 30
0.0
 10
255.428568
 20
267.285716
 30
0.0
 10
265.714288
 20
262.857140
 30
0.0
 10
269.428568
 20
248.428572
 30
0.0
 10
272.285712
 20
244.428572
 30
0.0
 10
276.571432
 20
244.428572
 30
0.0
 10
285.285712
 20
249.000004
 30
0.0
 10
288.000000
 20
247.857140
 30
0.0
  0
LWPOLYLINE
  5
112
100
AcDbEntity
  8
Layer_1
 62
7
100
AcDbPolyline
 90
47
 70
1
 10
292.714288
 20
305.571428
 30
0.0
 10
281.428576
 20
310.285716
 30
0.0
 10
273.857144
 20
307.285716
 30
0.0
 10
266.857144
 20
309.142860
 30
0.0
 10
265.285712
 20
302.714284
 30
0.0
 10
257.000000
 20
289.714284
 30
0.0
 10
241.857144
 20
290.142860
 30
0.0
 10
232.000000
 20
291.285716
 30
0.0
 10
229.000000
 20
293.000004
 30
0.0
 10
229.000000
 20
298.571428
 30
0.0
 10
228.285712
 20
301.285716
 30
0.0
 10
230.142856
 20
308.285716
 30
0.0
 10
230.428568
 20
322.142860
 30
0.0
 10
231.857144
 20
325.571428
 30
0.0
 10
241.857144
 20
325.714284
 30
0.0
 10
252.428568
 20
335.857140
 30
0.0
 10
253.000000
 20
340.000004
 30
0.0
 10
244.142856
 20
347.571428
 30
0.0
 10
240.714288
 20
348.285716
 30
0.0
 10
243.428568
 20
352.714284
 30
0.0
 10
243.000000
 20
356.857140
 30
0.0
 10
251.857144
 20
357.285716
 30
0.0
 10
263.285712
 20
377.285716
 30
0.0
 10
258.571432
 20
384.285716
 30
0.0
 10
260.285712
 20
388.571428
 30
0.0
 10
265.000000
 20
388.857140
 30
0.0
 10
267.857144
 20
392.571428
 30
0.0
 10
271.428576
 20
392.571428
 30
0.0
 10
272.857144
 20
398.000004
 30
0.0
 10
276.000000
 20
398.571428
 30
0.0
 10
282.285712
 20
393.000004
 30
0.0
 10
282.571432
 20
390.714284
 30
0.0
 10
286.142856
 20
390.142860
 30
0.0
 10
296.000000
 20
382.714284
 30
0.0
 10
306.428576
 20
374.857140
 30
0.0
 10
321.142856
 20
369.571428
 30
0.0
 10
329.571432
 20
369.000004
 30
0.0
 10
337.000000
 20
372.857140
 30
0.0
 10
345.714288
 20
372.857140
 30
0.0
 10
346.285712
 20
368.285716
 30
0.0
 10
340.142856
 20
361.857140
 30
0.0
 10
340.142856
 20
359.000004
 30
0.0
 10
348.714288
 20
345.428572
 30
0.0
 10
340.000000
 20
336.857140
 30
0.0
 10
325.857144
 20
332.285716
 30
0.0
 10
314.285712
 20
319.142860
 30
0.0
 10
292.714288
 20
305.571428
 30
0.0
  0
LWPOLYLINE
  5
113
100
AcDbEntity
  8
Layer_1
 62
7
100
AcDbPolyline
 90
28
 70
1
 10
232.285712
 20
325.428572
 30
0.0
 10
241.285712
 20
325.857140
 30
0.0
 10
252.142856
 20
335.428572
 30
0.0
 10
253.000000
 20
340.142860
 30
0.0
 10
244.428568
 20
347.428572
 30
0.0
 10
240.428568
 20
348.142860
 30
0.0
 10
234.000000
 20
339.285716
 30
0.0
 10
229.714288
 20
340.142860
 30
0.0
 10
225.857144
 20
344.714284
 30
0.0
 10
215.571432
 20
347.714284
 30
0.0
 10
206.857144
 20
342.428572
 30
0.0
 10
202.000000
 20
341.285716
 30
0.0
 10
195.857144
 20
331.571428
 30
0.0
 10
192.285712
 20
326.714284
 30
0.0
 10
196.285712
 20
319.571428
 30
0.0
 10
199.000000
 20
320.142860
 30
0.0
 10
201.571432
 20
317.571428
 30
0.0
 10
201.142856
 20
315.571428
 30
0.0
 10
196.428568
 20
310.857140
 30
0.0
 10
195.428568
 20
299.857140
 30
0.0
 10
211.142856
 20
289.285716
 30
0.0
 10
216.000000
 20
291.000004
 30
0.0
 10
226.714288
 20
300.142860
 30
0.0
 10
229.285712
 20
299.000004
 30
0.0
 10
228.285712
 20
302.000004
 30
0.0
 10
230.285712
 20
309.000004
 30
0.0
 10
230.714288
 20
322.285716
 30
0.0
 10
232.285712
 20
325.428572
 30
0.0
  0
LWPOLYLINE
  5
114
100
AcDbEntity
  8
Layer_1
 62
7
100
AcDbPolyline
 90
41
 70
1
 10
258.571432
 20
384.285716
 30
0.0
 10
263.428568
 20
377.428572
 30
0.0
 10
251.714288
 20
356.571428
 30
0.0
 10
243.000000
 20
356.428572
 30
0.0
 10
243.285712
 20
353.142860
 30
0.0
 10
234.285712
 20
339.142860
 30
0.0
 10
229.857144
 20
339.857140
 30
0.0
 10
226.285712
 20
344.142860
 30
0.0
 10
215.714288
 20
347.714284
 30
0.0
 10
207.285712
 20
342.571428
 30
0.0
 10
201.714288
 20
341.142860
 30
0.0
 10
195.857144
 20
331.857140
 30
0.0
 10
188.714288
 20
332.571428
 30
0.0
 10
187.142856
 20
341.000004
 30
0.0
 10
188.857144
 20
346.571428
 30
0.0
 10
187.142856
 20
352.000004
 30
0.0
 10
176.000000
 20
362.857140
 30
0.0
 10
176.000000
 20
373.714284
 30
0.0
 10
169.714288
 20
379.571428
 30
0.0
 10
160.142856
 20
382.000004
 30
0.0
 10
161.428568
 20
397.285716
 30
0.0
 10
156.428568
 20
415.142860
 30
0.0
 10
161.000000
 20
417.571428
 30
0.0
 10
165.857144
 20
420.000004
 30
0.0
 10
172.857144
 20
427.000004
 30
0.0
 10
175.000000
 20
423.000004
 30
0.0
 10
182.285712
 20
421.428572
 30
0.0
 10
190.428568
 20
422.571428
 30
0.0
 10
193.000000
 20
424.142860
 30
0.0
 10
196.571432
 20
424.000004
 30
0.0
 10
197.000000
 20
418.571428
 30
0.0
 10
201.571432
 20
413.142860
 30
0.0
 10
210.285712
 20
412.142860
 30
0.0
 10
217.571432
 20
415.285716
 30
0.0
 10
220.000000
 20
415.285716
 30
0.0
 10
223.428568
 20
411.714284
 30
0.0
 10
229.000000
 20
415.428572
 30
0.0
 10
241.714288
 20
412.285716
 30
0.0
 10
247.285712
 20
385.428572
 30
0.0
 10
255.142856
 20
386.714284
 30
0.0
 10
258.571432
 20
384.285716
 30
0.0
  0
LWPOLYLINE
  5
115
100
AcDbEntity
  8
Layer_1
 62
7
100
AcDbPolyline
 90
48
 70
1
 10
247.428568
 20
385.714284
 30
0.0
 10
241.857144
 20
412.428572
 30
0.0
 10
240.428568
 20
413.000004
 30
0.0
 10
250.571432
 20
428.142860
 30
0.0
 10
256.714288
 20
431.428572
 30
0.0
 10
267.142856
 20
431.428572
 30
0.0
 10
276.714288
 20
438.428572
 30
0.0
 10
290.428576
 20
443.857148
 30
0.0
 10
296.428576
 20
446.285716
 30
0.0
 10
321.857144
 20
462.428572
 30
0.0
 10
323.142856
 20
470.857148
 30
0.0
 10
333.142856
 20
472.428572
 30
0.0
 10
336.857144
 20
485.428572
 30
0.0
 10
340.142856
 20
491.428572
 30
0.0
 10
343.571432
 20
491.428572
 30
0.0
 10
346.714288
 20
487.571428
 30
0.0
 10
364.142856
 20
488.142860
 30
0.0
 10
365.571432
 20
475.000004
 30
0.0
 10
368.000000
 20
469.000004
 30
0.0
 10
365.714288
 20
463.285716
 30
0.0
 10
370.714288
 20
454.285716
 30
0.0
 10
367.571432
 20
442.857148
 30
0.0
 10
368.000000
 20
439.142860
 30
0.0
 10
375.857144
 20
445.000004
 30
0.0
 10
381.285712
 20
443.428572
 30
0.0
 10
385.857144
 20
435.857140
 30
0.0
 10
377.714288
 20
434.000004
 30
0.0
 10
372.428576
 20
428.000004
 30
0.0
 10
364.142856
 20
412.285716
 30
0.0
 10
361.142856
 20
404.285716
 30
0.0
 10
348.142856
 20
391.285716
 30
0.0
 10
345.714288
 20
372.714284
 30
0.0
 10
337.142856
 20
372.571428
 30
0.0
 10
330.285712
 20
369.142860
 30
0.0
 10
321.857144
 20
369.428572
 30
0.0
 10
306.142856
 20
374.571428
 30
0.0
 10
286.142856
 20
390.000004
 30
0.0
 10
282.714288
 20
390.714284
 30
0.0
 10
282.000000
 20
393.428572
 30
0.0
 10
276.285712
 20
398.571428
 30
0.0
 10
272.571432
 20
398.285716
 30
0.0
 10
271.571432
 20
392.428572
 30
0.0
 10
267.857144
 20
392.428572
 30
0.0
 10
264.857144
 20
389.142860
 30
0.0
 10
260.714288
 20
388.428572
 30
0.0
 10
258.714288
 20
384.428572
 30
0.0
 10
255.428568
 20
386.714284
 30
0.0
 10
247.428568
 20
385.714284
 30
0.0
  0
LWPOLYLINE
  5
116
100
AcDbEntity
  8
Layer_1
 62
7
100
AcDbPolyline
 90
44
 70
1
 10
322.857144
 20
471.000004
 30
0.0
 10
320.571432
 20
468.857148
 30
0.0
 10
306.857144
 20
469.428572
 30
0.0
 10
295.142856
 20
466.857148
 30
0.0
 10
291.000000
 20
470.142860
 30
0.0
 10
289.142856
 20
477.285716
 30
0.0
 10
272.571432
 20
493.714284
 30
0.0
 10
256.428568
 20
506.428572
 30
0.0
 10
246.571432
 20
492.142860
 30
0.0
 10
240.285712
 20
486.000004
 30
0.0
 10
239.714288
 20
480.000004
 30
0.0
 10
235.142856
 20
475.285716
 30
0.0
 10
237.285712
 20
469.714284
 30
0.0
 10
231.714288
 20
464.000004
 30
0.0
 10
206.000000
 20
467.714284
 30
0.0
 10
195.857144
 20
460.857148
 30
0.0
 10
189.285712
 20
463.571428
 30
0.0
 10
184.285712
 20
463.142860
 30
0.0
 10
175.428568
 20
458.142860
 30
0.0
 10
172.000000
 20
454.857148
 30
0.0
 10
179.857144
 20
447.857148
 30
0.0
 10
182.857144
 20
442.571428
 30
0.0
 10
174.428568
 20
431.571428
 30
0.0
 10
173.142856
 20
427.142860
 30
0.0
 10
175.285712
 20
422.857140
 30
0.0
 10
181.571432
 20
421.000004
 30
0.0
 10
190.285712
 20
422.000004
 30
0.0
 10
193.000000
 20
424.142860
 30
0.0
 10
197.285712
 20
424.000004
 30
0.0
 10
197.857144
 20
418.142860
 30
0.0
 10
201.285712
 20
413.714284
 30
0.0
 10
209.428568
 20
412.000004
 30
0.0
 10
216.000000
 20
414.714284
 30
0.0
 10
220.142856
 20
415.142860
 30
0.0
 10
223.571432
 20
411.857140
 30
0.0
 10
229.285712
 20
415.714284
 30
0.0
 10
240.857144
 20
412.428572
 30
0.0
 10
250.571432
 20
427.857140
 30
0.0
 10
256.571432
 20
431.285716
 30
0.0
 10
267.428568
 20
431.142860
 30
0.0
 10
277.000000
 20
438.571428
 30
0.0
 10
296.571432
 20
446.000004
 30
0.0
 10
322.142856
 20
462.428572
 30
0.0
 10
322.857144
 20
471.000004
 30
0.0
  0
LWPOLYLINE
  5
117
100
AcDbEntity
  8
Layer_1
 62
7
100
AcDbPolyline
 90
13
 70
1
 10
135.428568
 20
442.571428
 30
0.0
 10
138.142856
 20
431.428572
 30
0.0
 10
145.142856
 20
424.000004
 30
0.0
 10
155.142856
 20
419.000004
 30
0.0
 10
156.857144
 20
415.000004
 30
0.0
 10
165.714288
 20
419.571428
 30
0.0
 10
173.571432
 20
427.000004
 30
0.0
 10
174.571432
 20
432.571428
 30
0.0
 10
182.714288
 20
442.285716
 30
0.0
 10
179.857144
 20
448.714284
 30
0.0
 10
171.857144
 20
455.142860
 30
0.0
 10
158.428568
 20
443.571428
 30
0.0
 10
135.428568
 20
442.571428
 30
0.0
  0
LWPOLYLINE
  5
118
100
AcDbEntity
  8
Layer_1
 62
7
100
AcDbPolyline
 90
40
 70
1
 10
196.142856
 20
460.714284
 30
0.0
 10
206.857144
 20
467.857148
 30
0.0
 10
213.000000
 20
479.000004
 30
0.0
 10
210.714288
 20
485.000004
 30
0.0
 10
212.428568
 20
491.142860
 30
0.0
 10
211.285712
 20
495.714284
 30
0.0
 10
215.857144
 20
505.571428
 30
0.0
 10
217.428568
 20
516.857148
 30
0.0
 10
211.000000
 20
527.142860
 30
0.0
 10
211.000000
 20
531.000004
 30
0.0
 10
217.571432
 20
541.857148
 30
0.0
 10
218.000000
 20
553.142860
 30
0.0
 10
214.571432
 20
557.857148
 30
0.0
 10
215.000000
 20
566.000004
 30
0.0
 10
213.000000
 20
570.000004
 30
0.0
 10
212.857144
 20
580.142860
 30
0.0
 10
215.714288
 20
587.571428
 30
0.0
 10
215.714288
 20
606.142860
 30
0.0
 10
192.428568
 20
606.142860
 30
0.0
 10
184.714288
 20
598.857148
 30
0.0
 10
175.142856
 20
585.285716
 30
0.0
 10
173.000000
 20
578.142860
 30
0.0
 10
182.428568
 20
570.428572
 30
0.0
 10
181.714288
 20
566.857148
 30
0.0
 10
177.428568
 20
564.571428
 30
0.0
 10
178.142856
 20
547.857148
 30
0.0
 10
176.000000
 20
541.142860
 30
0.0
 10
179.142856
 20
536.714284
 30
0.0
 10
178.000000
 20
526.571428
 30
0.0
 10
175.285712
 20
522.000004
 30
0.0
 10
176.285712
 20
519.285716
 30
0.0
 10
182.857144
 20
517.142860
 30
0.0
 10
182.142856
 20
513.285716
 30
0.0
 10
178.000000
 20
508.571428
 30
0.0
 10
173.714288
 20
494.000004
 30
0.0
 10
178.428568
 20
481.428572
 30
0.0
 10
178.857144
 20
468.000004
 30
0.0
 10
184.857144
 20
463.000004
 30
0.0
 10
189.857144
 20
463.428572
 30
0.0
 10
196.142856
 20
460.714284
 30
0.0
  0
LWPOLYLINE
  5
119
100
AcDbEntity
  8
Layer_1
 62
7
100
AcDbPolyline
 90
33
 70
1
 10
257.857144
 20
523.142860
 30
0.0
 10
256.428568
 20
506.714284
 30
0.0
 10
272.000000
 20
494.142860
 30
0.0
 10
289.428576
 20
477.000004
 30
0.0
 10
291.000000
 20
469.714284
 30
0.0
 10
295.285712
 20
466.571428
 30
0.0
 10
306.857144
 20
469.142860
 30
0.0
 10
320.571432
 20
468.571428
 30
0.0
 10
323.428576
 20
470.857148
 30
0.0
 10
333.142856
 20
472.285716
 30
0.0
 10
337.285712
 20
486.285716
 30
0.0
 10
339.714288
 20
491.428572
 30
0.0
 10
344.142856
 20
491.285716
 30
0.0
 10
346.714288
 20
487.857148
 30
0.0
 10
350.142856
 20
488.000004
 30
0.0
 10
348.857144
 20
499.428572
 30
0.0
 10
361.142856
 20
521.000004
 30
0.0
 10
349.571432
 20
517.714284
 30
0.0
 10
343.285712
 20
517.714284
 30
0.0
 10
336.142856
 20
514.142860
 30
0.0
 10
321.000000
 20
515.714284
 30
0.0
 10
316.571432
 20
509.714284
 30
0.0
 10
311.857144
 20
510.285716
 30
0.0
 10
314.571432
 20
524.428572
 30
0.0
 10
296.571432
 20
528.428572
 30
0.0
 10
289.571432
 20
517.000004
 30
0.0
 10
285.428576
 20
515.714284
 30
0.0
 10
279.000000
 20
519.285716
 30
0.0
 10
276.714288
 20
526.571428
 30
0.0
 10
283.142856
 20
530.285716
 30
0.0
 10
285.000000
 20
535.857148
 30
0.0
 10
277.285712
 20
535.571428
 30
0.0
 10
257.857144
 20
523.142860
 30
0.0
  0
LWPOLYLINE
  5
11a
100
AcDbEntity
  8
Layer_1
 62
7
100
AcDbPolyline
 90
33
 70
1
 10
231.571432
 20
464.285716
 30
0.0
 10
207.285712
 20
468.285716
 30
0.0
 10
213.142856
 20
479.285716
 30
0.0
 10
210.857144
 20
484.714284
 30
0.0
 10
212.714288
 20
491.428572
 30
0.0
 10
211.428568
 20
495.857148
 30
0.0
 10
216.142856
 20
505.428572
 30
0.0
 10
217.285712
 20
516.857148
 30
0.0
 10
211.571432
 20
526.571428
 30
0.0
 10
211.285712
 20
531.714284
 30
0.0
 10
217.714288
 20
542.428572
 30
0.0
 10
217.428568
 20
553.428572
 30
0.0
 10
215.000000
 20
557.857148
 30
0.0
 10
215.000000
 20
565.714284
 30
0.0
 10
213.142856
 20
569.571428
 30
0.0
 10
212.857144
 20
581.428572
 30
0.0
 10
216.142856
 20
587.857148
 30
0.0
 10
215.714288
 20
606.000004
 30
0.0
 10
227.000000
 20
597.285716
 30
0.0
 10
234.000000
 20
597.571428
 30
0.0
 10
247.714288
 20
589.857148
 30
0.0
 10
262.000000
 20
572.714284
 30
0.0
 10
257.714288
 20
552.142860
 30
0.0
 10
260.000000
 20
546.857148
 30
0.0
 10
263.571432
 20
543.285716
 30
0.0
 10
258.000000
 20
522.714284
 30
0.0
 10
256.571432
 20
506.000004
 30
0.0
 10
245.428568
 20
490.571428
 30
0.0
 10
240.285712
 20
486.000004
 30
0.0
 10
240.000000
 20
479.714284
 30
0.0
 10
235.142856
 20
476.000004
 30
0.0
 10
237.571432
 20
469.428572
 30
0.0
 10
231.571432
 20
464.285716
 30
0.0
  0
LWPOLYLINE
  5
11b
100
AcDbEntity
  8
Layer_1
 62
7
100
AcDbPolyline
 90
37
 70
1
 10
340.320392
 20
361.735628
 30
0.0
 10
340.320392
 20
358.301108
 30
0.0
 10
348.805672
 20
345.573188
 30
0.0
 10
373.958472
 20
331.128004
 30
0.0
 10
403.454928
 20
338.906180
 30
0.0
 10
426.183360
 20
348.805676
 30
0.0
 10
438.103160
 20
350.724964
 30
0.0
 10
448.406712
 20
363.351868
 30
0.0
 10
464.165096
 20
363.351868
 30
0.0
 10
471.539208
 20
369.513804
 30
0.0
 10
467.296568
 20
375.372684
 30
0.0
 10
462.952912
 20
382.746804
 30
0.0
 10
452.649360
 20
391.535124
 30
0.0
 10
451.538192
 20
395.777772
 30
0.0
 10
444.669152
 20
396.181828
 30
0.0
 10
439.113312
 20
402.343756
 30
0.0
 10
438.911280
 20
410.020916
 30
0.0
 10
436.486912
 20
412.849348
 30
0.0
 10
435.779808
 20
418.607212
 30
0.0
 10
426.284376
 20
422.142748
 30
0.0
 10
423.961024
 20
425.678284
 30
0.0
 10
423.556960
 20
432.547324
 30
0.0
 10
418.506200
 20
439.113316
 30
0.0
 10
411.536144
 20
443.052908
 30
0.0
 10
409.212800
 20
443.052908
 30
0.0
 10
409.111784
 20
436.991996
 30
0.0
 10
402.545792
 20
433.052396
 30
0.0
 10
395.777768
 20
431.941228
 30
0.0
 10
385.676240
 20
435.779812
 30
0.0
 10
377.999080
 20
433.860516
 30
0.0
 10
372.746288
 20
428.809756
 30
0.0
 10
363.957960
 20
412.142236
 30
0.0
 10
361.331568
 20
404.465084
 30
0.0
 10
348.300600
 20
391.535124
 30
0.0
 10
345.977248
 20
372.746292
 30
0.0
 10
346.482320
 20
368.604668
 30
0.0
 10
340.320392
 20
361.735628
 30
0.0
  0
LWPOLYLINE
  5
11c
100
AcDbEntity
  8
Layer_1
 62
7
100
AcDbPolyline
 90
39
 70
1
 10
451.942248
 20
396.282844
 30
0.0
 10
456.083872
 20
401.535636
 30
0.0
 10
459.619408
 20
402.343756
 30
0.0
 10
461.336672
 20
407.192492
 30
0.0
 10
466.892504
 20
411.435132
 30
0.0
 10
466.589464
 20
413.758484
 30
0.0
 10
461.033624
 20
418.910260
 30
0.0
 10
459.417376
 20
421.233612
 30
0.0
 10
459.720424
 20
425.375236
 30
0.0
 10
462.245808
 20
430.122956
 30
0.0
 10
460.225504
 20
436.385900
 30
0.0
 10
459.720424
 20
441.739708
 30
0.0
 10
465.781336
 20
442.446812
 30
0.0
 10
472.751392
 20
438.305188
 30
0.0
 10
476.893016
 20
439.214324
 30
0.0
 10
485.580328
 20
442.143772
 30
0.0
 10
491.237184
 20
445.174228
 30
0.0
 10
491.035152
 20
450.326004
 30
0.0
 10
485.883376
 20
450.730068
 30
0.0
 10
475.579816
 20
463.356972
 30
0.0
 10
460.023472
 20
464.569156
 30
0.0
 10
447.396560
 20
456.790980
 30
0.0
 10
442.345800
 20
457.094028
 30
0.0
 10
433.658488
 20
460.427532
 30
0.0
 10
428.102648
 20
459.821436
 30
0.0
 10
414.566608
 20
454.669660
 30
0.0
 10
408.404672
 20
449.921948
 30
0.0
 10
408.808736
 20
443.254940
 30
0.0
 10
411.940208
 20
443.052908
 30
0.0
 10
418.910264
 20
439.113316
 30
0.0
 10
423.860008
 20
432.446308
 30
0.0
 10
423.961024
 20
425.476252
 30
0.0
 10
426.789448
 20
421.940716
 30
0.0
 10
436.082856
 20
418.708228
 30
0.0
 10
436.789960
 20
412.445284
 30
0.0
 10
439.416360
 20
409.919900
 30
0.0
 10
439.416360
 20
402.040716
 30
0.0
 10
444.972200
 20
396.282844
 30
0.0
 10
451.942248
 20
396.282844
 30
0.0
  0
LWPOLYLINE
  5
11d
100
AcDbEntity
  8
Layer_1
 62
7
100
AcDbPolyline
 90
49
 70
1
 10
485.075256
 20
441.941740
 30
0.0
 10
480.933624
 20
436.486916
 30
0.0
 10
483.863072
 20
433.759500
 30
0.0
 10
505.783384
 20
419.112292
 30
0.0
 10
506.793536
 20
415.677772
 30
0.0
 10
517.804192
 20
413.758484
 30
0.0
 10
535.279832
 20
390.322948
 30
0.0
 10
543.159024
 20
377.696036
 30
0.0
 10
541.542784
 20
370.119892
 30
0.0
 10
528.511816
 20
353.048316
 30
0.0
 10
533.562576
 20
344.361004
 30
0.0
 10
530.229072
 20
336.481812
 30
0.0
 10
525.178312
 20
336.481812
 30
0.0
 10
519.925512
 20
341.330548
 30
0.0
 10
515.985920
 20
341.330548
 30
0.0
 10
508.611808
 20
333.552372
 30
0.0
 10
503.763072
 20
325.067092
 30
0.0
 10
502.752920
 20
315.369628
 30
0.0
 10
496.590992
 20
307.389420
 30
0.0
 10
488.711800
 20
307.389420
 30
0.0
 10
476.589968
 20
317.187900
 30
0.0
 10
469.720936
 20
317.996020
 30
0.0
 10
466.084384
 20
328.804652
 30
0.0
 10
462.346824
 20
331.633084
 30
0.0
 10
454.871688
 20
332.037140
 30
0.0
 10
445.982352
 20
339.108212
 30
0.0
 10
444.063056
 20
341.128516
 30
0.0
 10
444.063056
 20
344.462020
 30
0.0
 10
438.103160
 20
350.522932
 30
0.0
 10
448.507728
 20
363.452884
 30
0.0
 10
464.569160
 20
363.654916
 30
0.0
 10
471.741240
 20
369.816844
 30
0.0
 10
463.154944
 20
382.544772
 30
0.0
 10
452.952400
 20
391.535124
 30
0.0
 10
451.639200
 20
396.080812
 30
0.0
 10
456.790984
 20
401.838684
 30
0.0
 10
460.023472
 20
402.747820
 30
0.0
 10
461.437680
 20
407.798580
 30
0.0
 10
467.094536
 20
411.233100
 30
0.0
 10
466.589464
 20
414.061532
 30
0.0
 10
462.043776
 20
417.900108
 30
0.0
 10
459.720424
 20
421.435644
 30
0.0
 10
459.720424
 20
425.880316
 30
0.0
 10
462.447832
 20
430.426004
 30
0.0
 10
460.427528
 20
436.789964
 30
0.0
 10
459.922456
 20
441.638692
 30
0.0
 10
466.084384
 20
442.244788
 30
0.0
 10
473.155456
 20
438.204172
 30
0.0
 10
485.075256
 20
441.941740
 30
0.0
  0
LWPOLYLINE
  5
11e
100
AcDbEntity
  8
Layer_1
 62
7
100
AcDbPolyline
 90
14
 70
1
 10
496.793024
 20
307.389420
 30
0.0
 10
505.076272
 20
306.076220
 30
0.0
 10
522.652928
 20
285.368092
 30
0.0
 10
527.905720
 20
289.610732
 30
0.0
 10
545.583392
 20
313.753380
 30
0.0
 10
544.472224
 20
322.743740
 30
0.0
 10
530.229072
 20
336.380796
 30
0.0
 10
525.077296
 20
336.784860
 30
0.0
 10
519.925512
 20
341.532580
 30
0.0
 10
515.884904
 20
341.229532
 30
0.0
 10
508.409776
 20
333.552372
 30
0.0
 10
503.965104
 20
325.471148
 30
0.0
 10
502.550896
 20
315.268612
 30
0.0
 10
496.793024
 20
307.389420
 30
0.0
  0
ENDSEC
  0
SECTION
  2
OBJECTS
  0
DICTIONARY
  5
C
330
0
100
AcDbDictionary
  3
ACAD_GROUP
350
D
  3
ACAD_MLINESTYLE
350
17
  0
DICTIONARY
  5
D
330
C
100
AcDbDictionary
  0
DICTIONARY
  5
1A
330
C
100
AcDbDictionary
  0
DICTIONARY
  5
17
330
C
100
AcDbDictionary
  3
STANDARD
350
18
  0
DICTIONARY
  5
19
330
C
100
AcDbDictionary
  0
ENDSEC
  0
EOF
