  0
SECTION
  2
HEADER
  9
$ACADVER
  1
AC1014
  9
$HANDSEED
  5
FFFF
  9
$MEASUREMENT
 70
     1
  0
ENDSEC
  0
SECTION
  2
TABLES
  0
TABLE
  2
VPORT
  5
8
330
0
100
AcDbSymbolTable
 70
     4
  0
VPORT
  5
2E
330
8
100
AcDbSymbolTableRecord
100
AcDbViewportTableRecord
  2
*ACTIVE
 70
     0
 10
0.0
 20
0.0
 11
1.0
 21
1.0
 12
210.0
 22
148.5
 13
0.0
 23
0.0
 14
10.0
 24
10.0
 15
10.0
 25
10.0
 16
0.0
 26
0.0
 36
1.0
 17
0.0
 27
0.0
 37
0.0
 40
341.0
 41
1.24
 42
50.0
 43
0.0
 44
0.0
 50
0.0
 51
0.0
 71
     0
 72
   100
 73
     1
 74
     3
 75
     0
 76
     0
 77
     0
 78
     0
  0
ENDTAB
  0
TABLE
  2
LTYPE
  5
5
330
0
100
AcDbSymbolTable
 70
     1
  0
LTYPE
  5
14
330
5
100
AcDbSymbolTableRecord
100
AcDbLinetypeTableRecord
  2
BYBLOCK
 70
     0
  3

 72
    65
 73
     0
 40
0.0
  0
LTYPE
  5
15
330
5
100
AcDbSymbolTableRecord
100
AcDbLinetypeTableRecord
  2
BYLAYER
 70
     0
  3

 72
    65
 73
     0
 40
0.0
  0
LTYPE
  5
16
330
5
100
AcDbSymbolTableRecord
100
AcDbLinetypeTableRecord
  2
CONTINUOUS
 70
     0
  3
Solid line
 72
    65
 73
     0
 40
0.0
  0
ENDTAB
  0
TABLE
  2
LAYER
  5
2
100
AcDbSymbolTable
 70
2
  0
LAYER
  5
50
100
AcDbSymbolTableRecord
100
AcDbLayerTableRecord
  2
0
 70
0
  6
CONTINUOUS
  0
LAYER
  5
51
100
AcDbSymbolTableRecord
100
AcDbLayerTableRecord
  2
Layer_1
 70
0
  6
CONTINUOUS
  0
ENDTAB
  0
TABLE
  2
STYLE
  5
3
330
0
100
AcDbSymbolTable
 70
     1
  0
STYLE
  5
11
330
3
100
AcDbSymbolTableRecord
100
AcDbTextStyleTableRecord
  2
STANDARD
 70
     0
 40
0.0
 41
1.0
 50
0.0
 71
     0
 42
2.5
  3
txt
  4

  0
ENDTAB
  0
TABLE
  2
VIEW
  5
6
330
0
100
AcDbSymbolTable
 70
     0
  0
ENDTAB
  0
TABLE
  2
UCS
  5
7
330
0
100
AcDbSymbolTable
 70
     0
  0
ENDTAB
  0
TABLE
  2
APPID
  5
9
330
0
100
AcDbSymbolTable
 70
     2
  0
APPID
  5
12
330
9
100
AcDbSymbolTableRecord
100
AcDbRegAppTableRecord
  2
ACAD
 70
     0
  0
ENDTAB
  0
TABLE
  2
DIMSTYLE
  5
A
330
0
100
AcDbSymbolTable
 70
     1
  0
DIMSTYLE
105
27
330
A
100
AcDbSymbolTableRecord
100
AcDbDimStyleTableRecord
  2
ISO-25
 70
     0
  3

  4

  5

  6

  7

 40
1.0
 41
2.5
 42
0.625
 43
3.75
 44
1.25
 45
0.0
 46
0.0
 47
0.0
 48
0.0
140
2.5
141
2.5
142
0.0
143
0.03937007874016
144
1.0
145
0.0
146
1.0
147
0.625
 71
     0
 72
     0
 73
     0
 74
     0
 75
     0
 76
     0
 77
     1
 78
     8
170
     0
171
     3
172
     1
173
     0
174
     0
175
     0
176
     0
177
     0
178
     0
270
     2
271
     2
272
     2
273
     2
274
     3
340
11
275
     0
280
     0
281
     0
282
     0
283
     0
284
     8
285
     0
286
     0
287
     3
288
     0
  0
ENDTAB
  0
TABLE
  2
BLOCK_RECORD
  5
1
330
0
100
AcDbSymbolTable
 70
     1
  0
BLOCK_RECORD
  5
1F
330
1
100
AcDbSymbolTableRecord
100
AcDbBlockTableRecord
  2
*MODEL_SPACE
  0
BLOCK_RECORD
  5
1B
330
1
100
AcDbSymbolTableRecord
100
AcDbBlockTableRecord
  2
*PAPER_SPACE
  0
ENDTAB
  0
ENDSEC
  0
SECTION
  2
BLOCKS
  0
BLOCK
  5
20
330
1F
100
AcDbEntity
  8
0
100
AcDbBlockBegin
  2
*MODEL_SPACE
 70
     0
 10
0.0
 20
0.0
 30
0.0
  3
*MODEL_SPACE
  1

  0
ENDBLK
  5
21
330
1F
100
AcDbEntity
  8
0
100
AcDbBlockEnd
  0
BLOCK
  5
1C
330
1B
100
AcDbEntity
 67
     1
  8
0
100
AcDbBlockBegin
  2
*PAPER_SPACE
  1

  0
ENDBLK
  5
1D
330
1B
100
AcDbEntity
 67
     1
  8
0
100
AcDbBlockEnd
  0
ENDSEC
  0
SECTION
  2
ENTITIES
  0
LWPOLYLINE
  5
100
100
AcDbEntity
  8
Layer_1
 62
7
100
AcDbPolyline
 90
41
 70
1
 10
8.000000
 20
324.571428
 30
0.0
 10
5.714286
 20
343.428572
 30
0.0
 10
32.571429
 20
422.285716
 30
0.0
 10
41.142857
 20
423.428572
 30
0.0
 10
62.857143
 20
418.857140
 30
0.0
 10
91.428568
 20
406.857140
 30
0.0
 10
117.142856
 20
416.571428
 30
0.0
 10
124.000000
 20
404.571428
 30
0.0
 10
129.142856
 20
394.285716
 30
0.0
 10
162.857144
 20
393.714284
 30
0.0
 10
174.285712
 20
404.571428
 30
0.0
 10
189.142856
 20
406.285716
 30
0.0
 10
195.428568
 20
415.428572
 30
0.0
 10
224.571432
 20
434.857140
 30
0.0
 10
250.857144
 20
433.714284
 30
0.0
 10
257.714288
 20
436.571428
 30
0.0
 10
258.285712
 20
425.714284
 30
0.0
 10
249.142856
 20
419.428572
 30
0.0
 10
241.142856
 20
412.000004
 30
0.0
 10
243.428568
 20
398.285716
 30
0.0
 10
263.428568
 20
345.142860
 30
0.0
 10
260.000000
 20
332.571428
 30
0.0
 10
253.142856
 20
323.428572
 30
0.0
 10
253.142856
 20
311.428572
 30
0.0
 10
238.857144
 20
315.428572
 30
0.0
 10
226.857144
 20
315.428572
 30
0.0
 10
211.428568
 20
304.000004
 30
0.0
 10
200.000000
 20
300.571428
 30
0.0
 10
184.571432
 20
313.714284
 30
0.0
 10
166.285712
 20
320.571428
 30
0.0
 10
126.285712
 20
323.428572
 30
0.0
 10
118.857144
 20
322.285716
 30
0.0
 10
98.857144
 20
338.285716
 30
0.0
 10
87.428568
 20
348.000004
 30
0.0
 10
84.571432
 20
352.571428
 30
0.0
 10
76.000000
 20
352.000004
 30
0.0
 10
69.714286
 20
344.571428
 30
0.0
 10
54.285714
 20
338.285716
 30
0.0
 10
42.285714
 20
334.285716
 30
0.0
 10
30.857143
 20
334.285716
 30
0.0
 10
8.000000
 20
324.571428
 30
0.0
  0
LWPOLYLINE
  5
101
100
AcDbEntity
  8
Layer_1
 62
7
100
AcDbPolyline
 90
22
 70
1
 10
6.285714
 20
323.428572
 30
0.0
 10
15.428571
 20
315.428572
 30
0.0
 10
38.285714
 20
313.142860
 30
0.0
 10
46.857143
 20
306.857140
 30
0.0
 10
46.857143
 20
250.285716
 30
0.0
 10
106.857144
 20
216.000004
 30
0.0
 10
121.714288
 20
212.000004
 30
0.0
 10
157.142856
 20
237.714284
 30
0.0
 10
164.000000
 20
246.857140
 30
0.0
 10
157.714288
 20
254.857140
 30
0.0
 10
136.571432
 20
272.000004
 30
0.0
 10
134.285712
 20
284.571428
 30
0.0
 10
116.571432
 20
293.714284
 30
0.0
 10
116.571432
 20
306.285716
 30
0.0
 10
118.857144
 20
322.857140
 30
0.0
 10
89.142856
 20
345.142860
 30
0.0
 10
84.571432
 20
352.000004
 30
0.0
 10
76.571429
 20
352.571428
 30
0.0
 10
69.142858
 20
344.000004
 30
0.0
 10
41.714286
 20
333.714284
 30
0.0
 10
30.285714
 20
333.714284
 30
0.0
 10
6.285714
 20
323.428572
 30
0.0
  0
LWPOLYLINE
  5
102
100
AcDbEntity
  8
Layer_1
 62
7
100
AcDbPolyline
 90
22
 70
1
 10
46.000000
 20
250.571428
 30
0.0
 10
106.857144
 20
216.571428
 30
0.0
 10
122.285712
 20
211.142860
 30
0.0
 10
114.285712
 20
200.000004
 30
0.0
 10
114.285712
 20
157.142860
 30
0.0
 10
133.142856
 20
138.000004
 30
0.0
 10
133.714288
 20
130.000004
 30
0.0
 10
128.000000
 20
118.857140
 30
0.0
 10
118.285712
 20
111.428572
 30
0.0
 10
112.571432
 20
108.571428
 30
0.0
 10
106.285712
 20
101.428572
 30
0.0
 10
86.857144
 20
109.142860
 30
0.0
 10
59.714286
 20
106.571428
 30
0.0
 10
40.571429
 20
118.571428
 30
0.0
 10
28.571429
 20
161.428572
 30
0.0
 10
22.285714
 20
174.571428
 30
0.0
 10
13.142857
 20
180.857140
 30
0.0
 10
-2.571429
 20
181.142860
 30
0.0
 10
-4.571429
 20
207.714284
 30
0.0
 10
5.714286
 20
224.000004
 30
0.0
 10
26.857143
 20
230.000004
 30
0.0
 10
46.000000
 20
250.571428
 30
0.0
  0
LWPOLYLINE
  5
103
100
AcDbEntity
  8
Layer_1
 62
7
100
AcDbPolyline
 90
28
 70
1
 10
114.571432
 20
173.428572
 30
0.0
 10
128.285712
 20
168.857140
 30
0.0
 10
141.428568
 20
156.857140
 30
0.0
 10
158.571432
 20
143.428572
 30
0.0
 10
188.000000
 20
129.714284
 30
0.0
 10
212.857144
 20
122.571428
 30
0.0
 10
221.142856
 20
116.571428
 30
0.0
 10
220.857144
 20
78.857140
 30
0.0
 10
235.142856
 20
68.857140
 30
0.0
 10
235.142856
 20
56.571428
 30
0.0
 10
229.428568
 20
45.714284
 30
0.0
 10
236.285712
 20
29.142884
 30
0.0
 10
218.857144
 20
-14.571436
 30
0.0
 10
210.285712
 20
-18.285676
 30
0.0
 10
163.714288
 20
-25.999996
 30
0.0
 10
122.285712
 20
-20.857116
 30
0.0
 10
104.857144
 20
-15.428556
 30
0.0
 10
121.428568
 20
17.428564
 30
0.0
 10
123.142856
 20
56.285716
 30
0.0
 10
119.142856
 20
80.571428
 30
0.0
 10
112.571432
 20
94.857140
 30
0.0
 10
106.571432
 20
101.428572
 30
0.0
 10
113.142856
 20
109.142860
 30
0.0
 10
128.571432
 20
118.857140
 30
0.0
 10
134.285712
 20
130.285716
 30
0.0
 10
133.142856
 20
138.000004
 30
0.0
 10
114.571432
 20
157.428572
 30
0.0
 10
114.571432
 20
173.428572
 30
0.0
  0
LWPOLYLINE
  5
104
100
AcDbEntity
  8
Layer_1
 62
7
100
AcDbPolyline
 90
31
 70
1
 10
163.714288
 20
244.857140
 30
0.0
 10
207.142856
 20
247.714284
 30
0.0
 10
206.857144
 20
237.142860
 30
0.0
 10
210.571432
 20
230.857140
 30
0.0
 10
242.000000
 20
206.571428
 30
0.0
 10
243.142856
 20
191.142860
 30
0.0
 10
251.428568
 20
171.714284
 30
0.0
 10
264.000000
 20
158.000004
 30
0.0
 10
275.428568
 20
151.714284
 30
0.0
 10
295.714288
 20
150.000004
 30
0.0
 10
308.571432
 20
154.571428
 30
0.0
 10
319.428568
 20
156.857140
 30
0.0
 10
370.285712
 20
133.428572
 30
0.0
 10
340.000000
 20
72.571428
 30
0.0
 10
318.571432
 20
69.428572
 30
0.0
 10
284.857144
 20
46.285716
 30
0.0
 10
235.142856
 20
30.000004
 30
0.0
 10
229.428568
 20
45.428572
 30
0.0
 10
235.428568
 20
57.142860
 30
0.0
 10
235.142856
 20
68.285716
 30
0.0
 10
221.428568
 20
78.000004
 30
0.0
 10
220.857144
 20
116.285716
 30
0.0
 10
211.714288
 20
123.428572
 30
0.0
 10
184.857144
 20
130.571428
 30
0.0
 10
156.857144
 20
143.714284
 30
0.0
 10
127.714288
 20
168.857140
 30
0.0
 10
114.285712
 20
173.714284
 30
0.0
 10
114.000000
 20
200.000004
 30
0.0
 10
123.714288
 20
213.714284
 30
0.0
 10
156.571432
 20
236.857140
 30
0.0
 10
163.714288
 20
244.857140
 30
0.0
  0
LWPOLYLINE
  5
105
100
AcDbEntity
  8
Layer_1
 62
7
100
AcDbPolyline
 90
18
 70
1
 10
176.000000
 20
246.285716
 30
0.0
 10
248.000000
 20
252.857140
 30
0.0
 10
280.000000
 20
262.000004
 30
0.0
 10
272.285712
 20
273.714284
 30
0.0
 10
267.714288
 20
288.857140
 30
0.0
 10
252.857144
 20
312.000004
 30
0.0
 10
240.285712
 20
316.000004
 30
0.0
 10
225.428568
 20
315.142860
 30
0.0
 10
211.142856
 20
303.714284
 30
0.0
 10
199.714288
 20
300.285716
 30
0.0
 10
201.714288
 20
291.714284
 30
0.0
 10
198.857144
 20
282.571428
 30
0.0
 10
193.428568
 20
275.142860
 30
0.0
 10
184.571432
 20
267.428572
 30
0.0
 10
180.000000
 20
264.285716
 30
0.0
 10
179.142856
 20
258.000004
 30
0.0
 10
174.857144
 20
254.571428
 30
0.0
 10
176.000000
 20
246.285716
 30
0.0
  0
LWPOLYLINE
  5
106
100
AcDbEntity
  8
Layer_1
 62
7
100
AcDbPolyline
 90
17
 70
1
 10
176.571432
 20
246.000004
 30
0.0
 10
164.000000
 20
245.428572
 30
0.0
 10
157.714288
 20
254.571428
 30
0.0
 10
136.857144
 20
271.142860
 30
0.0
 10
134.285712
 20
284.000004
 30
0.0
 10
117.142856
 20
293.714284
 30
0.0
 10
116.571432
 20
306.857140
 30
0.0
 10
118.857144
 20
322.000004
 30
0.0
 10
124.285712
 20
316.285716
 30
0.0
 10
133.142856
 20
309.428572
 30
0.0
 10
151.142856
 20
303.142860
 30
0.0
 10
164.857144
 20
296.000004
 30
0.0
 10
177.142856
 20
282.285716
 30
0.0
 10
180.285712
 20
265.428572
 30
0.0
 10
178.571432
 20
257.428572
 30
0.0
 10
174.571432
 20
254.000004
 30
0.0
 10
176.571432
 20
246.000004
 30
0.0
  0
LWPOLYLINE
  5
107
100
AcDbEntity
  8
Layer_1
 62
7
100
AcDbPolyline
 90
13
 70
1
 10
180.857144
 20
265.714284
 30
0.0
 10
194.285712
 20
274.857140
 30
0.0
 10
201.428568
 20
290.285716
 30
0.0
 10
199.142856
 20
301.428572
 30
0.0
 10
184.857144
 20
313.714284
 30
0.0
 10
166.000000
 20
320.857140
 30
0.0
 10
126.857144
 20
323.428572
 30
0.0
 10
118.000000
 20
321.714284
 30
0.0
 10
133.714288
 20
308.571428
 30
0.0
 10
150.571432
 20
302.857140
 30
0.0
 10
165.142856
 20
295.428572
 30
0.0
 10
177.428568
 20
281.714284
 30
0.0
 10
180.857144
 20
265.714284
 30
0.0
  0
LWPOLYLINE
  5
108
100
AcDbEntity
  8
Layer_1
 62
7
100
AcDbPolyline
 90
16
 70
1
 10
116.571432
 20
416.857140
 30
0.0
 10
180.571432
 20
450.000004
 30
0.0
 10
171.428568
 20
465.714284
 30
0.0
 10
168.571432
 20
482.000004
 30
0.0
 10
215.142856
 20
488.571428
 30
0.0
 10
212.000000
 20
473.142860
 30
0.0
 10
217.142856
 20
465.714284
 30
0.0
 10
227.428568
 20
455.142860
 30
0.0
 10
228.285712
 20
444.571428
 30
0.0
 10
223.142856
 20
433.714284
 30
0.0
 10
194.000000
 20
413.142860
 30
0.0
 10
189.142856
 20
405.428572
 30
0.0
 10
174.285712
 20
404.285716
 30
0.0
 10
162.000000
 20
393.142860
 30
0.0
 10
128.857144
 20
394.000004
 30
0.0
 10
116.571432
 20
416.857140
 30
0.0
  0
LWPOLYLINE
  5
109
100
AcDbEntity
  8
Layer_1
 62
7
100
AcDbPolyline
 90
16
 70
1
 10
215.428568
 20
488.000004
 30
0.0
 10
234.000000
 20
486.857140
 30
0.0
 10
277.714288
 20
526.857140
 30
0.0
 10
294.285712
 20
522.000004
 30
0.0
 10
302.571432
 20
514.571428
 30
0.0
 10
274.857144
 20
485.714284
 30
0.0
 10
266.857144
 20
473.714284
 30
0.0
 10
265.714288
 20
464.285716
 30
0.0
 10
256.857144
 20
455.142860
 30
0.0
 10
256.571432
 20
436.285716
 30
0.0
 10
248.857144
 20
433.428572
 30
0.0
 10
224.000000
 20
434.571428
 30
0.0
 10
228.285712
 20
444.571428
 30
0.0
 10
226.857144
 20
454.857140
 30
0.0
 10
212.285712
 20
472.857140
 30
0.0
 10
215.428568
 20
488.000004
 30
0.0
  0
LWPOLYLINE
  5
10a
100
AcDbEntity
  8
Layer_1
 62
7
100
AcDbPolyline
 90
15
 70
1
 10
303.142856
 20
514.285716
 30
0.0
 10
330.857144
 20
478.285716
 30
0.0
 10
348.000000
 20
464.000004
 30
0.0
 10
375.142856
 20
458.000004
 30
0.0
 10
363.714288
 20
436.285716
 30
0.0
 10
355.714288
 20
416.571428
 30
0.0
 10
340.285712
 20
406.000004
 30
0.0
 10
318.857144
 20
412.857140
 30
0.0
 10
278.857144
 20
411.428572
 30
0.0
 10
257.714288
 20
424.285716
 30
0.0
 10
256.857144
 20
455.142860
 30
0.0
 10
266.571432
 20
464.857140
 30
0.0
 10
267.142856
 20
474.000004
 30
0.0
 10
274.285712
 20
484.857140
 30
0.0
 10
303.142856
 20
514.285716
 30
0.0
  0
LWPOLYLINE
  5
10b
100
AcDbEntity
  8
Layer_1
 62
7
100
AcDbPolyline
 90
30
 70
1
 10
257.142856
 20
424.000004
 30
0.0
 10
246.571432
 20
417.714284
 30
0.0
 10
240.571432
 20
411.142860
 30
0.0
 10
243.428568
 20
397.428572
 30
0.0
 10
262.571432
 20
345.714284
 30
0.0
 10
260.000000
 20
333.714284
 30
0.0
 10
253.428568
 20
325.142860
 30
0.0
 10
253.714288
 20
311.142860
 30
0.0
 10
268.571432
 20
288.000004
 30
0.0
 10
272.571432
 20
272.571428
 30
0.0
 10
279.428568
 20
261.428572
 30
0.0
 10
288.285712
 20
258.285716
 30
0.0
 10
300.285712
 20
258.000004
 30
0.0
 10
329.428568
 20
264.000004
 30
0.0
 10
336.857144
 20
258.000004
 30
0.0
 10
365.428576
 20
286.857140
 30
0.0
 10
370.857144
 20
298.000004
 30
0.0
 10
370.571432
 20
329.714284
 30
0.0
 10
370.571432
 20
344.000004
 30
0.0
 10
374.000000
 20
354.857140
 30
0.0
 10
379.142856
 20
361.428572
 30
0.0
 10
365.142856
 20
364.571428
 30
0.0
 10
360.285712
 20
368.857140
 30
0.0
 10
357.714288
 20
374.285716
 30
0.0
 10
358.571432
 20
400.285716
 30
0.0
 10
348.857144
 20
411.428572
 30
0.0
 10
340.285712
 20
405.428572
 30
0.0
 10
318.571432
 20
413.142860
 30
0.0
 10
278.000000
 20
411.714284
 30
0.0
 10
257.142856
 20
424.000004
 30
0.0
  0
LWPOLYLINE
  5
10c
100
AcDbEntity
  8
Layer_1
 62
7
100
AcDbPolyline
 90
16
 70
1
 10
348.571432
 20
411.714284
 30
0.0
 10
356.571432
 20
416.857140
 30
0.0
 10
375.142856
 20
458.571428
 30
0.0
 10
440.000000
 20
461.714284
 30
0.0
 10
457.428576
 20
468.000004
 30
0.0
 10
456.000000
 20
457.428572
 30
0.0
 10
442.571432
 20
435.428572
 30
0.0
 10
424.000000
 20
406.000004
 30
0.0
 10
420.285712
 20
387.142860
 30
0.0
 10
413.428576
 20
374.571428
 30
0.0
 10
405.714288
 20
366.285716
 30
0.0
 10
378.857144
 20
360.571428
 30
0.0
 10
364.571432
 20
364.571428
 30
0.0
 10
357.428568
 20
373.428572
 30
0.0
 10
358.857144
 20
400.000004
 30
0.0
 10
348.571432
 20
411.714284
 30
0.0
  0
LWPOLYLINE
  5
10d
100
AcDbEntity
  8
Layer_1
 62
7
100
AcDbPolyline
 90
43
 70
1
 10
458.000000
 20
468.000004
 30
0.0
 10
481.714288
 20
459.428572
 30
0.0
 10
503.142856
 20
462.857140
 30
0.0
 10
519.142856
 20
472.857140
 30
0.0
 10
543.714288
 20
478.857140
 30
0.0
 10
564.857144
 20
478.000004
 30
0.0
 10
585.142856
 20
475.714284
 30
0.0
 10
604.571432
 20
468.857140
 30
0.0
 10
625.714288
 20
456.285716
 30
0.0
 10
635.428576
 20
432.000004
 30
0.0
 10
634.000000
 20
418.571428
 30
0.0
 10
621.142856
 20
391.142860
 30
0.0
 10
590.285712
 20
305.714284
 30
0.0
 10
565.714288
 20
306.571428
 30
0.0
 10
525.142856
 20
297.428572
 30
0.0
 10
516.857144
 20
293.714284
 30
0.0
 10
504.000000
 20
280.285716
 30
0.0
 10
497.714288
 20
271.714284
 30
0.0
 10
486.571432
 20
265.714284
 30
0.0
 10
477.142856
 20
253.428572
 30
0.0
 10
472.857144
 20
244.857140
 30
0.0
 10
454.000000
 20
244.571428
 30
0.0
 10
442.571432
 20
242.000004
 30
0.0
 10
434.857144
 20
233.714284
 30
0.0
 10
402.571432
 20
242.857140
 30
0.0
 10
388.000000
 20
240.571428
 30
0.0
 10
379.142856
 20
244.285716
 30
0.0
 10
355.714288
 20
243.714284
 30
0.0
 10
352.285712
 20
243.142860
 30
0.0
 10
344.000000
 20
238.285716
 30
0.0
 10
338.000000
 20
244.857140
 30
0.0
 10
337.142856
 20
257.714284
 30
0.0
 10
365.714288
 20
286.857140
 30
0.0
 10
370.857144
 20
298.571428
 30
0.0
 10
371.142856
 20
344.285716
 30
0.0
 10
374.000000
 20
354.571428
 30
0.0
 10
378.571432
 20
360.857140
 30
0.0
 10
406.571432
 20
366.571428
 30
0.0
 10
414.857144
 20
375.714284
 30
0.0
 10
421.428576
 20
389.142860
 30
0.0
 10
423.714288
 20
406.571428
 30
0.0
 10
456.000000
 20
456.857140
 30
0.0
 10
458.000000
 20
468.000004
 30
0.0
  0
LWPOLYLINE
  5
10e
100
AcDbEntity
  8
Layer_1
 62
7
100
AcDbPolyline
 90
30
 70
1
 10
590.571432
 20
304.857140
 30
0.0
 10
563.142856
 20
306.571428
 30
0.0
 10
519.428576
 20
295.142860
 30
0.0
 10
504.285712
 20
281.142860
 30
0.0
 10
497.714288
 20
271.714284
 30
0.0
 10
487.142856
 20
266.000004
 30
0.0
 10
477.714288
 20
254.571428
 30
0.0
 10
472.285712
 20
244.285716
 30
0.0
 10
453.142856
 20
244.571428
 30
0.0
 10
441.142856
 20
241.714284
 30
0.0
 10
433.714288
 20
232.571428
 30
0.0
 10
428.857144
 20
227.142860
 30
0.0
 10
419.714288
 20
201.142860
 30
0.0
 10
418.000000
 20
184.571428
 30
0.0
 10
438.000000
 20
192.857140
 30
0.0
 10
448.285712
 20
194.285716
 30
0.0
 10
460.571432
 20
192.285716
 30
0.0
 10
470.000000
 20
186.285716
 30
0.0
 10
476.000000
 20
174.571428
 30
0.0
 10
478.857144
 20
156.857140
 30
0.0
 10
486.571432
 20
143.142860
 30
0.0
 10
491.714288
 20
136.000004
 30
0.0
 10
498.857144
 20
133.714284
 30
0.0
 10
538.285712
 20
188.857140
 30
0.0
 10
554.857144
 20
215.428572
 30
0.0
 10
557.714288
 20
231.142860
 30
0.0
 10
563.428576
 20
240.000004
 30
0.0
 10
572.857144
 20
244.000004
 30
0.0
 10
577.142856
 20
271.714284
 30
0.0
 10
590.571432
 20
304.857140
 30
0.0
  0
LWPOLYLINE
  5
10f
100
AcDbEntity
  8
Layer_1
 62
7
100
AcDbPolyline
 90
29
 70
1
 10
417.714288
 20
184.000004
 30
0.0
 10
384.857144
 20
168.000004
 30
0.0
 10
369.428576
 20
132.857140
 30
0.0
 10
319.428568
 20
157.428572
 30
0.0
 10
297.142856
 20
150.285716
 30
0.0
 10
274.285712
 20
151.714284
 30
0.0
 10
263.714288
 20
157.714284
 30
0.0
 10
252.000000
 20
170.571428
 30
0.0
 10
243.142856
 20
190.000004
 30
0.0
 10
241.714288
 20
206.000004
 30
0.0
 10
211.714288
 20
229.428572
 30
0.0
 10
207.142856
 20
236.857140
 30
0.0
 10
206.857144
 20
249.142860
 30
0.0
 10
250.000000
 20
253.142860
 30
0.0
 10
278.000000
 20
261.714284
 30
0.0
 10
289.142856
 20
258.571428
 30
0.0
 10
301.714288
 20
258.571428
 30
0.0
 10
328.285712
 20
264.571428
 30
0.0
 10
337.714288
 20
257.714284
 30
0.0
 10
338.285712
 20
244.857140
 30
0.0
 10
343.428568
 20
238.571428
 30
0.0
 10
353.142856
 20
243.714284
 30
0.0
 10
378.571432
 20
244.857140
 30
0.0
 10
388.000000
 20
240.857140
 30
0.0
 10
404.571432
 20
243.142860
 30
0.0
 10
435.714288
 20
233.428572
 30
0.0
 10
429.714288
 20
227.714284
 30
0.0
 10
420.285712
 20
202.571428
 30
0.0
 10
417.714288
 20
184.000004
 30
0.0
  0
ENDSEC
  0
SECTION
  2
OBJECTS
  0
DICTIONARY
  5
C
330
0
100
AcDbDictionary
  3
ACAD_GROUP
350
D
  3
ACAD_MLINESTYLE
350
17
  0
DICTIONARY
  5
D
330
C
100
AcDbDictionary
  0
DICTIONARY
  5
1A
330
C
100
AcDbDictionary
  0
DICTIONARY
  5
17
330
C
100
AcDbDictionary
  3
STANDARD
350
18
  0
DICTIONARY
  5
19
330
C
100
AcDbDictionary
  0
ENDSEC
  0
EOF
