  0
SECTION
  2
HEADER
  9
$ACADVER
  1
AC1014
  9
$HANDSEED
  5
FFFF
  9
$MEASUREMENT
 70
     1
  0
ENDSEC
  0
SECTION
  2
TABLES
  0
TABLE
  2
VPORT
  5
8
330
0
100
AcDbSymbolTable
 70
     4
  0
VPORT
  5
2E
330
8
100
AcDbSymbolTableRecord
100
AcDbViewportTableRecord
  2
*ACTIVE
 70
     0
 10
0.0
 20
0.0
 11
1.0
 21
1.0
 12
210.0
 22
148.5
 13
0.0
 23
0.0
 14
10.0
 24
10.0
 15
10.0
 25
10.0
 16
0.0
 26
0.0
 36
1.0
 17
0.0
 27
0.0
 37
0.0
 40
341.0
 41
1.24
 42
50.0
 43
0.0
 44
0.0
 50
0.0
 51
0.0
 71
     0
 72
   100
 73
     1
 74
     3
 75
     0
 76
     0
 77
     0
 78
     0
  0
ENDTAB
  0
TABLE
  2
LTYPE
  5
5
330
0
100
AcDbSymbolTable
 70
     1
  0
LTYPE
  5
14
330
5
100
AcDbSymbolTableRecord
100
AcDbLinetypeTableRecord
  2
BYBLOCK
 70
     0
  3

 72
    65
 73
     0
 40
0.0
  0
LTYPE
  5
15
330
5
100
AcDbSymbolTableRecord
100
AcDbLinetypeTableRecord
  2
BYLAYER
 70
     0
  3

 72
    65
 73
     0
 40
0.0
  0
LTYPE
  5
16
330
5
100
AcDbSymbolTableRecord
100
AcDbLinetypeTableRecord
  2
CONTINUOUS
 70
     0
  3
Solid line
 72
    65
 73
     0
 40
0.0
  0
ENDTAB
  0
TABLE
  2
LAYER
  5
2
100
AcDbSymbolTable
 70
2
  0
LAYER
  5
50
100
AcDbSymbolTableRecord
100
AcDbLayerTableRecord
  2
0
 70
0
  6
CONTINUOUS
  0
LAYER
  5
51
100
AcDbSymbolTableRecord
100
AcDbLayerTableRecord
  2
Layer_1
 70
0
  6
CONTINUOUS
  0
ENDTAB
  0
TABLE
  2
STYLE
  5
3
330
0
100
AcDbSymbolTable
 70
     1
  0
STYLE
  5
11
330
3
100
AcDbSymbolTableRecord
100
AcDbTextStyleTableRecord
  2
STANDARD
 70
     0
 40
0.0
 41
1.0
 50
0.0
 71
     0
 42
2.5
  3
txt
  4

  0
ENDTAB
  0
TABLE
  2
VIEW
  5
6
330
0
100
AcDbSymbolTable
 70
     0
  0
ENDTAB
  0
TABLE
  2
UCS
  5
7
330
0
100
AcDbSymbolTable
 70
     0
  0
ENDTAB
  0
TABLE
  2
APPID
  5
9
330
0
100
AcDbSymbolTable
 70
     2
  0
APPID
  5
12
330
9
100
AcDbSymbolTableRecord
100
AcDbRegAppTableRecord
  2
ACAD
 70
     0
  0
ENDTAB
  0
TABLE
  2
DIMSTYLE
  5
A
330
0
100
AcDbSymbolTable
 70
     1
  0
DIMSTYLE
105
27
330
A
100
AcDbSymbolTableRecord
100
AcDbDimStyleTableRecord
  2
ISO-25
 70
     0
  3

  4

  5

  6

  7

 40
1.0
 41
2.5
 42
0.625
 43
3.75
 44
1.25
 45
0.0
 46
0.0
 47
0.0
 48
0.0
140
2.5
141
2.5
142
0.0
143
0.03937007874016
144
1.0
145
0.0
146
1.0
147
0.625
 71
     0
 72
     0
 73
     0
 74
     0
 75
     0
 76
     0
 77
     1
 78
     8
170
     0
171
     3
172
     1
173
     0
174
     0
175
     0
176
     0
177
     0
178
     0
270
     2
271
     2
272
     2
273
     2
274
     3
340
11
275
     0
280
     0
281
     0
282
     0
283
     0
284
     8
285
     0
286
     0
287
     3
288
     0
  0
ENDTAB
  0
TABLE
  2
BLOCK_RECORD
  5
1
330
0
100
AcDbSymbolTable
 70
     1
  0
BLOCK_RECORD
  5
1F
330
1
100
AcDbSymbolTableRecord
100
AcDbBlockTableRecord
  2
*MODEL_SPACE
  0
BLOCK_RECORD
  5
1B
330
1
100
AcDbSymbolTableRecord
100
AcDbBlockTableRecord
  2
*PAPER_SPACE
  0
ENDTAB
  0
ENDSEC
  0
SECTION
  2
BLOCKS
  0
BLOCK
  5
20
330
1F
100
AcDbEntity
  8
0
100
AcDbBlockBegin
  2
*MODEL_SPACE
 70
     0
 10
0.0
 20
0.0
 30
0.0
  3
*MODEL_SPACE
  1

  0
ENDBLK
  5
21
330
1F
100
AcDbEntity
  8
0
100
AcDbBlockEnd
  0
BLOCK
  5
1C
330
1B
100
AcDbEntity
 67
     1
  8
0
100
AcDbBlockBegin
  2
*PAPER_SPACE
  1

  0
ENDBLK
  5
1D
330
1B
100
AcDbEntity
 67
     1
  8
0
100
AcDbBlockEnd
  0
ENDSEC
  0
SECTION
  2
ENTITIES
  0
LWPOLYLINE
  5
100
100
AcDbEntity
  8
Layer_1
 62
7
100
AcDbPolyline
 90
34
 70
1
 10
292.571432
 20
476.571428
 30
0.0
 10
288.571432
 20
493.142860
 30
0.0
 10
297.714288
 20
508.571428
 30
0.0
 10
319.428568
 20
510.857140
 30
0.0
 10
335.428568
 20
518.857140
 30
0.0
 10
351.428568
 20
532.571428
 30
0.0
 10
366.857144
 20
533.714284
 30
0.0
 10
374.285712
 20
529.714284
 30
0.0
 10
377.714288
 20
515.428572
 30
0.0
 10
374.857144
 20
488.000004
 30
0.0
 10
369.714288
 20
470.857140
 30
0.0
 10
372.000000
 20
450.285716
 30
0.0
 10
356.571432
 20
432.857140
 30
0.0
 10
325.714288
 20
424.000004
 30
0.0
 10
281.142856
 20
402.571428
 30
0.0
 10
267.428568
 20
390.285716
 30
0.0
 10
269.142856
 20
382.857140
 30
0.0
 10
246.000000
 20
351.714284
 30
0.0
 10
225.714288
 20
332.285716
 30
0.0
 10
202.857144
 20
314.285716
 30
0.0
 10
197.714288
 20
323.714284
 30
0.0
 10
197.142856
 20
340.000004
 30
0.0
 10
193.714288
 20
347.428572
 30
0.0
 10
180.571432
 20
355.428572
 30
0.0
 10
178.571432
 20
358.857140
 30
0.0
 10
186.857144
 20
364.285716
 30
0.0
 10
188.857144
 20
374.000004
 30
0.0
 10
184.857144
 20
382.000004
 30
0.0
 10
242.285712
 20
414.857140
 30
0.0
 10
268.857144
 20
416.857140
 30
0.0
 10
306.000000
 20
441.428572
 30
0.0
 10
311.428568
 20
449.428572
 30
0.0
 10
300.285712
 20
473.714284
 30
0.0
 10
292.571432
 20
476.571428
 30
0.0
  0
LWPOLYLINE
  5
101
100
AcDbEntity
  8
Layer_1
 62
7
100
AcDbPolyline
 90
18
 70
1
 10
184.571432
 20
381.714284
 30
0.0
 10
120.857144
 20
340.285716
 30
0.0
 10
139.428568
 20
314.571428
 30
0.0
 10
138.857144
 20
296.000004
 30
0.0
 10
133.142856
 20
282.000004
 30
0.0
 10
107.428568
 20
231.428572
 30
0.0
 10
125.714288
 20
230.571428
 30
0.0
 10
157.714288
 20
254.000004
 30
0.0
 10
193.142856
 20
306.571428
 30
0.0
 10
203.142856
 20
314.285716
 30
0.0
 10
200.000000
 20
323.428572
 30
0.0
 10
198.285712
 20
340.571428
 30
0.0
 10
194.571432
 20
347.428572
 30
0.0
 10
182.000000
 20
355.714284
 30
0.0
 10
180.285712
 20
358.857140
 30
0.0
 10
187.428568
 20
363.142860
 30
0.0
 10
189.428568
 20
372.857140
 30
0.0
 10
184.571432
 20
381.714284
 30
0.0
  0
LWPOLYLINE
  5
102
100
AcDbEntity
  8
Layer_1
 62
7
100
AcDbPolyline
 90
8
 70
1
 10
-12.857143
 20
296.285716
 30
0.0
 10
-44.000000
 20
273.428572
 30
0.0
 10
-46.285714
 20
259.142860
 30
0.0
 10
-25.428571
 20
246.857140
 30
0.0
 10
52.285714
 20
260.000004
 30
0.0
 10
60.857143
 20
272.857140
 30
0.0
 10
39.714286
 20
308.000004
 30
0.0
 10
-12.857143
 20
296.285716
 30
0.0
  0
LWPOLYLINE
  5
103
100
AcDbEntity
  8
Layer_1
 62
7
100
AcDbPolyline
 90
35
 70
1
 10
118.571432
 20
211.714284
 30
0.0
 10
110.000000
 20
199.428572
 30
0.0
 10
104.285712
 20
189.142860
 30
0.0
 10
104.000000
 20
178.285716
 30
0.0
 10
142.857144
 20
173.714284
 30
0.0
 10
166.857144
 20
176.857140
 30
0.0
 10
191.428568
 20
172.857140
 30
0.0
 10
206.000000
 20
179.428572
 30
0.0
 10
211.142856
 20
186.285716
 30
0.0
 10
215.714288
 20
200.571428
 30
0.0
 10
227.714288
 20
204.285716
 30
0.0
 10
240.000000
 20
204.571428
 30
0.0
 10
250.857144
 20
202.857140
 30
0.0
 10
249.714288
 20
223.142860
 30
0.0
 10
259.428568
 20
222.571428
 30
0.0
 10
266.571432
 20
217.142860
 30
0.0
 10
276.571432
 20
212.571428
 30
0.0
 10
285.714288
 20
219.142860
 30
0.0
 10
291.714288
 20
230.571428
 30
0.0
 10
301.428568
 20
236.571428
 30
0.0
 10
307.428568
 20
246.000004
 30
0.0
 10
310.285712
 20
257.142860
 30
0.0
 10
309.428568
 20
264.285716
 30
0.0
 10
265.714288
 20
262.000004
 30
0.0
 10
251.714288
 20
264.571428
 30
0.0
 10
236.571432
 20
272.285716
 30
0.0
 10
234.000000
 20
291.714284
 30
0.0
 10
221.714288
 20
305.142860
 30
0.0
 10
215.714288
 20
297.142860
 30
0.0
 10
194.285712
 20
288.857140
 30
0.0
 10
178.857144
 20
268.000004
 30
0.0
 10
175.142856
 20
251.428572
 30
0.0
 10
158.571432
 20
219.142860
 30
0.0
 10
133.714288
 20
206.571428
 30
0.0
 10
118.571432
 20
211.714284
 30
0.0
  0
LWPOLYLINE
  5
104
100
AcDbEntity
  8
Layer_1
 62
7
100
AcDbPolyline
 90
16
 70
1
 10
102.857144
 20
178.285716
 30
0.0
 10
105.714288
 20
66.571428
 30
0.0
 10
144.285712
 20
78.000004
 30
0.0
 10
156.285712
 20
78.857140
 30
0.0
 10
156.285712
 20
86.571428
 30
0.0
 10
162.571432
 20
88.857140
 30
0.0
 10
173.714288
 20
81.142860
 30
0.0
 10
192.857144
 20
84.571428
 30
0.0
 10
186.000000
 20
100.857140
 30
0.0
 10
196.285712
 20
132.000004
 30
0.0
 10
195.428568
 20
152.285716
 30
0.0
 10
194.000000
 20
160.571428
 30
0.0
 10
190.571432
 20
173.428572
 30
0.0
 10
165.428568
 20
177.714284
 30
0.0
 10
141.428568
 20
174.285716
 30
0.0
 10
102.857144
 20
178.285716
 30
0.0
  0
LWPOLYLINE
  5
105
100
AcDbEntity
  8
Layer_1
 62
7
100
AcDbPolyline
 90
18
 70
1
 10
106.000000
 20
67.428572
 30
0.0
 10
99.142856
 20
52.000004
 30
0.0
 10
88.857144
 20
43.142860
 30
0.0
 10
78.571429
 20
1.714324
 30
0.0
 10
92.857144
 20
-10.285676
 30
0.0
 10
102.285712
 20
-10.571436
 30
0.0
 10
224.285712
 20
20.285684
 30
0.0
 10
239.714288
 20
22.285684
 30
0.0
 10
264.857144
 20
30.571444
 30
0.0
 10
259.714288
 20
60.285716
 30
0.0
 10
267.714288
 20
88.285716
 30
0.0
 10
192.285712
 20
84.857140
 30
0.0
 10
174.857144
 20
82.000004
 30
0.0
 10
163.714288
 20
88.571428
 30
0.0
 10
155.142856
 20
87.142860
 30
0.0
 10
156.285712
 20
79.714284
 30
0.0
 10
144.857144
 20
79.428572
 30
0.0
 10
106.000000
 20
67.428572
 30
0.0
  0
LWPOLYLINE
  5
106
100
AcDbEntity
  8
Layer_1
 62
7
100
AcDbPolyline
 90
18
 70
1
 10
221.714288
 20
305.142860
 30
0.0
 10
267.428568
 20
350.285716
 30
0.0
 10
273.714288
 20
364.000004
 30
0.0
 10
305.142856
 20
370.000004
 30
0.0
 10
334.000000
 20
370.285716
 30
0.0
 10
355.142856
 20
365.428572
 30
0.0
 10
374.000000
 20
368.571428
 30
0.0
 10
378.000000
 20
358.857140
 30
0.0
 10
371.714288
 20
338.571428
 30
0.0
 10
346.000000
 20
311.714284
 30
0.0
 10
337.428568
 20
277.428572
 30
0.0
 10
323.142856
 20
274.857140
 30
0.0
 10
309.714288
 20
263.428572
 30
0.0
 10
266.285712
 20
261.428572
 30
0.0
 10
251.428568
 20
263.428572
 30
0.0
 10
236.571432
 20
271.714284
 30
0.0
 10
232.857144
 20
291.714284
 30
0.0
 10
221.714288
 20
305.142860
 30
0.0
  0
LWPOLYLINE
  5
107
100
AcDbEntity
  8
Layer_1
 62
7
100
AcDbPolyline
 90
23
 70
1
 10
309.285712
 20
263.285716
 30
0.0
 10
310.428576
 20
257.571428
 30
0.0
 10
307.000000
 20
246.285716
 30
0.0
 10
301.000000
 20
236.428572
 30
0.0
 10
304.000000
 20
217.857140
 30
0.0
 10
311.571432
 20
199.428572
 30
0.0
 10
309.857144
 20
189.857140
 30
0.0
 10
315.571432
 20
173.142860
 30
0.0
 10
341.571432
 20
171.857140
 30
0.0
 10
356.857144
 20
158.000004
 30
0.0
 10
373.285712
 20
160.571428
 30
0.0
 10
392.571432
 20
171.428572
 30
0.0
 10
401.000000
 20
182.428572
 30
0.0
 10
406.142856
 20
201.285716
 30
0.0
 10
416.142856
 20
220.285716
 30
0.0
 10
430.714288
 20
234.142860
 30
0.0
 10
442.428576
 20
249.857140
 30
0.0
 10
419.285712
 20
265.000004
 30
0.0
 10
387.428576
 20
277.714284
 30
0.0
 10
367.142856
 20
280.571428
 30
0.0
 10
336.571432
 20
277.285716
 30
0.0
 10
322.571432
 20
275.285716
 30
0.0
 10
309.285712
 20
263.285716
 30
0.0
  0
LWPOLYLINE
  5
108
100
AcDbEntity
  8
Layer_1
 62
7
100
AcDbPolyline
 90
22
 70
1
 10
374.000000
 20
368.000004
 30
0.0
 10
378.000000
 20
359.000004
 30
0.0
 10
370.857144
 20
338.285716
 30
0.0
 10
345.857144
 20
312.571428
 30
0.0
 10
336.714288
 20
276.857140
 30
0.0
 10
364.714288
 20
279.142860
 30
0.0
 10
386.571432
 20
277.428572
 30
0.0
 10
419.285712
 20
263.714284
 30
0.0
 10
442.142856
 20
249.285716
 30
0.0
 10
463.571432
 20
266.000004
 30
0.0
 10
507.428576
 20
287.142860
 30
0.0
 10
542.428576
 20
319.428572
 30
0.0
 10
543.000000
 20
337.142860
 30
0.0
 10
538.571432
 20
333.857140
 30
0.0
 10
523.428576
 20
333.142860
 30
0.0
 10
492.000000
 20
344.142860
 30
0.0
 10
459.857144
 20
365.285716
 30
0.0
 10
457.142856
 20
377.285716
 30
0.0
 10
447.285712
 20
395.428572
 30
0.0
 10
392.285712
 20
391.714284
 30
0.0
 10
382.000000
 20
381.000004
 30
0.0
 10
374.000000
 20
368.000004
 30
0.0
  0
LWPOLYLINE
  5
109
100
AcDbEntity
  8
Layer_1
 62
7
100
AcDbPolyline
 90
25
 70
1
 10
357.285712
 20
158.857140
 30
0.0
 10
373.000000
 20
161.571428
 30
0.0
 10
392.571432
 20
172.571428
 30
0.0
 10
400.142856
 20
183.285716
 30
0.0
 10
405.857144
 20
202.428572
 30
0.0
 10
414.857144
 20
220.142860
 30
0.0
 10
427.714288
 20
232.857140
 30
0.0
 10
441.571432
 20
250.428572
 30
0.0
 10
463.285712
 20
266.571428
 30
0.0
 10
487.428576
 20
278.285716
 30
0.0
 10
508.000000
 20
288.000004
 30
0.0
 10
520.571432
 20
262.428572
 30
0.0
 10
505.428576
 20
204.428572
 30
0.0
 10
516.428576
 20
196.285716
 30
0.0
 10
518.714288
 20
186.285716
 30
0.0
 10
503.000000
 20
150.428572
 30
0.0
 10
496.000000
 20
140.142860
 30
0.0
 10
458.857144
 20
120.142860
 30
0.0
 10
444.714288
 20
119.142860
 30
0.0
 10
413.714288
 20
131.428572
 30
0.0
 10
370.714288
 20
129.571428
 30
0.0
 10
359.000000
 20
120.571428
 30
0.0
 10
355.285712
 20
136.428572
 30
0.0
 10
357.857144
 20
151.714284
 30
0.0
 10
357.285712
 20
158.857140
 30
0.0
  0
LWPOLYLINE
  5
10a
100
AcDbEntity
  8
Layer_1
 62
7
100
AcDbPolyline
 90
34
 70
1
 10
358.714288
 20
120.571428
 30
0.0
 10
328.000000
 20
100.000004
 30
0.0
 10
321.571432
 20
93.571428
 30
0.0
 10
313.285712
 20
91.714284
 30
0.0
 10
283.857144
 20
95.571428
 30
0.0
 10
269.285712
 20
92.571428
 30
0.0
 10
267.000000
 20
87.428572
 30
0.0
 10
192.571432
 20
84.571428
 30
0.0
 10
185.714288
 20
100.571428
 30
0.0
 10
195.714288
 20
132.428572
 30
0.0
 10
193.857144
 20
159.000004
 30
0.0
 10
189.857144
 20
173.142860
 30
0.0
 10
205.571432
 20
179.714284
 30
0.0
 10
210.428568
 20
186.857140
 30
0.0
 10
215.857144
 20
202.142860
 30
0.0
 10
226.428568
 20
205.285716
 30
0.0
 10
239.428568
 20
205.285716
 30
0.0
 10
250.428568
 20
204.000004
 30
0.0
 10
249.857144
 20
224.142860
 30
0.0
 10
259.142856
 20
223.285716
 30
0.0
 10
267.142856
 20
217.428572
 30
0.0
 10
276.571432
 20
213.571428
 30
0.0
 10
286.142856
 20
220.714284
 30
0.0
 10
290.142856
 20
230.000004
 30
0.0
 10
300.428576
 20
236.714284
 30
0.0
 10
304.857144
 20
218.714284
 30
0.0
 10
312.000000
 20
200.857140
 30
0.0
 10
310.857144
 20
189.857140
 30
0.0
 10
315.857144
 20
174.714284
 30
0.0
 10
342.714288
 20
173.000004
 30
0.0
 10
357.428576
 20
159.285716
 30
0.0
 10
359.000000
 20
151.000004
 30
0.0
 10
355.857144
 20
137.142860
 30
0.0
 10
358.714288
 20
120.571428
 30
0.0
  0
LWPOLYLINE
  5
10b
100
AcDbEntity
  8
Layer_1
 62
7
100
AcDbPolyline
 90
9
 70
1
 10
43.840621
 20
144.653844
 30
0.0
 10
76.165502
 20
149.098516
 30
0.0
 10
82.630480
 20
145.663996
 30
0.0
 10
85.256872
 20
129.501556
 30
0.0
 10
73.337075
 20
122.632516
 30
0.0
 10
56.164482
 20
133.542164
 30
0.0
 10
49.497474
 20
134.350292
 30
0.0
 10
43.840621
 20
138.996988
 30
0.0
 10
43.840621
 20
144.653844
 30
0.0
  0
ENDSEC
  0
SECTION
  2
OBJECTS
  0
DICTIONARY
  5
C
330
0
100
AcDbDictionary
  3
ACAD_GROUP
350
D
  3
ACAD_MLINESTYLE
350
17
  0
DICTIONARY
  5
D
330
C
100
AcDbDictionary
  0
DICTIONARY
  5
1A
330
C
100
AcDbDictionary
  0
DICTIONARY
  5
17
330
C
100
AcDbDictionary
  3
STANDARD
350
18
  0
DICTIONARY
  5
19
330
C
100
AcDbDictionary
  0
ENDSEC
  0
EOF
