  0
SECTION
  2
HEADER
  9
$ACADVER
  1
AC1014
  9
$HANDSEED
  5
FFFF
  9
$MEASUREMENT
 70
     1
  0
ENDSEC
  0
SECTION
  2
TABLES
  0
TABLE
  2
VPORT
  5
8
330
0
100
AcDbSymbolTable
 70
     4
  0
VPORT
  5
2E
330
8
100
AcDbSymbolTableRecord
100
AcDbViewportTableRecord
  2
*ACTIVE
 70
     0
 10
0.0
 20
0.0
 11
1.0
 21
1.0
 12
210.0
 22
148.5
 13
0.0
 23
0.0
 14
10.0
 24
10.0
 15
10.0
 25
10.0
 16
0.0
 26
0.0
 36
1.0
 17
0.0
 27
0.0
 37
0.0
 40
341.0
 41
1.24
 42
50.0
 43
0.0
 44
0.0
 50
0.0
 51
0.0
 71
     0
 72
   100
 73
     1
 74
     3
 75
     0
 76
     0
 77
     0
 78
     0
  0
ENDTAB
  0
TABLE
  2
LTYPE
  5
5
330
0
100
AcDbSymbolTable
 70
     1
  0
LTYPE
  5
14
330
5
100
AcDbSymbolTableRecord
100
AcDbLinetypeTableRecord
  2
BYBLOCK
 70
     0
  3

 72
    65
 73
     0
 40
0.0
  0
LTYPE
  5
15
330
5
100
AcDbSymbolTableRecord
100
AcDbLinetypeTableRecord
  2
BYLAYER
 70
     0
  3

 72
    65
 73
     0
 40
0.0
  0
LTYPE
  5
16
330
5
100
AcDbSymbolTableRecord
100
AcDbLinetypeTableRecord
  2
CONTINUOUS
 70
     0
  3
Solid line
 72
    65
 73
     0
 40
0.0
  0
ENDTAB
  0
TABLE
  2
LAYER
  5
2
100
AcDbSymbolTable
 70
2
  0
LAYER
  5
50
100
AcDbSymbolTableRecord
100
AcDbLayerTableRecord
  2
0
 70
0
  6
CONTINUOUS
  0
LAYER
  5
51
100
AcDbSymbolTableRecord
100
AcDbLayerTableRecord
  2
Layer_1
 70
0
  6
CONTINUOUS
  0
ENDTAB
  0
TABLE
  2
STYLE
  5
3
330
0
100
AcDbSymbolTable
 70
     1
  0
STYLE
  5
11
330
3
100
AcDbSymbolTableRecord
100
AcDbTextStyleTableRecord
  2
STANDARD
 70
     0
 40
0.0
 41
1.0
 50
0.0
 71
     0
 42
2.5
  3
txt
  4

  0
ENDTAB
  0
TABLE
  2
VIEW
  5
6
330
0
100
AcDbSymbolTable
 70
     0
  0
ENDTAB
  0
TABLE
  2
UCS
  5
7
330
0
100
AcDbSymbolTable
 70
     0
  0
ENDTAB
  0
TABLE
  2
APPID
  5
9
330
0
100
AcDbSymbolTable
 70
     2
  0
APPID
  5
12
330
9
100
AcDbSymbolTableRecord
100
AcDbRegAppTableRecord
  2
ACAD
 70
     0
  0
ENDTAB
  0
TABLE
  2
DIMSTYLE
  5
A
330
0
100
AcDbSymbolTable
 70
     1
  0
DIMSTYLE
105
27
330
A
100
AcDbSymbolTableRecord
100
AcDbDimStyleTableRecord
  2
ISO-25
 70
     0
  3

  4

  5

  6

  7

 40
1.0
 41
2.5
 42
0.625
 43
3.75
 44
1.25
 45
0.0
 46
0.0
 47
0.0
 48
0.0
140
2.5
141
2.5
142
0.0
143
0.03937007874016
144
1.0
145
0.0
146
1.0
147
0.625
 71
     0
 72
     0
 73
     0
 74
     0
 75
     0
 76
     0
 77
     1
 78
     8
170
     0
171
     3
172
     1
173
     0
174
     0
175
     0
176
     0
177
     0
178
     0
270
     2
271
     2
272
     2
273
     2
274
     3
340
11
275
     0
280
     0
281
     0
282
     0
283
     0
284
     8
285
     0
286
     0
287
     3
288
     0
  0
ENDTAB
  0
TABLE
  2
BLOCK_RECORD
  5
1
330
0
100
AcDbSymbolTable
 70
     1
  0
BLOCK_RECORD
  5
1F
330
1
100
AcDbSymbolTableRecord
100
AcDbBlockTableRecord
  2
*MODEL_SPACE
  0
BLOCK_RECORD
  5
1B
330
1
100
AcDbSymbolTableRecord
100
AcDbBlockTableRecord
  2
*PAPER_SPACE
  0
ENDTAB
  0
ENDSEC
  0
SECTION
  2
BLOCKS
  0
BLOCK
  5
20
330
1F
100
AcDbEntity
  8
0
100
AcDbBlockBegin
  2
*MODEL_SPACE
 70
     0
 10
0.0
 20
0.0
 30
0.0
  3
*MODEL_SPACE
  1

  0
ENDBLK
  5
21
330
1F
100
AcDbEntity
  8
0
100
AcDbBlockEnd
  0
BLOCK
  5
1C
330
1B
100
AcDbEntity
 67
     1
  8
0
100
AcDbBlockBegin
  2
*PAPER_SPACE
  1

  0
ENDBLK
  5
1D
330
1B
100
AcDbEntity
 67
     1
  8
0
100
AcDbBlockEnd
  0
ENDSEC
  0
SECTION
  2
ENTITIES
  0
LWPOLYLINE
  5
100
100
AcDbEntity
  8
Layer_1
 62
7
100
AcDbPolyline
 90
22
 70
1
 10
23.839600
 20
701.449932
 30
0.0
 10
37.173614
 20
704.682420
 30
0.0
 10
84.852816
 20
700.237748
 30
0.0
 10
96.570584
 20
696.197132
 30
0.0
 10
118.793936
 20
696.601196
 30
0.0
 10
119.198000
 20
688.924036
 30
0.0
 10
138.188872
 20
682.863124
 30
0.0
 10
131.723888
 20
667.508804
 30
0.0
 10
108.288352
 20
642.052956
 30
0.0
 10
91.721848
 20
609.728076
 30
0.0
 10
78.791898
 20
602.454980
 30
0.0
 10
60.205092
 20
586.696596
 30
0.0
 10
47.275139
 20
581.039748
 30
0.0
 10
35.153309
 20
571.746340
 30
0.0
 10
19.798990
 20
561.644812
 30
0.0
 10
0.404061
 20
553.563596
 30
0.0
 10
-12.525891
 20
551.543292
 30
0.0
 10
-29.900515
 20
586.696596
 30
0.0
 10
-15.354318
 20
629.527068
 30
0.0
 10
2.828427
 20
661.043828
 30
0.0
 10
2.828427
 20
671.549412
 30
0.0
 10
23.839600
 20
701.449932
 30
0.0
  0
LWPOLYLINE
  5
101
100
AcDbEntity
  8
Layer_1
 62
7
100
AcDbPolyline
 90
26
 70
1
 10
91.317792
 20
609.324012
 30
0.0
 10
96.570584
 20
590.333148
 30
0.0
 10
96.166520
 20
570.534156
 30
0.0
 10
92.934032
 20
558.412324
 30
0.0
 10
95.358400
 20
544.674252
 30
0.0
 10
94.146216
 20
530.128060
 30
0.0
 10
73.135044
 20
502.651908
 30
0.0
 10
68.690373
 20
494.166628
 30
0.0
 10
67.882251
 20
484.469164
 30
0.0
 10
69.902556
 20
473.155452
 30
0.0
 10
11.313709
 20
430.729044
 30
0.0
 10
-8.485282
 20
451.740220
 30
0.0
 10
-24.647722
 20
456.184892
 30
0.0
 10
-38.385797
 20
462.245804
 30
0.0
 10
-50.911688
 20
471.135148
 30
0.0
 10
-56.568542
 20
478.004188
 30
0.0
 10
-59.801030
 20
490.934140
 30
0.0
 10
-22.223356
 20
506.288460
 30
0.0
 10
-14.142136
 20
522.046836
 30
0.0
 10
-11.717770
 20
551.139228
 30
0.0
 10
4.444671
 20
555.179836
 30
0.0
 10
27.476150
 20
565.685428
 30
0.0
 10
45.658895
 20
580.231620
 30
0.0
 10
61.821336
 20
587.100660
 30
0.0
 10
79.600021
 20
603.263100
 30
0.0
 10
91.317792
 20
609.324012
 30
0.0
  0
LWPOLYLINE
  5
102
100
AcDbEntity
  8
Layer_1
 62
7
100
AcDbPolyline
 90
14
 70
1
 10
-60.609153
 20
490.530076
 30
0.0
 10
-56.164482
 20
477.196060
 30
0.0
 10
-50.507627
 20
471.539212
 30
0.0
 10
-63.841641
 20
456.993012
 30
0.0
 10
-69.498495
 20
440.830572
 30
0.0
 10
-68.690373
 20
411.334116
 30
0.0
 10
-70.306617
 20
411.334116
 30
0.0
 10
-73.539106
 20
401.232588
 30
0.0
 10
-86.469056
 20
383.453908
 30
0.0
 10
-95.358400
 20
384.666092
 30
0.0
 10
-126.067040
 20
364.867100
 30
0.0
 10
-114.753328
 20
444.467124
 30
0.0
 10
-86.065000
 20
476.792004
 30
0.0
 10
-60.609153
 20
490.530076
 30
0.0
  0
LWPOLYLINE
  5
103
100
AcDbEntity
  8
Layer_1
 62
7
100
AcDbPolyline
 90
15
 70
1
 10
-85.256872
 20
383.453908
 30
0.0
 10
-94.550280
 20
384.666092
 30
0.0
 10
-126.471096
 20
364.867100
 30
0.0
 10
-141.017296
 20
289.307692
 30
0.0
 10
-124.450792
 20
293.348300
 30
0.0
 10
-118.389880
 20
294.964540
 30
0.0
 10
-109.500536
 20
296.176724
 30
0.0
 10
-80.812200
 20
313.955412
 30
0.0
 10
-78.791898
 20
326.885364
 30
0.0
 10
-86.469056
 20
330.521916
 30
0.0
 10
-90.105608
 20
336.986892
 30
0.0
 10
-90.105608
 20
344.664052
 30
0.0
 10
-87.681240
 20
357.998060
 30
0.0
 10
-80.812200
 20
376.988932
 30
0.0
 10
-85.256872
 20
383.453908
 30
0.0
  0
LWPOLYLINE
  5
104
100
AcDbEntity
  8
Layer_1
 62
7
100
AcDbPolyline
 90
13
 70
1
 10
-157.583800
 20
263.043724
 30
0.0
 10
-141.421360
 20
289.307692
 30
0.0
 10
-126.471096
 20
292.540180
 30
0.0
 10
-115.965512
 20
295.772668
 30
0.0
 10
-109.500536
 20
295.772668
 30
0.0
 10
-80.812200
 20
314.359476
 30
0.0
 10
-73.943166
 20
308.702620
 30
0.0
 10
-78.791898
 20
295.368604
 30
0.0
 10
-88.893424
 20
279.206164
 30
0.0
 10
-94.954336
 20
251.730012
 30
0.0
 10
-102.631496
 20
235.163516
 30
0.0
 10
-133.744200
 20
242.436612
 30
0.0
 10
-157.583800
 20
263.043724
 30
0.0
  0
LWPOLYLINE
  5
105
100
AcDbEntity
  8
Layer_1
 62
7
100
AcDbPolyline
 90
13
 70
1
 10
-78.387838
 20
295.772668
 30
0.0
 10
-66.670068
 20
289.711748
 30
0.0
 10
-54.144177
 20
274.357428
 30
0.0
 10
-21.011173
 20
267.084332
 30
0.0
 10
-29.900515
 20
253.346260
 30
0.0
 10
-46.871078
 20
206.879244
 30
0.0
 10
-86.873120
 20
155.967556
 30
0.0
 10
-105.459928
 20
192.333044
 30
0.0
 10
-94.954336
 20
215.364524
 30
0.0
 10
-102.227440
 20
235.567572
 30
0.0
 10
-94.550280
 20
251.325956
 30
0.0
 10
-89.297488
 20
278.398044
 30
0.0
 10
-78.387838
 20
295.772668
 30
0.0
  0
LWPOLYLINE
  5
106
100
AcDbEntity
  8
Layer_1
 62
7
100
AcDbPolyline
 90
27
 70
1
 10
-78.387838
 20
326.885364
 30
0.0
 10
-80.812200
 20
313.955412
 30
0.0
 10
-74.347227
 20
309.106676
 30
0.0
 10
-78.791898
 20
294.964540
 30
0.0
 10
-67.478190
 20
289.711748
 30
0.0
 10
-53.740115
 20
273.549308
 30
0.0
 10
-19.798990
 20
266.680276
 30
0.0
 10
-5.252793
 20
284.458956
 30
0.0
 10
7.273098
 20
296.176724
 30
0.0
 10
47.275139
 20
301.429516
 30
0.0
 10
54.952298
 20
333.350340
 30
0.0
 10
67.074129
 20
341.431564
 30
0.0
 10
74.347227
 20
352.745268
 30
0.0
 10
87.277176
 20
387.090452
 30
0.0
 10
99.399008
 20
426.688436
 30
0.0
 10
111.924904
 20
440.426508
 30
0.0
 10
128.895464
 20
452.548340
 30
0.0
 10
131.723888
 20
467.902660
 30
0.0
 10
107.480232
 20
465.478292
 30
0.0
 10
94.954336
 20
461.437684
 30
0.0
 10
79.600021
 20
463.862052
 30
0.0
 10
70.306617
 20
472.347332
 30
0.0
 10
11.313709
 20
430.324988
 30
0.0
 10
2.424366
 20
415.778788
 30
0.0
 10
-52.123871
 20
366.079284
 30
0.0
 10
-68.286312
 20
345.876228
 30
0.0
 10
-78.387838
 20
326.885364
 30
0.0
  0
LWPOLYLINE
  5
107
100
AcDbEntity
  8
Layer_1
 62
7
100
AcDbPolyline
 90
20
 70
1
 10
-51.428571
 20
471.714284
 30
0.0
 10
-39.142858
 20
462.285716
 30
0.0
 10
-18.571429
 20
454.571428
 30
0.0
 10
-6.571429
 20
452.000004
 30
0.0
 10
12.571429
 20
430.857140
 30
0.0
 10
2.285714
 20
415.428572
 30
0.0
 10
-52.857143
 20
365.428572
 30
0.0
 10
-68.000000
 20
345.428572
 30
0.0
 10
-79.142858
 20
326.285716
 30
0.0
 10
-85.714288
 20
330.571428
 30
0.0
 10
-90.857144
 20
337.714284
 30
0.0
 10
-88.285712
 20
357.428572
 30
0.0
 10
-81.142856
 20
376.857140
 30
0.0
 10
-86.857144
 20
384.285716
 30
0.0
 10
-73.428571
 20
401.714284
 30
0.0
 10
-70.857143
 20
412.000004
 30
0.0
 10
-68.571429
 20
412.285716
 30
0.0
 10
-69.714286
 20
441.714284
 30
0.0
 10
-64.000000
 20
457.428572
 30
0.0
 10
-51.428571
 20
471.714284
 30
0.0
  0
LWPOLYLINE
  5
108
100
AcDbEntity
  8
Layer_1
 62
7
100
AcDbPolyline
 90
32
 70
1
 10
94.000000
 20
530.000004
 30
0.0
 10
73.428571
 20
502.857140
 30
0.0
 10
68.285714
 20
494.857140
 30
0.0
 10
67.714286
 20
485.142860
 30
0.0
 10
70.000000
 20
471.714284
 30
0.0
 10
79.428571
 20
463.428572
 30
0.0
 10
95.714288
 20
460.285716
 30
0.0
 10
108.285712
 20
465.142860
 30
0.0
 10
131.428568
 20
467.428572
 30
0.0
 10
129.142856
 20
452.285716
 30
0.0
 10
137.714288
 20
456.857140
 30
0.0
 10
150.571432
 20
468.000004
 30
0.0
 10
158.857144
 20
479.428572
 30
0.0
 10
159.142856
 20
484.571428
 30
0.0
 10
155.714288
 20
511.714284
 30
0.0
 10
152.000000
 20
521.714284
 30
0.0
 10
148.285712
 20
540.857140
 30
0.0
 10
170.000000
 20
563.142860
 30
0.0
 10
205.428568
 20
585.142860
 30
0.0
 10
185.428568
 20
608.285716
 30
0.0
 10
169.714288
 20
631.428572
 30
0.0
 10
160.857144
 20
659.142860
 30
0.0
 10
159.714288
 20
677.714284
 30
0.0
 10
138.000000
 20
683.714284
 30
0.0
 10
132.000000
 20
667.714284
 30
0.0
 10
108.285712
 20
642.285716
 30
0.0
 10
90.571432
 20
608.000004
 30
0.0
 10
96.285712
 20
591.428572
 30
0.0
 10
96.000000
 20
571.428572
 30
0.0
 10
92.285712
 20
557.714284
 30
0.0
 10
94.857144
 20
544.857140
 30
0.0
 10
94.000000
 20
530.000004
 30
0.0
  0
ENDSEC
  0
SECTION
  2
OBJECTS
  0
DICTIONARY
  5
C
330
0
100
AcDbDictionary
  3
ACAD_GROUP
350
D
  3
ACAD_MLINESTYLE
350
17
  0
DICTIONARY
  5
D
330
C
100
AcDbDictionary
  0
DICTIONARY
  5
1A
330
C
100
AcDbDictionary
  0
DICTIONARY
  5
17
330
C
100
AcDbDictionary
  3
STANDARD
350
18
  0
DICTIONARY
  5
19
330
C
100
AcDbDictionary
  0
ENDSEC
  0
EOF
