  0
SECTION
  2
HEADER
  9
$ACADVER
  1
AC1014
  9
$HANDSEED
  5
FFFF
  9
$MEASUREMENT
 70
     1
  0
ENDSEC
  0
SECTION
  2
TABLES
  0
TABLE
  2
VPORT
  5
8
330
0
100
AcDbSymbolTable
 70
     4
  0
VPORT
  5
2E
330
8
100
AcDbSymbolTableRecord
100
AcDbViewportTableRecord
  2
*ACTIVE
 70
     0
 10
0.0
 20
0.0
 11
1.0
 21
1.0
 12
210.0
 22
148.5
 13
0.0
 23
0.0
 14
10.0
 24
10.0
 15
10.0
 25
10.0
 16
0.0
 26
0.0
 36
1.0
 17
0.0
 27
0.0
 37
0.0
 40
341.0
 41
1.24
 42
50.0
 43
0.0
 44
0.0
 50
0.0
 51
0.0
 71
     0
 72
   100
 73
     1
 74
     3
 75
     0
 76
     0
 77
     0
 78
     0
  0
ENDTAB
  0
TABLE
  2
LTYPE
  5
5
330
0
100
AcDbSymbolTable
 70
     1
  0
LTYPE
  5
14
330
5
100
AcDbSymbolTableRecord
100
AcDbLinetypeTableRecord
  2
BYBLOCK
 70
     0
  3

 72
    65
 73
     0
 40
0.0
  0
LTYPE
  5
15
330
5
100
AcDbSymbolTableRecord
100
AcDbLinetypeTableRecord
  2
BYLAYER
 70
     0
  3

 72
    65
 73
     0
 40
0.0
  0
LTYPE
  5
16
330
5
100
AcDbSymbolTableRecord
100
AcDbLinetypeTableRecord
  2
CONTINUOUS
 70
     0
  3
Solid line
 72
    65
 73
     0
 40
0.0
  0
ENDTAB
  0
TABLE
  2
LAYER
  5
2
100
AcDbSymbolTable
 70
2
  0
LAYER
  5
50
100
AcDbSymbolTableRecord
100
AcDbLayerTableRecord
  2
0
 70
0
  6
CONTINUOUS
  0
LAYER
  5
51
100
AcDbSymbolTableRecord
100
AcDbLayerTableRecord
  2
Layer_1
 70
0
  6
CONTINUOUS
  0
ENDTAB
  0
TABLE
  2
STYLE
  5
3
330
0
100
AcDbSymbolTable
 70
     1
  0
STYLE
  5
11
330
3
100
AcDbSymbolTableRecord
100
AcDbTextStyleTableRecord
  2
STANDARD
 70
     0
 40
0.0
 41
1.0
 50
0.0
 71
     0
 42
2.5
  3
txt
  4

  0
ENDTAB
  0
TABLE
  2
VIEW
  5
6
330
0
100
AcDbSymbolTable
 70
     0
  0
ENDTAB
  0
TABLE
  2
UCS
  5
7
330
0
100
AcDbSymbolTable
 70
     0
  0
ENDTAB
  0
TABLE
  2
APPID
  5
9
330
0
100
AcDbSymbolTable
 70
     2
  0
APPID
  5
12
330
9
100
AcDbSymbolTableRecord
100
AcDbRegAppTableRecord
  2
ACAD
 70
     0
  0
ENDTAB
  0
TABLE
  2
DIMSTYLE
  5
A
330
0
100
AcDbSymbolTable
 70
     1
  0
DIMSTYLE
105
27
330
A
100
AcDbSymbolTableRecord
100
AcDbDimStyleTableRecord
  2
ISO-25
 70
     0
  3

  4

  5

  6

  7

 40
1.0
 41
2.5
 42
0.625
 43
3.75
 44
1.25
 45
0.0
 46
0.0
 47
0.0
 48
0.0
140
2.5
141
2.5
142
0.0
143
0.03937007874016
144
1.0
145
0.0
146
1.0
147
0.625
 71
     0
 72
     0
 73
     0
 74
     0
 75
     0
 76
     0
 77
     1
 78
     8
170
     0
171
     3
172
     1
173
     0
174
     0
175
     0
176
     0
177
     0
178
     0
270
     2
271
     2
272
     2
273
     2
274
     3
340
11
275
     0
280
     0
281
     0
282
     0
283
     0
284
     8
285
     0
286
     0
287
     3
288
     0
  0
ENDTAB
  0
TABLE
  2
BLOCK_RECORD
  5
1
330
0
100
AcDbSymbolTable
 70
     1
  0
BLOCK_RECORD
  5
1F
330
1
100
AcDbSymbolTableRecord
100
AcDbBlockTableRecord
  2
*MODEL_SPACE
  0
BLOCK_RECORD
  5
1B
330
1
100
AcDbSymbolTableRecord
100
AcDbBlockTableRecord
  2
*PAPER_SPACE
  0
ENDTAB
  0
ENDSEC
  0
SECTION
  2
BLOCKS
  0
BLOCK
  5
20
330
1F
100
AcDbEntity
  8
0
100
AcDbBlockBegin
  2
*MODEL_SPACE
 70
     0
 10
0.0
 20
0.0
 30
0.0
  3
*MODEL_SPACE
  1

  0
ENDBLK
  5
21
330
1F
100
AcDbEntity
  8
0
100
AcDbBlockEnd
  0
BLOCK
  5
1C
330
1B
100
AcDbEntity
 67
     1
  8
0
100
AcDbBlockBegin
  2
*PAPER_SPACE
  1

  0
ENDBLK
  5
1D
330
1B
100
AcDbEntity
 67
     1
  8
0
100
AcDbBlockEnd
  0
ENDSEC
  0
SECTION
  2
ENTITIES
  0
LWPOLYLINE
  5
100
100
AcDbEntity
  8
Layer_1
 62
7
100
AcDbPolyline
 90
29
 70
1
 10
447.699608
 20
739.431660
 30
0.0
 10
440.426512
 20
728.926076
 30
0.0
 10
411.334120
 20
719.228612
 30
0.0
 10
385.474208
 20
715.996124
 30
0.0
 10
349.108720
 20
700.641804
 30
0.0
 10
326.481304
 20
686.903732
 30
0.0
 10
303.045760
 20
684.479364
 30
0.0
 10
281.226472
 20
689.328100
 30
0.0
 10
261.831536
 20
678.822508
 30
0.0
 10
246.477224
 20
660.235700
 30
0.0
 10
245.669096
 20
652.154484
 30
0.0
 10
258.599048
 20
648.113876
 30
0.0
 10
264.255904
 20
619.829604
 30
0.0
 10
278.802104
 20
608.515892
 30
0.0
 10
311.126984
 20
609.324012
 30
0.0
 10
326.481304
 20
614.172748
 30
0.0
 10
321.632568
 20
623.062092
 30
0.0
 10
325.673184
 20
634.375796
 30
0.0
 10
336.178768
 20
639.224532
 30
0.0
 10
349.108720
 20
640.032652
 30
0.0
 10
367.695528
 20
636.800164
 30
0.0
 10
382.241720
 20
631.143308
 30
0.0
 10
416.182848
 20
652.962604
 30
0.0
 10
442.042752
 20
666.700684
 30
0.0
 10
463.053928
 20
672.357532
 30
0.0
 10
463.053928
 20
686.095612
 30
0.0
 10
445.275240
 20
701.449924
 30
0.0
 10
457.397072
 20
715.996124
 30
0.0
 10
447.699608
 20
739.431660
 30
0.0
  0
LWPOLYLINE
  5
101
100
AcDbEntity
  8
Layer_1
 62
7
100
AcDbPolyline
 90
18
 70
1
 10
462.649864
 20
672.761596
 30
0.0
 10
443.254936
 20
667.508804
 30
0.0
 10
414.566608
 20
652.962604
 30
0.0
 10
381.433600
 20
631.143308
 30
0.0
 10
370.928016
 20
635.992044
 30
0.0
 10
351.129024
 20
640.840772
 30
0.0
 10
339.007192
 20
640.032652
 30
0.0
 10
326.885360
 20
635.992044
 30
0.0
 10
320.420384
 20
623.466148
 30
0.0
 10
325.673184
 20
614.980868
 30
0.0
 10
336.986888
 20
597.606244
 30
0.0
 10
353.149328
 20
585.484412
 30
0.0
 10
375.372688
 20
574.978828
 30
0.0
 10
410.121936
 20
569.726036
 30
0.0
 10
435.981840
 20
554.371716
 30
0.0
 10
446.891488
 20
596.798124
 30
0.0
 10
453.356464
 20
613.768684
 30
0.0
 10
462.649864
 20
672.761596
 30
0.0
  0
LWPOLYLINE
  5
102
100
AcDbEntity
  8
Layer_1
 62
7
100
AcDbPolyline
 90
33
 70
1
 10
246.477224
 20
650.134180
 30
0.0
 10
243.244736
 20
623.870212
 30
0.0
 10
234.759448
 20
599.626548
 30
0.0
 10
224.657928
 20
580.231620
 30
0.0
 10
249.709712
 20
560.836692
 30
0.0
 10
267.084336
 20
537.805212
 30
0.0
 10
272.741184
 20
490.126012
 30
0.0
 10
269.508696
 20
469.922964
 30
0.0
 10
278.802104
 20
457.801132
 30
0.0
 10
282.438648
 20
430.729044
 30
0.0
 10
295.368608
 20
427.900620
 30
0.0
 10
308.298560
 20
421.839700
 30
0.0
 10
320.016328
 20
412.546300
 30
0.0
 10
333.350344
 20
409.313812
 30
0.0
 10
328.905672
 20
442.850876
 30
0.0
 10
330.521912
 20
458.609260
 30
0.0
 10
349.512784
 20
476.792004
 30
0.0
 10
363.250856
 20
489.317892
 30
0.0
 10
381.433600
 20
491.742260
 30
0.0
 10
403.656960
 20
501.843788
 30
0.0
 10
404.869144
 20
530.936180
 30
0.0
 10
437.194024
 20
554.371716
 30
0.0
 10
410.525992
 20
570.938220
 30
0.0
 10
375.776744
 20
575.382892
 30
0.0
 10
349.108720
 20
587.908780
 30
0.0
 10
337.390952
 20
597.202188
 30
0.0
 10
326.481304
 20
615.384932
 30
0.0
 10
311.935104
 20
610.536196
 30
0.0
 10
278.802104
 20
609.324012
 30
0.0
 10
265.064032
 20
619.829604
 30
0.0
 10
259.811232
 20
649.326060
 30
0.0
 10
246.073160
 20
652.962604
 30
0.0
 10
246.477224
 20
650.134180
 30
0.0
  0
LWPOLYLINE
  5
103
100
AcDbEntity
  8
Layer_1
 62
7
100
AcDbPolyline
 90
14
 70
1
 10
333.350344
 20
409.717876
 30
0.0
 10
328.905672
 20
441.234636
 30
0.0
 10
330.117848
 20
459.013316
 30
0.0
 10
351.533088
 20
478.408244
 30
0.0
 10
363.250856
 20
489.721956
 30
0.0
 10
381.029544
 20
492.550380
 30
0.0
 10
403.656960
 20
501.439724
 30
0.0
 10
408.101632
 20
484.469164
 30
0.0
 10
422.243768
 20
459.013316
 30
0.0
 10
408.101632
 20
455.780828
 30
0.0
 10
373.756440
 20
440.426508
 30
0.0
 10
367.291464
 20
422.243764
 30
0.0
 10
354.361512
 20
408.505692
 30
0.0
 10
333.350344
 20
409.717876
 30
0.0
  0
LWPOLYLINE
  5
104
100
AcDbEntity
  8
Layer_1
 62
7
100
AcDbPolyline
 90
20
 70
1
 10
223.849808
 20
579.827564
 30
0.0
 10
202.434568
 20
549.522988
 30
0.0
 10
187.080248
 20
538.209276
 30
0.0
 10
166.069080
 20
539.825524
 30
0.0
 10
155.967552
 20
551.543292
 30
0.0
 10
137.380744
 20
543.462068
 30
0.0
 10
103.843680
 20
541.037700
 30
0.0
 10
102.227440
 20
538.613340
 30
0.0
 10
114.349272
 20
527.299628
 30
0.0
 10
174.554360
 20
494.974748
 30
0.0
 10
191.120864
 20
494.974748
 30
0.0
 10
211.323912
 20
503.460028
 30
0.0
 10
214.152336
 20
495.378812
 30
0.0
 10
223.849808
 20
480.428548
 30
0.0
 10
241.628488
 20
471.943268
 30
0.0
 10
270.316824
 20
469.114844
 30
0.0
 10
273.953368
 20
489.721956
 30
0.0
 10
267.892456
 20
538.209276
 30
0.0
 10
250.113768
 20
561.644812
 30
0.0
 10
223.849808
 20
579.827564
 30
0.0
  0
LWPOLYLINE
  5
105
100
AcDbEntity
  8
Layer_1
 62
7
100
AcDbPolyline
 90
29
 70
1
 10
139.805112
 20
514.369676
 30
0.0
 10
104.651800
 20
497.399116
 30
0.0
 10
73.943166
 20
470.731084
 30
0.0
 10
61.821336
 20
458.205196
 30
0.0
 10
51.719810
 20
437.194020
 30
0.0
 10
56.568542
 20
424.668132
 30
0.0
 10
51.315750
 20
413.354420
 30
0.0
 10
52.123871
 20
397.191980
 30
0.0
 10
69.094434
 20
351.937148
 30
0.0
 10
63.033519
 20
334.158460
 30
0.0
 10
78.387838
 20
329.713788
 30
0.0
 10
93.338096
 20
330.521916
 30
0.0
 10
118.389880
 20
341.835620
 30
0.0
 10
133.340136
 20
345.472172
 30
0.0
 10
152.735064
 20
339.815316
 30
0.0
 10
159.200040
 20
349.512780
 30
0.0
 10
174.150296
 20
404.869140
 30
0.0
 10
183.443704
 20
415.778788
 30
0.0
 10
269.508696
 20
432.749348
 30
0.0
 10
282.842712
 20
431.537164
 30
0.0
 10
279.610224
 20
456.993012
 30
0.0
 10
270.316824
 20
470.327028
 30
0.0
 10
240.012248
 20
473.155452
 30
0.0
 10
223.849808
 20
481.236676
 30
0.0
 10
215.364520
 20
495.782868
 30
0.0
 10
211.727976
 20
504.672212
 30
0.0
 10
191.120864
 20
495.782868
 30
0.0
 10
173.746240
 20
496.186932
 30
0.0
 10
139.805112
 20
514.369676
 30
0.0
  0
LWPOLYLINE
  5
106
100
AcDbEntity
  8
Layer_1
 62
7
100
AcDbPolyline
 90
16
 70
1
 10
64.245702
 20
334.562524
 30
0.0
 10
75.963471
 20
330.521916
 30
0.0
 10
94.146216
 20
330.925972
 30
0.0
 10
117.177696
 20
342.643740
 30
0.0
 10
132.936072
 20
346.280292
 30
0.0
 10
153.947248
 20
339.815316
 30
0.0
 10
100.611192
 20
271.124940
 30
0.0
 10
51.719810
 20
231.122900
 30
0.0
 10
33.537065
 20
223.445740
 30
0.0
 10
-8.485282
 20
214.152340
 30
0.0
 10
-8.889342
 20
241.628492
 30
0.0
 10
-1.616244
 20
299.813276
 30
0.0
 10
17.374624
 20
309.106676
 30
0.0
 10
45.254834
 20
315.571652
 30
0.0
 10
56.164482
 20
323.652876
 30
0.0
 10
64.245702
 20
334.562524
 30
0.0
  0
LWPOLYLINE
  5
107
100
AcDbEntity
  8
Layer_1
 62
7
100
AcDbPolyline
 90
36
 70
1
 10
-0.808122
 20
300.217340
 30
0.0
 10
17.778685
 20
308.298556
 30
0.0
 10
45.658895
 20
315.167596
 30
0.0
 10
57.780726
 20
324.460996
 30
0.0
 10
65.053824
 20
334.966588
 30
0.0
 10
69.498495
 20
352.341212
 30
0.0
 10
53.336054
 20
397.191980
 30
0.0
 10
51.315750
 20
413.758484
 30
0.0
 10
56.568542
 20
424.264068
 30
0.0
 10
52.123871
 20
437.598084
 30
0.0
 10
29.900515
 20
431.133108
 30
0.0
 10
22.223356
 20
421.031580
 30
0.0
 10
17.778685
 20
421.031580
 30
0.0
 10
10.101526
 20
426.688436
 30
0.0
 10
8.485282
 20
453.760524
 30
0.0
 10
-16.970562
 20
456.993012
 30
0.0
 10
-35.557370
 20
463.457988
 30
0.0
 10
-48.891383
 20
471.135148
 30
0.0
 10
-64.649763
 20
496.590988
 30
0.0
 10
-112.328960
 20
471.943268
 30
0.0
 10
-121.622368
 20
456.993012
 30
0.0
 10
-120.006120
 20
442.446812
 30
0.0
 10
-107.480232
 20
433.961532
 30
0.0
 10
-100.207136
 20
423.455948
 30
0.0
 10
-103.439624
 20
410.121932
 30
0.0
 10
-115.965512
 20
401.636652
 30
0.0
 10
-122.430488
 20
376.988932
 30
0.0
 10
-124.854856
 20
333.350340
 30
0.0
 10
-121.622368
 20
317.187900
 30
0.0
 10
-100.207136
 20
288.499564
 30
0.0
 10
-71.922862
 20
291.327996
 30
0.0
 10
-52.527932
 20
302.641700
 30
0.0
 10
-31.516759
 20
319.208204
 30
0.0
 10
-14.546197
 20
322.844756
 30
0.0
 10
-5.252793
 20
317.591964
 30
0.0
 10
-0.808122
 20
300.217340
 30
0.0
  0
LWPOLYLINE
  5
108
100
AcDbEntity
  8
Layer_1
 62
7
100
AcDbPolyline
 90
32
 70
1
 10
156.371616
 20
551.139228
 30
0.0
 10
139.805112
 20
544.270188
 30
0.0
 10
103.035560
 20
540.633644
 30
0.0
 10
103.439624
 20
538.209276
 30
0.0
 10
115.965512
 20
527.299628
 30
0.0
 10
139.805112
 20
514.369676
 30
0.0
 10
105.055864
 20
496.186932
 30
0.0
 10
65.457885
 20
461.033620
 30
0.0
 10
51.719810
 20
435.981836
 30
0.0
 10
29.900515
 20
429.920924
 30
0.0
 10
23.031478
 20
420.223460
 30
0.0
 10
18.182746
 20
420.223460
 30
0.0
 10
10.505586
 20
426.284372
 30
0.0
 10
8.081220
 20
452.952404
 30
0.0
 10
-14.950258
 20
456.184892
 30
0.0
 10
-36.365492
 20
462.649868
 30
0.0
 10
-49.699506
 20
470.731084
 30
0.0
 10
-65.861946
 20
496.590988
 30
0.0
 10
-60.205092
 20
501.035660
 30
0.0
 10
-45.658895
 20
520.430588
 30
0.0
 10
-44.850773
 20
552.351412
 30
0.0
 10
-56.164482
 20
575.382892
 30
0.0
 10
-60.205092
 20
599.222492
 30
0.0
 10
-39.597980
 20
596.394060
 30
0.0
 10
16.970562
 20
601.242796
 30
0.0
 10
34.345186
 20
608.111836
 30
0.0
 10
76.367533
 20
608.111836
 30
0.0
 10
88.085304
 20
605.687468
 30
0.0
 10
115.157392
 20
594.777820
 30
0.0
 10
134.956384
 20
580.635684
 30
0.0
 10
144.653848
 20
564.069180
 30
0.0
 10
156.371616
 20
551.139228
 30
0.0
  0
ENDSEC
  0
SECTION
  2
OBJECTS
  0
DICTIONARY
  5
C
330
0
100
AcDbDictionary
  3
ACAD_GROUP
350
D
  3
ACAD_MLINESTYLE
350
17
  0
DICTIONARY
  5
D
330
C
100
AcDbDictionary
  0
DICTIONARY
  5
1A
330
C
100
AcDbDictionary
  0
DICTIONARY
  5
17
330
C
100
AcDbDictionary
  3
STANDARD
350
18
  0
DICTIONARY
  5
19
330
C
100
AcDbDictionary
  0
ENDSEC
  0
EOF
