  0
SECTION
  2
HEADER
  9
$ACADVER
  1
AC1014
  9
$HANDSEED
  5
FFFF
  9
$MEASUREMENT
 70
     1
  0
ENDSEC
  0
SECTION
  2
TABLES
  0
TABLE
  2
VPORT
  5
8
330
0
100
AcDbSymbolTable
 70
     4
  0
VPORT
  5
2E
330
8
100
AcDbSymbolTableRecord
100
AcDbViewportTableRecord
  2
*ACTIVE
 70
     0
 10
0.0
 20
0.0
 11
1.0
 21
1.0
 12
210.0
 22
148.5
 13
0.0
 23
0.0
 14
10.0
 24
10.0
 15
10.0
 25
10.0
 16
0.0
 26
0.0
 36
1.0
 17
0.0
 27
0.0
 37
0.0
 40
341.0
 41
1.24
 42
50.0
 43
0.0
 44
0.0
 50
0.0
 51
0.0
 71
     0
 72
   100
 73
     1
 74
     3
 75
     0
 76
     0
 77
     0
 78
     0
  0
ENDTAB
  0
TABLE
  2
LTYPE
  5
5
330
0
100
AcDbSymbolTable
 70
     1
  0
LTYPE
  5
14
330
5
100
AcDbSymbolTableRecord
100
AcDbLinetypeTableRecord
  2
BYBLOCK
 70
     0
  3

 72
    65
 73
     0
 40
0.0
  0
LTYPE
  5
15
330
5
100
AcDbSymbolTableRecord
100
AcDbLinetypeTableRecord
  2
BYLAYER
 70
     0
  3

 72
    65
 73
     0
 40
0.0
  0
LTYPE
  5
16
330
5
100
AcDbSymbolTableRecord
100
AcDbLinetypeTableRecord
  2
CONTINUOUS
 70
     0
  3
Solid line
 72
    65
 73
     0
 40
0.0
  0
ENDTAB
  0
TABLE
  2
LAYER
  5
2
100
AcDbSymbolTable
 70
2
  0
LAYER
  5
50
100
AcDbSymbolTableRecord
100
AcDbLayerTableRecord
  2
0
 70
0
  6
CONTINUOUS
  0
LAYER
  5
51
100
AcDbSymbolTableRecord
100
AcDbLayerTableRecord
  2
Layer_1
 70
0
  6
CONTINUOUS
  0
ENDTAB
  0
TABLE
  2
STYLE
  5
3
330
0
100
AcDbSymbolTable
 70
     1
  0
STYLE
  5
11
330
3
100
AcDbSymbolTableRecord
100
AcDbTextStyleTableRecord
  2
STANDARD
 70
     0
 40
0.0
 41
1.0
 50
0.0
 71
     0
 42
2.5
  3
txt
  4

  0
ENDTAB
  0
TABLE
  2
VIEW
  5
6
330
0
100
AcDbSymbolTable
 70
     0
  0
ENDTAB
  0
TABLE
  2
UCS
  5
7
330
0
100
AcDbSymbolTable
 70
     0
  0
ENDTAB
  0
TABLE
  2
APPID
  5
9
330
0
100
AcDbSymbolTable
 70
     2
  0
APPID
  5
12
330
9
100
AcDbSymbolTableRecord
100
AcDbRegAppTableRecord
  2
ACAD
 70
     0
  0
ENDTAB
  0
TABLE
  2
DIMSTYLE
  5
A
330
0
100
AcDbSymbolTable
 70
     1
  0
DIMSTYLE
105
27
330
A
100
AcDbSymbolTableRecord
100
AcDbDimStyleTableRecord
  2
ISO-25
 70
     0
  3

  4

  5

  6

  7

 40
1.0
 41
2.5
 42
0.625
 43
3.75
 44
1.25
 45
0.0
 46
0.0
 47
0.0
 48
0.0
140
2.5
141
2.5
142
0.0
143
0.03937007874016
144
1.0
145
0.0
146
1.0
147
0.625
 71
     0
 72
     0
 73
     0
 74
     0
 75
     0
 76
     0
 77
     1
 78
     8
170
     0
171
     3
172
     1
173
     0
174
     0
175
     0
176
     0
177
     0
178
     0
270
     2
271
     2
272
     2
273
     2
274
     3
340
11
275
     0
280
     0
281
     0
282
     0
283
     0
284
     8
285
     0
286
     0
287
     3
288
     0
  0
ENDTAB
  0
TABLE
  2
BLOCK_RECORD
  5
1
330
0
100
AcDbSymbolTable
 70
     1
  0
BLOCK_RECORD
  5
1F
330
1
100
AcDbSymbolTableRecord
100
AcDbBlockTableRecord
  2
*MODEL_SPACE
  0
BLOCK_RECORD
  5
1B
330
1
100
AcDbSymbolTableRecord
100
AcDbBlockTableRecord
  2
*PAPER_SPACE
  0
ENDTAB
  0
ENDSEC
  0
SECTION
  2
BLOCKS
  0
BLOCK
  5
20
330
1F
100
AcDbEntity
  8
0
100
AcDbBlockBegin
  2
*MODEL_SPACE
 70
     0
 10
0.0
 20
0.0
 30
0.0
  3
*MODEL_SPACE
  1

  0
ENDBLK
  5
21
330
1F
100
AcDbEntity
  8
0
100
AcDbBlockEnd
  0
BLOCK
  5
1C
330
1B
100
AcDbEntity
 67
     1
  8
0
100
AcDbBlockBegin
  2
*PAPER_SPACE
  1

  0
ENDBLK
  5
1D
330
1B
100
AcDbEntity
 67
     1
  8
0
100
AcDbBlockEnd
  0
ENDSEC
  0
SECTION
  2
ENTITIES
  0
LWPOLYLINE
  5
100
100
AcDbEntity
  8
Layer_1
 62
7
100
AcDbPolyline
 90
7
 70
1
 10
34.345186
 20
576.595076
 30
0.0
 10
25.859905
 20
550.331108
 30
0.0
 10
35.557370
 20
551.543292
 30
0.0
 10
39.597980
 20
557.604204
 30
0.0
 10
49.295444
 20
561.644812
 30
0.0
 10
55.760421
 20
571.342284
 30
0.0
 10
34.345186
 20
576.595076
 30
0.0
  0
LWPOLYLINE
  5
101
100
AcDbEntity
  8
Layer_1
 62
7
100
AcDbPolyline
 90
24
 70
1
 10
54.952298
 20
570.534156
 30
0.0
 10
67.478190
 20
572.150404
 30
0.0
 10
93.742160
 20
580.635684
 30
0.0
 10
105.055864
 20
555.179836
 30
0.0
 10
101.015256
 20
542.249884
 30
0.0
 10
74.751288
 20
519.622468
 30
0.0
 10
68.286312
 20
511.945308
 30
0.0
 10
41.618285
 20
492.146324
 30
0.0
 10
38.385797
 20
480.024492
 30
0.0
 10
49.295444
 20
451.740220
 30
0.0
 10
42.830468
 20
447.699612
 30
0.0
 10
33.941126
 20
445.679300
 30
0.0
 10
27.880210
 20
449.315852
 30
0.0
 10
24.647722
 20
458.205196
 30
0.0
 10
16.162441
 20
462.649868
 30
0.0
 10
23.435539
 20
481.236676
 30
0.0
 10
11.313709
 20
506.692516
 30
0.0
 10
14.546197
 20
522.450900
 30
0.0
 10
23.839600
 20
530.532116
 30
0.0
 10
25.051783
 20
550.331108
 30
0.0
 10
33.537065
 20
551.947348
 30
0.0
 10
39.597980
 20
557.200148
 30
0.0
 10
50.911688
 20
562.048876
 30
0.0
 10
54.952298
 20
570.534156
 30
0.0
  0
LWPOLYLINE
  5
102
100
AcDbEntity
  8
Layer_1
 62
7
100
AcDbPolyline
 90
38
 70
1
 10
93.338096
 20
580.635684
 30
0.0
 10
145.057904
 20
601.646860
 30
0.0
 10
151.118824
 20
606.899652
 30
0.0
 10
158.795984
 20
609.324012
 30
0.0
 10
183.039640
 20
592.353452
 30
0.0
 10
200.010208
 20
570.938220
 30
0.0
 10
203.242696
 20
558.412324
 30
0.0
 10
203.646752
 20
541.037700
 30
0.0
 10
200.818328
 20
533.360548
 30
0.0
 10
182.635584
 20
543.462068
 30
0.0
 10
162.432528
 20
547.098620
 30
0.0
 10
152.331000
 20
543.462068
 30
0.0
 10
149.502576
 20
533.360548
 30
0.0
 10
149.906640
 20
525.279324
 30
0.0
 10
160.008160
 20
518.410284
 30
0.0
 10
160.816288
 20
500.227540
 30
0.0
 10
158.795984
 20
494.570684
 30
0.0
 10
164.856896
 20
482.044796
 30
0.0
 10
163.240648
 20
471.135148
 30
0.0
 10
173.342176
 20
444.063060
 30
0.0
 10
162.028472
 20
438.002148
 30
0.0
 10
153.139128
 20
428.304676
 30
0.0
 10
147.886336
 20
419.011276
 30
0.0
 10
134.552320
 20
428.304676
 30
0.0
 10
108.288352
 20
430.324988
 30
0.0
 10
101.823376
 20
431.941228
 30
0.0
 10
92.934032
 20
438.406204
 30
0.0
 10
78.387838
 20
460.629564
 30
0.0
 10
71.922862
 20
466.286412
 30
0.0
 10
65.861946
 20
467.498596
 30
0.0
 10
50.103566
 20
451.740220
 30
0.0
 10
38.789858
 20
478.812308
 30
0.0
 10
42.022346
 20
491.742260
 30
0.0
 10
68.690373
 20
512.349372
 30
0.0
 10
73.943166
 20
520.834652
 30
0.0
 10
100.207136
 20
542.249884
 30
0.0
 10
104.247744
 20
555.179836
 30
0.0
 10
93.338096
 20
580.635684
 30
0.0
  0
LWPOLYLINE
  5
103
100
AcDbEntity
  8
Layer_1
 62
7
100
AcDbPolyline
 90
17
 70
1
 10
164.452832
 20
482.852916
 30
0.0
 10
158.391920
 20
494.974748
 30
0.0
 10
160.816288
 20
500.227540
 30
0.0
 10
160.008160
 20
518.006228
 30
0.0
 10
150.714760
 20
524.471204
 30
0.0
 10
149.502576
 20
534.976788
 30
0.0
 10
151.522880
 20
543.058012
 30
0.0
 10
162.432528
 20
547.906740
 30
0.0
 10
183.443704
 20
544.674252
 30
0.0
 10
200.818328
 20
533.764604
 30
0.0
 10
199.202080
 20
527.703692
 30
0.0
 10
201.222384
 20
515.985924
 30
0.0
 10
216.576704
 20
493.358500
 30
0.0
 10
203.646752
 20
491.742260
 30
0.0
 10
186.676192
 20
486.489468
 30
0.0
 10
177.382784
 20
480.832612
 30
0.0
 10
164.452832
 20
482.852916
 30
0.0
  0
LWPOLYLINE
  5
104
100
AcDbEntity
  8
Layer_1
 62
7
100
AcDbPolyline
 90
26
 70
1
 10
172.938112
 20
444.063060
 30
0.0
 10
163.240648
 20
469.922964
 30
0.0
 10
164.452832
 20
482.448860
 30
0.0
 10
176.978728
 20
480.832612
 30
0.0
 10
187.888376
 20
486.893524
 30
0.0
 10
203.242696
 20
492.146324
 30
0.0
 10
217.788888
 20
494.166628
 30
0.0
 10
233.951328
 20
472.347332
 30
0.0
 10
260.215296
 20
448.507732
 30
0.0
 10
277.993984
 20
438.002148
 30
0.0
 10
278.398040
 20
428.304676
 30
0.0
 10
274.357432
 20
419.011276
 30
0.0
 10
264.255904
 20
419.011276
 30
0.0
 10
258.194992
 20
416.182852
 30
0.0
 10
259.811232
 20
407.697564
 30
0.0
 10
266.680272
 20
400.424468
 30
0.0
 10
267.892456
 20
391.131068
 30
0.0
 10
260.215296
 20
382.645788
 30
0.0
 10
267.488392
 20
368.907708
 30
0.0
 10
242.032552
 20
368.503652
 30
0.0
 10
232.739144
 20
374.160500
 30
0.0
 10
222.637624
 20
396.787924
 30
0.0
 10
208.495488
 20
403.656956
 30
0.0
 10
201.222384
 20
412.546300
 30
0.0
 10
191.120864
 20
433.153412
 30
0.0
 10
172.938112
 20
444.063060
 30
0.0
  0
LWPOLYLINE
  5
105
100
AcDbEntity
  8
Layer_1
 62
7
100
AcDbPolyline
 90
21
 70
1
 10
278.398040
 20
438.002148
 30
0.0
 10
278.398040
 20
428.708740
 30
0.0
 10
274.357432
 20
420.627524
 30
0.0
 10
263.851848
 20
418.607212
 30
0.0
 10
256.578744
 20
415.778788
 30
0.0
 10
260.215296
 20
406.081324
 30
0.0
 10
266.680272
 20
400.424468
 30
0.0
 10
268.296520
 20
391.939188
 30
0.0
 10
260.215296
 20
383.857964
 30
0.0
 10
267.084336
 20
368.907708
 30
0.0
 10
277.185856
 20
364.463036
 30
0.0
 10
286.883320
 20
361.634612
 30
0.0
 10
291.732056
 20
366.079284
 30
0.0
 10
300.217336
 20
365.271164
 30
0.0
 10
309.106680
 20
366.079284
 30
0.0
 10
309.106680
 20
378.201116
 30
0.0
 10
320.016328
 20
396.787924
 30
0.0
 10
308.702616
 20
429.112804
 30
0.0
 10
297.792968
 20
437.194020
 30
0.0
 10
288.095504
 20
435.577780
 30
0.0
 10
278.398040
 20
438.002148
 30
0.0
  0
LWPOLYLINE
  5
106
100
AcDbEntity
  8
Layer_1
 62
7
100
AcDbPolyline
 90
21
 70
1
 10
296.984848
 20
436.789964
 30
0.0
 10
309.914800
 20
428.708740
 30
0.0
 10
319.612264
 20
396.787924
 30
0.0
 10
308.298560
 20
379.009236
 30
0.0
 10
308.298560
 20
365.675220
 30
0.0
 10
320.016328
 20
363.654916
 30
0.0
 10
325.269120
 20
359.614308
 30
0.0
 10
344.664048
 20
358.806188
 30
0.0
 10
344.664048
 20
367.695524
 30
0.0
 10
362.038672
 20
381.029540
 30
0.0
 10
383.049848
 20
406.889444
 30
0.0
 10
380.625480
 20
426.688436
 30
0.0
 10
372.544256
 20
438.406204
 30
0.0
 10
371.736136
 20
448.911788
 30
0.0
 10
378.201112
 20
456.588948
 30
0.0
 10
377.797056
 20
465.478292
 30
0.0
 10
382.241720
 20
474.771700
 30
0.0
 10
349.512784
 20
478.812308
 30
0.0
 10
329.309728
 20
472.347332
 30
0.0
 10
318.400080
 20
453.760524
 30
0.0
 10
296.984848
 20
436.789964
 30
0.0
  0
LWPOLYLINE
  5
107
100
AcDbEntity
  8
Layer_1
 62
7
100
AcDbPolyline
 90
19
 70
1
 10
382.645784
 20
473.963572
 30
0.0
 10
397.191984
 20
471.539212
 30
0.0
 10
432.749352
 20
448.911788
 30
0.0
 10
440.022448
 20
441.234636
 30
0.0
 10
439.618384
 20
421.435644
 30
0.0
 10
446.083368
 20
408.909748
 30
0.0
 10
468.710784
 20
401.232588
 30
0.0
 10
469.114840
 20
388.302636
 30
0.0
 10
431.941232
 20
372.140196
 30
0.0
 10
424.668128
 20
357.594004
 30
0.0
 10
406.081320
 20
374.968628
 30
0.0
 10
400.424472
 20
376.988932
 30
0.0
 10
382.645784
 20
406.889444
 30
0.0
 10
379.817360
 20
426.284372
 30
0.0
 10
372.948320
 20
438.002148
 30
0.0
 10
370.928016
 20
448.911788
 30
0.0
 10
378.201112
 20
456.184892
 30
0.0
 10
376.584872
 20
464.670172
 30
0.0
 10
382.645784
 20
473.963572
 30
0.0
  0
LWPOLYLINE
  5
108
100
AcDbEntity
  8
Layer_1
 62
7
100
AcDbPolyline
 90
13
 70
1
 10
344.259984
 20
359.210244
 30
0.0
 10
343.855928
 20
367.291468
 30
0.0
 10
360.826488
 20
380.221420
 30
0.0
 10
382.645784
 20
407.293508
 30
0.0
 10
401.232592
 20
376.584868
 30
0.0
 10
406.889448
 20
375.776748
 30
0.0
 10
425.072192
 20
358.402124
 30
0.0
 10
400.828528
 20
318.804140
 30
0.0
 10
382.241720
 20
308.702620
 30
0.0
 10
353.957456
 20
301.429516
 30
0.0
 10
349.512784
 20
310.318860
 30
0.0
 10
351.937144
 20
341.027500
 30
0.0
 10
344.259984
 20
359.210244
 30
0.0
  0
LWPOLYLINE
  5
109
100
AcDbEntity
  8
Layer_1
 62
7
100
AcDbPolyline
 90
21
 70
1
 10
348.300600
 20
310.722924
 30
0.0
 10
352.745272
 20
339.007196
 30
0.0
 10
345.068112
 20
360.018364
 30
0.0
 10
325.269120
 20
360.826492
 30
0.0
 10
320.824448
 20
363.654916
 30
0.0
 10
307.086376
 20
365.675220
 30
0.0
 10
298.601096
 20
364.867100
 30
0.0
 10
293.348296
 20
366.079284
 30
0.0
 10
286.883320
 20
361.230548
 30
0.0
 10
275.165552
 20
364.867100
 30
0.0
 10
286.075200
 20
350.320900
 30
0.0
 10
293.348296
 20
338.603132
 30
0.0
 10
289.711752
 20
330.925972
 30
0.0
 10
283.246776
 20
328.097548
 30
0.0
 10
265.872152
 20
330.925972
 30
0.0
 10
261.831536
 20
318.400084
 30
0.0
 10
285.671136
 20
303.045764
 30
0.0
 10
300.621400
 20
303.449828
 30
0.0
 10
327.289424
 20
317.187900
 30
0.0
 10
343.047808
 20
315.167596
 30
0.0
 10
348.300600
 20
310.722924
 30
0.0
  0
LWPOLYLINE
  5
10a
100
AcDbEntity
  8
Layer_1
 62
7
100
AcDbPolyline
 90
17
 70
1
 10
265.872152
 20
330.925972
 30
0.0
 10
282.438648
 20
327.289428
 30
0.0
 10
289.307688
 20
330.521916
 30
0.0
 10
293.348296
 20
338.199076
 30
0.0
 10
275.973672
 20
364.867100
 30
0.0
 10
266.276208
 20
368.907708
 30
0.0
 10
242.032552
 20
368.503652
 30
0.0
 10
233.547272
 20
372.948324
 30
0.0
 10
223.445744
 20
373.756444
 30
0.0
 10
215.364520
 20
367.291468
 30
0.0
 10
211.727976
 20
360.826492
 30
0.0
 10
214.152336
 20
352.745268
 30
0.0
 10
221.425440
 20
345.068108
 30
0.0
 10
230.718840
 20
343.855924
 30
0.0
 10
244.456920
 20
336.986892
 30
0.0
 10
258.599048
 20
337.390948
 30
0.0
 10
265.872152
 20
330.925972
 30
0.0
  0
LWPOLYLINE
  5
10b
100
AcDbEntity
  8
Layer_1
 62
7
100
AcDbPolyline
 90
23
 70
1
 10
217.788888
 20
338.603132
 30
0.0
 10
221.829496
 20
346.280292
 30
0.0
 10
214.960464
 20
352.745268
 30
0.0
 10
212.536096
 20
361.230548
 30
0.0
 10
215.768584
 20
366.079284
 30
0.0
 10
224.253864
 20
372.948324
 30
0.0
 10
235.163512
 20
372.140196
 30
0.0
 10
224.253864
 20
397.596044
 30
0.0
 10
210.919848
 20
402.848836
 30
0.0
 10
200.414264
 20
413.354420
 30
0.0
 10
192.737104
 20
432.749348
 30
0.0
 10
173.746240
 20
444.467124
 30
0.0
 10
158.391920
 20
434.769652
 30
0.0
 10
152.331000
 20
426.284372
 30
0.0
 10
147.078208
 20
419.415340
 30
0.0
 10
145.461968
 20
413.758484
 30
0.0
 10
131.319832
 20
398.404164
 30
0.0
 10
132.127952
 20
371.332076
 30
0.0
 10
134.956384
 20
347.896540
 30
0.0
 10
166.473136
 20
343.451868
 30
0.0
 10
192.737104
 20
341.835620
 30
0.0
 10
210.111728
 20
342.643740
 30
0.0
 10
217.788888
 20
338.603132
 30
0.0
  0
LWPOLYLINE
  5
10c
100
AcDbEntity
  8
Layer_1
 62
7
100
AcDbPolyline
 90
18
 70
1
 10
134.956384
 20
347.896540
 30
0.0
 10
169.301568
 20
344.259988
 30
0.0
 10
193.545224
 20
342.643740
 30
0.0
 10
210.919848
 20
343.855924
 30
0.0
 10
219.001072
 20
338.603132
 30
0.0
 10
213.344216
 20
316.379780
 30
0.0
 10
186.272128
 20
296.176724
 30
0.0
 10
175.362480
 20
296.176724
 30
0.0
 10
148.290392
 20
309.106676
 30
0.0
 10
124.450792
 20
305.874188
 30
0.0
 10
99.399008
 20
307.086372
 30
0.0
 10
97.782768
 20
319.612268
 30
0.0
 10
105.863984
 20
327.289428
 30
0.0
 10
119.602064
 20
325.673180
 30
0.0
 10
116.773632
 20
334.562524
 30
0.0
 10
115.965512
 20
342.643740
 30
0.0
 10
123.642672
 20
348.300596
 30
0.0
 10
134.956384
 20
347.896540
 30
0.0
  0
LWPOLYLINE
  5
10d
100
AcDbEntity
  8
Layer_1
 62
7
100
AcDbPolyline
 90
28
 70
1
 10
99.803072
 20
307.490436
 30
0.0
 10
96.974648
 20
318.400084
 30
0.0
 10
105.459928
 20
326.885364
 30
0.0
 10
120.410184
 20
325.269116
 30
0.0
 10
116.773632
 20
338.199076
 30
0.0
 10
116.369576
 20
342.239684
 30
0.0
 10
124.450792
 20
347.492476
 30
0.0
 10
136.976688
 20
347.492476
 30
0.0
 10
132.532016
 20
371.332076
 30
0.0
 10
131.723888
 20
398.000100
 30
0.0
 10
146.270088
 20
412.546300
 30
0.0
 10
147.886336
 20
420.223460
 30
0.0
 10
134.148256
 20
429.920924
 30
0.0
 10
110.308656
 20
429.920924
 30
0.0
 10
101.015256
 20
432.749348
 30
0.0
 10
93.338096
 20
438.002148
 30
0.0
 10
80.408144
 20
431.941228
 30
0.0
 10
80.004080
 20
422.647828
 30
0.0
 10
77.579715
 20
409.717876
 30
0.0
 10
73.135044
 20
404.061020
 30
0.0
 10
69.902556
 20
377.392988
 30
0.0
 10
65.861946
 20
368.907708
 30
0.0
 10
44.850773
 20
366.483340
 30
0.0
 10
36.365492
 20
353.149332
 30
0.0
 10
75.155350
 20
325.269116
 30
0.0
 10
78.791898
 20
317.187900
 30
0.0
 10
78.387838
 20
309.914804
 30
0.0
 10
99.803072
 20
307.490436
 30
0.0
  0
LWPOLYLINE
  5
10e
100
AcDbEntity
  8
Layer_1
 62
7
100
AcDbPolyline
 90
32
 70
1
 10
37.173614
 20
352.341212
 30
0.0
 10
43.234529
 20
364.867100
 30
0.0
 10
63.033519
 20
367.291468
 30
0.0
 10
68.286312
 20
369.715836
 30
0.0
 10
70.710678
 20
376.988932
 30
0.0
 10
73.539106
 20
403.252900
 30
0.0
 10
79.195959
 20
408.909748
 30
0.0
 10
80.408144
 20
431.537164
 30
0.0
 10
94.550280
 20
438.810268
 30
0.0
 10
79.195959
 20
460.225500
 30
0.0
 10
71.922862
 20
466.286412
 30
0.0
 10
65.457885
 20
467.498596
 30
0.0
 10
45.254834
 20
449.719916
 30
0.0
 10
33.133003
 20
445.679300
 30
0.0
 10
29.092394
 20
448.911788
 30
0.0
 10
26.263966
 20
457.397076
 30
0.0
 10
16.970562
 20
461.841748
 30
0.0
 10
10.909647
 20
449.315852
 30
0.0
 10
-10.505586
 20
439.618388
 30
0.0
 10
-37.981736
 20
444.063060
 30
0.0
 10
-66.670068
 20
486.489468
 30
0.0
 10
-115.965512
 20
458.609260
 30
0.0
 10
-114.753328
 20
423.455948
 30
0.0
 10
-107.480232
 20
406.485388
 30
0.0
 10
-107.076168
 20
391.131068
 30
0.0
 10
-101.419312
 20
377.797052
 30
0.0
 10
-71.114739
 20
380.625476
 30
0.0
 10
-39.193918
 20
374.160500
 30
0.0
 10
-22.627417
 20
366.079284
 30
0.0
 10
12.121830
 20
357.189940
 30
0.0
 10
30.304576
 20
360.018364
 30
0.0
 10
37.173614
 20
352.341212
 30
0.0
  0
ENDSEC
  0
SECTION
  2
OBJECTS
  0
DICTIONARY
  5
C
330
0
100
AcDbDictionary
  3
ACAD_GROUP
350
D
  3
ACAD_MLINESTYLE
350
17
  0
DICTIONARY
  5
D
330
C
100
AcDbDictionary
  0
DICTIONARY
  5
1A
330
C
100
AcDbDictionary
  0
DICTIONARY
  5
17
330
C
100
AcDbDictionary
  3
STANDARD
350
18
  0
DICTIONARY
  5
19
330
C
100
AcDbDictionary
  0
ENDSEC
  0
EOF
