  0
SECTION
  2
HEADER
  9
$ACADVER
  1
AC1014
  9
$HANDSEED
  5
FFFF
  9
$MEASUREMENT
 70
     1
  0
ENDSEC
  0
SECTION
  2
TABLES
  0
TABLE
  2
VPORT
  5
8
330
0
100
AcDbSymbolTable
 70
     4
  0
VPORT
  5
2E
330
8
100
AcDbSymbolTableRecord
100
AcDbViewportTableRecord
  2
*ACTIVE
 70
     0
 10
0.0
 20
0.0
 11
1.0
 21
1.0
 12
210.0
 22
148.5
 13
0.0
 23
0.0
 14
10.0
 24
10.0
 15
10.0
 25
10.0
 16
0.0
 26
0.0
 36
1.0
 17
0.0
 27
0.0
 37
0.0
 40
341.0
 41
1.24
 42
50.0
 43
0.0
 44
0.0
 50
0.0
 51
0.0
 71
     0
 72
   100
 73
     1
 74
     3
 75
     0
 76
     0
 77
     0
 78
     0
  0
ENDTAB
  0
TABLE
  2
LTYPE
  5
5
330
0
100
AcDbSymbolTable
 70
     1
  0
LTYPE
  5
14
330
5
100
AcDbSymbolTableRecord
100
AcDbLinetypeTableRecord
  2
BYBLOCK
 70
     0
  3

 72
    65
 73
     0
 40
0.0
  0
LTYPE
  5
15
330
5
100
AcDbSymbolTableRecord
100
AcDbLinetypeTableRecord
  2
BYLAYER
 70
     0
  3

 72
    65
 73
     0
 40
0.0
  0
LTYPE
  5
16
330
5
100
AcDbSymbolTableRecord
100
AcDbLinetypeTableRecord
  2
CONTINUOUS
 70
     0
  3
Solid line
 72
    65
 73
     0
 40
0.0
  0
ENDTAB
  0
TABLE
  2
LAYER
  5
2
100
AcDbSymbolTable
 70
2
  0
LAYER
  5
50
100
AcDbSymbolTableRecord
100
AcDbLayerTableRecord
  2
0
 70
0
  6
CONTINUOUS
  0
LAYER
  5
51
100
AcDbSymbolTableRecord
100
AcDbLayerTableRecord
  2
Layer_1
 70
0
  6
CONTINUOUS
  0
ENDTAB
  0
TABLE
  2
STYLE
  5
3
330
0
100
AcDbSymbolTable
 70
     1
  0
STYLE
  5
11
330
3
100
AcDbSymbolTableRecord
100
AcDbTextStyleTableRecord
  2
STANDARD
 70
     0
 40
0.0
 41
1.0
 50
0.0
 71
     0
 42
2.5
  3
txt
  4

  0
ENDTAB
  0
TABLE
  2
VIEW
  5
6
330
0
100
AcDbSymbolTable
 70
     0
  0
ENDTAB
  0
TABLE
  2
UCS
  5
7
330
0
100
AcDbSymbolTable
 70
     0
  0
ENDTAB
  0
TABLE
  2
APPID
  5
9
330
0
100
AcDbSymbolTable
 70
     2
  0
APPID
  5
12
330
9
100
AcDbSymbolTableRecord
100
AcDbRegAppTableRecord
  2
ACAD
 70
     0
  0
ENDTAB
  0
TABLE
  2
DIMSTYLE
  5
A
330
0
100
AcDbSymbolTable
 70
     1
  0
DIMSTYLE
105
27
330
A
100
AcDbSymbolTableRecord
100
AcDbDimStyleTableRecord
  2
ISO-25
 70
     0
  3

  4

  5

  6

  7

 40
1.0
 41
2.5
 42
0.625
 43
3.75
 44
1.25
 45
0.0
 46
0.0
 47
0.0
 48
0.0
140
2.5
141
2.5
142
0.0
143
0.03937007874016
144
1.0
145
0.0
146
1.0
147
0.625
 71
     0
 72
     0
 73
     0
 74
     0
 75
     0
 76
     0
 77
     1
 78
     8
170
     0
171
     3
172
     1
173
     0
174
     0
175
     0
176
     0
177
     0
178
     0
270
     2
271
     2
272
     2
273
     2
274
     3
340
11
275
     0
280
     0
281
     0
282
     0
283
     0
284
     8
285
     0
286
     0
287
     3
288
     0
  0
ENDTAB
  0
TABLE
  2
BLOCK_RECORD
  5
1
330
0
100
AcDbSymbolTable
 70
     1
  0
BLOCK_RECORD
  5
1F
330
1
100
AcDbSymbolTableRecord
100
AcDbBlockTableRecord
  2
*MODEL_SPACE
  0
BLOCK_RECORD
  5
1B
330
1
100
AcDbSymbolTableRecord
100
AcDbBlockTableRecord
  2
*PAPER_SPACE
  0
ENDTAB
  0
ENDSEC
  0
SECTION
  2
BLOCKS
  0
BLOCK
  5
20
330
1F
100
AcDbEntity
  8
0
100
AcDbBlockBegin
  2
*MODEL_SPACE
 70
     0
 10
0.0
 20
0.0
 30
0.0
  3
*MODEL_SPACE
  1

  0
ENDBLK
  5
21
330
1F
100
AcDbEntity
  8
0
100
AcDbBlockEnd
  0
BLOCK
  5
1C
330
1B
100
AcDbEntity
 67
     1
  8
0
100
AcDbBlockBegin
  2
*PAPER_SPACE
  1

  0
ENDBLK
  5
1D
330
1B
100
AcDbEntity
 67
     1
  8
0
100
AcDbBlockEnd
  0
ENDSEC
  0
SECTION
  2
ENTITIES
  0
LWPOLYLINE
  5
100
100
AcDbEntity
  8
Layer_1
 62
7
100
AcDbPolyline
 90
16
 70
1
 10
-514.285712
 20
238.857140
 30
0.0
 10
-503.714288
 20
219.142860
 30
0.0
 10
-496.857144
 20
224.571428
 30
0.0
 10
-438.000000
 20
224.571428
 30
0.0
 10
-415.714288
 20
238.571428
 30
0.0
 10
-406.857144
 20
252.857140
 30
0.0
 10
-411.142856
 20
266.857140
 30
0.0
 10
-429.714288
 20
274.857140
 30
0.0
 10
-452.857144
 20
292.571428
 30
0.0
 10
-470.285712
 20
301.142860
 30
0.0
 10
-485.428576
 20
298.000004
 30
0.0
 10
-491.714288
 20
274.285716
 30
0.0
 10
-490.000000
 20
263.714284
 30
0.0
 10
-489.428576
 20
252.000004
 30
0.0
 10
-497.142856
 20
244.000004
 30
0.0
 10
-514.285712
 20
238.857140
 30
0.0
  0
LWPOLYLINE
  5
101
100
AcDbEntity
  8
Layer_1
 62
7
100
AcDbPolyline
 90
11
 70
1
 10
-514.000000
 20
238.571428
 30
0.0
 10
-533.714288
 20
250.000004
 30
0.0
 10
-552.285712
 20
252.000004
 30
0.0
 10
-551.714288
 20
297.142860
 30
0.0
 10
-531.428576
 20
307.428572
 30
0.0
 10
-512.857144
 20
296.857140
 30
0.0
 10
-485.142856
 20
298.857140
 30
0.0
 10
-491.714288
 20
274.857140
 30
0.0
 10
-489.428576
 20
252.285716
 30
0.0
 10
-496.285712
 20
244.000004
 30
0.0
 10
-514.000000
 20
238.571428
 30
0.0
  0
LWPOLYLINE
  5
102
100
AcDbEntity
  8
Layer_1
 62
7
100
AcDbPolyline
 90
5
 70
1
 10
-530.571432
 20
307.428572
 30
0.0
 10
-482.571432
 20
340.857140
 30
0.0
 10
-469.714288
 20
300.857140
 30
0.0
 10
-512.000000
 20
296.857140
 30
0.0
 10
-530.571432
 20
307.428572
 30
0.0
  0
LWPOLYLINE
  5
103
100
AcDbEntity
  8
Layer_1
 62
7
100
AcDbPolyline
 90
16
 70
1
 10
-482.571432
 20
340.857140
 30
0.0
 10
-454.000000
 20
364.857140
 30
0.0
 10
-448.857144
 20
374.571428
 30
0.0
 10
-429.714288
 20
372.857140
 30
0.0
 10
-406.285712
 20
375.428572
 30
0.0
 10
-384.857144
 20
394.285716
 30
0.0
 10
-372.571432
 20
400.857140
 30
0.0
 10
-345.428568
 20
437.428572
 30
0.0
 10
-311.142856
 20
408.285716
 30
0.0
 10
-305.714288
 20
397.714284
 30
0.0
 10
-303.428568
 20
378.285716
 30
0.0
 10
-318.000000
 20
370.000004
 30
0.0
 10
-402.000000
 20
296.857140
 30
0.0
 10
-411.142856
 20
267.714284
 30
0.0
 10
-469.428576
 20
300.571428
 30
0.0
 10
-482.571432
 20
340.857140
 30
0.0
  0
LWPOLYLINE
  5
104
100
AcDbEntity
  8
Layer_1
 62
7
100
AcDbPolyline
 90
10
 70
1
 10
-448.571432
 20
374.857140
 30
0.0
 10
-429.142856
 20
373.142860
 30
0.0
 10
-406.857144
 20
376.000004
 30
0.0
 10
-382.571432
 20
396.285716
 30
0.0
 10
-372.000000
 20
401.714284
 30
0.0
 10
-396.857144
 20
406.000004
 30
0.0
 10
-418.571432
 20
418.571428
 30
0.0
 10
-427.714288
 20
416.857140
 30
0.0
 10
-455.714288
 20
396.285716
 30
0.0
 10
-448.571432
 20
374.857140
 30
0.0
  0
LWPOLYLINE
  5
105
100
AcDbEntity
  8
Layer_1
 62
7
100
AcDbPolyline
 90
18
 70
1
 10
-456.571432
 20
396.571428
 30
0.0
 10
-489.142856
 20
448.285716
 30
0.0
 10
-497.714288
 20
450.000004
 30
0.0
 10
-485.714288
 20
459.714284
 30
0.0
 10
-439.142856
 20
486.285716
 30
0.0
 10
-427.714288
 20
514.857140
 30
0.0
 10
-437.428576
 20
536.285716
 30
0.0
 10
-422.857144
 20
533.142860
 30
0.0
 10
-394.285712
 20
532.000004
 30
0.0
 10
-387.142856
 20
526.857140
 30
0.0
 10
-355.428568
 20
456.571428
 30
0.0
 10
-348.285712
 20
450.000004
 30
0.0
 10
-344.571432
 20
438.571428
 30
0.0
 10
-370.571432
 20
402.285716
 30
0.0
 10
-395.714288
 20
405.714284
 30
0.0
 10
-417.428576
 20
418.857140
 30
0.0
 10
-426.857144
 20
417.428572
 30
0.0
 10
-456.571432
 20
396.571428
 30
0.0
  0
LWPOLYLINE
  5
106
100
AcDbEntity
  8
Layer_1
 62
7
100
AcDbPolyline
 90
10
 70
1
 10
-498.285712
 20
450.285716
 30
0.0
 10
-510.571432
 20
458.857140
 30
0.0
 10
-519.714288
 20
472.571428
 30
0.0
 10
-520.000000
 20
501.142860
 30
0.0
 10
-487.428576
 20
549.142860
 30
0.0
 10
-468.285712
 20
556.571428
 30
0.0
 10
-437.142856
 20
537.142860
 30
0.0
 10
-428.857144
 20
514.857140
 30
0.0
 10
-440.000000
 20
486.571428
 30
0.0
 10
-498.285712
 20
450.285716
 30
0.0
  0
LWPOLYLINE
  5
107
100
AcDbEntity
  8
Layer_1
 62
7
100
AcDbPolyline
 90
17
 70
1
 10
-466.857144
 20
556.285716
 30
0.0
 10
-466.000000
 20
564.000004
 30
0.0
 10
-431.428576
 20
584.000004
 30
0.0
 10
-412.857144
 20
621.142860
 30
0.0
 10
-396.857144
 20
618.285716
 30
0.0
 10
-364.857144
 20
596.857148
 30
0.0
 10
-354.000000
 20
574.000004
 30
0.0
 10
-342.571432
 20
563.142860
 30
0.0
 10
-339.142856
 20
544.857140
 30
0.0
 10
-341.714288
 20
527.714284
 30
0.0
 10
-353.142856
 20
505.714284
 30
0.0
 10
-369.142856
 20
489.142860
 30
0.0
 10
-386.571432
 20
527.428572
 30
0.0
 10
-397.142856
 20
533.428572
 30
0.0
 10
-420.285712
 20
533.142860
 30
0.0
 10
-435.428576
 20
536.571428
 30
0.0
 10
-466.857144
 20
556.285716
 30
0.0
  0
LWPOLYLINE
  5
108
100
AcDbEntity
  8
Layer_1
 62
7
100
AcDbPolyline
 90
20
 70
1
 10
-303.428568
 20
378.285716
 30
0.0
 10
-283.142856
 20
389.142860
 30
0.0
 10
-263.428568
 20
393.142860
 30
0.0
 10
-240.571432
 20
406.285716
 30
0.0
 10
-234.857144
 20
414.285716
 30
0.0
 10
-250.571432
 20
418.857140
 30
0.0
 10
-260.857144
 20
427.714284
 30
0.0
 10
-265.428568
 20
444.000004
 30
0.0
 10
-260.571432
 20
454.857140
 30
0.0
 10
-227.428568
 20
491.428572
 30
0.0
 10
-291.428568
 20
513.428572
 30
0.0
 10
-330.000000
 20
512.285716
 30
0.0
 10
-344.285712
 20
520.000004
 30
0.0
 10
-369.142856
 20
488.285716
 30
0.0
 10
-354.285712
 20
455.142860
 30
0.0
 10
-347.714288
 20
450.000004
 30
0.0
 10
-344.000000
 20
437.714284
 30
0.0
 10
-310.000000
 20
408.000004
 30
0.0
 10
-304.000000
 20
396.571428
 30
0.0
 10
-303.428568
 20
378.285716
 30
0.0
  0
LWPOLYLINE
  5
109
100
AcDbEntity
  8
Layer_1
 62
7
100
AcDbPolyline
 90
15
 70
1
 10
-227.714288
 20
492.285716
 30
0.0
 10
-218.285712
 20
503.428572
 30
0.0
 10
-216.285712
 20
523.142860
 30
0.0
 10
-218.571432
 20
548.571428
 30
0.0
 10
-207.142856
 20
572.285716
 30
0.0
 10
-206.285712
 20
579.428572
 30
0.0
 10
-230.571432
 20
578.571428
 30
0.0
 10
-236.571432
 20
574.571428
 30
0.0
 10
-252.000000
 20
577.714284
 30
0.0
 10
-271.714288
 20
574.285716
 30
0.0
 10
-264.000000
 20
565.714284
 30
0.0
 10
-261.428568
 20
541.428572
 30
0.0
 10
-260.285712
 20
519.142860
 30
0.0
 10
-266.857144
 20
505.714284
 30
0.0
 10
-227.714288
 20
492.285716
 30
0.0
  0
LWPOLYLINE
  5
10a
100
AcDbEntity
  8
Layer_1
 62
7
100
AcDbPolyline
 90
12
 70
1
 10
-234.000000
 20
414.571428
 30
0.0
 10
-249.714288
 20
419.714284
 30
0.0
 10
-260.000000
 20
427.714284
 30
0.0
 10
-264.857144
 20
444.857140
 30
0.0
 10
-218.000000
 20
505.142860
 30
0.0
 10
-216.571432
 20
532.857140
 30
0.0
 10
-130.571432
 20
525.714284
 30
0.0
 10
-122.000000
 20
493.714284
 30
0.0
 10
-129.142856
 20
483.428572
 30
0.0
 10
-149.142856
 20
472.857140
 30
0.0
 10
-164.285712
 20
481.428572
 30
0.0
 10
-234.000000
 20
414.571428
 30
0.0
  0
LWPOLYLINE
  5
10b
100
AcDbEntity
  8
Layer_1
 62
7
100
AcDbPolyline
 90
13
 70
1
 10
-148.571432
 20
472.857140
 30
0.0
 10
-137.428568
 20
455.714284
 30
0.0
 10
-123.142856
 20
449.714284
 30
0.0
 10
-8.285714
 20
521.714284
 30
0.0
 10
-29.428571
 20
538.000004
 30
0.0
 10
-31.142857
 20
562.571428
 30
0.0
 10
-19.714286
 20
588.857148
 30
0.0
 10
-62.000000
 20
556.857140
 30
0.0
 10
-76.571429
 20
556.857140
 30
0.0
 10
-130.000000
 20
525.142860
 30
0.0
 10
-121.428568
 20
494.000004
 30
0.0
 10
-128.000000
 20
483.428572
 30
0.0
 10
-148.571432
 20
472.857140
 30
0.0
  0
LWPOLYLINE
  5
10c
100
AcDbEntity
  8
Layer_1
 62
7
100
AcDbPolyline
 90
14
 70
1
 10
-216.571432
 20
533.714284
 30
0.0
 10
-128.571432
 20
525.428572
 30
0.0
 10
-76.571429
 20
557.142860
 30
0.0
 10
-60.285714
 20
557.714284
 30
0.0
 10
-17.714286
 20
590.857148
 30
0.0
 10
-76.285714
 20
601.428572
 30
0.0
 10
-89.142856
 20
600.285716
 30
0.0
 10
-148.571432
 20
617.428572
 30
0.0
 10
-179.142856
 20
606.000004
 30
0.0
 10
-199.142856
 20
580.285716
 30
0.0
 10
-205.142856
 20
580.285716
 30
0.0
 10
-206.000000
 20
572.285716
 30
0.0
 10
-218.285712
 20
547.428572
 30
0.0
 10
-216.571432
 20
533.714284
 30
0.0
  0
LWPOLYLINE
  5
10d
100
AcDbEntity
  8
Layer_1
 62
7
100
AcDbPolyline
 90
17
 70
1
 10
-178.571432
 20
606.857148
 30
0.0
 10
-150.571432
 20
617.714284
 30
0.0
 10
-86.571432
 20
600.285716
 30
0.0
 10
-72.571429
 20
602.285716
 30
0.0
 10
-17.142857
 20
591.142860
 30
0.0
 10
-2.000000
 20
619.714284
 30
0.0
 10
-2.571429
 20
681.428572
 30
0.0
 10
-29.142857
 20
684.857148
 30
0.0
 10
-68.857143
 20
680.000004
 30
0.0
 10
-83.714288
 20
687.428572
 30
0.0
 10
-113.714288
 20
741.714284
 30
0.0
 10
-127.714288
 20
746.000004
 30
0.0
 10
-187.714288
 20
706.571428
 30
0.0
 10
-184.285712
 20
673.714284
 30
0.0
 10
-187.428568
 20
655.714284
 30
0.0
 10
-180.000000
 20
618.285716
 30
0.0
 10
-178.571432
 20
606.857148
 30
0.0
  0
LWPOLYLINE
  5
10e
100
AcDbEntity
  8
Layer_1
 62
7
100
AcDbPolyline
 90
16
 70
1
 10
-206.285712
 20
580.571428
 30
0.0
 10
-198.000000
 20
580.857140
 30
0.0
 10
-179.142856
 20
606.285716
 30
0.0
 10
-187.142856
 20
652.000004
 30
0.0
 10
-185.142856
 20
673.142860
 30
0.0
 10
-188.285712
 20
706.857148
 30
0.0
 10
-200.285712
 20
702.000004
 30
0.0
 10
-214.285712
 20
719.142860
 30
0.0
 10
-226.285712
 20
721.714284
 30
0.0
 10
-254.285712
 20
695.142860
 30
0.0
 10
-251.714288
 20
677.714284
 30
0.0
 10
-241.714288
 20
664.571428
 30
0.0
 10
-224.000000
 20
626.857148
 30
0.0
 10
-227.428568
 20
596.285716
 30
0.0
 10
-206.857144
 20
589.142860
 30
0.0
 10
-206.285712
 20
580.571428
 30
0.0
  0
LWPOLYLINE
  5
10f
100
AcDbEntity
  8
Layer_1
 62
7
100
AcDbPolyline
 90
17
 70
1
 10
-206.571432
 20
580.285716
 30
0.0
 10
-207.142856
 20
589.142860
 30
0.0
 10
-227.714288
 20
596.285716
 30
0.0
 10
-224.000000
 20
626.857148
 30
0.0
 10
-241.142856
 20
663.142860
 30
0.0
 10
-250.000000
 20
673.142860
 30
0.0
 10
-255.142856
 20
694.857148
 30
0.0
 10
-274.000000
 20
683.142860
 30
0.0
 10
-274.000000
 20
664.285716
 30
0.0
 10
-269.142856
 20
650.857148
 30
0.0
 10
-278.571432
 20
589.714284
 30
0.0
 10
-278.285712
 20
578.857140
 30
0.0
 10
-271.142856
 20
573.714284
 30
0.0
 10
-251.142856
 20
577.714284
 30
0.0
 10
-236.857144
 20
574.000004
 30
0.0
 10
-229.428568
 20
579.142860
 30
0.0
 10
-206.571432
 20
580.285716
 30
0.0
  0
LWPOLYLINE
  5
110
100
AcDbEntity
  8
Layer_1
 62
7
100
AcDbPolyline
 90
20
 70
1
 10
-274.857144
 20
682.571428
 30
0.0
 10
-288.285712
 20
676.285716
 30
0.0
 10
-295.428568
 20
676.571428
 30
0.0
 10
-322.571432
 20
697.142860
 30
0.0
 10
-321.714288
 20
708.285716
 30
0.0
 10
-326.571432
 20
716.571428
 30
0.0
 10
-343.142856
 20
719.428572
 30
0.0
 10
-342.000000
 20
713.714284
 30
0.0
 10
-345.142856
 20
702.571428
 30
0.0
 10
-362.000000
 20
691.142860
 30
0.0
 10
-394.857144
 20
675.142860
 30
0.0
 10
-406.571432
 20
638.857148
 30
0.0
 10
-372.857144
 20
631.428572
 30
0.0
 10
-356.857144
 20
632.571428
 30
0.0
 10
-338.857144
 20
615.428572
 30
0.0
 10
-325.714288
 20
612.857148
 30
0.0
 10
-271.428568
 20
638.000004
 30
0.0
 10
-270.000000
 20
651.714284
 30
0.0
 10
-274.285712
 20
661.428572
 30
0.0
 10
-274.857144
 20
682.571428
 30
0.0
  0
LWPOLYLINE
  5
111
100
AcDbEntity
  8
Layer_1
 62
7
100
AcDbPolyline
 90
20
 70
1
 10
-406.857144
 20
639.142860
 30
0.0
 10
-413.428576
 20
621.714284
 30
0.0
 10
-397.142856
 20
618.571428
 30
0.0
 10
-364.285712
 20
596.571428
 30
0.0
 10
-353.142856
 20
573.428572
 30
0.0
 10
-342.571432
 20
564.000004
 30
0.0
 10
-338.571432
 20
543.428572
 30
0.0
 10
-344.571432
 20
520.000004
 30
0.0
 10
-329.142856
 20
513.142860
 30
0.0
 10
-289.428568
 20
513.428572
 30
0.0
 10
-267.142856
 20
505.428572
 30
0.0
 10
-260.285712
 20
519.428572
 30
0.0
 10
-264.571432
 20
566.000004
 30
0.0
 10
-278.857144
 20
579.142860
 30
0.0
 10
-271.428568
 20
637.714284
 30
0.0
 10
-326.285712
 20
612.571428
 30
0.0
 10
-339.142856
 20
615.142860
 30
0.0
 10
-356.000000
 20
632.857148
 30
0.0
 10
-374.571432
 20
630.571428
 30
0.0
 10
-406.857144
 20
639.142860
 30
0.0
  0
ENDSEC
  0
SECTION
  2
OBJECTS
  0
DICTIONARY
  5
C
330
0
100
AcDbDictionary
  3
ACAD_GROUP
350
D
  3
ACAD_MLINESTYLE
350
17
  0
DICTIONARY
  5
D
330
C
100
AcDbDictionary
  0
DICTIONARY
  5
1A
330
C
100
AcDbDictionary
  0
DICTIONARY
  5
17
330
C
100
AcDbDictionary
  3
STANDARD
350
18
  0
DICTIONARY
  5
19
330
C
100
AcDbDictionary
  0
ENDSEC
  0
EOF
