  0
SECTION
  2
HEADER
  9
$ACADVER
  1
AC1014
  9
$HANDSEED
  5
FFFF
  9
$MEASUREMENT
 70
     1
  0
ENDSEC
  0
SECTION
  2
TABLES
  0
TABLE
  2
VPORT
  5
8
330
0
100
AcDbSymbolTable
 70
     4
  0
VPORT
  5
2E
330
8
100
AcDbSymbolTableRecord
100
AcDbViewportTableRecord
  2
*ACTIVE
 70
     0
 10
0.0
 20
0.0
 11
1.0
 21
1.0
 12
210.0
 22
148.5
 13
0.0
 23
0.0
 14
10.0
 24
10.0
 15
10.0
 25
10.0
 16
0.0
 26
0.0
 36
1.0
 17
0.0
 27
0.0
 37
0.0
 40
341.0
 41
1.24
 42
50.0
 43
0.0
 44
0.0
 50
0.0
 51
0.0
 71
     0
 72
   100
 73
     1
 74
     3
 75
     0
 76
     0
 77
     0
 78
     0
  0
ENDTAB
  0
TABLE
  2
LTYPE
  5
5
330
0
100
AcDbSymbolTable
 70
     1
  0
LTYPE
  5
14
330
5
100
AcDbSymbolTableRecord
100
AcDbLinetypeTableRecord
  2
BYBLOCK
 70
     0
  3

 72
    65
 73
     0
 40
0.0
  0
LTYPE
  5
15
330
5
100
AcDbSymbolTableRecord
100
AcDbLinetypeTableRecord
  2
BYLAYER
 70
     0
  3

 72
    65
 73
     0
 40
0.0
  0
LTYPE
  5
16
330
5
100
AcDbSymbolTableRecord
100
AcDbLinetypeTableRecord
  2
CONTINUOUS
 70
     0
  3
Solid line
 72
    65
 73
     0
 40
0.0
  0
ENDTAB
  0
TABLE
  2
LAYER
  5
2
100
AcDbSymbolTable
 70
2
  0
LAYER
  5
50
100
AcDbSymbolTableRecord
100
AcDbLayerTableRecord
  2
0
 70
0
  6
CONTINUOUS
  0
LAYER
  5
51
100
AcDbSymbolTableRecord
100
AcDbLayerTableRecord
  2
Layer_1
 70
0
  6
CONTINUOUS
  0
ENDTAB
  0
TABLE
  2
STYLE
  5
3
330
0
100
AcDbSymbolTable
 70
     1
  0
STYLE
  5
11
330
3
100
AcDbSymbolTableRecord
100
AcDbTextStyleTableRecord
  2
STANDARD
 70
     0
 40
0.0
 41
1.0
 50
0.0
 71
     0
 42
2.5
  3
txt
  4

  0
ENDTAB
  0
TABLE
  2
VIEW
  5
6
330
0
100
AcDbSymbolTable
 70
     0
  0
ENDTAB
  0
TABLE
  2
UCS
  5
7
330
0
100
AcDbSymbolTable
 70
     0
  0
ENDTAB
  0
TABLE
  2
APPID
  5
9
330
0
100
AcDbSymbolTable
 70
     2
  0
APPID
  5
12
330
9
100
AcDbSymbolTableRecord
100
AcDbRegAppTableRecord
  2
ACAD
 70
     0
  0
ENDTAB
  0
TABLE
  2
DIMSTYLE
  5
A
330
0
100
AcDbSymbolTable
 70
     1
  0
DIMSTYLE
105
27
330
A
100
AcDbSymbolTableRecord
100
AcDbDimStyleTableRecord
  2
ISO-25
 70
     0
  3

  4

  5

  6

  7

 40
1.0
 41
2.5
 42
0.625
 43
3.75
 44
1.25
 45
0.0
 46
0.0
 47
0.0
 48
0.0
140
2.5
141
2.5
142
0.0
143
0.03937007874016
144
1.0
145
0.0
146
1.0
147
0.625
 71
     0
 72
     0
 73
     0
 74
     0
 75
     0
 76
     0
 77
     1
 78
     8
170
     0
171
     3
172
     1
173
     0
174
     0
175
     0
176
     0
177
     0
178
     0
270
     2
271
     2
272
     2
273
     2
274
     3
340
11
275
     0
280
     0
281
     0
282
     0
283
     0
284
     8
285
     0
286
     0
287
     3
288
     0
  0
ENDTAB
  0
TABLE
  2
BLOCK_RECORD
  5
1
330
0
100
AcDbSymbolTable
 70
     1
  0
BLOCK_RECORD
  5
1F
330
1
100
AcDbSymbolTableRecord
100
AcDbBlockTableRecord
  2
*MODEL_SPACE
  0
BLOCK_RECORD
  5
1B
330
1
100
AcDbSymbolTableRecord
100
AcDbBlockTableRecord
  2
*PAPER_SPACE
  0
ENDTAB
  0
ENDSEC
  0
SECTION
  2
BLOCKS
  0
BLOCK
  5
20
330
1F
100
AcDbEntity
  8
0
100
AcDbBlockBegin
  2
*MODEL_SPACE
 70
     0
 10
0.0
 20
0.0
 30
0.0
  3
*MODEL_SPACE
  1

  0
ENDBLK
  5
21
330
1F
100
AcDbEntity
  8
0
100
AcDbBlockEnd
  0
BLOCK
  5
1C
330
1B
100
AcDbEntity
 67
     1
  8
0
100
AcDbBlockBegin
  2
*PAPER_SPACE
  1

  0
ENDBLK
  5
1D
330
1B
100
AcDbEntity
 67
     1
  8
0
100
AcDbBlockEnd
  0
ENDSEC
  0
SECTION
  2
ENTITIES
  0
LWPOLYLINE
  5
100
100
AcDbEntity
  8
Layer_1
 62
7
100
AcDbPolyline
 90
19
 70
1
 10
-128.895464
 20
548.916892
 30
0.0
 10
-112.328960
 20
536.391004
 30
0.0
 10
-115.763480
 20
528.107748
 30
0.0
 10
-110.308656
 20
524.067140
 30
0.0
 10
-110.914752
 20
505.480332
 30
0.0
 10
-118.389880
 20
493.358500
 30
0.0
 10
-124.046736
 20
494.368660
 30
0.0
 10
-128.289376
 20
491.540228
 30
0.0
 10
-132.532016
 20
494.974748
 30
0.0
 10
-132.734048
 20
498.005204
 30
0.0
 10
-141.825416
 20
492.752412
 30
0.0
 10
-147.280240
 20
497.197084
 30
0.0
 10
-144.653848
 20
502.045812
 30
0.0
 10
-148.290392
 20
506.086428
 30
0.0
 10
-134.148256
 20
510.733124
 30
0.0
 10
-133.946224
 20
517.804196
 30
0.0
 10
-139.401048
 20
522.854956
 30
0.0
 10
-140.209176
 20
527.905724
 30
0.0
 10
-128.895464
 20
548.916892
 30
0.0
  0
LWPOLYLINE
  5
101
100
AcDbEntity
  8
Layer_1
 62
7
100
AcDbPolyline
 90
24
 70
1
 10
-112.126936
 20
535.784908
 30
0.0
 10
-115.359424
 20
527.703692
 30
0.0
 10
-109.702568
 20
523.461052
 30
0.0
 10
-107.278200
 20
527.905724
 30
0.0
 10
-101.015256
 20
525.481356
 30
0.0
 10
-101.015256
 20
520.632620
 30
0.0
 10
-93.540128
 20
514.369676
 30
0.0
 10
-83.842664
 20
513.561556
 30
0.0
 10
-85.458904
 20
510.127036
 30
0.0
 10
-79.195960
 20
512.753436
 30
0.0
 10
-79.397990
 20
508.308764
 30
0.0
 10
-75.357380
 20
510.329068
 30
0.0
 10
-78.185807
 20
513.763588
 30
0.0
 10
-77.175654
 20
519.218412
 30
0.0
 10
-80.206112
 20
527.501660
 30
0.0
 10
-77.377685
 20
536.997092
 30
0.0
 10
-80.812200
 20
542.451916
 30
0.0
 10
-80.812200
 20
545.886436
 30
0.0
 10
-85.862968
 20
547.502684
 30
0.0
 10
-101.823376
 20
535.784908
 30
0.0
 10
-101.823376
 20
531.946332
 30
0.0
 10
-105.055864
 20
532.956484
 30
0.0
 10
-105.055864
 20
530.532116
 30
0.0
 10
-112.126936
 20
535.784908
 30
0.0
  0
LWPOLYLINE
  5
102
100
AcDbEntity
  8
Layer_1
 62
7
100
AcDbPolyline
 90
19
 70
1
 10
-87.479208
 20
546.896588
 30
0.0
 10
-88.489360
 20
547.502684
 30
0.0
 10
-87.075152
 20
552.755476
 30
0.0
 10
-81.418296
 20
555.583900
 30
0.0
 10
-76.771594
 20
548.108772
 30
0.0
 10
-74.751289
 20
539.421460
 30
0.0
 10
-60.811183
 20
540.229580
 30
0.0
 10
-55.356359
 20
539.421460
 30
0.0
 10
-62.225397
 20
532.148364
 30
0.0
 10
-63.437580
 20
521.238716
 30
0.0
 10
-67.074129
 20
517.400132
 30
0.0
 10
-76.569563
 20
517.198100
 30
0.0
 10
-76.569563
 20
521.036684
 30
0.0
 10
-79.600021
 20
527.299628
 30
0.0
 10
-76.973624
 20
536.997092
 30
0.0
 10
-80.610176
 20
542.653948
 30
0.0
 10
-81.216264
 20
546.694556
 30
0.0
 10
-86.065000
 20
547.906740
 30
0.0
 10
-87.479208
 20
546.896588
 30
0.0
  0
LWPOLYLINE
  5
103
100
AcDbEntity
  8
Layer_1
 62
7
100
AcDbPolyline
 90
28
 70
1
 10
-80.206112
 20
507.904700
 30
0.0
 10
-95.156368
 20
505.480332
 30
0.0
 10
-107.076168
 20
496.186932
 30
0.0
 10
-110.914752
 20
487.095556
 30
0.0
 10
-108.086320
 20
485.075252
 30
0.0
 10
-108.692416
 20
480.630580
 30
0.0
 10
-104.045712
 20
479.216372
 30
0.0
 10
-108.288352
 20
474.771700
 30
0.0
 10
-108.692416
 20
470.124996
 30
0.0
 10
-114.753328
 20
468.306724
 30
0.0
 10
-116.167544
 20
474.165604
 30
0.0
 10
-119.400032
 20
473.761548
 30
0.0
 10
-122.632520
 20
476.994036
 30
0.0
 10
-128.289376
 20
474.973724
 30
0.0
 10
-130.107648
 20
478.206212
 30
0.0
 10
-127.481248
 20
491.338196
 30
0.0
 10
-123.440640
 20
494.166628
 30
0.0
 10
-118.187848
 20
492.954444
 30
0.0
 10
-110.308656
 20
505.480332
 30
0.0
 10
-110.308656
 20
522.854956
 30
0.0
 10
-107.076168
 20
527.703692
 30
0.0
 10
-100.813224
 20
525.481356
 30
0.0
 10
-101.217288
 20
520.632620
 30
0.0
 10
-93.136064
 20
514.167644
 30
0.0
 10
-84.448752
 20
513.561556
 30
0.0
 10
-85.862968
 20
509.520948
 30
0.0
 10
-79.600021
 20
512.753436
 30
0.0
 10
-80.206112
 20
507.904700
 30
0.0
  0
LWPOLYLINE
  5
104
100
AcDbEntity
  8
Layer_1
 62
7
100
AcDbPolyline
 90
25
 70
1
 10
-103.843680
 20
479.216372
 30
0.0
 10
-108.692416
 20
481.034644
 30
0.0
 10
-107.884288
 20
485.075252
 30
0.0
 10
-110.914752
 20
487.499620
 30
0.0
 10
-106.874136
 20
496.186932
 30
0.0
 10
-94.752312
 20
505.884396
 30
0.0
 10
-74.751289
 20
510.127036
 30
0.0
 10
-67.478190
 20
505.682364
 30
0.0
 10
-64.245702
 20
508.510796
 30
0.0
 10
-60.205092
 20
506.288460
 30
0.0
 10
-64.245702
 20
504.268148
 30
0.0
 10
-62.629458
 20
498.611300
 30
0.0
 10
-55.558390
 20
498.409268
 30
0.0
 10
-54.144177
 20
490.732108
 30
0.0
 10
-51.921841
 20
491.742260
 30
0.0
 10
-48.487322
 20
483.863068
 30
0.0
 10
-57.982756
 20
476.387940
 30
0.0
 10
-60.609153
 20
480.630580
 30
0.0
 10
-71.720830
 20
486.893524
 30
0.0
 10
-78.993929
 20
485.277284
 30
0.0
 10
-80.206112
 20
490.934140
 30
0.0
 10
-92.934032
 20
491.136172
 30
0.0
 10
-93.540128
 20
488.105708
 30
0.0
 10
-97.782768
 20
488.509772
 30
0.0
 10
-103.843680
 20
479.216372
 30
0.0
  0
LWPOLYLINE
  5
105
100
AcDbEntity
  8
Layer_1
 62
7
100
AcDbPolyline
 90
26
 70
1
 10
-76.973624
 20
516.996076
 30
0.0
 10
-66.670068
 20
517.198100
 30
0.0
 10
-63.033519
 20
521.238716
 30
0.0
 10
-62.225397
 20
532.552420
 30
0.0
 10
-52.123871
 20
541.441764
 30
0.0
 10
-46.264986
 20
537.199124
 30
0.0
 10
-46.264986
 20
533.360548
 30
0.0
 10
-42.830468
 20
531.744300
 30
0.0
 10
-41.012194
 20
535.178820
 30
0.0
 10
-32.526912
 20
532.148364
 30
0.0
 10
-32.526912
 20
528.309780
 30
0.0
 10
-27.880210
 20
529.926028
 30
0.0
 10
-32.324882
 20
513.561556
 30
0.0
 10
-34.749247
 20
513.763588
 30
0.0
 10
-34.345186
 20
522.450900
 30
0.0
 10
-45.456865
 20
520.228564
 30
0.0
 10
-47.275139
 20
516.592012
 30
0.0
 10
-51.719810
 20
516.592012
 30
0.0
 10
-53.336054
 20
519.622468
 30
0.0
 10
-58.386817
 20
515.581860
 30
0.0
 10
-58.184786
 20
512.955460
 30
0.0
 10
-61.619306
 20
512.349372
 30
0.0
 10
-67.478190
 20
506.086428
 30
0.0
 10
-74.953319
 20
510.329068
 30
0.0
 10
-78.589868
 20
513.965612
 30
0.0
 10
-76.973624
 20
516.996076
 30
0.0
  0
LWPOLYLINE
  5
106
100
AcDbEntity
  8
Layer_1
 62
7
100
AcDbPolyline
 90
29
 70
1
 10
-50.507627
 20
482.044796
 30
0.0
 10
-48.689353
 20
479.822460
 30
0.0
 10
-43.234529
 20
482.044796
 30
0.0
 10
-44.850773
 20
485.277284
 30
0.0
 10
-35.153309
 20
486.691500
 30
0.0
 10
-32.930973
 20
489.923988
 30
0.0
 10
-34.749247
 20
491.742260
 30
0.0
 10
-32.324882
 20
493.964596
 30
0.0
 10
-28.890363
 20
505.480332
 30
0.0
 10
-33.537065
 20
510.329068
 30
0.0
 10
-32.122851
 20
513.359524
 30
0.0
 10
-34.951278
 20
513.561556
 30
0.0
 10
-34.749247
 20
522.450900
 30
0.0
 10
-45.860926
 20
519.824500
 30
0.0
 10
-46.871078
 20
515.985924
 30
0.0
 10
-51.517780
 20
516.592012
 30
0.0
 10
-53.942146
 20
519.824500
 30
0.0
 10
-58.386817
 20
515.783892
 30
0.0
 10
-57.578695
 20
512.551404
 30
0.0
 10
-62.023366
 20
511.945308
 30
0.0
 10
-64.043671
 20
508.914852
 30
0.0
 10
-59.801030
 20
506.086428
 30
0.0
 10
-64.245702
 20
504.066124
 30
0.0
 10
-62.225397
 20
498.611300
 30
0.0
 10
-55.356359
 20
498.813324
 30
0.0
 10
-53.942146
 20
490.328044
 30
0.0
 10
-51.517780
 20
491.742260
 30
0.0
 10
-48.083262
 20
483.661036
 30
0.0
 10
-50.507627
 20
482.044796
 30
0.0
  0
LWPOLYLINE
  5
107
100
AcDbEntity
  8
Layer_1
 62
7
100
AcDbPolyline
 90
22
 70
1
 10
-44.446712
 20
481.034644
 30
0.0
 10
-24.849753
 20
472.145300
 30
0.0
 10
-29.092394
 20
465.276260
 30
0.0
 10
-24.849753
 20
460.023468
 30
0.0
 10
-19.192898
 20
465.074236
 30
0.0
 10
-5.858885
 20
461.639716
 30
0.0
 10
2.626397
 20
472.347332
 30
0.0
 10
-1.414214
 20
484.671188
 30
0.0
 10
2.828427
 20
501.641756
 30
0.0
 10
15.556350
 20
514.369676
 30
0.0
 10
10.707617
 20
518.814348
 30
0.0
 10
-23.233509
 20
535.380852
 30
0.0
 10
-27.880210
 20
530.936180
 30
0.0
 10
-33.133003
 20
509.925004
 30
0.0
 10
-28.486302
 20
504.672212
 30
0.0
 10
-32.122851
 20
493.560532
 30
0.0
 10
-34.951278
 20
491.944292
 30
0.0
 10
-32.324882
 20
489.721956
 30
0.0
 10
-34.951278
 20
486.489468
 30
0.0
 10
-44.850773
 20
485.883372
 30
0.0
 10
-43.032498
 20
482.650884
 30
0.0
 10
-44.446712
 20
481.034644
 30
0.0
  0
LWPOLYLINE
  5
108
100
AcDbEntity
  8
Layer_1
 62
7
100
AcDbPolyline
 90
19
 70
1
 10
-51.719810
 20
541.643796
 30
0.0
 10
-39.800010
 20
556.796084
 30
0.0
 10
-35.557370
 20
558.412324
 30
0.0
 10
-29.496454
 20
563.867148
 30
0.0
 10
-14.546197
 20
559.018420
 30
0.0
 10
-6.060915
 20
564.473244
 30
0.0
 10
1.414214
 20
561.442788
 30
0.0
 10
-1.010153
 20
552.149380
 30
0.0
 10
0.000000
 20
545.684404
 30
0.0
 10
-14.950258
 20
531.946332
 30
0.0
 10
-22.829447
 20
535.582884
 30
0.0
 10
-28.688332
 20
530.128060
 30
0.0
 10
-32.930973
 20
528.713844
 30
0.0
 10
-31.920821
 20
533.158516
 30
0.0
 10
-40.810163
 20
535.380852
 30
0.0
 10
-42.628438
 20
531.542268
 30
0.0
 10
-46.264986
 20
533.360548
 30
0.0
 10
-46.467017
 20
537.401156
 30
0.0
 10
-51.719810
 20
541.643796
 30
0.0
  0
LWPOLYLINE
  5
109
100
AcDbEntity
  8
Layer_1
 62
7
100
AcDbPolyline
 90
11
 70
1
 10
-54.952298
 20
540.027548
 30
0.0
 10
-52.123871
 20
542.249884
 30
0.0
 10
-54.144177
 20
546.492524
 30
0.0
 10
-64.851794
 20
544.270196
 30
0.0
 10
-70.710678
 20
551.341260
 30
0.0
 10
-72.326922
 20
562.250908
 30
0.0
 10
-77.781746
 20
566.089484
 30
0.0
 10
-81.014232
 20
555.381868
 30
0.0
 10
-76.165502
 20
547.704708
 30
0.0
 10
-74.347227
 20
539.421460
 30
0.0
 10
-54.952298
 20
540.027548
 30
0.0
  0
LWPOLYLINE
  5
10a
100
AcDbEntity
  8
Layer_1
 62
7
100
AcDbPolyline
 90
21
 70
1
 10
-76.771594
 20
566.493548
 30
0.0
 10
-76.569563
 20
570.938220
 30
0.0
 10
-70.306618
 20
578.817412
 30
0.0
 10
-78.387838
 20
583.464108
 30
0.0
 10
-88.287336
 20
584.070204
 30
0.0
 10
-87.883272
 20
576.595076
 30
0.0
 10
-94.146216
 20
576.595076
 30
0.0
 10
-92.327944
 20
586.494572
 30
0.0
 10
-113.743176
 20
584.878324
 30
0.0
 10
-117.985816
 20
563.261060
 30
0.0
 10
-128.491400
 20
548.512836
 30
0.0
 10
-105.257896
 20
530.936180
 30
0.0
 10
-105.055864
 20
532.754452
 30
0.0
 10
-101.419312
 20
531.542268
 30
0.0
 10
-102.025408
 20
535.986940
 30
0.0
 10
-87.277184
 20
546.896588
 30
0.0
 10
-88.691392
 20
547.906740
 30
0.0
 10
-87.883272
 20
552.957508
 30
0.0
 10
-81.216264
 20
555.381868
 30
0.0
 10
-78.185807
 20
566.089484
 30
0.0
 10
-76.771594
 20
566.493548
 30
0.0
  0
LWPOLYLINE
  5
10b
100
AcDbEntity
  8
Layer_1
 62
7
100
AcDbPolyline
 90
29
 70
1
 10
-78.589868
 20
584.070204
 30
0.0
 10
-70.508648
 20
592.151420
 30
0.0
 10
-67.074129
 20
602.252948
 30
0.0
 10
-67.074129
 20
613.768684
 30
0.0
 10
-61.821336
 20
622.253972
 30
0.0
 10
-61.619306
 20
628.920972
 30
0.0
 10
-47.679200
 20
635.587980
 30
0.0
 10
-32.526912
 20
619.021484
 30
0.0
 10
-23.435539
 20
621.041788
 30
0.0
 10
-11.111678
 20
610.334172
 30
0.0
 10
-8.889342
 20
595.990004
 30
0.0
 10
-1.616244
 20
590.939236
 30
0.0
 10
-4.242641
 20
583.868172
 30
0.0
 10
-2.828427
 20
575.786948
 30
0.0
 10
-7.475129
 20
571.140252
 30
0.0
 10
-6.464976
 20
564.473244
 30
0.0
 10
-14.142136
 20
559.624508
 30
0.0
 10
-29.496454
 20
563.665124
 30
0.0
 10
-35.153309
 20
558.412324
 30
0.0
 10
-40.002041
 20
556.796084
 30
0.0
 10
-51.315750
 20
542.249884
 30
0.0
 10
-54.144177
 20
546.492524
 30
0.0
 10
-65.053824
 20
544.674252
 30
0.0
 10
-70.508648
 20
551.341260
 30
0.0
 10
-71.922862
 20
562.654972
 30
0.0
 10
-77.377685
 20
565.685428
 30
0.0
 10
-76.165502
 20
570.938220
 30
0.0
 10
-70.306618
 20
578.817412
 30
0.0
 10
-78.589868
 20
584.070204
 30
0.0
  0
LWPOLYLINE
  5
10c
100
AcDbEntity
  8
Layer_1
 62
7
100
AcDbPolyline
 90
28
 70
1
 10
-14.748227
 20
531.744300
 30
0.0
 10
15.354318
 20
514.571708
 30
0.0
 10
28.890363
 20
517.804196
 30
0.0
 10
32.728942
 20
523.865108
 30
0.0
 10
28.486302
 20
531.138212
 30
0.0
 10
29.092394
 20
534.168668
 30
0.0
 10
48.689353
 20
542.047860
 30
0.0
 10
46.669048
 20
561.846844
 30
0.0
 10
48.891383
 20
569.726036
 30
0.0
 10
54.346207
 20
571.746340
 30
0.0
 10
52.325902
 20
578.413348
 30
0.0
 10
60.609153
 20
586.292540
 30
0.0
 10
55.558390
 20
593.565636
 30
0.0
 10
40.204071
 20
595.585940
 30
0.0
 10
37.981736
 20
594.373756
 30
0.0
 10
31.718790
 20
603.869196
 30
0.0
 10
10.505586
 20
607.101684
 30
0.0
 10
7.475129
 20
603.667164
 30
0.0
 10
9.091373
 20
597.808276
 30
0.0
 10
-1.212183
 20
590.737212
 30
0.0
 10
-4.242641
 20
584.070204
 30
0.0
 10
-2.626397
 20
576.393044
 30
0.0
 10
-7.475129
 20
571.140252
 30
0.0
 10
-6.262946
 20
564.069180
 30
0.0
 10
1.818275
 20
561.240756
 30
0.0
 10
-1.010153
 20
552.553444
 30
0.0
 10
0.000000
 20
545.482372
 30
0.0
 10
-14.748227
 20
531.744300
 30
0.0
  0
LWPOLYLINE
  5
10d
100
AcDbEntity
  8
Layer_1
 62
7
100
AcDbPolyline
 90
25
 70
1
 10
-213.950312
 20
505.480332
 30
0.0
 10
-210.313760
 20
505.076276
 30
0.0
 10
-207.889392
 20
502.247844
 30
0.0
 10
-182.231520
 20
503.055972
 30
0.0
 10
-156.371616
 20
494.772716
 30
0.0
 10
-145.461968
 20
502.853940
 30
0.0
 10
-148.896488
 20
505.682364
 30
0.0
 10
-134.350288
 20
510.935156
 30
0.0
 10
-133.946224
 20
517.602164
 30
0.0
 10
-138.794960
 20
522.652924
 30
0.0
 10
-140.209176
 20
528.309780
 30
0.0
 10
-117.581760
 20
564.271212
 30
0.0
 10
-117.581760
 20
568.715884
 30
0.0
 10
-115.763480
 20
572.150404
 30
0.0
 10
-118.995968
 20
572.150404
 30
0.0
 10
-124.854856
 20
576.595076
 30
0.0
 10
-166.271112
 20
549.927044
 30
0.0
 10
-170.109688
 20
540.835676
 30
0.0
 10
-174.352328
 20
540.633644
 30
0.0
 10
-183.847760
 20
554.573748
 30
0.0
 10
-186.878224
 20
553.563596
 30
0.0
 10
-194.151320
 20
531.542268
 30
0.0
 10
-205.060968
 20
519.824500
 30
0.0
 10
-212.738128
 20
510.127036
 30
0.0
 10
-213.950312
 20
505.480332
 30
0.0
  0
LWPOLYLINE
  5
10e
100
AcDbEntity
  8
Layer_1
 62
7
100
AcDbPolyline
 90
21
 70
1
 10
-183.039640
 20
554.977812
 30
0.0
 10
-181.423400
 20
559.422484
 30
0.0
 10
-185.666040
 20
563.867148
 30
0.0
 10
-186.474160
 20
571.948372
 30
0.0
 10
-183.443704
 20
576.999132
 30
0.0
 10
-176.372632
 20
577.403196
 30
0.0
 10
-182.231520
 20
587.908780
 30
0.0
 10
-183.645736
 20
596.192036
 30
0.0
 10
-170.513752
 20
597.404220
 30
0.0
 10
-168.695472
 20
605.283404
 30
0.0
 10
-148.694456
 20
594.575788
 30
0.0
 10
-147.078208
 20
584.878324
 30
0.0
 10
-143.441664
 20
582.858020
 30
0.0
 10
-148.492424
 20
576.393044
 30
0.0
 10
-147.482272
 20
571.544308
 30
0.0
 10
-138.188872
 20
570.332124
 30
0.0
 10
-140.815264
 20
566.695580
 30
0.0
 10
-166.473136
 20
550.331108
 30
0.0
 10
-170.109688
 20
540.835676
 30
0.0
 10
-173.948272
 20
540.431612
 30
0.0
 10
-183.039640
 20
554.977812
 30
0.0
  0
LWPOLYLINE
  5
10f
100
AcDbEntity
  8
Layer_1
 62
7
100
AcDbPolyline
 90
24
 70
1
 10
-185.261976
 20
613.162596
 30
0.0
 10
-174.352328
 20
607.101684
 30
0.0
 10
-170.715784
 20
608.717924
 30
0.0
 10
-169.099536
 20
604.677316
 30
0.0
 10
-159.200040
 20
600.636708
 30
0.0
 10
-157.381768
 20
602.657012
 30
0.0
 10
-121.420336
 20
607.101684
 30
0.0
 10
-107.884288
 20
619.223508
 30
0.0
 10
-112.126936
 20
644.477324
 30
0.0
 10
-133.946224
 20
657.205244
 30
0.0
 10
-135.966536
 20
651.952452
 30
0.0
 10
-134.350288
 20
644.679356
 30
0.0
 10
-140.815264
 20
637.002196
 30
0.0
 10
-151.320848
 20
638.012348
 30
0.0
 10
-154.957400
 20
633.769708
 30
0.0
 10
-158.593952
 20
635.992044
 30
0.0
 10
-165.867048
 20
630.335188
 30
0.0
 10
-172.938112
 20
630.335188
 30
0.0
 10
-180.211216
 20
627.102700
 30
0.0
 10
-180.413248
 20
623.870212
 30
0.0
 10
-175.362480
 20
622.253972
 30
0.0
 10
-176.574664
 20
616.799148
 30
0.0
 10
-181.625424
 20
615.384932
 30
0.0
 10
-185.261976
 20
613.162596
 30
0.0
  0
LWPOLYLINE
  5
110
100
AcDbEntity
  8
Layer_1
 62
7
100
AcDbPolyline
 90
37
 70
1
 10
-185.261976
 20
613.364628
 30
0.0
 10
-173.948272
 20
606.495588
 30
0.0
 10
-169.705624
 20
608.717924
 30
0.0
 10
-169.301568
 20
604.677316
 30
0.0
 10
-170.513752
 20
598.010308
 30
0.0
 10
-184.453856
 20
596.394060
 30
0.0
 10
-182.433552
 20
586.696596
 30
0.0
 10
-176.776696
 20
577.403196
 30
0.0
 10
-182.635584
 20
576.797108
 30
0.0
 10
-185.868072
 20
572.352436
 30
0.0
 10
-186.474160
 20
563.463092
 30
0.0
 10
-181.423400
 20
560.028572
 30
0.0
 10
-183.443704
 20
554.775780
 30
0.0
 10
-187.080248
 20
553.765628
 30
0.0
 10
-195.363504
 20
530.330084
 30
0.0
 10
-213.142184
 20
510.329068
 30
0.0
 10
-213.950312
 20
505.278300
 30
0.0
 10
-225.870112
 20
502.449876
 30
0.0
 10
-227.486352
 20
504.874244
 30
0.0
 10
-233.345240
 20
502.853940
 30
0.0
 10
-246.477224
 20
514.571708
 30
0.0
 10
-243.648792
 20
521.844804
 30
0.0
 10
-249.911736
 20
524.673236
 30
0.0
 10
-252.336104
 20
522.854956
 30
0.0
 10
-249.507680
 20
533.562572
 30
0.0
 10
-240.618336
 20
536.391004
 30
0.0
 10
-244.860976
 20
543.462068
 30
0.0
 10
-243.648792
 20
551.341260
 30
0.0
 10
-252.336104
 20
568.109796
 30
0.0
 10
-250.113768
 20
597.000156
 30
0.0
 10
-239.406152
 20
599.222492
 30
0.0
 10
-225.264016
 20
593.969700
 30
0.0
 10
-216.172648
 20
596.596092
 30
0.0
 10
-213.344216
 20
603.263100
 30
0.0
 10
-203.040664
 20
605.081372
 30
0.0
 10
-191.726952
 20
615.788996
 30
0.0
 10
-185.261976
 20
613.364628
 30
0.0
  0
LWPOLYLINE
  5
111
100
AcDbEntity
  8
Layer_1
 62
7
100
AcDbPolyline
 90
47
 70
1
 10
-249.709712
 20
534.168668
 30
0.0
 10
-251.123920
 20
535.380852
 30
0.0
 10
-256.376720
 20
530.936180
 30
0.0
 10
-258.599048
 20
532.148364
 30
0.0
 10
-255.568592
 20
540.229580
 30
0.0
 10
-256.982808
 20
541.239732
 30
0.0
 10
-262.639664
 20
535.784908
 30
0.0
 10
-277.387888
 20
538.613340
 30
0.0
 10
-282.034592
 20
533.966636
 30
0.0
 10
-288.297536
 20
541.239732
 30
0.0
 10
-293.348296
 20
535.380852
 30
0.0
 10
-299.409216
 20
537.199124
 30
0.0
 10
-297.995000
 20
543.664100
 30
0.0
 10
-301.025456
 20
545.280348
 30
0.0
 10
-308.298560
 20
541.845828
 30
0.0
 10
-313.349320
 20
545.280348
 30
0.0
 10
-327.289424
 20
545.684404
 30
0.0
 10
-331.532064
 20
542.653948
 30
0.0
 10
-338.199072
 20
544.674252
 30
0.0
 10
-343.047808
 20
548.108772
 30
0.0
 10
-344.664048
 20
544.674252
 30
0.0
 10
-355.775728
 20
545.280348
 30
0.0
 10
-361.230552
 20
539.623492
 30
0.0
 10
-371.130048
 20
541.845828
 30
0.0
 10
-383.655936
 20
549.725012
 30
0.0
 10
-385.474208
 20
567.705732
 30
0.0
 10
-371.534104
 20
572.554460
 30
0.0
 10
-363.856944
 20
579.221468
 30
0.0
 10
-356.785880
 20
580.433652
 30
0.0
 10
-348.502632
 20
595.585940
 30
0.0
 10
-348.098568
 20
606.293556
 30
0.0
 10
-342.845776
 20
610.132140
 30
0.0
 10
-335.572672
 20
605.889500
 30
0.0
 10
-312.743232
 20
598.414372
 30
0.0
 10
-299.409216
 20
602.252948
 30
0.0
 10
-291.530024
 20
608.313860
 30
0.0
 10
-289.509720
 20
601.444828
 30
0.0
 10
-286.479264
 20
595.383908
 30
0.0
 10
-276.781800
 20
595.383908
 30
0.0
 10
-273.953368
 20
589.322996
 30
0.0
 10
-268.902608
 20
585.888476
 30
0.0
 10
-250.315800
 20
596.596092
 30
0.0
 10
-252.336104
 20
568.513852
 30
0.0
 10
-243.446760
 20
551.745324
 30
0.0
 10
-244.456920
 20
544.068164
 30
0.0
 10
-240.214272
 20
536.593036
 30
0.0
 10
-249.709712
 20
534.168668
 30
0.0
  0
LWPOLYLINE
  5
112
100
AcDbEntity
  8
Layer_1
 62
7
100
AcDbPolyline
 90
39
 70
1
 10
-156.977704
 20
602.252948
 30
0.0
 10
-158.795984
 20
600.232644
 30
0.0
 10
-148.290392
 20
594.373756
 30
0.0
 10
-146.472120
 20
584.272236
 30
0.0
 10
-143.037600
 20
582.655988
 30
0.0
 10
-148.896488
 20
576.393044
 30
0.0
 10
-147.280240
 20
571.342284
 30
0.0
 10
-137.582776
 20
570.938220
 30
0.0
 10
-139.805112
 20
567.301668
 30
0.0
 10
-125.460944
 20
577.403196
 30
0.0
 10
-118.389880
 20
571.746340
 30
0.0
 10
-115.561448
 20
571.948372
 30
0.0
 10
-112.935056
 20
585.282388
 30
0.0
 10
-92.934032
 20
586.292540
 30
0.0
 10
-93.944184
 20
576.595076
 30
0.0
 10
-87.479208
 20
577.201164
 30
0.0
 10
-88.893424
 20
584.070204
 30
0.0
 10
-78.387838
 20
583.666140
 30
0.0
 10
-70.306618
 20
591.949396
 30
0.0
 10
-66.670068
 20
602.454980
 30
0.0
 10
-67.680221
 20
613.970716
 30
0.0
 10
-62.023366
 20
621.041788
 30
0.0
 10
-61.417275
 20
628.920972
 30
0.0
 10
-58.588848
 20
630.941284
 30
0.0
 10
-57.982756
 20
653.972756
 30
0.0
 10
-79.397990
 20
663.468196
 30
0.0
 10
-92.934032
 20
682.863124
 30
0.0
 10
-103.641648
 20
681.044844
 30
0.0
 10
-107.682264
 20
683.267180
 30
0.0
 10
-115.157392
 20
678.418452
 30
0.0
 10
-118.187848
 20
667.912860
 30
0.0
 10
-123.844704
 20
665.892556
 30
0.0
 10
-130.309680
 20
668.923020
 30
0.0
 10
-133.542168
 20
664.680372
 30
0.0
 10
-133.542168
 20
656.801188
 30
0.0
 10
-111.722872
 20
644.477324
 30
0.0
 10
-107.884288
 20
619.021484
 30
0.0
 10
-121.420336
 20
606.697620
 30
0.0
 10
-156.977704
 20
602.252948
 30
0.0
  0
LWPOLYLINE
  5
113
100
AcDbEntity
  8
Layer_1
 62
7
100
AcDbPolyline
 90
41
 70
1
 10
-108.288352
 20
470.124996
 30
0.0
 10
-108.086320
 20
475.983884
 30
0.0
 10
-96.974648
 20
488.509772
 30
0.0
 10
-92.125912
 20
488.509772
 30
0.0
 10
-92.529976
 20
491.136172
 30
0.0
 10
-79.802051
 20
490.934140
 30
0.0
 10
-78.993929
 20
485.681348
 30
0.0
 10
-70.306618
 20
486.691500
 30
0.0
 10
-59.599000
 20
480.024492
 30
0.0
 10
-57.780726
 20
476.589972
 30
0.0
 10
-70.104586
 20
464.266108
 30
0.0
 10
-72.730983
 20
466.084388
 30
0.0
 10
-71.720830
 20
458.811284
 30
0.0
 10
-60.003062
 20
448.709764
 30
0.0
 10
-59.396970
 20
436.587932
 30
0.0
 10
-67.276159
 20
426.082348
 30
0.0
 10
-58.184786
 20
398.404164
 30
0.0
 10
-67.074129
 20
377.999084
 30
0.0
 10
-77.781746
 20
383.049844
 30
0.0
 10
-73.943166
 20
395.777764
 30
0.0
 10
-82.226416
 20
409.515844
 30
0.0
 10
-83.842664
 20
422.849860
 30
0.0
 10
-90.105608
 20
429.920924
 30
0.0
 10
-85.862968
 20
442.446812
 30
0.0
 10
-90.105608
 20
446.891484
 30
0.0
 10
-97.378704
 20
447.497580
 30
0.0
 10
-98.590888
 20
449.113820
 30
0.0
 10
-99.803072
 20
444.669148
 30
0.0
 10
-105.257896
 20
444.063060
 30
0.0
 10
-109.096472
 20
439.012300
 30
0.0
 10
-114.551296
 20
439.820420
 30
0.0
 10
-116.975664
 20
446.285396
 30
0.0
 10
-124.248760
 20
446.891484
 30
0.0
 10
-126.673128
 20
445.073212
 30
0.0
 10
-128.289376
 20
451.538188
 30
0.0
 10
-123.440640
 20
455.780828
 30
0.0
 10
-120.208152
 20
455.174740
 30
0.0
 10
-120.208152
 20
457.397076
 30
0.0
 10
-116.571600
 20
457.397076
 30
0.0
 10
-115.763480
 20
468.104692
 30
0.0
 10
-108.288352
 20
470.124996
 30
0.0
  0
LWPOLYLINE
  5
114
100
AcDbEntity
  8
Layer_1
 62
7
100
AcDbPolyline
 90
49
 70
1
 10
-126.471096
 20
445.275244
 30
0.0
 10
-128.895464
 20
451.336156
 30
0.0
 10
-136.774656
 20
450.326004
 30
0.0
 10
-136.976688
 20
445.679300
 30
0.0
 10
-135.966536
 20
442.446812
 30
0.0
 10
-140.209176
 20
435.577780
 30
0.0
 10
-147.482272
 20
432.143260
 30
0.0
 10
-146.068056
 20
428.102652
 30
0.0
 10
-143.845720
 20
424.466100
 30
0.0
 10
-156.371616
 20
393.757460
 30
0.0
 10
-163.846744
 20
389.312788
 30
0.0
 10
-163.240648
 20
377.595020
 30
0.0
 10
-154.553336
 20
357.998060
 30
0.0
 10
-153.341160
 20
346.280292
 30
0.0
 10
-166.877200
 20
335.774708
 30
0.0
 10
-166.877200
 20
328.905668
 30
0.0
 10
-159.806136
 20
326.683332
 30
0.0
 10
-161.422376
 20
320.420388
 30
0.0
 10
-152.331000
 20
321.834604
 30
0.0
 10
-143.037600
 20
313.551348
 30
0.0
 10
-134.754352
 20
313.955412
 30
0.0
 10
-128.491400
 20
320.016324
 30
0.0
 10
-126.269072
 20
325.067092
 30
0.0
 10
-120.006120
 20
325.067092
 30
0.0
 10
-115.561448
 20
330.925972
 30
0.0
 10
-86.267024
 20
346.280292
 30
0.0
 10
-77.377685
 20
347.290444
 30
0.0
 10
-72.528953
 20
357.391972
 30
0.0
 10
-81.216264
 20
365.675220
 30
0.0
 10
-82.832512
 20
372.140196
 30
0.0
 10
-80.408144
 20
374.968628
 30
0.0
 10
-66.468038
 20
372.948324
 30
0.0
 10
-67.074129
 20
377.797052
 30
0.0
 10
-77.983777
 20
382.645788
 30
0.0
 10
-74.145197
 20
395.777764
 30
0.0
 10
-82.428448
 20
409.717876
 30
0.0
 10
-83.842664
 20
423.253916
 30
0.0
 10
-90.509672
 20
429.516860
 30
0.0
 10
-85.660936
 20
442.244788
 30
0.0
 10
-90.711696
 20
446.689460
 30
0.0
 10
-97.176672
 20
447.295548
 30
0.0
 10
-98.792920
 20
449.315852
 30
0.0
 10
-99.803072
 20
444.871180
 30
0.0
 10
-105.257896
 20
443.861028
 30
0.0
 10
-109.702568
 20
439.214324
 30
0.0
 10
-114.551296
 20
439.416356
 30
0.0
 10
-117.379728
 20
447.093516
 30
0.0
 10
-124.450792
 20
446.689460
 30
0.0
 10
-126.471096
 20
445.275244
 30
0.0
  0
LWPOLYLINE
  5
115
100
AcDbEntity
  8
Layer_1
 62
7
100
AcDbPolyline
 90
61
 70
1
 10
-156.371616
 20
495.378812
 30
0.0
 10
-145.057904
 20
502.853940
 30
0.0
 10
-146.674152
 20
497.197084
 30
0.0
 10
-141.623384
 20
492.752412
 30
0.0
 10
-132.329984
 20
498.207236
 30
0.0
 10
-132.127952
 20
494.570684
 30
0.0
 10
-127.279224
 20
491.338196
 30
0.0
 10
-129.703584
 20
478.408244
 30
0.0
 10
-127.279224
 20
474.973724
 30
0.0
 10
-122.632520
 20
476.589972
 30
0.0
 10
-119.400032
 20
473.761548
 30
0.0
 10
-116.167544
 20
473.963572
 30
0.0
 10
-114.349272
 20
468.912812
 30
0.0
 10
-115.965512
 20
468.104692
 30
0.0
 10
-115.965512
 20
457.397076
 30
0.0
 10
-120.006120
 20
457.195044
 30
0.0
 10
-120.612216
 20
455.376772
 30
0.0
 10
-123.036584
 20
456.184892
 30
0.0
 10
-128.693432
 20
451.336156
 30
0.0
 10
-136.774656
 20
450.123972
 30
0.0
 10
-137.380744
 20
444.063060
 30
0.0
 10
-135.562472
 20
442.244788
 30
0.0
 10
-139.603080
 20
435.779812
 30
0.0
 10
-147.886336
 20
431.941228
 30
0.0
 10
-143.845720
 20
423.860012
 30
0.0
 10
-156.169584
 20
393.151372
 30
0.0
 10
-163.846744
 20
389.716852
 30
0.0
 10
-163.442680
 20
377.797052
 30
0.0
 10
-155.159432
 20
358.806188
 30
0.0
 10
-153.341160
 20
346.684356
 30
0.0
 10
-166.877200
 20
335.774708
 30
0.0
 10
-166.473136
 20
328.703636
 30
0.0
 10
-159.402072
 20
325.875212
 30
0.0
 10
-161.018312
 20
320.622420
 30
0.0
 10
-172.332024
 20
323.854908
 30
0.0
 10
-175.362480
 20
327.491452
 30
0.0
 10
-197.383808
 20
312.339164
 30
0.0
 10
-238.193968
 20
353.149332
 30
0.0
 10
-204.454872
 20
381.029540
 30
0.0
 10
-211.323912
 20
395.373708
 30
0.0
 10
-207.889392
 20
417.799092
 30
0.0
 10
-218.192952
 20
441.638692
 30
0.0
 10
-214.152336
 20
450.528036
 30
0.0
 10
-219.809192
 20
462.043772
 30
0.0
 10
-225.870112
 20
461.841748
 30
0.0
 10
-231.526960
 20
465.276260
 30
0.0
 10
-237.789912
 20
465.478292
 30
0.0
 10
-244.658944
 20
473.761548
 30
0.0
 10
-239.406152
 20
486.489468
 30
0.0
 10
-230.920872
 20
490.126012
 30
0.0
 10
-222.637624
 20
490.328044
 30
0.0
 10
-223.445744
 20
493.762564
 30
0.0
 10
-220.415288
 20
497.197084
 30
0.0
 10
-223.445744
 20
499.823484
 30
0.0
 10
-227.688384
 20
496.590996
 30
0.0
 10
-230.112752
 20
498.813324
 30
0.0
 10
-225.870112
 20
503.460028
 30
0.0
 10
-210.313760
 20
505.682364
 30
0.0
 10
-207.283304
 20
502.045812
 30
0.0
 10
-181.625424
 20
502.853940
 30
0.0
 10
-156.371616
 20
495.378812
 30
0.0
  0
LWPOLYLINE
  5
116
100
AcDbEntity
  8
Layer_1
 62
7
100
AcDbPolyline
 90
45
 70
1
 10
-72.730983
 20
466.690476
 30
0.0
 10
-69.296465
 20
464.468140
 30
0.0
 10
-50.305597
 20
482.246828
 30
0.0
 10
-48.689353
 20
479.822460
 30
0.0
 10
-44.446712
 20
481.842764
 30
0.0
 10
-24.445692
 20
471.741236
 30
0.0
 10
-29.092394
 20
465.074236
 30
0.0
 10
-24.243661
 20
460.023468
 30
0.0
 10
-18.990868
 20
465.074236
 30
0.0
 10
-6.667007
 20
461.437684
 30
0.0
 10
-3.636549
 20
453.760524
 30
0.0
 10
3.232488
 20
452.548340
 30
0.0
 10
5.252793
 20
443.658996
 30
0.0
 10
-2.020305
 20
435.375748
 30
0.0
 10
-1.212183
 20
422.445796
 30
0.0
 10
12.929953
 20
411.738180
 30
0.0
 10
13.131983
 20
401.636652
 30
0.0
 10
17.980715
 20
399.414316
 30
0.0
 10
17.576654
 20
394.161524
 30
0.0
 10
25.455844
 20
386.080300
 30
0.0
 10
24.041630
 20
384.059996
 30
0.0
 10
21.011173
 20
383.857964
 30
0.0
 10
21.011173
 20
381.837660
 30
0.0
 10
27.476150
 20
375.574716
 30
0.0
 10
31.718790
 20
376.786900
 30
0.0
 10
33.335034
 20
368.907708
 30
0.0
 10
31.314729
 20
366.887404
 30
0.0
 10
33.335034
 20
364.665068
 30
0.0
 10
31.516759
 20
362.644764
 30
0.0
 10
6.262946
 20
372.544260
 30
0.0
 10
-21.819295
 20
371.332076
 30
0.0
 10
-24.647722
 20
372.342228
 30
0.0
 10
-35.961430
 20
363.452884
 30
0.0
 10
-51.113719
 20
362.038676
 30
0.0
 10
-53.134024
 20
369.715836
 30
0.0
 10
-58.184786
 20
372.948324
 30
0.0
 10
-62.629458
 20
368.503652
 30
0.0
 10
-66.670068
 20
373.756444
 30
0.0
 10
-66.872098
 20
379.413300
 30
0.0
 10
-57.780726
 20
399.010260
 30
0.0
 10
-67.074129
 20
425.880316
 30
0.0
 10
-59.396970
 20
436.991988
 30
0.0
 10
-60.609153
 20
449.921948
 30
0.0
 10
-71.922862
 20
459.013316
 30
0.0
 10
-72.730983
 20
466.690476
 30
0.0
  0
LWPOLYLINE
  5
117
100
AcDbEntity
  8
Layer_1
 62
7
100
AcDbPolyline
 90
51
 70
1
 10
-21.617265
 20
370.928012
 30
0.0
 10
6.060915
 20
373.150348
 30
0.0
 10
32.930973
 20
362.442732
 30
0.0
 10
31.516759
 20
356.583852
 30
0.0
 10
25.253814
 20
358.806188
 30
0.0
 10
25.051783
 20
356.785876
 30
0.0
 10
28.890363
 20
353.957452
 30
0.0
 10
25.253814
 20
347.088412
 30
0.0
 10
26.668027
 20
346.078260
 30
0.0
 10
41.618285
 20
344.866076
 30
0.0
 10
46.669048
 20
350.926996
 30
0.0
 10
55.356359
 20
344.259988
 30
0.0
 10
53.740115
 20
331.734100
 30
0.0
 10
60.407122
 20
321.026476
 30
0.0
 10
58.992909
 20
314.359476
 30
0.0
 10
55.760421
 20
311.531044
 30
0.0
 10
56.972604
 20
305.672164
 30
0.0
 10
62.629458
 20
301.631548
 30
0.0
 10
66.872098
 20
304.459980
 30
0.0
 10
76.367533
 20
289.509724
 30
0.0
 10
72.326922
 20
277.387892
 30
0.0
 10
69.902556
 20
266.882300
 30
0.0
 10
65.659915
 20
265.670116
 30
0.0
 10
64.851794
 20
262.235604
 30
0.0
 10
55.760421
 20
254.558444
 30
0.0
 10
52.325902
 20
258.397020
 30
0.0
 10
54.750268
 20
265.872148
 30
0.0
 10
42.022346
 20
281.226468
 30
0.0
 10
38.587827
 20
268.094484
 30
0.0
 10
42.224377
 20
262.437628
 30
0.0
 10
39.597980
 20
261.023420
 30
0.0
 10
23.839600
 20
279.004132
 30
0.0
 10
16.970562
 20
283.044740
 30
0.0
 10
20.405082
 20
291.327996
 30
0.0
 10
17.374624
 20
304.864036
 30
0.0
 10
27.274118
 20
305.268100
 30
0.0
 10
26.668027
 20
310.318860
 30
0.0
 10
22.223356
 20
315.571652
 30
0.0
 10
22.425386
 20
325.269124
 30
0.0
 10
8.485282
 20
336.784860
 30
0.0
 10
5.858885
 20
343.249836
 30
0.0
 10
1.616244
 20
344.462020
 30
0.0
 10
1.010153
 20
338.805164
 30
0.0
 10
-5.858885
 20
339.209228
 30
0.0
 10
-9.697465
 20
331.532068
 30
0.0
 10
-14.748227
 20
340.219380
 30
0.0
 10
-23.031478
 20
343.451868
 30
0.0
 10
-23.435539
 20
348.906692
 30
0.0
 10
-27.274118
 20
354.967604
 30
0.0
 10
-30.506607
 20
361.634612
 30
0.0
 10
-21.617265
 20
370.928012
 30
0.0
  0
LWPOLYLINE
  5
118
100
AcDbEntity
  8
Layer_1
 62
7
100
AcDbPolyline
 90
21
 70
1
 10
66.670068
 20
304.662012
 30
0.0
 10
65.457885
 20
309.914804
 30
0.0
 10
66.670068
 20
312.743228
 30
0.0
 10
82.226416
 20
313.147292
 30
0.0
 10
89.903576
 20
316.177748
 30
0.0
 10
92.327944
 20
321.834604
 30
0.0
 10
83.236568
 20
328.905668
 30
0.0
 10
79.600021
 20
324.460996
 30
0.0
 10
68.084282
 20
330.723940
 30
0.0
 10
69.094434
 20
335.774708
 30
0.0
 10
66.266007
 20
337.592980
 30
0.0
 10
61.619306
 20
334.966588
 30
0.0
 10
60.205092
 20
340.825468
 30
0.0
 10
55.962451
 20
344.259988
 30
0.0
 10
53.942146
 20
331.128004
 30
0.0
 10
60.407122
 20
320.824452
 30
0.0
 10
59.599000
 20
314.359476
 30
0.0
 10
55.356359
 20
311.329012
 30
0.0
 10
57.174634
 20
305.470132
 30
0.0
 10
63.033519
 20
301.227492
 30
0.0
 10
66.670068
 20
304.662012
 30
0.0
  0
ENDSEC
  0
SECTION
  2
OBJECTS
  0
DICTIONARY
  5
C
330
0
100
AcDbDictionary
  3
ACAD_GROUP
350
D
  3
ACAD_MLINESTYLE
350
17
  0
DICTIONARY
  5
D
330
C
100
AcDbDictionary
  0
DICTIONARY
  5
1A
330
C
100
AcDbDictionary
  0
DICTIONARY
  5
17
330
C
100
AcDbDictionary
  3
STANDARD
350
18
  0
DICTIONARY
  5
19
330
C
100
AcDbDictionary
  0
ENDSEC
  0
EOF
