  0
SECTION
  2
HEADER
  9
$ACADVER
  1
AC1014
  9
$HANDSEED
  5
FFFF
  9
$MEASUREMENT
 70
     1
  0
ENDSEC
  0
SECTION
  2
TABLES
  0
TABLE
  2
VPORT
  5
8
330
0
100
AcDbSymbolTable
 70
     4
  0
VPORT
  5
2E
330
8
100
AcDbSymbolTableRecord
100
AcDbViewportTableRecord
  2
*ACTIVE
 70
     0
 10
0.0
 20
0.0
 11
1.0
 21
1.0
 12
210.0
 22
148.5
 13
0.0
 23
0.0
 14
10.0
 24
10.0
 15
10.0
 25
10.0
 16
0.0
 26
0.0
 36
1.0
 17
0.0
 27
0.0
 37
0.0
 40
341.0
 41
1.24
 42
50.0
 43
0.0
 44
0.0
 50
0.0
 51
0.0
 71
     0
 72
   100
 73
     1
 74
     3
 75
     0
 76
     0
 77
     0
 78
     0
  0
ENDTAB
  0
TABLE
  2
LTYPE
  5
5
330
0
100
AcDbSymbolTable
 70
     1
  0
LTYPE
  5
14
330
5
100
AcDbSymbolTableRecord
100
AcDbLinetypeTableRecord
  2
BYBLOCK
 70
     0
  3

 72
    65
 73
     0
 40
0.0
  0
LTYPE
  5
15
330
5
100
AcDbSymbolTableRecord
100
AcDbLinetypeTableRecord
  2
BYLAYER
 70
     0
  3

 72
    65
 73
     0
 40
0.0
  0
LTYPE
  5
16
330
5
100
AcDbSymbolTableRecord
100
AcDbLinetypeTableRecord
  2
CONTINUOUS
 70
     0
  3
Solid line
 72
    65
 73
     0
 40
0.0
  0
ENDTAB
  0
TABLE
  2
LAYER
  5
2
100
AcDbSymbolTable
 70
2
  0
LAYER
  5
50
100
AcDbSymbolTableRecord
100
AcDbLayerTableRecord
  2
0
 70
0
  6
CONTINUOUS
  0
LAYER
  5
51
100
AcDbSymbolTableRecord
100
AcDbLayerTableRecord
  2
Layer_1
 70
0
  6
CONTINUOUS
  0
ENDTAB
  0
TABLE
  2
STYLE
  5
3
330
0
100
AcDbSymbolTable
 70
     1
  0
STYLE
  5
11
330
3
100
AcDbSymbolTableRecord
100
AcDbTextStyleTableRecord
  2
STANDARD
 70
     0
 40
0.0
 41
1.0
 50
0.0
 71
     0
 42
2.5
  3
txt
  4

  0
ENDTAB
  0
TABLE
  2
VIEW
  5
6
330
0
100
AcDbSymbolTable
 70
     0
  0
ENDTAB
  0
TABLE
  2
UCS
  5
7
330
0
100
AcDbSymbolTable
 70
     0
  0
ENDTAB
  0
TABLE
  2
APPID
  5
9
330
0
100
AcDbSymbolTable
 70
     2
  0
APPID
  5
12
330
9
100
AcDbSymbolTableRecord
100
AcDbRegAppTableRecord
  2
ACAD
 70
     0
  0
ENDTAB
  0
TABLE
  2
DIMSTYLE
  5
A
330
0
100
AcDbSymbolTable
 70
     1
  0
DIMSTYLE
105
27
330
A
100
AcDbSymbolTableRecord
100
AcDbDimStyleTableRecord
  2
ISO-25
 70
     0
  3

  4

  5

  6

  7

 40
1.0
 41
2.5
 42
0.625
 43
3.75
 44
1.25
 45
0.0
 46
0.0
 47
0.0
 48
0.0
140
2.5
141
2.5
142
0.0
143
0.03937007874016
144
1.0
145
0.0
146
1.0
147
0.625
 71
     0
 72
     0
 73
     0
 74
     0
 75
     0
 76
     0
 77
     1
 78
     8
170
     0
171
     3
172
     1
173
     0
174
     0
175
     0
176
     0
177
     0
178
     0
270
     2
271
     2
272
     2
273
     2
274
     3
340
11
275
     0
280
     0
281
     0
282
     0
283
     0
284
     8
285
     0
286
     0
287
     3
288
     0
  0
ENDTAB
  0
TABLE
  2
BLOCK_RECORD
  5
1
330
0
100
AcDbSymbolTable
 70
     1
  0
BLOCK_RECORD
  5
1F
330
1
100
AcDbSymbolTableRecord
100
AcDbBlockTableRecord
  2
*MODEL_SPACE
  0
BLOCK_RECORD
  5
1B
330
1
100
AcDbSymbolTableRecord
100
AcDbBlockTableRecord
  2
*PAPER_SPACE
  0
ENDTAB
  0
ENDSEC
  0
SECTION
  2
BLOCKS
  0
BLOCK
  5
20
330
1F
100
AcDbEntity
  8
0
100
AcDbBlockBegin
  2
*MODEL_SPACE
 70
     0
 10
0.0
 20
0.0
 30
0.0
  3
*MODEL_SPACE
  1

  0
ENDBLK
  5
21
330
1F
100
AcDbEntity
  8
0
100
AcDbBlockEnd
  0
BLOCK
  5
1C
330
1B
100
AcDbEntity
 67
     1
  8
0
100
AcDbBlockBegin
  2
*PAPER_SPACE
  1

  0
ENDBLK
  5
1D
330
1B
100
AcDbEntity
 67
     1
  8
0
100
AcDbBlockEnd
  0
ENDSEC
  0
SECTION
  2
ENTITIES
  0
LWPOLYLINE
  5
100
100
AcDbEntity
  8
Layer_1
 62
7
100
AcDbPolyline
 90
11
 70
1
 10
-279.428568
 20
650.000004
 30
0.0
 10
-258.571432
 20
644.571428
 30
0.0
 10
-258.571432
 20
625.428572
 30
0.0
 10
-260.000000
 20
618.857148
 30
0.0
 10
-256.857144
 20
611.714284
 30
0.0
 10
-257.428568
 20
603.142860
 30
0.0
 10
-268.285712
 20
598.000004
 30
0.0
 10
-271.714288
 20
598.000004
 30
0.0
 10
-312.857144
 20
568.571428
 30
0.0
 10
-292.857144
 20
621.714284
 30
0.0
 10
-279.428568
 20
650.000004
 30
0.0
  0
LWPOLYLINE
  5
101
100
AcDbEntity
  8
Layer_1
 62
7
100
AcDbPolyline
 90
21
 70
1
 10
-313.142856
 20
567.428572
 30
0.0
 10
-288.285712
 20
530.000004
 30
0.0
 10
-273.142856
 20
493.428572
 30
0.0
 10
-250.285712
 20
504.571428
 30
0.0
 10
-235.428568
 20
520.571428
 30
0.0
 10
-230.571432
 20
527.428572
 30
0.0
 10
-225.714288
 20
546.285716
 30
0.0
 10
-228.285712
 20
558.857140
 30
0.0
 10
-228.857144
 20
597.428572
 30
0.0
 10
-224.857144
 20
607.714284
 30
0.0
 10
-218.000000
 20
615.714284
 30
0.0
 10
-214.000000
 20
625.714284
 30
0.0
 10
-208.857144
 20
632.285716
 30
0.0
 10
-258.857144
 20
644.000004
 30
0.0
 10
-258.000000
 20
624.857148
 30
0.0
 10
-260.285712
 20
618.857148
 30
0.0
 10
-256.285712
 20
611.142860
 30
0.0
 10
-257.428568
 20
602.857148
 30
0.0
 10
-267.428568
 20
597.714284
 30
0.0
 10
-271.714288
 20
597.714284
 30
0.0
 10
-313.142856
 20
567.428572
 30
0.0
  0
LWPOLYLINE
  5
102
100
AcDbEntity
  8
Layer_1
 62
7
100
AcDbPolyline
 90
17
 70
1
 10
-225.142856
 20
546.285716
 30
0.0
 10
-206.285712
 20
556.285716
 30
0.0
 10
-185.714288
 20
576.571428
 30
0.0
 10
-179.142856
 20
587.142860
 30
0.0
 10
-166.857144
 20
598.285716
 30
0.0
 10
-160.285712
 20
607.714284
 30
0.0
 10
-163.714288
 20
611.428572
 30
0.0
 10
-173.714288
 20
611.428572
 30
0.0
 10
-188.857144
 20
631.428572
 30
0.0
 10
-198.000000
 20
635.142860
 30
0.0
 10
-208.571432
 20
631.142860
 30
0.0
 10
-213.428568
 20
626.000004
 30
0.0
 10
-218.000000
 20
615.428572
 30
0.0
 10
-224.000000
 20
608.285716
 30
0.0
 10
-228.571432
 20
596.571428
 30
0.0
 10
-228.285712
 20
557.714284
 30
0.0
 10
-225.142856
 20
546.285716
 30
0.0
  0
LWPOLYLINE
  5
103
100
AcDbEntity
  8
Layer_1
 62
7
100
AcDbPolyline
 90
19
 70
1
 10
-188.000000
 20
631.714284
 30
0.0
 10
-144.857144
 20
638.285716
 30
0.0
 10
-122.285712
 20
643.142860
 30
0.0
 10
-122.571432
 20
627.714284
 30
0.0
 10
-128.285712
 20
623.142860
 30
0.0
 10
-132.000000
 20
624.571428
 30
0.0
 10
-139.142856
 20
618.857148
 30
0.0
 10
-140.285712
 20
613.428572
 30
0.0
 10
-132.000000
 20
596.285716
 30
0.0
 10
-137.428568
 20
586.000004
 30
0.0
 10
-133.428568
 20
569.142860
 30
0.0
 10
-160.285712
 20
572.285716
 30
0.0
 10
-164.857144
 20
574.285716
 30
0.0
 10
-172.285712
 20
592.285716
 30
0.0
 10
-166.000000
 20
598.571428
 30
0.0
 10
-160.857144
 20
607.428572
 30
0.0
 10
-164.000000
 20
611.714284
 30
0.0
 10
-173.142856
 20
611.714284
 30
0.0
 10
-188.000000
 20
631.714284
 30
0.0
  0
LWPOLYLINE
  5
104
100
AcDbEntity
  8
Layer_1
 62
7
100
AcDbPolyline
 90
23
 70
1
 10
-267.428568
 20
481.142860
 30
0.0
 10
-259.428568
 20
483.142860
 30
0.0
 10
-225.714288
 20
461.142860
 30
0.0
 10
-186.571432
 20
461.714284
 30
0.0
 10
-174.857144
 20
478.000004
 30
0.0
 10
-171.714288
 20
486.571428
 30
0.0
 10
-167.428568
 20
491.428572
 30
0.0
 10
-160.857144
 20
491.714284
 30
0.0
 10
-151.428568
 20
483.142860
 30
0.0
 10
-147.142856
 20
491.428572
 30
0.0
 10
-144.571432
 20
531.142860
 30
0.0
 10
-132.857144
 20
552.571428
 30
0.0
 10
-133.142856
 20
569.428572
 30
0.0
 10
-164.571432
 20
574.000004
 30
0.0
 10
-173.142856
 20
592.857148
 30
0.0
 10
-178.285712
 20
587.428572
 30
0.0
 10
-185.142856
 20
576.285716
 30
0.0
 10
-206.571432
 20
556.285716
 30
0.0
 10
-224.857144
 20
546.571428
 30
0.0
 10
-230.571432
 20
526.000004
 30
0.0
 10
-250.000000
 20
504.857140
 30
0.0
 10
-273.142856
 20
492.857140
 30
0.0
 10
-267.428568
 20
481.142860
 30
0.0
  0
LWPOLYLINE
  5
105
100
AcDbEntity
  8
Layer_1
 62
7
100
AcDbPolyline
 90
30
 70
1
 10
-259.714288
 20
482.857140
 30
0.0
 10
-267.714288
 20
480.285716
 30
0.0
 10
-250.571432
 20
426.000004
 30
0.0
 10
-244.857144
 20
395.428572
 30
0.0
 10
-243.142856
 20
358.571428
 30
0.0
 10
-182.000000
 20
316.857140
 30
0.0
 10
-156.285712
 20
324.571428
 30
0.0
 10
-146.285712
 20
339.142860
 30
0.0
 10
-133.428568
 20
346.857140
 30
0.0
 10
-127.428568
 20
353.142860
 30
0.0
 10
-134.857144
 20
361.714284
 30
0.0
 10
-137.428568
 20
373.428572
 30
0.0
 10
-135.714288
 20
378.857140
 30
0.0
 10
-129.428568
 20
386.285716
 30
0.0
 10
-118.857144
 20
392.000004
 30
0.0
 10
-112.285712
 20
399.142860
 30
0.0
 10
-112.285712
 20
408.000004
 30
0.0
 10
-124.000000
 20
422.285716
 30
0.0
 10
-130.000000
 20
457.714284
 30
0.0
 10
-138.571432
 20
465.142860
 30
0.0
 10
-148.285712
 20
466.285716
 30
0.0
 10
-152.571432
 20
470.285716
 30
0.0
 10
-151.428568
 20
483.142860
 30
0.0
 10
-160.857144
 20
491.428572
 30
0.0
 10
-167.142856
 20
491.142860
 30
0.0
 10
-171.142856
 20
486.571428
 30
0.0
 10
-174.571432
 20
478.285716
 30
0.0
 10
-186.285712
 20
461.714284
 30
0.0
 10
-226.571432
 20
461.428572
 30
0.0
 10
-259.714288
 20
482.857140
 30
0.0
  0
LWPOLYLINE
  5
106
100
AcDbEntity
  8
Layer_1
 62
7
100
AcDbPolyline
 90
17
 70
1
 10
-155.428568
 20
324.571428
 30
0.0
 10
-146.571432
 20
324.571428
 30
0.0
 10
-98.285712
 20
306.571428
 30
0.0
 10
-89.428568
 20
299.142860
 30
0.0
 10
-59.428571
 20
300.857140
 30
0.0
 10
-42.000000
 20
304.285716
 30
0.0
 10
-35.714286
 20
310.857140
 30
0.0
 10
-36.571429
 20
321.142860
 30
0.0
 10
-46.571429
 20
335.142860
 30
0.0
 10
-47.714286
 20
356.285716
 30
0.0
 10
-72.000000
 20
358.857140
 30
0.0
 10
-85.142856
 20
356.571428
 30
0.0
 10
-112.285712
 20
358.857140
 30
0.0
 10
-127.714288
 20
353.142860
 30
0.0
 10
-133.714288
 20
346.000004
 30
0.0
 10
-145.142856
 20
339.714284
 30
0.0
 10
-155.428568
 20
324.571428
 30
0.0
  0
LWPOLYLINE
  5
107
100
AcDbEntity
  8
Layer_1
 62
7
100
AcDbPolyline
 90
38
 70
1
 10
-48.000000
 20
356.857140
 30
0.0
 10
-47.714286
 20
382.285716
 30
0.0
 10
-36.571429
 20
394.857140
 30
0.0
 10
-14.285714
 20
406.000004
 30
0.0
 10
-1.428571
 20
416.285716
 30
0.0
 10
2.571429
 20
427.142860
 30
0.0
 10
-23.142857
 20
446.571428
 30
0.0
 10
-38.857143
 20
450.857140
 30
0.0
 10
-52.571429
 20
453.428572
 30
0.0
 10
-63.714286
 20
459.428572
 30
0.0
 10
-66.857143
 20
467.142860
 30
0.0
 10
-67.142858
 20
478.571428
 30
0.0
 10
-93.714288
 20
484.857140
 30
0.0
 10
-98.571432
 20
493.714284
 30
0.0
 10
-107.428568
 20
499.714284
 30
0.0
 10
-116.000000
 20
501.428572
 30
0.0
 10
-120.571432
 20
518.571428
 30
0.0
 10
-137.142856
 20
530.285716
 30
0.0
 10
-144.285712
 20
530.285716
 30
0.0
 10
-146.571432
 20
492.000004
 30
0.0
 10
-151.142856
 20
483.714284
 30
0.0
 10
-152.857144
 20
470.000004
 30
0.0
 10
-146.571432
 20
465.714284
 30
0.0
 10
-138.285712
 20
465.428572
 30
0.0
 10
-129.714288
 20
456.857140
 30
0.0
 10
-123.714288
 20
422.571428
 30
0.0
 10
-112.285712
 20
407.428572
 30
0.0
 10
-112.285712
 20
398.857140
 30
0.0
 10
-119.428568
 20
391.714284
 30
0.0
 10
-128.571432
 20
386.857140
 30
0.0
 10
-136.285712
 20
379.142860
 30
0.0
 10
-137.142856
 20
372.571428
 30
0.0
 10
-134.857144
 20
361.714284
 30
0.0
 10
-127.428568
 20
352.857140
 30
0.0
 10
-113.428568
 20
358.571428
 30
0.0
 10
-84.571432
 20
356.571428
 30
0.0
 10
-71.714286
 20
359.142860
 30
0.0
 10
-48.000000
 20
356.857140
 30
0.0
  0
LWPOLYLINE
  5
108
100
AcDbEntity
  8
Layer_1
 62
7
100
AcDbPolyline
 90
27
 70
1
 10
-67.142858
 20
478.571428
 30
0.0
 10
-62.000000
 20
507.428572
 30
0.0
 10
-42.571429
 20
546.857140
 30
0.0
 10
-48.857143
 20
554.285716
 30
0.0
 10
-57.142858
 20
594.285716
 30
0.0
 10
-64.000000
 20
604.857148
 30
0.0
 10
-69.428571
 20
621.428572
 30
0.0
 10
-76.571429
 20
625.428572
 30
0.0
 10
-86.857144
 20
624.571428
 30
0.0
 10
-83.428568
 20
611.142860
 30
0.0
 10
-84.571432
 20
603.714284
 30
0.0
 10
-76.571429
 20
581.714284
 30
0.0
 10
-75.142858
 20
574.000004
 30
0.0
 10
-72.571429
 20
565.714284
 30
0.0
 10
-80.857144
 20
552.857140
 30
0.0
 10
-88.000000
 20
550.000004
 30
0.0
 10
-95.142856
 20
550.571428
 30
0.0
 10
-101.142856
 20
548.285716
 30
0.0
 10
-105.714288
 20
543.142860
 30
0.0
 10
-109.714288
 20
534.285716
 30
0.0
 10
-116.000000
 20
529.428572
 30
0.0
 10
-120.571432
 20
517.714284
 30
0.0
 10
-115.428568
 20
501.142860
 30
0.0
 10
-106.857144
 20
499.428572
 30
0.0
 10
-97.714288
 20
492.857140
 30
0.0
 10
-93.428568
 20
485.142860
 30
0.0
 10
-67.142858
 20
478.571428
 30
0.0
  0
LWPOLYLINE
  5
109
100
AcDbEntity
  8
Layer_1
 62
7
100
AcDbPolyline
 90
9
 70
1
 10
-42.571429
 20
546.857140
 30
0.0
 10
-13.142857
 20
572.571428
 30
0.0
 10
-23.714286
 20
583.428572
 30
0.0
 10
-34.571429
 20
590.857148
 30
0.0
 10
-39.142858
 20
590.857148
 30
0.0
 10
-51.714286
 20
598.000004
 30
0.0
 10
-56.857143
 20
593.142860
 30
0.0
 10
-48.571429
 20
553.714284
 30
0.0
 10
-42.571429
 20
546.857140
 30
0.0
  0
LWPOLYLINE
  5
10a
100
AcDbEntity
  8
Layer_1
 62
7
100
AcDbPolyline
 90
15
 70
1
 10
-13.714286
 20
572.000004
 30
0.0
 10
16.571429
 20
573.428572
 30
0.0
 10
22.857143
 20
577.428572
 30
0.0
 10
17.142857
 20
599.428572
 30
0.0
 10
15.142857
 20
614.571428
 30
0.0
 10
-9.428571
 20
626.000004
 30
0.0
 10
-19.142857
 20
633.428572
 30
0.0
 10
-31.428571
 20
637.142860
 30
0.0
 10
-36.000000
 20
636.571428
 30
0.0
 10
-45.428571
 20
632.571428
 30
0.0
 10
-48.571429
 20
610.571428
 30
0.0
 10
-51.714286
 20
597.428572
 30
0.0
 10
-38.571429
 20
590.571428
 30
0.0
 10
-33.428571
 20
590.857148
 30
0.0
 10
-13.714286
 20
572.000004
 30
0.0
  0
LWPOLYLINE
  5
10b
100
AcDbEntity
  8
Layer_1
 62
7
100
AcDbPolyline
 90
16
 70
1
 10
15.142857
 20
614.571428
 30
0.0
 10
14.285714
 20
625.714284
 30
0.0
 10
5.142857
 20
634.857148
 30
0.0
 10
-1.142857
 20
656.571428
 30
0.0
 10
-3.142857
 20
666.000004
 30
0.0
 10
-3.142857
 20
682.285716
 30
0.0
 10
-17.428571
 20
678.571428
 30
0.0
 10
-40.000000
 20
682.000004
 30
0.0
 10
-44.285714
 20
679.428572
 30
0.0
 10
-46.571429
 20
661.428572
 30
0.0
 10
-45.428571
 20
632.285716
 30
0.0
 10
-35.142857
 20
636.285716
 30
0.0
 10
-30.857143
 20
637.428572
 30
0.0
 10
-18.285714
 20
632.857148
 30
0.0
 10
-6.571429
 20
624.571428
 30
0.0
 10
15.142857
 20
614.571428
 30
0.0
  0
LWPOLYLINE
  5
10c
100
AcDbEntity
  8
Layer_1
 62
7
100
AcDbPolyline
 90
7
 70
1
 10
14.571429
 20
625.714284
 30
0.0
 10
15.714286
 20
649.142860
 30
0.0
 10
25.142857
 20
692.000004
 30
0.0
 10
-2.857143
 20
682.000004
 30
0.0
 10
-2.571429
 20
665.714284
 30
0.0
 10
6.000000
 20
633.428572
 30
0.0
 10
14.571429
 20
625.714284
 30
0.0
  0
LWPOLYLINE
  5
10d
100
AcDbEntity
  8
Layer_1
 62
7
100
AcDbPolyline
 90
15
 70
1
 10
-42.571429
 20
680.857148
 30
0.0
 10
-79.714286
 20
667.142860
 30
0.0
 10
-89.714288
 20
657.714284
 30
0.0
 10
-92.000000
 20
629.714284
 30
0.0
 10
-90.857144
 20
626.285716
 30
0.0
 10
-86.000000
 20
624.285716
 30
0.0
 10
-77.142858
 20
625.428572
 30
0.0
 10
-68.857143
 20
620.857148
 30
0.0
 10
-62.857143
 20
603.142860
 30
0.0
 10
-56.000000
 20
593.714284
 30
0.0
 10
-51.428571
 20
598.571428
 30
0.0
 10
-45.428571
 20
632.857148
 30
0.0
 10
-46.571429
 20
662.000004
 30
0.0
 10
-44.285714
 20
679.142860
 30
0.0
 10
-42.571429
 20
680.857148
 30
0.0
  0
LWPOLYLINE
  5
10e
100
AcDbEntity
  8
Layer_1
 62
7
100
AcDbPolyline
 90
18
 70
1
 10
-75.142858
 20
574.000004
 30
0.0
 10
-76.714286
 20
582.714284
 30
0.0
 10
-84.714288
 20
603.571428
 30
0.0
 10
-83.285712
 20
611.285716
 30
0.0
 10
-86.428568
 20
624.142860
 30
0.0
 10
-90.571432
 20
626.142860
 30
0.0
 10
-92.000000
 20
629.714284
 30
0.0
 10
-89.857144
 20
658.000004
 30
0.0
 10
-104.571432
 20
646.857148
 30
0.0
 10
-122.285712
 20
643.428572
 30
0.0
 10
-122.142856
 20
627.285716
 30
0.0
 10
-115.000000
 20
618.571428
 30
0.0
 10
-110.428568
 20
606.000004
 30
0.0
 10
-110.285712
 20
594.571428
 30
0.0
 10
-106.285712
 20
587.428572
 30
0.0
 10
-90.571432
 20
585.285716
 30
0.0
 10
-82.857144
 20
574.714284
 30
0.0
 10
-75.142858
 20
574.000004
 30
0.0
  0
LWPOLYLINE
  5
10f
100
AcDbEntity
  8
Layer_1
 62
7
100
AcDbPolyline
 90
29
 70
1
 10
-120.285712
 20
519.428572
 30
0.0
 10
-115.714288
 20
529.428572
 30
0.0
 10
-109.571432
 20
534.571428
 30
0.0
 10
-105.714288
 20
543.285716
 30
0.0
 10
-101.000000
 20
548.285716
 30
0.0
 10
-94.428568
 20
550.571428
 30
0.0
 10
-87.857144
 20
549.857148
 30
0.0
 10
-80.714288
 20
552.857148
 30
0.0
 10
-72.714286
 20
565.714284
 30
0.0
 10
-75.285714
 20
574.142860
 30
0.0
 10
-82.857144
 20
574.571428
 30
0.0
 10
-90.857144
 20
585.142860
 30
0.0
 10
-106.285712
 20
587.571428
 30
0.0
 10
-110.285712
 20
594.285716
 30
0.0
 10
-110.285712
 20
605.142860
 30
0.0
 10
-115.000000
 20
618.428572
 30
0.0
 10
-122.714288
 20
627.428572
 30
0.0
 10
-128.285712
 20
623.000004
 30
0.0
 10
-132.285712
 20
624.428572
 30
0.0
 10
-139.000000
 20
619.000004
 30
0.0
 10
-140.000000
 20
612.857148
 30
0.0
 10
-131.857144
 20
595.714284
 30
0.0
 10
-137.428568
 20
586.142860
 30
0.0
 10
-133.000000
 20
568.285716
 30
0.0
 10
-132.571432
 20
552.000004
 30
0.0
 10
-144.571432
 20
530.285716
 30
0.0
 10
-136.857144
 20
530.142860
 30
0.0
 10
-122.428568
 20
519.714284
 30
0.0
 10
-120.285712
 20
519.428572
 30
0.0
  0
ENDSEC
  0
SECTION
  2
OBJECTS
  0
DICTIONARY
  5
C
330
0
100
AcDbDictionary
  3
ACAD_GROUP
350
D
  3
ACAD_MLINESTYLE
350
17
  0
DICTIONARY
  5
D
330
C
100
AcDbDictionary
  0
DICTIONARY
  5
1A
330
C
100
AcDbDictionary
  0
DICTIONARY
  5
17
330
C
100
AcDbDictionary
  3
STANDARD
350
18
  0
DICTIONARY
  5
19
330
C
100
AcDbDictionary
  0
ENDSEC
  0
EOF
