  0
SECTION
  2
HEADER
  9
$ACADVER
  1
AC1014
  9
$HANDSEED
  5
FFFF
  9
$MEASUREMENT
 70
     1
  0
ENDSEC
  0
SECTION
  2
TABLES
  0
TABLE
  2
VPORT
  5
8
330
0
100
AcDbSymbolTable
 70
     4
  0
VPORT
  5
2E
330
8
100
AcDbSymbolTableRecord
100
AcDbViewportTableRecord
  2
*ACTIVE
 70
     0
 10
0.0
 20
0.0
 11
1.0
 21
1.0
 12
210.0
 22
148.5
 13
0.0
 23
0.0
 14
10.0
 24
10.0
 15
10.0
 25
10.0
 16
0.0
 26
0.0
 36
1.0
 17
0.0
 27
0.0
 37
0.0
 40
341.0
 41
1.24
 42
50.0
 43
0.0
 44
0.0
 50
0.0
 51
0.0
 71
     0
 72
   100
 73
     1
 74
     3
 75
     0
 76
     0
 77
     0
 78
     0
  0
ENDTAB
  0
TABLE
  2
LTYPE
  5
5
330
0
100
AcDbSymbolTable
 70
     1
  0
LTYPE
  5
14
330
5
100
AcDbSymbolTableRecord
100
AcDbLinetypeTableRecord
  2
BYBLOCK
 70
     0
  3

 72
    65
 73
     0
 40
0.0
  0
LTYPE
  5
15
330
5
100
AcDbSymbolTableRecord
100
AcDbLinetypeTableRecord
  2
BYLAYER
 70
     0
  3

 72
    65
 73
     0
 40
0.0
  0
LTYPE
  5
16
330
5
100
AcDbSymbolTableRecord
100
AcDbLinetypeTableRecord
  2
CONTINUOUS
 70
     0
  3
Solid line
 72
    65
 73
     0
 40
0.0
  0
ENDTAB
  0
TABLE
  2
LAYER
  5
2
100
AcDbSymbolTable
 70
2
  0
LAYER
  5
50
100
AcDbSymbolTableRecord
100
AcDbLayerTableRecord
  2
0
 70
0
  6
CONTINUOUS
  0
LAYER
  5
51
100
AcDbSymbolTableRecord
100
AcDbLayerTableRecord
  2
Layer_1
 70
0
  6
CONTINUOUS
  0
ENDTAB
  0
TABLE
  2
STYLE
  5
3
330
0
100
AcDbSymbolTable
 70
     1
  0
STYLE
  5
11
330
3
100
AcDbSymbolTableRecord
100
AcDbTextStyleTableRecord
  2
STANDARD
 70
     0
 40
0.0
 41
1.0
 50
0.0
 71
     0
 42
2.5
  3
txt
  4

  0
ENDTAB
  0
TABLE
  2
VIEW
  5
6
330
0
100
AcDbSymbolTable
 70
     0
  0
ENDTAB
  0
TABLE
  2
UCS
  5
7
330
0
100
AcDbSymbolTable
 70
     0
  0
ENDTAB
  0
TABLE
  2
APPID
  5
9
330
0
100
AcDbSymbolTable
 70
     2
  0
APPID
  5
12
330
9
100
AcDbSymbolTableRecord
100
AcDbRegAppTableRecord
  2
ACAD
 70
     0
  0
ENDTAB
  0
TABLE
  2
DIMSTYLE
  5
A
330
0
100
AcDbSymbolTable
 70
     1
  0
DIMSTYLE
105
27
330
A
100
AcDbSymbolTableRecord
100
AcDbDimStyleTableRecord
  2
ISO-25
 70
     0
  3

  4

  5

  6

  7

 40
1.0
 41
2.5
 42
0.625
 43
3.75
 44
1.25
 45
0.0
 46
0.0
 47
0.0
 48
0.0
140
2.5
141
2.5
142
0.0
143
0.03937007874016
144
1.0
145
0.0
146
1.0
147
0.625
 71
     0
 72
     0
 73
     0
 74
     0
 75
     0
 76
     0
 77
     1
 78
     8
170
     0
171
     3
172
     1
173
     0
174
     0
175
     0
176
     0
177
     0
178
     0
270
     2
271
     2
272
     2
273
     2
274
     3
340
11
275
     0
280
     0
281
     0
282
     0
283
     0
284
     8
285
     0
286
     0
287
     3
288
     0
  0
ENDTAB
  0
TABLE
  2
BLOCK_RECORD
  5
1
330
0
100
AcDbSymbolTable
 70
     1
  0
BLOCK_RECORD
  5
1F
330
1
100
AcDbSymbolTableRecord
100
AcDbBlockTableRecord
  2
*MODEL_SPACE
  0
BLOCK_RECORD
  5
1B
330
1
100
AcDbSymbolTableRecord
100
AcDbBlockTableRecord
  2
*PAPER_SPACE
  0
ENDTAB
  0
ENDSEC
  0
SECTION
  2
BLOCKS
  0
BLOCK
  5
20
330
1F
100
AcDbEntity
  8
0
100
AcDbBlockBegin
  2
*MODEL_SPACE
 70
     0
 10
0.0
 20
0.0
 30
0.0
  3
*MODEL_SPACE
  1

  0
ENDBLK
  5
21
330
1F
100
AcDbEntity
  8
0
100
AcDbBlockEnd
  0
BLOCK
  5
1C
330
1B
100
AcDbEntity
 67
     1
  8
0
100
AcDbBlockBegin
  2
*PAPER_SPACE
  1

  0
ENDBLK
  5
1D
330
1B
100
AcDbEntity
 67
     1
  8
0
100
AcDbBlockEnd
  0
ENDSEC
  0
SECTION
  2
ENTITIES
  0
LWPOLYLINE
  5
100
100
AcDbEntity
  8
Layer_1
 62
7
100
AcDbPolyline
 90
26
 70
1
 10
-92.125912
 20
205.262996
 30
0.0
 10
-24.243661
 20
243.244732
 30
0.0
 10
-11.313709
 20
251.325956
 30
0.0
 10
9.697465
 20
279.610228
 30
0.0
 10
21.011173
 20
330.521916
 30
0.0
 10
41.214224
 20
353.149332
 30
0.0
 10
70.306617
 20
363.654916
 30
0.0
 10
97.782768
 20
400.020412
 30
0.0
 10
130.107648
 20
397.596044
 30
0.0
 10
173.746240
 20
420.223460
 30
0.0
 10
116.369576
 20
451.740220
 30
0.0
 10
85.660936
 20
539.825524
 30
0.0
 10
75.155350
 20
557.604204
 30
0.0
 10
69.498495
 20
543.866132
 30
0.0
 10
33.133003
 20
517.198100
 30
0.0
 10
-4.848732
 20
492.146324
 30
0.0
 10
-72.730983
 20
431.537164
 30
0.0
 10
-88.893424
 20
414.566604
 30
0.0
 10
-97.782768
 20
391.939188
 30
0.0
 10
-97.782768
 20
361.230548
 30
0.0
 10
-137.380744
 20
322.440692
 30
0.0
 10
-153.543184
 20
299.005156
 30
0.0
 10
-143.037600
 20
261.023420
 30
0.0
 10
-112.328960
 20
236.779756
 30
0.0
 10
-101.823376
 20
227.890412
 30
0.0
 10
-92.125912
 20
205.262996
 30
0.0
  0
LWPOLYLINE
  5
101
100
AcDbEntity
  8
Layer_1
 62
7
100
AcDbPolyline
 90
31
 70
0
 10
63.841641
 20
583.464108
 30
0.0
 10
76.771594
 20
557.604204
 30
0.0
 10
71.114739
 20
546.290500
 30
0.0
 10
0.808122
 20
496.186932
 30
0.0
 10
-73.539106
 20
432.345292
 30
0.0
 10
-86.469056
 20
417.799092
 30
0.0
 10
-96.166520
 20
397.596044
 30
0.0
 10
-97.782768
 20
360.422428
 30
0.0
 10
-138.996992
 20
323.248812
 30
0.0
 10
-154.351312
 20
300.621396
 30
0.0
 10
-143.845720
 20
261.023420
 30
0.0
 10
-105.055864
 20
228.698540
 30
0.0
 10
-92.125912
 20
205.262996
 30
0.0
 10
-163.240648
 20
164.048772
 30
0.0
 10
-181.019336
 20
160.008164
 30
0.0
 10
-206.879240
 20
213.344220
 30
0.0
 10
-386.282336
 20
417.799092
 30
0.0
 10
-294.964544
 20
466.286412
 30
0.0
 10
-282.842712
 20
488.913836
 30
0.0
 10
-251.325952
 20
523.663076
 30
0.0
 10
-233.547272
 20
513.157492
 30
0.0
 10
-197.181776
 20
513.157492
 30
0.0
 10
-156.775672
 20
500.227540
 30
0.0
 10
-108.288352
 20
500.227540
 30
0.0
 10
-85.660936
 20
530.128060
 30
0.0
 10
-63.033519
 20
543.058012
 30
0.0
 10
-50.911688
 20
553.563596
 30
0.0
 10
-76.771594
 20
563.261060
 30
0.0
 10
-93.742160
 20
586.696596
 30
0.0
 10
-107.480232
 20
613.364628
 30
0.0
 10
-223.849808
 20
558.412324
 30
0.0
  0
LWPOLYLINE
  5
102
100
AcDbEntity
  8
Layer_1
 62
7
100
AcDbPolyline
 90
33
 70
1
 10
78.387838
 20
556.796084
 30
0.0
 10
64.649763
 20
581.847868
 30
0.0
 10
31.516759
 20
572.150404
 30
0.0
 10
-11.313709
 20
570.534156
 30
0.0
 10
-28.284271
 20
562.452940
 30
0.0
 10
-31.516759
 20
553.563596
 30
0.0
 10
-52.527932
 20
553.563596
 30
0.0
 10
-66.266007
 20
541.441764
 30
0.0
 10
-81.620328
 20
532.552420
 30
0.0
 10
-105.055864
 20
502.651908
 30
0.0
 10
-152.735064
 20
499.419420
 30
0.0
 10
-199.606144
 20
513.965612
 30
0.0
 10
-231.931024
 20
512.349372
 30
0.0
 10
-252.134072
 20
523.663076
 30
0.0
 10
-285.267080
 20
486.489468
 30
0.0
 10
-294.156424
 20
465.478292
 30
0.0
 10
-387.090456
 20
417.799092
 30
0.0
 10
-203.646752
 20
210.919852
 30
0.0
 10
-180.211216
 20
160.008164
 30
0.0
 10
-159.200040
 20
164.048772
 30
0.0
 10
-92.934032
 20
205.262996
 30
0.0
 10
-105.863984
 20
229.506660
 30
0.0
 10
-145.461968
 20
262.639660
 30
0.0
 10
-155.967552
 20
299.813276
 30
0.0
 10
-139.805112
 20
322.440692
 30
0.0
 10
-97.782768
 20
362.038676
 30
0.0
 10
-96.974648
 20
401.636652
 30
0.0
 10
-76.771594
 20
429.112804
 30
0.0
 10
-1.616244
 20
495.378812
 30
0.0
 10
58.184786
 20
536.593036
 30
0.0
 10
72.730983
 20
548.714860
 30
0.0
 10
74.347227
 20
559.220452
 30
0.0
 10
78.387838
 20
556.796084
 30
0.0
  0
LWPOLYLINE
  5
103
100
AcDbEntity
  8
Layer_1
 62
7
100
AcDbPolyline
 90
13
 70
1
 10
-250.517832
 20
523.663076
 30
0.0
 10
-222.233560
 20
557.604204
 30
0.0
 10
-107.480232
 20
612.556500
 30
0.0
 10
-83.236568
 20
572.958524
 30
0.0
 10
-76.771594
 20
563.261060
 30
0.0
 10
-53.336054
 20
552.755476
 30
0.0
 10
-67.074129
 20
540.633644
 30
0.0
 10
-81.620328
 20
534.976788
 30
0.0
 10
-106.672112
 20
502.651908
 30
0.0
 10
-159.200040
 20
501.035660
 30
0.0
 10
-199.606144
 20
514.773740
 30
0.0
 10
-234.355392
 20
514.773740
 30
0.0
 10
-250.517832
 20
523.663076
 30
0.0
  0
LWPOLYLINE
  5
104
100
AcDbEntity
  8
Layer_1
 62
7
100
AcDbPolyline
 90
11
 70
1
 10
-108.288352
 20
614.172748
 30
0.0
 10
-20.203051
 20
652.962604
 30
0.0
 10
33.941126
 20
652.962604
 30
0.0
 10
65.457885
 20
581.039748
 30
0.0
 10
30.708638
 20
572.958524
 30
0.0
 10
-12.121830
 20
571.342276
 30
0.0
 10
-29.900515
 20
561.644812
 30
0.0
 10
-30.708638
 20
553.563596
 30
0.0
 10
-50.911688
 20
552.755476
 30
0.0
 10
-76.771594
 20
565.685428
 30
0.0
 10
-108.288352
 20
614.172748
 30
0.0
  0
ENDSEC
  0
SECTION
  2
OBJECTS
  0
DICTIONARY
  5
C
330
0
100
AcDbDictionary
  3
ACAD_GROUP
350
D
  3
ACAD_MLINESTYLE
350
17
  0
DICTIONARY
  5
D
330
C
100
AcDbDictionary
  0
DICTIONARY
  5
1A
330
C
100
AcDbDictionary
  0
DICTIONARY
  5
17
330
C
100
AcDbDictionary
  3
STANDARD
350
18
  0
DICTIONARY
  5
19
330
C
100
AcDbDictionary
  0
ENDSEC
  0
EOF
