  0
SECTION
  2
HEADER
  9
$ACADVER
  1
AC1014
  9
$HANDSEED
  5
FFFF
  9
$MEASUREMENT
 70
     1
  0
ENDSEC
  0
SECTION
  2
TABLES
  0
TABLE
  2
VPORT
  5
8
330
0
100
AcDbSymbolTable
 70
     4
  0
VPORT
  5
2E
330
8
100
AcDbSymbolTableRecord
100
AcDbViewportTableRecord
  2
*ACTIVE
 70
     0
 10
0.0
 20
0.0
 11
1.0
 21
1.0
 12
210.0
 22
148.5
 13
0.0
 23
0.0
 14
10.0
 24
10.0
 15
10.0
 25
10.0
 16
0.0
 26
0.0
 36
1.0
 17
0.0
 27
0.0
 37
0.0
 40
341.0
 41
1.24
 42
50.0
 43
0.0
 44
0.0
 50
0.0
 51
0.0
 71
     0
 72
   100
 73
     1
 74
     3
 75
     0
 76
     0
 77
     0
 78
     0
  0
ENDTAB
  0
TABLE
  2
LTYPE
  5
5
330
0
100
AcDbSymbolTable
 70
     1
  0
LTYPE
  5
14
330
5
100
AcDbSymbolTableRecord
100
AcDbLinetypeTableRecord
  2
BYBLOCK
 70
     0
  3

 72
    65
 73
     0
 40
0.0
  0
LTYPE
  5
15
330
5
100
AcDbSymbolTableRecord
100
AcDbLinetypeTableRecord
  2
BYLAYER
 70
     0
  3

 72
    65
 73
     0
 40
0.0
  0
LTYPE
  5
16
330
5
100
AcDbSymbolTableRecord
100
AcDbLinetypeTableRecord
  2
CONTINUOUS
 70
     0
  3
Solid line
 72
    65
 73
     0
 40
0.0
  0
ENDTAB
  0
TABLE
  2
LAYER
  5
2
100
AcDbSymbolTable
 70
2
  0
LAYER
  5
50
100
AcDbSymbolTableRecord
100
AcDbLayerTableRecord
  2
0
 70
0
  6
CONTINUOUS
  0
LAYER
  5
51
100
AcDbSymbolTableRecord
100
AcDbLayerTableRecord
  2
Layer_1
 70
0
  6
CONTINUOUS
  0
ENDTAB
  0
TABLE
  2
STYLE
  5
3
330
0
100
AcDbSymbolTable
 70
     1
  0
STYLE
  5
11
330
3
100
AcDbSymbolTableRecord
100
AcDbTextStyleTableRecord
  2
STANDARD
 70
     0
 40
0.0
 41
1.0
 50
0.0
 71
     0
 42
2.5
  3
txt
  4

  0
ENDTAB
  0
TABLE
  2
VIEW
  5
6
330
0
100
AcDbSymbolTable
 70
     0
  0
ENDTAB
  0
TABLE
  2
UCS
  5
7
330
0
100
AcDbSymbolTable
 70
     0
  0
ENDTAB
  0
TABLE
  2
APPID
  5
9
330
0
100
AcDbSymbolTable
 70
     2
  0
APPID
  5
12
330
9
100
AcDbSymbolTableRecord
100
AcDbRegAppTableRecord
  2
ACAD
 70
     0
  0
ENDTAB
  0
TABLE
  2
DIMSTYLE
  5
A
330
0
100
AcDbSymbolTable
 70
     1
  0
DIMSTYLE
105
27
330
A
100
AcDbSymbolTableRecord
100
AcDbDimStyleTableRecord
  2
ISO-25
 70
     0
  3

  4

  5

  6

  7

 40
1.0
 41
2.5
 42
0.625
 43
3.75
 44
1.25
 45
0.0
 46
0.0
 47
0.0
 48
0.0
140
2.5
141
2.5
142
0.0
143
0.03937007874016
144
1.0
145
0.0
146
1.0
147
0.625
 71
     0
 72
     0
 73
     0
 74
     0
 75
     0
 76
     0
 77
     1
 78
     8
170
     0
171
     3
172
     1
173
     0
174
     0
175
     0
176
     0
177
     0
178
     0
270
     2
271
     2
272
     2
273
     2
274
     3
340
11
275
     0
280
     0
281
     0
282
     0
283
     0
284
     8
285
     0
286
     0
287
     3
288
     0
  0
ENDTAB
  0
TABLE
  2
BLOCK_RECORD
  5
1
330
0
100
AcDbSymbolTable
 70
     1
  0
BLOCK_RECORD
  5
1F
330
1
100
AcDbSymbolTableRecord
100
AcDbBlockTableRecord
  2
*MODEL_SPACE
  0
BLOCK_RECORD
  5
1B
330
1
100
AcDbSymbolTableRecord
100
AcDbBlockTableRecord
  2
*PAPER_SPACE
  0
ENDTAB
  0
ENDSEC
  0
SECTION
  2
BLOCKS
  0
BLOCK
  5
20
330
1F
100
AcDbEntity
  8
0
100
AcDbBlockBegin
  2
*MODEL_SPACE
 70
     0
 10
0.0
 20
0.0
 30
0.0
  3
*MODEL_SPACE
  1

  0
ENDBLK
  5
21
330
1F
100
AcDbEntity
  8
0
100
AcDbBlockEnd
  0
BLOCK
  5
1C
330
1B
100
AcDbEntity
 67
     1
  8
0
100
AcDbBlockBegin
  2
*PAPER_SPACE
  1

  0
ENDBLK
  5
1D
330
1B
100
AcDbEntity
 67
     1
  8
0
100
AcDbBlockEnd
  0
ENDSEC
  0
SECTION
  2
ENTITIES
  0
LWPOLYLINE
  5
100
100
AcDbEntity
  8
Layer_1
 62
7
100
AcDbPolyline
 90
36
 70
1
 10
-54.952298
 20
566.493548
 30
0.0
 10
-35.557370
 20
567.301668
 30
0.0
 10
-10.505586
 20
572.150404
 30
0.0
 10
20.203051
 20
569.726036
 30
0.0
 10
27.476150
 20
571.342276
 30
0.0
 10
46.062956
 20
567.301668
 30
0.0
 10
92.934032
 20
584.272236
 30
0.0
 10
105.863984
 20
609.324012
 30
0.0
 10
101.823376
 20
623.062092
 30
0.0
 10
105.055864
 20
632.759556
 30
0.0
 10
126.067040
 20
642.457020
 30
0.0
 10
131.723888
 20
643.265140
 30
0.0
 10
162.432528
 20
635.183924
 30
0.0
 10
164.048776
 20
625.486460
 30
0.0
 10
175.362480
 20
614.980868
 30
0.0
 10
163.240648
 20
602.050916
 30
0.0
 10
160.008160
 20
589.120964
 30
0.0
 10
144.653848
 20
576.191012
 30
0.0
 10
131.723888
 20
545.482372
 30
0.0
 10
135.764504
 20
531.744300
 30
0.0
 10
121.218304
 20
517.198100
 30
0.0
 10
118.793936
 20
493.762564
 30
0.0
 10
84.044688
 20
483.256980
 30
0.0
 10
71.922862
 20
470.327028
 30
0.0
 10
58.992909
 20
467.094540
 30
0.0
 10
47.679200
 20
458.205196
 30
0.0
 10
37.981736
 20
463.862052
 30
0.0
 10
38.789858
 20
471.943268
 30
0.0
 10
16.970562
 20
477.600124
 30
0.0
 10
8.889342
 20
486.489468
 30
0.0
 10
-21.819295
 20
492.146324
 30
0.0
 10
-25.051783
 20
509.116884
 30
0.0
 10
-40.406102
 20
518.006228
 30
0.0
 10
-41.214224
 20
539.825524
 30
0.0
 10
-60.609153
 20
553.563596
 30
0.0
 10
-54.952298
 20
566.493548
 30
0.0
  0
LWPOLYLINE
  5
101
100
AcDbEntity
  8
Layer_1
 62
7
100
AcDbPolyline
 90
30
 70
1
 10
73.539106
 20
470.327028
 30
0.0
 10
58.184786
 20
466.286412
 30
0.0
 10
48.487322
 20
459.821436
 30
0.0
 10
38.789858
 20
463.862052
 30
0.0
 10
39.597980
 20
472.751388
 30
0.0
 10
18.586807
 20
477.600124
 30
0.0
 10
10.505586
 20
488.105708
 30
0.0
 10
-22.627417
 20
493.762564
 30
0.0
 10
-29.092394
 20
459.821436
 30
0.0
 10
-33.133003
 20
459.821436
 30
0.0
 10
-39.597980
 20
439.618388
 30
0.0
 10
-30.708638
 20
438.810268
 30
0.0
 10
-22.627417
 20
429.920924
 30
0.0
 10
-23.435539
 20
414.566604
 30
0.0
 10
16.970562
 20
366.079284
 30
0.0
 10
19.394929
 20
345.068108
 30
0.0
 10
29.900515
 20
338.603132
 30
0.0
 10
49.295444
 20
331.330036
 30
0.0
 10
62.225397
 20
336.178764
 30
0.0
 10
94.550280
 20
347.492476
 30
0.0
 10
97.782768
 20
357.998060
 30
0.0
 10
93.742160
 20
370.928012
 30
0.0
 10
93.742160
 20
394.363556
 30
0.0
 10
88.893424
 20
398.404164
 30
0.0
 10
87.277176
 20
421.031580
 30
0.0
 10
76.771594
 20
429.920924
 30
0.0
 10
75.155350
 20
434.769652
 30
0.0
 10
84.044688
 20
445.275244
 30
0.0
 10
84.852816
 20
459.013316
 30
0.0
 10
73.539106
 20
470.327028
 30
0.0
  0
LWPOLYLINE
  5
102
100
AcDbEntity
  8
Layer_1
 62
7
100
AcDbPolyline
 90
14
 70
1
 10
-39.597980
 20
441.234636
 30
0.0
 10
-27.476150
 20
438.002140
 30
0.0
 10
-21.011173
 20
429.920924
 30
0.0
 10
-22.627417
 20
412.950364
 30
0.0
 10
20.203051
 20
364.463036
 30
0.0
 10
19.394929
 20
345.068108
 30
0.0
 10
29.900515
 20
338.603132
 30
0.0
 10
19.394929
 20
332.946276
 30
0.0
 10
-43.638590
 20
332.946276
 30
0.0
 10
-79.195959
 20
374.968628
 30
0.0
 10
-95.358400
 20
378.201116
 30
0.0
 10
-89.701544
 20
389.514820
 30
0.0
 10
-52.527932
 20
418.607212
 30
0.0
 10
-39.597980
 20
441.234636
 30
0.0
  0
LWPOLYLINE
  5
103
100
AcDbEntity
  8
Layer_1
 62
7
100
AcDbPolyline
 90
11
 70
1
 10
93.742160
 20
347.492476
 30
0.0
 10
133.340136
 20
339.411252
 30
0.0
 10
144.653848
 20
361.230548
 30
0.0
 10
163.240648
 20
371.736140
 30
0.0
 10
151.926944
 20
397.596044
 30
0.0
 10
133.340136
 20
409.717876
 30
0.0
 10
109.096472
 20
394.363556
 30
0.0
 10
93.742160
 20
393.555428
 30
0.0
 10
94.550280
 20
370.119892
 30
0.0
 10
97.782768
 20
360.422428
 30
0.0
 10
93.742160
 20
347.492476
 30
0.0
  0
LWPOLYLINE
  5
104
100
AcDbEntity
  8
Layer_1
 62
7
100
AcDbPolyline
 90
17
 70
1
 10
160.816288
 20
370.119892
 30
0.0
 10
152.735064
 20
395.171676
 30
0.0
 10
133.340136
 20
408.909748
 30
0.0
 10
153.543184
 20
434.769652
 30
0.0
 10
161.624408
 20
459.013316
 30
0.0
 10
174.554360
 20
463.862052
 30
0.0
 10
193.949288
 20
463.053924
 30
0.0
 10
201.222384
 20
466.286412
 30
0.0
 10
207.687360
 20
460.629564
 30
0.0
 10
234.355392
 20
445.275244
 30
0.0
 10
239.204120
 20
445.275244
 30
0.0
 10
248.901584
 20
435.577780
 30
0.0
 10
205.263000
 20
420.223460
 30
0.0
 10
182.635584
 20
403.252900
 30
0.0
 10
179.403096
 20
387.898580
 30
0.0
 10
181.019336
 20
375.776748
 30
0.0
 10
160.816288
 20
370.119892
 30
0.0
  0
LWPOLYLINE
  5
105
100
AcDbEntity
  8
Layer_1
 62
7
100
AcDbPolyline
 90
40
 70
1
 10
175.362480
 20
614.980868
 30
0.0
 10
164.048776
 20
601.242796
 30
0.0
 10
160.008160
 20
589.929084
 30
0.0
 10
144.653848
 20
576.999132
 30
0.0
 10
130.915768
 20
544.674252
 30
0.0
 10
135.764504
 20
531.744300
 30
0.0
 10
120.410184
 20
519.622468
 30
0.0
 10
117.985816
 20
493.762564
 30
0.0
 10
86.469056
 20
485.681348
 30
0.0
 10
70.306617
 20
470.327028
 30
0.0
 10
84.852816
 20
459.013316
 30
0.0
 10
83.236568
 20
446.083364
 30
0.0
 10
74.347227
 20
436.385900
 30
0.0
 10
74.347227
 20
429.920924
 30
0.0
 10
87.277176
 20
420.223460
 30
0.0
 10
88.085304
 20
399.212284
 30
0.0
 10
96.974648
 20
393.555428
 30
0.0
 10
109.096472
 20
392.747308
 30
0.0
 10
133.340136
 20
408.101628
 30
0.0
 10
155.159432
 20
436.385900
 30
0.0
 10
163.240648
 20
458.205196
 30
0.0
 10
171.321872
 20
461.437684
 30
0.0
 10
195.565536
 20
462.245804
 30
0.0
 10
202.030512
 20
464.670172
 30
0.0
 10
205.263000
 20
459.013316
 30
0.0
 10
233.547272
 20
445.275244
 30
0.0
 10
243.244736
 20
444.467124
 30
0.0
 10
244.052856
 20
441.234636
 30
0.0
 10
248.901584
 20
435.577780
 30
0.0
 10
271.529008
 20
446.083364
 30
0.0
 10
232.739144
 20
504.268148
 30
0.0
 10
214.960464
 20
511.541252
 30
0.0
 10
206.879240
 20
518.814348
 30
0.0
 10
207.687360
 20
530.128060
 30
0.0
 10
212.536096
 20
538.209276
 30
0.0
 10
212.536096
 20
550.331108
 30
0.0
 10
204.454872
 20
566.493548
 30
0.0
 10
195.565536
 20
570.534156
 30
0.0
 10
196.373656
 20
585.080356
 30
0.0
 10
175.362480
 20
614.980868
 30
0.0
  0
LWPOLYLINE
  5
106
100
AcDbEntity
  8
Layer_1
 62
7
100
AcDbPolyline
 90
18
 70
1
 10
155.159432
 20
306.278252
 30
0.0
 10
112.328960
 20
195.565532
 30
0.0
 10
112.328960
 20
179.403092
 30
0.0
 10
140.613232
 20
186.676188
 30
0.0
 10
160.008160
 20
187.484316
 30
0.0
 10
179.403096
 20
176.170604
 30
0.0
 10
236.779760
 20
180.211212
 30
0.0
 10
286.883320
 20
223.849804
 30
0.0
 10
299.005152
 20
240.820364
 30
0.0
 10
301.429520
 20
247.285340
 30
0.0
 10
289.307688
 20
278.802100
 30
0.0
 10
292.540176
 20
289.307692
 30
0.0
 10
261.831536
 20
294.964540
 30
0.0
 10
254.558440
 20
303.045764
 30
0.0
 10
227.890416
 20
312.743228
 30
0.0
 10
214.152336
 20
293.348300
 30
0.0
 10
179.403096
 20
295.772668
 30
0.0
 10
155.159432
 20
306.278252
 30
0.0
  0
LWPOLYLINE
  5
107
100
AcDbEntity
  8
Layer_1
 62
7
100
AcDbPolyline
 90
36
 70
1
 10
269.104640
 20
447.699612
 30
0.0
 10
227.890416
 20
429.112804
 30
0.0
 10
208.495488
 20
421.031580
 30
0.0
 10
182.635584
 20
404.869140
 30
0.0
 10
178.594968
 20
387.090452
 30
0.0
 10
179.403096
 20
375.776748
 30
0.0
 10
156.775672
 20
370.119892
 30
0.0
 10
145.461968
 20
361.230548
 30
0.0
 10
133.340136
 20
338.603132
 30
0.0
 10
148.694456
 20
332.138156
 30
0.0
 10
156.775672
 20
311.935108
 30
0.0
 10
155.159432
 20
304.662004
 30
0.0
 10
176.978728
 20
294.156420
 30
0.0
 10
214.152336
 20
293.348300
 30
0.0
 10
227.890416
 20
311.126988
 30
0.0
 10
254.558440
 20
302.237644
 30
0.0
 10
262.639664
 20
293.348300
 30
0.0
 10
293.348296
 20
287.691444
 30
0.0
 10
300.621400
 20
299.813276
 30
0.0
 10
344.259984
 20
293.348300
 30
0.0
 10
378.201112
 20
312.743228
 30
0.0
 10
379.009232
 20
333.754404
 30
0.0
 10
368.503648
 20
353.957452
 30
0.0
 10
346.684352
 20
374.160500
 30
0.0
 10
343.451864
 20
396.787924
 30
0.0
 10
337.795008
 20
408.101628
 30
0.0
 10
330.521912
 20
400.828532
 30
0.0
 10
314.359472
 20
411.334116
 30
0.0
 10
303.045760
 20
411.334116
 30
0.0
 10
302.237640
 20
415.374724
 30
0.0
 10
315.975720
 20
421.839700
 30
0.0
 10
284.458960
 20
429.920924
 30
0.0
 10
282.034592
 20
435.577780
 30
0.0
 10
284.458960
 20
442.042756
 30
0.0
 10
280.418344
 20
451.740220
 30
0.0
 10
269.104640
 20
447.699612
 30
0.0
  0
LWPOLYLINE
  5
108
100
AcDbEntity
  8
Layer_1
 62
7
100
AcDbPolyline
 90
28
 70
1
 10
160.008160
 20
635.183924
 30
0.0
 10
163.240648
 20
622.253972
 30
0.0
 10
196.373656
 20
584.272236
 30
0.0
 10
195.565536
 20
568.917916
 30
0.0
 10
206.071120
 20
564.069180
 30
0.0
 10
213.344216
 20
547.906740
 30
0.0
 10
206.879240
 20
530.936180
 30
0.0
 10
206.879240
 20
517.198100
 30
0.0
 10
233.547272
 20
502.651908
 30
0.0
 10
269.912760
 20
448.507732
 30
0.0
 10
306.278248
 20
460.629564
 30
0.0
 10
310.318864
 20
468.710780
 30
0.0
 10
321.632568
 20
467.902660
 30
0.0
 10
320.824448
 20
484.065100
 30
0.0
 10
308.702616
 20
491.338196
 30
0.0
 10
316.783840
 20
504.268148
 30
0.0
 10
297.388912
 20
518.006228
 30
0.0
 10
290.115808
 20
544.674252
 30
0.0
 10
286.075200
 20
568.109788
 30
0.0
 10
290.115808
 20
593.969700
 30
0.0
 10
298.197032
 20
605.283404
 30
0.0
 10
309.510736
 20
613.364628
 30
0.0
 10
310.318864
 20
623.062092
 30
0.0
 10
277.993984
 20
621.445844
 30
0.0
 10
231.122904
 20
634.375796
 30
0.0
 10
205.263000
 20
638.416412
 30
0.0
 10
185.868072
 20
646.497628
 30
0.0
 10
160.008160
 20
635.183924
 30
0.0
  0
LWPOLYLINE
  5
109
100
AcDbEntity
  8
Layer_1
 62
7
100
AcDbPolyline
 90
8
 70
1
 10
264.255904
 20
627.102700
 30
0.0
 10
269.912760
 20
649.730116
 30
0.0
 10
292.540176
 20
662.660068
 30
0.0
 10
312.743232
 20
636.800164
 30
0.0
 10
308.702616
 20
632.759556
 30
0.0
 10
309.510736
 20
623.870212
 30
0.0
 10
278.802104
 20
623.062092
 30
0.0
 10
264.255904
 20
627.102700
 30
0.0
  0
LWPOLYLINE
  5
10a
100
AcDbEntity
  8
Layer_1
 62
7
100
AcDbPolyline
 90
25
 70
1
 10
307.894496
 20
632.759556
 30
0.0
 10
312.743232
 20
637.608284
 30
0.0
 10
292.540176
 20
664.276316
 30
0.0
 10
291.732056
 20
675.590020
 30
0.0
 10
298.197032
 20
680.438756
 30
0.0
 10
295.772664
 20
699.025564
 30
0.0
 10
308.702616
 20
713.571756
 30
0.0
 10
328.097544
 20
678.014388
 30
0.0
 10
348.300600
 20
677.206268
 30
0.0
 10
364.463040
 20
695.793076
 30
0.0
 10
391.939184
 20
701.449924
 30
0.0
 10
425.880312
 20
730.542324
 30
0.0
 10
432.345288
 20
709.531148
 30
0.0
 10
419.415336
 20
701.449924
 30
0.0
 10
404.869144
 20
673.973780
 30
0.0
 10
408.909752
 20
659.427580
 30
0.0
 10
405.677264
 20
656.195092
 30
0.0
 10
395.979800
 20
660.235700
 30
0.0
 10
394.363552
 20
655.386972
 30
0.0
 10
400.020408
 20
643.265140
 30
0.0
 10
393.555432
 20
628.718948
 30
0.0
 10
383.049848
 20
621.445844
 30
0.0
 10
377.392992
 20
608.515892
 30
0.0
 10
338.603136
 20
634.375796
 30
0.0
 10
307.894496
 20
632.759556
 30
0.0
  0
LWPOLYLINE
  5
10b
100
AcDbEntity
  8
Layer_1
 62
7
100
AcDbPolyline
 90
27
 70
1
 10
430.729048
 20
710.339268
 30
0.0
 10
419.415336
 20
703.874292
 30
0.0
 10
404.869144
 20
673.973780
 30
0.0
 10
409.717872
 20
660.235700
 30
0.0
 10
405.677264
 20
657.811340
 30
0.0
 10
395.979800
 20
661.851948
 30
0.0
 10
394.363552
 20
657.003212
 30
0.0
 10
399.212288
 20
641.648900
 30
0.0
 10
391.131064
 20
628.718948
 30
0.0
 10
383.857968
 20
624.678332
 30
0.0
 10
375.776744
 20
608.515892
 30
0.0
 10
382.241720
 20
596.394060
 30
0.0
 10
382.241720
 20
589.929084
 30
0.0
 10
393.555432
 20
571.342276
 30
0.0
 10
408.101632
 20
587.504724
 30
0.0
 10
412.142240
 20
589.120964
 30
0.0
 10
421.031584
 20
572.150404
 30
0.0
 10
437.194024
 20
568.109788
 30
0.0
 10
446.083368
 20
575.382892
 30
0.0
 10
441.234632
 20
585.888476
 30
0.0
 10
430.729048
 20
596.394060
 30
0.0
 10
438.002144
 20
599.626548
 30
0.0
 10
433.961536
 20
607.707772
 30
0.0
 10
458.205192
 20
631.143308
 30
0.0
 10
442.850872
 20
641.648900
 30
0.0
 10
442.850872
 20
665.084436
 30
0.0
 10
430.729048
 20
710.339268
 30
0.0
  0
LWPOLYLINE
  5
10c
100
AcDbEntity
  8
Layer_1
 62
7
100
AcDbPolyline
 90
15
 70
1
 10
457.397072
 20
631.143308
 30
0.0
 10
433.961536
 20
609.324012
 30
0.0
 10
437.194024
 20
598.818428
 30
0.0
 10
429.920920
 20
598.010308
 30
0.0
 10
442.850872
 20
581.847868
 30
0.0
 10
445.275240
 20
576.191012
 30
0.0
 10
478.408248
 20
558.412324
 30
0.0
 10
483.256976
 20
571.342276
 30
0.0
 10
492.146320
 20
572.958524
 30
0.0
 10
496.995056
 20
587.504724
 30
0.0
 10
495.378808
 20
598.010308
 30
0.0
 10
503.460032
 20
606.091524
 30
0.0
 10
500.227544
 20
612.556500
 30
0.0
 10
487.297584
 20
608.515892
 30
0.0
 10
457.397072
 20
631.143308
 30
0.0
  0
LWPOLYLINE
  5
10d
100
AcDbEntity
  8
Layer_1
 62
7
100
AcDbPolyline
 90
10
 70
1
 10
501.843784
 20
611.748380
 30
0.0
 10
502.651904
 20
606.091524
 30
0.0
 10
496.995056
 20
600.434676
 30
0.0
 10
495.378808
 20
585.888476
 30
0.0
 10
491.338200
 20
572.958524
 30
0.0
 10
532.552424
 20
568.109788
 30
0.0
 10
556.796080
 20
572.958524
 30
0.0
 10
559.220448
 20
595.585940
 30
0.0
 10
516.389984
 20
615.788988
 30
0.0
 10
501.843784
 20
611.748380
 30
0.0
  0
LWPOLYLINE
  5
10e
100
AcDbEntity
  8
Layer_1
 62
7
100
AcDbPolyline
 90
25
 70
1
 10
394.363552
 20
572.958524
 30
0.0
 10
409.717872
 20
591.545332
 30
0.0
 10
416.990968
 20
584.272236
 30
0.0
 10
421.839704
 20
573.766644
 30
0.0
 10
438.002144
 20
569.726036
 30
0.0
 10
444.467120
 20
576.191012
 30
0.0
 10
480.024488
 20
558.412324
 30
0.0
 10
471.135144
 20
538.209276
 30
0.0
 10
475.175760
 20
533.360548
 30
0.0
 10
505.884392
 20
539.017396
 30
0.0
 10
512.349368
 20
532.552420
 30
0.0
 10
509.925008
 20
526.087444
 30
0.0
 10
491.338200
 20
522.046836
 30
0.0
 10
472.751392
 20
492.146324
 30
0.0
 10
470.327024
 20
479.216364
 30
0.0
 10
454.164584
 20
484.065100
 30
0.0
 10
417.799096
 20
473.559516
 30
0.0
 10
409.717872
 20
496.995052
 30
0.0
 10
395.979800
 20
496.995052
 30
0.0
 10
397.596040
 20
510.733124
 30
0.0
 10
389.514824
 20
520.430588
 30
0.0
 10
387.898576
 20
528.511812
 30
0.0
 10
387.090456
 20
546.290500
 30
0.0
 10
383.857968
 20
558.412324
 30
0.0
 10
394.363552
 20
572.958524
 30
0.0
  0
LWPOLYLINE
  5
10f
100
AcDbEntity
  8
Layer_1
 62
7
100
AcDbPolyline
 90
27
 70
1
 10
316.783840
 20
422.647828
 30
0.0
 10
302.237640
 20
414.566604
 30
0.0
 10
302.237640
 20
410.525996
 30
0.0
 10
315.975720
 20
410.525996
 30
0.0
 10
330.521912
 20
398.404164
 30
0.0
 10
337.795008
 20
404.869140
 30
0.0
 10
343.451864
 20
390.322940
 30
0.0
 10
345.068112
 20
372.544260
 30
0.0
 10
366.079280
 20
355.573700
 30
0.0
 10
377.392992
 20
333.754404
 30
0.0
 10
376.584872
 20
311.935108
 30
0.0
 10
399.212288
 20
316.783836
 30
0.0
 10
426.688432
 20
315.167596
 30
0.0
 10
455.780832
 20
332.138156
 30
0.0
 10
473.559512
 20
339.411252
 30
0.0
 10
478.408248
 20
350.724964
 30
0.0
 10
476.792000
 20
416.182852
 30
0.0
 10
469.518904
 20
442.850876
 30
0.0
 10
465.478296
 20
451.740220
 30
0.0
 10
469.518904
 20
479.216364
 30
0.0
 10
454.972704
 20
484.065100
 30
0.0
 10
416.182848
 20
474.367636
 30
0.0
 10
404.869144
 20
470.327028
 30
0.0
 10
362.846792
 20
464.670172
 30
0.0
 10
358.806184
 20
459.821436
 30
0.0
 10
336.986888
 20
433.961532
 30
0.0
 10
316.783840
 20
422.647828
 30
0.0
  0
LWPOLYLINE
  5
110
100
AcDbEntity
  8
Layer_1
 62
7
100
AcDbPolyline
 90
32
 70
1
 10
307.086376
 20
635.183924
 30
0.0
 10
308.702616
 20
612.556500
 30
0.0
 10
293.348296
 20
604.475284
 30
0.0
 10
289.307688
 20
590.737212
 30
0.0
 10
284.458960
 20
565.685428
 30
0.0
 10
295.772664
 20
517.198100
 30
0.0
 10
315.975720
 20
503.460028
 30
0.0
 10
307.894496
 20
491.338196
 30
0.0
 10
320.824448
 20
484.065100
 30
0.0
 10
320.016328
 20
469.518900
 30
0.0
 10
311.126984
 20
469.518900
 30
0.0
 10
305.470128
 20
463.862052
 30
0.0
 10
277.185856
 20
450.932100
 30
0.0
 10
284.458960
 20
443.658996
 30
0.0
 10
281.226472
 20
434.769652
 30
0.0
 10
286.075200
 20
426.688436
 30
0.0
 10
313.551352
 20
419.415340
 30
0.0
 10
338.603136
 20
433.961532
 30
0.0
 10
362.846792
 20
463.862052
 30
0.0
 10
399.212288
 20
467.094540
 30
0.0
 10
419.415336
 20
473.559516
 30
0.0
 10
412.142240
 20
496.186932
 30
0.0
 10
400.020408
 20
498.611300
 30
0.0
 10
398.404160
 20
509.925004
 30
0.0
 10
390.322944
 20
519.622468
 30
0.0
 10
385.474208
 20
558.412324
 30
0.0
 10
395.171672
 20
572.150404
 30
0.0
 10
386.282336
 20
585.080356
 30
0.0
 10
383.049848
 20
595.585940
 30
0.0
 10
378.201112
 20
610.132140
 30
0.0
 10
338.603136
 20
635.183924
 30
0.0
 10
307.086376
 20
635.183924
 30
0.0
  0
ENDSEC
  0
SECTION
  2
OBJECTS
  0
DICTIONARY
  5
C
330
0
100
AcDbDictionary
  3
ACAD_GROUP
350
D
  3
ACAD_MLINESTYLE
350
17
  0
DICTIONARY
  5
D
330
C
100
AcDbDictionary
  0
DICTIONARY
  5
1A
330
C
100
AcDbDictionary
  0
DICTIONARY
  5
17
330
C
100
AcDbDictionary
  3
STANDARD
350
18
  0
DICTIONARY
  5
19
330
C
100
AcDbDictionary
  0
ENDSEC
  0
EOF
