  0
SECTION
  2
HEADER
  9
$ACADVER
  1
AC1014
  9
$HANDSEED
  5
FFFF
  9
$MEASUREMENT
 70
     1
  0
ENDSEC
  0
SECTION
  2
TABLES
  0
TABLE
  2
VPORT
  5
8
330
0
100
AcDbSymbolTable
 70
     4
  0
VPORT
  5
2E
330
8
100
AcDbSymbolTableRecord
100
AcDbViewportTableRecord
  2
*ACTIVE
 70
     0
 10
0.0
 20
0.0
 11
1.0
 21
1.0
 12
210.0
 22
148.5
 13
0.0
 23
0.0
 14
10.0
 24
10.0
 15
10.0
 25
10.0
 16
0.0
 26
0.0
 36
1.0
 17
0.0
 27
0.0
 37
0.0
 40
341.0
 41
1.24
 42
50.0
 43
0.0
 44
0.0
 50
0.0
 51
0.0
 71
     0
 72
   100
 73
     1
 74
     3
 75
     0
 76
     0
 77
     0
 78
     0
  0
ENDTAB
  0
TABLE
  2
LTYPE
  5
5
330
0
100
AcDbSymbolTable
 70
     1
  0
LTYPE
  5
14
330
5
100
AcDbSymbolTableRecord
100
AcDbLinetypeTableRecord
  2
BYBLOCK
 70
     0
  3

 72
    65
 73
     0
 40
0.0
  0
LTYPE
  5
15
330
5
100
AcDbSymbolTableRecord
100
AcDbLinetypeTableRecord
  2
BYLAYER
 70
     0
  3

 72
    65
 73
     0
 40
0.0
  0
LTYPE
  5
16
330
5
100
AcDbSymbolTableRecord
100
AcDbLinetypeTableRecord
  2
CONTINUOUS
 70
     0
  3
Solid line
 72
    65
 73
     0
 40
0.0
  0
ENDTAB
  0
TABLE
  2
LAYER
  5
2
100
AcDbSymbolTable
 70
2
  0
LAYER
  5
50
100
AcDbSymbolTableRecord
100
AcDbLayerTableRecord
  2
0
 70
0
  6
CONTINUOUS
  0
LAYER
  5
51
100
AcDbSymbolTableRecord
100
AcDbLayerTableRecord
  2
Layer_1
 70
0
  6
CONTINUOUS
  0
ENDTAB
  0
TABLE
  2
STYLE
  5
3
330
0
100
AcDbSymbolTable
 70
     1
  0
STYLE
  5
11
330
3
100
AcDbSymbolTableRecord
100
AcDbTextStyleTableRecord
  2
STANDARD
 70
     0
 40
0.0
 41
1.0
 50
0.0
 71
     0
 42
2.5
  3
txt
  4

  0
ENDTAB
  0
TABLE
  2
VIEW
  5
6
330
0
100
AcDbSymbolTable
 70
     0
  0
ENDTAB
  0
TABLE
  2
UCS
  5
7
330
0
100
AcDbSymbolTable
 70
     0
  0
ENDTAB
  0
TABLE
  2
APPID
  5
9
330
0
100
AcDbSymbolTable
 70
     2
  0
APPID
  5
12
330
9
100
AcDbSymbolTableRecord
100
AcDbRegAppTableRecord
  2
ACAD
 70
     0
  0
ENDTAB
  0
TABLE
  2
DIMSTYLE
  5
A
330
0
100
AcDbSymbolTable
 70
     1
  0
DIMSTYLE
105
27
330
A
100
AcDbSymbolTableRecord
100
AcDbDimStyleTableRecord
  2
ISO-25
 70
     0
  3

  4

  5

  6

  7

 40
1.0
 41
2.5
 42
0.625
 43
3.75
 44
1.25
 45
0.0
 46
0.0
 47
0.0
 48
0.0
140
2.5
141
2.5
142
0.0
143
0.03937007874016
144
1.0
145
0.0
146
1.0
147
0.625
 71
     0
 72
     0
 73
     0
 74
     0
 75
     0
 76
     0
 77
     1
 78
     8
170
     0
171
     3
172
     1
173
     0
174
     0
175
     0
176
     0
177
     0
178
     0
270
     2
271
     2
272
     2
273
     2
274
     3
340
11
275
     0
280
     0
281
     0
282
     0
283
     0
284
     8
285
     0
286
     0
287
     3
288
     0
  0
ENDTAB
  0
TABLE
  2
BLOCK_RECORD
  5
1
330
0
100
AcDbSymbolTable
 70
     1
  0
BLOCK_RECORD
  5
1F
330
1
100
AcDbSymbolTableRecord
100
AcDbBlockTableRecord
  2
*MODEL_SPACE
  0
BLOCK_RECORD
  5
1B
330
1
100
AcDbSymbolTableRecord
100
AcDbBlockTableRecord
  2
*PAPER_SPACE
  0
ENDTAB
  0
ENDSEC
  0
SECTION
  2
BLOCKS
  0
BLOCK
  5
20
330
1F
100
AcDbEntity
  8
0
100
AcDbBlockBegin
  2
*MODEL_SPACE
 70
     0
 10
0.0
 20
0.0
 30
0.0
  3
*MODEL_SPACE
  1

  0
ENDBLK
  5
21
330
1F
100
AcDbEntity
  8
0
100
AcDbBlockEnd
  0
BLOCK
  5
1C
330
1B
100
AcDbEntity
 67
     1
  8
0
100
AcDbBlockBegin
  2
*PAPER_SPACE
  1

  0
ENDBLK
  5
1D
330
1B
100
AcDbEntity
 67
     1
  8
0
100
AcDbBlockEnd
  0
ENDSEC
  0
SECTION
  2
ENTITIES
  0
LWPOLYLINE
  5
100
100
AcDbEntity
  8
Layer_1
 62
7
100
AcDbPolyline
 90
13
 70
1
 10
-162.432528
 20
339.411252
 30
0.0
 10
-128.491400
 20
375.776748
 30
0.0
 10
-109.096472
 20
405.677260
 30
0.0
 10
-108.288352
 20
413.758484
 30
0.0
 10
-84.852816
 20
397.596044
 30
0.0
 10
-70.306617
 20
377.392988
 30
0.0
 10
-58.184786
 20
352.341212
 30
0.0
 10
-55.760421
 20
327.289428
 30
0.0
 10
-66.266007
 20
307.086372
 30
0.0
 10
-51.719810
 20
252.942196
 30
0.0
 10
-82.428448
 20
252.134076
 30
0.0
 10
-130.107648
 20
299.813276
 30
0.0
 10
-162.432528
 20
339.411252
 30
0.0
  0
LWPOLYLINE
  5
101
100
AcDbEntity
  8
Layer_1
 62
7
100
AcDbPolyline
 90
29
 70
1
 10
-52.527932
 20
253.750316
 30
0.0
 10
-12.121830
 20
257.790932
 30
0.0
 10
21.819295
 20
250.517828
 30
0.0
 10
132.532016
 20
246.477220
 30
0.0
 10
113.137088
 20
284.458956
 30
0.0
 10
112.328960
 20
324.056940
 30
0.0
 10
119.602064
 20
347.492476
 30
0.0
 10
162.432528
 20
385.474212
 30
0.0
 10
189.100560
 20
408.101628
 30
0.0
 10
197.181776
 20
428.304676
 30
0.0
 10
212.536096
 20
476.792004
 30
0.0
 10
182.635584
 20
459.821436
 30
0.0
 10
153.543184
 20
454.972708
 30
0.0
 10
138.996992
 20
458.205196
 30
0.0
 10
94.550280
 20
494.570684
 30
0.0
 10
74.347227
 20
512.349372
 30
0.0
 10
67.882251
 20
559.220452
 30
0.0
 10
76.771594
 20
572.958524
 30
0.0
 10
78.387838
 20
589.929084
 30
0.0
 10
33.133003
 20
564.877300
 30
0.0
 10
-8.081220
 20
553.563596
 30
0.0
 10
-103.439624
 20
471.943268
 30
0.0
 10
-108.288352
 20
412.142236
 30
0.0
 10
-83.236568
 20
395.979796
 30
0.0
 10
-70.306617
 20
375.776748
 30
0.0
 10
-59.801030
 20
351.533084
 30
0.0
 10
-54.952298
 20
325.673180
 30
0.0
 10
-67.074129
 20
305.470132
 30
0.0
 10
-52.527932
 20
253.750316
 30
0.0
  0
LWPOLYLINE
  5
102
100
AcDbEntity
  8
Layer_1
 62
7
100
AcDbPolyline
 90
21
 70
1
 10
131.723888
 20
246.477220
 30
0.0
 10
262.639664
 20
227.082292
 30
0.0
 10
379.009232
 20
224.657924
 30
0.0
 10
383.857968
 20
313.551348
 30
0.0
 10
415.374728
 20
363.654916
 30
0.0
 10
441.234632
 20
385.474212
 30
0.0
 10
421.031584
 20
396.787924
 30
0.0
 10
400.828528
 20
421.031580
 30
0.0
 10
376.584872
 20
428.304676
 30
0.0
 10
360.422432
 20
438.002140
 30
0.0
 10
349.916840
 20
446.891484
 30
0.0
 10
345.876232
 20
462.245804
 30
0.0
 10
260.215296
 20
495.378812
 30
0.0
 10
239.204120
 20
496.995052
 30
0.0
 10
217.384824
 20
484.873220
 30
0.0
 10
210.111728
 20
473.559516
 30
0.0
 10
189.100560
 20
407.293508
 30
0.0
 10
119.602064
 20
348.300596
 30
0.0
 10
111.520840
 20
327.289428
 30
0.0
 10
112.328960
 20
286.075204
 30
0.0
 10
131.723888
 20
246.477220
 30
0.0
  0
LWPOLYLINE
  5
103
100
AcDbEntity
  8
Layer_1
 62
7
100
AcDbPolyline
 90
23
 70
1
 10
348.300600
 20
459.013316
 30
0.0
 10
345.876232
 20
470.327028
 30
0.0
 10
352.341208
 20
510.733124
 30
0.0
 10
325.673184
 20
534.168668
 30
0.0
 10
303.853888
 20
568.109788
 30
0.0
 10
299.005152
 20
602.859036
 30
0.0
 10
307.086376
 20
627.910820
 30
0.0
 10
324.056936
 20
651.346364
 30
0.0
 10
324.056936
 20
673.973780
 30
0.0
 10
314.359472
 20
699.025564
 30
0.0
 10
309.510736
 20
725.693588
 30
0.0
 10
79.195959
 20
589.120964
 30
0.0
 10
76.771594
 20
572.150404
 30
0.0
 10
66.266007
 20
560.028572
 30
0.0
 10
74.347227
 20
509.925004
 30
0.0
 10
138.996992
 20
457.397076
 30
0.0
 10
155.967552
 20
454.164588
 30
0.0
 10
180.211216
 20
457.397076
 30
0.0
 10
208.495488
 20
473.559516
 30
0.0
 10
217.384824
 20
481.640732
 30
0.0
 10
235.971632
 20
495.378812
 30
0.0
 10
261.023416
 20
495.378812
 30
0.0
 10
348.300600
 20
459.013316
 30
0.0
  0
LWPOLYLINE
  5
104
100
AcDbEntity
  8
Layer_1
 62
7
100
AcDbPolyline
 90
16
 70
1
 10
308.702616
 20
724.077348
 30
0.0
 10
312.743232
 20
703.874292
 30
0.0
 10
323.248816
 20
674.781900
 30
0.0
 10
324.056936
 20
650.538236
 30
0.0
 10
307.086376
 20
629.527068
 30
0.0
 10
296.580784
 20
600.434676
 30
0.0
 10
301.429520
 20
567.301668
 30
0.0
 10
321.632568
 20
535.784908
 30
0.0
 10
352.341208
 20
506.692516
 30
0.0
 10
371.736136
 20
498.611300
 30
0.0
 10
404.869144
 20
496.995052
 30
0.0
 10
425.072192
 20
505.076276
 30
0.0
 10
474.367632
 20
532.552420
 30
0.0
 10
496.186928
 20
542.249884
 30
0.0
 10
324.865056
 20
734.582932
 30
0.0
 10
308.702616
 20
724.077348
 30
0.0
  0
LWPOLYLINE
  5
105
100
AcDbEntity
  8
Layer_1
 62
7
100
AcDbPolyline
 90
15
 70
1
 10
439.618384
 20
383.857964
 30
0.0
 10
464.670168
 20
408.101628
 30
0.0
 10
563.261056
 20
438.002140
 30
0.0
 10
534.168664
 20
497.803172
 30
0.0
 10
496.186928
 20
543.866132
 30
0.0
 10
432.345288
 20
510.733124
 30
0.0
 10
406.485384
 20
499.419420
 30
0.0
 10
369.311768
 20
501.843788
 30
0.0
 10
349.916840
 20
508.308764
 30
0.0
 10
344.259984
 20
472.751388
 30
0.0
 10
349.916840
 20
442.850876
 30
0.0
 10
382.241720
 20
424.264068
 30
0.0
 10
400.828528
 20
420.223460
 30
0.0
 10
410.525992
 20
404.061020
 30
0.0
 10
439.618384
 20
383.857964
 30
0.0
  0
ENDSEC
  0
SECTION
  2
OBJECTS
  0
DICTIONARY
  5
C
330
0
100
AcDbDictionary
  3
ACAD_GROUP
350
D
  3
ACAD_MLINESTYLE
350
17
  0
DICTIONARY
  5
D
330
C
100
AcDbDictionary
  0
DICTIONARY
  5
1A
330
C
100
AcDbDictionary
  0
DICTIONARY
  5
17
330
C
100
AcDbDictionary
  3
STANDARD
350
18
  0
DICTIONARY
  5
19
330
C
100
AcDbDictionary
  0
ENDSEC
  0
EOF
