  0
SECTION
  2
HEADER
  9
$ACADVER
  1
AC1014
  9
$HANDSEED
  5
FFFF
  9
$MEASUREMENT
 70
     1
  0
ENDSEC
  0
SECTION
  2
TABLES
  0
TABLE
  2
VPORT
  5
8
330
0
100
AcDbSymbolTable
 70
     4
  0
VPORT
  5
2E
330
8
100
AcDbSymbolTableRecord
100
AcDbViewportTableRecord
  2
*ACTIVE
 70
     0
 10
0.0
 20
0.0
 11
1.0
 21
1.0
 12
210.0
 22
148.5
 13
0.0
 23
0.0
 14
10.0
 24
10.0
 15
10.0
 25
10.0
 16
0.0
 26
0.0
 36
1.0
 17
0.0
 27
0.0
 37
0.0
 40
341.0
 41
1.24
 42
50.0
 43
0.0
 44
0.0
 50
0.0
 51
0.0
 71
     0
 72
   100
 73
     1
 74
     3
 75
     0
 76
     0
 77
     0
 78
     0
  0
ENDTAB
  0
TABLE
  2
LTYPE
  5
5
330
0
100
AcDbSymbolTable
 70
     1
  0
LTYPE
  5
14
330
5
100
AcDbSymbolTableRecord
100
AcDbLinetypeTableRecord
  2
BYBLOCK
 70
     0
  3

 72
    65
 73
     0
 40
0.0
  0
LTYPE
  5
15
330
5
100
AcDbSymbolTableRecord
100
AcDbLinetypeTableRecord
  2
BYLAYER
 70
     0
  3

 72
    65
 73
     0
 40
0.0
  0
LTYPE
  5
16
330
5
100
AcDbSymbolTableRecord
100
AcDbLinetypeTableRecord
  2
CONTINUOUS
 70
     0
  3
Solid line
 72
    65
 73
     0
 40
0.0
  0
ENDTAB
  0
TABLE
  2
LAYER
  5
2
100
AcDbSymbolTable
 70
2
  0
LAYER
  5
50
100
AcDbSymbolTableRecord
100
AcDbLayerTableRecord
  2
0
 70
0
  6
CONTINUOUS
  0
LAYER
  5
51
100
AcDbSymbolTableRecord
100
AcDbLayerTableRecord
  2
Layer_1
 70
0
  6
CONTINUOUS
  0
ENDTAB
  0
TABLE
  2
STYLE
  5
3
330
0
100
AcDbSymbolTable
 70
     1
  0
STYLE
  5
11
330
3
100
AcDbSymbolTableRecord
100
AcDbTextStyleTableRecord
  2
STANDARD
 70
     0
 40
0.0
 41
1.0
 50
0.0
 71
     0
 42
2.5
  3
txt
  4

  0
ENDTAB
  0
TABLE
  2
VIEW
  5
6
330
0
100
AcDbSymbolTable
 70
     0
  0
ENDTAB
  0
TABLE
  2
UCS
  5
7
330
0
100
AcDbSymbolTable
 70
     0
  0
ENDTAB
  0
TABLE
  2
APPID
  5
9
330
0
100
AcDbSymbolTable
 70
     2
  0
APPID
  5
12
330
9
100
AcDbSymbolTableRecord
100
AcDbRegAppTableRecord
  2
ACAD
 70
     0
  0
ENDTAB
  0
TABLE
  2
DIMSTYLE
  5
A
330
0
100
AcDbSymbolTable
 70
     1
  0
DIMSTYLE
105
27
330
A
100
AcDbSymbolTableRecord
100
AcDbDimStyleTableRecord
  2
ISO-25
 70
     0
  3

  4

  5

  6

  7

 40
1.0
 41
2.5
 42
0.625
 43
3.75
 44
1.25
 45
0.0
 46
0.0
 47
0.0
 48
0.0
140
2.5
141
2.5
142
0.0
143
0.03937007874016
144
1.0
145
0.0
146
1.0
147
0.625
 71
     0
 72
     0
 73
     0
 74
     0
 75
     0
 76
     0
 77
     1
 78
     8
170
     0
171
     3
172
     1
173
     0
174
     0
175
     0
176
     0
177
     0
178
     0
270
     2
271
     2
272
     2
273
     2
274
     3
340
11
275
     0
280
     0
281
     0
282
     0
283
     0
284
     8
285
     0
286
     0
287
     3
288
     0
  0
ENDTAB
  0
TABLE
  2
BLOCK_RECORD
  5
1
330
0
100
AcDbSymbolTable
 70
     1
  0
BLOCK_RECORD
  5
1F
330
1
100
AcDbSymbolTableRecord
100
AcDbBlockTableRecord
  2
*MODEL_SPACE
  0
BLOCK_RECORD
  5
1B
330
1
100
AcDbSymbolTableRecord
100
AcDbBlockTableRecord
  2
*PAPER_SPACE
  0
ENDTAB
  0
ENDSEC
  0
SECTION
  2
BLOCKS
  0
BLOCK
  5
20
330
1F
100
AcDbEntity
  8
0
100
AcDbBlockBegin
  2
*MODEL_SPACE
 70
     0
 10
0.0
 20
0.0
 30
0.0
  3
*MODEL_SPACE
  1

  0
ENDBLK
  5
21
330
1F
100
AcDbEntity
  8
0
100
AcDbBlockEnd
  0
BLOCK
  5
1C
330
1B
100
AcDbEntity
 67
     1
  8
0
100
AcDbBlockBegin
  2
*PAPER_SPACE
  1

  0
ENDBLK
  5
1D
330
1B
100
AcDbEntity
 67
     1
  8
0
100
AcDbBlockEnd
  0
ENDSEC
  0
SECTION
  2
ENTITIES
  0
LWPOLYLINE
  5
100
100
AcDbEntity
  8
Layer_1
 62
7
100
AcDbPolyline
 90
26
 70
1
 10
8.000000
 20
573.142860
 30
0.0
 10
21.142857
 20
602.857140
 30
0.0
 10
65.714286
 20
611.428572
 30
0.0
 10
109.714288
 20
613.142860
 30
0.0
 10
122.857144
 20
609.142860
 30
0.0
 10
160.000000
 20
584.571428
 30
0.0
 10
208.571432
 20
532.571428
 30
0.0
 10
217.714288
 20
513.714284
 30
0.0
 10
237.714288
 20
503.428572
 30
0.0
 10
291.428568
 20
489.142860
 30
0.0
 10
301.714288
 20
491.428572
 30
0.0
 10
321.714288
 20
473.714284
 30
0.0
 10
338.285712
 20
458.285716
 30
0.0
 10
344.571432
 20
447.428572
 30
0.0
 10
348.000000
 20
428.000004
 30
0.0
 10
290.857144
 20
434.285716
 30
0.0
 10
261.714288
 20
429.714284
 30
0.0
 10
146.285712
 20
441.142860
 30
0.0
 10
125.714288
 20
440.000004
 30
0.0
 10
90.857144
 20
430.857140
 30
0.0
 10
76.000000
 20
425.714284
 30
0.0
 10
53.142857
 20
422.857140
 30
0.0
 10
51.428571
 20
464.571428
 30
0.0
 10
44.000000
 20
480.000004
 30
0.0
 10
21.142857
 20
502.285716
 30
0.0
 10
8.000000
 20
573.142860
 30
0.0
  0
LWPOLYLINE
  5
101
100
AcDbEntity
  8
Layer_1
 62
7
100
AcDbPolyline
 90
46
 70
1
 10
346.285712
 20
428.000004
 30
0.0
 10
288.571432
 20
436.000004
 30
0.0
 10
260.000000
 20
430.285716
 30
0.0
 10
141.714288
 20
442.285716
 30
0.0
 10
122.857144
 20
440.000004
 30
0.0
 10
76.571429
 20
426.857140
 30
0.0
 10
51.428571
 20
423.428572
 30
0.0
 10
5.142857
 20
360.000004
 30
0.0
 10
0.000000
 20
344.000004
 30
0.0
 10
18.285714
 20
292.571428
 30
0.0
 10
29.142857
 20
286.857140
 30
0.0
 10
37.714286
 20
277.142860
 30
0.0
 10
49.142857
 20
243.428572
 30
0.0
 10
61.714286
 20
226.857140
 30
0.0
 10
94.285712
 20
204.571428
 30
0.0
 10
101.714288
 20
189.142860
 30
0.0
 10
104.000000
 20
176.000004
 30
0.0
 10
97.714288
 20
154.857140
 30
0.0
 10
101.142856
 20
142.285716
 30
0.0
 10
114.857144
 20
136.571428
 30
0.0
 10
147.428568
 20
145.714284
 30
0.0
 10
164.571432
 20
148.000004
 30
0.0
 10
175.428568
 20
161.714284
 30
0.0
 10
194.285712
 20
174.285716
 30
0.0
 10
208.571432
 20
177.714284
 30
0.0
 10
242.285712
 20
177.142860
 30
0.0
 10
236.571432
 20
197.142860
 30
0.0
 10
241.714288
 20
218.857140
 30
0.0
 10
265.142856
 20
255.428572
 30
0.0
 10
286.857144
 20
272.000004
 30
0.0
 10
282.857144
 20
288.571428
 30
0.0
 10
281.714288
 20
306.285716
 30
0.0
 10
264.000000
 20
321.714284
 30
0.0
 10
264.000000
 20
332.571428
 30
0.0
 10
278.857144
 20
345.142860
 30
0.0
 10
284.000000
 20
347.428572
 30
0.0
 10
285.142856
 20
323.428572
 30
0.0
 10
302.857144
 20
313.714284
 30
0.0
 10
313.714288
 20
305.142860
 30
0.0
 10
333.714288
 20
320.000004
 30
0.0
 10
348.571432
 20
363.428572
 30
0.0
 10
342.285712
 20
372.571428
 30
0.0
 10
345.142856
 20
400.571428
 30
0.0
 10
331.428568
 20
417.714284
 30
0.0
 10
331.428568
 20
424.571428
 30
0.0
 10
346.285712
 20
428.000004
 30
0.0
  0
LWPOLYLINE
  5
102
100
AcDbEntity
  8
Layer_1
 62
7
100
AcDbPolyline
 90
12
 70
1
 10
242.857144
 20
177.714284
 30
0.0
 10
303.428568
 20
172.000004
 30
0.0
 10
327.428568
 20
176.000004
 30
0.0
 10
341.714288
 20
184.000004
 30
0.0
 10
393.142856
 20
232.571428
 30
0.0
 10
394.857144
 20
245.714284
 30
0.0
 10
340.000000
 20
248.571428
 30
0.0
 10
308.000000
 20
253.142860
 30
0.0
 10
264.571432
 20
256.000004
 30
0.0
 10
242.857144
 20
222.857140
 30
0.0
 10
236.571432
 20
197.142860
 30
0.0
 10
242.857144
 20
177.714284
 30
0.0
  0
LWPOLYLINE
  5
103
100
AcDbEntity
  8
Layer_1
 62
7
100
AcDbPolyline
 90
23
 70
1
 10
396.571432
 20
245.142860
 30
0.0
 10
385.714288
 20
262.285716
 30
0.0
 10
372.571432
 20
276.571428
 30
0.0
 10
366.285712
 20
292.000004
 30
0.0
 10
376.571432
 20
300.571428
 30
0.0
 10
420.000000
 20
301.142860
 30
0.0
 10
429.142856
 20
305.714284
 30
0.0
 10
435.428568
 20
329.714284
 30
0.0
 10
398.857144
 20
345.714284
 30
0.0
 10
346.857144
 20
361.714284
 30
0.0
 10
334.857144
 20
321.714284
 30
0.0
 10
313.714288
 20
305.142860
 30
0.0
 10
294.857144
 20
318.857140
 30
0.0
 10
285.714288
 20
323.428572
 30
0.0
 10
284.000000
 20
347.428572
 30
0.0
 10
263.428568
 20
333.714284
 30
0.0
 10
264.000000
 20
321.142860
 30
0.0
 10
281.142856
 20
305.714284
 30
0.0
 10
282.857144
 20
288.000004
 30
0.0
 10
286.857144
 20
272.571428
 30
0.0
 10
265.714288
 20
255.428572
 30
0.0
 10
333.142856
 20
249.142860
 30
0.0
 10
396.571432
 20
245.142860
 30
0.0
  0
LWPOLYLINE
  5
104
100
AcDbEntity
  8
Layer_1
 62
7
100
AcDbPolyline
 90
31
 70
1
 10
434.857144
 20
328.571428
 30
0.0
 10
497.142856
 20
361.714284
 30
0.0
 10
509.142856
 20
366.857140
 30
0.0
 10
530.857144
 20
368.571428
 30
0.0
 10
577.714288
 20
357.142860
 30
0.0
 10
591.428576
 20
359.428572
 30
0.0
 10
606.857144
 20
390.285716
 30
0.0
 10
608.571432
 20
408.000004
 30
0.0
 10
600.000000
 20
422.857140
 30
0.0
 10
589.142856
 20
437.142860
 30
0.0
 10
574.285712
 20
442.857140
 30
0.0
 10
557.714288
 20
461.142860
 30
0.0
 10
547.428576
 20
476.000004
 30
0.0
 10
544.571432
 20
500.000004
 30
0.0
 10
536.000000
 20
517.142860
 30
0.0
 10
514.285712
 20
538.857140
 30
0.0
 10
451.428568
 20
572.571428
 30
0.0
 10
399.428568
 20
525.142860
 30
0.0
 10
364.000000
 20
520.000004
 30
0.0
 10
335.428568
 20
513.714284
 30
0.0
 10
317.142856
 20
504.000004
 30
0.0
 10
301.142856
 20
490.857140
 30
0.0
 10
329.142856
 20
468.000004
 30
0.0
 10
345.714288
 20
447.428572
 30
0.0
 10
348.000000
 20
429.142860
 30
0.0
 10
330.285712
 20
424.000004
 30
0.0
 10
332.000000
 20
416.571428
 30
0.0
 10
345.142856
 20
400.571428
 30
0.0
 10
342.285712
 20
372.000004
 30
0.0
 10
348.000000
 20
362.285716
 30
0.0
 10
434.857144
 20
328.571428
 30
0.0
  0
LWPOLYLINE
  5
105
100
AcDbEntity
  8
Layer_1
 62
7
100
AcDbPolyline
 90
27
 70
1
 10
452.000000
 20
572.000004
 30
0.0
 10
463.428568
 20
584.000004
 30
0.0
 10
461.714288
 20
598.285716
 30
0.0
 10
454.857144
 20
622.285716
 30
0.0
 10
464.571432
 20
638.857140
 30
0.0
 10
516.571432
 20
659.428572
 30
0.0
 10
573.714288
 20
673.142860
 30
0.0
 10
574.285712
 20
669.142860
 30
0.0
 10
598.857144
 20
614.857140
 30
0.0
 10
645.714288
 20
554.285716
 30
0.0
 10
666.857144
 20
542.857140
 30
0.0
 10
682.285712
 20
494.285716
 30
0.0
 10
687.428576
 20
462.857140
 30
0.0
 10
704.000000
 20
371.428572
 30
0.0
 10
662.285712
 20
360.571428
 30
0.0
 10
636.000000
 20
358.857140
 30
0.0
 10
615.428576
 20
370.857140
 30
0.0
 10
590.857144
 20
358.857140
 30
0.0
 10
607.428576
 20
392.571428
 30
0.0
 10
608.000000
 20
410.285716
 30
0.0
 10
586.857144
 20
438.857140
 30
0.0
 10
574.285712
 20
443.428572
 30
0.0
 10
548.000000
 20
474.857140
 30
0.0
 10
543.428576
 20
501.142860
 30
0.0
 10
530.285712
 20
522.857140
 30
0.0
 10
514.857144
 20
537.714284
 30
0.0
 10
452.000000
 20
572.000004
 30
0.0
  0
ENDSEC
  0
SECTION
  2
OBJECTS
  0
DICTIONARY
  5
C
330
0
100
AcDbDictionary
  3
ACAD_GROUP
350
D
  3
ACAD_MLINESTYLE
350
17
  0
DICTIONARY
  5
D
330
C
100
AcDbDictionary
  0
DICTIONARY
  5
1A
330
C
100
AcDbDictionary
  0
DICTIONARY
  5
17
330
C
100
AcDbDictionary
  3
STANDARD
350
18
  0
DICTIONARY
  5
19
330
C
100
AcDbDictionary
  0
ENDSEC
  0
EOF
