  0
SECTION
  2
HEADER
  9
$ACADVER
  1
AC1014
  9
$HANDSEED
  5
FFFF
  9
$MEASUREMENT
 70
     1
  0
ENDSEC
  0
SECTION
  2
TABLES
  0
TABLE
  2
VPORT
  5
8
330
0
100
AcDbSymbolTable
 70
     4
  0
VPORT
  5
2E
330
8
100
AcDbSymbolTableRecord
100
AcDbViewportTableRecord
  2
*ACTIVE
 70
     0
 10
0.0
 20
0.0
 11
1.0
 21
1.0
 12
210.0
 22
148.5
 13
0.0
 23
0.0
 14
10.0
 24
10.0
 15
10.0
 25
10.0
 16
0.0
 26
0.0
 36
1.0
 17
0.0
 27
0.0
 37
0.0
 40
341.0
 41
1.24
 42
50.0
 43
0.0
 44
0.0
 50
0.0
 51
0.0
 71
     0
 72
   100
 73
     1
 74
     3
 75
     0
 76
     0
 77
     0
 78
     0
  0
ENDTAB
  0
TABLE
  2
LTYPE
  5
5
330
0
100
AcDbSymbolTable
 70
     1
  0
LTYPE
  5
14
330
5
100
AcDbSymbolTableRecord
100
AcDbLinetypeTableRecord
  2
BYBLOCK
 70
     0
  3

 72
    65
 73
     0
 40
0.0
  0
LTYPE
  5
15
330
5
100
AcDbSymbolTableRecord
100
AcDbLinetypeTableRecord
  2
BYLAYER
 70
     0
  3

 72
    65
 73
     0
 40
0.0
  0
LTYPE
  5
16
330
5
100
AcDbSymbolTableRecord
100
AcDbLinetypeTableRecord
  2
CONTINUOUS
 70
     0
  3
Solid line
 72
    65
 73
     0
 40
0.0
  0
ENDTAB
  0
TABLE
  2
LAYER
  5
2
100
AcDbSymbolTable
 70
2
  0
LAYER
  5
50
100
AcDbSymbolTableRecord
100
AcDbLayerTableRecord
  2
0
 70
0
  6
CONTINUOUS
  0
LAYER
  5
51
100
AcDbSymbolTableRecord
100
AcDbLayerTableRecord
  2
Layer_1
 70
0
  6
CONTINUOUS
  0
ENDTAB
  0
TABLE
  2
STYLE
  5
3
330
0
100
AcDbSymbolTable
 70
     1
  0
STYLE
  5
11
330
3
100
AcDbSymbolTableRecord
100
AcDbTextStyleTableRecord
  2
STANDARD
 70
     0
 40
0.0
 41
1.0
 50
0.0
 71
     0
 42
2.5
  3
txt
  4

  0
ENDTAB
  0
TABLE
  2
VIEW
  5
6
330
0
100
AcDbSymbolTable
 70
     0
  0
ENDTAB
  0
TABLE
  2
UCS
  5
7
330
0
100
AcDbSymbolTable
 70
     0
  0
ENDTAB
  0
TABLE
  2
APPID
  5
9
330
0
100
AcDbSymbolTable
 70
     2
  0
APPID
  5
12
330
9
100
AcDbSymbolTableRecord
100
AcDbRegAppTableRecord
  2
ACAD
 70
     0
  0
ENDTAB
  0
TABLE
  2
DIMSTYLE
  5
A
330
0
100
AcDbSymbolTable
 70
     1
  0
DIMSTYLE
105
27
330
A
100
AcDbSymbolTableRecord
100
AcDbDimStyleTableRecord
  2
ISO-25
 70
     0
  3

  4

  5

  6

  7

 40
1.0
 41
2.5
 42
0.625
 43
3.75
 44
1.25
 45
0.0
 46
0.0
 47
0.0
 48
0.0
140
2.5
141
2.5
142
0.0
143
0.03937007874016
144
1.0
145
0.0
146
1.0
147
0.625
 71
     0
 72
     0
 73
     0
 74
     0
 75
     0
 76
     0
 77
     1
 78
     8
170
     0
171
     3
172
     1
173
     0
174
     0
175
     0
176
     0
177
     0
178
     0
270
     2
271
     2
272
     2
273
     2
274
     3
340
11
275
     0
280
     0
281
     0
282
     0
283
     0
284
     8
285
     0
286
     0
287
     3
288
     0
  0
ENDTAB
  0
TABLE
  2
BLOCK_RECORD
  5
1
330
0
100
AcDbSymbolTable
 70
     1
  0
BLOCK_RECORD
  5
1F
330
1
100
AcDbSymbolTableRecord
100
AcDbBlockTableRecord
  2
*MODEL_SPACE
  0
BLOCK_RECORD
  5
1B
330
1
100
AcDbSymbolTableRecord
100
AcDbBlockTableRecord
  2
*PAPER_SPACE
  0
ENDTAB
  0
ENDSEC
  0
SECTION
  2
BLOCKS
  0
BLOCK
  5
20
330
1F
100
AcDbEntity
  8
0
100
AcDbBlockBegin
  2
*MODEL_SPACE
 70
     0
 10
0.0
 20
0.0
 30
0.0
  3
*MODEL_SPACE
  1

  0
ENDBLK
  5
21
330
1F
100
AcDbEntity
  8
0
100
AcDbBlockEnd
  0
BLOCK
  5
1C
330
1B
100
AcDbEntity
 67
     1
  8
0
100
AcDbBlockBegin
  2
*PAPER_SPACE
  1

  0
ENDBLK
  5
1D
330
1B
100
AcDbEntity
 67
     1
  8
0
100
AcDbBlockEnd
  0
ENDSEC
  0
SECTION
  2
ENTITIES
  0
LWPOLYLINE
  5
100
100
AcDbEntity
  8
Layer_1
 62
7
100
AcDbPolyline
 90
25
 70
1
 10
190.571432
 20
492.285716
 30
0.0
 10
189.714288
 20
484.000004
 30
0.0
 10
199.714288
 20
470.000004
 30
0.0
 10
200.285712
 20
453.714284
 30
0.0
 10
209.142856
 20
426.571428
 30
0.0
 10
222.000000
 20
431.142860
 30
0.0
 10
229.714288
 20
448.571428
 30
0.0
 10
234.571432
 20
449.714284
 30
0.0
 10
237.142856
 20
454.000004
 30
0.0
 10
245.714288
 20
454.571428
 30
0.0
 10
250.000000
 20
457.714284
 30
0.0
 10
249.428568
 20
462.857140
 30
0.0
 10
247.428568
 20
464.857140
 30
0.0
 10
247.428568
 20
469.428572
 30
0.0
 10
252.285712
 20
479.714284
 30
0.0
 10
243.714288
 20
482.857140
 30
0.0
 10
242.000000
 20
486.571428
 30
0.0
 10
237.142856
 20
488.285716
 30
0.0
 10
231.714288
 20
484.857140
 30
0.0
 10
218.000000
 20
485.428572
 30
0.0
 10
212.857144
 20
490.857140
 30
0.0
 10
208.857144
 20
490.857140
 30
0.0
 10
206.285712
 20
496.857140
 30
0.0
 10
197.142856
 20
498.285716
 30
0.0
 10
190.571432
 20
492.285716
 30
0.0
  0
LWPOLYLINE
  5
101
100
AcDbEntity
  8
Layer_1
 62
7
100
AcDbPolyline
 90
23
 70
1
 10
252.285712
 20
480.285716
 30
0.0
 10
262.285712
 20
485.714284
 30
0.0
 10
269.142856
 20
485.714284
 30
0.0
 10
273.714288
 20
479.142860
 30
0.0
 10
270.000000
 20
467.714284
 30
0.0
 10
276.285712
 20
463.142860
 30
0.0
 10
266.000000
 20
447.428572
 30
0.0
 10
261.428568
 20
436.285716
 30
0.0
 10
248.285712
 20
430.571428
 30
0.0
 10
242.857144
 20
430.571428
 30
0.0
 10
235.142856
 20
425.142860
 30
0.0
 10
229.714288
 20
427.142860
 30
0.0
 10
226.000000
 20
427.142860
 30
0.0
 10
222.000000
 20
430.857140
 30
0.0
 10
229.428568
 20
447.714284
 30
0.0
 10
234.857144
 20
450.000004
 30
0.0
 10
237.428568
 20
454.285716
 30
0.0
 10
246.000000
 20
454.571428
 30
0.0
 10
250.315800
 20
458.205196
 30
0.0
 10
249.507680
 20
463.053924
 30
0.0
 10
247.689408
 20
464.872204
 30
0.0
 10
247.487376
 20
469.316876
 30
0.0
 10
252.285712
 20
480.285716
 30
0.0
  0
LWPOLYLINE
  5
102
100
AcDbEntity
  8
Layer_1
 62
7
100
AcDbPolyline
 90
32
 70
1
 10
208.899544
 20
426.688436
 30
0.0
 10
205.667056
 20
414.566604
 30
0.0
 10
212.536096
 20
403.252900
 30
0.0
 10
221.829496
 20
395.575740
 30
0.0
 10
235.365544
 20
394.767612
 30
0.0
 10
242.032552
 20
389.918884
 30
0.0
 10
243.244736
 20
383.049844
 30
0.0
 10
248.901584
 20
379.211268
 30
0.0
 10
254.356408
 20
378.807204
 30
0.0
 10
257.790928
 20
374.564564
 30
0.0
 10
268.902608
 20
374.362532
 30
0.0
 10
277.589920
 20
379.413300
 30
0.0
 10
283.246776
 20
379.817356
 30
0.0
 10
287.489416
 20
386.888428
 30
0.0
 10
288.297536
 20
398.000100
 30
0.0
 10
303.247792
 20
409.111780
 30
0.0
 10
303.045760
 20
431.133108
 30
0.0
 10
300.823432
 20
433.759500
 30
0.0
 10
301.429520
 20
436.991988
 30
0.0
 10
291.934088
 20
443.861028
 30
0.0
 10
290.721904
 20
450.932100
 30
0.0
 10
281.630528
 20
457.397076
 30
0.0
 10
275.973672
 20
463.862052
 30
0.0
 10
266.074184
 20
447.497580
 30
0.0
 10
261.023416
 20
435.981836
 30
0.0
 10
248.699560
 20
430.729044
 30
0.0
 10
242.436608
 20
430.324988
 30
0.0
 10
235.163512
 20
425.274220
 30
0.0
 10
229.708688
 20
427.698588
 30
0.0
 10
225.668080
 20
427.092500
 30
0.0
 10
221.425440
 20
431.133108
 30
0.0
 10
208.899544
 20
426.688436
 30
0.0
  0
LWPOLYLINE
  5
103
100
AcDbEntity
  8
Layer_1
 62
7
100
AcDbPolyline
 90
22
 70
1
 10
205.465024
 20
414.768636
 30
0.0
 10
193.949288
 20
405.879292
 30
0.0
 10
212.738128
 20
364.463036
 30
0.0
 10
218.799040
 20
356.785876
 30
0.0
 10
219.809192
 20
350.926996
 30
0.0
 10
224.253864
 20
349.916844
 30
0.0
 10
225.466048
 20
343.451868
 30
0.0
 10
232.133056
 20
350.320900
 30
0.0
 10
257.184840
 20
349.714812
 30
0.0
 10
263.043720
 20
348.300596
 30
0.0
 10
265.064032
 20
353.553388
 30
0.0
 10
252.942200
 20
366.281316
 30
0.0
 10
251.730016
 20
369.715836
 30
0.0
 10
257.588896
 20
374.968628
 30
0.0
 10
253.952352
 20
379.211268
 30
0.0
 10
249.305648
 20
379.615324
 30
0.0
 10
242.638640
 20
383.655940
 30
0.0
 10
241.628488
 20
390.524972
 30
0.0
 10
234.759448
 20
395.171676
 30
0.0
 10
221.627472
 20
396.383860
 30
0.0
 10
212.536096
 20
403.050868
 30
0.0
 10
205.465024
 20
414.768636
 30
0.0
  0
LWPOLYLINE
  5
104
100
AcDbEntity
  8
Layer_1
 62
7
100
AcDbPolyline
 90
22
 70
1
 10
224.859960
 20
343.047804
 30
0.0
 10
222.031528
 20
338.805164
 30
0.0
 10
223.445744
 20
325.673180
 30
0.0
 10
217.182800
 20
320.218356
 30
0.0
 10
211.930008
 20
319.814300
 30
0.0
 10
195.767560
 20
336.986892
 30
0.0
 10
197.181776
 20
352.543236
 30
0.0
 10
192.333048
 20
351.735116
 30
0.0
 10
187.686344
 20
365.877252
 30
0.0
 10
188.696496
 20
374.766596
 30
0.0
 10
192.939136
 20
373.958476
 30
0.0
 10
192.939136
 20
377.190964
 30
0.0
 10
189.302584
 20
380.625476
 30
0.0
 10
189.504616
 20
386.888428
 30
0.0
 10
192.333048
 20
388.908732
 30
0.0
 10
202.232536
 20
388.504668
 30
0.0
 10
212.940160
 20
364.665068
 30
0.0
 10
219.001072
 20
356.785876
 30
0.0
 10
219.607160
 20
351.129028
 30
0.0
 10
224.253864
 20
349.916844
 30
0.0
 10
225.668080
 20
342.845772
 30
0.0
 10
224.859960
 20
343.047804
 30
0.0
  0
LWPOLYLINE
  5
105
100
AcDbEntity
  8
Layer_1
 62
7
100
AcDbPolyline
 90
15
 70
1
 10
249.507680
 20
349.916844
 30
0.0
 10
251.527984
 20
342.441716
 30
0.0
 10
259.205144
 20
333.754404
 30
0.0
 10
257.386872
 20
314.157444
 30
0.0
 10
263.447784
 20
306.884340
 30
0.0
 10
260.417328
 20
304.459980
 30
0.0
 10
262.235600
 20
294.762516
 30
0.0
 10
256.982808
 20
292.944236
 30
0.0
 10
243.446760
 20
297.388908
 30
0.0
 10
236.173664
 20
300.419364
 30
0.0
 10
238.598032
 20
313.551348
 30
0.0
 10
223.243712
 20
325.875212
 30
0.0
 10
221.829496
 20
339.209228
 30
0.0
 10
232.739144
 20
350.926996
 30
0.0
 10
249.507680
 20
349.916844
 30
0.0
  0
LWPOLYLINE
  5
106
100
AcDbEntity
  8
Layer_1
 62
7
100
AcDbPolyline
 90
30
 70
1
 10
193.141168
 20
406.283356
 30
0.0
 10
172.129992
 20
402.444772
 30
0.0
 10
167.079232
 20
397.596044
 30
0.0
 10
159.402072
 20
396.787924
 30
0.0
 10
157.179736
 20
390.929036
 30
0.0
 10
146.876184
 20
382.241724
 30
0.0
 10
149.300544
 20
378.403148
 30
0.0
 10
156.775672
 20
370.321924
 30
0.0
 10
166.069080
 20
366.685372
 30
0.0
 10
164.452832
 20
362.644764
 30
0.0
 10
161.826440
 20
360.422428
 30
0.0
 10
172.129992
 20
342.845772
 30
0.0
 10
169.907656
 20
339.613284
 30
0.0
 10
166.877200
 20
339.613284
 30
0.0
 10
170.715784
 20
337.188924
 30
0.0
 10
174.352328
 20
337.390948
 30
0.0
 10
180.211216
 20
334.158460
 30
0.0
 10
185.666040
 20
337.997044
 30
0.0
 10
196.171624
 20
337.795012
 30
0.0
 10
197.585840
 20
352.745268
 30
0.0
 10
192.737104
 20
351.937148
 30
0.0
 10
187.888376
 20
365.473188
 30
0.0
 10
188.696496
 20
374.968628
 30
0.0
 10
192.939136
 20
374.362532
 30
0.0
 10
193.343200
 20
377.392988
 30
0.0
 10
189.908680
 20
380.625476
 30
0.0
 10
189.706648
 20
386.282332
 30
0.0
 10
192.333048
 20
388.908732
 30
0.0
 10
202.636600
 20
388.504668
 30
0.0
 10
193.141168
 20
406.283356
 30
0.0
  0
LWPOLYLINE
  5
107
100
AcDbEntity
  8
Layer_1
 62
7
100
AcDbPolyline
 90
19
 70
1
 10
263.851848
 20
307.490436
 30
0.0
 10
267.690424
 20
308.500588
 30
0.0
 10
267.488392
 20
315.167596
 30
0.0
 10
269.912760
 20
323.652876
 30
0.0
 10
274.963520
 20
324.258964
 30
0.0
 10
275.771648
 20
327.693484
 30
0.0
 10
281.630528
 20
334.360492
 30
0.0
 10
281.630528
 20
339.209228
 30
0.0
 10
275.165552
 20
339.411252
 30
0.0
 10
273.953368
 20
345.068108
 30
0.0
 10
268.902608
 20
344.259988
 30
0.0
 10
263.649816
 20
349.916844
 30
0.0
 10
263.043720
 20
348.704660
 30
0.0
 10
257.386872
 20
349.714812
 30
0.0
 10
249.507680
 20
349.714812
 30
0.0
 10
252.134072
 20
342.239684
 30
0.0
 10
259.407176
 20
333.552372
 30
0.0
 10
257.184840
 20
313.753380
 30
0.0
 10
263.851848
 20
307.490436
 30
0.0
  0
LWPOLYLINE
  5
108
100
AcDbEntity
  8
Layer_1
 62
7
100
AcDbPolyline
 90
34
 70
1
 10
267.690424
 20
308.500588
 30
0.0
 10
273.751344
 20
305.672164
 30
0.0
 10
280.620376
 20
309.106676
 30
0.0
 10
290.721904
 20
308.904652
 30
0.0
 10
295.772664
 20
300.419364
 30
0.0
 10
301.429520
 20
298.803124
 30
0.0
 10
312.743232
 20
294.156420
 30
0.0
 10
319.814296
 20
310.520892
 30
0.0
 10
324.258968
 20
315.571652
 30
0.0
 10
334.158464
 20
320.824452
 30
0.0
 10
334.966584
 20
325.875212
 30
0.0
 10
344.462016
 20
339.815316
 30
0.0
 10
344.866080
 20
355.977756
 30
0.0
 10
346.482320
 20
361.028524
 30
0.0
 10
341.835624
 20
364.665068
 30
0.0
 10
329.309728
 20
355.977756
 30
0.0
 10
326.077240
 20
356.987908
 30
0.0
 10
321.834600
 20
365.675220
 30
0.0
 10
315.167592
 20
371.938164
 30
0.0
 10
310.722920
 20
376.584868
 30
0.0
 10
299.207184
 20
376.180812
 30
0.0
 10
291.934088
 20
375.776748
 30
0.0
 10
294.762512
 20
371.736140
 30
0.0
 10
291.934088
 20
369.109740
 30
0.0
 10
287.085352
 20
353.755420
 30
0.0
 10
273.347280
 20
344.259988
 30
0.0
 10
275.569616
 20
339.613284
 30
0.0
 10
281.832560
 20
339.209228
 30
0.0
 10
281.832560
 20
334.562524
 30
0.0
 10
275.973672
 20
328.097548
 30
0.0
 10
275.165552
 20
324.663028
 30
0.0
 10
269.710728
 20
323.248812
 30
0.0
 10
267.690424
 20
315.773684
 30
0.0
 10
267.690424
 20
308.500588
 30
0.0
  0
LWPOLYLINE
  5
109
100
AcDbEntity
  8
Layer_1
 62
7
100
AcDbPolyline
 90
16
 70
1
 10
284.458960
 20
381.837660
 30
0.0
 10
292.540176
 20
375.170652
 30
0.0
 10
295.166576
 20
371.332076
 30
0.0
 10
292.136120
 20
369.715836
 30
0.0
 10
287.085352
 20
354.159484
 30
0.0
 10
273.953368
 20
344.866076
 30
0.0
 10
268.296520
 20
344.664052
 30
0.0
 10
263.649816
 20
349.916844
 30
0.0
 10
265.468088
 20
353.755420
 30
0.0
 10
253.346256
 20
366.079284
 30
0.0
 10
251.932048
 20
370.119892
 30
0.0
 10
258.194992
 20
374.564564
 30
0.0
 10
269.306672
 20
374.564564
 30
0.0
 10
277.791952
 20
380.019388
 30
0.0
 10
283.852864
 20
380.019388
 30
0.0
 10
284.458960
 20
381.837660
 30
0.0
  0
LWPOLYLINE
  5
10a
100
AcDbEntity
  8
Layer_1
 62
7
100
AcDbPolyline
 90
28
 70
1
 10
314.561504
 20
373.352380
 30
0.0
 10
315.167592
 20
381.029540
 30
0.0
 10
322.238664
 20
386.484364
 30
0.0
 10
328.299576
 20
386.484364
 30
0.0
 10
329.713792
 20
393.353404
 30
0.0
 10
331.330032
 20
395.575740
 30
0.0
 10
333.350344
 20
395.373708
 30
0.0
 10
335.168616
 20
391.939188
 30
0.0
 10
343.249832
 20
392.343252
 30
0.0
 10
344.462016
 20
394.161524
 30
0.0
 10
339.815320
 20
398.606196
 30
0.0
 10
340.017344
 20
402.444772
 30
0.0
 10
343.855928
 20
415.778788
 30
0.0
 10
350.724968
 20
428.708740
 30
0.0
 10
350.926992
 20
436.385900
 30
0.0
 10
347.492472
 20
441.840724
 30
0.0
 10
335.370648
 20
439.618388
 30
0.0
 10
325.269120
 20
438.002148
 30
0.0
 10
301.025456
 20
436.587932
 30
0.0
 10
300.419368
 20
433.355444
 30
0.0
 10
303.045760
 20
430.729044
 30
0.0
 10
302.843736
 20
408.909748
 30
0.0
 10
288.297536
 20
398.202132
 30
0.0
 10
287.489416
 20
387.696548
 30
0.0
 10
284.458960
 20
381.029540
 30
0.0
 10
291.732056
 20
375.372684
 30
0.0
 10
309.914800
 20
376.988932
 30
0.0
 10
314.561504
 20
373.352380
 30
0.0
  0
LWPOLYLINE
  5
10b
100
AcDbEntity
  8
Layer_1
 62
7
100
AcDbPolyline
 90
29
 70
1
 10
342.037656
 20
364.058980
 30
0.0
 10
352.745272
 20
364.058980
 30
0.0
 10
363.856944
 20
370.321924
 30
0.0
 10
367.897560
 20
370.321924
 30
0.0
 10
368.705680
 20
372.140196
 30
0.0
 10
362.240704
 20
379.009236
 30
0.0
 10
364.463040
 20
389.716852
 30
0.0
 10
358.200096
 20
389.716852
 30
0.0
 10
355.573696
 20
386.484364
 30
0.0
 10
352.947296
 20
386.282332
 30
0.0
 10
352.341208
 20
389.312788
 30
0.0
 10
348.704656
 20
389.716852
 30
0.0
 10
346.886384
 20
395.575740
 30
0.0
 10
340.219376
 20
403.050868
 30
0.0
 10
340.017344
 20
398.404164
 30
0.0
 10
344.866080
 20
394.363556
 30
0.0
 10
343.249832
 20
392.343252
 30
0.0
 10
335.168616
 20
392.545276
 30
0.0
 10
333.552368
 20
395.575740
 30
0.0
 10
331.330032
 20
395.575740
 30
0.0
 10
329.915824
 20
392.747308
 30
0.0
 10
328.097544
 20
386.686396
 30
0.0
 10
322.440696
 20
386.484364
 30
0.0
 10
315.571656
 20
381.231572
 30
0.0
 10
314.359472
 20
372.140196
 30
0.0
 10
322.440696
 20
365.069132
 30
0.0
 10
326.077240
 20
357.594004
 30
0.0
 10
330.117856
 20
355.371668
 30
0.0
 10
342.037656
 20
364.058980
 30
0.0
  0
LWPOLYLINE
  5
10c
100
AcDbEntity
  8
Layer_1
 62
7
100
AcDbPolyline
 90
34
 70
1
 10
347.492472
 20
442.648844
 30
0.0
 10
357.391968
 20
448.305700
 30
0.0
 10
372.140200
 20
448.911788
 30
0.0
 10
376.382840
 20
444.063060
 30
0.0
 10
383.857968
 20
440.628540
 30
0.0
 10
398.808224
 20
439.820420
 30
0.0
 10
405.879296
 20
433.759500
 30
0.0
 10
415.172696
 20
432.345292
 30
0.0
 10
417.597064
 20
427.900620
 30
0.0
 10
413.960512
 20
418.809244
 30
0.0
 10
412.748328
 20
411.132084
 30
0.0
 10
416.990968
 20
406.687412
 30
0.0
 10
408.707720
 20
401.636652
 30
0.0
 10
402.444776
 20
401.636652
 30
0.0
 10
397.798072
 20
402.040716
 30
0.0
 10
391.131064
 20
394.969644
 30
0.0
 10
385.878272
 20
393.959492
 30
0.0
 10
380.625480
 20
387.696548
 30
0.0
 10
379.817360
 20
379.413300
 30
0.0
 10
368.503648
 20
370.928012
 30
0.0
 10
362.442736
 20
378.201116
 30
0.0
 10
364.261008
 20
389.918884
 30
0.0
 10
358.604152
 20
389.918884
 30
0.0
 10
355.371664
 20
386.282332
 30
0.0
 10
353.351360
 20
386.282332
 30
0.0
 10
352.341208
 20
389.918884
 30
0.0
 10
349.916840
 20
389.918884
 30
0.0
 10
348.704656
 20
389.716852
 30
0.0
 10
347.088416
 20
395.171676
 30
0.0
 10
340.017344
 20
403.252900
 30
0.0
 10
343.451864
 20
416.788940
 30
0.0
 10
350.724968
 20
428.304676
 30
0.0
 10
350.926992
 20
436.991988
 30
0.0
 10
347.492472
 20
442.648844
 30
0.0
  0
LWPOLYLINE
  5
10d
100
AcDbEntity
  8
Layer_1
 62
7
100
AcDbPolyline
 90
26
 70
1
 10
417.597064
 20
406.687412
 30
0.0
 10
424.466104
 20
395.575740
 30
0.0
 10
429.314832
 20
392.545276
 30
0.0
 10
441.032600
 20
394.565588
 30
0.0
 10
442.042752
 20
391.333100
 30
0.0
 10
437.598080
 20
388.302636
 30
0.0
 10
435.577776
 20
380.019388
 30
0.0
 10
431.133104
 20
371.736140
 30
0.0
 10
422.849856
 20
366.079284
 30
0.0
 10
415.172696
 20
363.856948
 30
0.0
 10
405.879296
 20
363.856948
 30
0.0
 10
402.848832
 20
361.028524
 30
0.0
 10
400.828528
 20
357.189940
 30
0.0
 10
391.131064
 20
358.402124
 30
0.0
 10
387.494520
 20
361.836644
 30
0.0
 10
385.676240
 20
360.826492
 30
0.0
 10
380.827512
 20
360.624460
 30
0.0
 10
374.564568
 20
364.867100
 30
0.0
 10
368.099584
 20
371.332076
 30
0.0
 10
379.817360
 20
379.817356
 30
0.0
 10
380.625480
 20
387.696548
 30
0.0
 10
385.070152
 20
393.757460
 30
0.0
 10
391.535128
 20
395.171676
 30
0.0
 10
398.000104
 20
402.242748
 30
0.0
 10
409.313808
 20
401.838684
 30
0.0
 10
417.597064
 20
406.687412
 30
0.0
  0
LWPOLYLINE
  5
10e
100
AcDbEntity
  8
Layer_1
 62
7
100
AcDbPolyline
 90
26
 70
1
 10
343.855928
 20
338.401100
 30
0.0
 10
345.068112
 20
340.219380
 30
0.0
 10
344.866080
 20
356.583852
 30
0.0
 10
346.280296
 20
360.422428
 30
0.0
 10
342.441712
 20
363.856948
 30
0.0
 10
353.149328
 20
363.856948
 30
0.0
 10
363.856944
 20
370.523956
 30
0.0
 10
369.917864
 20
370.725988
 30
0.0
 10
374.968624
 20
365.069132
 30
0.0
 10
380.827512
 20
360.422428
 30
0.0
 10
386.484368
 20
361.432580
 30
0.0
 10
387.696544
 20
362.442732
 30
0.0
 10
389.716856
 20
360.018364
 30
0.0
 10
400.424472
 20
357.594004
 30
0.0
 10
400.222440
 20
343.047804
 30
0.0
 10
396.585888
 20
334.158460
 30
0.0
 10
397.596040
 20
315.773684
 30
0.0
 10
391.131064
 20
304.055916
 30
0.0
 10
381.837664
 20
304.662012
 30
0.0
 10
376.786896
 20
312.541196
 30
0.0
 10
368.907712
 20
317.996020
 30
0.0
 10
353.553392
 20
319.410236
 30
0.0
 10
350.118872
 20
322.238660
 30
0.0
 10
345.876232
 20
323.450844
 30
0.0
 10
350.522936
 20
331.734100
 30
0.0
 10
343.855928
 20
338.401100
 30
0.0
  0
LWPOLYLINE
  5
10f
100
AcDbEntity
  8
Layer_1
 62
7
100
AcDbPolyline
 90
35
 70
1
 10
389.312792
 20
304.055916
 30
0.0
 10
389.312792
 20
299.207188
 30
0.0
 10
391.737160
 20
296.782820
 30
0.0
 10
388.706696
 20
295.368604
 30
0.0
 10
380.221416
 20
295.974700
 30
0.0
 10
375.170656
 20
294.560484
 30
0.0
 10
371.130048
 20
284.660988
 30
0.0
 10
367.089432
 20
279.610228
 30
0.0
 10
367.291464
 20
275.771644
 30
0.0
 10
368.301616
 20
267.488396
 30
0.0
 10
361.634608
 20
260.417324
 30
0.0
 10
360.422432
 20
257.992964
 30
0.0
 10
359.210248
 20
254.962500
 30
0.0
 10
352.139176
 20
257.386868
 30
0.0
 10
346.280296
 20
263.245756
 30
0.0
 10
344.664048
 20
266.882300
 30
0.0
 10
348.906688
 20
270.518852
 30
0.0
 10
349.310752
 20
278.196012
 30
0.0
 10
344.259984
 20
282.236620
 30
0.0
 10
334.764552
 20
282.438652
 30
0.0
 10
325.471152
 20
291.732052
 30
0.0
 10
312.743232
 20
294.358452
 30
0.0
 10
319.612264
 20
310.318860
 30
0.0
 10
324.258968
 20
315.167596
 30
0.0
 10
334.764552
 20
321.632572
 30
0.0
 10
334.764552
 20
326.683332
 30
0.0
 10
343.855928
 20
338.401100
 30
0.0
 10
350.118872
 20
331.734100
 30
0.0
 10
346.078264
 20
323.450844
 30
0.0
 10
351.735120
 20
321.430540
 30
0.0
 10
353.149328
 20
319.814300
 30
0.0
 10
368.907712
 20
318.198052
 30
0.0
 10
376.382840
 20
312.541196
 30
0.0
 10
381.837664
 20
305.066068
 30
0.0
 10
389.312792
 20
304.055916
 30
0.0
  0
LWPOLYLINE
  5
110
100
AcDbEntity
  8
Layer_1
 62
7
100
AcDbPolyline
 90
18
 70
1
 10
391.737160
 20
296.782820
 30
0.0
 10
397.191984
 20
292.540180
 30
0.0
 10
402.444776
 20
284.863020
 30
0.0
 10
405.071168
 20
278.398044
 30
0.0
 10
398.000104
 20
268.700580
 30
0.0
 10
384.464056
 20
266.276212
 30
0.0
 10
383.857968
 20
255.568596
 30
0.0
 10
372.948320
 20
250.517828
 30
0.0
 10
364.665072
 20
251.730012
 30
0.0
 10
358.604152
 20
255.164532
 30
0.0
 10
362.442736
 20
262.033572
 30
0.0
 10
368.705680
 20
268.094484
 30
0.0
 10
366.685376
 20
279.610228
 30
0.0
 10
371.534104
 20
286.075204
 30
0.0
 10
374.766592
 20
295.166572
 30
0.0
 10
381.029544
 20
296.580788
 30
0.0
 10
388.302640
 20
295.368604
 30
0.0
 10
391.737160
 20
296.782820
 30
0.0
  0
ENDSEC
  0
SECTION
  2
OBJECTS
  0
DICTIONARY
  5
C
330
0
100
AcDbDictionary
  3
ACAD_GROUP
350
D
  3
ACAD_MLINESTYLE
350
17
  0
DICTIONARY
  5
D
330
C
100
AcDbDictionary
  0
DICTIONARY
  5
1A
330
C
100
AcDbDictionary
  0
DICTIONARY
  5
17
330
C
100
AcDbDictionary
  3
STANDARD
350
18
  0
DICTIONARY
  5
19
330
C
100
AcDbDictionary
  0
ENDSEC
  0
EOF
