  0
SECTION
  2
HEADER
  9
$ACADVER
  1
AC1014
  9
$HANDSEED
  5
FFFF
  9
$MEASUREMENT
 70
     1
  0
ENDSEC
  0
SECTION
  2
TABLES
  0
TABLE
  2
VPORT
  5
8
330
0
100
AcDbSymbolTable
 70
     4
  0
VPORT
  5
2E
330
8
100
AcDbSymbolTableRecord
100
AcDbViewportTableRecord
  2
*ACTIVE
 70
     0
 10
0.0
 20
0.0
 11
1.0
 21
1.0
 12
210.0
 22
148.5
 13
0.0
 23
0.0
 14
10.0
 24
10.0
 15
10.0
 25
10.0
 16
0.0
 26
0.0
 36
1.0
 17
0.0
 27
0.0
 37
0.0
 40
341.0
 41
1.24
 42
50.0
 43
0.0
 44
0.0
 50
0.0
 51
0.0
 71
     0
 72
   100
 73
     1
 74
     3
 75
     0
 76
     0
 77
     0
 78
     0
  0
ENDTAB
  0
TABLE
  2
LTYPE
  5
5
330
0
100
AcDbSymbolTable
 70
     1
  0
LTYPE
  5
14
330
5
100
AcDbSymbolTableRecord
100
AcDbLinetypeTableRecord
  2
BYBLOCK
 70
     0
  3

 72
    65
 73
     0
 40
0.0
  0
LTYPE
  5
15
330
5
100
AcDbSymbolTableRecord
100
AcDbLinetypeTableRecord
  2
BYLAYER
 70
     0
  3

 72
    65
 73
     0
 40
0.0
  0
LTYPE
  5
16
330
5
100
AcDbSymbolTableRecord
100
AcDbLinetypeTableRecord
  2
CONTINUOUS
 70
     0
  3
Solid line
 72
    65
 73
     0
 40
0.0
  0
ENDTAB
  0
TABLE
  2
LAYER
  5
2
100
AcDbSymbolTable
 70
2
  0
LAYER
  5
50
100
AcDbSymbolTableRecord
100
AcDbLayerTableRecord
  2
0
 70
0
  6
CONTINUOUS
  0
LAYER
  5
51
100
AcDbSymbolTableRecord
100
AcDbLayerTableRecord
  2
Layer_1
 70
0
  6
CONTINUOUS
  0
ENDTAB
  0
TABLE
  2
STYLE
  5
3
330
0
100
AcDbSymbolTable
 70
     1
  0
STYLE
  5
11
330
3
100
AcDbSymbolTableRecord
100
AcDbTextStyleTableRecord
  2
STANDARD
 70
     0
 40
0.0
 41
1.0
 50
0.0
 71
     0
 42
2.5
  3
txt
  4

  0
ENDTAB
  0
TABLE
  2
VIEW
  5
6
330
0
100
AcDbSymbolTable
 70
     0
  0
ENDTAB
  0
TABLE
  2
UCS
  5
7
330
0
100
AcDbSymbolTable
 70
     0
  0
ENDTAB
  0
TABLE
  2
APPID
  5
9
330
0
100
AcDbSymbolTable
 70
     2
  0
APPID
  5
12
330
9
100
AcDbSymbolTableRecord
100
AcDbRegAppTableRecord
  2
ACAD
 70
     0
  0
ENDTAB
  0
TABLE
  2
DIMSTYLE
  5
A
330
0
100
AcDbSymbolTable
 70
     1
  0
DIMSTYLE
105
27
330
A
100
AcDbSymbolTableRecord
100
AcDbDimStyleTableRecord
  2
ISO-25
 70
     0
  3

  4

  5

  6

  7

 40
1.0
 41
2.5
 42
0.625
 43
3.75
 44
1.25
 45
0.0
 46
0.0
 47
0.0
 48
0.0
140
2.5
141
2.5
142
0.0
143
0.03937007874016
144
1.0
145
0.0
146
1.0
147
0.625
 71
     0
 72
     0
 73
     0
 74
     0
 75
     0
 76
     0
 77
     1
 78
     8
170
     0
171
     3
172
     1
173
     0
174
     0
175
     0
176
     0
177
     0
178
     0
270
     2
271
     2
272
     2
273
     2
274
     3
340
11
275
     0
280
     0
281
     0
282
     0
283
     0
284
     8
285
     0
286
     0
287
     3
288
     0
  0
ENDTAB
  0
TABLE
  2
BLOCK_RECORD
  5
1
330
0
100
AcDbSymbolTable
 70
     1
  0
BLOCK_RECORD
  5
1F
330
1
100
AcDbSymbolTableRecord
100
AcDbBlockTableRecord
  2
*MODEL_SPACE
  0
BLOCK_RECORD
  5
1B
330
1
100
AcDbSymbolTableRecord
100
AcDbBlockTableRecord
  2
*PAPER_SPACE
  0
ENDTAB
  0
ENDSEC
  0
SECTION
  2
BLOCKS
  0
BLOCK
  5
20
330
1F
100
AcDbEntity
  8
0
100
AcDbBlockBegin
  2
*MODEL_SPACE
 70
     0
 10
0.0
 20
0.0
 30
0.0
  3
*MODEL_SPACE
  1

  0
ENDBLK
  5
21
330
1F
100
AcDbEntity
  8
0
100
AcDbBlockEnd
  0
BLOCK
  5
1C
330
1B
100
AcDbEntity
 67
     1
  8
0
100
AcDbBlockBegin
  2
*PAPER_SPACE
  1

  0
ENDBLK
  5
1D
330
1B
100
AcDbEntity
 67
     1
  8
0
100
AcDbBlockEnd
  0
ENDSEC
  0
SECTION
  2
ENTITIES
  0
LWPOLYLINE
  5
100
100
AcDbEntity
  8
Layer_1
 62
7
100
AcDbPolyline
 90
15
 70
1
 10
-249.142856
 20
247.428572
 30
0.0
 10
-256.000000
 20
308.571428
 30
0.0
 10
-264.000000
 20
325.714284
 30
0.0
 10
-276.571432
 20
369.142860
 30
0.0
 10
-268.571432
 20
410.857140
 30
0.0
 10
-246.857144
 20
426.285716
 30
0.0
 10
-244.571432
 20
436.571428
 30
0.0
 10
-272.000000
 20
462.285716
 30
0.0
 10
-324.571432
 20
536.571428
 30
0.0
 10
-353.142856
 20
445.714284
 30
0.0
 10
-378.857144
 20
373.142860
 30
0.0
 10
-334.857144
 20
281.714284
 30
0.0
 10
-301.142856
 20
243.428572
 30
0.0
 10
-278.285712
 20
242.285716
 30
0.0
 10
-249.142856
 20
247.428572
 30
0.0
  0
LWPOLYLINE
  5
101
100
AcDbEntity
  8
Layer_1
 62
7
100
AcDbPolyline
 90
12
 70
1
 10
-258.857144
 20
583.428572
 30
0.0
 10
-226.285712
 20
602.857140
 30
0.0
 10
-197.142856
 20
609.714284
 30
0.0
 10
-161.714288
 20
609.714284
 30
0.0
 10
-122.857144
 20
640.571428
 30
0.0
 10
-73.142858
 20
588.000004
 30
0.0
 10
-73.142858
 20
572.000004
 30
0.0
 10
-110.857144
 20
538.857140
 30
0.0
 10
-138.857144
 20
527.428572
 30
0.0
 10
-190.857144
 20
533.142860
 30
0.0
 10
-230.857144
 20
558.285716
 30
0.0
 10
-258.857144
 20
583.428572
 30
0.0
  0
LWPOLYLINE
  5
102
100
AcDbEntity
  8
Layer_1
 62
7
100
AcDbPolyline
 90
14
 70
1
 10
-122.285712
 20
640.571428
 30
0.0
 10
-114.857144
 20
655.428572
 30
0.0
 10
-130.285712
 20
692.000004
 30
0.0
 10
-138.285712
 20
720.000004
 30
0.0
 10
-131.428568
 20
738.857140
 30
0.0
 10
-124.000000
 20
741.714284
 30
0.0
 10
-69.714286
 20
693.142860
 30
0.0
 10
-43.428571
 20
693.714284
 30
0.0
 10
-32.571429
 20
684.000004
 30
0.0
 10
-4.571429
 20
642.857140
 30
0.0
 10
-72.571429
 20
636.000004
 30
0.0
 10
-94.285712
 20
616.000004
 30
0.0
 10
-97.142856
 20
614.857140
 30
0.0
 10
-122.285712
 20
640.571428
 30
0.0
  0
LWPOLYLINE
  5
103
100
AcDbEntity
  8
Layer_1
 62
7
100
AcDbPolyline
 90
16
 70
1
 10
-95.428568
 20
613.714284
 30
0.0
 10
-72.571429
 20
588.000004
 30
0.0
 10
-72.571429
 20
570.857140
 30
0.0
 10
-109.714288
 20
538.857140
 30
0.0
 10
-137.714288
 20
526.285716
 30
0.0
 10
-115.428568
 20
508.000004
 30
0.0
 10
-71.428571
 20
509.142860
 30
0.0
 10
-17.142857
 20
502.857140
 30
0.0
 10
24.571429
 20
515.428572
 30
0.0
 10
6.285714
 20
563.428572
 30
0.0
 10
-19.428571
 20
576.571428
 30
0.0
 10
-26.857143
 20
592.571428
 30
0.0
 10
-7.428571
 20
626.285716
 30
0.0
 10
-4.000000
 20
643.428572
 30
0.0
 10
-72.000000
 20
634.857140
 30
0.0
 10
-95.428568
 20
613.714284
 30
0.0
  0
LWPOLYLINE
  5
104
100
AcDbEntity
  8
Layer_1
 62
7
100
AcDbPolyline
 90
10
 70
1
 10
29.714286
 20
495.428572
 30
0.0
 10
49.714286
 20
478.857140
 30
0.0
 10
33.714286
 20
409.714284
 30
0.0
 10
24.571429
 20
413.714284
 30
0.0
 10
7.428571
 20
405.714284
 30
0.0
 10
-14.285714
 20
424.571428
 30
0.0
 10
-6.857143
 20
431.428572
 30
0.0
 10
-2.857143
 20
454.857140
 30
0.0
 10
16.571429
 20
462.857140
 30
0.0
 10
29.714286
 20
495.428572
 30
0.0
  0
LWPOLYLINE
  5
105
100
AcDbEntity
  8
Layer_1
 62
7
100
AcDbPolyline
 90
9
 70
1
 10
34.857143
 20
408.571428
 30
0.0
 10
46.285714
 20
387.428572
 30
0.0
 10
44.000000
 20
349.714284
 30
0.0
 10
40.000000
 20
344.571428
 30
0.0
 10
-17.714286
 20
380.000004
 30
0.0
 10
-16.000000
 20
386.857140
 30
0.0
 10
9.142857
 20
405.714284
 30
0.0
 10
25.714286
 20
413.142860
 30
0.0
 10
34.857143
 20
408.571428
 30
0.0
  0
LWPOLYLINE
  5
106
100
AcDbEntity
  8
Layer_1
 62
7
100
AcDbPolyline
 90
32
 70
1
 10
39.428571
 20
345.714284
 30
0.0
 10
25.142857
 20
338.857140
 30
0.0
 10
17.714286
 20
318.285716
 30
0.0
 10
-1.714286
 20
299.428572
 30
0.0
 10
-25.142857
 20
305.142860
 30
0.0
 10
-48.571429
 20
295.428572
 30
0.0
 10
-53.142857
 20
279.428572
 30
0.0
 10
-248.571432
 20
246.285716
 30
0.0
 10
-254.285712
 20
308.571428
 30
0.0
 10
-277.142856
 20
368.571428
 30
0.0
 10
-268.571432
 20
410.857140
 30
0.0
 10
-246.285712
 20
427.428572
 30
0.0
 10
-244.000000
 20
438.285716
 30
0.0
 10
-270.857144
 20
460.000004
 30
0.0
 10
-325.142856
 20
538.285716
 30
0.0
 10
-294.285712
 20
574.285716
 30
0.0
 10
-259.428568
 20
582.857140
 30
0.0
 10
-189.714288
 20
530.857140
 30
0.0
 10
-137.714288
 20
527.428572
 30
0.0
 10
-114.857144
 20
507.428572
 30
0.0
 10
-64.000000
 20
508.571428
 30
0.0
 10
-16.571429
 20
502.285716
 30
0.0
 10
24.000000
 20
515.428572
 30
0.0
 10
30.285714
 20
496.571428
 30
0.0
 10
16.571429
 20
463.428572
 30
0.0
 10
-3.428571
 20
456.000004
 30
0.0
 10
-5.714286
 20
430.857140
 30
0.0
 10
-14.857143
 20
425.142860
 30
0.0
 10
8.000000
 20
406.285716
 30
0.0
 10
-16.000000
 20
388.571428
 30
0.0
 10
-17.142857
 20
377.714284
 30
0.0
 10
39.428571
 20
345.714284
 30
0.0
  0
ENDSEC
  0
SECTION
  2
OBJECTS
  0
DICTIONARY
  5
C
330
0
100
AcDbDictionary
  3
ACAD_GROUP
350
D
  3
ACAD_MLINESTYLE
350
17
  0
DICTIONARY
  5
D
330
C
100
AcDbDictionary
  0
DICTIONARY
  5
1A
330
C
100
AcDbDictionary
  0
DICTIONARY
  5
17
330
C
100
AcDbDictionary
  3
STANDARD
350
18
  0
DICTIONARY
  5
19
330
C
100
AcDbDictionary
  0
ENDSEC
  0
EOF
