  0
SECTION
  2
HEADER
  9
$ACADVER
  1
AC1014
  9
$HANDSEED
  5
FFFF
  9
$MEASUREMENT
 70
     1
  0
ENDSEC
  0
SECTION
  2
TABLES
  0
TABLE
  2
VPORT
  5
8
330
0
100
AcDbSymbolTable
 70
     4
  0
VPORT
  5
2E
330
8
100
AcDbSymbolTableRecord
100
AcDbViewportTableRecord
  2
*ACTIVE
 70
     0
 10
0.0
 20
0.0
 11
1.0
 21
1.0
 12
210.0
 22
148.5
 13
0.0
 23
0.0
 14
10.0
 24
10.0
 15
10.0
 25
10.0
 16
0.0
 26
0.0
 36
1.0
 17
0.0
 27
0.0
 37
0.0
 40
341.0
 41
1.24
 42
50.0
 43
0.0
 44
0.0
 50
0.0
 51
0.0
 71
     0
 72
   100
 73
     1
 74
     3
 75
     0
 76
     0
 77
     0
 78
     0
  0
ENDTAB
  0
TABLE
  2
LTYPE
  5
5
330
0
100
AcDbSymbolTable
 70
     1
  0
LTYPE
  5
14
330
5
100
AcDbSymbolTableRecord
100
AcDbLinetypeTableRecord
  2
BYBLOCK
 70
     0
  3

 72
    65
 73
     0
 40
0.0
  0
LTYPE
  5
15
330
5
100
AcDbSymbolTableRecord
100
AcDbLinetypeTableRecord
  2
BYLAYER
 70
     0
  3

 72
    65
 73
     0
 40
0.0
  0
LTYPE
  5
16
330
5
100
AcDbSymbolTableRecord
100
AcDbLinetypeTableRecord
  2
CONTINUOUS
 70
     0
  3
Solid line
 72
    65
 73
     0
 40
0.0
  0
ENDTAB
  0
TABLE
  2
LAYER
  5
2
100
AcDbSymbolTable
 70
2
  0
LAYER
  5
50
100
AcDbSymbolTableRecord
100
AcDbLayerTableRecord
  2
0
 70
0
  6
CONTINUOUS
  0
LAYER
  5
51
100
AcDbSymbolTableRecord
100
AcDbLayerTableRecord
  2
Layer_1
 70
0
  6
CONTINUOUS
  0
ENDTAB
  0
TABLE
  2
STYLE
  5
3
330
0
100
AcDbSymbolTable
 70
     1
  0
STYLE
  5
11
330
3
100
AcDbSymbolTableRecord
100
AcDbTextStyleTableRecord
  2
STANDARD
 70
     0
 40
0.0
 41
1.0
 50
0.0
 71
     0
 42
2.5
  3
txt
  4

  0
ENDTAB
  0
TABLE
  2
VIEW
  5
6
330
0
100
AcDbSymbolTable
 70
     0
  0
ENDTAB
  0
TABLE
  2
UCS
  5
7
330
0
100
AcDbSymbolTable
 70
     0
  0
ENDTAB
  0
TABLE
  2
APPID
  5
9
330
0
100
AcDbSymbolTable
 70
     2
  0
APPID
  5
12
330
9
100
AcDbSymbolTableRecord
100
AcDbRegAppTableRecord
  2
ACAD
 70
     0
  0
ENDTAB
  0
TABLE
  2
DIMSTYLE
  5
A
330
0
100
AcDbSymbolTable
 70
     1
  0
DIMSTYLE
105
27
330
A
100
AcDbSymbolTableRecord
100
AcDbDimStyleTableRecord
  2
ISO-25
 70
     0
  3

  4

  5

  6

  7

 40
1.0
 41
2.5
 42
0.625
 43
3.75
 44
1.25
 45
0.0
 46
0.0
 47
0.0
 48
0.0
140
2.5
141
2.5
142
0.0
143
0.03937007874016
144
1.0
145
0.0
146
1.0
147
0.625
 71
     0
 72
     0
 73
     0
 74
     0
 75
     0
 76
     0
 77
     1
 78
     8
170
     0
171
     3
172
     1
173
     0
174
     0
175
     0
176
     0
177
     0
178
     0
270
     2
271
     2
272
     2
273
     2
274
     3
340
11
275
     0
280
     0
281
     0
282
     0
283
     0
284
     8
285
     0
286
     0
287
     3
288
     0
  0
ENDTAB
  0
TABLE
  2
BLOCK_RECORD
  5
1
330
0
100
AcDbSymbolTable
 70
     1
  0
BLOCK_RECORD
  5
1F
330
1
100
AcDbSymbolTableRecord
100
AcDbBlockTableRecord
  2
*MODEL_SPACE
  0
BLOCK_RECORD
  5
1B
330
1
100
AcDbSymbolTableRecord
100
AcDbBlockTableRecord
  2
*PAPER_SPACE
  0
ENDTAB
  0
ENDSEC
  0
SECTION
  2
BLOCKS
  0
BLOCK
  5
20
330
1F
100
AcDbEntity
  8
0
100
AcDbBlockBegin
  2
*MODEL_SPACE
 70
     0
 10
0.0
 20
0.0
 30
0.0
  3
*MODEL_SPACE
  1

  0
ENDBLK
  5
21
330
1F
100
AcDbEntity
  8
0
100
AcDbBlockEnd
  0
BLOCK
  5
1C
330
1B
100
AcDbEntity
 67
     1
  8
0
100
AcDbBlockBegin
  2
*PAPER_SPACE
  1

  0
ENDBLK
  5
1D
330
1B
100
AcDbEntity
 67
     1
  8
0
100
AcDbBlockEnd
  0
ENDSEC
  0
SECTION
  2
ENTITIES
  0
LWPOLYLINE
  5
100
100
AcDbEntity
  8
Layer_1
 62
7
100
AcDbPolyline
 90
22
 70
1
 10
-404.869144
 20
237.991940
 30
0.0
 10
-387.898576
 20
225.466052
 30
0.0
 10
-363.250856
 20
226.274172
 30
0.0
 10
-331.330032
 20
238.396004
 30
0.0
 10
-307.490432
 20
234.355388
 30
0.0
 10
-245.669096
 20
210.111732
 30
0.0
 10
-232.335088
 20
194.353348
 30
0.0
 10
-234.355392
 20
188.696492
 30
0.0
 10
-178.999032
 20
171.321876
 30
0.0
 10
-180.615272
 20
193.545228
 30
0.0
 10
-187.888376
 20
214.960460
 30
0.0
 10
-209.707672
 20
241.628492
 30
0.0
 10
-212.132032
 20
273.549308
 30
0.0
 10
-219.405136
 20
285.267076
 30
0.0
 10
-235.163512
 20
298.197028
 30
0.0
 10
-270.720880
 20
317.187900
 30
0.0
 10
-337.795008
 20
322.440692
 30
0.0
 10
-347.088416
 20
311.126988
 30
0.0
 10
-352.341208
 20
296.984852
 30
0.0
 10
-370.928016
 20
288.095508
 30
0.0
 10
-380.221416
 20
256.982804
 30
0.0
 10
-404.869144
 20
237.991940
 30
0.0
  0
LWPOLYLINE
  5
101
100
AcDbEntity
  8
Layer_1
 62
7
100
AcDbPolyline
 90
27
 70
1
 10
-177.786848
 20
173.342180
 30
0.0
 10
-143.845720
 20
202.838628
 30
0.0
 10
-111.520840
 20
210.515788
 30
0.0
 10
-113.541144
 20
233.547268
 30
0.0
 10
-105.055864
 20
259.811236
 30
0.0
 10
-92.529976
 20
271.529004
 30
0.0
 10
-58.992909
 20
301.833580
 30
0.0
 10
-52.931994
 20
330.117852
 30
0.0
 10
-67.882251
 20
366.887404
 30
0.0
 10
-74.347227
 20
392.747308
 30
0.0
 10
-93.742160
 20
404.465076
 30
0.0
 10
-94.146216
 20
414.566604
 30
0.0
 10
-117.177696
 20
419.011276
 30
0.0
 10
-122.026424
 20
421.839700
 30
0.0
 10
-181.423400
 20
420.223460
 30
0.0
 10
-219.809192
 20
405.677260
 30
0.0
 10
-214.960464
 20
361.634612
 30
0.0
 10
-229.102600
 20
338.603132
 30
0.0
 10
-229.506656
 20
320.016324
 30
0.0
 10
-234.355392
 20
309.106676
 30
0.0
 10
-233.547272
 20
298.197028
 30
0.0
 10
-217.788888
 20
283.650836
 30
0.0
 10
-210.919848
 20
272.741188
 30
0.0
 10
-208.495488
 20
241.224428
 30
0.0
 10
-186.676192
 20
214.556404
 30
0.0
 10
-179.807152
 20
193.545228
 30
0.0
 10
-177.786848
 20
173.342180
 30
0.0
  0
LWPOLYLINE
  5
102
100
AcDbEntity
  8
Layer_1
 62
7
100
AcDbPolyline
 90
12
 70
1
 10
-111.116784
 20
210.515788
 30
0.0
 10
-68.690373
 20
210.919852
 30
0.0
 10
-56.164482
 20
217.384828
 30
0.0
 10
-14.546197
 20
258.194988
 30
0.0
 10
11.717770
 20
267.892452
 30
0.0
 10
-2.020305
 20
279.610228
 30
0.0
 10
-33.537065
 20
285.267076
 30
0.0
 10
-54.548238
 20
277.993980
 30
0.0
 10
-80.004080
 20
281.226468
 30
0.0
 10
-103.843680
 20
260.215300
 30
0.0
 10
-113.137088
 20
232.335084
 30
0.0
 10
-111.116784
 20
210.515788
 30
0.0
  0
LWPOLYLINE
  5
103
100
AcDbEntity
  8
Layer_1
 62
7
100
AcDbPolyline
 90
27
 70
1
 10
-79.195959
 20
282.842716
 30
0.0
 10
-54.548238
 20
278.398044
 30
0.0
 10
-31.920821
 20
286.075204
 30
0.0
 10
-1.212183
 20
280.014284
 30
0.0
 10
12.525891
 20
267.084332
 30
0.0
 10
38.789858
 20
279.206164
 30
0.0
 10
78.387838
 20
288.903628
 30
0.0
 10
65.053824
 20
312.743228
 30
0.0
 10
116.773632
 20
340.623436
 30
0.0
 10
121.218304
 20
364.463036
 30
0.0
 10
103.843680
 20
370.523956
 30
0.0
 10
96.166520
 20
382.241724
 30
0.0
 10
93.742160
 20
413.758484
 30
0.0
 10
80.408144
 20
412.546300
 30
0.0
 10
73.539106
 20
406.889444
 30
0.0
 10
49.295444
 20
415.778788
 30
0.0
 10
51.719810
 20
479.216364
 30
0.0
 10
3.636549
 20
459.013316
 30
0.0
 10
-19.798990
 20
439.618388
 30
0.0
 10
-32.728942
 20
412.142236
 30
0.0
 10
-75.963471
 20
404.869140
 30
0.0
 10
-81.216264
 20
396.787924
 30
0.0
 10
-73.135044
 20
392.343252
 30
0.0
 10
-66.670068
 20
364.058980
 30
0.0
 10
-52.123871
 20
329.309732
 30
0.0
 10
-58.588848
 20
300.621396
 30
0.0
 10
-79.195959
 20
282.842716
 30
0.0
  0
LWPOLYLINE
  5
104
100
AcDbEntity
  8
Layer_1
 62
7
100
AcDbPolyline
 90
20
 70
1
 10
49.295444
 20
416.990972
 30
0.0
 10
54.952298
 20
502.247844
 30
0.0
 10
109.904600
 20
508.308764
 30
0.0
 10
147.078208
 20
522.046836
 30
0.0
 10
163.644712
 20
533.360548
 30
0.0
 10
172.534056
 20
547.906740
 30
0.0
 10
187.080248
 20
539.825524
 30
0.0
 10
208.091424
 20
553.563596
 30
0.0
 10
225.466048
 20
542.249884
 30
0.0
 10
227.486352
 20
522.450900
 30
0.0
 10
214.960464
 20
482.852916
 30
0.0
 10
157.179736
 20
451.740220
 30
0.0
 10
122.430488
 20
406.081324
 30
0.0
 10
121.218304
 20
364.463036
 30
0.0
 10
105.055864
 20
370.523956
 30
0.0
 10
96.166520
 20
382.645788
 30
0.0
 10
93.742160
 20
414.566604
 30
0.0
 10
79.195959
 20
412.142236
 30
0.0
 10
73.539106
 20
406.889444
 30
0.0
 10
49.295444
 20
416.990972
 30
0.0
  0
LWPOLYLINE
  5
105
100
AcDbEntity
  8
Layer_1
 62
7
100
AcDbPolyline
 90
22
 70
1
 10
-34.749247
 20
521.238716
 30
0.0
 10
-9.293403
 20
501.035660
 30
0.0
 10
56.164482
 20
503.460028
 30
0.0
 10
53.336054
 20
479.620428
 30
0.0
 10
2.424366
 20
458.609260
 30
0.0
 10
-19.394929
 20
440.426508
 30
0.0
 10
-32.324882
 20
412.546300
 30
0.0
 10
-75.963471
 20
404.869140
 30
0.0
 10
-80.812200
 20
397.596044
 30
0.0
 10
-92.934032
 20
404.869140
 30
0.0
 10
-94.550280
 20
416.182852
 30
0.0
 10
-80.004080
 20
444.467124
 30
0.0
 10
-83.640632
 20
451.336156
 30
0.0
 10
-102.227440
 20
466.690476
 30
0.0
 10
-103.439624
 20
476.792004
 30
0.0
 10
-90.913728
 20
498.611300
 30
0.0
 10
-64.245702
 20
532.552420
 30
0.0
 10
-47.275139
 20
545.078316
 30
0.0
 10
-35.153309
 20
573.362588
 30
0.0
 10
-5.656854
 20
553.563596
 30
0.0
 10
-7.677159
 20
545.078316
 30
0.0
 10
-34.749247
 20
521.238716
 30
0.0
  0
LWPOLYLINE
  5
106
100
AcDbEntity
  8
Layer_1
 62
7
100
AcDbPolyline
 90
16
 70
1
 10
-197.989896
 20
498.207236
 30
0.0
 10
-176.574664
 20
427.092500
 30
0.0
 10
-181.827456
 20
420.627524
 30
0.0
 10
-121.622368
 20
422.647828
 30
0.0
 10
-115.965512
 20
418.203156
 30
0.0
 10
-94.550280
 20
415.374724
 30
0.0
 10
-79.195959
 20
444.467124
 30
0.0
 10
-84.852816
 20
452.952404
 30
0.0
 10
-103.035560
 20
467.902660
 30
0.0
 10
-103.439624
 20
476.387940
 30
0.0
 10
-67.882251
 20
529.319932
 30
0.0
 10
-46.062956
 20
545.482372
 30
0.0
 10
-35.557370
 20
573.362588
 30
0.0
 10
-96.570584
 20
555.583900
 30
0.0
 10
-105.055864
 20
545.482372
 30
0.0
 10
-197.989896
 20
498.207236
 30
0.0
  0
LWPOLYLINE
  5
107
100
AcDbEntity
  8
Layer_1
 62
7
100
AcDbPolyline
 90
17
 70
1
 10
-233.951328
 20
298.601092
 30
0.0
 10
-271.529008
 20
317.996020
 30
0.0
 10
-315.975720
 20
322.036628
 30
0.0
 10
-324.056936
 20
332.138156
 30
0.0
 10
-325.269120
 20
346.280292
 30
0.0
 10
-328.097544
 20
356.381820
 30
0.0
 10
-347.088416
 20
362.038676
 30
0.0
 10
-348.704656
 20
383.049844
 30
0.0
 10
-314.359472
 20
400.424468
 30
0.0
 10
-284.458960
 20
398.404164
 30
0.0
 10
-261.831536
 20
390.727004
 30
0.0
 10
-220.213256
 20
406.081324
 30
0.0
 10
-214.960464
 20
361.230548
 30
0.0
 10
-230.314784
 20
338.603132
 30
0.0
 10
-229.506656
 20
320.016324
 30
0.0
 10
-234.759448
 20
309.914804
 30
0.0
 10
-233.951328
 20
298.601092
 30
0.0
  0
LWPOLYLINE
  5
108
100
AcDbEntity
  8
Layer_1
 62
7
100
AcDbPolyline
 90
18
 70
1
 10
-316.379776
 20
322.036628
 30
0.0
 10
-338.199072
 20
322.036628
 30
0.0
 10
-345.876232
 20
313.551348
 30
0.0
 10
-352.341208
 20
296.984852
 30
0.0
 10
-370.928016
 20
288.095508
 30
0.0
 10
-380.625480
 20
257.386868
 30
0.0
 10
-406.889448
 20
236.375692
 30
0.0
 10
-437.194024
 20
254.154380
 30
0.0
 10
-453.760520
 20
258.194988
 30
0.0
 10
-466.690480
 20
275.569612
 30
0.0
 10
-467.902656
 20
315.571652
 30
0.0
 10
-428.708744
 20
347.896540
 30
0.0
 10
-414.162544
 20
368.907708
 30
0.0
 10
-349.916840
 20
382.645788
 30
0.0
 10
-347.088416
 20
361.230548
 30
0.0
 10
-327.693488
 20
353.957452
 30
0.0
 10
-324.461000
 20
332.946276
 30
0.0
 10
-316.379776
 20
322.036628
 30
0.0
  0
ENDSEC
  0
SECTION
  2
OBJECTS
  0
DICTIONARY
  5
C
330
0
100
AcDbDictionary
  3
ACAD_GROUP
350
D
  3
ACAD_MLINESTYLE
350
17
  0
DICTIONARY
  5
D
330
C
100
AcDbDictionary
  0
DICTIONARY
  5
1A
330
C
100
AcDbDictionary
  0
DICTIONARY
  5
17
330
C
100
AcDbDictionary
  3
STANDARD
350
18
  0
DICTIONARY
  5
19
330
C
100
AcDbDictionary
  0
ENDSEC
  0
EOF
