  0
SECTION
  2
HEADER
  9
$ACADVER
  1
AC1014
  9
$HANDSEED
  5
FFFF
  9
$MEASUREMENT
 70
     1
  0
ENDSEC
  0
SECTION
  2
TABLES
  0
TABLE
  2
VPORT
  5
8
330
0
100
AcDbSymbolTable
 70
     4
  0
VPORT
  5
2E
330
8
100
AcDbSymbolTableRecord
100
AcDbViewportTableRecord
  2
*ACTIVE
 70
     0
 10
0.0
 20
0.0
 11
1.0
 21
1.0
 12
210.0
 22
148.5
 13
0.0
 23
0.0
 14
10.0
 24
10.0
 15
10.0
 25
10.0
 16
0.0
 26
0.0
 36
1.0
 17
0.0
 27
0.0
 37
0.0
 40
341.0
 41
1.24
 42
50.0
 43
0.0
 44
0.0
 50
0.0
 51
0.0
 71
     0
 72
   100
 73
     1
 74
     3
 75
     0
 76
     0
 77
     0
 78
     0
  0
ENDTAB
  0
TABLE
  2
LTYPE
  5
5
330
0
100
AcDbSymbolTable
 70
     1
  0
LTYPE
  5
14
330
5
100
AcDbSymbolTableRecord
100
AcDbLinetypeTableRecord
  2
BYBLOCK
 70
     0
  3

 72
    65
 73
     0
 40
0.0
  0
LTYPE
  5
15
330
5
100
AcDbSymbolTableRecord
100
AcDbLinetypeTableRecord
  2
BYLAYER
 70
     0
  3

 72
    65
 73
     0
 40
0.0
  0
LTYPE
  5
16
330
5
100
AcDbSymbolTableRecord
100
AcDbLinetypeTableRecord
  2
CONTINUOUS
 70
     0
  3
Solid line
 72
    65
 73
     0
 40
0.0
  0
ENDTAB
  0
TABLE
  2
LAYER
  5
2
100
AcDbSymbolTable
 70
2
  0
LAYER
  5
50
100
AcDbSymbolTableRecord
100
AcDbLayerTableRecord
  2
0
 70
0
  6
CONTINUOUS
  0
LAYER
  5
51
100
AcDbSymbolTableRecord
100
AcDbLayerTableRecord
  2
Layer_1
 70
0
  6
CONTINUOUS
  0
ENDTAB
  0
TABLE
  2
STYLE
  5
3
330
0
100
AcDbSymbolTable
 70
     1
  0
STYLE
  5
11
330
3
100
AcDbSymbolTableRecord
100
AcDbTextStyleTableRecord
  2
STANDARD
 70
     0
 40
0.0
 41
1.0
 50
0.0
 71
     0
 42
2.5
  3
txt
  4

  0
ENDTAB
  0
TABLE
  2
VIEW
  5
6
330
0
100
AcDbSymbolTable
 70
     0
  0
ENDTAB
  0
TABLE
  2
UCS
  5
7
330
0
100
AcDbSymbolTable
 70
     0
  0
ENDTAB
  0
TABLE
  2
APPID
  5
9
330
0
100
AcDbSymbolTable
 70
     2
  0
APPID
  5
12
330
9
100
AcDbSymbolTableRecord
100
AcDbRegAppTableRecord
  2
ACAD
 70
     0
  0
ENDTAB
  0
TABLE
  2
DIMSTYLE
  5
A
330
0
100
AcDbSymbolTable
 70
     1
  0
DIMSTYLE
105
27
330
A
100
AcDbSymbolTableRecord
100
AcDbDimStyleTableRecord
  2
ISO-25
 70
     0
  3

  4

  5

  6

  7

 40
1.0
 41
2.5
 42
0.625
 43
3.75
 44
1.25
 45
0.0
 46
0.0
 47
0.0
 48
0.0
140
2.5
141
2.5
142
0.0
143
0.03937007874016
144
1.0
145
0.0
146
1.0
147
0.625
 71
     0
 72
     0
 73
     0
 74
     0
 75
     0
 76
     0
 77
     1
 78
     8
170
     0
171
     3
172
     1
173
     0
174
     0
175
     0
176
     0
177
     0
178
     0
270
     2
271
     2
272
     2
273
     2
274
     3
340
11
275
     0
280
     0
281
     0
282
     0
283
     0
284
     8
285
     0
286
     0
287
     3
288
     0
  0
ENDTAB
  0
TABLE
  2
BLOCK_RECORD
  5
1
330
0
100
AcDbSymbolTable
 70
     1
  0
BLOCK_RECORD
  5
1F
330
1
100
AcDbSymbolTableRecord
100
AcDbBlockTableRecord
  2
*MODEL_SPACE
  0
BLOCK_RECORD
  5
1B
330
1
100
AcDbSymbolTableRecord
100
AcDbBlockTableRecord
  2
*PAPER_SPACE
  0
ENDTAB
  0
ENDSEC
  0
SECTION
  2
BLOCKS
  0
BLOCK
  5
20
330
1F
100
AcDbEntity
  8
0
100
AcDbBlockBegin
  2
*MODEL_SPACE
 70
     0
 10
0.0
 20
0.0
 30
0.0
  3
*MODEL_SPACE
  1

  0
ENDBLK
  5
21
330
1F
100
AcDbEntity
  8
0
100
AcDbBlockEnd
  0
BLOCK
  5
1C
330
1B
100
AcDbEntity
 67
     1
  8
0
100
AcDbBlockBegin
  2
*PAPER_SPACE
  1

  0
ENDBLK
  5
1D
330
1B
100
AcDbEntity
 67
     1
  8
0
100
AcDbBlockEnd
  0
ENDSEC
  0
SECTION
  2
ENTITIES
  0
LWPOLYLINE
  5
100
100
AcDbEntity
  8
Layer_1
 62
7
100
AcDbPolyline
 90
15
 70
1
 10
57.780726
 20
571.746340
 30
0.0
 10
67.882251
 20
570.130100
 30
0.0
 10
77.983777
 20
561.644812
 30
0.0
 10
85.256872
 20
558.412324
 30
0.0
 10
92.529976
 20
551.543292
 30
0.0
 10
95.762464
 20
542.653948
 30
0.0
 10
107.076168
 20
536.593036
 30
0.0
 10
126.875160
 20
535.380852
 30
0.0
 10
128.087344
 20
523.663084
 30
0.0
 10
107.480232
 20
522.854956
 30
0.0
 10
94.146216
 20
520.026532
 30
0.0
 10
65.457885
 20
536.188972
 30
0.0
 10
52.931994
 20
537.805212
 30
0.0
 10
53.336054
 20
558.412324
 30
0.0
 10
57.780726
 20
571.746340
 30
0.0
  0
LWPOLYLINE
  5
101
100
AcDbEntity
  8
Layer_1
 62
7
100
AcDbPolyline
 90
20
 70
1
 10
58.992909
 20
572.958524
 30
0.0
 10
69.498495
 20
602.050916
 30
0.0
 10
82.832512
 20
608.515892
 30
0.0
 10
111.116784
 20
612.960564
 30
0.0
 10
127.683280
 20
612.152444
 30
0.0
 10
135.360440
 20
608.515892
 30
0.0
 10
161.624408
 20
605.283404
 30
0.0
 10
183.443704
 20
594.777820
 30
0.0
 10
175.362480
 20
584.676292
 30
0.0
 10
172.534056
 20
571.746340
 30
0.0
 10
153.543184
 20
554.775780
 30
0.0
 10
136.572624
 20
549.927044
 30
0.0
 10
127.279224
 20
535.380852
 30
0.0
 10
105.863984
 20
537.401156
 30
0.0
 10
95.762464
 20
543.058012
 30
0.0
 10
92.529976
 20
551.543292
 30
0.0
 10
85.660936
 20
559.220452
 30
0.0
 10
76.771594
 20
561.644812
 30
0.0
 10
68.286312
 20
570.130100
 30
0.0
 10
58.992909
 20
572.958524
 30
0.0
  0
LWPOLYLINE
  5
102
100
AcDbEntity
  8
Layer_1
 62
7
100
AcDbPolyline
 90
58
 70
1
 10
52.571429
 20
537.142860
 30
0.0
 10
41.428571
 20
521.428572
 30
0.0
 10
21.714286
 20
504.571428
 30
0.0
 10
-7.714286
 20
507.142860
 30
0.0
 10
-35.714286
 20
477.714284
 30
0.0
 10
-32.285714
 20
440.000004
 30
0.0
 10
-48.285714
 20
420.571428
 30
0.0
 10
-53.142858
 20
392.285716
 30
0.0
 10
-56.285714
 20
392.000004
 30
0.0
 10
-64.857143
 20
394.285716
 30
0.0
 10
-84.000000
 20
370.571428
 30
0.0
 10
-82.857144
 20
367.428572
 30
0.0
 10
-56.571429
 20
372.285716
 30
0.0
 10
-24.000000
 20
374.285716
 30
0.0
 10
-15.714286
 20
384.285716
 30
0.0
 10
-12.285714
 20
380.000004
 30
0.0
 10
-0.571429
 20
386.285716
 30
0.0
 10
5.714286
 20
403.714284
 30
0.0
 10
4.571429
 20
409.142860
 30
0.0
 10
1.428571
 20
412.285716
 30
0.0
 10
1.142857
 20
417.428572
 30
0.0
 10
8.285714
 20
417.714284
 30
0.0
 10
10.285714
 20
424.857140
 30
0.0
 10
6.000000
 20
429.142860
 30
0.0
 10
5.142857
 20
437.142860
 30
0.0
 10
22.000000
 20
443.428572
 30
0.0
 10
40.285714
 20
450.285716
 30
0.0
 10
49.142858
 20
450.571428
 30
0.0
 10
58.000000
 20
446.857140
 30
0.0
 10
74.285714
 20
446.571428
 30
0.0
 10
96.000000
 20
455.428572
 30
0.0
 10
102.000000
 20
466.285716
 30
0.0
 10
107.428568
 20
471.428572
 30
0.0
 10
130.571432
 20
469.714284
 30
0.0
 10
152.000000
 20
474.571428
 30
0.0
 10
157.714288
 20
469.142860
 30
0.0
 10
165.428568
 20
469.428572
 30
0.0
 10
167.714288
 20
457.714284
 30
0.0
 10
185.714288
 20
454.000004
 30
0.0
 10
188.000000
 20
463.142860
 30
0.0
 10
208.000000
 20
483.714284
 30
0.0
 10
229.428568
 20
497.714284
 30
0.0
 10
228.857144
 20
510.285716
 30
0.0
 10
208.571432
 20
530.285716
 30
0.0
 10
206.000000
 20
542.000004
 30
0.0
 10
190.000000
 20
548.571428
 30
0.0
 10
189.428568
 20
576.857140
 30
0.0
 10
183.142856
 20
593.142860
 30
0.0
 10
175.714288
 20
583.714284
 30
0.0
 10
172.857144
 20
571.428572
 30
0.0
 10
153.428568
 20
554.857140
 30
0.0
 10
137.428568
 20
549.714284
 30
0.0
 10
127.142856
 20
534.857140
 30
0.0
 10
128.857144
 20
524.000004
 30
0.0
 10
107.714288
 20
523.142860
 30
0.0
 10
94.285712
 20
519.714284
 30
0.0
 10
66.000000
 20
536.285716
 30
0.0
 10
52.571429
 20
537.142860
 30
0.0
  0
LWPOLYLINE
  5
103
100
AcDbEntity
  8
Layer_1
 62
7
100
AcDbPolyline
 90
13
 70
1
 10
-37.142858
 20
477.142860
 30
0.0
 10
-44.571429
 20
469.714284
 30
0.0
 10
-94.571432
 20
474.285716
 30
0.0
 10
-119.142856
 20
460.285716
 30
0.0
 10
-132.857144
 20
440.571428
 30
0.0
 10
-134.000000
 20
413.714284
 30
0.0
 10
-112.285712
 20
395.428572
 30
0.0
 10
-82.857144
 20
399.714284
 30
0.0
 10
-53.142858
 20
391.142860
 30
0.0
 10
-48.285714
 20
421.142860
 30
0.0
 10
-31.714286
 20
440.571428
 30
0.0
 10
-36.000000
 20
475.428572
 30
0.0
 10
-37.142858
 20
477.142860
 30
0.0
  0
LWPOLYLINE
  5
104
100
AcDbEntity
  8
Layer_1
 62
7
100
AcDbPolyline
 90
47
 70
1
 10
-83.142856
 20
367.428572
 30
0.0
 10
-82.285712
 20
363.142860
 30
0.0
 10
-22.571429
 20
302.285716
 30
0.0
 10
3.142857
 20
299.714284
 30
0.0
 10
13.428571
 20
302.857140
 30
0.0
 10
44.285714
 20
305.142860
 30
0.0
 10
60.285714
 20
315.428572
 30
0.0
 10
82.571432
 20
310.857140
 30
0.0
 10
90.000000
 20
316.571428
 30
0.0
 10
90.857144
 20
326.857140
 30
0.0
 10
86.857144
 20
338.285716
 30
0.0
 10
88.285712
 20
356.571428
 30
0.0
 10
95.142856
 20
361.714284
 30
0.0
 10
115.142856
 20
362.285716
 30
0.0
 10
143.142856
 20
367.714284
 30
0.0
 10
156.285712
 20
369.142860
 30
0.0
 10
165.142856
 20
364.857140
 30
0.0
 10
180.571432
 20
366.000004
 30
0.0
 10
195.428568
 20
384.857140
 30
0.0
 10
184.857144
 20
422.857140
 30
0.0
 10
185.714288
 20
454.857140
 30
0.0
 10
167.142856
 20
457.428572
 30
0.0
 10
164.857144
 20
469.142860
 30
0.0
 10
158.000000
 20
469.142860
 30
0.0
 10
150.571432
 20
475.428572
 30
0.0
 10
129.428568
 20
469.714284
 30
0.0
 10
108.000000
 20
471.428572
 30
0.0
 10
101.714288
 20
466.000004
 30
0.0
 10
95.428568
 20
455.428572
 30
0.0
 10
75.428571
 20
447.142860
 30
0.0
 10
57.428571
 20
447.142860
 30
0.0
 10
49.142858
 20
450.857140
 30
0.0
 10
38.857143
 20
450.000004
 30
0.0
 10
4.857143
 20
437.428572
 30
0.0
 10
6.000000
 20
428.857140
 30
0.0
 10
11.142857
 20
424.571428
 30
0.0
 10
8.571429
 20
417.714284
 30
0.0
 10
1.142857
 20
417.428572
 30
0.0
 10
1.142857
 20
412.285716
 30
0.0
 10
4.571429
 20
408.000004
 30
0.0
 10
5.428571
 20
402.000004
 30
0.0
 10
-0.857143
 20
387.142860
 30
0.0
 10
-11.428571
 20
380.285716
 30
0.0
 10
-15.714286
 20
384.571428
 30
0.0
 10
-24.571429
 20
373.714284
 30
0.0
 10
-57.142858
 20
372.285716
 30
0.0
 10
-83.142856
 20
367.428572
 30
0.0
  0
LWPOLYLINE
  5
105
100
AcDbEntity
  8
Layer_1
 62
7
100
AcDbPolyline
 90
39
 70
1
 10
-23.142857
 20
301.142860
 30
0.0
 10
-21.142857
 20
284.857140
 30
0.0
 10
-20.000000
 20
257.714284
 30
0.0
 10
-14.857143
 20
241.142860
 30
0.0
 10
-4.571429
 20
228.571428
 30
0.0
 10
9.428571
 20
216.000004
 30
0.0
 10
20.000000
 20
198.571428
 30
0.0
 10
24.000000
 20
174.857140
 30
0.0
 10
46.285714
 20
169.428572
 30
0.0
 10
52.000000
 20
157.428572
 30
0.0
 10
50.285714
 20
145.142860
 30
0.0
 10
84.285712
 20
118.571428
 30
0.0
 10
96.571432
 20
117.714284
 30
0.0
 10
113.714288
 20
126.857140
 30
0.0
 10
109.428568
 20
150.857140
 30
0.0
 10
112.285712
 20
173.142860
 30
0.0
 10
122.571432
 20
192.000004
 30
0.0
 10
143.428568
 20
212.857140
 30
0.0
 10
164.571432
 20
222.571428
 30
0.0
 10
167.142856
 20
245.428572
 30
0.0
 10
168.000000
 20
276.285716
 30
0.0
 10
171.428568
 20
300.571428
 30
0.0
 10
176.571432
 20
309.142860
 30
0.0
 10
178.285712
 20
327.428572
 30
0.0
 10
176.285712
 20
339.428572
 30
0.0
 10
164.571432
 20
364.285716
 30
0.0
 10
154.857144
 20
368.857140
 30
0.0
 10
115.428568
 20
362.285716
 30
0.0
 10
95.428568
 20
361.714284
 30
0.0
 10
88.857144
 20
356.285716
 30
0.0
 10
86.857144
 20
338.285716
 30
0.0
 10
91.428568
 20
326.000004
 30
0.0
 10
89.714288
 20
318.000004
 30
0.0
 10
82.571432
 20
310.857140
 30
0.0
 10
60.571429
 20
315.142860
 30
0.0
 10
43.428571
 20
304.571428
 30
0.0
 10
12.000000
 20
302.857140
 30
0.0
 10
3.142857
 20
300.000004
 30
0.0
 10
-23.142857
 20
301.142860
 30
0.0
  0
LWPOLYLINE
  5
106
100
AcDbEntity
  8
Layer_1
 62
7
100
AcDbPolyline
 90
13
 70
1
 10
113.428568
 20
127.142860
 30
0.0
 10
137.142856
 20
141.428572
 30
0.0
 10
168.285712
 20
173.714284
 30
0.0
 10
181.428568
 20
178.571428
 30
0.0
 10
192.285712
 20
172.285716
 30
0.0
 10
198.571432
 20
178.000004
 30
0.0
 10
184.285712
 20
198.285716
 30
0.0
 10
164.285712
 20
221.714284
 30
0.0
 10
145.142856
 20
213.428572
 30
0.0
 10
123.428568
 20
192.571428
 30
0.0
 10
112.000000
 20
173.428572
 30
0.0
 10
109.428568
 20
150.000004
 30
0.0
 10
113.428568
 20
127.142860
 30
0.0
  0
LWPOLYLINE
  5
107
100
AcDbEntity
  8
Layer_1
 62
7
100
AcDbPolyline
 90
27
 70
1
 10
192.131016
 20
172.129996
 30
0.0
 10
198.191928
 20
161.826436
 30
0.0
 10
208.697520
 20
149.906636
 30
0.0
 10
221.627472
 20
154.957404
 30
0.0
 10
271.731032
 20
184.251828
 30
0.0
 10
294.964544
 20
204.858940
 30
0.0
 10
307.086376
 20
209.707668
 30
0.0
 10
320.824448
 20
203.646756
 30
0.0
 10
340.219376
 20
211.727972
 30
0.0
 10
343.451864
 20
226.678228
 30
0.0
 10
342.037656
 20
235.769604
 30
0.0
 10
316.783840
 20
256.578748
 30
0.0
 10
308.298560
 20
271.529004
 30
0.0
 10
305.268096
 20
280.822412
 30
0.0
 10
299.409216
 20
288.903628
 30
0.0
 10
283.650832
 20
299.611244
 30
0.0
 10
277.185856
 20
301.631548
 30
0.0
 10
255.366560
 20
282.842716
 30
0.0
 10
240.214272
 20
273.549308
 30
0.0
 10
225.264016
 20
269.710732
 30
0.0
 10
186.676192
 20
269.104636
 30
0.0
 10
167.685320
 20
274.761492
 30
0.0
 10
166.473136
 20
235.769604
 30
0.0
 10
164.654864
 20
221.021380
 30
0.0
 10
184.049792
 20
198.595988
 30
0.0
 10
198.191928
 20
178.190908
 30
0.0
 10
192.131016
 20
172.129996
 30
0.0
  0
LWPOLYLINE
  5
108
100
AcDbEntity
  8
Layer_1
 62
7
100
AcDbPolyline
 90
51
 70
1
 10
320.622416
 20
203.242692
 30
0.0
 10
343.047808
 20
164.250804
 30
0.0
 10
355.371664
 20
136.370596
 30
0.0
 10
367.089432
 20
126.067036
 30
0.0
 10
376.786896
 20
121.622364
 30
0.0
 10
393.353400
 20
121.420340
 30
0.0
 10
422.445792
 20
127.077188
 30
0.0
 10
448.911792
 20
126.269068
 30
0.0
 10
486.287432
 20
117.177692
 30
0.0
 10
512.349368
 20
124.248764
 30
0.0
 10
518.410288
 20
134.148260
 30
0.0
 10
522.046832
 20
158.391916
 30
0.0
 10
520.026528
 20
161.018316
 30
0.0
 10
503.258000
 20
165.665020
 30
0.0
 10
497.601144
 20
199.000052
 30
0.0
 10
489.115864
 20
221.021380
 30
0.0
 10
486.691496
 20
236.375700
 30
0.0
 10
486.691496
 20
337.188924
 30
0.0
 10
499.419416
 20
357.998060
 30
0.0
 10
500.631600
 20
373.352380
 30
0.0
 10
489.115864
 20
393.757460
 30
0.0
 10
476.994032
 20
396.383860
 30
0.0
 10
475.983880
 20
406.687412
 30
0.0
 10
462.851896
 20
408.909748
 30
0.0
 10
455.376768
 20
415.576756
 30
0.0
 10
450.123976
 20
425.476252
 30
0.0
 10
446.083368
 20
428.102652
 30
0.0
 10
442.446816
 20
422.445796
 30
0.0
 10
438.810264
 20
407.495540
 30
0.0
 10
427.294528
 20
394.161524
 30
0.0
 10
408.707720
 20
389.918884
 30
0.0
 10
389.716856
 20
392.949340
 30
0.0
 10
354.967608
 20
384.464060
 30
0.0
 10
339.815320
 20
376.786900
 30
0.0
 10
326.481304
 20
373.352380
 30
0.0
 10
303.045760
 20
351.533084
 30
0.0
 10
297.590944
 20
348.906692
 30
0.0
 10
287.287384
 20
329.107700
 30
0.0
 10
288.903632
 20
322.036636
 30
0.0
 10
294.358456
 20
312.945260
 30
0.0
 10
290.115808
 20
306.480284
 30
0.0
 10
277.993984
 20
301.833580
 30
0.0
 10
286.479264
 20
298.197028
 30
0.0
 10
299.409216
 20
288.903628
 30
0.0
 10
306.076224
 20
279.812252
 30
0.0
 10
308.096528
 20
271.326972
 30
0.0
 10
316.985872
 20
256.376716
 30
0.0
 10
342.239680
 20
235.365540
 30
0.0
 10
343.451864
 20
226.274172
 30
0.0
 10
340.219376
 20
211.930004
 30
0.0
 10
320.622416
 20
203.242692
 30
0.0
  0
LWPOLYLINE
  5
109
100
AcDbEntity
  8
Layer_1
 62
7
100
AcDbPolyline
 90
20
 70
1
 10
503.055968
 20
165.867052
 30
0.0
 10
521.642776
 20
160.210196
 30
0.0
 10
566.897608
 20
184.251828
 30
0.0
 10
573.362584
 20
224.051836
 30
0.0
 10
566.089488
 20
311.329012
 30
0.0
 10
541.441768
 20
353.553388
 30
0.0
 10
527.703688
 20
374.160500
 30
0.0
 10
514.369680
 20
420.829548
 30
0.0
 10
512.955464
 20
432.345292
 30
0.0
 10
499.015360
 20
417.597060
 30
0.0
 10
475.579816
 20
405.879292
 30
0.0
 10
476.792000
 20
396.787924
 30
0.0
 10
489.519920
 20
393.555436
 30
0.0
 10
500.631600
 20
373.150348
 30
0.0
 10
499.823480
 20
357.391972
 30
0.0
 10
486.489464
 20
336.986892
 30
0.0
 10
486.893528
 20
234.759452
 30
0.0
 10
489.519920
 20
219.809196
 30
0.0
 10
497.803176
 20
198.191932
 30
0.0
 10
503.055968
 20
165.867052
 30
0.0
  0
LWPOLYLINE
  5
10a
100
AcDbEntity
  8
Layer_1
 62
7
100
AcDbPolyline
 90
11
 70
0
 10
475.983880
 20
406.283356
 30
0.0
 10
499.621448
 20
417.193004
 30
0.0
 10
529.319936
 20
451.336156
 30
0.0
 10
520.026528
 20
480.428548
 30
0.0
 10
503.055968
 20
481.236676
 30
0.0
 10
495.782872
 20
483.661036
 30
0.0
 10
488.307744
 20
491.136172
 30
0.0
 10
465.276264
 20
528.107748
 30
0.0
 10
430.931080
 20
545.280348
 30
0.0
 10
360.624456
 20
551.745324
 30
0.0
 10
326.279272
 20
558.210300
 30
0.0
  0
LWPOLYLINE
  5
10b
100
AcDbEntity
  8
Layer_1
 62
7
100
AcDbPolyline
 90
32
 70
1
 10
270.720880
 20
554.371716
 30
0.0
 10
283.650832
 20
544.674252
 30
0.0
 10
284.660984
 20
523.056988
 30
0.0
 10
299.005152
 20
497.399116
 30
0.0
 10
306.884344
 20
473.963572
 30
0.0
 10
332.340184
 20
473.155452
 30
0.0
 10
342.239680
 20
469.720932
 30
0.0
 10
353.351360
 20
460.831588
 30
0.0
 10
357.594000
 20
442.648844
 30
0.0
 10
357.796032
 20
430.122956
 30
0.0
 10
368.503648
 20
416.788940
 30
0.0
 10
366.079280
 20
387.696548
 30
0.0
 10
389.110760
 20
393.353404
 30
0.0
 10
407.495536
 20
390.120916
 30
0.0
 10
428.102648
 20
394.363556
 30
0.0
 10
439.416360
 20
408.505692
 30
0.0
 10
442.648848
 20
421.637676
 30
0.0
 10
446.487424
 20
427.900620
 30
0.0
 10
450.932096
 20
425.274220
 30
0.0
 10
455.376768
 20
415.980820
 30
0.0
 10
462.851896
 20
409.111780
 30
0.0
 10
476.387944
 20
406.485388
 30
0.0
 10
498.611296
 20
416.586908
 30
0.0
 10
529.521968
 20
451.336156
 30
0.0
 10
519.824504
 20
480.832612
 30
0.0
 10
500.025512
 20
481.640732
 30
0.0
 10
488.711800
 20
490.530076
 30
0.0
 10
464.064080
 20
528.713844
 30
0.0
 10
430.527016
 20
545.684404
 30
0.0
 10
362.644768
 20
551.139228
 30
0.0
 10
324.056936
 20
558.412324
 30
0.0
 10
270.720880
 20
554.371716
 30
0.0
  0
LWPOLYLINE
  5
10c
100
AcDbEntity
  8
Layer_1
 62
7
100
AcDbPolyline
 90
20
 70
1
 10
269.912760
 20
554.573748
 30
0.0
 10
206.879240
 20
541.239732
 30
0.0
 10
209.101576
 20
530.128060
 30
0.0
 10
229.506656
 20
510.127036
 30
0.0
 10
229.506656
 20
496.995052
 30
0.0
 10
207.283304
 20
482.044796
 30
0.0
 10
187.484312
 20
461.639716
 30
0.0
 10
185.868072
 20
451.740220
 30
0.0
 10
185.464008
 20
421.637676
 30
0.0
 10
195.363504
 20
383.857964
 30
0.0
 10
224.253864
 20
382.645788
 30
0.0
 10
244.860976
 20
385.676244
 30
0.0
 10
264.659968
 20
381.433604
 30
0.0
 10
271.124944
 20
402.848836
 30
0.0
 10
280.014288
 20
414.768636
 30
0.0
 10
305.874192
 20
472.953420
 30
0.0
 10
296.984848
 20
500.833636
 30
0.0
 10
284.660984
 20
522.854956
 30
0.0
 10
283.650832
 20
545.684404
 30
0.0
 10
269.912760
 20
554.573748
 30
0.0
  0
LWPOLYLINE
  5
10d
100
AcDbEntity
  8
Layer_1
 62
7
100
AcDbPolyline
 90
17
 70
1
 10
264.053872
 20
381.029540
 30
0.0
 10
276.983832
 20
373.352380
 30
0.0
 10
297.590944
 20
349.108724
 30
0.0
 10
326.885368
 20
373.352380
 30
0.0
 10
340.421408
 20
376.786900
 30
0.0
 10
354.563544
 20
384.464060
 30
0.0
 10
366.887408
 20
387.292484
 30
0.0
 10
368.301616
 20
416.990972
 30
0.0
 10
357.391968
 20
430.122956
 30
0.0
 10
356.987912
 20
445.073212
 30
0.0
 10
353.149328
 20
460.831588
 30
0.0
 10
341.431560
 20
470.124996
 30
0.0
 10
332.542216
 20
473.155452
 30
0.0
 10
305.268096
 20
473.357484
 30
0.0
 10
279.408192
 20
413.354420
 30
0.0
 10
271.731032
 20
402.848836
 30
0.0
 10
264.053872
 20
381.029540
 30
0.0
  0
LWPOLYLINE
  5
10e
100
AcDbEntity
  8
Layer_1
 62
7
100
AcDbPolyline
 90
23
 70
1
 10
164.654864
 20
364.261012
 30
0.0
 10
175.564512
 20
341.633588
 30
0.0
 10
178.594968
 20
328.501612
 30
0.0
 10
176.574664
 20
308.702620
 30
0.0
 10
171.927960
 20
301.429524
 30
0.0
 10
167.887352
 20
274.761492
 30
0.0
 10
187.888376
 20
268.498548
 30
0.0
 10
225.668080
 20
269.508700
 30
0.0
 10
241.628488
 20
273.751340
 30
0.0
 10
255.770624
 20
282.640684
 30
0.0
 10
278.600072
 20
302.035612
 30
0.0
 10
289.711752
 20
306.480284
 30
0.0
 10
294.762512
 20
312.541196
 30
0.0
 10
289.105656
 20
322.642724
 30
0.0
 10
287.489416
 20
329.309732
 30
0.0
 10
298.601096
 20
349.310748
 30
0.0
 10
276.781800
 20
373.352380
 30
0.0
 10
262.841696
 20
381.837660
 30
0.0
 10
244.456920
 20
385.474212
 30
0.0
 10
224.657928
 20
382.847812
 30
0.0
 10
194.555384
 20
384.464060
 30
0.0
 10
181.019336
 20
366.079284
 30
0.0
 10
164.654864
 20
364.261012
 30
0.0
  0
ENDSEC
  0
SECTION
  2
OBJECTS
  0
DICTIONARY
  5
C
330
0
100
AcDbDictionary
  3
ACAD_GROUP
350
D
  3
ACAD_MLINESTYLE
350
17
  0
DICTIONARY
  5
D
330
C
100
AcDbDictionary
  0
DICTIONARY
  5
1A
330
C
100
AcDbDictionary
  0
DICTIONARY
  5
17
330
C
100
AcDbDictionary
  3
STANDARD
350
18
  0
DICTIONARY
  5
19
330
C
100
AcDbDictionary
  0
ENDSEC
  0
EOF
