  0
SECTION
  2
HEADER
  9
$ACADVER
  1
AC1014
  9
$HANDSEED
  5
FFFF
  9
$MEASUREMENT
 70
     1
  0
ENDSEC
  0
SECTION
  2
TABLES
  0
TABLE
  2
VPORT
  5
8
330
0
100
AcDbSymbolTable
 70
     4
  0
VPORT
  5
2E
330
8
100
AcDbSymbolTableRecord
100
AcDbViewportTableRecord
  2
*ACTIVE
 70
     0
 10
0.0
 20
0.0
 11
1.0
 21
1.0
 12
210.0
 22
148.5
 13
0.0
 23
0.0
 14
10.0
 24
10.0
 15
10.0
 25
10.0
 16
0.0
 26
0.0
 36
1.0
 17
0.0
 27
0.0
 37
0.0
 40
341.0
 41
1.24
 42
50.0
 43
0.0
 44
0.0
 50
0.0
 51
0.0
 71
     0
 72
   100
 73
     1
 74
     3
 75
     0
 76
     0
 77
     0
 78
     0
  0
ENDTAB
  0
TABLE
  2
LTYPE
  5
5
330
0
100
AcDbSymbolTable
 70
     1
  0
LTYPE
  5
14
330
5
100
AcDbSymbolTableRecord
100
AcDbLinetypeTableRecord
  2
BYBLOCK
 70
     0
  3

 72
    65
 73
     0
 40
0.0
  0
LTYPE
  5
15
330
5
100
AcDbSymbolTableRecord
100
AcDbLinetypeTableRecord
  2
BYLAYER
 70
     0
  3

 72
    65
 73
     0
 40
0.0
  0
LTYPE
  5
16
330
5
100
AcDbSymbolTableRecord
100
AcDbLinetypeTableRecord
  2
CONTINUOUS
 70
     0
  3
Solid line
 72
    65
 73
     0
 40
0.0
  0
ENDTAB
  0
TABLE
  2
LAYER
  5
2
100
AcDbSymbolTable
 70
2
  0
LAYER
  5
50
100
AcDbSymbolTableRecord
100
AcDbLayerTableRecord
  2
0
 70
0
  6
CONTINUOUS
  0
LAYER
  5
51
100
AcDbSymbolTableRecord
100
AcDbLayerTableRecord
  2
Layer_1
 70
0
  6
CONTINUOUS
  0
ENDTAB
  0
TABLE
  2
STYLE
  5
3
330
0
100
AcDbSymbolTable
 70
     1
  0
STYLE
  5
11
330
3
100
AcDbSymbolTableRecord
100
AcDbTextStyleTableRecord
  2
STANDARD
 70
     0
 40
0.0
 41
1.0
 50
0.0
 71
     0
 42
2.5
  3
txt
  4

  0
ENDTAB
  0
TABLE
  2
VIEW
  5
6
330
0
100
AcDbSymbolTable
 70
     0
  0
ENDTAB
  0
TABLE
  2
UCS
  5
7
330
0
100
AcDbSymbolTable
 70
     0
  0
ENDTAB
  0
TABLE
  2
APPID
  5
9
330
0
100
AcDbSymbolTable
 70
     2
  0
APPID
  5
12
330
9
100
AcDbSymbolTableRecord
100
AcDbRegAppTableRecord
  2
ACAD
 70
     0
  0
ENDTAB
  0
TABLE
  2
DIMSTYLE
  5
A
330
0
100
AcDbSymbolTable
 70
     1
  0
DIMSTYLE
105
27
330
A
100
AcDbSymbolTableRecord
100
AcDbDimStyleTableRecord
  2
ISO-25
 70
     0
  3

  4

  5

  6

  7

 40
1.0
 41
2.5
 42
0.625
 43
3.75
 44
1.25
 45
0.0
 46
0.0
 47
0.0
 48
0.0
140
2.5
141
2.5
142
0.0
143
0.03937007874016
144
1.0
145
0.0
146
1.0
147
0.625
 71
     0
 72
     0
 73
     0
 74
     0
 75
     0
 76
     0
 77
     1
 78
     8
170
     0
171
     3
172
     1
173
     0
174
     0
175
     0
176
     0
177
     0
178
     0
270
     2
271
     2
272
     2
273
     2
274
     3
340
11
275
     0
280
     0
281
     0
282
     0
283
     0
284
     8
285
     0
286
     0
287
     3
288
     0
  0
ENDTAB
  0
TABLE
  2
BLOCK_RECORD
  5
1
330
0
100
AcDbSymbolTable
 70
     1
  0
BLOCK_RECORD
  5
1F
330
1
100
AcDbSymbolTableRecord
100
AcDbBlockTableRecord
  2
*MODEL_SPACE
  0
BLOCK_RECORD
  5
1B
330
1
100
AcDbSymbolTableRecord
100
AcDbBlockTableRecord
  2
*PAPER_SPACE
  0
ENDTAB
  0
ENDSEC
  0
SECTION
  2
BLOCKS
  0
BLOCK
  5
20
330
1F
100
AcDbEntity
  8
0
100
AcDbBlockBegin
  2
*MODEL_SPACE
 70
     0
 10
0.0
 20
0.0
 30
0.0
  3
*MODEL_SPACE
  1

  0
ENDBLK
  5
21
330
1F
100
AcDbEntity
  8
0
100
AcDbBlockEnd
  0
BLOCK
  5
1C
330
1B
100
AcDbEntity
 67
     1
  8
0
100
AcDbBlockBegin
  2
*PAPER_SPACE
  1

  0
ENDBLK
  5
1D
330
1B
100
AcDbEntity
 67
     1
  8
0
100
AcDbBlockEnd
  0
ENDSEC
  0
SECTION
  2
ENTITIES
  0
LWPOLYLINE
  5
100
100
AcDbEntity
  8
Layer_1
 62
7
100
AcDbPolyline
 90
15
 70
1
 10
-181.827456
 20
606.091524
 30
0.0
 10
-136.572624
 20
593.161572
 30
0.0
 10
-84.044688
 20
596.394060
 30
0.0
 10
-88.085304
 20
565.685428
 30
0.0
 10
-75.963471
 20
543.866132
 30
0.0
 10
-95.358400
 20
519.622468
 30
0.0
 10
-113.137088
 20
500.227540
 30
0.0
 10
-122.834552
 20
469.518900
 30
0.0
 10
-158.391920
 20
471.943268
 30
0.0
 10
-157.583800
 20
505.884396
 30
0.0
 10
-166.473136
 20
532.552420
 30
0.0
 10
-177.786848
 20
548.714860
 30
0.0
 10
-172.938112
 20
566.493548
 30
0.0
 10
-176.978728
 20
586.696596
 30
0.0
 10
-181.827456
 20
606.091524
 30
0.0
  0
LWPOLYLINE
  5
101
100
AcDbEntity
  8
Layer_1
 62
7
100
AcDbPolyline
 90
21
 70
1
 10
-122.834552
 20
471.943268
 30
0.0
 10
-61.417274
 20
464.670172
 30
0.0
 10
-17.778685
 20
447.699612
 30
0.0
 10
-4.848732
 20
421.031580
 30
0.0
 10
4.040610
 20
447.699612
 30
0.0
 10
14.546197
 20
447.699612
 30
0.0
 10
18.586807
 20
434.769652
 30
0.0
 10
46.871078
 20
422.647828
 30
0.0
 10
91.317792
 20
434.769652
 30
0.0
 10
91.317792
 20
485.681348
 30
0.0
 10
80.812200
 20
506.692516
 30
0.0
 10
83.236568
 20
572.958524
 30
0.0
 10
90.509672
 20
604.475284
 30
0.0
 10
57.376665
 20
594.777820
 30
0.0
 10
14.546197
 20
592.353452
 30
0.0
 10
-20.203051
 20
599.626548
 30
0.0
 10
-84.852816
 20
596.394060
 30
0.0
 10
-87.277176
 20
564.069180
 30
0.0
 10
-75.155350
 20
544.674252
 30
0.0
 10
-112.328960
 20
502.651908
 30
0.0
 10
-122.834552
 20
471.943268
 30
0.0
  0
LWPOLYLINE
  5
102
100
AcDbEntity
  8
Layer_1
 62
7
100
AcDbPolyline
 90
17
 70
1
 10
139.805112
 20
642.457020
 30
0.0
 10
111.520840
 20
614.172748
 30
0.0
 10
88.085304
 20
603.667164
 30
0.0
 10
81.620328
 20
569.726036
 30
0.0
 10
79.195959
 20
504.268148
 30
0.0
 10
92.125912
 20
486.489468
 30
0.0
 10
90.509672
 20
437.194020
 30
0.0
 10
93.742160
 20
433.153412
 30
0.0
 10
109.904600
 20
434.769652
 30
0.0
 10
109.096472
 20
458.205196
 30
0.0
 10
126.067040
 20
505.076276
 30
0.0
 10
161.624408
 20
534.168668
 30
0.0
 10
171.321872
 20
548.714860
 30
0.0
 10
169.705624
 20
590.737212
 30
0.0
 10
155.159432
 20
619.829604
 30
0.0
 10
147.078208
 20
627.910820
 30
0.0
 10
139.805112
 20
642.457020
 30
0.0
  0
LWPOLYLINE
  5
103
100
AcDbEntity
  8
Layer_1
 62
7
100
AcDbPolyline
 90
25
 70
1
 10
108.288352
 20
434.769652
 30
0.0
 10
130.107648
 20
425.072188
 30
0.0
 10
131.723888
 20
467.902660
 30
0.0
 10
132.532016
 20
480.024492
 30
0.0
 10
140.613232
 20
488.105708
 30
0.0
 10
186.676192
 20
505.076276
 30
0.0
 10
210.919848
 20
518.006228
 30
0.0
 10
244.052856
 20
556.796084
 30
0.0
 10
233.547272
 20
576.191012
 30
0.0
 10
235.163512
 20
616.597116
 30
0.0
 10
240.820368
 20
633.567676
 30
0.0
 10
260.215296
 20
644.881388
 30
0.0
 10
209.303608
 20
670.741292
 30
0.0
 10
198.798024
 20
681.246876
 30
0.0
 10
179.403096
 20
687.711852
 30
0.0
 10
163.240648
 20
685.287484
 30
0.0
 10
151.118824
 20
652.154484
 30
0.0
 10
141.421360
 20
642.457020
 30
0.0
 10
149.502576
 20
623.870212
 30
0.0
 10
167.281264
 20
597.202188
 30
0.0
 10
171.321872
 20
548.714860
 30
0.0
 10
155.967552
 20
529.319932
 30
0.0
 10
126.875160
 20
505.884396
 30
0.0
 10
109.096472
 20
463.053924
 30
0.0
 10
108.288352
 20
434.769652
 30
0.0
  0
LWPOLYLINE
  5
104
100
AcDbEntity
  8
Layer_1
 62
7
100
AcDbPolyline
 90
19
 70
1
 10
130.915768
 20
425.072188
 30
0.0
 10
133.340136
 20
478.408244
 30
0.0
 10
142.229480
 20
488.105708
 30
0.0
 10
199.606144
 20
510.733124
 30
0.0
 10
216.576704
 20
520.430588
 30
0.0
 10
244.052856
 20
557.604204
 30
0.0
 10
290.115808
 20
484.065100
 30
0.0
 10
318.400080
 20
454.972708
 30
0.0
 10
343.451864
 20
442.042756
 30
0.0
 10
336.178768
 20
435.577780
 30
0.0
 10
287.691448
 20
426.688436
 30
0.0
 10
269.912760
 20
419.415340
 30
0.0
 10
252.942200
 20
394.363556
 30
0.0
 10
227.890416
 20
383.049844
 30
0.0
 10
215.768584
 20
403.252900
 30
0.0
 10
202.838632
 20
412.142236
 30
0.0
 10
164.856896
 20
414.566604
 30
0.0
 10
142.229480
 20
419.415340
 30
0.0
 10
130.915768
 20
425.072188
 30
0.0
  0
LWPOLYLINE
  5
105
100
AcDbEntity
  8
Layer_1
 62
7
100
AcDbPolyline
 90
18
 70
1
 10
344.259984
 20
443.658996
 30
0.0
 10
418.607216
 20
406.485388
 30
0.0
 10
400.828528
 20
362.038676
 30
0.0
 10
396.787920
 20
328.905668
 30
0.0
 10
384.666088
 20
311.935108
 30
0.0
 10
379.817360
 20
299.813276
 30
0.0
 10
353.957448
 20
322.440692
 30
0.0
 10
335.370648
 20
314.359476
 30
0.0
 10
302.237640
 20
312.743228
 30
0.0
 10
285.267080
 20
319.208204
 30
0.0
 10
269.104640
 20
340.219380
 30
0.0
 10
244.052856
 20
344.259988
 30
0.0
 10
235.971632
 20
362.846796
 30
0.0
 10
211.727976
 20
374.968628
 30
0.0
 10
252.134072
 20
392.747308
 30
0.0
 10
268.296520
 20
421.031580
 30
0.0
 10
333.754400
 20
435.577780
 30
0.0
 10
344.259984
 20
443.658996
 30
0.0
  0
LWPOLYLINE
  5
106
100
AcDbEntity
  8
Layer_1
 62
7
100
AcDbPolyline
 90
26
 70
1
 10
187.484312
 20
383.857964
 30
0.0
 10
235.971632
 20
363.654916
 30
0.0
 10
245.669096
 20
345.068108
 30
0.0
 10
270.720880
 20
341.027500
 30
0.0
 10
286.075200
 20
320.824452
 30
0.0
 10
303.853888
 20
312.743228
 30
0.0
 10
339.411256
 20
315.167596
 30
0.0
 10
354.765576
 20
323.248812
 30
0.0
 10
381.433600
 20
298.197028
 30
0.0
 10
379.817360
 20
285.267076
 30
0.0
 10
397.596040
 20
238.396004
 30
0.0
 10
377.392992
 20
180.211212
 30
0.0
 10
339.411256
 20
164.856892
 30
0.0
 10
289.307688
 20
175.362484
 30
0.0
 10
240.012248
 20
247.285340
 30
0.0
 10
158.391920
 20
203.646756
 30
0.0
 10
147.886336
 20
218.192948
 30
0.0
 10
154.351312
 20
256.174684
 30
0.0
 10
148.694456
 20
272.337124
 30
0.0
 10
147.886336
 20
301.429516
 30
0.0
 10
156.775672
 20
326.481300
 30
0.0
 10
154.351312
 20
360.422428
 30
0.0
 10
146.270088
 20
372.544260
 30
0.0
 10
159.200040
 20
379.817356
 30
0.0
 10
174.554360
 20
380.625476
 30
0.0
 10
187.484312
 20
383.857964
 30
0.0
  0
LWPOLYLINE
  5
107
100
AcDbEntity
  8
Layer_1
 62
7
100
AcDbPolyline
 90
14
 70
1
 10
152.735064
 20
242.436612
 30
0.0
 10
147.886336
 20
218.192948
 30
0.0
 10
160.008160
 20
202.030508
 30
0.0
 10
135.764504
 20
177.786852
 30
0.0
 10
130.915768
 20
151.118820
 30
0.0
 10
112.328960
 20
132.532012
 30
0.0
 10
-2.424366
 20
169.705628
 30
0.0
 10
33.133003
 20
204.454876
 30
0.0
 10
51.719810
 20
209.303604
 30
0.0
 10
59.801030
 20
214.960460
 30
0.0
 10
61.417274
 20
221.425436
 30
0.0
 10
89.701544
 20
234.355388
 30
0.0
 10
135.764504
 20
243.244732
 30
0.0
 10
152.735064
 20
242.436612
 30
0.0
  0
LWPOLYLINE
  5
108
100
AcDbEntity
  8
Layer_1
 62
7
100
AcDbPolyline
 90
39
 70
1
 10
-0.808122
 20
170.513748
 30
0.0
 10
34.749247
 20
202.838628
 30
0.0
 10
50.911688
 20
207.687364
 30
0.0
 10
61.417274
 20
214.960460
 30
0.0
 10
61.417274
 20
221.425436
 30
0.0
 10
88.085304
 20
231.931028
 30
0.0
 10
131.723888
 20
240.820364
 30
0.0
 10
151.118824
 20
241.628492
 30
0.0
 10
155.967552
 20
255.366564
 30
0.0
 10
148.694456
 20
273.145252
 30
0.0
 10
147.886336
 20
299.813276
 30
0.0
 10
159.200040
 20
328.097548
 30
0.0
 10
155.159432
 20
360.422428
 30
0.0
 10
145.461968
 20
372.544260
 30
0.0
 10
160.816288
 20
379.009236
 30
0.0
 10
177.786848
 20
380.625476
 30
0.0
 10
186.676192
 20
383.857964
 30
0.0
 10
215.768584
 20
372.544260
 30
0.0
 10
228.698536
 20
382.241724
 30
0.0
 10
217.384824
 20
404.869140
 30
0.0
 10
205.263000
 20
411.334116
 30
0.0
 10
152.735064
 20
416.990972
 30
0.0
 10
111.520840
 20
435.577780
 30
0.0
 10
90.509672
 20
436.385900
 30
0.0
 10
46.871078
 20
422.647828
 30
0.0
 10
21.819295
 20
434.769652
 30
0.0
 10
15.354318
 20
447.699612
 30
0.0
 10
6.464976
 20
448.507732
 30
0.0
 10
1.616244
 20
446.083364
 30
0.0
 10
-6.464976
 20
421.031580
 30
0.0
 10
-0.808122
 20
404.869140
 30
0.0
 10
-5.656854
 20
387.090452
 30
0.0
 10
-37.173614
 20
365.271164
 30
0.0
 10
-65.457885
 20
337.795012
 30
0.0
 10
-67.882251
 20
311.126988
 30
0.0
 10
-58.184786
 20
212.536092
 30
0.0
 10
-57.376665
 20
198.798020
 30
0.0
 10
-48.487322
 20
185.868068
 30
0.0
 10
-0.808122
 20
170.513748
 30
0.0
  0
ENDSEC
  0
SECTION
  2
OBJECTS
  0
DICTIONARY
  5
C
330
0
100
AcDbDictionary
  3
ACAD_GROUP
350
D
  3
ACAD_MLINESTYLE
350
17
  0
DICTIONARY
  5
D
330
C
100
AcDbDictionary
  0
DICTIONARY
  5
1A
330
C
100
AcDbDictionary
  0
DICTIONARY
  5
17
330
C
100
AcDbDictionary
  3
STANDARD
350
18
  0
DICTIONARY
  5
19
330
C
100
AcDbDictionary
  0
ENDSEC
  0
EOF
