  0
SECTION
  2
HEADER
  9
$ACADVER
  1
AC1014
  9
$HANDSEED
  5
FFFF
  9
$MEASUREMENT
 70
     1
  0
ENDSEC
  0
SECTION
  2
TABLES
  0
TABLE
  2
VPORT
  5
8
330
0
100
AcDbSymbolTable
 70
     4
  0
VPORT
  5
2E
330
8
100
AcDbSymbolTableRecord
100
AcDbViewportTableRecord
  2
*ACTIVE
 70
     0
 10
0.0
 20
0.0
 11
1.0
 21
1.0
 12
210.0
 22
148.5
 13
0.0
 23
0.0
 14
10.0
 24
10.0
 15
10.0
 25
10.0
 16
0.0
 26
0.0
 36
1.0
 17
0.0
 27
0.0
 37
0.0
 40
341.0
 41
1.24
 42
50.0
 43
0.0
 44
0.0
 50
0.0
 51
0.0
 71
     0
 72
   100
 73
     1
 74
     3
 75
     0
 76
     0
 77
     0
 78
     0
  0
ENDTAB
  0
TABLE
  2
LTYPE
  5
5
330
0
100
AcDbSymbolTable
 70
     1
  0
LTYPE
  5
14
330
5
100
AcDbSymbolTableRecord
100
AcDbLinetypeTableRecord
  2
BYBLOCK
 70
     0
  3

 72
    65
 73
     0
 40
0.0
  0
LTYPE
  5
15
330
5
100
AcDbSymbolTableRecord
100
AcDbLinetypeTableRecord
  2
BYLAYER
 70
     0
  3

 72
    65
 73
     0
 40
0.0
  0
LTYPE
  5
16
330
5
100
AcDbSymbolTableRecord
100
AcDbLinetypeTableRecord
  2
CONTINUOUS
 70
     0
  3
Solid line
 72
    65
 73
     0
 40
0.0
  0
ENDTAB
  0
TABLE
  2
LAYER
  5
2
100
AcDbSymbolTable
 70
2
  0
LAYER
  5
50
100
AcDbSymbolTableRecord
100
AcDbLayerTableRecord
  2
0
 70
0
  6
CONTINUOUS
  0
LAYER
  5
51
100
AcDbSymbolTableRecord
100
AcDbLayerTableRecord
  2
Layer_1
 70
0
  6
CONTINUOUS
  0
ENDTAB
  0
TABLE
  2
STYLE
  5
3
330
0
100
AcDbSymbolTable
 70
     1
  0
STYLE
  5
11
330
3
100
AcDbSymbolTableRecord
100
AcDbTextStyleTableRecord
  2
STANDARD
 70
     0
 40
0.0
 41
1.0
 50
0.0
 71
     0
 42
2.5
  3
txt
  4

  0
ENDTAB
  0
TABLE
  2
VIEW
  5
6
330
0
100
AcDbSymbolTable
 70
     0
  0
ENDTAB
  0
TABLE
  2
UCS
  5
7
330
0
100
AcDbSymbolTable
 70
     0
  0
ENDTAB
  0
TABLE
  2
APPID
  5
9
330
0
100
AcDbSymbolTable
 70
     2
  0
APPID
  5
12
330
9
100
AcDbSymbolTableRecord
100
AcDbRegAppTableRecord
  2
ACAD
 70
     0
  0
ENDTAB
  0
TABLE
  2
DIMSTYLE
  5
A
330
0
100
AcDbSymbolTable
 70
     1
  0
DIMSTYLE
105
27
330
A
100
AcDbSymbolTableRecord
100
AcDbDimStyleTableRecord
  2
ISO-25
 70
     0
  3

  4

  5

  6

  7

 40
1.0
 41
2.5
 42
0.625
 43
3.75
 44
1.25
 45
0.0
 46
0.0
 47
0.0
 48
0.0
140
2.5
141
2.5
142
0.0
143
0.03937007874016
144
1.0
145
0.0
146
1.0
147
0.625
 71
     0
 72
     0
 73
     0
 74
     0
 75
     0
 76
     0
 77
     1
 78
     8
170
     0
171
     3
172
     1
173
     0
174
     0
175
     0
176
     0
177
     0
178
     0
270
     2
271
     2
272
     2
273
     2
274
     3
340
11
275
     0
280
     0
281
     0
282
     0
283
     0
284
     8
285
     0
286
     0
287
     3
288
     0
  0
ENDTAB
  0
TABLE
  2
BLOCK_RECORD
  5
1
330
0
100
AcDbSymbolTable
 70
     1
  0
BLOCK_RECORD
  5
1F
330
1
100
AcDbSymbolTableRecord
100
AcDbBlockTableRecord
  2
*MODEL_SPACE
  0
BLOCK_RECORD
  5
1B
330
1
100
AcDbSymbolTableRecord
100
AcDbBlockTableRecord
  2
*PAPER_SPACE
  0
ENDTAB
  0
ENDSEC
  0
SECTION
  2
BLOCKS
  0
BLOCK
  5
20
330
1F
100
AcDbEntity
  8
0
100
AcDbBlockBegin
  2
*MODEL_SPACE
 70
     0
 10
0.0
 20
0.0
 30
0.0
  3
*MODEL_SPACE
  1

  0
ENDBLK
  5
21
330
1F
100
AcDbEntity
  8
0
100
AcDbBlockEnd
  0
BLOCK
  5
1C
330
1B
100
AcDbEntity
 67
     1
  8
0
100
AcDbBlockBegin
  2
*PAPER_SPACE
  1

  0
ENDBLK
  5
1D
330
1B
100
AcDbEntity
 67
     1
  8
0
100
AcDbBlockEnd
  0
ENDSEC
  0
SECTION
  2
ENTITIES
  0
LWPOLYLINE
  5
100
100
AcDbEntity
  8
Layer_1
 62
7
100
AcDbPolyline
 90
83
 70
1
 10
149.098512
 20
534.572724
 30
0.0
 10
211.323912
 20
532.350396
 30
0.0
 10
240.214272
 20
536.795060
 30
0.0
 10
255.366560
 20
546.896588
 30
0.0
 10
269.710728
 20
564.877308
 30
0.0
 10
289.711752
 20
560.230604
 30
0.0
 10
303.651856
 20
551.947348
 30
0.0
 10
302.035608
 20
547.502684
 30
0.0
 10
295.166576
 20
545.684404
 30
0.0
 10
289.509720
 20
540.633644
 30
0.0
 10
289.307688
 20
530.936180
 30
0.0
 10
277.791952
 20
518.612316
 30
0.0
 10
274.155400
 20
511.743284
 30
0.0
 10
262.841696
 20
510.733124
 30
0.0
 10
261.427480
 20
483.863068
 30
0.0
 10
255.366560
 20
478.206212
 30
0.0
 10
255.164536
 20
474.569668
 30
0.0
 10
258.801080
 20
469.114844
 30
0.0
 10
258.397024
 20
460.831588
 30
0.0
 10
263.649816
 20
459.417380
 30
0.0
 10
266.680272
 20
462.245804
 30
0.0
 10
272.943216
 20
454.568644
 30
0.0
 10
274.155400
 20
445.073212
 30
0.0
 10
272.337128
 20
431.133108
 30
0.0
 10
277.993984
 20
429.112804
 30
0.0
 10
275.165552
 20
422.445796
 30
0.0
 10
268.296520
 20
427.900620
 30
0.0
 10
260.619360
 20
428.506708
 30
0.0
 10
256.578744
 20
425.476252
 30
0.0
 10
256.174688
 20
426.890468
 30
0.0
 10
260.619360
 20
430.122956
 30
0.0
 10
254.558440
 20
434.971684
 30
0.0
 10
254.356408
 20
437.194020
 30
0.0
 10
251.932048
 20
439.618388
 30
0.0
 10
248.295496
 20
437.396052
 30
0.0
 10
241.022400
 20
437.598084
 30
0.0
 10
239.810216
 20
439.416356
 30
0.0
 10
235.567576
 20
433.961532
 30
0.0
 10
240.416304
 20
425.476252
 30
0.0
 10
235.971632
 20
424.668132
 30
0.0
 10
232.537120
 20
416.788940
 30
0.0
 10
217.384824
 20
415.980820
 30
0.0
 10
216.172648
 20
411.940212
 30
0.0
 10
206.273152
 20
412.546300
 30
0.0
 10
208.495488
 20
415.576756
 30
0.0
 10
201.626448
 20
422.445796
 30
0.0
 10
202.636600
 20
426.486404
 30
0.0
 10
199.808176
 20
428.910772
 30
0.0
 10
198.393960
 20
427.900620
 30
0.0
 10
191.726952
 20
432.143260
 30
0.0
 10
196.171624
 20
439.820420
 30
0.0
 10
198.595992
 20
443.052908
 30
0.0
 10
198.798024
 20
445.881332
 30
0.0
 10
197.181776
 20
446.083364
 30
0.0
 10
190.918832
 20
441.436660
 30
0.0
 10
188.494464
 20
441.032604
 30
0.0
 10
186.878224
 20
444.871180
 30
0.0
 10
182.433552
 20
448.709764
 30
0.0
 10
179.403096
 20
447.295548
 30
0.0
 10
177.584816
 20
449.113820
 30
0.0
 10
174.150296
 20
446.083364
 30
0.0
 10
176.170608
 20
441.638692
 30
0.0
 10
166.271112
 20
442.446812
 30
0.0
 10
160.816288
 20
454.972708
 30
0.0
 10
157.583800
 20
456.588948
 30
0.0
 10
152.735064
 20
451.740220
 30
0.0
 10
150.108672
 20
451.740220
 30
0.0
 10
149.502576
 20
453.962556
 30
0.0
 10
139.401048
 20
454.568644
 30
0.0
 10
136.572624
 20
451.942252
 30
0.0
 10
132.936072
 20
452.346308
 30
0.0
 10
133.138104
 20
461.033620
 30
0.0
 10
127.683280
 20
461.841748
 30
0.0
 10
124.652824
 20
472.549364
 30
0.0
 10
123.036584
 20
472.549364
 30
0.0
 10
120.612216
 20
478.004188
 30
0.0
 10
132.329984
 20
488.509772
 30
0.0
 10
136.168560
 20
488.509772
 30
0.0
 10
137.178712
 20
495.580836
 30
0.0
 10
141.017296
 20
498.813324
 30
0.0
 10
140.613232
 20
511.541252
 30
0.0
 10
146.674152
 20
511.945308
 30
0.0
 10
149.098512
 20
534.572724
 30
0.0
  0
LWPOLYLINE
  5
101
100
AcDbEntity
  8
Layer_1
 62
7
100
AcDbPolyline
 90
53
 70
1
 10
120.309168
 20
478.408244
 30
0.0
 10
123.238608
 20
472.347332
 30
0.0
 10
124.753840
 20
472.347332
 30
0.0
 10
128.087344
 20
461.437684
 30
0.0
 10
133.239120
 20
460.831596
 30
0.0
 10
132.936072
 20
452.346308
 30
0.0
 10
136.673640
 20
451.841236
 30
0.0
 10
139.704096
 20
454.467628
 30
0.0
 10
149.603592
 20
453.962556
 30
0.0
 10
150.209680
 20
451.740220
 30
0.0
 10
151.724912
 20
451.740220
 30
0.0
 10
147.785320
 20
446.891484
 30
0.0
 10
147.785320
 20
442.244788
 30
0.0
 10
151.219840
 20
438.406204
 30
0.0
 10
154.149280
 20
439.012300
 30
0.0
 10
154.048264
 20
433.759500
 30
0.0
 10
151.320848
 20
431.840212
 30
0.0
 10
151.724912
 20
415.879804
 30
0.0
 10
155.664504
 20
412.041228
 30
0.0
 10
153.442168
 20
401.939700
 30
0.0
 10
153.341160
 20
395.474724
 30
0.0
 10
144.754856
 20
392.545276
 30
0.0
 10
137.279728
 20
393.454420
 30
0.0
 10
131.723896
 20
390.524972
 30
0.0
 10
131.218816
 20
384.161012
 30
0.0
 10
128.289376
 20
381.332588
 30
0.0
 10
128.794448
 20
366.988420
 30
0.0
 10
126.976176
 20
362.644764
 30
0.0
 10
129.299528
 20
358.705172
 30
0.0
 10
128.188360
 20
357.391972
 30
0.0
 10
125.561960
 20
356.179788
 30
0.0
 10
107.581248
 20
355.472684
 30
0.0
 10
107.177184
 20
360.422428
 30
0.0
 10
110.005616
 20
364.665068
 30
0.0
 10
110.106624
 20
370.321924
 30
0.0
 10
108.187336
 20
370.018876
 30
0.0
 10
110.914752
 20
384.666092
 30
0.0
 10
120.612216
 20
398.505180
 30
0.0
 10
118.490896
 20
401.333604
 30
0.0
 10
118.490896
 20
405.172188
 30
0.0
 10
125.561960
 20
405.475236
 30
0.0
 10
119.400032
 20
414.566604
 30
0.0
 10
125.157904
 20
420.324476
 30
0.0
 10
119.501048
 20
426.688436
 30
0.0
 10
110.106624
 20
433.153412
 30
0.0
 10
110.308656
 20
440.628540
 30
0.0
 10
105.459928
 20
450.932100
 30
0.0
 10
107.076168
 20
473.761548
 30
0.0
 10
110.409672
 20
479.216372
 30
0.0
 10
113.036072
 20
476.792004
 30
0.0
 10
114.652312
 20
477.196060
 30
0.0
 10
115.561448
 20
478.307228
 30
0.0
 10
120.309168
 20
478.408244
 30
0.0
  0
LWPOLYLINE
  5
102
100
AcDbEntity
  8
Layer_1
 62
7
100
AcDbPolyline
 90
88
 70
1
 10
255.164536
 20
370.422940
 30
0.0
 10
255.669608
 20
374.867612
 30
0.0
 10
257.285856
 20
376.281820
 30
0.0
 10
257.386872
 20
378.807204
 30
0.0
 10
249.204632
 20
386.484364
 30
0.0
 10
257.891944
 20
394.666604
 30
0.0
 10
259.710216
 20
400.020412
 30
0.0
 10
264.963016
 20
399.515332
 30
0.0
 10
269.912760
 20
412.647316
 30
0.0
 10
265.165040
 20
419.516356
 30
0.0
 10
265.165040
 20
422.344780
 30
0.0
 10
260.619360
 20
423.455948
 30
0.0
 10
259.205144
 20
421.738692
 30
0.0
 10
258.599056
 20
421.738692
 30
0.0
 10
255.669608
 20
426.991484
 30
0.0
 10
260.316312
 20
430.324988
 30
0.0
 10
254.760472
 20
434.769660
 30
0.0
 10
254.356408
 20
436.991996
 30
0.0
 10
251.932048
 20
439.517372
 30
0.0
 10
248.497528
 20
437.295036
 30
0.0
 10
241.224432
 20
437.497068
 30
0.0
 10
240.012248
 20
439.517372
 30
0.0
 10
235.466560
 20
434.062548
 30
0.0
 10
240.517320
 20
425.678284
 30
0.0
 10
236.274680
 20
424.466100
 30
0.0
 10
232.537120
 20
416.586908
 30
0.0
 10
217.182800
 20
416.081836
 30
0.0
 10
216.475688
 20
412.344268
 30
0.0
 10
206.273152
 20
412.647316
 30
0.0
 10
208.394472
 20
415.980820
 30
0.0
 10
202.030512
 20
422.243764
 30
0.0
 10
202.333552
 20
426.587420
 30
0.0
 10
200.010208
 20
429.011788
 30
0.0
 10
197.888880
 20
427.799604
 30
0.0
 10
191.625936
 20
432.042244
 30
0.0
 10
198.595992
 20
443.254940
 30
0.0
 10
198.595992
 20
445.780316
 30
0.0
 10
196.575688
 20
445.881332
 30
0.0
 10
191.019848
 20
441.537676
 30
0.0
 10
188.393448
 20
441.234636
 30
0.0
 10
186.676192
 20
445.376260
 30
0.0
 10
182.433552
 20
448.709764
 30
0.0
 10
179.302080
 20
447.295548
 30
0.0
 10
177.584816
 20
448.810780
 30
0.0
 10
174.352328
 20
446.083364
 30
0.0
 10
176.170608
 20
441.739708
 30
0.0
 10
166.372128
 20
442.850876
 30
0.0
 10
160.513240
 20
455.477780
 30
0.0
 10
157.381768
 20
456.689964
 30
0.0
 10
147.684304
 20
446.992500
 30
0.0
 10
147.785320
 20
442.042756
 30
0.0
 10
150.916792
 20
439.113316
 30
0.0
 10
154.553336
 20
439.113316
 30
0.0
 10
154.048264
 20
433.961532
 30
0.0
 10
151.522880
 20
431.941228
 30
0.0
 10
151.724912
 20
416.081836
 30
0.0
 10
155.866536
 20
412.142236
 30
0.0
 10
153.442168
 20
402.141732
 30
0.0
 10
153.644200
 20
395.979796
 30
0.0
 10
145.158920
 20
392.646292
 30
0.0
 10
137.077704
 20
393.757460
 30
0.0
 10
131.723896
 20
390.625988
 30
0.0
 10
131.622880
 20
384.464060
 30
0.0
 10
128.289376
 20
381.736644
 30
0.0
 10
128.996480
 20
367.291468
 30
0.0
 10
126.875160
 20
363.149844
 30
0.0
 10
128.996480
 20
359.917356
 30
0.0
 10
154.048264
 20
360.624460
 30
0.0
 10
156.977704
 20
359.311260
 30
0.0
 10
156.068568
 20
343.653900
 30
0.0
 10
157.684816
 20
343.249836
 30
0.0
 10
161.220344
 20
346.078260
 30
0.0
 10
161.220344
 20
353.856436
 30
0.0
 10
165.968064
 20
362.139692
 30
0.0
 10
174.352328
 20
359.412276
 30
0.0
 10
178.493952
 20
362.442732
 30
0.0
 10
185.565024
 20
362.846796
 30
0.0
 10
197.282792
 20
368.806692
 30
0.0
 10
211.020864
 20
359.109228
 30
0.0
 10
222.738640
 20
369.816844
 30
0.0
 10
226.577216
 20
368.200604
 30
0.0
 10
230.718840
 20
372.241212
 30
0.0
 10
232.032040
 20
365.574204
 30
0.0
 10
237.486864
 20
364.968116
 30
0.0
 10
241.729504
 20
368.806692
 30
0.0
 10
244.456920
 20
367.998572
 30
0.0
 10
247.790416
 20
370.220908
 30
0.0
 10
255.164536
 20
370.422940
 30
0.0
  0
LWPOLYLINE
  5
103
100
AcDbEntity
  8
Layer_1
 62
7
100
AcDbPolyline
 90
46
 70
1
 10
255.164536
 20
370.523956
 30
0.0
 10
256.578744
 20
369.109740
 30
0.0
 10
260.720376
 20
368.604668
 30
0.0
 10
265.468088
 20
349.613796
 30
0.0
 10
259.811232
 20
349.310748
 30
0.0
 10
257.891944
 20
346.684356
 30
0.0
 10
253.043216
 20
346.381308
 30
0.0
 10
252.639152
 20
347.997556
 30
0.0
 10
247.891432
 20
347.997556
 30
0.0
 10
227.890416
 20
340.219380
 30
0.0
 10
228.193464
 20
337.491964
 30
0.0
 10
230.718840
 20
337.289932
 30
0.0
 10
231.021888
 20
333.855420
 30
0.0
 10
234.658440
 20
329.915820
 30
0.0
 10
231.830008
 20
322.541708
 30
0.0
 10
229.607672
 20
312.541196
 30
0.0
 10
224.051832
 20
302.742716
 30
0.0
 10
218.698024
 20
297.287892
 30
0.0
 10
215.768584
 20
287.994492
 30
0.0
 10
209.404624
 20
287.994492
 30
0.0
 10
195.969592
 20
282.943732
 30
0.0
 10
186.272128
 20
291.530028
 30
0.0
 10
184.150808
 20
298.702108
 30
0.0
 10
185.969080
 20
306.177236
 30
0.0
 10
184.150808
 20
309.005668
 30
0.0
 10
178.999032
 20
309.005668
 30
0.0
 10
177.584816
 20
307.187388
 30
0.0
 10
176.069592
 20
308.096524
 30
0.0
 10
176.675680
 20
313.450332
 30
0.0
 10
180.615272
 20
319.511252
 30
0.0
 10
178.797000
 20
336.784860
 30
0.0
 10
177.786848
 20
346.078260
 30
0.0
 10
173.847256
 20
359.614308
 30
0.0
 10
178.493952
 20
362.745780
 30
0.0
 10
186.171112
 20
363.452884
 30
0.0
 10
197.383808
 20
369.008724
 30
0.0
 10
211.424928
 20
359.311260
 30
0.0
 10
223.344728
 20
369.917860
 30
0.0
 10
226.274168
 20
368.604668
 30
0.0
 10
230.718840
 20
372.342228
 30
0.0
 10
232.436104
 20
366.180300
 30
0.0
 10
237.890928
 20
365.271164
 30
0.0
 10
242.032552
 20
369.109740
 30
0.0
 10
245.063008
 20
368.099588
 30
0.0
 10
247.790416
 20
370.422940
 30
0.0
 10
255.164536
 20
370.523956
 30
0.0
  0
SPLINE
  5
104
100
AcDbEntity
  8
Layer_1
 62
7
100
AcDbSpline
 70
8
 71
3
 72
8
 73
4
 74
0
 40
0
 40
0
 40
0
 40
0
 40
1
 40
1
 40
1
 40
1
 10
135.360440
 20
331.734100
 30
0.0
 10
135.360440
 20
331.734100
 30
0.0
 10
135.259424
 20
334.966588
 30
0.0
 10
134.855368
 20
334.966588
 30
0.0
  0
SPLINE
  5
105
100
AcDbEntity
  8
Layer_1
 62
7
100
AcDbSpline
 70
8
 71
3
 72
8
 73
4
 74
0
 40
0
 40
0
 40
0
 40
0
 40
1
 40
1
 40
1
 40
1
 10
134.855368
 20
334.966588
 30
0.0
 10
134.451304
 20
334.966588
 30
0.0
 10
129.602568
 20
336.380796
 30
0.0
 10
129.602568
 20
336.380796
 30
0.0
  0
LWPOLYLINE
  5
106
100
AcDbEntity
  8
Layer_1
 62
7
100
AcDbPolyline
 90
14
 70
1
 10
196.373656
 20
282.741700
 30
0.0
 10
193.242184
 20
282.236620
 30
0.0
 10
171.826952
 20
267.791444
 30
0.0
 10
151.825928
 20
259.407172
 30
0.0
 10
147.179224
 20
256.578748
 30
0.0
 10
144.047752
 20
256.679764
 30
0.0
 10
143.441664
 20
271.529004
 30
0.0
 10
139.805112
 20
275.064540
 30
0.0
 10
142.027448
 20
288.297540
 30
0.0
 10
141.118312
 20
311.935108
 30
0.0
 10
139.906128
 20
319.410236
 30
0.0
 10
136.774656
 20
319.006172
 30
0.0
 10
132.532016
 20
328.501612
 30
0.0
 10
135.360440
 20
331.734100
 30
0.0
  0
LWPOLYLINE
  5
107
100
AcDbEntity
  8
Layer_1
 62
7
100
AcDbPolyline
 90
24
 70
1
 10
129.602568
 20
336.380796
 30
0.0
 10
125.359928
 20
344.259988
 30
0.0
 10
127.885312
 20
344.664052
 30
0.0
 10
132.127952
 20
340.017348
 30
0.0
 10
142.128464
 20
339.714300
 30
0.0
 10
148.391408
 20
339.714300
 30
0.0
 10
154.250296
 20
340.623436
 30
0.0
 10
155.664504
 20
343.754908
 30
0.0
 10
157.886840
 20
343.451868
 30
0.0
 10
161.220344
 20
346.886388
 30
0.0
 10
161.725424
 20
354.563548
 30
0.0
 10
165.968064
 20
362.038676
 30
0.0
 10
173.443192
 20
359.917356
 30
0.0
 10
178.291928
 20
345.472172
 30
0.0
 10
180.918320
 20
319.410236
 30
0.0
 10
177.079744
 20
313.955412
 30
0.0
 10
176.170608
 20
308.298556
 30
0.0
 10
177.281768
 20
307.086372
 30
0.0
 10
179.605120
 20
309.409724
 30
0.0
 10
183.948776
 20
309.308708
 30
0.0
 10
186.171112
 20
306.480284
 30
0.0
 10
184.655888
 20
299.106172
 30
0.0
 10
186.272128
 20
291.125964
 30
0.0
 10
196.373656
 20
282.741700
 30
0.0
  0
LWPOLYLINE
  5
108
100
AcDbEntity
  8
Layer_1
 62
7
100
AcDbPolyline
 90
54
 70
1
 10
107.379216
 20
355.371668
 30
0.0
 10
101.823376
 20
351.230044
 30
0.0
 10
96.166520
 20
352.947300
 30
0.0
 10
85.963984
 20
365.271164
 30
0.0
 10
67.680221
 20
368.705676
 30
0.0
 10
52.931994
 20
368.705676
 30
0.0
 10
49.497475
 20
367.695524
 30
0.0
 10
46.366002
 20
371.332076
 30
0.0
 10
43.133514
 20
372.140196
 30
0.0
 10
37.779706
 20
368.604668
 30
0.0
 10
34.951278
 20
375.170660
 30
0.0
 10
41.315239
 20
381.534620
 30
0.0
 10
41.820315
 20
388.706700
 30
0.0
 10
46.568033
 20
394.161524
 30
0.0
 10
49.396459
 20
401.737668
 30
0.0
 10
59.295954
 20
398.707212
 30
0.0
 10
63.841641
 20
401.030564
 30
0.0
 10
63.336565
 20
403.858988
 30
0.0
 10
66.063977
 20
405.778276
 30
0.0
 10
63.336565
 20
408.101628
 30
0.0
 10
64.346718
 20
413.253404
 30
0.0
 10
61.821336
 20
413.556452
 30
0.0
 10
62.831489
 20
415.374724
 30
0.0
 10
72.629968
 20
419.920412
 30
0.0
 10
82.125400
 20
429.617876
 30
0.0
 10
87.277184
 20
442.042756
 30
0.0
 10
85.054848
 20
453.659508
 30
0.0
 10
87.075152
 20
465.983372
 30
0.0
 10
88.792408
 20
466.387428
 30
0.0
 10
92.024896
 20
474.064588
 30
0.0
 10
88.792408
 20
479.721444
 30
0.0
 10
88.388344
 20
486.590484
 30
0.0
 10
89.095456
 20
487.499620
 30
0.0
 10
92.024896
 20
482.852916
 30
0.0
 10
96.267536
 20
480.529564
 30
0.0
 10
96.570584
 20
477.398092
 30
0.0
 10
101.419312
 20
476.084892
 30
0.0
 10
107.379216
 20
473.660532
 30
0.0
 10
105.661960
 20
451.235140
 30
0.0
 10
110.510688
 20
440.729556
 30
0.0
 10
110.207640
 20
433.557476
 30
0.0
 10
119.703080
 20
427.092500
 30
0.0
 10
125.258912
 20
420.526508
 30
0.0
 10
119.703080
 20
414.667620
 30
0.0
 10
125.966024
 20
405.172188
 30
0.0
 10
118.692928
 20
405.273204
 30
0.0
 10
118.187848
 20
401.737668
 30
0.0
 10
120.713232
 20
398.707212
 30
0.0
 10
111.217792
 20
384.868124
 30
0.0
 10
108.288352
 20
370.119892
 30
0.0
 10
110.510688
 20
370.119892
 30
0.0
 10
110.207640
 20
364.564052
 30
0.0
 10
107.480232
 20
360.624460
 30
0.0
 10
107.379216
 20
355.371668
 30
0.0
  0
LWPOLYLINE
  5
109
100
AcDbEntity
  8
Layer_1
 62
7
100
AcDbPolyline
 90
40
 70
1
 10
37.779706
 20
368.705676
 30
0.0
 10
28.890363
 20
364.867100
 30
0.0
 10
13.839090
 20
364.362020
 30
0.0
 10
7.576144
 20
365.675220
 30
0.0
 10
4.646702
 20
369.816844
 30
0.0
 10
6.161931
 20
372.140196
 30
0.0
 10
6.768022
 20
377.595020
 30
0.0
 10
3.232488
 20
381.231572
 30
0.0
 10
8.889342
 20
384.363044
 30
0.0
 10
13.030968
 20
376.786900
 30
0.0
 10
11.818785
 20
374.463548
 30
0.0
 10
14.142136
 20
374.362532
 30
0.0
 10
15.253303
 20
379.918372
 30
0.0
 10
11.818785
 20
385.373196
 30
0.0
 10
14.950258
 20
388.302636
 30
0.0
 10
11.818785
 20
390.019900
 30
0.0
 10
9.596449
 20
401.939700
 30
0.0
 10
11.212694
 20
404.061020
 30
0.0
 10
11.717770
 20
411.334116
 30
0.0
 10
22.627417
 20
419.415340
 30
0.0
 10
26.668027
 20
419.920412
 30
0.0
 10
33.638080
 20
426.385388
 30
0.0
 10
36.567522
 20
422.445796
 30
0.0
 10
46.366002
 20
423.657980
 30
0.0
 10
55.154329
 20
417.395036
 30
0.0
 10
66.670068
 20
417.091988
 30
0.0
 10
62.629458
 20
415.172700
 30
0.0
 10
61.720321
 20
413.556452
 30
0.0
 10
64.346718
 20
412.950364
 30
0.0
 10
63.639610
 20
408.707724
 30
0.0
 10
66.367022
 20
405.778276
 30
0.0
 10
63.437580
 20
404.263052
 30
0.0
 10
63.639610
 20
401.333604
 30
0.0
 10
59.396970
 20
399.111268
 30
0.0
 10
49.396459
 20
401.434620
 30
0.0
 10
46.467017
 20
393.959492
 30
0.0
 10
42.022346
 20
389.009748
 30
0.0
 10
41.517270
 20
381.837660
 30
0.0
 10
34.951278
 20
375.372684
 30
0.0
 10
37.779706
 20
368.705676
 30
0.0
  0
LWPOLYLINE
  5
10a
100
AcDbEntity
  8
Layer_1
 62
7
100
AcDbPolyline
 90
24
 70
1
 10
-22.728432
 20
366.079284
 30
0.0
 10
-24.344676
 20
363.957964
 30
0.0
 10
-27.779195
 20
364.058980
 30
0.0
 10
-29.193409
 20
362.139692
 30
0.0
 10
-33.638080
 20
359.109228
 30
0.0
 10
-48.083262
 20
359.311260
 30
0.0
 10
-47.376154
 20
369.210756
 30
0.0
 10
-49.699506
 20
369.109740
 30
0.0
 10
-50.507627
 20
367.695524
 30
0.0
 10
-52.123871
 20
367.796540
 30
0.0
 10
-52.426917
 20
372.039180
 30
0.0
 10
-54.043162
 20
372.342228
 30
0.0
 10
-55.356359
 20
374.463548
 30
0.0
 10
-54.043162
 20
376.685884
 30
0.0
 10
-49.396459
 20
377.898068
 30
0.0
 10
-49.901536
 20
381.736644
 30
0.0
 10
-51.820826
 20
384.262028
 30
0.0
 10
-51.820826
 20
386.484364
 30
0.0
 10
-48.891383
 20
390.828020
 30
0.0
 10
-44.749758
 20
386.383348
 30
0.0
 10
-40.810163
 20
386.181316
 30
0.0
 10
-41.921330
 20
383.958980
 30
0.0
 10
-22.829447
 20
367.796540
 30
0.0
 10
-22.728432
 20
366.079284
 30
0.0
  0
LWPOLYLINE
  5
10b
100
AcDbEntity
  8
Layer_1
 62
7
100
AcDbPolyline
 90
22
 70
1
 10
-40.406102
 20
386.585380
 30
0.0
 10
-38.183766
 20
389.716852
 30
0.0
 10
-33.941126
 20
386.888428
 30
0.0
 10
-29.900515
 20
385.575228
 30
0.0
 10
-26.263966
 20
387.090460
 30
0.0
 10
-26.162951
 20
392.545276
 30
0.0
 10
-21.920310
 20
393.454420
 30
0.0
 10
-23.132494
 20
397.191980
 30
0.0
 10
-21.112188
 20
400.727516
 30
0.0
 10
-24.647722
 20
404.263052
 30
0.0
 10
-25.455844
 20
410.020916
 30
0.0
 10
-27.880210
 20
415.172700
 30
0.0
 10
-31.516759
 20
415.071684
 30
0.0
 10
-36.062446
 20
412.546300
 30
0.0
 10
-38.082751
 20
412.748332
 30
0.0
 10
-43.032498
 20
407.091476
 30
0.0
 10
-43.537574
 20
398.909244
 30
0.0
 10
-41.719300
 20
396.484876
 30
0.0
 10
-43.133514
 20
392.848324
 30
0.0
 10
-44.446712
 20
390.524972
 30
0.0
 10
-44.143666
 20
386.383348
 30
0.0
 10
-40.406102
 20
386.585380
 30
0.0
  0
LWPOLYLINE
  5
10c
100
AcDbEntity
  8
Layer_1
 62
7
100
AcDbPolyline
 90
86
 70
1
 10
-22.526402
 20
365.978268
 30
0.0
 10
-12.828938
 20
365.978268
 30
0.0
 10
-1.111168
 20
370.523956
 30
0.0
 10
5.050763
 20
370.523956
 30
0.0
 10
7.071068
 20
377.595020
 30
0.0
 10
3.232488
 20
381.332588
 30
0.0
 10
8.889342
 20
384.161012
 30
0.0
 10
12.929953
 20
377.392988
 30
0.0
 10
11.717770
 20
374.564564
 30
0.0
 10
14.344166
 20
374.362532
 30
0.0
 10
15.455334
 20
379.817356
 30
0.0
 10
12.626907
 20
385.171164
 30
0.0
 10
15.455334
 20
388.302636
 30
0.0
 10
12.222846
 20
389.918884
 30
0.0
 10
9.798480
 20
402.040716
 30
0.0
 10
11.616754
 20
404.667108
 30
0.0
 10
12.222846
 20
411.536148
 30
0.0
 10
22.526402
 20
419.314324
 30
0.0
 10
27.274118
 20
419.920412
 30
0.0
 10
33.941126
 20
426.385388
 30
0.0
 10
36.365492
 20
422.546812
 30
0.0
 10
46.163971
 20
423.657980
 30
0.0
 10
55.457375
 20
417.496044
 30
0.0
 10
67.882251
 20
417.294020
 30
0.0
 10
74.145197
 20
420.728540
 30
0.0
 10
82.125400
 20
429.516860
 30
0.0
 10
87.580224
 20
442.345804
 30
0.0
 10
85.054848
 20
453.760524
 30
0.0
 10
87.580224
 20
466.084388
 30
0.0
 10
89.095456
 20
466.387428
 30
0.0
 10
92.327944
 20
473.963572
 30
0.0
 10
88.994440
 20
479.721444
 30
0.0
 10
88.287336
 20
486.388452
 30
0.0
 10
85.155856
 20
486.388452
 30
0.0
 10
85.155856
 20
488.812820
 30
0.0
 10
83.640632
 20
488.913836
 30
0.0
 10
81.317280
 20
485.075252
 30
0.0
 10
75.458395
 20
484.469164
 30
0.0
 10
74.044182
 20
477.196060
 30
0.0
 10
78.993929
 20
476.084892
 30
0.0
 10
79.701036
 20
472.347332
 30
0.0
 10
75.155350
 20
468.811796
 30
0.0
 10
74.852304
 20
466.387428
 30
0.0
 10
73.943166
 20
465.377276
 30
0.0
 10
70.710678
 20
465.478292
 30
0.0
 10
67.680221
 20
460.326516
 30
0.0
 10
68.185297
 20
456.487940
 30
0.0
 10
49.295444
 20
456.588948
 30
0.0
 10
41.921330
 20
461.639716
 30
0.0
 10
42.123362
 20
471.741236
 30
0.0
 10
40.911178
 20
473.357484
 30
0.0
 10
38.385797
 20
471.539212
 30
0.0
 10
36.870568
 20
483.054948
 30
0.0
 10
35.658385
 20
484.772204
 30
0.0
 10
27.577165
 20
485.479316
 30
0.0
 10
25.253814
 20
488.105708
 30
0.0
 10
12.727922
 20
485.580332
 30
0.0
 10
12.222846
 20
487.802668
 30
0.0
 10
9.798480
 20
490.429060
 30
0.0
 10
8.283251
 20
490.429060
 30
0.0
 10
3.838580
 20
484.469164
 30
0.0
 10
3.838580
 20
479.216372
 30
0.0
 10
1.414214
 20
475.175756
 30
0.0
 10
5.959900
 20
471.135148
 30
0.0
 10
6.060915
 20
464.872204
 30
0.0
 10
-1.414214
 20
458.508244
 30
0.0
 10
-2.121320
 20
454.366612
 30
0.0
 10
-6.667007
 20
448.810780
 30
0.0
 10
-12.121830
 20
448.002652
 30
0.0
 10
-17.980715
 20
442.850876
 30
0.0
 10
-15.960410
 20
433.557476
 30
0.0
 10
-12.222846
 20
430.426004
 30
0.0
 10
-16.768532
 20
424.466100
 30
0.0
 10
-25.354829
 20
424.163052
 30
0.0
 10
-27.476150
 20
414.364572
 30
0.0
 10
-24.142646
 20
403.960004
 30
0.0
 10
-21.112188
 20
400.929548
 30
0.0
 10
-23.536554
 20
397.191980
 30
0.0
 10
-21.819295
 20
393.353404
 30
0.0
 10
-25.859906
 20
392.848324
 30
0.0
 10
-26.465997
 20
387.191468
 30
0.0
 10
-29.395439
 20
385.878276
 30
0.0
 10
-38.688842
 20
389.514820
 30
0.0
 10
-42.022346
 20
383.352892
 30
0.0
 10
-22.526402
 20
367.796540
 30
0.0
 10
-22.526402
 20
365.978268
 30
0.0
  0
LWPOLYLINE
  5
10d
100
AcDbEntity
  8
Layer_1
 62
7
100
AcDbPolyline
 90
31
 70
1
 10
139.857144
 20
275.142860
 30
0.0
 10
141.857144
 20
287.571428
 30
0.0
 10
141.571432
 20
308.857140
 30
0.0
 10
139.857144
 20
320.000004
 30
0.0
 10
136.428568
 20
319.285716
 30
0.0
 10
132.571432
 20
328.285716
 30
0.0
 10
135.142856
 20
331.571428
 30
0.0
 10
135.428568
 20
334.857140
 30
0.0
 10
129.857144
 20
336.571428
 30
0.0
 10
125.285712
 20
344.428572
 30
0.0
 10
127.428568
 20
345.428572
 30
0.0
 10
126.714288
 20
346.714284
 30
0.0
 10
123.000000
 20
346.714284
 30
0.0
 10
118.857144
 20
343.857140
 30
0.0
 10
109.571432
 20
346.571428
 30
0.0
 10
103.000000
 20
342.285716
 30
0.0
 10
88.714288
 20
340.714284
 30
0.0
 10
68.142858
 20
335.428572
 30
0.0
 10
66.857143
 20
328.285716
 30
0.0
 10
73.428571
 20
327.000004
 30
0.0
 10
74.428571
 20
313.714284
 30
0.0
 10
68.285714
 20
309.285716
 30
0.0
 10
70.857143
 20
302.571428
 30
0.0
 10
76.714286
 20
300.000004
 30
0.0
 10
74.428571
 20
292.714284
 30
0.0
 10
83.000000
 20
292.714284
 30
0.0
 10
96.428568
 20
287.142860
 30
0.0
 10
112.000000
 20
280.000004
 30
0.0
 10
129.000000
 20
280.285716
 30
0.0
 10
135.857144
 20
275.571428
 30
0.0
 10
139.857144
 20
275.142860
 30
0.0
  0
LWPOLYLINE
  5
10e
100
AcDbEntity
  8
Layer_1
 62
7
100
AcDbPolyline
 90
37
 70
1
 10
68.428571
 20
335.428572
 30
0.0
 10
67.142858
 20
328.285716
 30
0.0
 10
73.857143
 20
327.000004
 30
0.0
 10
74.857143
 20
313.428572
 30
0.0
 10
68.714286
 20
309.428572
 30
0.0
 10
71.000000
 20
303.142860
 30
0.0
 10
77.285714
 20
299.857140
 30
0.0
 10
74.571429
 20
292.571428
 30
0.0
 10
65.857143
 20
288.000004
 30
0.0
 10
66.142858
 20
283.428572
 30
0.0
 10
57.428571
 20
274.142860
 30
0.0
 10
42.857143
 20
262.285716
 30
0.0
 10
23.428571
 20
260.428572
 30
0.0
 10
21.571429
 20
255.000004
 30
0.0
 10
14.857143
 20
256.714284
 30
0.0
 10
9.428571
 20
253.285716
 30
0.0
 10
1.000000
 20
256.285716
 30
0.0
 10
0.857143
 20
263.428572
 30
0.0
 10
-2.000000
 20
268.714284
 30
0.0
 10
-1.714286
 20
271.857140
 30
0.0
 10
1.714286
 20
272.428572
 30
0.0
 10
3.285714
 20
280.714284
 30
0.0
 10
-1.142857
 20
287.571428
 30
0.0
 10
-1.285714
 20
297.857140
 30
0.0
 10
3.000000
 20
303.285716
 30
0.0
 10
2.857143
 20
307.857140
 30
0.0
 10
9.571429
 20
311.714284
 30
0.0
 10
16.428571
 20
312.142860
 30
0.0
 10
16.428571
 20
314.714284
 30
0.0
 10
13.857143
 20
317.428572
 30
0.0
 10
19.285714
 20
320.000004
 30
0.0
 10
22.857143
 20
326.714284
 30
0.0
 10
35.142858
 20
328.285716
 30
0.0
 10
44.142858
 20
330.714284
 30
0.0
 10
55.142858
 20
331.428572
 30
0.0
 10
60.285714
 20
334.285716
 30
0.0
 10
68.428571
 20
335.428572
 30
0.0
  0
ENDSEC
  0
SECTION
  2
OBJECTS
  0
DICTIONARY
  5
C
330
0
100
AcDbDictionary
  3
ACAD_GROUP
350
D
  3
ACAD_MLINESTYLE
350
17
  0
DICTIONARY
  5
D
330
C
100
AcDbDictionary
  0
DICTIONARY
  5
1A
330
C
100
AcDbDictionary
  0
DICTIONARY
  5
17
330
C
100
AcDbDictionary
  3
STANDARD
350
18
  0
DICTIONARY
  5
19
330
C
100
AcDbDictionary
  0
ENDSEC
  0
EOF
