  0
SECTION
  2
HEADER
  9
$ACADVER
  1
AC1014
  9
$HANDSEED
  5
FFFF
  9
$MEASUREMENT
 70
     1
  0
ENDSEC
  0
SECTION
  2
TABLES
  0
TABLE
  2
VPORT
  5
8
330
0
100
AcDbSymbolTable
 70
     4
  0
VPORT
  5
2E
330
8
100
AcDbSymbolTableRecord
100
AcDbViewportTableRecord
  2
*ACTIVE
 70
     0
 10
0.0
 20
0.0
 11
1.0
 21
1.0
 12
210.0
 22
148.5
 13
0.0
 23
0.0
 14
10.0
 24
10.0
 15
10.0
 25
10.0
 16
0.0
 26
0.0
 36
1.0
 17
0.0
 27
0.0
 37
0.0
 40
341.0
 41
1.24
 42
50.0
 43
0.0
 44
0.0
 50
0.0
 51
0.0
 71
     0
 72
   100
 73
     1
 74
     3
 75
     0
 76
     0
 77
     0
 78
     0
  0
ENDTAB
  0
TABLE
  2
LTYPE
  5
5
330
0
100
AcDbSymbolTable
 70
     1
  0
LTYPE
  5
14
330
5
100
AcDbSymbolTableRecord
100
AcDbLinetypeTableRecord
  2
BYBLOCK
 70
     0
  3

 72
    65
 73
     0
 40
0.0
  0
LTYPE
  5
15
330
5
100
AcDbSymbolTableRecord
100
AcDbLinetypeTableRecord
  2
BYLAYER
 70
     0
  3

 72
    65
 73
     0
 40
0.0
  0
LTYPE
  5
16
330
5
100
AcDbSymbolTableRecord
100
AcDbLinetypeTableRecord
  2
CONTINUOUS
 70
     0
  3
Solid line
 72
    65
 73
     0
 40
0.0
  0
ENDTAB
  0
TABLE
  2
LAYER
  5
2
100
AcDbSymbolTable
 70
2
  0
LAYER
  5
50
100
AcDbSymbolTableRecord
100
AcDbLayerTableRecord
  2
0
 70
0
  6
CONTINUOUS
  0
LAYER
  5
51
100
AcDbSymbolTableRecord
100
AcDbLayerTableRecord
  2
Layer_1
 70
0
  6
CONTINUOUS
  0
ENDTAB
  0
TABLE
  2
STYLE
  5
3
330
0
100
AcDbSymbolTable
 70
     1
  0
STYLE
  5
11
330
3
100
AcDbSymbolTableRecord
100
AcDbTextStyleTableRecord
  2
STANDARD
 70
     0
 40
0.0
 41
1.0
 50
0.0
 71
     0
 42
2.5
  3
txt
  4

  0
ENDTAB
  0
TABLE
  2
VIEW
  5
6
330
0
100
AcDbSymbolTable
 70
     0
  0
ENDTAB
  0
TABLE
  2
UCS
  5
7
330
0
100
AcDbSymbolTable
 70
     0
  0
ENDTAB
  0
TABLE
  2
APPID
  5
9
330
0
100
AcDbSymbolTable
 70
     2
  0
APPID
  5
12
330
9
100
AcDbSymbolTableRecord
100
AcDbRegAppTableRecord
  2
ACAD
 70
     0
  0
ENDTAB
  0
TABLE
  2
DIMSTYLE
  5
A
330
0
100
AcDbSymbolTable
 70
     1
  0
DIMSTYLE
105
27
330
A
100
AcDbSymbolTableRecord
100
AcDbDimStyleTableRecord
  2
ISO-25
 70
     0
  3

  4

  5

  6

  7

 40
1.0
 41
2.5
 42
0.625
 43
3.75
 44
1.25
 45
0.0
 46
0.0
 47
0.0
 48
0.0
140
2.5
141
2.5
142
0.0
143
0.03937007874016
144
1.0
145
0.0
146
1.0
147
0.625
 71
     0
 72
     0
 73
     0
 74
     0
 75
     0
 76
     0
 77
     1
 78
     8
170
     0
171
     3
172
     1
173
     0
174
     0
175
     0
176
     0
177
     0
178
     0
270
     2
271
     2
272
     2
273
     2
274
     3
340
11
275
     0
280
     0
281
     0
282
     0
283
     0
284
     8
285
     0
286
     0
287
     3
288
     0
  0
ENDTAB
  0
TABLE
  2
BLOCK_RECORD
  5
1
330
0
100
AcDbSymbolTable
 70
     1
  0
BLOCK_RECORD
  5
1F
330
1
100
AcDbSymbolTableRecord
100
AcDbBlockTableRecord
  2
*MODEL_SPACE
  0
BLOCK_RECORD
  5
1B
330
1
100
AcDbSymbolTableRecord
100
AcDbBlockTableRecord
  2
*PAPER_SPACE
  0
ENDTAB
  0
ENDSEC
  0
SECTION
  2
BLOCKS
  0
BLOCK
  5
20
330
1F
100
AcDbEntity
  8
0
100
AcDbBlockBegin
  2
*MODEL_SPACE
 70
     0
 10
0.0
 20
0.0
 30
0.0
  3
*MODEL_SPACE
  1

  0
ENDBLK
  5
21
330
1F
100
AcDbEntity
  8
0
100
AcDbBlockEnd
  0
BLOCK
  5
1C
330
1B
100
AcDbEntity
 67
     1
  8
0
100
AcDbBlockBegin
  2
*PAPER_SPACE
  1

  0
ENDBLK
  5
1D
330
1B
100
AcDbEntity
 67
     1
  8
0
100
AcDbBlockEnd
  0
ENDSEC
  0
SECTION
  2
ENTITIES
  0
LWPOLYLINE
  5
100
100
AcDbEntity
  8
Layer_1
 62
7
100
AcDbPolyline
 90
25
 70
1
 10
105.142856
 20
673.714284
 30
0.0
 10
108.571432
 20
697.142860
 30
0.0
 10
128.571432
 20
747.428572
 30
0.0
 10
188.000000
 20
719.428572
 30
0.0
 10
182.285712
 20
698.857140
 30
0.0
 10
237.714288
 20
673.142860
 30
0.0
 10
225.142856
 20
612.571428
 30
0.0
 10
240.571432
 20
602.285716
 30
0.0
 10
260.000000
 20
580.000004
 30
0.0
 10
244.571432
 20
575.428572
 30
0.0
 10
226.857144
 20
574.285716
 30
0.0
 10
181.142856
 20
552.000004
 30
0.0
 10
168.571432
 20
556.000004
 30
0.0
 10
157.142856
 20
569.142860
 30
0.0
 10
146.857144
 20
589.714284
 30
0.0
 10
130.857144
 20
603.428572
 30
0.0
 10
143.428568
 20
616.571428
 30
0.0
 10
140.571432
 20
633.714284
 30
0.0
 10
144.571432
 20
648.571428
 30
0.0
 10
165.142856
 20
669.714284
 30
0.0
 10
169.714288
 20
684.000004
 30
0.0
 10
159.428568
 20
688.571428
 30
0.0
 10
134.285712
 20
668.000004
 30
0.0
 10
116.571432
 20
664.571428
 30
0.0
 10
105.142856
 20
673.714284
 30
0.0
  0
LWPOLYLINE
  5
101
100
AcDbEntity
  8
Layer_1
 62
7
100
AcDbPolyline
 90
27
 70
1
 10
130.857144
 20
604.000004
 30
0.0
 10
112.571432
 20
592.571428
 30
0.0
 10
115.428568
 20
563.428572
 30
0.0
 10
125.714288
 20
544.571428
 30
0.0
 10
117.142856
 20
542.285716
 30
0.0
 10
89.714288
 20
541.142860
 30
0.0
 10
96.571432
 20
505.714284
 30
0.0
 10
72.000000
 20
493.142860
 30
0.0
 10
64.000000
 20
465.142860
 30
0.0
 10
56.000000
 20
457.142860
 30
0.0
 10
52.571429
 20
441.142860
 30
0.0
 10
46.285714
 20
434.857140
 30
0.0
 10
53.714286
 20
430.285716
 30
0.0
 10
81.142856
 20
429.142860
 30
0.0
 10
118.857144
 20
432.000004
 30
0.0
 10
130.285712
 20
445.714284
 30
0.0
 10
146.285712
 20
446.857140
 30
0.0
 10
161.142856
 20
440.571428
 30
0.0
 10
161.714288
 20
464.000004
 30
0.0
 10
184.000000
 20
502.857140
 30
0.0
 10
192.000000
 20
525.714284
 30
0.0
 10
192.571432
 20
533.714284
 30
0.0
 10
180.000000
 20
552.571428
 30
0.0
 10
168.571432
 20
556.000004
 30
0.0
 10
155.428568
 20
570.285716
 30
0.0
 10
146.857144
 20
590.285716
 30
0.0
 10
130.857144
 20
604.000004
 30
0.0
  0
LWPOLYLINE
  5
102
100
AcDbEntity
  8
Layer_1
 62
7
100
AcDbPolyline
 90
23
 70
1
 10
261.142856
 20
580.571428
 30
0.0
 10
241.142856
 20
575.428572
 30
0.0
 10
226.857144
 20
574.857140
 30
0.0
 10
181.142856
 20
551.428572
 30
0.0
 10
193.142856
 20
533.714284
 30
0.0
 10
185.714288
 20
504.000004
 30
0.0
 10
161.714288
 20
465.142860
 30
0.0
 10
163.428568
 20
400.000004
 30
0.0
 10
170.285712
 20
389.714284
 30
0.0
 10
168.571432
 20
361.142860
 30
0.0
 10
181.714288
 20
348.571428
 30
0.0
 10
204.571432
 20
339.428572
 30
0.0
 10
207.428568
 20
329.714284
 30
0.0
 10
221.142856
 20
337.142860
 30
0.0
 10
229.714288
 20
353.142860
 30
0.0
 10
232.571432
 20
363.428572
 30
0.0
 10
246.857144
 20
387.428572
 30
0.0
 10
246.285712
 20
406.285716
 30
0.0
 10
272.571432
 20
501.714284
 30
0.0
 10
281.142856
 20
517.714284
 30
0.0
 10
272.000000
 20
538.857140
 30
0.0
 10
267.428568
 20
570.857140
 30
0.0
 10
261.142856
 20
580.571428
 30
0.0
  0
LWPOLYLINE
  5
103
100
AcDbEntity
  8
Layer_1
 62
7
100
AcDbPolyline
 90
29
 70
1
 10
45.142857
 20
435.428572
 30
0.0
 10
54.285714
 20
431.428572
 30
0.0
 10
118.285712
 20
432.000004
 30
0.0
 10
129.714288
 20
444.571428
 30
0.0
 10
148.000000
 20
447.428572
 30
0.0
 10
164.571432
 20
440.571428
 30
0.0
 10
164.571432
 20
400.571428
 30
0.0
 10
171.428568
 20
389.142860
 30
0.0
 10
169.142856
 20
360.000004
 30
0.0
 10
152.571432
 20
351.428572
 30
0.0
 10
77.714286
 20
342.285716
 30
0.0
 10
30.857143
 20
326.857140
 30
0.0
 10
35.428571
 20
317.142860
 30
0.0
 10
50.285714
 20
310.857140
 30
0.0
 10
41.142857
 20
298.285716
 30
0.0
 10
25.714286
 20
283.428572
 30
0.0
 10
-14.857143
 20
265.714284
 30
0.0
 10
-25.714286
 20
293.714284
 30
0.0
 10
-54.285714
 20
312.000004
 30
0.0
 10
-64.000000
 20
330.857140
 30
0.0
 10
-41.142857
 20
365.714284
 30
0.0
 10
-37.142857
 20
385.142860
 30
0.0
 10
-24.571429
 20
389.714284
 30
0.0
 10
-16.000000
 20
401.714284
 30
0.0
 10
-15.428571
 20
418.857140
 30
0.0
 10
-8.571429
 20
432.000004
 30
0.0
 10
-2.285714
 20
434.857140
 30
0.0
 10
37.142857
 20
429.142860
 30
0.0
 10
45.142857
 20
435.428572
 30
0.0
  0
LWPOLYLINE
  5
104
100
AcDbEntity
  8
Layer_1
 62
7
100
AcDbPolyline
 90
23
 70
1
 10
78.857143
 20
342.285716
 30
0.0
 10
31.428571
 20
328.571428
 30
0.0
 10
35.428571
 20
316.571428
 30
0.0
 10
50.285714
 20
311.428572
 30
0.0
 10
39.428571
 20
296.571428
 30
0.0
 10
26.285714
 20
282.857140
 30
0.0
 10
-16.571429
 20
265.714284
 30
0.0
 10
1.142857
 20
220.571428
 30
0.0
 10
17.142857
 20
205.714284
 30
0.0
 10
45.142857
 20
180.571428
 30
0.0
 10
57.714286
 20
173.142860
 30
0.0
 10
72.571429
 20
168.000004
 30
0.0
 10
82.857144
 20
187.428572
 30
0.0
 10
97.142856
 20
200.571428
 30
0.0
 10
115.428568
 20
210.857140
 30
0.0
 10
134.857144
 20
219.428572
 30
0.0
 10
121.714288
 20
232.000004
 30
0.0
 10
117.714288
 20
240.571428
 30
0.0
 10
124.571432
 20
281.714284
 30
0.0
 10
102.857144
 20
310.857140
 30
0.0
 10
97.142856
 20
320.571428
 30
0.0
 10
79.428571
 20
331.428572
 30
0.0
 10
78.857143
 20
342.285716
 30
0.0
  0
LWPOLYLINE
  5
105
100
AcDbEntity
  8
Layer_1
 62
7
100
AcDbPolyline
 90
26
 70
1
 10
73.142858
 20
169.142860
 30
0.0
 10
82.285712
 20
187.428572
 30
0.0
 10
98.285712
 20
201.142860
 30
0.0
 10
118.857144
 20
212.571428
 30
0.0
 10
133.714288
 20
220.000004
 30
0.0
 10
156.571432
 20
222.857140
 30
0.0
 10
178.857144
 20
224.571428
 30
0.0
 10
192.000000
 20
256.000004
 30
0.0
 10
205.142856
 20
278.285716
 30
0.0
 10
209.714288
 20
264.000004
 30
0.0
 10
213.714288
 20
256.000004
 30
0.0
 10
213.142856
 20
248.000004
 30
0.0
 10
205.714288
 20
233.142860
 30
0.0
 10
201.142856
 20
215.428572
 30
0.0
 10
220.571432
 20
191.428572
 30
0.0
 10
234.857144
 20
181.714284
 30
0.0
 10
234.285712
 20
166.285716
 30
0.0
 10
193.714288
 20
151.428572
 30
0.0
 10
182.285712
 20
151.428572
 30
0.0
 10
166.857144
 20
159.428572
 30
0.0
 10
158.857144
 20
168.000004
 30
0.0
 10
137.714288
 20
179.428572
 30
0.0
 10
121.714288
 20
181.142860
 30
0.0
 10
93.142856
 20
170.285716
 30
0.0
 10
79.428571
 20
168.000004
 30
0.0
 10
73.142858
 20
169.142860
 30
0.0
  0
LWPOLYLINE
  5
106
100
AcDbEntity
  8
Layer_1
 62
7
100
AcDbPolyline
 90
21
 70
1
 10
207.428568
 20
330.285716
 30
0.0
 10
220.571432
 20
336.571428
 30
0.0
 10
232.571432
 20
360.571428
 30
0.0
 10
246.285712
 20
386.857140
 30
0.0
 10
256.000000
 20
378.857140
 30
0.0
 10
287.428568
 20
372.000004
 30
0.0
 10
297.714288
 20
363.428572
 30
0.0
 10
299.428568
 20
290.285716
 30
0.0
 10
270.857144
 20
262.285716
 30
0.0
 10
245.142856
 20
254.857140
 30
0.0
 10
232.571432
 20
233.714284
 30
0.0
 10
236.000000
 20
193.142860
 30
0.0
 10
236.000000
 20
182.857140
 30
0.0
 10
224.571432
 20
189.142860
 30
0.0
 10
212.571432
 20
201.714284
 30
0.0
 10
201.142856
 20
215.428572
 30
0.0
 10
206.857144
 20
237.714284
 30
0.0
 10
213.714288
 20
248.571428
 30
0.0
 10
213.142856
 20
256.571428
 30
0.0
 10
206.285712
 20
276.000004
 30
0.0
 10
207.428568
 20
330.285716
 30
0.0
  0
LWPOLYLINE
  5
107
100
AcDbEntity
  8
Layer_1
 62
7
100
AcDbPolyline
 90
16
 70
1
 10
78.285714
 20
341.714284
 30
0.0
 10
116.571432
 20
346.857140
 30
0.0
 10
151.428568
 20
351.428572
 30
0.0
 10
168.571432
 20
360.571428
 30
0.0
 10
182.285712
 20
349.714284
 30
0.0
 10
206.285712
 20
338.857140
 30
0.0
 10
206.857144
 20
277.142860
 30
0.0
 10
190.857144
 20
250.857140
 30
0.0
 10
178.857144
 20
225.142860
 30
0.0
 10
133.142856
 20
218.857140
 30
0.0
 10
121.714288
 20
230.857140
 30
0.0
 10
118.285712
 20
240.000004
 30
0.0
 10
124.571432
 20
281.142860
 30
0.0
 10
97.714288
 20
321.714284
 30
0.0
 10
79.428571
 20
330.857140
 30
0.0
 10
78.285714
 20
341.714284
 30
0.0
  0
LWPOLYLINE
  5
108
100
AcDbEntity
  8
Layer_1
 62
7
100
AcDbPolyline
 90
17
 70
1
 10
179.428568
 20
224.571428
 30
0.0
 10
153.714288
 20
221.714284
 30
0.0
 10
134.857144
 20
219.428572
 30
0.0
 10
122.285712
 20
231.428572
 30
0.0
 10
116.571432
 20
241.142860
 30
0.0
 10
125.142856
 20
280.000004
 30
0.0
 10
102.285712
 20
309.142860
 30
0.0
 10
96.000000
 20
321.142860
 30
0.0
 10
80.000000
 20
330.285716
 30
0.0
 10
78.857143
 20
342.285716
 30
0.0
 10
154.285712
 20
353.142860
 30
0.0
 10
169.142856
 20
360.571428
 30
0.0
 10
185.714288
 20
347.428572
 30
0.0
 10
208.571432
 20
338.857140
 30
0.0
 10
208.000000
 20
278.285716
 30
0.0
 10
191.428568
 20
253.142860
 30
0.0
 10
179.428568
 20
224.571428
 30
0.0
  0
ENDSEC
  0
SECTION
  2
OBJECTS
  0
DICTIONARY
  5
C
330
0
100
AcDbDictionary
  3
ACAD_GROUP
350
D
  3
ACAD_MLINESTYLE
350
17
  0
DICTIONARY
  5
D
330
C
100
AcDbDictionary
  0
DICTIONARY
  5
1A
330
C
100
AcDbDictionary
  0
DICTIONARY
  5
17
330
C
100
AcDbDictionary
  3
STANDARD
350
18
  0
DICTIONARY
  5
19
330
C
100
AcDbDictionary
  0
ENDSEC
  0
EOF
