  0
SECTION
  2
HEADER
  9
$ACADVER
  1
AC1014
  9
$HANDSEED
  5
FFFF
  9
$MEASUREMENT
 70
     1
  0
ENDSEC
  0
SECTION
  2
TABLES
  0
TABLE
  2
VPORT
  5
8
330
0
100
AcDbSymbolTable
 70
     4
  0
VPORT
  5
2E
330
8
100
AcDbSymbolTableRecord
100
AcDbViewportTableRecord
  2
*ACTIVE
 70
     0
 10
0.0
 20
0.0
 11
1.0
 21
1.0
 12
210.0
 22
148.5
 13
0.0
 23
0.0
 14
10.0
 24
10.0
 15
10.0
 25
10.0
 16
0.0
 26
0.0
 36
1.0
 17
0.0
 27
0.0
 37
0.0
 40
341.0
 41
1.24
 42
50.0
 43
0.0
 44
0.0
 50
0.0
 51
0.0
 71
     0
 72
   100
 73
     1
 74
     3
 75
     0
 76
     0
 77
     0
 78
     0
  0
ENDTAB
  0
TABLE
  2
LTYPE
  5
5
330
0
100
AcDbSymbolTable
 70
     1
  0
LTYPE
  5
14
330
5
100
AcDbSymbolTableRecord
100
AcDbLinetypeTableRecord
  2
BYBLOCK
 70
     0
  3

 72
    65
 73
     0
 40
0.0
  0
LTYPE
  5
15
330
5
100
AcDbSymbolTableRecord
100
AcDbLinetypeTableRecord
  2
BYLAYER
 70
     0
  3

 72
    65
 73
     0
 40
0.0
  0
LTYPE
  5
16
330
5
100
AcDbSymbolTableRecord
100
AcDbLinetypeTableRecord
  2
CONTINUOUS
 70
     0
  3
Solid line
 72
    65
 73
     0
 40
0.0
  0
ENDTAB
  0
TABLE
  2
LAYER
  5
2
100
AcDbSymbolTable
 70
2
  0
LAYER
  5
50
100
AcDbSymbolTableRecord
100
AcDbLayerTableRecord
  2
0
 70
0
  6
CONTINUOUS
  0
LAYER
  5
51
100
AcDbSymbolTableRecord
100
AcDbLayerTableRecord
  2
Layer_1
 70
0
  6
CONTINUOUS
  0
ENDTAB
  0
TABLE
  2
STYLE
  5
3
330
0
100
AcDbSymbolTable
 70
     1
  0
STYLE
  5
11
330
3
100
AcDbSymbolTableRecord
100
AcDbTextStyleTableRecord
  2
STANDARD
 70
     0
 40
0.0
 41
1.0
 50
0.0
 71
     0
 42
2.5
  3
txt
  4

  0
ENDTAB
  0
TABLE
  2
VIEW
  5
6
330
0
100
AcDbSymbolTable
 70
     0
  0
ENDTAB
  0
TABLE
  2
UCS
  5
7
330
0
100
AcDbSymbolTable
 70
     0
  0
ENDTAB
  0
TABLE
  2
APPID
  5
9
330
0
100
AcDbSymbolTable
 70
     2
  0
APPID
  5
12
330
9
100
AcDbSymbolTableRecord
100
AcDbRegAppTableRecord
  2
ACAD
 70
     0
  0
ENDTAB
  0
TABLE
  2
DIMSTYLE
  5
A
330
0
100
AcDbSymbolTable
 70
     1
  0
DIMSTYLE
105
27
330
A
100
AcDbSymbolTableRecord
100
AcDbDimStyleTableRecord
  2
ISO-25
 70
     0
  3

  4

  5

  6

  7

 40
1.0
 41
2.5
 42
0.625
 43
3.75
 44
1.25
 45
0.0
 46
0.0
 47
0.0
 48
0.0
140
2.5
141
2.5
142
0.0
143
0.03937007874016
144
1.0
145
0.0
146
1.0
147
0.625
 71
     0
 72
     0
 73
     0
 74
     0
 75
     0
 76
     0
 77
     1
 78
     8
170
     0
171
     3
172
     1
173
     0
174
     0
175
     0
176
     0
177
     0
178
     0
270
     2
271
     2
272
     2
273
     2
274
     3
340
11
275
     0
280
     0
281
     0
282
     0
283
     0
284
     8
285
     0
286
     0
287
     3
288
     0
  0
ENDTAB
  0
TABLE
  2
BLOCK_RECORD
  5
1
330
0
100
AcDbSymbolTable
 70
     1
  0
BLOCK_RECORD
  5
1F
330
1
100
AcDbSymbolTableRecord
100
AcDbBlockTableRecord
  2
*MODEL_SPACE
  0
BLOCK_RECORD
  5
1B
330
1
100
AcDbSymbolTableRecord
100
AcDbBlockTableRecord
  2
*PAPER_SPACE
  0
ENDTAB
  0
ENDSEC
  0
SECTION
  2
BLOCKS
  0
BLOCK
  5
20
330
1F
100
AcDbEntity
  8
0
100
AcDbBlockBegin
  2
*MODEL_SPACE
 70
     0
 10
0.0
 20
0.0
 30
0.0
  3
*MODEL_SPACE
  1

  0
ENDBLK
  5
21
330
1F
100
AcDbEntity
  8
0
100
AcDbBlockEnd
  0
BLOCK
  5
1C
330
1B
100
AcDbEntity
 67
     1
  8
0
100
AcDbBlockBegin
  2
*PAPER_SPACE
  1

  0
ENDBLK
  5
1D
330
1B
100
AcDbEntity
 67
     1
  8
0
100
AcDbBlockEnd
  0
ENDSEC
  0
SECTION
  2
ENTITIES
  0
LWPOLYLINE
  5
100
100
AcDbEntity
  8
Layer_1
 62
7
100
AcDbPolyline
 90
25
 70
1
 10
-63.428571
 20
294.285716
 30
0.0
 10
-37.142857
 20
274.857140
 30
0.0
 10
22.285714
 20
253.714284
 30
0.0
 10
51.428571
 20
239.428572
 30
0.0
 10
66.857143
 20
236.000004
 30
0.0
 10
88.571432
 20
213.142860
 30
0.0
 10
130.285712
 20
241.142860
 30
0.0
 10
105.142856
 20
265.714284
 30
0.0
 10
109.142856
 20
289.142860
 30
0.0
 10
101.142856
 20
291.428572
 30
0.0
 10
89.714288
 20
299.428572
 30
0.0
 10
87.428568
 20
313.714284
 30
0.0
 10
94.285712
 20
334.285716
 30
0.0
 10
91.428568
 20
349.142860
 30
0.0
 10
66.285714
 20
350.857140
 30
0.0
 10
56.000000
 20
347.428572
 30
0.0
 10
45.714286
 20
333.142860
 30
0.0
 10
35.428571
 20
318.857140
 30
0.0
 10
26.285714
 20
317.142860
 30
0.0
 10
15.428571
 20
326.285716
 30
0.0
 10
2.285714
 20
338.285716
 30
0.0
 10
-25.142857
 20
355.428572
 30
0.0
 10
-27.428571
 20
345.714284
 30
0.0
 10
-38.857143
 20
338.857140
 30
0.0
 10
-63.428571
 20
294.285716
 30
0.0
  0
LWPOLYLINE
  5
101
100
AcDbEntity
  8
Layer_1
 62
7
100
AcDbPolyline
 90
27
 70
1
 10
-64.000000
 20
293.714284
 30
0.0
 10
-38.857143
 20
339.428572
 30
0.0
 10
-28.000000
 20
345.142860
 30
0.0
 10
-25.714286
 20
356.571428
 30
0.0
 10
-78.857143
 20
386.285716
 30
0.0
 10
-83.428568
 20
393.142860
 30
0.0
 10
-100.571432
 20
400.571428
 30
0.0
 10
-102.857144
 20
416.571428
 30
0.0
 10
-116.000000
 20
429.142860
 30
0.0
 10
-114.285712
 20
436.000004
 30
0.0
 10
-154.857144
 20
426.285716
 30
0.0
 10
-192.571432
 20
423.428572
 30
0.0
 10
-182.857144
 20
402.285716
 30
0.0
 10
-186.285712
 20
347.428572
 30
0.0
 10
-215.428568
 20
346.857140
 30
0.0
 10
-243.428568
 20
317.714284
 30
0.0
 10
-247.428568
 20
301.714284
 30
0.0
 10
-257.714288
 20
293.142860
 30
0.0
 10
-192.571432
 20
278.857140
 30
0.0
 10
-179.428568
 20
284.571428
 30
0.0
 10
-169.714288
 20
274.285716
 30
0.0
 10
-158.857144
 20
275.428572
 30
0.0
 10
-142.857144
 20
297.142860
 30
0.0
 10
-125.714288
 20
305.714284
 30
0.0
 10
-96.571432
 20
311.428572
 30
0.0
 10
-76.571429
 20
305.142860
 30
0.0
 10
-64.000000
 20
293.714284
 30
0.0
  0
LWPOLYLINE
  5
102
100
AcDbEntity
  8
Layer_1
 62
7
100
AcDbPolyline
 90
23
 70
1
 10
-258.285712
 20
293.714284
 30
0.0
 10
-245.714288
 20
302.857140
 30
0.0
 10
-245.142856
 20
314.285716
 30
0.0
 10
-216.000000
 20
348.000004
 30
0.0
 10
-185.714288
 20
347.428572
 30
0.0
 10
-182.285712
 20
403.428572
 30
0.0
 10
-191.428568
 20
415.428572
 30
0.0
 10
-193.714288
 20
425.714284
 30
0.0
 10
-194.857144
 20
446.285716
 30
0.0
 10
-202.857144
 20
464.000004
 30
0.0
 10
-201.142856
 20
474.857140
 30
0.0
 10
-205.142856
 20
483.428572
 30
0.0
 10
-252.571432
 20
482.857140
 30
0.0
 10
-302.857144
 20
484.571428
 30
0.0
 10
-326.285712
 20
477.142860
 30
0.0
 10
-338.857144
 20
461.142860
 30
0.0
 10
-311.428568
 20
456.000004
 30
0.0
 10
-297.714288
 20
435.428572
 30
0.0
 10
-285.714288
 20
357.142860
 30
0.0
 10
-285.714288
 20
306.857140
 30
0.0
 10
-279.428568
 20
298.857140
 30
0.0
 10
-256.571432
 20
293.714284
 30
0.0
 10
-258.285712
 20
293.714284
 30
0.0
  0
LWPOLYLINE
  5
103
100
AcDbEntity
  8
Layer_1
 62
7
100
AcDbPolyline
 90
13
 70
1
 10
-192.000000
 20
425.714284
 30
0.0
 10
-159.428568
 20
425.714284
 30
0.0
 10
-112.571432
 20
436.571428
 30
0.0
 10
-106.857144
 20
476.000004
 30
0.0
 10
-93.142856
 20
500.000004
 30
0.0
 10
-84.571432
 20
529.142860
 30
0.0
 10
-151.428568
 20
529.714284
 30
0.0
 10
-189.714288
 20
493.714284
 30
0.0
 10
-204.571432
 20
484.000004
 30
0.0
 10
-199.428568
 20
475.428572
 30
0.0
 10
-202.857144
 20
463.428572
 30
0.0
 10
-193.714288
 20
445.714284
 30
0.0
 10
-192.000000
 20
425.714284
 30
0.0
  0
LWPOLYLINE
  5
104
100
AcDbEntity
  8
Layer_1
 62
7
100
AcDbPolyline
 90
22
 70
1
 10
-152.000000
 20
530.285716
 30
0.0
 10
-149.142856
 20
539.428572
 30
0.0
 10
-162.285712
 20
558.857140
 30
0.0
 10
-168.000000
 20
565.714284
 30
0.0
 10
-173.714288
 20
579.428572
 30
0.0
 10
-165.142856
 20
585.714284
 30
0.0
 10
-128.000000
 20
585.714284
 30
0.0
 10
-120.000000
 20
590.857140
 30
0.0
 10
-116.000000
 20
608.571428
 30
0.0
 10
-59.428571
 20
637.142860
 30
0.0
 10
-30.857143
 20
638.857140
 30
0.0
 10
6.285714
 20
631.428572
 30
0.0
 10
32.000000
 20
641.142860
 30
0.0
 10
33.714286
 20
627.428572
 30
0.0
 10
45.142857
 20
590.857140
 30
0.0
 10
47.428571
 20
574.857140
 30
0.0
 10
42.857143
 20
548.571428
 30
0.0
 10
19.428571
 20
550.285716
 30
0.0
 10
-16.571429
 20
540.000004
 30
0.0
 10
-39.428571
 20
521.714284
 30
0.0
 10
-85.714288
 20
528.000004
 30
0.0
 10
-152.000000
 20
530.285716
 30
0.0
  0
LWPOLYLINE
  5
105
100
AcDbEntity
  8
Layer_1
 62
7
100
AcDbPolyline
 90
23
 70
1
 10
33.142857
 20
641.142860
 30
0.0
 10
50.857143
 20
633.142860
 30
0.0
 10
76.571429
 20
634.285716
 30
0.0
 10
104.571432
 20
643.428572
 30
0.0
 10
96.000000
 20
684.571428
 30
0.0
 10
129.142856
 20
698.285716
 30
0.0
 10
166.285712
 20
704.000004
 30
0.0
 10
193.714288
 20
710.857140
 30
0.0
 10
186.857144
 20
667.428572
 30
0.0
 10
194.857144
 20
655.428572
 30
0.0
 10
225.714288
 20
640.000004
 30
0.0
 10
255.428568
 20
614.285716
 30
0.0
 10
254.857144
 20
583.428572
 30
0.0
 10
248.000000
 20
572.000004
 30
0.0
 10
211.428568
 20
544.571428
 30
0.0
 10
169.142856
 20
490.857140
 30
0.0
 10
135.428568
 20
501.142860
 30
0.0
 10
119.428568
 20
502.285716
 30
0.0
 10
43.428571
 20
548.571428
 30
0.0
 10
48.571429
 20
577.142860
 30
0.0
 10
44.571429
 20
596.000004
 30
0.0
 10
33.714286
 20
629.714284
 30
0.0
 10
33.142857
 20
641.142860
 30
0.0
  0
LWPOLYLINE
  5
106
100
AcDbEntity
  8
Layer_1
 62
7
100
AcDbPolyline
 90
28
 70
1
 10
169.714288
 20
490.857140
 30
0.0
 10
154.285712
 20
460.571428
 30
0.0
 10
137.142856
 20
442.857140
 30
0.0
 10
102.857144
 20
426.285716
 30
0.0
 10
82.857144
 20
412.571428
 30
0.0
 10
75.428571
 20
403.428572
 30
0.0
 10
76.000000
 20
386.285716
 30
0.0
 10
92.571432
 20
348.571428
 30
0.0
 10
62.285714
 20
350.285716
 30
0.0
 10
51.428571
 20
342.285716
 30
0.0
 10
35.428571
 20
319.428572
 30
0.0
 10
26.285714
 20
317.714284
 30
0.0
 10
1.714286
 20
340.000004
 30
0.0
 10
-80.000000
 20
387.428572
 30
0.0
 10
-84.000000
 20
393.714284
 30
0.0
 10
-98.857144
 20
400.571428
 30
0.0
 10
-102.285712
 20
417.142860
 30
0.0
 10
-114.285712
 20
429.142860
 30
0.0
 10
-109.142856
 20
452.000004
 30
0.0
 10
-105.714288
 20
478.857140
 30
0.0
 10
-90.857144
 20
502.857140
 30
0.0
 10
-84.000000
 20
526.857140
 30
0.0
 10
-37.714286
 20
521.142860
 30
0.0
 10
-15.428571
 20
540.000004
 30
0.0
 10
22.285714
 20
550.285716
 30
0.0
 10
45.142857
 20
548.000004
 30
0.0
 10
119.428568
 20
502.857140
 30
0.0
 10
169.714288
 20
490.857140
 30
0.0
  0
ENDSEC
  0
SECTION
  2
OBJECTS
  0
DICTIONARY
  5
C
330
0
100
AcDbDictionary
  3
ACAD_GROUP
350
D
  3
ACAD_MLINESTYLE
350
17
  0
DICTIONARY
  5
D
330
C
100
AcDbDictionary
  0
DICTIONARY
  5
1A
330
C
100
AcDbDictionary
  0
DICTIONARY
  5
17
330
C
100
AcDbDictionary
  3
STANDARD
350
18
  0
DICTIONARY
  5
19
330
C
100
AcDbDictionary
  0
ENDSEC
  0
EOF
