  0
SECTION
  2
HEADER
  9
$ACADVER
  1
AC1014
  9
$HANDSEED
  5
FFFF
  9
$MEASUREMENT
 70
     1
  0
ENDSEC
  0
SECTION
  2
TABLES
  0
TABLE
  2
VPORT
  5
8
330
0
100
AcDbSymbolTable
 70
     4
  0
VPORT
  5
2E
330
8
100
AcDbSymbolTableRecord
100
AcDbViewportTableRecord
  2
*ACTIVE
 70
     0
 10
0.0
 20
0.0
 11
1.0
 21
1.0
 12
210.0
 22
148.5
 13
0.0
 23
0.0
 14
10.0
 24
10.0
 15
10.0
 25
10.0
 16
0.0
 26
0.0
 36
1.0
 17
0.0
 27
0.0
 37
0.0
 40
341.0
 41
1.24
 42
50.0
 43
0.0
 44
0.0
 50
0.0
 51
0.0
 71
     0
 72
   100
 73
     1
 74
     3
 75
     0
 76
     0
 77
     0
 78
     0
  0
ENDTAB
  0
TABLE
  2
LTYPE
  5
5
330
0
100
AcDbSymbolTable
 70
     1
  0
LTYPE
  5
14
330
5
100
AcDbSymbolTableRecord
100
AcDbLinetypeTableRecord
  2
BYBLOCK
 70
     0
  3

 72
    65
 73
     0
 40
0.0
  0
LTYPE
  5
15
330
5
100
AcDbSymbolTableRecord
100
AcDbLinetypeTableRecord
  2
BYLAYER
 70
     0
  3

 72
    65
 73
     0
 40
0.0
  0
LTYPE
  5
16
330
5
100
AcDbSymbolTableRecord
100
AcDbLinetypeTableRecord
  2
CONTINUOUS
 70
     0
  3
Solid line
 72
    65
 73
     0
 40
0.0
  0
ENDTAB
  0
TABLE
  2
LAYER
  5
2
100
AcDbSymbolTable
 70
2
  0
LAYER
  5
50
100
AcDbSymbolTableRecord
100
AcDbLayerTableRecord
  2
0
 70
0
  6
CONTINUOUS
  0
LAYER
  5
51
100
AcDbSymbolTableRecord
100
AcDbLayerTableRecord
  2
Layer_1
 70
0
  6
CONTINUOUS
  0
ENDTAB
  0
TABLE
  2
STYLE
  5
3
330
0
100
AcDbSymbolTable
 70
     1
  0
STYLE
  5
11
330
3
100
AcDbSymbolTableRecord
100
AcDbTextStyleTableRecord
  2
STANDARD
 70
     0
 40
0.0
 41
1.0
 50
0.0
 71
     0
 42
2.5
  3
txt
  4

  0
ENDTAB
  0
TABLE
  2
VIEW
  5
6
330
0
100
AcDbSymbolTable
 70
     0
  0
ENDTAB
  0
TABLE
  2
UCS
  5
7
330
0
100
AcDbSymbolTable
 70
     0
  0
ENDTAB
  0
TABLE
  2
APPID
  5
9
330
0
100
AcDbSymbolTable
 70
     2
  0
APPID
  5
12
330
9
100
AcDbSymbolTableRecord
100
AcDbRegAppTableRecord
  2
ACAD
 70
     0
  0
ENDTAB
  0
TABLE
  2
DIMSTYLE
  5
A
330
0
100
AcDbSymbolTable
 70
     1
  0
DIMSTYLE
105
27
330
A
100
AcDbSymbolTableRecord
100
AcDbDimStyleTableRecord
  2
ISO-25
 70
     0
  3

  4

  5

  6

  7

 40
1.0
 41
2.5
 42
0.625
 43
3.75
 44
1.25
 45
0.0
 46
0.0
 47
0.0
 48
0.0
140
2.5
141
2.5
142
0.0
143
0.03937007874016
144
1.0
145
0.0
146
1.0
147
0.625
 71
     0
 72
     0
 73
     0
 74
     0
 75
     0
 76
     0
 77
     1
 78
     8
170
     0
171
     3
172
     1
173
     0
174
     0
175
     0
176
     0
177
     0
178
     0
270
     2
271
     2
272
     2
273
     2
274
     3
340
11
275
     0
280
     0
281
     0
282
     0
283
     0
284
     8
285
     0
286
     0
287
     3
288
     0
  0
ENDTAB
  0
TABLE
  2
BLOCK_RECORD
  5
1
330
0
100
AcDbSymbolTable
 70
     1
  0
BLOCK_RECORD
  5
1F
330
1
100
AcDbSymbolTableRecord
100
AcDbBlockTableRecord
  2
*MODEL_SPACE
  0
BLOCK_RECORD
  5
1B
330
1
100
AcDbSymbolTableRecord
100
AcDbBlockTableRecord
  2
*PAPER_SPACE
  0
ENDTAB
  0
ENDSEC
  0
SECTION
  2
BLOCKS
  0
BLOCK
  5
20
330
1F
100
AcDbEntity
  8
0
100
AcDbBlockBegin
  2
*MODEL_SPACE
 70
     0
 10
0.0
 20
0.0
 30
0.0
  3
*MODEL_SPACE
  1

  0
ENDBLK
  5
21
330
1F
100
AcDbEntity
  8
0
100
AcDbBlockEnd
  0
BLOCK
  5
1C
330
1B
100
AcDbEntity
 67
     1
  8
0
100
AcDbBlockBegin
  2
*PAPER_SPACE
  1

  0
ENDBLK
  5
1D
330
1B
100
AcDbEntity
 67
     1
  8
0
100
AcDbBlockEnd
  0
ENDSEC
  0
SECTION
  2
ENTITIES
  0
LWPOLYLINE
  5
100
100
AcDbEntity
  8
Layer_1
 62
7
100
AcDbPolyline
 90
26
 70
1
 10
33.133003
 20
735.795116
 30
0.0
 10
71.518800
 20
739.835724
 30
0.0
 10
95.762464
 20
727.309836
 30
0.0
 10
102.631496
 20
712.763636
 30
0.0
 10
94.954336
 20
694.984948
 30
0.0
 10
105.055864
 20
663.872252
 30
0.0
 10
131.723888
 20
652.962604
 30
0.0
 10
139.805112
 20
653.366668
 30
0.0
 10
133.744200
 20
640.436716
 30
0.0
 10
113.945208
 20
633.163612
 30
0.0
 10
111.520840
 20
629.123004
 30
0.0
 10
111.116784
 20
618.617420
 30
0.0
 10
106.672112
 20
610.536196
 30
0.0
 10
103.035560
 20
575.382892
 30
0.0
 10
94.146216
 20
569.726036
 30
0.0
 10
85.256872
 20
552.755476
 30
0.0
 10
67.478190
 20
537.805212
 30
0.0
 10
52.931994
 20
555.583900
 30
0.0
 10
36.769553
 20
561.240756
 30
0.0
 10
33.941126
 20
593.161572
 30
0.0
 10
-2.020305
 20
631.547372
 30
0.0
 10
-18.182746
 20
653.366668
 30
0.0
 10
2.020305
 20
657.811340
 30
0.0
 10
19.798990
 20
673.973780
 30
0.0
 10
30.708638
 20
694.176828
 30
0.0
 10
33.133003
 20
735.795116
 30
0.0
  0
LWPOLYLINE
  5
101
100
AcDbEntity
  8
Layer_1
 62
7
100
AcDbPolyline
 90
18
 70
1
 10
-18.990868
 20
653.770724
 30
0.0
 10
-65.053824
 20
640.032652
 30
0.0
 10
-85.660936
 20
623.870212
 30
0.0
 10
-92.529976
 20
593.565636
 30
0.0
 10
-93.742160
 20
568.513852
 30
0.0
 10
-103.035560
 20
533.360548
 30
0.0
 10
-68.286312
 20
534.572724
 30
0.0
 10
-64.649763
 20
542.249884
 30
0.0
 10
-54.144177
 20
547.906740
 30
0.0
 10
-51.315750
 20
549.927044
 30
0.0
 10
-42.426407
 20
549.927044
 30
0.0
 10
-18.586807
 20
540.229580
 30
0.0
 10
-4.848732
 20
541.037700
 30
0.0
 10
3.232488
 20
551.543292
 30
0.0
 10
36.365492
 20
562.048876
 30
0.0
 10
33.133003
 20
594.373756
 30
0.0
 10
3.232488
 20
625.486460
 30
0.0
 10
-18.990868
 20
653.770724
 30
0.0
  0
LWPOLYLINE
  5
102
100
AcDbEntity
  8
Layer_1
 62
7
100
AcDbPolyline
 90
17
 70
1
 10
139.401048
 20
653.366668
 30
0.0
 10
164.452832
 20
625.890516
 30
0.0
 10
189.504616
 20
552.755476
 30
0.0
 10
186.272128
 20
514.369676
 30
0.0
 10
166.473136
 20
531.340236
 30
0.0
 10
166.473136
 20
549.522988
 30
0.0
 10
155.159432
 20
552.755476
 30
0.0
 10
150.714760
 20
579.423500
 30
0.0
 10
124.854856
 20
581.847868
 30
0.0
 10
116.369576
 20
580.635684
 30
0.0
 10
103.843680
 20
576.595076
 30
0.0
 10
107.076168
 20
610.536196
 30
0.0
 10
111.924904
 20
618.617420
 30
0.0
 10
112.733024
 20
628.718948
 30
0.0
 10
113.945208
 20
632.355492
 30
0.0
 10
134.956384
 20
640.436716
 30
0.0
 10
139.401048
 20
653.366668
 30
0.0
  0
LWPOLYLINE
  5
103
100
AcDbEntity
  8
Layer_1
 62
7
100
AcDbPolyline
 90
42
 70
1
 10
148.857144
 20
579.428572
 30
0.0
 10
124.571432
 20
581.714284
 30
0.0
 10
104.571432
 20
576.857140
 30
0.0
 10
93.714288
 20
570.000004
 30
0.0
 10
86.000000
 20
553.142860
 30
0.0
 10
68.000000
 20
537.428572
 30
0.0
 10
53.428571
 20
555.428572
 30
0.0
 10
36.000000
 20
561.714284
 30
0.0
 10
3.428571
 20
551.142860
 30
0.0
 10
-3.714286
 20
541.428572
 30
0.0
 10
-17.142857
 20
539.714284
 30
0.0
 10
-41.142858
 20
549.714284
 30
0.0
 10
-51.428571
 20
549.142860
 30
0.0
 10
-64.857143
 20
542.571428
 30
0.0
 10
-68.857143
 20
534.000004
 30
0.0
 10
-102.857144
 20
533.142860
 30
0.0
 10
-98.000000
 20
518.285716
 30
0.0
 10
-98.000000
 20
477.714284
 30
0.0
 10
-87.142856
 20
461.428572
 30
0.0
 10
-70.857143
 20
463.428572
 30
0.0
 10
-50.857143
 20
430.285716
 30
0.0
 10
-58.857143
 20
419.142860
 30
0.0
 10
-64.571429
 20
396.571428
 30
0.0
 10
-35.428571
 20
406.571428
 30
0.0
 10
-4.571429
 20
409.714284
 30
0.0
 10
19.142857
 20
404.285716
 30
0.0
 10
21.428571
 20
419.714284
 30
0.0
 10
16.285714
 20
430.571428
 30
0.0
 10
16.000000
 20
442.000004
 30
0.0
 10
37.142858
 20
469.714284
 30
0.0
 10
78.285714
 20
475.428572
 30
0.0
 10
109.428568
 20
497.142860
 30
0.0
 10
112.571432
 20
482.000004
 30
0.0
 10
126.571432
 20
472.285716
 30
0.0
 10
158.571432
 20
458.000004
 30
0.0
 10
179.714288
 20
496.571428
 30
0.0
 10
186.285712
 20
514.571428
 30
0.0
 10
166.285712
 20
530.571428
 30
0.0
 10
166.285712
 20
550.000004
 30
0.0
 10
155.142856
 20
552.285716
 30
0.0
 10
151.428568
 20
579.714284
 30
0.0
 10
148.857144
 20
579.428572
 30
0.0
  0
LWPOLYLINE
  5
104
100
AcDbEntity
  8
Layer_1
 62
7
100
AcDbPolyline
 90
25
 70
1
 10
-103.428568
 20
534.000004
 30
0.0
 10
-97.714288
 20
519.142860
 30
0.0
 10
-98.285712
 20
477.142860
 30
0.0
 10
-86.285712
 20
461.142860
 30
0.0
 10
-70.285714
 20
463.714284
 30
0.0
 10
-50.000000
 20
430.000004
 30
0.0
 10
-58.000000
 20
419.714284
 30
0.0
 10
-64.571429
 20
395.714284
 30
0.0
 10
-74.285714
 20
390.571428
 30
0.0
 10
-105.714288
 20
355.714284
 30
0.0
 10
-131.428568
 20
347.428572
 30
0.0
 10
-136.000000
 20
350.285716
 30
0.0
 10
-134.571432
 20
361.142860
 30
0.0
 10
-125.714288
 20
380.571428
 30
0.0
 10
-124.857144
 20
393.714284
 30
0.0
 10
-128.285712
 20
405.714284
 30
0.0
 10
-162.285712
 20
431.428572
 30
0.0
 10
-198.000000
 20
431.714284
 30
0.0
 10
-190.857144
 20
500.285716
 30
0.0
 10
-192.000000
 20
504.000004
 30
0.0
 10
-192.285712
 20
506.285716
 30
0.0
 10
-172.285712
 20
507.142860
 30
0.0
 10
-155.142856
 20
522.571428
 30
0.0
 10
-132.571432
 20
530.285716
 30
0.0
 10
-103.428568
 20
534.000004
 30
0.0
  0
LWPOLYLINE
  5
105
100
AcDbEntity
  8
Layer_1
 62
7
100
AcDbPolyline
 90
31
 70
1
 10
-197.714288
 20
431.428572
 30
0.0
 10
-161.714288
 20
431.428572
 30
0.0
 10
-127.428568
 20
406.000004
 30
0.0
 10
-124.000000
 20
392.857140
 30
0.0
 10
-126.000000
 20
378.285716
 30
0.0
 10
-134.000000
 20
360.857140
 30
0.0
 10
-136.285712
 20
350.571428
 30
0.0
 10
-131.142856
 20
346.571428
 30
0.0
 10
-105.714288
 20
356.000004
 30
0.0
 10
-106.000000
 20
351.714284
 30
0.0
 10
-109.142856
 20
339.428572
 30
0.0
 10
-108.571432
 20
320.857140
 30
0.0
 10
-93.714288
 20
283.714284
 30
0.0
 10
-97.714288
 20
251.428572
 30
0.0
 10
-124.571432
 20
223.428572
 30
0.0
 10
-125.142856
 20
210.285716
 30
0.0
 10
-144.571432
 20
205.142860
 30
0.0
 10
-158.857144
 20
204.000004
 30
0.0
 10
-168.571432
 20
205.714284
 30
0.0
 10
-185.714288
 20
214.000004
 30
0.0
 10
-192.000000
 20
220.000004
 30
0.0
 10
-213.428568
 20
258.000004
 30
0.0
 10
-252.285712
 20
288.857140
 30
0.0
 10
-268.285712
 20
297.428572
 30
0.0
 10
-302.571432
 20
304.000004
 30
0.0
 10
-327.142856
 20
347.142860
 30
0.0
 10
-322.571432
 20
356.000004
 30
0.0
 10
-232.285712
 20
399.142860
 30
0.0
 10
-202.285712
 20
417.714284
 30
0.0
 10
-197.428568
 20
425.714284
 30
0.0
 10
-197.714288
 20
431.428572
 30
0.0
  0
LWPOLYLINE
  5
106
100
AcDbEntity
  8
Layer_1
 62
7
100
AcDbPolyline
 90
29
 70
1
 10
-124.285712
 20
210.571428
 30
0.0
 10
-24.285714
 20
240.285716
 30
0.0
 10
-3.428571
 20
240.571428
 30
0.0
 10
59.714286
 20
225.714284
 30
0.0
 10
57.428571
 20
239.428572
 30
0.0
 10
41.428571
 20
274.571428
 30
0.0
 10
45.142858
 20
286.285716
 30
0.0
 10
64.285714
 20
283.142860
 30
0.0
 10
73.142858
 20
294.857140
 30
0.0
 10
68.857143
 20
309.428572
 30
0.0
 10
86.285712
 20
316.285716
 30
0.0
 10
116.285712
 20
318.285716
 30
0.0
 10
107.428568
 20
331.142860
 30
0.0
 10
91.142856
 20
340.857140
 30
0.0
 10
72.000000
 20
360.571428
 30
0.0
 10
67.428571
 20
376.000004
 30
0.0
 10
54.000000
 20
387.714284
 30
0.0
 10
16.000000
 20
404.857140
 30
0.0
 10
-2.571429
 20
408.857140
 30
0.0
 10
-32.285714
 20
406.857140
 30
0.0
 10
-62.571429
 20
397.428572
 30
0.0
 10
-73.714286
 20
390.857140
 30
0.0
 10
-104.857144
 20
355.714284
 30
0.0
 10
-109.142856
 20
339.714284
 30
0.0
 10
-108.285712
 20
320.285716
 30
0.0
 10
-93.714288
 20
284.571428
 30
0.0
 10
-97.428568
 20
252.571428
 30
0.0
 10
-124.571432
 20
223.714284
 30
0.0
 10
-124.285712
 20
210.571428
 30
0.0
  0
LWPOLYLINE
  5
107
100
AcDbEntity
  8
Layer_1
 62
7
100
AcDbPolyline
 90
22
 70
1
 10
115.428568
 20
317.714284
 30
0.0
 10
145.142856
 20
322.285716
 30
0.0
 10
167.428568
 20
334.285716
 30
0.0
 10
143.428568
 20
392.857140
 30
0.0
 10
136.571432
 20
424.571428
 30
0.0
 10
140.285712
 20
446.285716
 30
0.0
 10
158.571432
 20
458.000004
 30
0.0
 10
125.428568
 20
472.857140
 30
0.0
 10
113.142856
 20
481.714284
 30
0.0
 10
109.714288
 20
497.142860
 30
0.0
 10
79.142858
 20
476.000004
 30
0.0
 10
38.000000
 20
470.000004
 30
0.0
 10
16.000000
 20
442.285716
 30
0.0
 10
16.285714
 20
429.714284
 30
0.0
 10
22.000000
 20
418.285716
 30
0.0
 10
19.714286
 20
404.000004
 30
0.0
 10
54.571429
 20
387.142860
 30
0.0
 10
67.142858
 20
376.285716
 30
0.0
 10
72.285714
 20
359.714284
 30
0.0
 10
91.142856
 20
340.857140
 30
0.0
 10
107.714288
 20
330.285716
 30
0.0
 10
115.428568
 20
317.714284
 30
0.0
  0
ENDSEC
  0
SECTION
  2
OBJECTS
  0
DICTIONARY
  5
C
330
0
100
AcDbDictionary
  3
ACAD_GROUP
350
D
  3
ACAD_MLINESTYLE
350
17
  0
DICTIONARY
  5
D
330
C
100
AcDbDictionary
  0
DICTIONARY
  5
1A
330
C
100
AcDbDictionary
  0
DICTIONARY
  5
17
330
C
100
AcDbDictionary
  3
STANDARD
350
18
  0
DICTIONARY
  5
19
330
C
100
AcDbDictionary
  0
ENDSEC
  0
EOF
