  0
SECTION
  2
HEADER
  9
$ACADVER
  1
AC1014
  9
$HANDSEED
  5
FFFF
  9
$MEASUREMENT
 70
     1
  0
ENDSEC
  0
SECTION
  2
TABLES
  0
TABLE
  2
VPORT
  5
8
330
0
100
AcDbSymbolTable
 70
     4
  0
VPORT
  5
2E
330
8
100
AcDbSymbolTableRecord
100
AcDbViewportTableRecord
  2
*ACTIVE
 70
     0
 10
0.0
 20
0.0
 11
1.0
 21
1.0
 12
210.0
 22
148.5
 13
0.0
 23
0.0
 14
10.0
 24
10.0
 15
10.0
 25
10.0
 16
0.0
 26
0.0
 36
1.0
 17
0.0
 27
0.0
 37
0.0
 40
341.0
 41
1.24
 42
50.0
 43
0.0
 44
0.0
 50
0.0
 51
0.0
 71
     0
 72
   100
 73
     1
 74
     3
 75
     0
 76
     0
 77
     0
 78
     0
  0
ENDTAB
  0
TABLE
  2
LTYPE
  5
5
330
0
100
AcDbSymbolTable
 70
     1
  0
LTYPE
  5
14
330
5
100
AcDbSymbolTableRecord
100
AcDbLinetypeTableRecord
  2
BYBLOCK
 70
     0
  3

 72
    65
 73
     0
 40
0.0
  0
LTYPE
  5
15
330
5
100
AcDbSymbolTableRecord
100
AcDbLinetypeTableRecord
  2
BYLAYER
 70
     0
  3

 72
    65
 73
     0
 40
0.0
  0
LTYPE
  5
16
330
5
100
AcDbSymbolTableRecord
100
AcDbLinetypeTableRecord
  2
CONTINUOUS
 70
     0
  3
Solid line
 72
    65
 73
     0
 40
0.0
  0
ENDTAB
  0
TABLE
  2
LAYER
  5
2
100
AcDbSymbolTable
 70
2
  0
LAYER
  5
50
100
AcDbSymbolTableRecord
100
AcDbLayerTableRecord
  2
0
 70
0
  6
CONTINUOUS
  0
LAYER
  5
51
100
AcDbSymbolTableRecord
100
AcDbLayerTableRecord
  2
Layer_1
 70
0
  6
CONTINUOUS
  0
ENDTAB
  0
TABLE
  2
STYLE
  5
3
330
0
100
AcDbSymbolTable
 70
     1
  0
STYLE
  5
11
330
3
100
AcDbSymbolTableRecord
100
AcDbTextStyleTableRecord
  2
STANDARD
 70
     0
 40
0.0
 41
1.0
 50
0.0
 71
     0
 42
2.5
  3
txt
  4

  0
ENDTAB
  0
TABLE
  2
VIEW
  5
6
330
0
100
AcDbSymbolTable
 70
     0
  0
ENDTAB
  0
TABLE
  2
UCS
  5
7
330
0
100
AcDbSymbolTable
 70
     0
  0
ENDTAB
  0
TABLE
  2
APPID
  5
9
330
0
100
AcDbSymbolTable
 70
     2
  0
APPID
  5
12
330
9
100
AcDbSymbolTableRecord
100
AcDbRegAppTableRecord
  2
ACAD
 70
     0
  0
ENDTAB
  0
TABLE
  2
DIMSTYLE
  5
A
330
0
100
AcDbSymbolTable
 70
     1
  0
DIMSTYLE
105
27
330
A
100
AcDbSymbolTableRecord
100
AcDbDimStyleTableRecord
  2
ISO-25
 70
     0
  3

  4

  5

  6

  7

 40
1.0
 41
2.5
 42
0.625
 43
3.75
 44
1.25
 45
0.0
 46
0.0
 47
0.0
 48
0.0
140
2.5
141
2.5
142
0.0
143
0.03937007874016
144
1.0
145
0.0
146
1.0
147
0.625
 71
     0
 72
     0
 73
     0
 74
     0
 75
     0
 76
     0
 77
     1
 78
     8
170
     0
171
     3
172
     1
173
     0
174
     0
175
     0
176
     0
177
     0
178
     0
270
     2
271
     2
272
     2
273
     2
274
     3
340
11
275
     0
280
     0
281
     0
282
     0
283
     0
284
     8
285
     0
286
     0
287
     3
288
     0
  0
ENDTAB
  0
TABLE
  2
BLOCK_RECORD
  5
1
330
0
100
AcDbSymbolTable
 70
     1
  0
BLOCK_RECORD
  5
1F
330
1
100
AcDbSymbolTableRecord
100
AcDbBlockTableRecord
  2
*MODEL_SPACE
  0
BLOCK_RECORD
  5
1B
330
1
100
AcDbSymbolTableRecord
100
AcDbBlockTableRecord
  2
*PAPER_SPACE
  0
ENDTAB
  0
ENDSEC
  0
SECTION
  2
BLOCKS
  0
BLOCK
  5
20
330
1F
100
AcDbEntity
  8
0
100
AcDbBlockBegin
  2
*MODEL_SPACE
 70
     0
 10
0.0
 20
0.0
 30
0.0
  3
*MODEL_SPACE
  1

  0
ENDBLK
  5
21
330
1F
100
AcDbEntity
  8
0
100
AcDbBlockEnd
  0
BLOCK
  5
1C
330
1B
100
AcDbEntity
 67
     1
  8
0
100
AcDbBlockBegin
  2
*PAPER_SPACE
  1

  0
ENDBLK
  5
1D
330
1B
100
AcDbEntity
 67
     1
  8
0
100
AcDbBlockEnd
  0
ENDSEC
  0
SECTION
  2
ENTITIES
  0
LWPOLYLINE
  5
100
100
AcDbEntity
  8
Layer_1
 62
7
100
AcDbPolyline
 90
18
 70
1
 10
54.952298
 20
442.042756
 30
0.0
 10
-21.819295
 20
419.415340
 30
0.0
 10
-88.085304
 20
411.334116
 30
0.0
 10
-154.351312
 20
345.876228
 30
0.0
 10
-148.694456
 20
325.673180
 30
0.0
 10
-160.008160
 20
273.145252
 30
0.0
 10
-145.461968
 20
275.569612
 30
0.0
 10
-120.410184
 20
273.953372
 30
0.0
 10
-16.162441
 20
231.931028
 30
0.0
 10
-1.616244
 20
258.599052
 30
0.0
 10
37.173614
 20
282.034588
 30
0.0
 10
67.882251
 20
286.883324
 30
0.0
 10
46.871078
 20
338.603132
 30
0.0
 10
54.144177
 20
370.928012
 30
0.0
 10
75.963471
 20
395.979796
 30
0.0
 10
83.236568
 20
429.920924
 30
0.0
 10
77.579715
 20
441.234636
 30
0.0
 10
54.952298
 20
442.042756
 30
0.0
  0
LWPOLYLINE
  5
101
100
AcDbEntity
  8
Layer_1
 62
7
100
AcDbPolyline
 90
17
 70
1
 10
-16.162441
 20
231.122900
 30
0.0
 10
-1.616244
 20
258.599052
 30
0.0
 10
37.981736
 20
283.650836
 30
0.0
 10
67.074129
 20
288.499564
 30
0.0
 10
106.672112
 20
279.610228
 30
0.0
 10
141.421360
 20
270.720884
 30
0.0
 10
166.473136
 20
254.558444
 30
0.0
 10
160.816288
 20
233.547268
 30
0.0
 10
164.856896
 20
221.425436
 30
0.0
 10
130.915768
 20
204.454876
 30
0.0
 10
85.660936
 20
204.454876
 30
0.0
 10
74.347227
 20
196.373652
 30
0.0
 10
83.236568
 20
178.594972
 30
0.0
 10
83.236568
 20
167.281260
 30
0.0
 10
70.306617
 20
155.967556
 30
0.0
 10
25.859905
 20
209.303604
 30
0.0
 10
-16.162441
 20
231.122900
 30
0.0
  0
LWPOLYLINE
  5
102
100
AcDbEntity
  8
Layer_1
 62
7
100
AcDbPolyline
 90
22
 70
1
 10
69.714286
 20
156.285716
 30
0.0
 10
82.857144
 20
168.000004
 30
0.0
 10
82.285712
 20
181.142860
 30
0.0
 10
73.428571
 20
196.571428
 30
0.0
 10
85.714288
 20
204.857140
 30
0.0
 10
132.000000
 20
205.142860
 30
0.0
 10
164.571432
 20
222.000004
 30
0.0
 10
179.428568
 20
207.428572
 30
0.0
 10
195.428568
 20
199.142860
 30
0.0
 10
208.000000
 20
191.428572
 30
0.0
 10
213.142856
 20
181.142860
 30
0.0
 10
215.714288
 20
169.714284
 30
0.0
 10
209.714288
 20
134.857140
 30
0.0
 10
201.428568
 20
118.571428
 30
0.0
 10
185.428568
 20
101.428572
 30
0.0
 10
180.000000
 20
90.000004
 30
0.0
 10
177.428568
 20
71.428572
 30
0.0
 10
134.000000
 20
76.571428
 30
0.0
 10
125.428568
 20
87.714284
 30
0.0
 10
118.285712
 20
110.285716
 30
0.0
 10
116.285712
 20
118.857140
 30
0.0
 10
69.714286
 20
156.285716
 30
0.0
  0
LWPOLYLINE
  5
103
100
AcDbEntity
  8
Layer_1
 62
7
100
AcDbPolyline
 90
21
 70
1
 10
193.714288
 20
201.142860
 30
0.0
 10
221.714288
 20
225.428572
 30
0.0
 10
236.857144
 20
234.857140
 30
0.0
 10
258.000000
 20
233.714284
 30
0.0
 10
267.142856
 20
229.142860
 30
0.0
 10
279.428568
 20
214.000004
 30
0.0
 10
281.142856
 20
203.142860
 30
0.0
 10
287.714288
 20
190.571428
 30
0.0
 10
298.571432
 20
182.571428
 30
0.0
 10
296.000000
 20
164.285716
 30
0.0
 10
289.142856
 20
148.571428
 30
0.0
 10
249.714288
 20
109.714284
 30
0.0
 10
227.142856
 20
93.142860
 30
0.0
 10
201.428568
 20
105.714284
 30
0.0
 10
186.857144
 20
102.857140
 30
0.0
 10
201.142856
 20
118.857140
 30
0.0
 10
209.142856
 20
134.285716
 30
0.0
 10
215.142856
 20
169.142860
 30
0.0
 10
213.714288
 20
178.857140
 30
0.0
 10
206.285712
 20
192.285716
 30
0.0
 10
193.714288
 20
201.142860
 30
0.0
  0
LWPOLYLINE
  5
104
100
AcDbEntity
  8
Layer_1
 62
7
100
AcDbPolyline
 90
26
 70
1
 10
164.571432
 20
255.428572
 30
0.0
 10
175.142856
 20
273.428572
 30
0.0
 10
174.857144
 20
287.142860
 30
0.0
 10
174.000000
 20
294.285716
 30
0.0
 10
168.571432
 20
300.285716
 30
0.0
 10
177.428568
 20
310.571428
 30
0.0
 10
199.714288
 20
312.000004
 30
0.0
 10
214.571432
 20
316.571428
 30
0.0
 10
240.857144
 20
334.571428
 30
0.0
 10
255.428568
 20
345.714284
 30
0.0
 10
286.571432
 20
348.285716
 30
0.0
 10
291.428568
 20
345.428572
 30
0.0
 10
296.571432
 20
335.714284
 30
0.0
 10
306.285712
 20
328.857140
 30
0.0
 10
321.142856
 20
315.714284
 30
0.0
 10
323.142856
 20
306.571428
 30
0.0
 10
314.285712
 20
273.714284
 30
0.0
 10
266.285712
 20
228.571428
 30
0.0
 10
257.714288
 20
233.142860
 30
0.0
 10
236.857144
 20
234.571428
 30
0.0
 10
224.571432
 20
226.857140
 30
0.0
 10
192.857144
 20
199.428572
 30
0.0
 10
179.142856
 20
206.857140
 30
0.0
 10
164.857144
 20
220.285716
 30
0.0
 10
160.285712
 20
233.142860
 30
0.0
 10
164.571432
 20
255.428572
 30
0.0
  0
LWPOLYLINE
  5
105
100
AcDbEntity
  8
Layer_1
 62
7
100
AcDbPolyline
 90
26
 70
1
 10
220.857144
 20
414.000004
 30
0.0
 10
263.142856
 20
431.142860
 30
0.0
 10
261.428568
 20
421.142860
 30
0.0
 10
257.714288
 20
411.142860
 30
0.0
 10
243.714288
 20
390.571428
 30
0.0
 10
234.857144
 20
372.857140
 30
0.0
 10
255.428568
 20
344.285716
 30
0.0
 10
215.714288
 20
316.571428
 30
0.0
 10
198.571432
 20
311.428572
 30
0.0
 10
177.714288
 20
310.000004
 30
0.0
 10
168.571432
 20
300.000004
 30
0.0
 10
174.857144
 20
295.714284
 30
0.0
 10
175.714288
 20
274.285716
 30
0.0
 10
165.142856
 20
254.571428
 30
0.0
 10
141.428568
 20
270.571428
 30
0.0
 10
104.857144
 20
279.428572
 30
0.0
 10
106.285712
 20
292.857140
 30
0.0
 10
128.571432
 20
325.142860
 30
0.0
 10
136.571432
 20
343.142860
 30
0.0
 10
138.000000
 20
357.714284
 30
0.0
 10
134.000000
 20
366.857140
 30
0.0
 10
134.285712
 20
384.285716
 30
0.0
 10
177.714288
 20
389.142860
 30
0.0
 10
210.285712
 20
394.857140
 30
0.0
 10
219.142856
 20
404.571428
 30
0.0
 10
220.857144
 20
414.000004
 30
0.0
  0
LWPOLYLINE
  5
106
100
AcDbEntity
  8
Layer_1
 62
7
100
AcDbPolyline
 90
19
 70
1
 10
220.285712
 20
413.428572
 30
0.0
 10
218.857144
 20
405.714284
 30
0.0
 10
210.285712
 20
394.571428
 30
0.0
 10
134.000000
 20
384.571428
 30
0.0
 10
143.428568
 20
406.000004
 30
0.0
 10
140.285712
 20
410.000004
 30
0.0
 10
124.000000
 20
409.142860
 30
0.0
 10
115.142856
 20
412.000004
 30
0.0
 10
92.857144
 20
430.857140
 30
0.0
 10
82.000000
 20
429.714284
 30
0.0
 10
77.428571
 20
441.142860
 30
0.0
 10
54.857143
 20
441.714284
 30
0.0
 10
70.000000
 20
481.428572
 30
0.0
 10
105.142856
 20
477.428572
 30
0.0
 10
164.857144
 20
442.000004
 30
0.0
 10
184.571432
 20
416.000004
 30
0.0
 10
191.428568
 20
410.000004
 30
0.0
 10
203.428568
 20
406.857140
 30
0.0
 10
220.285712
 20
413.428572
 30
0.0
  0
LWPOLYLINE
  5
107
100
AcDbEntity
  8
Layer_1
 62
7
100
AcDbPolyline
 90
18
 70
1
 10
105.428568
 20
280.000004
 30
0.0
 10
106.285712
 20
292.857140
 30
0.0
 10
128.857144
 20
323.714284
 30
0.0
 10
136.571432
 20
342.000004
 30
0.0
 10
138.857144
 20
356.857140
 30
0.0
 10
134.857144
 20
366.000004
 30
0.0
 10
135.428568
 20
384.857140
 30
0.0
 10
143.714288
 20
406.571428
 30
0.0
 10
140.285712
 20
410.285716
 30
0.0
 10
124.000000
 20
410.571428
 30
0.0
 10
115.142856
 20
412.857140
 30
0.0
 10
92.857144
 20
431.142860
 30
0.0
 10
81.714288
 20
430.000004
 30
0.0
 10
75.142858
 20
394.857140
 30
0.0
 10
54.571429
 20
372.000004
 30
0.0
 10
46.285714
 20
338.857140
 30
0.0
 10
66.571429
 20
288.571428
 30
0.0
 10
105.428568
 20
280.000004
 30
0.0
  0
LWPOLYLINE
  5
108
100
AcDbEntity
  8
Layer_1
 62
7
100
AcDbPolyline
 90
23
 70
1
 10
263.714288
 20
431.714284
 30
0.0
 10
378.000000
 20
486.857140
 30
0.0
 10
386.285712
 20
476.000004
 30
0.0
 10
387.714288
 20
461.142860
 30
0.0
 10
364.571432
 20
434.000004
 30
0.0
 10
359.714288
 20
425.714284
 30
0.0
 10
358.857144
 20
404.000004
 30
0.0
 10
368.000000
 20
391.142860
 30
0.0
 10
412.285712
 20
366.571428
 30
0.0
 10
397.142856
 20
351.428572
 30
0.0
 10
377.142856
 20
340.285716
 30
0.0
 10
360.857144
 20
333.428572
 30
0.0
 10
335.142856
 20
328.285716
 30
0.0
 10
306.571432
 20
328.571428
 30
0.0
 10
296.285712
 20
335.142860
 30
0.0
 10
292.000000
 20
344.857140
 30
0.0
 10
286.571432
 20
347.428572
 30
0.0
 10
254.571432
 20
345.142860
 30
0.0
 10
234.571432
 20
372.857140
 30
0.0
 10
243.428568
 20
390.285716
 30
0.0
 10
256.285712
 20
409.714284
 30
0.0
 10
260.285712
 20
420.000004
 30
0.0
 10
263.714288
 20
431.714284
 30
0.0
  0
LWPOLYLINE
  5
109
100
AcDbEntity
  8
Layer_1
 62
7
100
AcDbPolyline
 90
27
 70
1
 10
362.285712
 20
334.000004
 30
0.0
 10
380.000000
 20
343.142860
 30
0.0
 10
398.000000
 20
352.857140
 30
0.0
 10
411.714288
 20
366.571428
 30
0.0
 10
423.428576
 20
359.714284
 30
0.0
 10
458.857144
 20
354.571428
 30
0.0
 10
467.714288
 20
334.000004
 30
0.0
 10
465.714288
 20
296.000004
 30
0.0
 10
463.428576
 20
262.000004
 30
0.0
 10
479.142856
 20
194.571428
 30
0.0
 10
452.000000
 20
180.000004
 30
0.0
 10
443.428576
 20
181.428572
 30
0.0
 10
436.857144
 20
190.571428
 30
0.0
 10
432.571432
 20
202.571428
 30
0.0
 10
419.714288
 20
214.000004
 30
0.0
 10
416.857144
 20
225.428572
 30
0.0
 10
415.142856
 20
233.714284
 30
0.0
 10
416.571432
 20
244.571428
 30
0.0
 10
408.857144
 20
252.571428
 30
0.0
 10
396.571432
 20
254.571428
 30
0.0
 10
385.142856
 20
260.571428
 30
0.0
 10
373.142856
 20
267.714284
 30
0.0
 10
364.857144
 20
280.857140
 30
0.0
 10
362.285712
 20
298.571428
 30
0.0
 10
368.571432
 20
312.285716
 30
0.0
 10
368.571432
 20
323.714284
 30
0.0
 10
362.285712
 20
334.000004
 30
0.0
  0
LWPOLYLINE
  5
10a
100
AcDbEntity
  8
Layer_1
 62
7
100
AcDbPolyline
 90
21
 70
1
 10
343.142856
 20
45.428572
 30
0.0
 10
358.285712
 20
66.285716
 30
0.0
 10
376.000000
 20
77.142860
 30
0.0
 10
394.285712
 20
81.714284
 30
0.0
 10
399.428576
 20
85.142860
 30
0.0
 10
409.142856
 20
106.571428
 30
0.0
 10
411.142856
 20
117.714284
 30
0.0
 10
428.857144
 20
134.571428
 30
0.0
 10
450.571432
 20
146.571428
 30
0.0
 10
460.000000
 20
152.000004
 30
0.0
 10
463.142856
 20
157.428572
 30
0.0
 10
470.857144
 20
160.857140
 30
0.0
 10
488.000000
 20
156.571428
 30
0.0
 10
494.285712
 20
161.714284
 30
0.0
 10
502.000000
 20
147.714284
 30
0.0
 10
511.428576
 20
115.714284
 30
0.0
 10
490.000000
 20
70.857140
 30
0.0
 10
430.285712
 20
35.428564
 30
0.0
 10
407.428576
 20
36.000004
 30
0.0
 10
389.142856
 20
40.285684
 30
0.0
 10
343.142856
 20
45.428572
 30
0.0
  0
LWPOLYLINE
  5
10b
100
AcDbEntity
  8
Layer_1
 62
7
100
AcDbPolyline
 90
45
 70
1
 10
479.142856
 20
193.714284
 30
0.0
 10
494.285712
 20
162.000004
 30
0.0
 10
488.857144
 20
156.000004
 30
0.0
 10
470.857144
 20
160.857140
 30
0.0
 10
462.000000
 20
156.285716
 30
0.0
 10
460.285712
 20
151.714284
 30
0.0
 10
430.000000
 20
134.285716
 30
0.0
 10
411.428576
 20
117.428572
 30
0.0
 10
400.000000
 20
84.857140
 30
0.0
 10
394.285712
 20
80.857140
 30
0.0
 10
376.000000
 20
76.285716
 30
0.0
 10
359.142856
 20
66.285716
 30
0.0
 10
342.857144
 20
44.285716
 30
0.0
 10
330.285712
 20
40.285684
 30
0.0
 10
283.428568
 20
74.571428
 30
0.0
 10
227.142856
 20
92.857140
 30
0.0
 10
246.000000
 20
106.857140
 30
0.0
 10
288.285712
 20
149.142860
 30
0.0
 10
294.571432
 20
163.714284
 30
0.0
 10
298.000000
 20
182.285716
 30
0.0
 10
287.428568
 20
189.428572
 30
0.0
 10
280.857144
 20
200.571428
 30
0.0
 10
278.857144
 20
213.714284
 30
0.0
 10
266.285712
 20
228.571428
 30
0.0
 10
314.285712
 20
275.428572
 30
0.0
 10
322.000000
 20
306.857140
 30
0.0
 10
320.000000
 20
314.857140
 30
0.0
 10
305.714288
 20
328.571428
 30
0.0
 10
335.428568
 20
329.714284
 30
0.0
 10
362.571432
 20
335.142860
 30
0.0
 10
369.714288
 20
323.714284
 30
0.0
 10
370.000000
 20
313.142860
 30
0.0
 10
362.857144
 20
298.285716
 30
0.0
 10
365.714288
 20
282.000004
 30
0.0
 10
373.142856
 20
268.571428
 30
0.0
 10
398.285712
 20
255.428572
 30
0.0
 10
408.285712
 20
253.714284
 30
0.0
 10
417.142856
 20
245.142860
 30
0.0
 10
416.285712
 20
233.428572
 30
0.0
 10
419.714288
 20
213.714284
 30
0.0
 10
431.714288
 20
204.857140
 30
0.0
 10
437.428576
 20
192.571428
 30
0.0
 10
443.142856
 20
182.285716
 30
0.0
 10
451.428576
 20
181.428572
 30
0.0
 10
479.142856
 20
193.714284
 30
0.0
  0
ENDSEC
  0
SECTION
  2
OBJECTS
  0
DICTIONARY
  5
C
330
0
100
AcDbDictionary
  3
ACAD_GROUP
350
D
  3
ACAD_MLINESTYLE
350
17
  0
DICTIONARY
  5
D
330
C
100
AcDbDictionary
  0
DICTIONARY
  5
1A
330
C
100
AcDbDictionary
  0
DICTIONARY
  5
17
330
C
100
AcDbDictionary
  3
STANDARD
350
18
  0
DICTIONARY
  5
19
330
C
100
AcDbDictionary
  0
ENDSEC
  0
EOF
