  0
SECTION
  2
HEADER
  9
$ACADVER
  1
AC1014
  9
$HANDSEED
  5
FFFF
  9
$MEASUREMENT
 70
     1
  0
ENDSEC
  0
SECTION
  2
TABLES
  0
TABLE
  2
VPORT
  5
8
330
0
100
AcDbSymbolTable
 70
     4
  0
VPORT
  5
2E
330
8
100
AcDbSymbolTableRecord
100
AcDbViewportTableRecord
  2
*ACTIVE
 70
     0
 10
0.0
 20
0.0
 11
1.0
 21
1.0
 12
210.0
 22
148.5
 13
0.0
 23
0.0
 14
10.0
 24
10.0
 15
10.0
 25
10.0
 16
0.0
 26
0.0
 36
1.0
 17
0.0
 27
0.0
 37
0.0
 40
341.0
 41
1.24
 42
50.0
 43
0.0
 44
0.0
 50
0.0
 51
0.0
 71
     0
 72
   100
 73
     1
 74
     3
 75
     0
 76
     0
 77
     0
 78
     0
  0
ENDTAB
  0
TABLE
  2
LTYPE
  5
5
330
0
100
AcDbSymbolTable
 70
     1
  0
LTYPE
  5
14
330
5
100
AcDbSymbolTableRecord
100
AcDbLinetypeTableRecord
  2
BYBLOCK
 70
     0
  3

 72
    65
 73
     0
 40
0.0
  0
LTYPE
  5
15
330
5
100
AcDbSymbolTableRecord
100
AcDbLinetypeTableRecord
  2
BYLAYER
 70
     0
  3

 72
    65
 73
     0
 40
0.0
  0
LTYPE
  5
16
330
5
100
AcDbSymbolTableRecord
100
AcDbLinetypeTableRecord
  2
CONTINUOUS
 70
     0
  3
Solid line
 72
    65
 73
     0
 40
0.0
  0
ENDTAB
  0
TABLE
  2
LAYER
  5
2
100
AcDbSymbolTable
 70
2
  0
LAYER
  5
50
100
AcDbSymbolTableRecord
100
AcDbLayerTableRecord
  2
0
 70
0
  6
CONTINUOUS
  0
LAYER
  5
51
100
AcDbSymbolTableRecord
100
AcDbLayerTableRecord
  2
Layer_1
 70
0
  6
CONTINUOUS
  0
ENDTAB
  0
TABLE
  2
STYLE
  5
3
330
0
100
AcDbSymbolTable
 70
     1
  0
STYLE
  5
11
330
3
100
AcDbSymbolTableRecord
100
AcDbTextStyleTableRecord
  2
STANDARD
 70
     0
 40
0.0
 41
1.0
 50
0.0
 71
     0
 42
2.5
  3
txt
  4

  0
ENDTAB
  0
TABLE
  2
VIEW
  5
6
330
0
100
AcDbSymbolTable
 70
     0
  0
ENDTAB
  0
TABLE
  2
UCS
  5
7
330
0
100
AcDbSymbolTable
 70
     0
  0
ENDTAB
  0
TABLE
  2
APPID
  5
9
330
0
100
AcDbSymbolTable
 70
     2
  0
APPID
  5
12
330
9
100
AcDbSymbolTableRecord
100
AcDbRegAppTableRecord
  2
ACAD
 70
     0
  0
ENDTAB
  0
TABLE
  2
DIMSTYLE
  5
A
330
0
100
AcDbSymbolTable
 70
     1
  0
DIMSTYLE
105
27
330
A
100
AcDbSymbolTableRecord
100
AcDbDimStyleTableRecord
  2
ISO-25
 70
     0
  3

  4

  5

  6

  7

 40
1.0
 41
2.5
 42
0.625
 43
3.75
 44
1.25
 45
0.0
 46
0.0
 47
0.0
 48
0.0
140
2.5
141
2.5
142
0.0
143
0.03937007874016
144
1.0
145
0.0
146
1.0
147
0.625
 71
     0
 72
     0
 73
     0
 74
     0
 75
     0
 76
     0
 77
     1
 78
     8
170
     0
171
     3
172
     1
173
     0
174
     0
175
     0
176
     0
177
     0
178
     0
270
     2
271
     2
272
     2
273
     2
274
     3
340
11
275
     0
280
     0
281
     0
282
     0
283
     0
284
     8
285
     0
286
     0
287
     3
288
     0
  0
ENDTAB
  0
TABLE
  2
BLOCK_RECORD
  5
1
330
0
100
AcDbSymbolTable
 70
     1
  0
BLOCK_RECORD
  5
1F
330
1
100
AcDbSymbolTableRecord
100
AcDbBlockTableRecord
  2
*MODEL_SPACE
  0
BLOCK_RECORD
  5
1B
330
1
100
AcDbSymbolTableRecord
100
AcDbBlockTableRecord
  2
*PAPER_SPACE
  0
ENDTAB
  0
ENDSEC
  0
SECTION
  2
BLOCKS
  0
BLOCK
  5
20
330
1F
100
AcDbEntity
  8
0
100
AcDbBlockBegin
  2
*MODEL_SPACE
 70
     0
 10
0.0
 20
0.0
 30
0.0
  3
*MODEL_SPACE
  1

  0
ENDBLK
  5
21
330
1F
100
AcDbEntity
  8
0
100
AcDbBlockEnd
  0
BLOCK
  5
1C
330
1B
100
AcDbEntity
 67
     1
  8
0
100
AcDbBlockBegin
  2
*PAPER_SPACE
  1

  0
ENDBLK
  5
1D
330
1B
100
AcDbEntity
 67
     1
  8
0
100
AcDbBlockEnd
  0
ENDSEC
  0
SECTION
  2
ENTITIES
  0
LWPOLYLINE
  5
100
100
AcDbEntity
  8
Layer_1
 62
7
100
AcDbPolyline
 90
19
 70
1
 10
-160.000000
 20
579.428572
 30
0.0
 10
-173.714288
 20
556.571428
 30
0.0
 10
-179.428568
 20
512.571428
 30
0.0
 10
-203.428568
 20
474.285716
 30
0.0
 10
-182.285712
 20
465.714284
 30
0.0
 10
-160.000000
 20
461.714284
 30
0.0
 10
-114.857144
 20
463.428572
 30
0.0
 10
-66.285714
 20
464.000004
 30
0.0
 10
-38.857143
 20
462.285716
 30
0.0
 10
-12.571429
 20
489.714284
 30
0.0
 10
6.285714
 20
504.571428
 30
0.0
 10
12.000000
 20
525.142860
 30
0.0
 10
10.857143
 20
537.142860
 30
0.0
 10
-4.000000
 20
537.142860
 30
0.0
 10
-17.142857
 20
550.857140
 30
0.0
 10
-36.000000
 20
544.000004
 30
0.0
 10
-115.428568
 20
560.000004
 30
0.0
 10
-153.142856
 20
572.000004
 30
0.0
 10
-160.000000
 20
579.428572
 30
0.0
  0
LWPOLYLINE
  5
101
100
AcDbEntity
  8
Layer_1
 62
7
100
AcDbPolyline
 90
21
 70
1
 10
-37.142857
 20
462.857140
 30
0.0
 10
-13.142857
 20
488.571428
 30
0.0
 10
6.857143
 20
504.571428
 30
0.0
 10
12.000000
 20
528.000004
 30
0.0
 10
11.428571
 20
537.714284
 30
0.0
 10
38.285714
 20
571.428572
 30
0.0
 10
55.428571
 20
581.142860
 30
0.0
 10
92.571432
 20
587.428572
 30
0.0
 10
125.714288
 20
579.428572
 30
0.0
 10
181.142856
 20
536.000004
 30
0.0
 10
264.571432
 20
507.428572
 30
0.0
 10
261.714288
 20
489.142860
 30
0.0
 10
240.571432
 20
467.428572
 30
0.0
 10
207.428568
 20
449.714284
 30
0.0
 10
157.142856
 20
438.857140
 30
0.0
 10
96.000000
 20
434.285716
 30
0.0
 10
74.285714
 20
424.571428
 30
0.0
 10
58.285714
 20
442.857140
 30
0.0
 10
47.428571
 20
449.142860
 30
0.0
 10
-25.142857
 20
457.714284
 30
0.0
 10
-37.142857
 20
462.857140
 30
0.0
  0
LWPOLYLINE
  5
102
100
AcDbEntity
  8
Layer_1
 62
7
100
AcDbPolyline
 90
8
 70
1
 10
-4.571429
 20
454.285716
 30
0.0
 10
49.714286
 20
448.000004
 30
0.0
 10
61.714286
 20
440.000004
 30
0.0
 10
48.571429
 20
427.428572
 30
0.0
 10
37.142857
 20
406.285716
 30
0.0
 10
10.857143
 20
403.428572
 30
0.0
 10
9.714286
 20
421.714284
 30
0.0
 10
-4.571429
 20
454.285716
 30
0.0
  0
LWPOLYLINE
  5
103
100
AcDbEntity
  8
Layer_1
 62
7
100
AcDbPolyline
 90
31
 70
1
 10
-80.571432
 20
300.571428
 30
0.0
 10
-80.571432
 20
318.285716
 30
0.0
 10
-68.000000
 20
329.714284
 30
0.0
 10
-66.285714
 20
344.000004
 30
0.0
 10
-48.571429
 20
357.142860
 30
0.0
 10
-26.285714
 20
392.571428
 30
0.0
 10
-16.000000
 20
402.857140
 30
0.0
 10
37.714286
 20
406.285716
 30
0.0
 10
48.571429
 20
426.857140
 30
0.0
 10
61.142858
 20
438.285716
 30
0.0
 10
74.285714
 20
424.571428
 30
0.0
 10
116.571432
 20
411.428572
 30
0.0
 10
133.714288
 20
408.571428
 30
0.0
 10
160.000000
 20
409.142860
 30
0.0
 10
173.142856
 20
404.571428
 30
0.0
 10
177.714288
 20
396.571428
 30
0.0
 10
175.428568
 20
387.428572
 30
0.0
 10
169.142856
 20
379.428572
 30
0.0
 10
196.000000
 20
354.857140
 30
0.0
 10
202.285712
 20
334.857140
 30
0.0
 10
218.285712
 20
316.000004
 30
0.0
 10
194.285712
 20
284.571428
 30
0.0
 10
152.571432
 20
252.571428
 30
0.0
 10
89.142856
 20
255.428572
 30
0.0
 10
64.000000
 20
249.714284
 30
0.0
 10
42.285714
 20
254.857140
 30
0.0
 10
16.571429
 20
250.857140
 30
0.0
 10
-20.571429
 20
255.428572
 30
0.0
 10
-62.857143
 20
280.000004
 30
0.0
 10
-69.714286
 20
300.571428
 30
0.0
 10
-80.571432
 20
300.571428
 30
0.0
  0
LWPOLYLINE
  5
104
100
AcDbEntity
  8
Layer_1
 62
7
100
AcDbPolyline
 90
16
 70
1
 10
-112.000000
 20
463.428572
 30
0.0
 10
-68.571429
 20
464.000004
 30
0.0
 10
-33.142857
 20
461.714284
 30
0.0
 10
-22.857143
 20
457.714284
 30
0.0
 10
-4.000000
 20
456.571428
 30
0.0
 10
3.428571
 20
434.857140
 30
0.0
 10
9.714286
 20
421.142860
 30
0.0
 10
11.428571
 20
403.428572
 30
0.0
 10
-14.857143
 20
402.285716
 30
0.0
 10
-30.285714
 20
385.714284
 30
0.0
 10
-48.000000
 20
355.428572
 30
0.0
 10
-66.857143
 20
343.428572
 30
0.0
 10
-66.857143
 20
359.428572
 30
0.0
 10
-85.714288
 20
394.285716
 30
0.0
 10
-96.571432
 20
430.857140
 30
0.0
 10
-112.000000
 20
463.428572
 30
0.0
  0
LWPOLYLINE
  5
105
100
AcDbEntity
  8
Layer_1
 62
7
100
AcDbPolyline
 90
24
 70
1
 10
-80.571432
 20
301.714284
 30
0.0
 10
-80.571432
 20
317.714284
 30
0.0
 10
-66.285714
 20
329.714284
 30
0.0
 10
-66.285714
 20
359.428572
 30
0.0
 10
-82.857144
 20
393.142860
 30
0.0
 10
-95.428568
 20
429.142860
 30
0.0
 10
-112.000000
 20
465.142860
 30
0.0
 10
-148.571432
 20
462.285716
 30
0.0
 10
-174.285712
 20
464.571428
 30
0.0
 10
-204.000000
 20
476.000004
 30
0.0
 10
-222.857144
 20
465.714284
 30
0.0
 10
-259.428568
 20
460.571428
 30
0.0
 10
-262.285712
 20
434.285716
 30
0.0
 10
-282.857144
 20
422.285716
 30
0.0
 10
-298.857144
 20
395.428572
 30
0.0
 10
-274.285712
 20
373.142860
 30
0.0
 10
-236.000000
 20
359.428572
 30
0.0
 10
-196.000000
 20
361.714284
 30
0.0
 10
-154.857144
 20
357.714284
 30
0.0
 10
-133.714288
 20
356.571428
 30
0.0
 10
-132.000000
 20
338.285716
 30
0.0
 10
-149.142856
 20
305.142860
 30
0.0
 10
-127.428568
 20
282.285716
 30
0.0
 10
-80.571432
 20
301.714284
 30
0.0
  0
LWPOLYLINE
  5
106
100
AcDbEntity
  8
Layer_1
 62
7
100
AcDbPolyline
 90
36
 70
1
 10
217.714288
 20
315.428572
 30
0.0
 10
201.142856
 20
333.714284
 30
0.0
 10
196.000000
 20
354.857140
 30
0.0
 10
170.285712
 20
377.714284
 30
0.0
 10
174.857144
 20
388.000004
 30
0.0
 10
177.142856
 20
394.857140
 30
0.0
 10
173.714288
 20
404.571428
 30
0.0
 10
151.428568
 20
410.285716
 30
0.0
 10
133.714288
 20
408.571428
 30
0.0
 10
113.142856
 20
412.000004
 30
0.0
 10
74.857143
 20
424.571428
 30
0.0
 10
97.714288
 20
434.857140
 30
0.0
 10
154.857144
 20
440.000004
 30
0.0
 10
198.857144
 20
448.571428
 30
0.0
 10
240.000000
 20
468.000004
 30
0.0
 10
261.142856
 20
489.142860
 30
0.0
 10
264.571432
 20
507.428572
 30
0.0
 10
297.142856
 20
492.000004
 30
0.0
 10
324.571432
 20
485.142860
 30
0.0
 10
353.714288
 20
452.571428
 30
0.0
 10
412.000000
 20
491.428572
 30
0.0
 10
438.285712
 20
480.000004
 30
0.0
 10
469.714288
 20
486.285716
 30
0.0
 10
485.714288
 20
465.714284
 30
0.0
 10
487.428568
 20
441.714284
 30
0.0
 10
506.857144
 20
413.714284
 30
0.0
 10
484.571432
 20
354.285716
 30
0.0
 10
482.857144
 20
321.142860
 30
0.0
 10
456.000000
 20
336.000004
 30
0.0
 10
413.714288
 20
345.714284
 30
0.0
 10
372.000000
 20
346.857140
 30
0.0
 10
334.857144
 20
370.285716
 30
0.0
 10
301.142856
 20
369.714284
 30
0.0
 10
266.857144
 20
357.142860
 30
0.0
 10
237.714288
 20
337.142860
 30
0.0
 10
217.714288
 20
315.428572
 30
0.0
  0
ENDSEC
  0
SECTION
  2
OBJECTS
  0
DICTIONARY
  5
C
330
0
100
AcDbDictionary
  3
ACAD_GROUP
350
D
  3
ACAD_MLINESTYLE
350
17
  0
DICTIONARY
  5
D
330
C
100
AcDbDictionary
  0
DICTIONARY
  5
1A
330
C
100
AcDbDictionary
  0
DICTIONARY
  5
17
330
C
100
AcDbDictionary
  3
STANDARD
350
18
  0
DICTIONARY
  5
19
330
C
100
AcDbDictionary
  0
ENDSEC
  0
EOF
