  0
SECTION
  2
HEADER
  9
$ACADVER
  1
AC1014
  9
$HANDSEED
  5
FFFF
  9
$MEASUREMENT
 70
     1
  0
ENDSEC
  0
SECTION
  2
TABLES
  0
TABLE
  2
VPORT
  5
8
330
0
100
AcDbSymbolTable
 70
     4
  0
VPORT
  5
2E
330
8
100
AcDbSymbolTableRecord
100
AcDbViewportTableRecord
  2
*ACTIVE
 70
     0
 10
0.0
 20
0.0
 11
1.0
 21
1.0
 12
210.0
 22
148.5
 13
0.0
 23
0.0
 14
10.0
 24
10.0
 15
10.0
 25
10.0
 16
0.0
 26
0.0
 36
1.0
 17
0.0
 27
0.0
 37
0.0
 40
341.0
 41
1.24
 42
50.0
 43
0.0
 44
0.0
 50
0.0
 51
0.0
 71
     0
 72
   100
 73
     1
 74
     3
 75
     0
 76
     0
 77
     0
 78
     0
  0
ENDTAB
  0
TABLE
  2
LTYPE
  5
5
330
0
100
AcDbSymbolTable
 70
     1
  0
LTYPE
  5
14
330
5
100
AcDbSymbolTableRecord
100
AcDbLinetypeTableRecord
  2
BYBLOCK
 70
     0
  3

 72
    65
 73
     0
 40
0.0
  0
LTYPE
  5
15
330
5
100
AcDbSymbolTableRecord
100
AcDbLinetypeTableRecord
  2
BYLAYER
 70
     0
  3

 72
    65
 73
     0
 40
0.0
  0
LTYPE
  5
16
330
5
100
AcDbSymbolTableRecord
100
AcDbLinetypeTableRecord
  2
CONTINUOUS
 70
     0
  3
Solid line
 72
    65
 73
     0
 40
0.0
  0
ENDTAB
  0
TABLE
  2
LAYER
  5
2
100
AcDbSymbolTable
 70
2
  0
LAYER
  5
50
100
AcDbSymbolTableRecord
100
AcDbLayerTableRecord
  2
0
 70
0
  6
CONTINUOUS
  0
LAYER
  5
51
100
AcDbSymbolTableRecord
100
AcDbLayerTableRecord
  2
Layer_1
 70
0
  6
CONTINUOUS
  0
ENDTAB
  0
TABLE
  2
STYLE
  5
3
330
0
100
AcDbSymbolTable
 70
     1
  0
STYLE
  5
11
330
3
100
AcDbSymbolTableRecord
100
AcDbTextStyleTableRecord
  2
STANDARD
 70
     0
 40
0.0
 41
1.0
 50
0.0
 71
     0
 42
2.5
  3
txt
  4

  0
ENDTAB
  0
TABLE
  2
VIEW
  5
6
330
0
100
AcDbSymbolTable
 70
     0
  0
ENDTAB
  0
TABLE
  2
UCS
  5
7
330
0
100
AcDbSymbolTable
 70
     0
  0
ENDTAB
  0
TABLE
  2
APPID
  5
9
330
0
100
AcDbSymbolTable
 70
     2
  0
APPID
  5
12
330
9
100
AcDbSymbolTableRecord
100
AcDbRegAppTableRecord
  2
ACAD
 70
     0
  0
ENDTAB
  0
TABLE
  2
DIMSTYLE
  5
A
330
0
100
AcDbSymbolTable
 70
     1
  0
DIMSTYLE
105
27
330
A
100
AcDbSymbolTableRecord
100
AcDbDimStyleTableRecord
  2
ISO-25
 70
     0
  3

  4

  5

  6

  7

 40
1.0
 41
2.5
 42
0.625
 43
3.75
 44
1.25
 45
0.0
 46
0.0
 47
0.0
 48
0.0
140
2.5
141
2.5
142
0.0
143
0.03937007874016
144
1.0
145
0.0
146
1.0
147
0.625
 71
     0
 72
     0
 73
     0
 74
     0
 75
     0
 76
     0
 77
     1
 78
     8
170
     0
171
     3
172
     1
173
     0
174
     0
175
     0
176
     0
177
     0
178
     0
270
     2
271
     2
272
     2
273
     2
274
     3
340
11
275
     0
280
     0
281
     0
282
     0
283
     0
284
     8
285
     0
286
     0
287
     3
288
     0
  0
ENDTAB
  0
TABLE
  2
BLOCK_RECORD
  5
1
330
0
100
AcDbSymbolTable
 70
     1
  0
BLOCK_RECORD
  5
1F
330
1
100
AcDbSymbolTableRecord
100
AcDbBlockTableRecord
  2
*MODEL_SPACE
  0
BLOCK_RECORD
  5
1B
330
1
100
AcDbSymbolTableRecord
100
AcDbBlockTableRecord
  2
*PAPER_SPACE
  0
ENDTAB
  0
ENDSEC
  0
SECTION
  2
BLOCKS
  0
BLOCK
  5
20
330
1F
100
AcDbEntity
  8
0
100
AcDbBlockBegin
  2
*MODEL_SPACE
 70
     0
 10
0.0
 20
0.0
 30
0.0
  3
*MODEL_SPACE
  1

  0
ENDBLK
  5
21
330
1F
100
AcDbEntity
  8
0
100
AcDbBlockEnd
  0
BLOCK
  5
1C
330
1B
100
AcDbEntity
 67
     1
  8
0
100
AcDbBlockBegin
  2
*PAPER_SPACE
  1

  0
ENDBLK
  5
1D
330
1B
100
AcDbEntity
 67
     1
  8
0
100
AcDbBlockEnd
  0
ENDSEC
  0
SECTION
  2
ENTITIES
  0
LWPOLYLINE
  5
100
100
AcDbEntity
  8
Layer_1
 62
7
100
AcDbPolyline
 90
10
 70
1
 10
67.428571
 20
413.714284
 30
0.0
 10
28.571429
 20
440.000004
 30
0.0
 10
7.428571
 20
469.714284
 30
0.0
 10
14.285714
 20
492.000004
 30
0.0
 10
36.000000
 20
508.000004
 30
0.0
 10
53.714286
 20
504.000004
 30
0.0
 10
61.142858
 20
478.857140
 30
0.0
 10
61.714286
 20
470.857140
 30
0.0
 10
69.714286
 20
467.428572
 30
0.0
 10
67.428571
 20
413.714284
 30
0.0
  0
LWPOLYLINE
  5
101
100
AcDbEntity
  8
Layer_1
 62
7
100
AcDbPolyline
 90
23
 70
1
 10
68.000000
 20
413.428572
 30
0.0
 10
59.714286
 20
411.714284
 30
0.0
 10
50.285714
 20
415.428572
 30
0.0
 10
35.428571
 20
416.571428
 30
0.0
 10
57.714286
 20
387.142860
 30
0.0
 10
68.000000
 20
381.428572
 30
0.0
 10
85.428568
 20
379.142860
 30
0.0
 10
108.571432
 20
382.285716
 30
0.0
 10
137.714288
 20
369.714284
 30
0.0
 10
155.714288
 20
369.428572
 30
0.0
 10
153.142856
 20
382.000004
 30
0.0
 10
156.285712
 20
394.857140
 30
0.0
 10
163.142856
 20
406.285716
 30
0.0
 10
168.285712
 20
448.285716
 30
0.0
 10
175.428568
 20
463.428572
 30
0.0
 10
177.142856
 20
471.142860
 30
0.0
 10
177.142856
 20
480.571428
 30
0.0
 10
143.714288
 20
473.714284
 30
0.0
 10
135.714288
 20
473.428572
 30
0.0
 10
121.714288
 20
464.571428
 30
0.0
 10
110.000000
 20
463.714284
 30
0.0
 10
70.285714
 20
466.571428
 30
0.0
 10
68.000000
 20
413.428572
 30
0.0
  0
LWPOLYLINE
  5
102
100
AcDbEntity
  8
Layer_1
 62
7
100
AcDbPolyline
 90
37
 70
1
 10
155.428568
 20
368.857140
 30
0.0
 10
165.428568
 20
368.285716
 30
0.0
 10
175.714288
 20
372.285716
 30
0.0
 10
186.000000
 20
371.428572
 30
0.0
 10
190.285712
 20
363.714284
 30
0.0
 10
174.285712
 20
362.571428
 30
0.0
 10
175.428568
 20
354.571428
 30
0.0
 10
172.571432
 20
347.142860
 30
0.0
 10
159.428568
 20
349.428572
 30
0.0
 10
154.285712
 20
346.857140
 30
0.0
 10
156.000000
 20
340.000004
 30
0.0
 10
161.428568
 20
336.285716
 30
0.0
 10
171.142856
 20
314.857140
 30
0.0
 10
182.571432
 20
300.285716
 30
0.0
 10
178.857144
 20
292.571428
 30
0.0
 10
172.571432
 20
286.857140
 30
0.0
 10
171.428568
 20
277.428572
 30
0.0
 10
177.714288
 20
274.000004
 30
0.0
 10
171.428568
 20
267.428572
 30
0.0
 10
169.714288
 20
260.285716
 30
0.0
 10
152.000000
 20
243.142860
 30
0.0
 10
145.428568
 20
252.285716
 30
0.0
 10
105.142856
 20
254.571428
 30
0.0
 10
62.000000
 20
265.714284
 30
0.0
 10
18.571429
 20
277.714284
 30
0.0
 10
-22.571429
 20
302.000004
 30
0.0
 10
-34.000000
 20
331.714284
 30
0.0
 10
-35.142857
 20
340.571428
 30
0.0
 10
-26.000000
 20
363.142860
 30
0.0
 10
12.571429
 20
414.000004
 30
0.0
 10
35.142857
 20
416.285716
 30
0.0
 10
57.428571
 20
386.571428
 30
0.0
 10
68.571429
 20
380.857140
 30
0.0
 10
85.142856
 20
378.285716
 30
0.0
 10
109.714288
 20
382.000004
 30
0.0
 10
136.857144
 20
368.857140
 30
0.0
 10
155.428568
 20
368.857140
 30
0.0
  0
LWPOLYLINE
  5
103
100
AcDbEntity
  8
Layer_1
 62
7
100
AcDbPolyline
 90
27
 70
1
 10
152.285712
 20
242.571428
 30
0.0
 10
164.857144
 20
227.142860
 30
0.0
 10
196.000000
 20
208.571428
 30
0.0
 10
223.714288
 20
216.285716
 30
0.0
 10
246.285712
 20
219.142860
 30
0.0
 10
251.428568
 20
215.714284
 30
0.0
 10
314.000000
 20
233.142860
 30
0.0
 10
323.142856
 20
226.000004
 30
0.0
 10
322.285712
 20
244.000004
 30
0.0
 10
338.000000
 20
245.142860
 30
0.0
 10
339.142856
 20
256.857140
 30
0.0
 10
351.142856
 20
262.285716
 30
0.0
 10
365.142856
 20
274.857140
 30
0.0
 10
368.857144
 20
282.285716
 30
0.0
 10
361.714288
 20
290.857140
 30
0.0
 10
329.714288
 20
291.428572
 30
0.0
 10
319.428568
 20
302.000004
 30
0.0
 10
290.285712
 20
304.857140
 30
0.0
 10
279.428568
 20
299.714284
 30
0.0
 10
248.571432
 20
295.428572
 30
0.0
 10
216.571432
 20
290.571428
 30
0.0
 10
204.285712
 20
289.714284
 30
0.0
 10
194.571432
 20
282.285716
 30
0.0
 10
178.000000
 20
274.000004
 30
0.0
 10
172.000000
 20
268.285716
 30
0.0
 10
169.714288
 20
260.000004
 30
0.0
 10
152.285712
 20
242.571428
 30
0.0
  0
LWPOLYLINE
  5
104
100
AcDbEntity
  8
Layer_1
 62
7
100
AcDbPolyline
 90
26
 70
1
 10
322.285712
 20
243.714284
 30
0.0
 10
323.428568
 20
224.857140
 30
0.0
 10
330.000000
 20
219.714284
 30
0.0
 10
360.000000
 20
216.857140
 30
0.0
 10
386.285712
 20
227.428572
 30
0.0
 10
424.000000
 20
236.000004
 30
0.0
 10
457.142856
 20
235.142860
 30
0.0
 10
474.571432
 20
235.428572
 30
0.0
 10
501.714288
 20
249.428572
 30
0.0
 10
494.857144
 20
262.571428
 30
0.0
 10
490.000000
 20
266.285716
 30
0.0
 10
482.857144
 20
274.285716
 30
0.0
 10
481.714288
 20
283.142860
 30
0.0
 10
484.571432
 20
310.285716
 30
0.0
 10
472.285712
 20
311.714284
 30
0.0
 10
448.857144
 20
342.571428
 30
0.0
 10
437.142856
 20
344.000004
 30
0.0
 10
424.857144
 20
340.285716
 30
0.0
 10
394.285712
 20
321.428572
 30
0.0
 10
391.142856
 20
302.571428
 30
0.0
 10
368.571432
 20
282.285716
 30
0.0
 10
365.428576
 20
274.857140
 30
0.0
 10
350.000000
 20
261.428572
 30
0.0
 10
339.714288
 20
257.142860
 30
0.0
 10
338.285712
 20
244.857140
 30
0.0
 10
322.285712
 20
243.714284
 30
0.0
  0
LWPOLYLINE
  5
105
100
AcDbEntity
  8
Layer_1
 62
7
100
AcDbPolyline
 90
18
 70
1
 10
484.285712
 20
310.285716
 30
0.0
 10
482.285712
 20
280.857140
 30
0.0
 10
483.428576
 20
274.000004
 30
0.0
 10
495.714288
 20
261.714284
 30
0.0
 10
501.142856
 20
249.142860
 30
0.0
 10
516.000000
 20
275.428572
 30
0.0
 10
522.857144
 20
293.714284
 30
0.0
 10
535.714288
 20
298.000004
 30
0.0
 10
577.428576
 20
290.000004
 30
0.0
 10
572.285712
 20
298.857140
 30
0.0
 10
571.142856
 20
305.714284
 30
0.0
 10
571.428576
 20
316.857140
 30
0.0
 10
568.000000
 20
325.142860
 30
0.0
 10
559.142856
 20
336.285716
 30
0.0
 10
526.857144
 20
313.142860
 30
0.0
 10
509.714288
 20
306.000004
 30
0.0
 10
497.142856
 20
309.428572
 30
0.0
 10
484.285712
 20
310.285716
 30
0.0
  0
LWPOLYLINE
  5
106
100
AcDbEntity
  8
Layer_1
 62
7
100
AcDbPolyline
 90
16
 70
1
 10
560.285712
 20
336.285716
 30
0.0
 10
568.285712
 20
325.142860
 30
0.0
 10
571.714288
 20
316.571428
 30
0.0
 10
572.000000
 20
304.857140
 30
0.0
 10
572.857144
 20
298.000004
 30
0.0
 10
578.571432
 20
288.285716
 30
0.0
 10
600.571432
 20
284.000004
 30
0.0
 10
690.857144
 20
284.000004
 30
0.0
 10
687.428576
 20
325.142860
 30
0.0
 10
683.714288
 20
335.428572
 30
0.0
 10
674.285712
 20
342.285716
 30
0.0
 10
664.285712
 20
353.714284
 30
0.0
 10
616.857144
 20
358.000004
 30
0.0
 10
602.285712
 20
352.857140
 30
0.0
 10
585.428576
 20
342.000004
 30
0.0
 10
560.285712
 20
336.285716
 30
0.0
  0
LWPOLYLINE
  5
107
100
AcDbEntity
  8
Layer_1
 62
7
100
AcDbPolyline
 90
36
 70
1
 10
483.714288
 20
311.142860
 30
0.0
 10
497.142856
 20
310.000004
 30
0.0
 10
510.571432
 20
306.000004
 30
0.0
 10
529.142856
 20
314.571428
 30
0.0
 10
560.285712
 20
336.857140
 30
0.0
 10
585.428576
 20
341.714284
 30
0.0
 10
602.857144
 20
353.428572
 30
0.0
 10
617.428576
 20
358.285716
 30
0.0
 10
665.428576
 20
354.571428
 30
0.0
 10
665.142856
 20
366.000004
 30
0.0
 10
686.285712
 20
407.142860
 30
0.0
 10
700.000000
 20
400.571428
 30
0.0
 10
709.428576
 20
399.714284
 30
0.0
 10
721.428576
 20
444.000004
 30
0.0
 10
720.285712
 20
455.142860
 30
0.0
 10
703.142856
 20
477.142860
 30
0.0
 10
686.857144
 20
463.142860
 30
0.0
 10
661.428576
 20
459.428572
 30
0.0
 10
647.428576
 20
455.142860
 30
0.0
 10
644.857144
 20
451.428572
 30
0.0
 10
646.000000
 20
445.142860
 30
0.0
 10
636.571432
 20
432.571428
 30
0.0
 10
646.000000
 20
412.571428
 30
0.0
 10
644.857144
 20
409.428572
 30
0.0
 10
590.857144
 20
408.000004
 30
0.0
 10
564.857144
 20
398.857140
 30
0.0
 10
545.428576
 20
384.571428
 30
0.0
 10
536.285712
 20
376.285716
 30
0.0
 10
511.714288
 20
365.428572
 30
0.0
 10
496.857144
 20
363.428572
 30
0.0
 10
473.714288
 20
370.571428
 30
0.0
 10
470.000000
 20
348.285716
 30
0.0
 10
486.285712
 20
334.285716
 30
0.0
 10
489.428576
 20
327.714284
 30
0.0
 10
485.142856
 20
318.571428
 30
0.0
 10
483.714288
 20
311.142860
 30
0.0
  0
LWPOLYLINE
  5
108
100
AcDbEntity
  8
Layer_1
 62
7
100
AcDbPolyline
 90
26
 70
1
 10
702.285712
 20
477.428572
 30
0.0
 10
692.285712
 20
487.142860
 30
0.0
 10
682.000000
 20
513.142860
 30
0.0
 10
682.857144
 20
522.285716
 30
0.0
 10
684.285712
 20
548.285716
 30
0.0
 10
692.571432
 20
571.428572
 30
0.0
 10
715.428576
 20
597.142860
 30
0.0
 10
723.714288
 20
612.857148
 30
0.0
 10
724.571432
 20
632.571428
 30
0.0
 10
710.285712
 20
644.285716
 30
0.0
 10
616.000000
 20
600.000004
 30
0.0
 10
612.285712
 20
594.000004
 30
0.0
 10
584.285712
 20
579.428572
 30
0.0
 10
550.285712
 20
578.571428
 30
0.0
 10
533.142856
 20
563.714284
 30
0.0
 10
530.285712
 20
551.428572
 30
0.0
 10
541.142856
 20
536.857140
 30
0.0
 10
537.142856
 20
509.714284
 30
0.0
 10
531.142856
 20
488.857140
 30
0.0
 10
520.857144
 20
476.000004
 30
0.0
 10
544.285712
 20
447.142860
 30
0.0
 10
557.428576
 20
436.571428
 30
0.0
 10
575.428576
 20
436.571428
 30
0.0
 10
603.428576
 20
447.142860
 30
0.0
 10
638.285712
 20
471.428572
 30
0.0
 10
702.285712
 20
477.428572
 30
0.0
  0
LWPOLYLINE
  5
109
100
AcDbEntity
  8
Layer_1
 62
7
100
AcDbPolyline
 90
30
 70
1
 10
702.571432
 20
477.714284
 30
0.0
 10
686.571432
 20
463.428572
 30
0.0
 10
660.571432
 20
460.000004
 30
0.0
 10
646.000000
 20
454.000004
 30
0.0
 10
644.285712
 20
451.142860
 30
0.0
 10
646.857144
 20
445.428572
 30
0.0
 10
635.714288
 20
432.000004
 30
0.0
 10
646.000000
 20
412.285716
 30
0.0
 10
644.571432
 20
409.142860
 30
0.0
 10
591.428576
 20
408.000004
 30
0.0
 10
563.428576
 20
398.000004
 30
0.0
 10
533.428576
 20
374.857140
 30
0.0
 10
511.428576
 20
366.285716
 30
0.0
 10
496.857144
 20
363.714284
 30
0.0
 10
460.000000
 20
373.428572
 30
0.0
 10
434.000000
 20
371.142860
 30
0.0
 10
411.714288
 20
376.285716
 30
0.0
 10
391.142856
 20
389.142860
 30
0.0
 10
386.285712
 20
399.142860
 30
0.0
 10
389.714288
 20
420.571428
 30
0.0
 10
444.857144
 20
441.142860
 30
0.0
 10
469.428576
 20
442.000004
 30
0.0
 10
494.000000
 20
449.142860
 30
0.0
 10
520.857144
 20
476.571428
 30
0.0
 10
546.000000
 20
445.428572
 30
0.0
 10
557.142856
 20
435.714284
 30
0.0
 10
575.714288
 20
436.000004
 30
0.0
 10
604.571432
 20
447.142860
 30
0.0
 10
639.142856
 20
471.142860
 30
0.0
 10
702.571432
 20
477.714284
 30
0.0
  0
LWPOLYLINE
  5
10a
100
AcDbEntity
  8
Layer_1
 62
7
100
AcDbPolyline
 90
57
 70
1
 10
177.714288
 20
481.142860
 30
0.0
 10
177.142856
 20
469.428572
 30
0.0
 10
170.000000
 20
451.428572
 30
0.0
 10
163.428568
 20
405.714284
 30
0.0
 10
156.571432
 20
393.428572
 30
0.0
 10
154.000000
 20
382.285716
 30
0.0
 10
155.428568
 20
368.857140
 30
0.0
 10
166.857144
 20
368.285716
 30
0.0
 10
175.428568
 20
372.285716
 30
0.0
 10
186.857144
 20
371.428572
 30
0.0
 10
190.285712
 20
364.000004
 30
0.0
 10
174.285712
 20
362.285716
 30
0.0
 10
176.285712
 20
354.857140
 30
0.0
 10
173.142856
 20
347.714284
 30
0.0
 10
160.000000
 20
348.857140
 30
0.0
 10
154.285712
 20
346.571428
 30
0.0
 10
157.428568
 20
339.428572
 30
0.0
 10
162.285712
 20
335.714284
 30
0.0
 10
171.714288
 20
314.000004
 30
0.0
 10
182.571432
 20
300.285716
 30
0.0
 10
179.142856
 20
292.285716
 30
0.0
 10
173.142856
 20
287.428572
 30
0.0
 10
172.571432
 20
277.714284
 30
0.0
 10
177.714288
 20
274.000004
 30
0.0
 10
195.428568
 20
282.000004
 30
0.0
 10
204.000000
 20
290.000004
 30
0.0
 10
280.000000
 20
300.000004
 30
0.0
 10
291.142856
 20
305.428572
 30
0.0
 10
319.428568
 20
302.000004
 30
0.0
 10
330.571432
 20
290.857140
 30
0.0
 10
362.000000
 20
290.571428
 30
0.0
 10
368.857144
 20
282.571428
 30
0.0
 10
391.428576
 20
302.857140
 30
0.0
 10
394.285712
 20
320.857140
 30
0.0
 10
424.571432
 20
339.714284
 30
0.0
 10
438.000000
 20
343.714284
 30
0.0
 10
449.714288
 20
342.285716
 30
0.0
 10
472.285712
 20
311.714284
 30
0.0
 10
484.285712
 20
310.285716
 30
0.0
 10
484.285712
 20
317.714284
 30
0.0
 10
490.000000
 20
326.857140
 30
0.0
 10
484.857144
 20
335.428572
 30
0.0
 10
469.714288
 20
348.000004
 30
0.0
 10
472.857144
 20
370.285716
 30
0.0
 10
460.000000
 20
373.714284
 30
0.0
 10
438.285712
 20
370.857140
 30
0.0
 10
413.142856
 20
375.428572
 30
0.0
 10
392.571432
 20
388.285716
 30
0.0
 10
386.285712
 20
398.000004
 30
0.0
 10
390.000000
 20
421.142860
 30
0.0
 10
379.142856
 20
421.142860
 30
0.0
 10
317.428568
 20
448.285716
 30
0.0
 10
313.142856
 20
452.857140
 30
0.0
 10
255.142856
 20
474.285716
 30
0.0
 10
225.142856
 20
481.428572
 30
0.0
 10
199.714288
 20
485.142860
 30
0.0
 10
177.714288
 20
481.142860
 30
0.0
  0
ENDSEC
  0
SECTION
  2
OBJECTS
  0
DICTIONARY
  5
C
330
0
100
AcDbDictionary
  3
ACAD_GROUP
350
D
  3
ACAD_MLINESTYLE
350
17
  0
DICTIONARY
  5
D
330
C
100
AcDbDictionary
  0
DICTIONARY
  5
1A
330
C
100
AcDbDictionary
  0
DICTIONARY
  5
17
330
C
100
AcDbDictionary
  3
STANDARD
350
18
  0
DICTIONARY
  5
19
330
C
100
AcDbDictionary
  0
ENDSEC
  0
EOF
