  0
SECTION
  2
HEADER
  9
$ACADVER
  1
AC1014
  9
$HANDSEED
  5
FFFF
  9
$MEASUREMENT
 70
     1
  0
ENDSEC
  0
SECTION
  2
TABLES
  0
TABLE
  2
VPORT
  5
8
330
0
100
AcDbSymbolTable
 70
     4
  0
VPORT
  5
2E
330
8
100
AcDbSymbolTableRecord
100
AcDbViewportTableRecord
  2
*ACTIVE
 70
     0
 10
0.0
 20
0.0
 11
1.0
 21
1.0
 12
210.0
 22
148.5
 13
0.0
 23
0.0
 14
10.0
 24
10.0
 15
10.0
 25
10.0
 16
0.0
 26
0.0
 36
1.0
 17
0.0
 27
0.0
 37
0.0
 40
341.0
 41
1.24
 42
50.0
 43
0.0
 44
0.0
 50
0.0
 51
0.0
 71
     0
 72
   100
 73
     1
 74
     3
 75
     0
 76
     0
 77
     0
 78
     0
  0
ENDTAB
  0
TABLE
  2
LTYPE
  5
5
330
0
100
AcDbSymbolTable
 70
     1
  0
LTYPE
  5
14
330
5
100
AcDbSymbolTableRecord
100
AcDbLinetypeTableRecord
  2
BYBLOCK
 70
     0
  3

 72
    65
 73
     0
 40
0.0
  0
LTYPE
  5
15
330
5
100
AcDbSymbolTableRecord
100
AcDbLinetypeTableRecord
  2
BYLAYER
 70
     0
  3

 72
    65
 73
     0
 40
0.0
  0
LTYPE
  5
16
330
5
100
AcDbSymbolTableRecord
100
AcDbLinetypeTableRecord
  2
CONTINUOUS
 70
     0
  3
Solid line
 72
    65
 73
     0
 40
0.0
  0
ENDTAB
  0
TABLE
  2
LAYER
  5
2
100
AcDbSymbolTable
 70
2
  0
LAYER
  5
50
100
AcDbSymbolTableRecord
100
AcDbLayerTableRecord
  2
0
 70
0
  6
CONTINUOUS
  0
LAYER
  5
51
100
AcDbSymbolTableRecord
100
AcDbLayerTableRecord
  2
Layer_1
 70
0
  6
CONTINUOUS
  0
ENDTAB
  0
TABLE
  2
STYLE
  5
3
330
0
100
AcDbSymbolTable
 70
     1
  0
STYLE
  5
11
330
3
100
AcDbSymbolTableRecord
100
AcDbTextStyleTableRecord
  2
STANDARD
 70
     0
 40
0.0
 41
1.0
 50
0.0
 71
     0
 42
2.5
  3
txt
  4

  0
ENDTAB
  0
TABLE
  2
VIEW
  5
6
330
0
100
AcDbSymbolTable
 70
     0
  0
ENDTAB
  0
TABLE
  2
UCS
  5
7
330
0
100
AcDbSymbolTable
 70
     0
  0
ENDTAB
  0
TABLE
  2
APPID
  5
9
330
0
100
AcDbSymbolTable
 70
     2
  0
APPID
  5
12
330
9
100
AcDbSymbolTableRecord
100
AcDbRegAppTableRecord
  2
ACAD
 70
     0
  0
ENDTAB
  0
TABLE
  2
DIMSTYLE
  5
A
330
0
100
AcDbSymbolTable
 70
     1
  0
DIMSTYLE
105
27
330
A
100
AcDbSymbolTableRecord
100
AcDbDimStyleTableRecord
  2
ISO-25
 70
     0
  3

  4

  5

  6

  7

 40
1.0
 41
2.5
 42
0.625
 43
3.75
 44
1.25
 45
0.0
 46
0.0
 47
0.0
 48
0.0
140
2.5
141
2.5
142
0.0
143
0.03937007874016
144
1.0
145
0.0
146
1.0
147
0.625
 71
     0
 72
     0
 73
     0
 74
     0
 75
     0
 76
     0
 77
     1
 78
     8
170
     0
171
     3
172
     1
173
     0
174
     0
175
     0
176
     0
177
     0
178
     0
270
     2
271
     2
272
     2
273
     2
274
     3
340
11
275
     0
280
     0
281
     0
282
     0
283
     0
284
     8
285
     0
286
     0
287
     3
288
     0
  0
ENDTAB
  0
TABLE
  2
BLOCK_RECORD
  5
1
330
0
100
AcDbSymbolTable
 70
     1
  0
BLOCK_RECORD
  5
1F
330
1
100
AcDbSymbolTableRecord
100
AcDbBlockTableRecord
  2
*MODEL_SPACE
  0
BLOCK_RECORD
  5
1B
330
1
100
AcDbSymbolTableRecord
100
AcDbBlockTableRecord
  2
*PAPER_SPACE
  0
ENDTAB
  0
ENDSEC
  0
SECTION
  2
BLOCKS
  0
BLOCK
  5
20
330
1F
100
AcDbEntity
  8
0
100
AcDbBlockBegin
  2
*MODEL_SPACE
 70
     0
 10
0.0
 20
0.0
 30
0.0
  3
*MODEL_SPACE
  1

  0
ENDBLK
  5
21
330
1F
100
AcDbEntity
  8
0
100
AcDbBlockEnd
  0
BLOCK
  5
1C
330
1B
100
AcDbEntity
 67
     1
  8
0
100
AcDbBlockBegin
  2
*PAPER_SPACE
  1

  0
ENDBLK
  5
1D
330
1B
100
AcDbEntity
 67
     1
  8
0
100
AcDbBlockEnd
  0
ENDSEC
  0
SECTION
  2
ENTITIES
  0
LWPOLYLINE
  5
100
100
AcDbEntity
  8
Layer_1
 62
7
100
AcDbPolyline
 90
16
 70
1
 10
-58.992909
 20
570.938220
 30
0.0
 10
-56.164482
 20
564.877300
 30
0.0
 10
-50.507627
 20
558.008268
 30
0.0
 10
-52.527932
 20
544.674252
 30
0.0
 10
-52.123871
 20
539.421460
 30
0.0
 10
-42.426407
 20
528.511812
 30
0.0
 10
-35.961430
 20
513.157492
 30
0.0
 10
-31.920821
 20
505.884396
 30
0.0
 10
-33.133003
 20
496.995052
 30
0.0
 10
-37.981736
 20
494.974748
 30
0.0
 10
-48.487322
 20
495.378812
 30
0.0
 10
-90.509672
 20
475.175756
 30
0.0
 10
-95.762464
 20
493.762564
 30
0.0
 10
-98.994952
 20
528.107748
 30
0.0
 10
-109.096472
 20
549.118924
 30
0.0
 10
-58.992909
 20
570.938220
 30
0.0
  0
LWPOLYLINE
  5
101
100
AcDbEntity
  8
Layer_1
 62
7
100
AcDbPolyline
 90
33
 70
1
 10
-61.013214
 20
570.938220
 30
0.0
 10
-40.002041
 20
579.827564
 30
0.0
 10
35.557370
 20
629.527068
 30
0.0
 10
48.083261
 20
624.274276
 30
0.0
 10
57.376665
 20
622.253972
 30
0.0
 10
85.660936
 20
623.466148
 30
0.0
 10
94.146216
 20
620.233660
 30
0.0
 10
97.378704
 20
614.980868
 30
0.0
 10
84.044688
 20
586.292540
 30
0.0
 10
82.832512
 20
576.191012
 30
0.0
 10
90.105608
 20
562.856996
 30
0.0
 10
50.103566
 20
547.502684
 30
0.0
 10
34.749247
 20
537.805212
 30
0.0
 10
32.324882
 20
512.349372
 30
0.0
 10
36.769553
 20
488.509772
 30
0.0
 10
26.263966
 20
494.974748
 30
0.0
 10
14.546197
 20
489.317892
 30
0.0
 10
4.040610
 20
477.600124
 30
0.0
 10
-10.909647
 20
473.155452
 30
0.0
 10
-37.577674
 20
471.135148
 30
0.0
 10
-51.719810
 20
463.862052
 30
0.0
 10
-55.760421
 20
459.417380
 30
0.0
 10
-81.620328
 20
465.882356
 30
0.0
 10
-91.317792
 20
475.175756
 30
0.0
 10
-47.679200
 20
495.378812
 30
0.0
 10
-37.577674
 20
495.378812
 30
0.0
 10
-32.324882
 20
498.207236
 30
0.0
 10
-33.133003
 20
505.480332
 30
0.0
 10
-42.426407
 20
528.107748
 30
0.0
 10
-51.315750
 20
539.825524
 30
0.0
 10
-52.123871
 20
544.674252
 30
0.0
 10
-49.295444
 20
558.412324
 30
0.0
 10
-61.013214
 20
570.938220
 30
0.0
  0
LWPOLYLINE
  5
102
100
AcDbEntity
  8
Layer_1
 62
7
100
AcDbPolyline
 90
32
 70
1
 10
90.105608
 20
562.856996
 30
0.0
 10
95.762464
 20
560.028572
 30
0.0
 10
101.823376
 20
560.028572
 30
0.0
 10
103.439624
 20
553.967660
 30
0.0
 10
124.450792
 20
547.906740
 30
0.0
 10
134.956384
 20
539.017396
 30
0.0
 10
142.633536
 20
528.107748
 30
0.0
 10
143.441664
 20
522.854956
 30
0.0
 10
156.371616
 20
517.602164
 30
0.0
 10
160.412224
 20
515.177796
 30
0.0
 10
149.906640
 20
484.469164
 30
0.0
 10
149.906640
 20
474.771700
 30
0.0
 10
155.159432
 20
471.539212
 30
0.0
 10
162.432528
 20
468.710780
 30
0.0
 10
165.260960
 20
467.094540
 30
0.0
 10
164.048776
 20
461.841748
 30
0.0
 10
153.139128
 20
449.719916
 30
0.0
 10
136.976688
 20
450.123972
 30
0.0
 10
121.622368
 20
452.144276
 30
0.0
 10
99.399008
 20
466.286412
 30
0.0
 10
93.338096
 20
467.094540
 30
0.0
 10
81.620328
 20
458.609260
 30
0.0
 10
71.114739
 20
444.871180
 30
0.0
 10
62.225397
 20
442.850876
 30
0.0
 10
53.740115
 20
448.911788
 30
0.0
 10
52.931994
 20
469.518900
 30
0.0
 10
41.214224
 20
479.216364
 30
0.0
 10
36.769553
 20
488.105708
 30
0.0
 10
32.728942
 20
511.137188
 30
0.0
 10
35.153309
 20
537.805212
 30
0.0
 10
52.527932
 20
549.118924
 30
0.0
 10
90.105608
 20
562.856996
 30
0.0
  0
LWPOLYLINE
  5
103
100
AcDbEntity
  8
Layer_1
 62
7
100
AcDbPolyline
 90
28
 70
1
 10
58.992909
 20
444.467124
 30
0.0
 10
42.022346
 20
425.072188
 30
0.0
 10
42.022346
 20
417.799092
 30
0.0
 10
45.254834
 20
402.040716
 30
0.0
 10
53.336054
 20
389.918884
 30
0.0
 10
57.376665
 20
383.049844
 30
0.0
 10
51.719810
 20
374.564564
 30
0.0
 10
52.123871
 20
344.259988
 30
0.0
 10
76.367533
 20
357.998060
 30
0.0
 10
80.408144
 20
358.402124
 30
0.0
 10
83.640632
 20
355.573700
 30
0.0
 10
92.125912
 20
356.381820
 30
0.0
 10
97.378704
 20
361.230548
 30
0.0
 10
115.157392
 20
358.402124
 30
0.0
 10
116.369576
 20
367.695524
 30
0.0
 10
102.227440
 20
384.262028
 30
0.0
 10
102.227440
 20
411.334116
 30
0.0
 10
124.450792
 20
422.243764
 30
0.0
 10
132.532016
 20
439.214324
 30
0.0
 10
136.976688
 20
441.234636
 30
0.0
 10
139.401048
 20
449.719916
 30
0.0
 10
121.622368
 20
451.336156
 30
0.0
 10
101.015256
 20
466.286412
 30
0.0
 10
94.550280
 20
467.094540
 30
0.0
 10
82.428448
 20
458.609260
 30
0.0
 10
70.306617
 20
444.063060
 30
0.0
 10
62.629458
 20
442.446812
 30
0.0
 10
58.992909
 20
444.467124
 30
0.0
  0
LWPOLYLINE
  5
104
100
AcDbEntity
  8
Layer_1
 62
7
100
AcDbPolyline
 90
26
 70
1
 10
115.561448
 20
358.402124
 30
0.0
 10
114.753328
 20
356.381820
 30
0.0
 10
109.500536
 20
350.724964
 30
0.0
 10
109.096472
 20
343.855924
 30
0.0
 10
112.328960
 20
338.199076
 30
0.0
 10
112.328960
 20
328.501612
 30
0.0
 10
88.893424
 20
318.804140
 30
0.0
 10
73.943166
 20
319.208204
 30
0.0
 10
62.225397
 20
320.016324
 30
0.0
 10
58.184786
 20
317.187900
 30
0.0
 10
48.083261
 20
314.763532
 30
0.0
 10
38.385797
 20
316.379780
 30
0.0
 10
27.880210
 20
319.208204
 30
0.0
 10
12.929953
 20
315.571652
 30
0.0
 10
-16.162441
 20
320.824452
 30
0.0
 10
-10.101526
 20
325.673180
 30
0.0
 10
-0.404061
 20
325.269116
 30
0.0
 10
0.808122
 20
327.289428
 30
0.0
 10
20.607112
 20
330.925972
 30
0.0
 10
31.516759
 20
337.795012
 30
0.0
 10
52.931994
 20
344.259988
 30
0.0
 10
77.579715
 20
358.806188
 30
0.0
 10
84.448752
 20
355.573700
 30
0.0
 10
93.338096
 20
356.381820
 30
0.0
 10
98.186824
 20
361.230548
 30
0.0
 10
115.561448
 20
358.402124
 30
0.0
  0
LWPOLYLINE
  5
105
100
AcDbEntity
  8
Layer_1
 62
7
100
AcDbPolyline
 90
25
 70
1
 10
67.882251
 20
319.208204
 30
0.0
 10
67.074129
 20
311.935108
 30
0.0
 10
42.426407
 20
290.115812
 30
0.0
 10
25.859905
 20
280.014284
 30
0.0
 10
23.435539
 20
267.084332
 30
0.0
 10
16.970562
 20
252.942196
 30
0.0
 10
12.121830
 20
233.951332
 30
0.0
 10
-23.839600
 20
266.276212
 30
0.0
 10
-55.356359
 20
250.113772
 30
0.0
 10
-65.457885
 20
246.881284
 30
0.0
 10
-79.600021
 20
250.517828
 30
0.0
 10
-79.600021
 20
270.316820
 30
0.0
 10
-64.649763
 20
292.540180
 30
0.0
 10
-64.649763
 20
303.449828
 30
0.0
 10
-80.408144
 20
309.914804
 30
0.0
 10
-67.478190
 20
314.763532
 30
0.0
 10
-52.931994
 20
303.045764
 30
0.0
 10
-33.537065
 20
310.318860
 30
0.0
 10
-21.011173
 20
322.440692
 30
0.0
 10
14.546197
 20
315.975716
 30
0.0
 10
28.284271
 20
319.612268
 30
0.0
 10
42.830468
 20
315.571652
 30
0.0
 10
52.527932
 20
315.571652
 30
0.0
 10
62.629458
 20
320.016324
 30
0.0
 10
67.882251
 20
319.208204
 30
0.0
  0
LWPOLYLINE
  5
106
100
AcDbEntity
  8
Layer_1
 62
7
100
AcDbPolyline
 90
30
 70
1
 10
91.721848
 20
208.495484
 30
0.0
 10
91.317792
 20
218.597012
 30
0.0
 10
97.378704
 20
225.061988
 30
0.0
 10
115.965512
 20
233.547268
 30
0.0
 10
127.683280
 20
235.971636
 30
0.0
 10
139.401048
 20
241.628492
 30
0.0
 10
147.482272
 20
248.497524
 30
0.0
 10
167.685320
 20
246.881284
 30
0.0
 10
185.059944
 20
244.860980
 30
0.0
 10
193.141168
 20
248.497524
 30
0.0
 10
193.141168
 20
259.811236
 30
0.0
 10
178.594968
 20
291.327996
 30
0.0
 10
173.746240
 20
311.126988
 30
0.0
 10
174.150296
 20
322.844756
 30
0.0
 10
160.008160
 20
337.795012
 30
0.0
 10
141.825416
 20
332.946276
 30
0.0
 10
111.116784
 20
337.390948
 30
0.0
 10
112.733024
 20
328.501612
 30
0.0
 10
90.105608
 20
319.208204
 30
0.0
 10
67.074129
 20
320.016324
 30
0.0
 10
66.670068
 20
311.126988
 30
0.0
 10
41.214224
 20
288.499564
 30
0.0
 10
25.859905
 20
279.610228
 30
0.0
 10
24.647722
 20
273.145252
 30
0.0
 10
18.586807
 20
254.962500
 30
0.0
 10
12.121830
 20
233.547268
 30
0.0
 10
35.961430
 20
234.355388
 30
0.0
 10
54.548238
 20
201.626452
 30
0.0
 10
70.710678
 20
206.071116
 30
0.0
 10
91.721848
 20
208.495484
 30
0.0
  0
LWPOLYLINE
  5
107
100
AcDbEntity
  8
Layer_1
 62
7
100
AcDbPolyline
 90
40
 70
1
 10
-22.223356
 20
322.844756
 30
0.0
 10
-27.476150
 20
332.138156
 30
0.0
 10
-37.173614
 20
343.047804
 30
0.0
 10
-32.324882
 20
347.088412
 30
0.0
 10
-22.223356
 20
347.088412
 30
0.0
 10
-17.778685
 20
361.230548
 30
0.0
 10
-18.182746
 20
380.221420
 30
0.0
 10
-32.324882
 20
404.465076
 30
0.0
 10
-40.406102
 20
415.374724
 30
0.0
 10
-49.295444
 20
421.435644
 30
0.0
 10
-67.478190
 20
410.930052
 30
0.0
 10
-80.812200
 20
407.697564
 30
0.0
 10
-88.893424
 20
412.950364
 30
0.0
 10
-69.498495
 20
427.092500
 30
0.0
 10
-45.658895
 20
435.173716
 30
0.0
 10
-35.961430
 20
458.205196
 30
0.0
 10
-56.164482
 20
460.225500
 30
0.0
 10
-38.789858
 20
470.327028
 30
0.0
 10
-7.677159
 20
473.963572
 30
0.0
 10
5.656854
 20
478.004188
 30
0.0
 10
14.142136
 20
486.893524
 30
0.0
 10
15.354318
 20
490.934140
 30
0.0
 10
27.476150
 20
495.378812
 30
0.0
 10
37.577674
 20
488.105708
 30
0.0
 10
40.810163
 20
480.024492
 30
0.0
 10
53.336054
 20
469.518900
 30
0.0
 10
53.740115
 20
448.911788
 30
0.0
 10
61.013214
 20
444.063060
 30
0.0
 10
42.022346
 20
423.455948
 30
0.0
 10
44.850773
 20
401.232588
 30
0.0
 10
58.588848
 20
383.049844
 30
0.0
 10
51.315750
 20
373.352380
 30
0.0
 10
52.123871
 20
344.259988
 30
0.0
 10
30.708638
 20
336.582828
 30
0.0
 10
21.415234
 20
330.925972
 30
0.0
 10
0.808122
 20
327.289428
 30
0.0
 10
-0.404061
 20
325.673180
 30
0.0
 10
-11.313709
 20
325.269116
 30
0.0
 10
-14.950258
 20
321.228508
 30
0.0
 10
-22.223356
 20
322.844756
 30
0.0
  0
LWPOLYLINE
  5
108
100
AcDbEntity
  8
Layer_1
 62
7
100
AcDbPolyline
 90
26
 70
1
 10
-81.620328
 20
309.510740
 30
0.0
 10
-96.974648
 20
322.844756
 30
0.0
 10
-100.611192
 20
335.774708
 30
0.0
 10
-98.590888
 20
353.149332
 30
0.0
 10
-108.692416
 20
363.654916
 30
0.0
 10
-159.604104
 20
365.675220
 30
0.0
 10
-164.048776
 20
371.332076
 30
0.0
 10
-162.836592
 20
387.898580
 30
0.0
 10
-155.967552
 20
403.252900
 30
0.0
 10
-112.328960
 20
398.808228
 30
0.0
 10
-87.681240
 20
413.354420
 30
0.0
 10
-80.004080
 20
406.889444
 30
0.0
 10
-66.670068
 20
410.930052
 30
0.0
 10
-49.699506
 20
421.435644
 30
0.0
 10
-38.385797
 20
412.546300
 30
0.0
 10
-18.182746
 20
380.221420
 30
0.0
 10
-16.970562
 20
360.826492
 30
0.0
 10
-22.223356
 20
345.876228
 30
0.0
 10
-31.516759
 20
346.684356
 30
0.0
 10
-36.365492
 20
343.047804
 30
0.0
 10
-27.072088
 20
332.542220
 30
0.0
 10
-21.415234
 20
320.824452
 30
0.0
 10
-31.516759
 20
311.126988
 30
0.0
 10
-52.931994
 20
302.641700
 30
0.0
 10
-67.478190
 20
313.955412
 30
0.0
 10
-81.620328
 20
309.510740
 30
0.0
  0
LWPOLYLINE
  5
109
100
AcDbEntity
  8
Layer_1
 62
7
100
AcDbPolyline
 90
13
 70
1
 10
102.631496
 20
560.028572
 30
0.0
 10
120.814248
 20
565.685428
 30
0.0
 10
154.351312
 20
587.504724
 30
0.0
 10
173.746240
 20
586.292540
 30
0.0
 10
170.109688
 20
574.170708
 30
0.0
 10
178.190912
 20
566.493548
 30
0.0
 10
175.766544
 20
559.624508
 30
0.0
 10
152.735064
 20
543.866132
 30
0.0
 10
142.229480
 20
528.107748
 30
0.0
 10
133.744200
 20
540.229580
 30
0.0
 10
124.854856
 20
547.502684
 30
0.0
 10
104.247744
 20
553.159532
 30
0.0
 10
102.631496
 20
560.028572
 30
0.0
  0
LWPOLYLINE
  5
10a
100
AcDbEntity
  8
Layer_1
 62
7
100
AcDbPolyline
 90
27
 70
1
 10
173.746240
 20
585.080356
 30
0.0
 10
170.513752
 20
573.766644
 30
0.0
 10
178.999032
 20
566.897612
 30
0.0
 10
175.766544
 20
560.028572
 30
0.0
 10
154.351312
 20
545.482372
 30
0.0
 10
142.633536
 20
527.703692
 30
0.0
 10
143.845720
 20
521.642772
 30
0.0
 10
160.008160
 20
515.581860
 30
0.0
 10
158.391920
 20
509.925004
 30
0.0
 10
177.786848
 20
510.329068
 30
0.0
 10
189.908680
 20
518.006228
 30
0.0
 10
207.283304
 20
519.218412
 30
0.0
 10
216.576704
 20
519.622468
 30
0.0
 10
270.720880
 20
503.460028
 30
0.0
 10
277.185856
 20
509.520948
 30
0.0
 10
278.398040
 20
518.006228
 30
0.0
 10
271.529008
 20
528.511812
 30
0.0
 10
271.529008
 20
538.613340
 30
0.0
 10
277.185856
 20
543.058012
 30
0.0
 10
277.993984
 20
569.726036
 30
0.0
 10
269.912760
 20
590.333148
 30
0.0
 10
269.508696
 20
603.667164
 30
0.0
 10
239.204120
 20
601.242796
 30
0.0
 10
218.597008
 20
614.172748
 30
0.0
 10
211.727976
 20
583.060052
 30
0.0
 10
193.545224
 20
574.978828
 30
0.0
 10
173.746240
 20
585.080356
 30
0.0
  0
LWPOLYLINE
  5
10b
100
AcDbEntity
  8
Layer_1
 62
7
100
AcDbPolyline
 90
13
 70
1
 10
269.912760
 20
604.071220
 30
0.0
 10
238.800064
 20
601.646860
 30
0.0
 10
219.001072
 20
614.172748
 30
0.0
 10
228.698536
 20
656.599156
 30
0.0
 10
237.183816
 20
669.933172
 30
0.0
 10
254.154384
 20
675.590020
 30
0.0
 10
306.682312
 20
678.822508
 30
0.0
 10
310.722920
 20
651.750420
 30
0.0
 10
321.632568
 20
635.992044
 30
0.0
 10
312.743232
 20
633.971740
 30
0.0
 10
295.772664
 20
633.971740
 30
0.0
 10
277.589920
 20
620.637724
 30
0.0
 10
269.912760
 20
604.071220
 30
0.0
  0
LWPOLYLINE
  5
10c
100
AcDbEntity
  8
Layer_1
 62
7
100
AcDbPolyline
 90
20
 70
1
 10
159.200040
 20
509.116884
 30
0.0
 10
179.403096
 20
510.329068
 30
0.0
 10
189.908680
 20
518.006228
 30
0.0
 10
217.788888
 20
519.622468
 30
0.0
 10
271.933064
 20
503.055972
 30
0.0
 10
269.912760
 20
499.823476
 30
0.0
 10
264.659968
 20
495.378812
 30
0.0
 10
265.468088
 20
473.559516
 30
0.0
 10
257.386872
 20
477.196060
 30
0.0
 10
247.285344
 20
472.347332
 30
0.0
 10
237.991936
 20
458.205196
 30
0.0
 10
223.041680
 20
452.952404
 30
0.0
 10
219.001072
 20
442.042756
 30
0.0
 10
185.464008
 20
442.042756
 30
0.0
 10
153.139128
 20
449.719916
 30
0.0
 10
163.240648
 20
461.033620
 30
0.0
 10
165.260960
 20
467.902660
 30
0.0
 10
151.522880
 20
473.559516
 30
0.0
 10
149.098512
 20
484.065100
 30
0.0
 10
159.200040
 20
509.116884
 30
0.0
  0
LWPOLYLINE
  5
10d
100
AcDbEntity
  8
Layer_1
 62
7
100
AcDbPolyline
 90
18
 70
1
 10
322.000000
 20
635.142860
 30
0.0
 10
357.428568
 20
582.857148
 30
0.0
 10
354.285712
 20
521.428572
 30
0.0
 10
330.000000
 20
505.142860
 30
0.0
 10
265.714288
 20
473.714284
 30
0.0
 10
264.571432
 20
494.285716
 30
0.0
 10
278.285712
 20
510.000004
 30
0.0
 10
278.571432
 20
518.285716
 30
0.0
 10
271.714288
 20
528.285716
 30
0.0
 10
271.714288
 20
538.285716
 30
0.0
 10
277.142856
 20
544.000004
 30
0.0
 10
277.428568
 20
570.285716
 30
0.0
 10
269.428568
 20
590.285716
 30
0.0
 10
270.000000
 20
604.000004
 30
0.0
 10
277.142856
 20
620.285716
 30
0.0
 10
295.714288
 20
634.000004
 30
0.0
 10
312.571432
 20
634.000004
 30
0.0
 10
322.000000
 20
635.142860
 30
0.0
  0
LWPOLYLINE
  5
10e
100
AcDbEntity
  8
Layer_1
 62
7
100
AcDbPolyline
 90
23
 70
1
 10
258.000000
 20
477.142860
 30
0.0
 10
266.857144
 20
472.000004
 30
0.0
 10
264.000000
 20
468.285716
 30
0.0
 10
280.571432
 20
438.285716
 30
0.0
 10
305.714288
 20
432.857140
 30
0.0
 10
317.428568
 20
426.000004
 30
0.0
 10
342.285712
 20
406.000004
 30
0.0
 10
359.428568
 20
378.857140
 30
0.0
 10
350.285712
 20
369.428572
 30
0.0
 10
322.000000
 20
354.285716
 30
0.0
 10
302.285712
 20
357.428572
 30
0.0
 10
289.714288
 20
353.428572
 30
0.0
 10
289.428568
 20
346.285716
 30
0.0
 10
274.857144
 20
346.000004
 30
0.0
 10
262.571432
 20
350.000004
 30
0.0
 10
241.428568
 20
367.714284
 30
0.0
 10
227.142856
 20
400.000004
 30
0.0
 10
215.142856
 20
410.857140
 30
0.0
 10
219.142856
 20
441.714284
 30
0.0
 10
224.000000
 20
452.285716
 30
0.0
 10
240.285712
 20
458.857140
 30
0.0
 10
248.285712
 20
472.285716
 30
0.0
 10
258.000000
 20
477.142860
 30
0.0
  0
LWPOLYLINE
  5
10f
100
AcDbEntity
  8
Layer_1
 62
7
100
AcDbPolyline
 90
13
 70
1
 10
216.571432
 20
425.714284
 30
0.0
 10
204.571432
 20
422.571428
 30
0.0
 10
198.000000
 20
416.285716
 30
0.0
 10
196.000000
 20
397.428572
 30
0.0
 10
187.714288
 20
378.285716
 30
0.0
 10
192.857144
 20
342.857140
 30
0.0
 10
241.142856
 20
340.285716
 30
0.0
 10
255.714288
 20
344.857140
 30
0.0
 10
263.142856
 20
350.571428
 30
0.0
 10
241.142856
 20
367.714284
 30
0.0
 10
226.571432
 20
400.285716
 30
0.0
 10
214.571432
 20
411.142860
 30
0.0
 10
216.571432
 20
425.714284
 30
0.0
  0
LWPOLYLINE
  5
110
100
AcDbEntity
  8
Layer_1
 62
7
100
AcDbPolyline
 90
24
 70
1
 10
218.571432
 20
442.000004
 30
0.0
 10
217.428568
 20
425.428572
 30
0.0
 10
204.571432
 20
422.285716
 30
0.0
 10
197.142856
 20
415.142860
 30
0.0
 10
195.714288
 20
398.571428
 30
0.0
 10
186.857144
 20
376.857140
 30
0.0
 10
192.571432
 20
342.571428
 30
0.0
 10
180.571432
 20
344.857140
 30
0.0
 10
142.285712
 20
332.571428
 30
0.0
 10
112.857144
 20
336.571428
 30
0.0
 10
112.000000
 20
339.142860
 30
0.0
 10
109.142856
 20
342.857140
 30
0.0
 10
110.000000
 20
351.428572
 30
0.0
 10
115.428568
 20
357.428572
 30
0.0
 10
116.285712
 20
368.000004
 30
0.0
 10
102.285712
 20
384.857140
 30
0.0
 10
102.000000
 20
411.428572
 30
0.0
 10
124.857144
 20
423.142860
 30
0.0
 10
133.428568
 20
439.714284
 30
0.0
 10
138.000000
 20
441.428572
 30
0.0
 10
140.000000
 20
450.285716
 30
0.0
 10
163.428568
 20
447.714284
 30
0.0
 10
188.285712
 20
441.714284
 30
0.0
 10
218.571432
 20
442.000004
 30
0.0
  0
LWPOLYLINE
  5
111
100
AcDbEntity
  8
Layer_1
 62
7
100
AcDbPolyline
 90
29
 70
1
 10
159.714288
 20
337.714284
 30
0.0
 10
180.285712
 20
345.142860
 30
0.0
 10
193.428568
 20
342.285716
 30
0.0
 10
241.428568
 20
340.857140
 30
0.0
 10
256.571432
 20
345.142860
 30
0.0
 10
262.285712
 20
350.285716
 30
0.0
 10
275.428568
 20
346.000004
 30
0.0
 10
290.000000
 20
346.000004
 30
0.0
 10
298.571432
 20
335.714284
 30
0.0
 10
342.571432
 20
320.285716
 30
0.0
 10
347.428568
 20
314.285716
 30
0.0
 10
348.857144
 20
258.285716
 30
0.0
 10
339.142856
 20
239.714284
 30
0.0
 10
308.285712
 20
233.142860
 30
0.0
 10
283.428568
 20
221.142860
 30
0.0
 10
276.857144
 20
212.571428
 30
0.0
 10
277.714288
 20
209.428572
 30
0.0
 10
255.428568
 20
210.285716
 30
0.0
 10
248.000000
 20
221.428572
 30
0.0
 10
231.142856
 20
232.000004
 30
0.0
 10
218.285712
 20
236.285716
 30
0.0
 10
209.714288
 20
241.714284
 30
0.0
 10
201.714288
 20
242.571428
 30
0.0
 10
192.571432
 20
247.428572
 30
0.0
 10
194.000000
 20
260.000004
 30
0.0
 10
179.714288
 20
288.857140
 30
0.0
 10
174.000000
 20
312.857140
 30
0.0
 10
174.285712
 20
322.857140
 30
0.0
 10
159.714288
 20
337.714284
 30
0.0
  0
LWPOLYLINE
  5
112
100
AcDbEntity
  8
Layer_1
 62
7
100
AcDbPolyline
 90
16
 70
1
 10
218.285712
 20
236.000004
 30
0.0
 10
232.571432
 20
231.142860
 30
0.0
 10
248.285712
 20
221.428572
 30
0.0
 10
255.714288
 20
210.285716
 30
0.0
 10
278.571432
 20
208.857140
 30
0.0
 10
281.428568
 20
192.857140
 30
0.0
 10
274.857144
 20
182.285716
 30
0.0
 10
248.285712
 20
160.571428
 30
0.0
 10
227.428568
 20
158.571428
 30
0.0
 10
216.857144
 20
156.857140
 30
0.0
 10
219.428568
 20
177.142860
 30
0.0
 10
214.571432
 20
188.857140
 30
0.0
 10
214.571432
 20
196.571428
 30
0.0
 10
219.428568
 20
209.428572
 30
0.0
 10
220.857144
 20
228.285716
 30
0.0
 10
218.285712
 20
236.000004
 30
0.0
  0
LWPOLYLINE
  5
113
100
AcDbEntity
  8
Layer_1
 62
7
100
AcDbPolyline
 90
26
 70
1
 10
216.857144
 20
156.285716
 30
0.0
 10
205.428568
 20
150.000004
 30
0.0
 10
195.428568
 20
142.285716
 30
0.0
 10
166.285712
 20
149.142860
 30
0.0
 10
154.285712
 20
155.714284
 30
0.0
 10
140.857144
 20
175.142860
 30
0.0
 10
118.571432
 20
197.142860
 30
0.0
 10
98.571432
 20
208.000004
 30
0.0
 10
92.000000
 20
208.000004
 30
0.0
 10
91.142856
 20
218.857140
 30
0.0
 10
97.428568
 20
225.714284
 30
0.0
 10
117.714288
 20
234.285716
 30
0.0
 10
128.571432
 20
236.000004
 30
0.0
 10
140.857144
 20
242.285716
 30
0.0
 10
147.714288
 20
249.428572
 30
0.0
 10
185.428568
 20
244.857140
 30
0.0
 10
193.428568
 20
248.571428
 30
0.0
 10
202.571432
 20
242.857140
 30
0.0
 10
210.285712
 20
241.714284
 30
0.0
 10
218.285712
 20
236.571428
 30
0.0
 10
221.428568
 20
228.571428
 30
0.0
 10
219.428568
 20
208.571428
 30
0.0
 10
215.142856
 20
197.428572
 30
0.0
 10
214.857144
 20
188.857140
 30
0.0
 10
219.428568
 20
178.000004
 30
0.0
 10
216.857144
 20
156.285716
 30
0.0
  0
ENDSEC
  0
SECTION
  2
OBJECTS
  0
DICTIONARY
  5
C
330
0
100
AcDbDictionary
  3
ACAD_GROUP
350
D
  3
ACAD_MLINESTYLE
350
17
  0
DICTIONARY
  5
D
330
C
100
AcDbDictionary
  0
DICTIONARY
  5
1A
330
C
100
AcDbDictionary
  0
DICTIONARY
  5
17
330
C
100
AcDbDictionary
  3
STANDARD
350
18
  0
DICTIONARY
  5
19
330
C
100
AcDbDictionary
  0
ENDSEC
  0
EOF
