  0
SECTION
  2
HEADER
  9
$ACADVER
  1
AC1014
  9
$HANDSEED
  5
FFFF
  9
$MEASUREMENT
 70
     1
  0
ENDSEC
  0
SECTION
  2
TABLES
  0
TABLE
  2
VPORT
  5
8
330
0
100
AcDbSymbolTable
 70
     4
  0
VPORT
  5
2E
330
8
100
AcDbSymbolTableRecord
100
AcDbViewportTableRecord
  2
*ACTIVE
 70
     0
 10
0.0
 20
0.0
 11
1.0
 21
1.0
 12
210.0
 22
148.5
 13
0.0
 23
0.0
 14
10.0
 24
10.0
 15
10.0
 25
10.0
 16
0.0
 26
0.0
 36
1.0
 17
0.0
 27
0.0
 37
0.0
 40
341.0
 41
1.24
 42
50.0
 43
0.0
 44
0.0
 50
0.0
 51
0.0
 71
     0
 72
   100
 73
     1
 74
     3
 75
     0
 76
     0
 77
     0
 78
     0
  0
ENDTAB
  0
TABLE
  2
LTYPE
  5
5
330
0
100
AcDbSymbolTable
 70
     1
  0
LTYPE
  5
14
330
5
100
AcDbSymbolTableRecord
100
AcDbLinetypeTableRecord
  2
BYBLOCK
 70
     0
  3

 72
    65
 73
     0
 40
0.0
  0
LTYPE
  5
15
330
5
100
AcDbSymbolTableRecord
100
AcDbLinetypeTableRecord
  2
BYLAYER
 70
     0
  3

 72
    65
 73
     0
 40
0.0
  0
LTYPE
  5
16
330
5
100
AcDbSymbolTableRecord
100
AcDbLinetypeTableRecord
  2
CONTINUOUS
 70
     0
  3
Solid line
 72
    65
 73
     0
 40
0.0
  0
ENDTAB
  0
TABLE
  2
LAYER
  5
2
100
AcDbSymbolTable
 70
2
  0
LAYER
  5
50
100
AcDbSymbolTableRecord
100
AcDbLayerTableRecord
  2
0
 70
0
  6
CONTINUOUS
  0
LAYER
  5
51
100
AcDbSymbolTableRecord
100
AcDbLayerTableRecord
  2
Layer_1
 70
0
  6
CONTINUOUS
  0
ENDTAB
  0
TABLE
  2
STYLE
  5
3
330
0
100
AcDbSymbolTable
 70
     1
  0
STYLE
  5
11
330
3
100
AcDbSymbolTableRecord
100
AcDbTextStyleTableRecord
  2
STANDARD
 70
     0
 40
0.0
 41
1.0
 50
0.0
 71
     0
 42
2.5
  3
txt
  4

  0
ENDTAB
  0
TABLE
  2
VIEW
  5
6
330
0
100
AcDbSymbolTable
 70
     0
  0
ENDTAB
  0
TABLE
  2
UCS
  5
7
330
0
100
AcDbSymbolTable
 70
     0
  0
ENDTAB
  0
TABLE
  2
APPID
  5
9
330
0
100
AcDbSymbolTable
 70
     2
  0
APPID
  5
12
330
9
100
AcDbSymbolTableRecord
100
AcDbRegAppTableRecord
  2
ACAD
 70
     0
  0
ENDTAB
  0
TABLE
  2
DIMSTYLE
  5
A
330
0
100
AcDbSymbolTable
 70
     1
  0
DIMSTYLE
105
27
330
A
100
AcDbSymbolTableRecord
100
AcDbDimStyleTableRecord
  2
ISO-25
 70
     0
  3

  4

  5

  6

  7

 40
1.0
 41
2.5
 42
0.625
 43
3.75
 44
1.25
 45
0.0
 46
0.0
 47
0.0
 48
0.0
140
2.5
141
2.5
142
0.0
143
0.03937007874016
144
1.0
145
0.0
146
1.0
147
0.625
 71
     0
 72
     0
 73
     0
 74
     0
 75
     0
 76
     0
 77
     1
 78
     8
170
     0
171
     3
172
     1
173
     0
174
     0
175
     0
176
     0
177
     0
178
     0
270
     2
271
     2
272
     2
273
     2
274
     3
340
11
275
     0
280
     0
281
     0
282
     0
283
     0
284
     8
285
     0
286
     0
287
     3
288
     0
  0
ENDTAB
  0
TABLE
  2
BLOCK_RECORD
  5
1
330
0
100
AcDbSymbolTable
 70
     1
  0
BLOCK_RECORD
  5
1F
330
1
100
AcDbSymbolTableRecord
100
AcDbBlockTableRecord
  2
*MODEL_SPACE
  0
BLOCK_RECORD
  5
1B
330
1
100
AcDbSymbolTableRecord
100
AcDbBlockTableRecord
  2
*PAPER_SPACE
  0
ENDTAB
  0
ENDSEC
  0
SECTION
  2
BLOCKS
  0
BLOCK
  5
20
330
1F
100
AcDbEntity
  8
0
100
AcDbBlockBegin
  2
*MODEL_SPACE
 70
     0
 10
0.0
 20
0.0
 30
0.0
  3
*MODEL_SPACE
  1

  0
ENDBLK
  5
21
330
1F
100
AcDbEntity
  8
0
100
AcDbBlockEnd
  0
BLOCK
  5
1C
330
1B
100
AcDbEntity
 67
     1
  8
0
100
AcDbBlockBegin
  2
*PAPER_SPACE
  1

  0
ENDBLK
  5
1D
330
1B
100
AcDbEntity
 67
     1
  8
0
100
AcDbBlockEnd
  0
ENDSEC
  0
SECTION
  2
ENTITIES
  0
LWPOLYLINE
  5
100
100
AcDbEntity
  8
Layer_1
 62
7
100
AcDbPolyline
 90
14
 70
1
 10
-124.450792
 20
696.601196
 30
0.0
 10
-146.270088
 20
711.955516
 30
0.0
 10
-171.321872
 20
716.804244
 30
0.0
 10
-256.174688
 20
701.449924
 30
0.0
 10
-289.307688
 20
652.962604
 30
0.0
 10
-283.650832
 20
635.992044
 30
0.0
 10
-282.842712
 20
619.829604
 30
0.0
 10
-248.093464
 20
615.788988
 30
0.0
 10
-182.635584
 20
593.969700
 30
0.0
 10
-170.513752
 20
593.969700
 30
0.0
 10
-155.159432
 20
644.073260
 30
0.0
 10
-144.653848
 20
659.427580
 30
0.0
 10
-137.380744
 20
663.468196
 30
0.0
 10
-124.450792
 20
696.601196
 30
0.0
  0
LWPOLYLINE
  5
101
100
AcDbEntity
  8
Layer_1
 62
7
100
AcDbPolyline
 90
35
 70
1
 10
-124.046736
 20
696.197132
 30
0.0
 10
-111.924904
 20
687.711852
 30
0.0
 10
-105.863984
 20
670.741292
 30
0.0
 10
-98.590888
 20
657.407276
 30
0.0
 10
-33.537065
 20
605.687468
 30
0.0
 10
-42.426407
 20
591.141268
 30
0.0
 10
-40.002041
 20
575.382892
 30
0.0
 10
-30.304576
 20
556.796084
 30
0.0
 10
-10.505586
 20
532.956484
 30
0.0
 10
-31.112698
 20
520.430588
 30
0.0
 10
-42.426407
 20
509.520948
 30
0.0
 10
-63.033519
 20
499.015356
 30
0.0
 10
-88.085304
 20
478.408244
 30
0.0
 10
-113.137088
 20
448.103668
 30
0.0
 10
-134.552320
 20
399.616348
 30
0.0
 10
-156.371616
 20
414.566604
 30
0.0
 10
-174.554360
 20
418.607212
 30
0.0
 10
-216.576704
 20
419.011276
 30
0.0
 10
-246.073160
 20
429.920924
 30
0.0
 10
-271.529008
 20
428.708740
 30
0.0
 10
-271.529008
 20
434.769652
 30
0.0
 10
-305.874192
 20
446.891484
 30
0.0
 10
-314.763536
 20
463.053924
 30
0.0
 10
-299.409216
 20
479.620428
 30
0.0
 10
-290.519872
 20
497.399116
 30
0.0
 10
-283.246776
 20
570.534156
 30
0.0
 10
-282.842712
 20
620.233660
 30
0.0
 10
-245.669096
 20
615.788996
 30
0.0
 10
-181.827456
 20
593.969700
 30
0.0
 10
-170.513752
 20
594.373756
 30
0.0
 10
-155.563496
 20
644.477324
 30
0.0
 10
-145.461968
 20
659.023524
 30
0.0
 10
-136.168560
 20
664.276316
 30
0.0
 10
-130.511712
 20
682.054996
 30
0.0
 10
-124.046736
 20
696.197132
 30
0.0
  0
LWPOLYLINE
  5
102
100
AcDbEntity
  8
Layer_1
 62
7
100
AcDbPolyline
 90
18
 70
1
 10
-132.936072
 20
400.020412
 30
0.0
 10
-151.118824
 20
373.756444
 30
0.0
 10
-163.240648
 20
358.402124
 30
0.0
 10
-173.746240
 20
325.673180
 30
0.0
 10
-172.938112
 20
273.549308
 30
0.0
 10
-217.384824
 20
273.549308
 30
0.0
 10
-237.183816
 20
266.276212
 30
0.0
 10
-254.154384
 20
284.054900
 30
0.0
 10
-263.043720
 20
298.197028
 30
0.0
 10
-307.490432
 20
337.795012
 30
0.0
 10
-274.761496
 20
388.302636
 30
0.0
 10
-269.508696
 20
413.354420
 30
0.0
 10
-271.933064
 20
428.708740
 30
0.0
 10
-245.669096
 20
430.324988
 30
0.0
 10
-216.980768
 20
419.011276
 30
0.0
 10
-174.554360
 20
419.415340
 30
0.0
 10
-154.351312
 20
414.566604
 30
0.0
 10
-132.936072
 20
400.020412
 30
0.0
  0
LWPOLYLINE
  5
103
100
AcDbEntity
  8
Layer_1
 62
7
100
AcDbPolyline
 90
10
 70
1
 10
-237.991936
 20
266.680276
 30
0.0
 10
-255.366560
 20
284.863020
 30
0.0
 10
-262.235600
 20
298.197028
 30
0.0
 10
-307.894496
 20
337.390948
 30
0.0
 10
-315.167592
 20
323.652876
 30
0.0
 10
-321.632568
 20
291.327996
 30
0.0
 10
-319.208208
 20
264.255908
 30
0.0
 10
-298.601096
 20
261.427476
 30
0.0
 10
-265.064032
 20
262.639660
 30
0.0
 10
-237.991936
 20
266.680276
 30
0.0
  0
LWPOLYLINE
  5
104
100
AcDbEntity
  8
Layer_1
 62
7
100
AcDbPolyline
 90
21
 70
1
 10
-172.534056
 20
274.357428
 30
0.0
 10
-149.098512
 20
267.488396
 30
0.0
 10
-125.662976
 20
258.194988
 30
0.0
 10
-102.631496
 20
242.840676
 30
0.0
 10
-90.509672
 20
223.445740
 30
0.0
 10
-68.286312
 20
199.202084
 30
0.0
 10
-45.254834
 20
196.373652
 30
0.0
 10
-24.647722
 20
212.132036
 30
0.0
 10
1.616244
 20
252.134076
 30
0.0
 10
16.162441
 20
288.903628
 30
0.0
 10
19.798990
 20
324.056940
 30
0.0
 10
-2.020305
 20
334.562524
 30
0.0
 10
-13.334014
 20
343.855924
 30
0.0
 10
-14.950258
 20
363.654916
 30
0.0
 10
-25.455844
 20
381.433604
 30
0.0
 10
-49.295444
 20
391.535124
 30
0.0
 10
-106.268048
 20
391.131068
 30
0.0
 10
-133.340136
 20
399.212284
 30
0.0
 10
-162.836592
 20
358.806188
 30
0.0
 10
-174.150296
 20
325.269116
 30
0.0
 10
-172.534056
 20
274.357428
 30
0.0
  0
LWPOLYLINE
  5
105
100
AcDbEntity
  8
Layer_1
 62
7
100
AcDbPolyline
 90
26
 70
1
 10
20.607112
 20
324.056940
 30
0.0
 10
21.819295
 20
334.158460
 30
0.0
 10
18.990868
 20
375.372684
 30
0.0
 10
11.717770
 20
387.494516
 30
0.0
 10
10.101526
 20
400.828532
 30
0.0
 10
17.374624
 20
410.121932
 30
0.0
 10
21.011173
 20
424.668132
 30
0.0
 10
20.607112
 20
448.911788
 30
0.0
 10
27.880210
 20
483.256980
 30
0.0
 10
27.880210
 20
494.974748
 30
0.0
 10
35.961430
 20
509.116884
 30
0.0
 10
-10.505586
 20
533.360548
 30
0.0
 10
-31.112698
 20
520.834652
 30
0.0
 10
-42.022346
 20
509.116884
 30
0.0
 10
-62.225397
 20
499.015356
 30
0.0
 10
-87.681240
 20
479.216364
 30
0.0
 10
-113.541144
 20
448.507732
 30
0.0
 10
-134.956384
 20
400.424468
 30
0.0
 10
-117.177696
 20
393.555436
 30
0.0
 10
-103.843680
 20
389.918884
 30
0.0
 10
-48.487322
 20
391.131068
 30
0.0
 10
-24.647722
 20
380.221420
 30
0.0
 10
-15.354318
 20
361.634612
 30
0.0
 10
-13.738074
 20
343.451868
 30
0.0
 10
-1.212183
 20
333.754404
 30
0.0
 10
20.607112
 20
324.056940
 30
0.0
  0
LWPOLYLINE
  5
106
100
AcDbEntity
  8
Layer_1
 62
7
100
AcDbPolyline
 90
26
 70
1
 10
21.819295
 20
334.966588
 30
0.0
 10
42.830468
 20
355.169636
 30
0.0
 10
59.801030
 20
364.058980
 30
0.0
 10
81.216264
 20
360.018364
 30
0.0
 10
108.288352
 20
362.846796
 30
0.0
 10
140.209176
 20
381.029540
 30
0.0
 10
188.292432
 20
395.979796
 30
0.0
 10
235.163512
 20
406.889444
 30
0.0
 10
243.648792
 20
418.203156
 30
0.0
 10
247.285344
 20
432.749348
 30
0.0
 10
222.233560
 20
470.327028
 30
0.0
 10
201.626448
 20
467.498596
 30
0.0
 10
176.978728
 20
477.600124
 30
0.0
 10
140.613232
 20
490.934140
 30
0.0
 10
103.439624
 20
503.864092
 30
0.0
 10
49.699506
 20
504.268148
 30
0.0
 10
36.365492
 20
508.712820
 30
0.0
 10
27.880210
 20
496.186932
 30
0.0
 10
28.284271
 20
482.852916
 30
0.0
 10
20.607112
 20
447.699612
 30
0.0
 10
20.607112
 20
422.647828
 30
0.0
 10
16.566502
 20
410.121932
 30
0.0
 10
10.101526
 20
401.232588
 30
0.0
 10
12.121830
 20
385.474212
 30
0.0
 10
19.394929
 20
374.160500
 30
0.0
 10
21.819295
 20
334.966588
 30
0.0
  0
LWPOLYLINE
  5
107
100
AcDbEntity
  8
Layer_1
 62
7
100
AcDbPolyline
 90
27
 70
1
 10
221.829496
 20
470.731084
 30
0.0
 10
192.333048
 20
515.177796
 30
0.0
 10
181.827456
 20
547.098620
 30
0.0
 10
188.292432
 20
564.877300
 30
0.0
 10
196.373656
 20
569.321972
 30
0.0
 10
209.303608
 20
562.048876
 30
0.0
 10
219.405136
 20
565.685428
 30
0.0
 10
204.050816
 20
627.506764
 30
0.0
 10
189.908680
 20
642.861084
 30
0.0
 10
161.624408
 20
642.052956
 30
0.0
 10
139.805112
 20
644.477324
 30
0.0
 10
123.642672
 20
648.517932
 30
0.0
 10
107.076168
 20
656.195092
 30
0.0
 10
35.557370
 20
640.032652
 30
0.0
 10
-0.808122
 20
623.466148
 30
0.0
 10
-14.546197
 20
611.748380
 30
0.0
 10
-22.223356
 20
599.222492
 30
0.0
 10
-33.133003
 20
606.495588
 30
0.0
 10
-42.426407
 20
590.737212
 30
0.0
 10
-40.810163
 20
574.574772
 30
0.0
 10
-30.708638
 20
557.604204
 30
0.0
 10
-12.121830
 20
533.360548
 30
0.0
 10
35.961430
 20
508.308764
 30
0.0
 10
51.315750
 20
503.460028
 30
0.0
 10
102.631496
 20
503.460028
 30
0.0
 10
203.646752
 20
466.286412
 30
0.0
 10
221.829496
 20
470.731084
 30
0.0
  0
ENDSEC
  0
SECTION
  2
OBJECTS
  0
DICTIONARY
  5
C
330
0
100
AcDbDictionary
  3
ACAD_GROUP
350
D
  3
ACAD_MLINESTYLE
350
17
  0
DICTIONARY
  5
D
330
C
100
AcDbDictionary
  0
DICTIONARY
  5
1A
330
C
100
AcDbDictionary
  0
DICTIONARY
  5
17
330
C
100
AcDbDictionary
  3
STANDARD
350
18
  0
DICTIONARY
  5
19
330
C
100
AcDbDictionary
  0
ENDSEC
  0
EOF
