  0
SECTION
  2
HEADER
  9
$ACADVER
  1
AC1014
  9
$HANDSEED
  5
FFFF
  9
$MEASUREMENT
 70
     1
  0
ENDSEC
  0
SECTION
  2
TABLES
  0
TABLE
  2
VPORT
  5
8
330
0
100
AcDbSymbolTable
 70
     4
  0
VPORT
  5
2E
330
8
100
AcDbSymbolTableRecord
100
AcDbViewportTableRecord
  2
*ACTIVE
 70
     0
 10
0.0
 20
0.0
 11
1.0
 21
1.0
 12
210.0
 22
148.5
 13
0.0
 23
0.0
 14
10.0
 24
10.0
 15
10.0
 25
10.0
 16
0.0
 26
0.0
 36
1.0
 17
0.0
 27
0.0
 37
0.0
 40
341.0
 41
1.24
 42
50.0
 43
0.0
 44
0.0
 50
0.0
 51
0.0
 71
     0
 72
   100
 73
     1
 74
     3
 75
     0
 76
     0
 77
     0
 78
     0
  0
ENDTAB
  0
TABLE
  2
LTYPE
  5
5
330
0
100
AcDbSymbolTable
 70
     1
  0
LTYPE
  5
14
330
5
100
AcDbSymbolTableRecord
100
AcDbLinetypeTableRecord
  2
BYBLOCK
 70
     0
  3

 72
    65
 73
     0
 40
0.0
  0
LTYPE
  5
15
330
5
100
AcDbSymbolTableRecord
100
AcDbLinetypeTableRecord
  2
BYLAYER
 70
     0
  3

 72
    65
 73
     0
 40
0.0
  0
LTYPE
  5
16
330
5
100
AcDbSymbolTableRecord
100
AcDbLinetypeTableRecord
  2
CONTINUOUS
 70
     0
  3
Solid line
 72
    65
 73
     0
 40
0.0
  0
ENDTAB
  0
TABLE
  2
LAYER
  5
2
100
AcDbSymbolTable
 70
2
  0
LAYER
  5
50
100
AcDbSymbolTableRecord
100
AcDbLayerTableRecord
  2
0
 70
0
  6
CONTINUOUS
  0
LAYER
  5
51
100
AcDbSymbolTableRecord
100
AcDbLayerTableRecord
  2
Layer_1
 70
0
  6
CONTINUOUS
  0
ENDTAB
  0
TABLE
  2
STYLE
  5
3
330
0
100
AcDbSymbolTable
 70
     1
  0
STYLE
  5
11
330
3
100
AcDbSymbolTableRecord
100
AcDbTextStyleTableRecord
  2
STANDARD
 70
     0
 40
0.0
 41
1.0
 50
0.0
 71
     0
 42
2.5
  3
txt
  4

  0
ENDTAB
  0
TABLE
  2
VIEW
  5
6
330
0
100
AcDbSymbolTable
 70
     0
  0
ENDTAB
  0
TABLE
  2
UCS
  5
7
330
0
100
AcDbSymbolTable
 70
     0
  0
ENDTAB
  0
TABLE
  2
APPID
  5
9
330
0
100
AcDbSymbolTable
 70
     2
  0
APPID
  5
12
330
9
100
AcDbSymbolTableRecord
100
AcDbRegAppTableRecord
  2
ACAD
 70
     0
  0
ENDTAB
  0
TABLE
  2
DIMSTYLE
  5
A
330
0
100
AcDbSymbolTable
 70
     1
  0
DIMSTYLE
105
27
330
A
100
AcDbSymbolTableRecord
100
AcDbDimStyleTableRecord
  2
ISO-25
 70
     0
  3

  4

  5

  6

  7

 40
1.0
 41
2.5
 42
0.625
 43
3.75
 44
1.25
 45
0.0
 46
0.0
 47
0.0
 48
0.0
140
2.5
141
2.5
142
0.0
143
0.03937007874016
144
1.0
145
0.0
146
1.0
147
0.625
 71
     0
 72
     0
 73
     0
 74
     0
 75
     0
 76
     0
 77
     1
 78
     8
170
     0
171
     3
172
     1
173
     0
174
     0
175
     0
176
     0
177
     0
178
     0
270
     2
271
     2
272
     2
273
     2
274
     3
340
11
275
     0
280
     0
281
     0
282
     0
283
     0
284
     8
285
     0
286
     0
287
     3
288
     0
  0
ENDTAB
  0
TABLE
  2
BLOCK_RECORD
  5
1
330
0
100
AcDbSymbolTable
 70
     1
  0
BLOCK_RECORD
  5
1F
330
1
100
AcDbSymbolTableRecord
100
AcDbBlockTableRecord
  2
*MODEL_SPACE
  0
BLOCK_RECORD
  5
1B
330
1
100
AcDbSymbolTableRecord
100
AcDbBlockTableRecord
  2
*PAPER_SPACE
  0
ENDTAB
  0
ENDSEC
  0
SECTION
  2
BLOCKS
  0
BLOCK
  5
20
330
1F
100
AcDbEntity
  8
0
100
AcDbBlockBegin
  2
*MODEL_SPACE
 70
     0
 10
0.0
 20
0.0
 30
0.0
  3
*MODEL_SPACE
  1

  0
ENDBLK
  5
21
330
1F
100
AcDbEntity
  8
0
100
AcDbBlockEnd
  0
BLOCK
  5
1C
330
1B
100
AcDbEntity
 67
     1
  8
0
100
AcDbBlockBegin
  2
*PAPER_SPACE
  1

  0
ENDBLK
  5
1D
330
1B
100
AcDbEntity
 67
     1
  8
0
100
AcDbBlockEnd
  0
ENDSEC
  0
SECTION
  2
ENTITIES
  0
LWPOLYLINE
  5
100
100
AcDbEntity
  8
Layer_1
 62
7
100
AcDbPolyline
 90
21
 70
1
 10
-368.285712
 20
541.142860
 30
0.0
 10
-364.857144
 20
587.714284
 30
0.0
 10
-361.142856
 20
602.571428
 30
0.0
 10
-332.857144
 20
659.714284
 30
0.0
 10
-287.714288
 20
698.857148
 30
0.0
 10
-246.000000
 20
700.000004
 30
0.0
 10
-234.857144
 20
706.571428
 30
0.0
 10
-216.285712
 20
698.285716
 30
0.0
 10
-180.857144
 20
664.571428
 30
0.0
 10
-188.571432
 20
657.428572
 30
0.0
 10
-201.142856
 20
655.428572
 30
0.0
 10
-206.571432
 20
655.142860
 30
0.0
 10
-230.857144
 20
615.428572
 30
0.0
 10
-245.428568
 20
603.714284
 30
0.0
 10
-269.142856
 20
591.142860
 30
0.0
 10
-287.142856
 20
578.285716
 30
0.0
 10
-321.714288
 20
537.142860
 30
0.0
 10
-329.714288
 20
519.428572
 30
0.0
 10
-347.714288
 20
521.142860
 30
0.0
 10
-362.857144
 20
529.428572
 30
0.0
 10
-368.285712
 20
541.142860
 30
0.0
  0
LWPOLYLINE
  5
101
100
AcDbEntity
  8
Layer_1
 62
7
100
AcDbPolyline
 90
40
 70
1
 10
-329.428568
 20
519.142860
 30
0.0
 10
-302.285712
 20
511.142860
 30
0.0
 10
-279.714288
 20
494.571428
 30
0.0
 10
-266.000000
 20
484.000004
 30
0.0
 10
-271.142856
 20
467.428572
 30
0.0
 10
-255.714288
 20
457.142860
 30
0.0
 10
-236.285712
 20
437.714284
 30
0.0
 10
-214.857144
 20
424.857140
 30
0.0
 10
-198.571432
 20
422.285716
 30
0.0
 10
-186.857144
 20
432.571428
 30
0.0
 10
-180.000000
 20
438.571428
 30
0.0
 10
-189.428568
 20
445.428572
 30
0.0
 10
-192.571432
 20
454.857140
 30
0.0
 10
-189.142856
 20
462.000004
 30
0.0
 10
-183.142856
 20
463.142860
 30
0.0
 10
-177.428568
 20
466.285716
 30
0.0
 10
-180.571432
 20
472.857140
 30
0.0
 10
-181.714288
 20
484.000004
 30
0.0
 10
-170.000000
 20
496.857140
 30
0.0
 10
-166.857144
 20
507.428572
 30
0.0
 10
-164.285712
 20
522.857140
 30
0.0
 10
-164.571432
 20
535.714284
 30
0.0
 10
-157.142856
 20
558.285716
 30
0.0
 10
-133.714288
 20
564.000004
 30
0.0
 10
-127.714288
 20
576.857140
 30
0.0
 10
-105.428568
 20
583.142860
 30
0.0
 10
-98.285712
 20
589.714284
 30
0.0
 10
-75.714286
 20
598.857148
 30
0.0
 10
-66.000000
 20
600.285716
 30
0.0
 10
-59.142858
 20
606.285716
 30
0.0
 10
-162.571432
 20
647.428572
 30
0.0
 10
-180.000000
 20
664.000004
 30
0.0
 10
-187.714288
 20
657.142860
 30
0.0
 10
-206.571432
 20
654.857148
 30
0.0
 10
-230.857144
 20
614.857148
 30
0.0
 10
-243.714288
 20
604.857148
 30
0.0
 10
-266.857144
 20
592.000004
 30
0.0
 10
-287.428568
 20
578.000004
 30
0.0
 10
-321.714288
 20
536.857140
 30
0.0
 10
-329.428568
 20
519.142860
 30
0.0
  0
LWPOLYLINE
  5
102
100
AcDbEntity
  8
Layer_1
 62
7
100
AcDbPolyline
 90
61
 70
1
 10
-179.714288
 20
438.285716
 30
0.0
 10
-157.428568
 20
437.428572
 30
0.0
 10
-132.285712
 20
423.714284
 30
0.0
 10
-121.428568
 20
422.285716
 30
0.0
 10
-94.000000
 20
401.714284
 30
0.0
 10
-69.714286
 20
398.857140
 30
0.0
 10
-58.285714
 20
424.000004
 30
0.0
 10
-50.285714
 20
436.571428
 30
0.0
 10
-39.428571
 20
441.428572
 30
0.0
 10
-30.285714
 20
437.714284
 30
0.0
 10
-14.857143
 20
423.142860
 30
0.0
 10
41.428571
 20
432.571428
 30
0.0
 10
63.142858
 20
430.571428
 30
0.0
 10
64.857143
 20
443.714284
 30
0.0
 10
85.142856
 20
464.571428
 30
0.0
 10
124.857144
 20
473.142860
 30
0.0
 10
152.857144
 20
506.285716
 30
0.0
 10
165.714288
 20
524.571428
 30
0.0
 10
178.285712
 20
563.428572
 30
0.0
 10
184.285712
 20
590.857148
 30
0.0
 10
166.857144
 20
606.571428
 30
0.0
 10
153.714288
 20
636.285716
 30
0.0
 10
137.428568
 20
638.571428
 30
0.0
 10
127.142856
 20
635.142860
 30
0.0
 10
126.000000
 20
619.142860
 30
0.0
 10
135.714288
 20
608.000004
 30
0.0
 10
132.000000
 20
594.571428
 30
0.0
 10
122.571432
 20
589.142860
 30
0.0
 10
102.285712
 20
593.142860
 30
0.0
 10
94.000000
 20
618.285716
 30
0.0
 10
67.428571
 20
618.285716
 30
0.0
 10
58.571429
 20
623.428572
 30
0.0
 10
65.714286
 20
635.142860
 30
0.0
 10
64.857143
 20
669.714284
 30
0.0
 10
49.142858
 20
677.142860
 30
0.0
 10
35.142857
 20
664.857148
 30
0.0
 10
29.142857
 20
626.571428
 30
0.0
 10
16.857143
 20
601.714284
 30
0.0
 10
0.857143
 20
587.428572
 30
0.0
 10
-16.857143
 20
586.285716
 30
0.0
 10
-36.000000
 20
598.285716
 30
0.0
 10
-40.571429
 20
598.285716
 30
0.0
 10
-60.000000
 20
606.571428
 30
0.0
 10
-67.142858
 20
599.142860
 30
0.0
 10
-75.428571
 20
599.142860
 30
0.0
 10
-98.285712
 20
589.428572
 30
0.0
 10
-105.714288
 20
582.857148
 30
0.0
 10
-128.285712
 20
576.571428
 30
0.0
 10
-134.000000
 20
563.714284
 30
0.0
 10
-157.142856
 20
557.714284
 30
0.0
 10
-164.285712
 20
536.285716
 30
0.0
 10
-164.285712
 20
520.857140
 30
0.0
 10
-170.000000
 20
496.571428
 30
0.0
 10
-181.428568
 20
483.428572
 30
0.0
 10
-180.285712
 20
472.857140
 30
0.0
 10
-177.428568
 20
466.285716
 30
0.0
 10
-184.285712
 20
462.285716
 30
0.0
 10
-189.428568
 20
462.571428
 30
0.0
 10
-191.714288
 20
455.714284
 30
0.0
 10
-189.714288
 20
445.714284
 30
0.0
 10
-179.714288
 20
438.285716
 30
0.0
  0
LWPOLYLINE
  5
103
100
AcDbEntity
  8
Layer_1
 62
7
100
AcDbPolyline
 90
20
 70
1
 10
-70.571429
 20
399.142860
 30
0.0
 10
-76.857143
 20
388.571428
 30
0.0
 10
-77.142858
 20
374.000004
 30
0.0
 10
-59.714286
 20
361.428572
 30
0.0
 10
-51.428571
 20
346.857140
 30
0.0
 10
-44.000000
 20
323.428572
 30
0.0
 10
-32.857143
 20
315.428572
 30
0.0
 10
-18.571429
 20
311.714284
 30
0.0
 10
10.571429
 20
295.714284
 30
0.0
 10
27.428571
 20
314.857140
 30
0.0
 10
52.857143
 20
334.000004
 30
0.0
 10
58.000000
 20
366.000004
 30
0.0
 10
60.285714
 20
413.142860
 30
0.0
 10
62.857143
 20
430.285716
 30
0.0
 10
40.285714
 20
432.285716
 30
0.0
 10
-16.571429
 20
423.428572
 30
0.0
 10
-30.571429
 20
437.428572
 30
0.0
 10
-39.428571
 20
442.000004
 30
0.0
 10
-50.571429
 20
436.571428
 30
0.0
 10
-70.571429
 20
399.142860
 30
0.0
  0
LWPOLYLINE
  5
104
100
AcDbEntity
  8
Layer_1
 62
7
100
AcDbPolyline
 90
35
 70
1
 10
42.285714
 20
226.000004
 30
0.0
 10
-34.000000
 20
199.428572
 30
0.0
 10
-116.285712
 20
198.285716
 30
0.0
 10
-186.000000
 20
225.714284
 30
0.0
 10
-228.285712
 20
258.857140
 30
0.0
 10
-247.714288
 20
270.285716
 30
0.0
 10
-236.000000
 20
300.571428
 30
0.0
 10
-228.285712
 20
308.571428
 30
0.0
 10
-219.428568
 20
308.000004
 30
0.0
 10
-210.857144
 20
302.571428
 30
0.0
 10
-202.285712
 20
302.857140
 30
0.0
 10
-192.857144
 20
313.714284
 30
0.0
 10
-192.857144
 20
330.285716
 30
0.0
 10
-198.000000
 20
354.000004
 30
0.0
 10
-197.142856
 20
364.285716
 30
0.0
 10
-162.571432
 20
394.857140
 30
0.0
 10
-159.714288
 20
410.000004
 30
0.0
 10
-162.285712
 20
420.571428
 30
0.0
 10
-180.000000
 20
437.428572
 30
0.0
 10
-156.571432
 20
437.428572
 30
0.0
 10
-132.285712
 20
423.714284
 30
0.0
 10
-120.857144
 20
422.285716
 30
0.0
 10
-94.000000
 20
401.142860
 30
0.0
 10
-70.000000
 20
399.142860
 30
0.0
 10
-76.285714
 20
388.285716
 30
0.0
 10
-76.571429
 20
374.285716
 30
0.0
 10
-60.000000
 20
362.000004
 30
0.0
 10
-52.000000
 20
349.428572
 30
0.0
 10
-43.714286
 20
323.714284
 30
0.0
 10
-31.714286
 20
314.857140
 30
0.0
 10
-18.000000
 20
311.714284
 30
0.0
 10
10.857143
 20
295.428572
 30
0.0
 10
-3.714286
 20
277.428572
 30
0.0
 10
12.857143
 20
242.571428
 30
0.0
 10
42.285714
 20
226.000004
 30
0.0
  0
LWPOLYLINE
  5
105
100
AcDbEntity
  8
Layer_1
 62
7
100
AcDbPolyline
 90
30
 70
1
 10
-247.714288
 20
270.000004
 30
0.0
 10
-273.428568
 20
285.428572
 30
0.0
 10
-295.142856
 20
291.714284
 30
0.0
 10
-328.285712
 20
304.571428
 30
0.0
 10
-322.000000
 20
312.571428
 30
0.0
 10
-324.285712
 20
326.000004
 30
0.0
 10
-337.428568
 20
346.000004
 30
0.0
 10
-340.000000
 20
416.571428
 30
0.0
 10
-330.571432
 20
429.714284
 30
0.0
 10
-312.857144
 20
441.428572
 30
0.0
 10
-294.285712
 20
450.000004
 30
0.0
 10
-271.428568
 20
468.000004
 30
0.0
 10
-255.142856
 20
456.285716
 30
0.0
 10
-236.000000
 20
438.285716
 30
0.0
 10
-213.428568
 20
424.285716
 30
0.0
 10
-197.714288
 20
422.571428
 30
0.0
 10
-180.000000
 20
437.714284
 30
0.0
 10
-161.714288
 20
419.714284
 30
0.0
 10
-159.714288
 20
410.571428
 30
0.0
 10
-162.857144
 20
393.428572
 30
0.0
 10
-197.142856
 20
364.285716
 30
0.0
 10
-197.714288
 20
351.428572
 30
0.0
 10
-192.857144
 20
330.571428
 30
0.0
 10
-193.142856
 20
313.428572
 30
0.0
 10
-201.142856
 20
303.714284
 30
0.0
 10
-211.142856
 20
302.571428
 30
0.0
 10
-218.857144
 20
308.285716
 30
0.0
 10
-227.714288
 20
308.857140
 30
0.0
 10
-236.285712
 20
300.571428
 30
0.0
 10
-247.714288
 20
270.000004
 30
0.0
  0
ENDSEC
  0
SECTION
  2
OBJECTS
  0
DICTIONARY
  5
C
330
0
100
AcDbDictionary
  3
ACAD_GROUP
350
D
  3
ACAD_MLINESTYLE
350
17
  0
DICTIONARY
  5
D
330
C
100
AcDbDictionary
  0
DICTIONARY
  5
1A
330
C
100
AcDbDictionary
  0
DICTIONARY
  5
17
330
C
100
AcDbDictionary
  3
STANDARD
350
18
  0
DICTIONARY
  5
19
330
C
100
AcDbDictionary
  0
ENDSEC
  0
EOF
