  0
SECTION
  2
HEADER
  9
$ACADVER
  1
AC1014
  9
$HANDSEED
  5
FFFF
  9
$MEASUREMENT
 70
     1
  0
ENDSEC
  0
SECTION
  2
TABLES
  0
TABLE
  2
VPORT
  5
8
330
0
100
AcDbSymbolTable
 70
     4
  0
VPORT
  5
2E
330
8
100
AcDbSymbolTableRecord
100
AcDbViewportTableRecord
  2
*ACTIVE
 70
     0
 10
0.0
 20
0.0
 11
1.0
 21
1.0
 12
210.0
 22
148.5
 13
0.0
 23
0.0
 14
10.0
 24
10.0
 15
10.0
 25
10.0
 16
0.0
 26
0.0
 36
1.0
 17
0.0
 27
0.0
 37
0.0
 40
341.0
 41
1.24
 42
50.0
 43
0.0
 44
0.0
 50
0.0
 51
0.0
 71
     0
 72
   100
 73
     1
 74
     3
 75
     0
 76
     0
 77
     0
 78
     0
  0
ENDTAB
  0
TABLE
  2
LTYPE
  5
5
330
0
100
AcDbSymbolTable
 70
     1
  0
LTYPE
  5
14
330
5
100
AcDbSymbolTableRecord
100
AcDbLinetypeTableRecord
  2
BYBLOCK
 70
     0
  3

 72
    65
 73
     0
 40
0.0
  0
LTYPE
  5
15
330
5
100
AcDbSymbolTableRecord
100
AcDbLinetypeTableRecord
  2
BYLAYER
 70
     0
  3

 72
    65
 73
     0
 40
0.0
  0
LTYPE
  5
16
330
5
100
AcDbSymbolTableRecord
100
AcDbLinetypeTableRecord
  2
CONTINUOUS
 70
     0
  3
Solid line
 72
    65
 73
     0
 40
0.0
  0
ENDTAB
  0
TABLE
  2
LAYER
  5
2
100
AcDbSymbolTable
 70
2
  0
LAYER
  5
50
100
AcDbSymbolTableRecord
100
AcDbLayerTableRecord
  2
0
 70
0
  6
CONTINUOUS
  0
LAYER
  5
51
100
AcDbSymbolTableRecord
100
AcDbLayerTableRecord
  2
Layer_1
 70
0
  6
CONTINUOUS
  0
ENDTAB
  0
TABLE
  2
STYLE
  5
3
330
0
100
AcDbSymbolTable
 70
     1
  0
STYLE
  5
11
330
3
100
AcDbSymbolTableRecord
100
AcDbTextStyleTableRecord
  2
STANDARD
 70
     0
 40
0.0
 41
1.0
 50
0.0
 71
     0
 42
2.5
  3
txt
  4

  0
ENDTAB
  0
TABLE
  2
VIEW
  5
6
330
0
100
AcDbSymbolTable
 70
     0
  0
ENDTAB
  0
TABLE
  2
UCS
  5
7
330
0
100
AcDbSymbolTable
 70
     0
  0
ENDTAB
  0
TABLE
  2
APPID
  5
9
330
0
100
AcDbSymbolTable
 70
     2
  0
APPID
  5
12
330
9
100
AcDbSymbolTableRecord
100
AcDbRegAppTableRecord
  2
ACAD
 70
     0
  0
ENDTAB
  0
TABLE
  2
DIMSTYLE
  5
A
330
0
100
AcDbSymbolTable
 70
     1
  0
DIMSTYLE
105
27
330
A
100
AcDbSymbolTableRecord
100
AcDbDimStyleTableRecord
  2
ISO-25
 70
     0
  3

  4

  5

  6

  7

 40
1.0
 41
2.5
 42
0.625
 43
3.75
 44
1.25
 45
0.0
 46
0.0
 47
0.0
 48
0.0
140
2.5
141
2.5
142
0.0
143
0.03937007874016
144
1.0
145
0.0
146
1.0
147
0.625
 71
     0
 72
     0
 73
     0
 74
     0
 75
     0
 76
     0
 77
     1
 78
     8
170
     0
171
     3
172
     1
173
     0
174
     0
175
     0
176
     0
177
     0
178
     0
270
     2
271
     2
272
     2
273
     2
274
     3
340
11
275
     0
280
     0
281
     0
282
     0
283
     0
284
     8
285
     0
286
     0
287
     3
288
     0
  0
ENDTAB
  0
TABLE
  2
BLOCK_RECORD
  5
1
330
0
100
AcDbSymbolTable
 70
     1
  0
BLOCK_RECORD
  5
1F
330
1
100
AcDbSymbolTableRecord
100
AcDbBlockTableRecord
  2
*MODEL_SPACE
  0
BLOCK_RECORD
  5
1B
330
1
100
AcDbSymbolTableRecord
100
AcDbBlockTableRecord
  2
*PAPER_SPACE
  0
ENDTAB
  0
ENDSEC
  0
SECTION
  2
BLOCKS
  0
BLOCK
  5
20
330
1F
100
AcDbEntity
  8
0
100
AcDbBlockBegin
  2
*MODEL_SPACE
 70
     0
 10
0.0
 20
0.0
 30
0.0
  3
*MODEL_SPACE
  1

  0
ENDBLK
  5
21
330
1F
100
AcDbEntity
  8
0
100
AcDbBlockEnd
  0
BLOCK
  5
1C
330
1B
100
AcDbEntity
 67
     1
  8
0
100
AcDbBlockBegin
  2
*PAPER_SPACE
  1

  0
ENDBLK
  5
1D
330
1B
100
AcDbEntity
 67
     1
  8
0
100
AcDbBlockEnd
  0
ENDSEC
  0
SECTION
  2
ENTITIES
  0
LWPOLYLINE
  5
100
100
AcDbEntity
  8
Layer_1
 62
7
100
AcDbPolyline
 90
33
 70
1
 10
252.000000
 20
759.428572
 30
0.0
 10
223.428568
 20
736.000004
 30
0.0
 10
208.285712
 20
725.714284
 30
0.0
 10
190.285712
 20
727.714284
 30
0.0
 10
186.285712
 20
731.714284
 30
0.0
 10
182.000000
 20
731.714284
 30
0.0
 10
162.000000
 20
743.714284
 30
0.0
 10
150.000000
 20
746.857148
 30
0.0
 10
148.571432
 20
758.000004
 30
0.0
 10
144.285712
 20
760.857148
 30
0.0
 10
138.857144
 20
758.857148
 30
0.0
 10
134.571432
 20
746.285716
 30
0.0
 10
139.142856
 20
740.571428
 30
0.0
 10
138.571432
 20
726.000004
 30
0.0
 10
144.571432
 20
710.571428
 30
0.0
 10
143.714288
 20
695.428572
 30
0.0
 10
154.285712
 20
690.571428
 30
0.0
 10
162.000000
 20
680.285716
 30
0.0
 10
166.285712
 20
674.571428
 30
0.0
 10
168.571432
 20
663.428572
 30
0.0
 10
170.000000
 20
658.857148
 30
0.0
 10
181.142856
 20
651.714284
 30
0.0
 10
195.142856
 20
652.000004
 30
0.0
 10
199.428568
 20
657.428572
 30
0.0
 10
216.571432
 20
659.142860
 30
0.0
 10
237.714288
 20
666.000004
 30
0.0
 10
264.571432
 20
665.714284
 30
0.0
 10
273.428568
 20
674.857148
 30
0.0
 10
276.000000
 20
689.428572
 30
0.0
 10
272.571432
 20
702.857148
 30
0.0
 10
274.857144
 20
715.714284
 30
0.0
 10
264.285712
 20
726.285716
 30
0.0
 10
252.000000
 20
759.428572
 30
0.0
  0
LWPOLYLINE
  5
101
100
AcDbEntity
  8
Layer_1
 62
7
100
AcDbPolyline
 90
24
 70
1
 10
180.857144
 20
652.000004
 30
0.0
 10
173.714288
 20
643.428572
 30
0.0
 10
184.000000
 20
627.428572
 30
0.0
 10
187.142856
 20
619.142860
 30
0.0
 10
183.142856
 20
611.714284
 30
0.0
 10
186.000000
 20
604.857148
 30
0.0
 10
185.428568
 20
589.142860
 30
0.0
 10
182.857144
 20
584.000004
 30
0.0
 10
183.142856
 20
573.428572
 30
0.0
 10
191.142856
 20
567.714284
 30
0.0
 10
203.714288
 20
567.428572
 30
0.0
 10
219.142856
 20
578.000004
 30
0.0
 10
221.142856
 20
586.000004
 30
0.0
 10
214.857144
 20
586.857148
 30
0.0
 10
206.571432
 20
598.285716
 30
0.0
 10
207.428568
 20
606.000004
 30
0.0
 10
199.428568
 20
618.000004
 30
0.0
 10
197.428568
 20
628.571428
 30
0.0
 10
198.285712
 20
636.000004
 30
0.0
 10
203.142856
 20
642.571428
 30
0.0
 10
203.714288
 20
646.857148
 30
0.0
 10
196.857144
 20
653.714284
 30
0.0
 10
194.571432
 20
651.714284
 30
0.0
 10
180.857144
 20
652.000004
 30
0.0
  0
LWPOLYLINE
  5
102
100
AcDbEntity
  8
Layer_1
 62
7
100
AcDbPolyline
 90
28
 70
1
 10
197.142856
 20
654.571428
 30
0.0
 10
198.857144
 20
657.428572
 30
0.0
 10
216.571432
 20
659.428572
 30
0.0
 10
237.142856
 20
666.571428
 30
0.0
 10
265.428568
 20
666.000004
 30
0.0
 10
260.000000
 20
661.142860
 30
0.0
 10
260.285712
 20
647.428572
 30
0.0
 10
268.857144
 20
638.857148
 30
0.0
 10
280.000000
 20
637.714284
 30
0.0
 10
286.000000
 20
630.571428
 30
0.0
 10
287.428568
 20
624.571428
 30
0.0
 10
290.285712
 20
621.714284
 30
0.0
 10
286.571432
 20
607.428572
 30
0.0
 10
274.571432
 20
606.285716
 30
0.0
 10
267.714288
 20
601.428572
 30
0.0
 10
251.428568
 20
604.857148
 30
0.0
 10
245.142856
 20
607.142860
 30
0.0
 10
237.714288
 20
586.857148
 30
0.0
 10
220.571432
 20
584.857148
 30
0.0
 10
215.142856
 20
586.857148
 30
0.0
 10
207.142856
 20
597.142860
 30
0.0
 10
207.142856
 20
606.000004
 30
0.0
 10
200.285712
 20
616.857148
 30
0.0
 10
198.571432
 20
626.857148
 30
0.0
 10
198.571432
 20
636.571428
 30
0.0
 10
202.857144
 20
643.428572
 30
0.0
 10
204.000000
 20
647.142860
 30
0.0
 10
197.142856
 20
654.571428
 30
0.0
  0
LWPOLYLINE
  5
103
100
AcDbEntity
  8
Layer_1
 62
7
100
AcDbPolyline
 90
63
 70
1
 10
237.714288
 20
587.142860
 30
0.0
 10
220.571432
 20
584.857148
 30
0.0
 10
218.857144
 20
577.428572
 30
0.0
 10
204.285712
 20
568.000004
 30
0.0
 10
190.857144
 20
567.714284
 30
0.0
 10
183.428568
 20
573.428572
 30
0.0
 10
182.571432
 20
583.428572
 30
0.0
 10
185.142856
 20
588.571428
 30
0.0
 10
186.571432
 20
603.428572
 30
0.0
 10
183.714288
 20
611.714284
 30
0.0
 10
187.142856
 20
618.571428
 30
0.0
 10
183.714288
 20
630.000004
 30
0.0
 10
174.000000
 20
643.428572
 30
0.0
 10
181.142856
 20
652.000004
 30
0.0
 10
170.000000
 20
658.571428
 30
0.0
 10
166.000000
 20
675.428572
 30
0.0
 10
154.857144
 20
690.285716
 30
0.0
 10
144.571432
 20
695.714284
 30
0.0
 10
139.714288
 20
664.571428
 30
0.0
 10
128.571432
 20
664.571428
 30
0.0
 10
124.571432
 20
660.285716
 30
0.0
 10
124.571432
 20
649.142860
 30
0.0
 10
120.571432
 20
646.000004
 30
0.0
 10
118.571432
 20
639.714284
 30
0.0
 10
110.571432
 20
632.000004
 30
0.0
 10
109.714288
 20
627.428572
 30
0.0
 10
106.857144
 20
624.285716
 30
0.0
 10
105.714288
 20
614.000004
 30
0.0
 10
108.000000
 20
606.571428
 30
0.0
 10
116.000000
 20
607.428572
 30
0.0
 10
128.857144
 20
613.142860
 30
0.0
 10
136.000000
 20
613.142860
 30
0.0
 10
138.857144
 20
607.714284
 30
0.0
 10
143.428568
 20
604.285716
 30
0.0
 10
144.285712
 20
595.428572
 30
0.0
 10
139.142856
 20
592.285716
 30
0.0
 10
141.142856
 20
585.428572
 30
0.0
 10
148.285712
 20
587.714284
 30
0.0
 10
153.142856
 20
586.857148
 30
0.0
 10
153.428568
 20
574.285716
 30
0.0
 10
150.285712
 20
571.714284
 30
0.0
 10
145.428568
 20
558.285716
 30
0.0
 10
155.142856
 20
556.000004
 30
0.0
 10
157.428568
 20
541.142860
 30
0.0
 10
161.428568
 20
527.428572
 30
0.0
 10
168.285712
 20
529.142860
 30
0.0
 10
170.857144
 20
534.000004
 30
0.0
 10
181.142856
 20
533.428572
 30
0.0
 10
183.714288
 20
536.000004
 30
0.0
 10
188.285712
 20
530.571428
 30
0.0
 10
204.000000
 20
536.857140
 30
0.0
 10
228.571432
 20
535.428572
 30
0.0
 10
258.000000
 20
528.571428
 30
0.0
 10
260.857144
 20
533.714284
 30
0.0
 10
259.714288
 20
541.714284
 30
0.0
 10
252.285712
 20
544.857140
 30
0.0
 10
244.000000
 20
554.000004
 30
0.0
 10
243.142856
 20
563.428572
 30
0.0
 10
246.571432
 20
569.142860
 30
0.0
 10
246.000000
 20
577.714284
 30
0.0
 10
242.000000
 20
581.428572
 30
0.0
 10
239.714288
 20
582.285716
 30
0.0
 10
237.714288
 20
587.142860
 30
0.0
  0
LWPOLYLINE
  5
104
100
AcDbEntity
  8
Layer_1
 62
7
100
AcDbPolyline
 90
43
 70
1
 10
143.714288
 20
697.714284
 30
0.0
 10
139.428568
 20
695.142860
 30
0.0
 10
133.428568
 20
696.000004
 30
0.0
 10
113.714288
 20
704.857148
 30
0.0
 10
93.714288
 20
706.571428
 30
0.0
 10
92.000000
 20
710.285716
 30
0.0
 10
87.714288
 20
710.571428
 30
0.0
 10
87.428568
 20
707.714284
 30
0.0
 10
75.142858
 20
708.571428
 30
0.0
 10
69.428571
 20
700.571428
 30
0.0
 10
47.714286
 20
689.142860
 30
0.0
 10
27.142857
 20
679.142860
 30
0.0
 10
12.857143
 20
679.428572
 30
0.0
 10
5.142857
 20
668.857148
 30
0.0
 10
5.428571
 20
665.142860
 30
0.0
 10
18.000000
 20
665.428572
 30
0.0
 10
11.142857
 20
656.285716
 30
0.0
 10
12.857143
 20
650.000004
 30
0.0
 10
21.142857
 20
647.142860
 30
0.0
 10
25.714286
 20
647.428572
 30
0.0
 10
28.857143
 20
644.857148
 30
0.0
 10
38.285714
 20
643.428572
 30
0.0
 10
40.857143
 20
638.571428
 30
0.0
 10
40.000000
 20
626.000004
 30
0.0
 10
53.142858
 20
606.857148
 30
0.0
 10
54.285714
 20
605.142860
 30
0.0
 10
59.142858
 20
605.428572
 30
0.0
 10
64.571429
 20
602.285716
 30
0.0
 10
72.857143
 20
602.000004
 30
0.0
 10
81.142856
 20
606.571428
 30
0.0
 10
109.142856
 20
606.857148
 30
0.0
 10
106.000000
 20
615.142860
 30
0.0
 10
107.142856
 20
624.285716
 30
0.0
 10
110.000000
 20
626.571428
 30
0.0
 10
110.571432
 20
631.428572
 30
0.0
 10
118.857144
 20
639.428572
 30
0.0
 10
120.571432
 20
645.428572
 30
0.0
 10
124.857144
 20
648.857148
 30
0.0
 10
125.428568
 20
659.714284
 30
0.0
 10
128.857144
 20
664.285716
 30
0.0
 10
139.142856
 20
664.285716
 30
0.0
 10
144.571432
 20
694.857148
 30
0.0
 10
143.714288
 20
697.714284
 30
0.0
  0
LWPOLYLINE
  5
105
100
AcDbEntity
  8
Layer_1
 62
7
100
AcDbPolyline
 90
44
 70
1
 10
12.571429
 20
680.285716
 30
0.0
 10
9.142857
 20
683.428572
 30
0.0
 10
5.142857
 20
683.428572
 30
0.0
 10
-6.857143
 20
690.571428
 30
0.0
 10
-26.000000
 20
692.285716
 30
0.0
 10
-36.857143
 20
689.142860
 30
0.0
 10
-51.714286
 20
676.571428
 30
0.0
 10
-76.571429
 20
676.285716
 30
0.0
 10
-78.857143
 20
672.285716
 30
0.0
 10
-73.428571
 20
655.428572
 30
0.0
 10
-68.285714
 20
652.857148
 30
0.0
 10
-66.285714
 20
627.142860
 30
0.0
 10
-59.428571
 20
622.857148
 30
0.0
 10
-60.285714
 20
613.142860
 30
0.0
 10
-46.857143
 20
568.857140
 30
0.0
 10
-32.285714
 20
547.714284
 30
0.0
 10
-24.857143
 20
547.142860
 30
0.0
 10
-22.285714
 20
536.000004
 30
0.0
 10
-13.714286
 20
528.000004
 30
0.0
 10
-9.142857
 20
515.714284
 30
0.0
 10
-7.428571
 20
516.571428
 30
0.0
 10
-5.714286
 20
524.000004
 30
0.0
 10
5.142857
 20
526.285716
 30
0.0
 10
13.428571
 20
518.857140
 30
0.0
 10
33.714286
 20
544.571428
 30
0.0
 10
37.142858
 20
544.571428
 30
0.0
 10
70.285714
 20
580.857140
 30
0.0
 10
68.857143
 20
593.142860
 30
0.0
 10
73.428571
 20
601.714284
 30
0.0
 10
65.428571
 20
602.285716
 30
0.0
 10
58.571429
 20
606.000004
 30
0.0
 10
54.285714
 20
605.428572
 30
0.0
 10
40.571429
 20
625.714284
 30
0.0
 10
41.428571
 20
638.000004
 30
0.0
 10
38.285714
 20
643.428572
 30
0.0
 10
28.857143
 20
645.714284
 30
0.0
 10
25.428571
 20
647.714284
 30
0.0
 10
21.142857
 20
647.428572
 30
0.0
 10
12.857143
 20
650.000004
 30
0.0
 10
11.142857
 20
655.714284
 30
0.0
 10
18.285714
 20
666.000004
 30
0.0
 10
5.428571
 20
664.857148
 30
0.0
 10
5.428571
 20
669.142860
 30
0.0
 10
12.571429
 20
680.285716
 30
0.0
  0
LWPOLYLINE
  5
106
100
AcDbEntity
  8
Layer_1
 62
7
100
AcDbPolyline
 90
41
 70
1
 10
-9.142857
 20
515.428572
 30
0.0
 10
-1.428571
 20
504.857140
 30
0.0
 10
0.000000
 20
483.142860
 30
0.0
 10
11.714286
 20
474.571428
 30
0.0
 10
14.571429
 20
455.714284
 30
0.0
 10
42.857143
 20
471.428572
 30
0.0
 10
59.428571
 20
482.000004
 30
0.0
 10
62.571429
 20
491.428572
 30
0.0
 10
69.142858
 20
494.285716
 30
0.0
 10
77.714286
 20
495.142860
 30
0.0
 10
95.142856
 20
496.857140
 30
0.0
 10
121.142856
 20
513.142860
 30
0.0
 10
130.000000
 20
513.142860
 30
0.0
 10
154.857144
 20
528.571428
 30
0.0
 10
162.000000
 20
528.000004
 30
0.0
 10
157.714288
 20
541.428572
 30
0.0
 10
155.714288
 20
556.000004
 30
0.0
 10
146.000000
 20
558.285716
 30
0.0
 10
150.000000
 20
570.285716
 30
0.0
 10
153.428568
 20
574.285716
 30
0.0
 10
153.714288
 20
586.857148
 30
0.0
 10
146.857144
 20
588.285716
 30
0.0
 10
141.428568
 20
584.857148
 30
0.0
 10
138.857144
 20
592.000004
 30
0.0
 10
144.857144
 20
595.142860
 30
0.0
 10
143.714288
 20
604.285716
 30
0.0
 10
138.571432
 20
608.000004
 30
0.0
 10
136.000000
 20
613.714284
 30
0.0
 10
127.142856
 20
613.714284
 30
0.0
 10
114.857144
 20
607.428572
 30
0.0
 10
82.000000
 20
606.571428
 30
0.0
 10
73.142858
 20
602.285716
 30
0.0
 10
69.142858
 20
593.428572
 30
0.0
 10
70.000000
 20
581.142860
 30
0.0
 10
36.857143
 20
544.571428
 30
0.0
 10
33.142857
 20
545.428572
 30
0.0
 10
13.142857
 20
519.142860
 30
0.0
 10
5.142857
 20
526.285716
 30
0.0
 10
-6.571429
 20
524.000004
 30
0.0
 10
-7.714286
 20
516.000004
 30
0.0
 10
-9.142857
 20
515.428572
 30
0.0
  0
LWPOLYLINE
  5
107
100
AcDbEntity
  8
Layer_1
 62
7
100
AcDbPolyline
 90
40
 70
1
 10
284.857144
 20
607.428572
 30
0.0
 10
274.285712
 20
606.571428
 30
0.0
 10
268.285712
 20
601.714284
 30
0.0
 10
244.857144
 20
607.428572
 30
0.0
 10
237.714288
 20
587.142860
 30
0.0
 10
240.000000
 20
581.714284
 30
0.0
 10
246.000000
 20
577.714284
 30
0.0
 10
247.142856
 20
568.285716
 30
0.0
 10
242.857144
 20
563.714284
 30
0.0
 10
244.285712
 20
554.285716
 30
0.0
 10
253.714288
 20
544.285716
 30
0.0
 10
260.285712
 20
541.142860
 30
0.0
 10
260.571432
 20
533.428572
 30
0.0
 10
257.714288
 20
528.571428
 30
0.0
 10
269.714288
 20
526.285716
 30
0.0
 10
282.571432
 20
524.857140
 30
0.0
 10
296.285712
 20
519.142860
 30
0.0
 10
298.285712
 20
512.285716
 30
0.0
 10
308.571432
 20
517.428572
 30
0.0
 10
350.000000
 20
516.571428
 30
0.0
 10
390.000000
 20
516.571428
 30
0.0
 10
400.571432
 20
522.000004
 30
0.0
 10
426.285712
 20
530.000004
 30
0.0
 10
433.428576
 20
535.428572
 30
0.0
 10
434.000000
 20
559.142860
 30
0.0
 10
430.571432
 20
570.285716
 30
0.0
 10
422.000000
 20
584.285716
 30
0.0
 10
408.571432
 20
586.000004
 30
0.0
 10
401.714288
 20
588.571428
 30
0.0
 10
396.000000
 20
596.857148
 30
0.0
 10
373.428576
 20
596.857148
 30
0.0
 10
363.142856
 20
591.714284
 30
0.0
 10
354.571432
 20
590.857148
 30
0.0
 10
344.571432
 20
584.857148
 30
0.0
 10
340.000000
 20
571.142860
 30
0.0
 10
332.000000
 20
568.571428
 30
0.0
 10
317.714288
 20
572.857140
 30
0.0
 10
300.285712
 20
587.428572
 30
0.0
 10
285.714288
 20
600.857148
 30
0.0
 10
284.857144
 20
607.428572
 30
0.0
  0
LWPOLYLINE
  5
108
100
AcDbEntity
  8
Layer_1
 62
7
100
AcDbPolyline
 90
41
 70
1
 10
276.285712
 20
688.000004
 30
0.0
 10
273.142856
 20
674.285716
 30
0.0
 10
259.428568
 20
660.571428
 30
0.0
 10
260.285712
 20
646.571428
 30
0.0
 10
269.142856
 20
638.857148
 30
0.0
 10
279.714288
 20
637.142860
 30
0.0
 10
286.857144
 20
628.857148
 30
0.0
 10
286.571432
 20
624.285716
 30
0.0
 10
289.428568
 20
622.000004
 30
0.0
 10
286.571432
 20
608.000004
 30
0.0
 10
284.285712
 20
606.571428
 30
0.0
 10
286.000000
 20
600.285716
 30
0.0
 10
318.285712
 20
572.857140
 30
0.0
 10
332.285712
 20
567.714284
 30
0.0
 10
340.000000
 20
570.857140
 30
0.0
 10
345.142856
 20
584.571428
 30
0.0
 10
353.714288
 20
589.714284
 30
0.0
 10
362.857144
 20
591.142860
 30
0.0
 10
373.714288
 20
596.857148
 30
0.0
 10
396.857144
 20
596.571428
 30
0.0
 10
400.857144
 20
603.428572
 30
0.0
 10
404.857144
 20
604.000004
 30
0.0
 10
415.428576
 20
647.428572
 30
0.0
 10
429.714288
 20
643.428572
 30
0.0
 10
441.142856
 20
646.000004
 30
0.0
 10
448.857144
 20
649.714284
 30
0.0
 10
440.285712
 20
656.571428
 30
0.0
 10
447.714288
 20
660.571428
 30
0.0
 10
449.714288
 20
664.857148
 30
0.0
 10
444.000000
 20
670.000004
 30
0.0
 10
433.142856
 20
673.428572
 30
0.0
 10
405.142856
 20
670.000004
 30
0.0
 10
399.428576
 20
676.571428
 30
0.0
 10
398.285712
 20
684.285716
 30
0.0
 10
381.142856
 20
676.000004
 30
0.0
 10
354.571432
 20
671.142860
 30
0.0
 10
335.142856
 20
676.571428
 30
0.0
 10
320.285712
 20
677.428572
 30
0.0
 10
305.142856
 20
671.142860
 30
0.0
 10
295.142856
 20
671.714284
 30
0.0
 10
276.285712
 20
688.000004
 30
0.0
  0
LWPOLYLINE
  5
109
100
AcDbEntity
  8
Layer_1
 62
7
100
AcDbPolyline
 90
35
 70
1
 10
398.285712
 20
684.285716
 30
0.0
 10
400.000000
 20
675.714284
 30
0.0
 10
404.285712
 20
670.857148
 30
0.0
 10
432.285712
 20
673.142860
 30
0.0
 10
445.714288
 20
669.142860
 30
0.0
 10
449.142856
 20
664.285716
 30
0.0
 10
448.285712
 20
660.285716
 30
0.0
 10
440.571432
 20
657.428572
 30
0.0
 10
448.285712
 20
650.000004
 30
0.0
 10
453.714288
 20
650.000004
 30
0.0
 10
466.571432
 20
639.428572
 30
0.0
 10
478.285712
 20
639.714284
 30
0.0
 10
483.428576
 20
636.857148
 30
0.0
 10
493.142856
 20
639.428572
 30
0.0
 10
487.714288
 20
648.571428
 30
0.0
 10
490.000000
 20
657.142860
 30
0.0
 10
487.142856
 20
660.857148
 30
0.0
 10
486.857144
 20
672.571428
 30
0.0
 10
484.285712
 20
680.857148
 30
0.0
 10
488.000000
 20
683.428572
 30
0.0
 10
488.857144
 20
689.142860
 30
0.0
 10
496.571432
 20
690.285716
 30
0.0
 10
501.142856
 20
702.857148
 30
0.0
 10
492.571432
 20
712.857148
 30
0.0
 10
483.428576
 20
713.428572
 30
0.0
 10
481.428576
 20
717.142860
 30
0.0
 10
483.142856
 20
724.000004
 30
0.0
 10
476.285712
 20
740.000004
 30
0.0
 10
471.428576
 20
736.000004
 30
0.0
 10
454.571432
 20
736.571428
 30
0.0
 10
449.428576
 20
740.000004
 30
0.0
 10
445.714288
 20
722.000004
 30
0.0
 10
430.857144
 20
720.857148
 30
0.0
 10
428.000000
 20
712.571428
 30
0.0
 10
398.285712
 20
684.285716
 30
0.0
  0
ENDSEC
  0
SECTION
  2
OBJECTS
  0
DICTIONARY
  5
C
330
0
100
AcDbDictionary
  3
ACAD_GROUP
350
D
  3
ACAD_MLINESTYLE
350
17
  0
DICTIONARY
  5
D
330
C
100
AcDbDictionary
  0
DICTIONARY
  5
1A
330
C
100
AcDbDictionary
  0
DICTIONARY
  5
17
330
C
100
AcDbDictionary
  3
STANDARD
350
18
  0
DICTIONARY
  5
19
330
C
100
AcDbDictionary
  0
ENDSEC
  0
EOF
