  0
SECTION
  2
HEADER
  9
$ACADVER
  1
AC1014
  9
$HANDSEED
  5
FFFF
  9
$MEASUREMENT
 70
     1
  0
ENDSEC
  0
SECTION
  2
TABLES
  0
TABLE
  2
VPORT
  5
8
330
0
100
AcDbSymbolTable
 70
     4
  0
VPORT
  5
2E
330
8
100
AcDbSymbolTableRecord
100
AcDbViewportTableRecord
  2
*ACTIVE
 70
     0
 10
0.0
 20
0.0
 11
1.0
 21
1.0
 12
210.0
 22
148.5
 13
0.0
 23
0.0
 14
10.0
 24
10.0
 15
10.0
 25
10.0
 16
0.0
 26
0.0
 36
1.0
 17
0.0
 27
0.0
 37
0.0
 40
341.0
 41
1.24
 42
50.0
 43
0.0
 44
0.0
 50
0.0
 51
0.0
 71
     0
 72
   100
 73
     1
 74
     3
 75
     0
 76
     0
 77
     0
 78
     0
  0
ENDTAB
  0
TABLE
  2
LTYPE
  5
5
330
0
100
AcDbSymbolTable
 70
     1
  0
LTYPE
  5
14
330
5
100
AcDbSymbolTableRecord
100
AcDbLinetypeTableRecord
  2
BYBLOCK
 70
     0
  3

 72
    65
 73
     0
 40
0.0
  0
LTYPE
  5
15
330
5
100
AcDbSymbolTableRecord
100
AcDbLinetypeTableRecord
  2
BYLAYER
 70
     0
  3

 72
    65
 73
     0
 40
0.0
  0
LTYPE
  5
16
330
5
100
AcDbSymbolTableRecord
100
AcDbLinetypeTableRecord
  2
CONTINUOUS
 70
     0
  3
Solid line
 72
    65
 73
     0
 40
0.0
  0
ENDTAB
  0
TABLE
  2
LAYER
  5
2
100
AcDbSymbolTable
 70
2
  0
LAYER
  5
50
100
AcDbSymbolTableRecord
100
AcDbLayerTableRecord
  2
0
 70
0
  6
CONTINUOUS
  0
LAYER
  5
51
100
AcDbSymbolTableRecord
100
AcDbLayerTableRecord
  2
Layer_1
 70
0
  6
CONTINUOUS
  0
ENDTAB
  0
TABLE
  2
STYLE
  5
3
330
0
100
AcDbSymbolTable
 70
     1
  0
STYLE
  5
11
330
3
100
AcDbSymbolTableRecord
100
AcDbTextStyleTableRecord
  2
STANDARD
 70
     0
 40
0.0
 41
1.0
 50
0.0
 71
     0
 42
2.5
  3
txt
  4

  0
ENDTAB
  0
TABLE
  2
VIEW
  5
6
330
0
100
AcDbSymbolTable
 70
     0
  0
ENDTAB
  0
TABLE
  2
UCS
  5
7
330
0
100
AcDbSymbolTable
 70
     0
  0
ENDTAB
  0
TABLE
  2
APPID
  5
9
330
0
100
AcDbSymbolTable
 70
     2
  0
APPID
  5
12
330
9
100
AcDbSymbolTableRecord
100
AcDbRegAppTableRecord
  2
ACAD
 70
     0
  0
ENDTAB
  0
TABLE
  2
DIMSTYLE
  5
A
330
0
100
AcDbSymbolTable
 70
     1
  0
DIMSTYLE
105
27
330
A
100
AcDbSymbolTableRecord
100
AcDbDimStyleTableRecord
  2
ISO-25
 70
     0
  3

  4

  5

  6

  7

 40
1.0
 41
2.5
 42
0.625
 43
3.75
 44
1.25
 45
0.0
 46
0.0
 47
0.0
 48
0.0
140
2.5
141
2.5
142
0.0
143
0.03937007874016
144
1.0
145
0.0
146
1.0
147
0.625
 71
     0
 72
     0
 73
     0
 74
     0
 75
     0
 76
     0
 77
     1
 78
     8
170
     0
171
     3
172
     1
173
     0
174
     0
175
     0
176
     0
177
     0
178
     0
270
     2
271
     2
272
     2
273
     2
274
     3
340
11
275
     0
280
     0
281
     0
282
     0
283
     0
284
     8
285
     0
286
     0
287
     3
288
     0
  0
ENDTAB
  0
TABLE
  2
BLOCK_RECORD
  5
1
330
0
100
AcDbSymbolTable
 70
     1
  0
BLOCK_RECORD
  5
1F
330
1
100
AcDbSymbolTableRecord
100
AcDbBlockTableRecord
  2
*MODEL_SPACE
  0
BLOCK_RECORD
  5
1B
330
1
100
AcDbSymbolTableRecord
100
AcDbBlockTableRecord
  2
*PAPER_SPACE
  0
ENDTAB
  0
ENDSEC
  0
SECTION
  2
BLOCKS
  0
BLOCK
  5
20
330
1F
100
AcDbEntity
  8
0
100
AcDbBlockBegin
  2
*MODEL_SPACE
 70
     0
 10
0.0
 20
0.0
 30
0.0
  3
*MODEL_SPACE
  1

  0
ENDBLK
  5
21
330
1F
100
AcDbEntity
  8
0
100
AcDbBlockEnd
  0
BLOCK
  5
1C
330
1B
100
AcDbEntity
 67
     1
  8
0
100
AcDbBlockBegin
  2
*PAPER_SPACE
  1

  0
ENDBLK
  5
1D
330
1B
100
AcDbEntity
 67
     1
  8
0
100
AcDbBlockEnd
  0
ENDSEC
  0
SECTION
  2
ENTITIES
  0
LWPOLYLINE
  5
100
100
AcDbEntity
  8
Layer_1
 62
7
100
AcDbPolyline
 90
14
 70
1
 10
-289.142856
 20
473.714284
 30
0.0
 10
-181.714288
 20
530.285716
 30
0.0
 10
-148.571432
 20
577.714284
 30
0.0
 10
-134.285712
 20
635.428572
 30
0.0
 10
-73.142858
 20
665.142860
 30
0.0
 10
29.142857
 20
665.142860
 30
0.0
 10
84.000000
 20
632.571428
 30
0.0
 10
14.285714
 20
518.857140
 30
0.0
 10
-38.857143
 20
455.428572
 30
0.0
 10
-80.571432
 20
433.714284
 30
0.0
 10
-115.428568
 20
426.857140
 30
0.0
 10
-185.714288
 20
426.857140
 30
0.0
 10
-225.142856
 20
430.285716
 30
0.0
 10
-289.142856
 20
473.714284
 30
0.0
  0
LWPOLYLINE
  5
101
100
AcDbEntity
  8
Layer_1
 62
7
100
AcDbPolyline
 90
24
 70
1
 10
-289.714288
 20
474.285716
 30
0.0
 10
-311.428568
 20
429.714284
 30
0.0
 10
-162.285712
 20
389.142860
 30
0.0
 10
-110.285712
 20
364.571428
 30
0.0
 10
-54.857143
 20
312.000004
 30
0.0
 10
17.714286
 20
250.857140
 30
0.0
 10
140.571432
 20
256.571428
 30
0.0
 10
224.000000
 20
247.428572
 30
0.0
 10
228.000000
 20
297.714284
 30
0.0
 10
260.571432
 20
399.428572
 30
0.0
 10
265.142856
 20
439.428572
 30
0.0
 10
185.142856
 20
461.714284
 30
0.0
 10
164.571432
 20
425.714284
 30
0.0
 10
147.428568
 20
415.428572
 30
0.0
 10
118.285712
 20
392.000004
 30
0.0
 10
85.714288
 20
374.285716
 30
0.0
 10
41.714286
 20
372.571428
 30
0.0
 10
-22.857143
 20
380.000004
 30
0.0
 10
-72.000000
 20
408.571428
 30
0.0
 10
-79.428571
 20
433.714284
 30
0.0
 10
-113.142856
 20
427.428572
 30
0.0
 10
-178.857144
 20
427.428572
 30
0.0
 10
-225.714288
 20
430.285716
 30
0.0
 10
-289.714288
 20
474.285716
 30
0.0
  0
LWPOLYLINE
  5
102
100
AcDbEntity
  8
Layer_1
 62
7
100
AcDbPolyline
 90
9
 70
1
 10
379.428568
 20
269.142860
 30
0.0
 10
248.000000
 20
245.714284
 30
0.0
 10
223.428568
 20
248.571428
 30
0.0
 10
228.571432
 20
300.571428
 30
0.0
 10
260.571432
 20
399.428572
 30
0.0
 10
265.142856
 20
440.000004
 30
0.0
 10
312.571432
 20
396.571428
 30
0.0
 10
340.571432
 20
315.428572
 30
0.0
 10
379.428568
 20
269.142860
 30
0.0
  0
LWPOLYLINE
  5
103
100
AcDbEntity
  8
Layer_1
 62
7
100
AcDbPolyline
 90
15
 70
1
 10
83.428568
 20
633.714284
 30
0.0
 10
20.000000
 20
528.000004
 30
0.0
 10
-40.571429
 20
453.142860
 30
0.0
 10
-80.000000
 20
433.714284
 30
0.0
 10
-70.857143
 20
408.000004
 30
0.0
 10
-23.428571
 20
380.000004
 30
0.0
 10
37.142857
 20
373.714284
 30
0.0
 10
86.285712
 20
374.285716
 30
0.0
 10
120.000000
 20
392.571428
 30
0.0
 10
146.857144
 20
415.428572
 30
0.0
 10
165.142856
 20
426.285716
 30
0.0
 10
186.285712
 20
462.857140
 30
0.0
 10
117.714288
 20
504.571428
 30
0.0
 10
106.285712
 20
566.285716
 30
0.0
 10
83.428568
 20
633.714284
 30
0.0
  0
ENDSEC
  0
SECTION
  2
OBJECTS
  0
DICTIONARY
  5
C
330
0
100
AcDbDictionary
  3
ACAD_GROUP
350
D
  3
ACAD_MLINESTYLE
350
17
  0
DICTIONARY
  5
D
330
C
100
AcDbDictionary
  0
DICTIONARY
  5
1A
330
C
100
AcDbDictionary
  0
DICTIONARY
  5
17
330
C
100
AcDbDictionary
  3
STANDARD
350
18
  0
DICTIONARY
  5
19
330
C
100
AcDbDictionary
  0
ENDSEC
  0
EOF
