  0
SECTION
  2
HEADER
  9
$ACADVER
  1
AC1014
  9
$HANDSEED
  5
FFFF
  9
$MEASUREMENT
 70
     1
  0
ENDSEC
  0
SECTION
  2
TABLES
  0
TABLE
  2
VPORT
  5
8
330
0
100
AcDbSymbolTable
 70
     4
  0
VPORT
  5
2E
330
8
100
AcDbSymbolTableRecord
100
AcDbViewportTableRecord
  2
*ACTIVE
 70
     0
 10
0.0
 20
0.0
 11
1.0
 21
1.0
 12
210.0
 22
148.5
 13
0.0
 23
0.0
 14
10.0
 24
10.0
 15
10.0
 25
10.0
 16
0.0
 26
0.0
 36
1.0
 17
0.0
 27
0.0
 37
0.0
 40
341.0
 41
1.24
 42
50.0
 43
0.0
 44
0.0
 50
0.0
 51
0.0
 71
     0
 72
   100
 73
     1
 74
     3
 75
     0
 76
     0
 77
     0
 78
     0
  0
ENDTAB
  0
TABLE
  2
LTYPE
  5
5
330
0
100
AcDbSymbolTable
 70
     1
  0
LTYPE
  5
14
330
5
100
AcDbSymbolTableRecord
100
AcDbLinetypeTableRecord
  2
BYBLOCK
 70
     0
  3

 72
    65
 73
     0
 40
0.0
  0
LTYPE
  5
15
330
5
100
AcDbSymbolTableRecord
100
AcDbLinetypeTableRecord
  2
BYLAYER
 70
     0
  3

 72
    65
 73
     0
 40
0.0
  0
LTYPE
  5
16
330
5
100
AcDbSymbolTableRecord
100
AcDbLinetypeTableRecord
  2
CONTINUOUS
 70
     0
  3
Solid line
 72
    65
 73
     0
 40
0.0
  0
ENDTAB
  0
TABLE
  2
LAYER
  5
2
100
AcDbSymbolTable
 70
2
  0
LAYER
  5
50
100
AcDbSymbolTableRecord
100
AcDbLayerTableRecord
  2
0
 70
0
  6
CONTINUOUS
  0
LAYER
  5
51
100
AcDbSymbolTableRecord
100
AcDbLayerTableRecord
  2
Layer_1
 70
0
  6
CONTINUOUS
  0
ENDTAB
  0
TABLE
  2
STYLE
  5
3
330
0
100
AcDbSymbolTable
 70
     1
  0
STYLE
  5
11
330
3
100
AcDbSymbolTableRecord
100
AcDbTextStyleTableRecord
  2
STANDARD
 70
     0
 40
0.0
 41
1.0
 50
0.0
 71
     0
 42
2.5
  3
txt
  4

  0
ENDTAB
  0
TABLE
  2
VIEW
  5
6
330
0
100
AcDbSymbolTable
 70
     0
  0
ENDTAB
  0
TABLE
  2
UCS
  5
7
330
0
100
AcDbSymbolTable
 70
     0
  0
ENDTAB
  0
TABLE
  2
APPID
  5
9
330
0
100
AcDbSymbolTable
 70
     2
  0
APPID
  5
12
330
9
100
AcDbSymbolTableRecord
100
AcDbRegAppTableRecord
  2
ACAD
 70
     0
  0
ENDTAB
  0
TABLE
  2
DIMSTYLE
  5
A
330
0
100
AcDbSymbolTable
 70
     1
  0
DIMSTYLE
105
27
330
A
100
AcDbSymbolTableRecord
100
AcDbDimStyleTableRecord
  2
ISO-25
 70
     0
  3

  4

  5

  6

  7

 40
1.0
 41
2.5
 42
0.625
 43
3.75
 44
1.25
 45
0.0
 46
0.0
 47
0.0
 48
0.0
140
2.5
141
2.5
142
0.0
143
0.03937007874016
144
1.0
145
0.0
146
1.0
147
0.625
 71
     0
 72
     0
 73
     0
 74
     0
 75
     0
 76
     0
 77
     1
 78
     8
170
     0
171
     3
172
     1
173
     0
174
     0
175
     0
176
     0
177
     0
178
     0
270
     2
271
     2
272
     2
273
     2
274
     3
340
11
275
     0
280
     0
281
     0
282
     0
283
     0
284
     8
285
     0
286
     0
287
     3
288
     0
  0
ENDTAB
  0
TABLE
  2
BLOCK_RECORD
  5
1
330
0
100
AcDbSymbolTable
 70
     1
  0
BLOCK_RECORD
  5
1F
330
1
100
AcDbSymbolTableRecord
100
AcDbBlockTableRecord
  2
*MODEL_SPACE
  0
BLOCK_RECORD
  5
1B
330
1
100
AcDbSymbolTableRecord
100
AcDbBlockTableRecord
  2
*PAPER_SPACE
  0
ENDTAB
  0
ENDSEC
  0
SECTION
  2
BLOCKS
  0
BLOCK
  5
20
330
1F
100
AcDbEntity
  8
0
100
AcDbBlockBegin
  2
*MODEL_SPACE
 70
     0
 10
0.0
 20
0.0
 30
0.0
  3
*MODEL_SPACE
  1

  0
ENDBLK
  5
21
330
1F
100
AcDbEntity
  8
0
100
AcDbBlockEnd
  0
BLOCK
  5
1C
330
1B
100
AcDbEntity
 67
     1
  8
0
100
AcDbBlockBegin
  2
*PAPER_SPACE
  1

  0
ENDBLK
  5
1D
330
1B
100
AcDbEntity
 67
     1
  8
0
100
AcDbBlockEnd
  0
ENDSEC
  0
SECTION
  2
ENTITIES
  0
LWPOLYLINE
  5
100
100
AcDbEntity
  8
Layer_1
 62
7
100
AcDbPolyline
 90
18
 70
1
 10
-262.285712
 20
524.285716
 30
0.0
 10
-237.142856
 20
541.714284
 30
0.0
 10
-247.142856
 20
563.142860
 30
0.0
 10
-258.285712
 20
574.285716
 30
0.0
 10
-273.142856
 20
580.000004
 30
0.0
 10
-258.857144
 20
583.714284
 30
0.0
 10
-233.714288
 20
600.857148
 30
0.0
 10
-218.857144
 20
591.428572
 30
0.0
 10
-200.285712
 20
584.571428
 30
0.0
 10
-194.285712
 20
577.428572
 30
0.0
 10
-204.571432
 20
559.142860
 30
0.0
 10
-201.714288
 20
512.000004
 30
0.0
 10
-215.142856
 20
491.714284
 30
0.0
 10
-230.000000
 20
488.571428
 30
0.0
 10
-242.571432
 20
481.142860
 30
0.0
 10
-261.428568
 20
499.428572
 30
0.0
 10
-264.571432
 20
511.142860
 30
0.0
 10
-262.285712
 20
524.285716
 30
0.0
  0
LWPOLYLINE
  5
101
100
AcDbEntity
  8
Layer_1
 62
7
100
AcDbPolyline
 90
30
 70
1
 10
-213.714288
 20
492.000004
 30
0.0
 10
-187.428568
 20
486.285716
 30
0.0
 10
-172.857144
 20
490.000004
 30
0.0
 10
-155.428568
 20
485.428572
 30
0.0
 10
-153.428568
 20
476.000004
 30
0.0
 10
-101.714288
 20
484.000004
 30
0.0
 10
-108.857144
 20
498.571428
 30
0.0
 10
-132.285712
 20
520.000004
 30
0.0
 10
-138.285712
 20
529.142860
 30
0.0
 10
-138.571432
 20
547.142860
 30
0.0
 10
-126.285712
 20
563.428572
 30
0.0
 10
-109.714288
 20
572.285716
 30
0.0
 10
-77.714286
 20
575.142860
 30
0.0
 10
-62.285714
 20
579.714284
 30
0.0
 10
-66.285714
 20
625.142860
 30
0.0
 10
-79.714286
 20
658.285716
 30
0.0
 10
-91.714288
 20
658.571428
 30
0.0
 10
-102.285712
 20
662.285716
 30
0.0
 10
-112.000000
 20
663.714284
 30
0.0
 10
-129.428568
 20
671.428572
 30
0.0
 10
-149.714288
 20
671.714284
 30
0.0
 10
-175.714288
 20
652.285716
 30
0.0
 10
-233.714288
 20
601.142860
 30
0.0
 10
-215.142856
 20
590.285716
 30
0.0
 10
-200.000000
 20
585.428572
 30
0.0
 10
-193.714288
 20
576.571428
 30
0.0
 10
-204.571432
 20
559.142860
 30
0.0
 10
-201.428568
 20
511.714284
 30
0.0
 10
-215.142856
 20
492.285716
 30
0.0
 10
-213.714288
 20
492.000004
 30
0.0
  0
LWPOLYLINE
  5
102
100
AcDbEntity
  8
Layer_1
 62
7
100
AcDbPolyline
 90
14
 70
1
 10
-62.285714
 20
579.428572
 30
0.0
 10
-52.571429
 20
560.571428
 30
0.0
 10
-54.857143
 20
521.428572
 30
0.0
 10
-75.142858
 20
504.285716
 30
0.0
 10
-86.285712
 20
500.000004
 30
0.0
 10
-101.428568
 20
484.000004
 30
0.0
 10
-109.714288
 20
500.285716
 30
0.0
 10
-129.428568
 20
516.857140
 30
0.0
 10
-138.000000
 20
529.142860
 30
0.0
 10
-138.285712
 20
547.428572
 30
0.0
 10
-125.714288
 20
563.714284
 30
0.0
 10
-109.142856
 20
572.000004
 30
0.0
 10
-74.571429
 20
576.000004
 30
0.0
 10
-62.285714
 20
579.428572
 30
0.0
  0
LWPOLYLINE
  5
103
100
AcDbEntity
  8
Layer_1
 62
7
100
AcDbPolyline
 90
15
 70
1
 10
-187.142856
 20
485.714284
 30
0.0
 10
-171.714288
 20
489.714284
 30
0.0
 10
-155.714288
 20
484.857140
 30
0.0
 10
-154.000000
 20
474.571428
 30
0.0
 10
-164.857144
 20
421.714284
 30
0.0
 10
-183.428568
 20
409.428572
 30
0.0
 10
-199.142856
 20
405.142860
 30
0.0
 10
-218.000000
 20
394.285716
 30
0.0
 10
-223.142856
 20
408.571428
 30
0.0
 10
-231.714288
 20
418.571428
 30
0.0
 10
-239.714288
 20
423.428572
 30
0.0
 10
-243.142856
 20
435.714284
 30
0.0
 10
-230.857144
 20
447.428572
 30
0.0
 10
-184.285712
 20
468.571428
 30
0.0
 10
-187.142856
 20
485.714284
 30
0.0
  0
LWPOLYLINE
  5
104
100
AcDbEntity
  8
Layer_1
 62
7
100
AcDbPolyline
 90
15
 70
1
 10
-243.142856
 20
435.428572
 30
0.0
 10
-254.571432
 20
424.285716
 30
0.0
 10
-282.571432
 20
413.428572
 30
0.0
 10
-281.428568
 20
380.000004
 30
0.0
 10
-263.714288
 20
360.000004
 30
0.0
 10
-250.000000
 20
376.000004
 30
0.0
 10
-241.714288
 20
378.000004
 30
0.0
 10
-238.285712
 20
372.571428
 30
0.0
 10
-234.285712
 20
372.285716
 30
0.0
 10
-224.285712
 20
382.857140
 30
0.0
 10
-217.714288
 20
394.285716
 30
0.0
 10
-223.142856
 20
408.857140
 30
0.0
 10
-231.714288
 20
419.142860
 30
0.0
 10
-239.714288
 20
423.714284
 30
0.0
 10
-243.142856
 20
435.428572
 30
0.0
  0
LWPOLYLINE
  5
105
100
AcDbEntity
  8
Layer_1
 62
7
100
AcDbPolyline
 90
23
 70
1
 10
-162.857144
 20
432.285716
 30
0.0
 10
-134.571432
 20
418.857140
 30
0.0
 10
-119.428568
 20
358.000004
 30
0.0
 10
-129.142856
 20
354.571428
 30
0.0
 10
-137.142856
 20
348.285716
 30
0.0
 10
-154.857144
 20
345.142860
 30
0.0
 10
-171.428568
 20
349.714284
 30
0.0
 10
-180.857144
 20
331.714284
 30
0.0
 10
-205.428568
 20
332.571428
 30
0.0
 10
-218.000000
 20
330.285716
 30
0.0
 10
-230.857144
 20
334.571428
 30
0.0
 10
-238.000000
 20
330.000004
 30
0.0
 10
-262.857144
 20
358.857140
 30
0.0
 10
-250.857144
 20
375.142860
 30
0.0
 10
-242.000000
 20
378.000004
 30
0.0
 10
-238.571432
 20
372.571428
 30
0.0
 10
-234.000000
 20
372.571428
 30
0.0
 10
-221.428568
 20
387.714284
 30
0.0
 10
-218.000000
 20
394.571428
 30
0.0
 10
-198.571432
 20
404.857140
 30
0.0
 10
-183.142856
 20
409.142860
 30
0.0
 10
-163.714288
 20
422.857140
 30
0.0
 10
-162.857144
 20
432.285716
 30
0.0
  0
LWPOLYLINE
  5
106
100
AcDbEntity
  8
Layer_1
 62
7
100
AcDbPolyline
 90
9
 70
1
 10
-181.428568
 20
332.000004
 30
0.0
 10
-179.714288
 20
312.571428
 30
0.0
 10
-194.571432
 20
312.285716
 30
0.0
 10
-217.142856
 20
305.428572
 30
0.0
 10
-237.714288
 20
329.142860
 30
0.0
 10
-231.142856
 20
334.285716
 30
0.0
 10
-217.428568
 20
329.714284
 30
0.0
 10
-202.571432
 20
332.571428
 30
0.0
 10
-181.428568
 20
332.000004
 30
0.0
  0
LWPOLYLINE
  5
107
100
AcDbEntity
  8
Layer_1
 62
7
100
AcDbPolyline
 90
8
 70
1
 10
-180.571432
 20
313.142860
 30
0.0
 10
-163.428568
 20
310.857140
 30
0.0
 10
-170.571432
 20
323.428572
 30
0.0
 10
-154.285712
 20
340.571428
 30
0.0
 10
-154.571432
 20
345.142860
 30
0.0
 10
-171.714288
 20
349.714284
 30
0.0
 10
-181.142856
 20
330.857140
 30
0.0
 10
-180.571432
 20
313.142860
 30
0.0
  0
LWPOLYLINE
  5
108
100
AcDbEntity
  8
Layer_1
 62
7
100
AcDbPolyline
 90
9
 70
1
 10
-154.857144
 20
339.428572
 30
0.0
 10
-170.857144
 20
322.571428
 30
0.0
 10
-162.571432
 20
309.714284
 30
0.0
 10
-149.428568
 20
306.000004
 30
0.0
 10
-142.857144
 20
306.571428
 30
0.0
 10
-141.714288
 20
314.000004
 30
0.0
 10
-144.571432
 20
322.285716
 30
0.0
 10
-154.285712
 20
323.142860
 30
0.0
 10
-154.857144
 20
339.428572
 30
0.0
  0
LWPOLYLINE
  5
109
100
AcDbEntity
  8
Layer_1
 62
7
100
AcDbPolyline
 90
11
 70
1
 10
-160.285712
 20
308.857140
 30
0.0
 10
-148.571432
 20
305.142860
 30
0.0
 10
-148.000000
 20
295.714284
 30
0.0
 10
-146.571432
 20
289.142860
 30
0.0
 10
-156.285712
 20
282.571428
 30
0.0
 10
-159.714288
 20
277.142860
 30
0.0
 10
-161.714288
 20
284.857140
 30
0.0
 10
-176.285712
 20
282.285716
 30
0.0
 10
-176.285712
 20
291.714284
 30
0.0
 10
-166.857144
 20
296.000004
 30
0.0
 10
-160.285712
 20
308.857140
 30
0.0
  0
LWPOLYLINE
  5
10a
100
AcDbEntity
  8
Layer_1
 62
7
100
AcDbPolyline
 90
18
 70
1
 10
-160.000000
 20
277.142860
 30
0.0
 10
-157.428568
 20
269.428572
 30
0.0
 10
-170.571432
 20
261.428572
 30
0.0
 10
-184.000000
 20
262.571428
 30
0.0
 10
-184.000000
 20
256.285716
 30
0.0
 10
-209.428568
 20
259.428572
 30
0.0
 10
-214.571432
 20
250.857140
 30
0.0
 10
-222.285712
 20
245.428572
 30
0.0
 10
-223.428568
 20
245.714284
 30
0.0
 10
-220.857144
 20
265.714284
 30
0.0
 10
-198.571432
 20
266.857140
 30
0.0
 10
-194.000000
 20
264.285716
 30
0.0
 10
-187.428568
 20
273.714284
 30
0.0
 10
-182.857144
 20
271.714284
 30
0.0
 10
-178.000000
 20
274.285716
 30
0.0
 10
-176.857144
 20
281.428572
 30
0.0
 10
-162.000000
 20
284.857140
 30
0.0
 10
-160.000000
 20
277.142860
 30
0.0
  0
LWPOLYLINE
  5
10b
100
AcDbEntity
  8
Layer_1
 62
7
100
AcDbPolyline
 90
9
 70
1
 10
-176.857144
 20
292.857140
 30
0.0
 10
-184.285712
 20
294.857140
 30
0.0
 10
-198.000000
 20
293.428572
 30
0.0
 10
-195.142856
 20
286.000004
 30
0.0
 10
-186.571432
 20
274.000004
 30
0.0
 10
-181.714288
 20
271.714284
 30
0.0
 10
-178.857144
 20
273.714284
 30
0.0
 10
-176.571432
 20
282.571428
 30
0.0
 10
-176.857144
 20
292.857140
 30
0.0
  0
SPLINE
  5
10c
100
AcDbEntity
  8
Layer_1
 62
7
100
AcDbSpline
 70
8
 71
3
 72
8
 73
4
 74
0
 40
0
 40
0
 40
0
 40
0
 40
1
 40
1
 40
1
 40
1
 10
-222.857144
 20
282.285716
 30
0.0
 10
-224.285712
 20
282.285716
 30
0.0
 10
-257.428568
 20
276.571428
 30
0.0
 10
-257.428568
 20
276.571428
 30
0.0
  0
LWPOLYLINE
  5
10d
100
AcDbEntity
  8
Layer_1
 62
7
100
AcDbPolyline
 90
11
 70
1
 10
-200.000000
 20
294.000004
 30
0.0
 10
-209.142856
 20
289.714284
 30
0.0
 10
-212.857144
 20
284.285716
 30
0.0
 10
-223.428568
 20
282.000004
 30
0.0
 10
-218.285712
 20
270.285716
 30
0.0
 10
-213.142856
 20
266.285716
 30
0.0
 10
-197.714288
 20
266.285716
 30
0.0
 10
-193.428568
 20
264.285716
 30
0.0
 10
-186.000000
 20
273.714284
 30
0.0
 10
-194.857144
 20
285.714284
 30
0.0
 10
-200.000000
 20
294.000004
 30
0.0
  0
LWPOLYLINE
  5
10e
100
AcDbEntity
  8
Layer_1
 62
7
100
AcDbPolyline
 90
12
 70
1
 10
-257.428568
 20
276.571428
 30
0.0
 10
-260.857144
 20
266.285716
 30
0.0
 10
-260.285712
 20
258.285716
 30
0.0
 10
-257.428568
 20
254.000004
 30
0.0
 10
-248.285712
 20
255.142860
 30
0.0
 10
-238.000000
 20
251.714284
 30
0.0
 10
-228.285712
 20
244.000004
 30
0.0
 10
-222.857144
 20
246.000004
 30
0.0
 10
-220.857144
 20
265.428572
 30
0.0
 10
-212.571432
 20
266.000004
 30
0.0
 10
-218.000000
 20
269.714284
 30
0.0
 10
-222.857144
 20
282.285716
 30
0.0
  0
LWPOLYLINE
  5
10f
100
AcDbEntity
  8
Layer_1
 62
7
100
AcDbPolyline
 90
10
 70
1
 10
-183.714288
 20
262.571428
 30
0.0
 10
-184.285712
 20
256.000004
 30
0.0
 10
-171.714288
 20
250.285716
 30
0.0
 10
-152.857144
 20
247.428572
 30
0.0
 10
-136.857144
 20
245.714284
 30
0.0
 10
-135.142856
 20
251.428572
 30
0.0
 10
-142.571432
 20
262.000004
 30
0.0
 10
-157.142856
 20
270.000004
 30
0.0
 10
-170.000000
 20
261.428572
 30
0.0
 10
-183.714288
 20
262.571428
 30
0.0
  0
LWPOLYLINE
  5
110
100
AcDbEntity
  8
Layer_1
 62
7
100
AcDbPolyline
 90
15
 70
1
 10
-157.142856
 20
282.285716
 30
0.0
 10
-133.428568
 20
282.285716
 30
0.0
 10
-117.142856
 20
288.857140
 30
0.0
 10
-102.000000
 20
277.714284
 30
0.0
 10
-97.714288
 20
269.428572
 30
0.0
 10
-97.142856
 20
259.714284
 30
0.0
 10
-110.285712
 20
260.285716
 30
0.0
 10
-112.571432
 20
255.428572
 30
0.0
 10
-125.142856
 20
244.857140
 30
0.0
 10
-137.142856
 20
246.285716
 30
0.0
 10
-135.142856
 20
251.428572
 30
0.0
 10
-142.571432
 20
262.571428
 30
0.0
 10
-157.428568
 20
270.571428
 30
0.0
 10
-159.142856
 20
277.142860
 30
0.0
 10
-157.142856
 20
282.285716
 30
0.0
  0
LWPOLYLINE
  5
111
100
AcDbEntity
  8
Layer_1
 62
7
100
AcDbPolyline
 90
19
 70
1
 10
-117.428568
 20
289.428572
 30
0.0
 10
-107.142856
 20
301.142860
 30
0.0
 10
-98.571432
 20
330.285716
 30
0.0
 10
-97.428568
 20
346.285716
 30
0.0
 10
-92.571432
 20
357.142860
 30
0.0
 10
-104.285712
 20
359.714284
 30
0.0
 10
-121.142856
 20
357.428572
 30
0.0
 10
-129.428568
 20
354.000004
 30
0.0
 10
-137.714288
 20
348.285716
 30
0.0
 10
-155.142856
 20
345.142860
 30
0.0
 10
-154.285712
 20
324.285716
 30
0.0
 10
-144.285712
 20
323.142860
 30
0.0
 10
-141.428568
 20
313.428572
 30
0.0
 10
-142.857144
 20
306.285716
 30
0.0
 10
-148.857144
 20
305.428572
 30
0.0
 10
-146.571432
 20
289.428572
 30
0.0
 10
-156.571432
 20
282.571428
 30
0.0
 10
-134.000000
 20
282.000004
 30
0.0
 10
-117.428568
 20
289.428572
 30
0.0
  0
LWPOLYLINE
  5
112
100
AcDbEntity
  8
Layer_1
 62
7
100
AcDbPolyline
 90
21
 70
1
 10
-97.428568
 20
260.571428
 30
0.0
 10
-87.428568
 20
261.142860
 30
0.0
 10
-61.714286
 20
242.285716
 30
0.0
 10
-56.285714
 20
248.571428
 30
0.0
 10
-40.571429
 20
257.428572
 30
0.0
 10
-15.428571
 20
266.285716
 30
0.0
 10
6.285714
 20
278.000004
 30
0.0
 10
25.714286
 20
294.571428
 30
0.0
 10
20.000000
 20
306.000004
 30
0.0
 10
-0.571429
 20
310.285716
 30
0.0
 10
-12.857143
 20
314.857140
 30
0.0
 10
-37.428571
 20
322.000004
 30
0.0
 10
-69.142858
 20
355.428572
 30
0.0
 10
-93.714288
 20
356.285716
 30
0.0
 10
-98.000000
 20
346.571428
 30
0.0
 10
-99.714288
 20
327.714284
 30
0.0
 10
-107.142856
 20
301.428572
 30
0.0
 10
-117.714288
 20
289.428572
 30
0.0
 10
-102.000000
 20
277.714284
 30
0.0
 10
-97.714288
 20
269.142860
 30
0.0
 10
-97.428568
 20
260.571428
 30
0.0
  0
LWPOLYLINE
  5
113
100
AcDbEntity
  8
Layer_1
 62
7
100
AcDbPolyline
 90
24
 70
1
 10
25.714286
 20
293.142860
 30
0.0
 10
37.428571
 20
266.285716
 30
0.0
 10
29.428571
 20
256.285716
 30
0.0
 10
29.714286
 20
231.142860
 30
0.0
 10
26.571429
 20
221.428572
 30
0.0
 10
25.428571
 20
209.142860
 30
0.0
 10
18.285714
 20
205.428572
 30
0.0
 10
4.857143
 20
206.285716
 30
0.0
 10
-5.142857
 20
210.285716
 30
0.0
 10
-12.857143
 20
200.285716
 30
0.0
 10
-23.714286
 20
195.428572
 30
0.0
 10
-52.285714
 20
192.857140
 30
0.0
 10
-60.571429
 20
187.428572
 30
0.0
 10
-71.142858
 20
208.285716
 30
0.0
 10
-69.142858
 20
220.857140
 30
0.0
 10
-59.142858
 20
233.142860
 30
0.0
 10
-58.285714
 20
236.571428
 30
0.0
 10
-61.428571
 20
242.571428
 30
0.0
 10
-55.714286
 20
249.142860
 30
0.0
 10
-39.428571
 20
258.000004
 30
0.0
 10
-13.714286
 20
266.571428
 30
0.0
 10
7.142857
 20
278.857140
 30
0.0
 10
25.428571
 20
294.857140
 30
0.0
 10
25.714286
 20
293.142860
 30
0.0
  0
LWPOLYLINE
  5
114
100
AcDbEntity
  8
Layer_1
 62
7
100
AcDbPolyline
 90
23
 70
1
 10
-60.285714
 20
187.142860
 30
0.0
 10
-53.142858
 20
178.285716
 30
0.0
 10
-56.285714
 20
170.571428
 30
0.0
 10
-78.285714
 20
146.571428
 30
0.0
 10
-96.285712
 20
150.571428
 30
0.0
 10
-112.571432
 20
150.571428
 30
0.0
 10
-114.571432
 20
170.571428
 30
0.0
 10
-129.142856
 20
194.857140
 30
0.0
 10
-133.142856
 20
199.428572
 30
0.0
 10
-141.714288
 20
217.428572
 30
0.0
 10
-132.571432
 20
225.714284
 30
0.0
 10
-133.142856
 20
230.857140
 30
0.0
 10
-123.428568
 20
238.000004
 30
0.0
 10
-125.428568
 20
246.000004
 30
0.0
 10
-112.000000
 20
256.285716
 30
0.0
 10
-110.000000
 20
261.142860
 30
0.0
 10
-85.714288
 20
260.857140
 30
0.0
 10
-61.142858
 20
242.285716
 30
0.0
 10
-57.714286
 20
235.428572
 30
0.0
 10
-60.571429
 20
230.571428
 30
0.0
 10
-69.142858
 20
219.714284
 30
0.0
 10
-70.857143
 20
206.857140
 30
0.0
 10
-60.285714
 20
187.142860
 30
0.0
  0
LWPOLYLINE
  5
115
100
AcDbEntity
  8
Layer_1
 62
7
100
AcDbPolyline
 90
25
 70
1
 10
-113.142856
 20
150.857140
 30
0.0
 10
-118.571432
 20
150.000004
 30
0.0
 10
-128.571432
 20
143.142860
 30
0.0
 10
-138.571432
 20
135.142860
 30
0.0
 10
-208.857144
 20
166.000004
 30
0.0
 10
-218.857144
 20
164.285716
 30
0.0
 10
-206.571432
 20
181.428572
 30
0.0
 10
-204.857144
 20
189.142860
 30
0.0
 10
-209.714288
 20
199.428572
 30
0.0
 10
-203.428568
 20
209.714284
 30
0.0
 10
-202.285712
 20
224.000004
 30
0.0
 10
-210.571432
 20
235.714284
 30
0.0
 10
-222.571432
 20
245.428572
 30
0.0
 10
-212.857144
 20
251.714284
 30
0.0
 10
-209.428568
 20
260.000004
 30
0.0
 10
-184.000000
 20
256.285716
 30
0.0
 10
-170.000000
 20
250.000004
 30
0.0
 10
-125.428568
 20
245.428572
 30
0.0
 10
-122.857144
 20
237.142860
 30
0.0
 10
-133.142856
 20
230.571428
 30
0.0
 10
-132.571432
 20
225.142860
 30
0.0
 10
-142.000000
 20
217.428572
 30
0.0
 10
-133.714288
 20
200.000004
 30
0.0
 10
-114.857144
 20
171.714284
 30
0.0
 10
-113.142856
 20
150.857140
 30
0.0
  0
LWPOLYLINE
  5
116
100
AcDbEntity
  8
Layer_1
 62
7
100
AcDbPolyline
 90
15
 70
1
 10
-219.142856
 20
164.571428
 30
0.0
 10
-226.285712
 20
163.714284
 30
0.0
 10
-272.857144
 20
221.428572
 30
0.0
 10
-286.285712
 20
217.428572
 30
0.0
 10
-287.142856
 20
224.571428
 30
0.0
 10
-268.000000
 20
244.000004
 30
0.0
 10
-247.428568
 20
240.285716
 30
0.0
 10
-222.571432
 20
245.428572
 30
0.0
 10
-208.857144
 20
234.000004
 30
0.0
 10
-202.571432
 20
224.571428
 30
0.0
 10
-203.428568
 20
208.285716
 30
0.0
 10
-209.714288
 20
198.857140
 30
0.0
 10
-204.285712
 20
189.714284
 30
0.0
 10
-206.000000
 20
182.000004
 30
0.0
 10
-219.142856
 20
164.571428
 30
0.0
  0
LWPOLYLINE
  5
117
100
AcDbEntity
  8
Layer_1
 62
7
100
AcDbPolyline
 90
32
 70
1
 10
-230.000000
 20
244.285716
 30
0.0
 10
-246.000000
 20
240.285716
 30
0.0
 10
-267.428568
 20
244.000004
 30
0.0
 10
-287.142856
 20
224.857140
 30
0.0
 10
-286.857144
 20
218.000004
 30
0.0
 10
-297.142856
 20
216.285716
 30
0.0
 10
-311.714288
 20
196.857140
 30
0.0
 10
-317.142856
 20
178.571428
 30
0.0
 10
-324.857144
 20
178.000004
 30
0.0
 10
-340.857144
 20
190.285716
 30
0.0
 10
-360.857144
 20
213.714284
 30
0.0
 10
-360.285712
 20
232.000004
 30
0.0
 10
-350.571432
 20
243.428572
 30
0.0
 10
-354.571432
 20
255.714284
 30
0.0
 10
-351.428568
 20
269.142860
 30
0.0
 10
-353.428568
 20
283.428572
 30
0.0
 10
-347.142856
 20
299.714284
 30
0.0
 10
-355.714288
 20
309.428572
 30
0.0
 10
-326.000000
 20
303.142860
 30
0.0
 10
-321.428568
 20
310.000004
 30
0.0
 10
-306.571432
 20
266.571428
 30
0.0
 10
-292.571432
 20
259.714284
 30
0.0
 10
-298.571432
 20
290.571428
 30
0.0
 10
-285.428568
 20
304.000004
 30
0.0
 10
-264.571432
 20
275.142860
 30
0.0
 10
-257.142856
 20
275.714284
 30
0.0
 10
-260.000000
 20
267.428572
 30
0.0
 10
-260.000000
 20
258.571428
 30
0.0
 10
-257.142856
 20
254.000004
 30
0.0
 10
-248.000000
 20
255.714284
 30
0.0
 10
-236.285712
 20
251.428572
 30
0.0
 10
-230.000000
 20
244.285716
 30
0.0
  0
LWPOLYLINE
  5
118
100
AcDbEntity
  8
Layer_1
 62
7
100
AcDbPolyline
 90
15
 70
1
 10
-354.857144
 20
282.857140
 30
0.0
 10
-364.857144
 20
270.571428
 30
0.0
 10
-386.285712
 20
255.428572
 30
0.0
 10
-401.428576
 20
268.571428
 30
0.0
 10
-404.000000
 20
281.142860
 30
0.0
 10
-412.000000
 20
278.285716
 30
0.0
 10
-416.000000
 20
239.714284
 30
0.0
 10
-398.857144
 20
224.285716
 30
0.0
 10
-372.000000
 20
222.000004
 30
0.0
 10
-361.142856
 20
212.285716
 30
0.0
 10
-360.000000
 20
231.714284
 30
0.0
 10
-351.428568
 20
244.000004
 30
0.0
 10
-354.571432
 20
255.714284
 30
0.0
 10
-351.714288
 20
268.000004
 30
0.0
 10
-354.857144
 20
282.857140
 30
0.0
  0
LWPOLYLINE
  5
119
100
AcDbEntity
  8
Layer_1
 62
7
100
AcDbPolyline
 90
13
 70
1
 10
-322.571432
 20
310.285716
 30
0.0
 10
-310.857144
 20
312.571428
 30
0.0
 10
-316.571432
 20
338.857140
 30
0.0
 10
-330.571432
 20
366.000004
 30
0.0
 10
-355.714288
 20
392.000004
 30
0.0
 10
-374.857144
 20
392.857140
 30
0.0
 10
-391.142856
 20
386.285716
 30
0.0
 10
-394.000000
 20
371.428572
 30
0.0
 10
-383.714288
 20
310.571428
 30
0.0
 10
-380.857144
 20
308.285716
 30
0.0
 10
-372.000000
 20
314.857140
 30
0.0
 10
-325.142856
 20
303.142860
 30
0.0
 10
-322.571432
 20
310.285716
 30
0.0
  0
LWPOLYLINE
  5
11a
100
AcDbEntity
  8
Layer_1
 62
7
100
AcDbPolyline
 90
12
 70
1
 10
-137.428568
 20
134.857140
 30
0.0
 10
-129.142856
 20
129.428572
 30
0.0
 10
-123.142856
 20
116.000004
 30
0.0
 10
-126.000000
 20
98.000004
 30
0.0
 10
-82.285712
 20
101.714284
 30
0.0
 10
-56.857143
 20
121.428572
 30
0.0
 10
-68.000000
 20
130.571428
 30
0.0
 10
-78.571429
 20
147.714284
 30
0.0
 10
-97.142856
 20
151.142860
 30
0.0
 10
-114.571432
 20
151.428572
 30
0.0
 10
-122.000000
 20
149.428572
 30
0.0
 10
-137.428568
 20
134.857140
 30
0.0
  0
LWPOLYLINE
  5
11b
100
AcDbEntity
  8
Layer_1
 62
7
100
AcDbPolyline
 90
22
 70
1
 10
-77.428571
 20
147.428572
 30
0.0
 10
-68.000000
 20
131.428572
 30
0.0
 10
-57.142858
 20
122.000004
 30
0.0
 10
-52.285714
 20
130.857140
 30
0.0
 10
-45.714286
 20
135.714284
 30
0.0
 10
19.714286
 20
131.142860
 30
0.0
 10
68.857143
 20
138.000004
 30
0.0
 10
72.857143
 20
157.142860
 30
0.0
 10
64.571429
 20
192.571428
 30
0.0
 10
48.285714
 20
202.857140
 30
0.0
 10
36.285714
 20
204.285716
 30
0.0
 10
26.857143
 20
210.857140
 30
0.0
 10
20.000000
 20
206.000004
 30
0.0
 10
4.571429
 20
206.285716
 30
0.0
 10
-4.857143
 20
210.285716
 30
0.0
 10
-12.285714
 20
200.857140
 30
0.0
 10
-23.428571
 20
196.285716
 30
0.0
 10
-50.571429
 20
194.000004
 30
0.0
 10
-60.285714
 20
187.142860
 30
0.0
 10
-54.000000
 20
180.000004
 30
0.0
 10
-55.714286
 20
170.000004
 30
0.0
 10
-77.428571
 20
147.428572
 30
0.0
  0
LWPOLYLINE
  5
11c
100
AcDbEntity
  8
Layer_1
 62
7
100
AcDbPolyline
 90
29
 70
1
 10
68.571429
 20
138.285716
 30
0.0
 10
107.428568
 20
148.285716
 30
0.0
 10
129.142856
 20
150.857140
 30
0.0
 10
124.000000
 20
162.857140
 30
0.0
 10
135.142856
 20
187.142860
 30
0.0
 10
133.714288
 20
195.428572
 30
0.0
 10
156.285712
 20
186.857140
 30
0.0
 10
159.142856
 20
192.857140
 30
0.0
 10
158.285712
 20
202.857140
 30
0.0
 10
149.142856
 20
224.285716
 30
0.0
 10
142.285712
 20
225.142860
 30
0.0
 10
138.285712
 20
231.714284
 30
0.0
 10
135.428568
 20
244.857140
 30
0.0
 10
134.000000
 20
284.857140
 30
0.0
 10
131.142856
 20
292.000004
 30
0.0
 10
92.285712
 20
288.857140
 30
0.0
 10
69.428571
 20
276.000004
 30
0.0
 10
56.000000
 20
266.000004
 30
0.0
 10
45.142858
 20
264.571428
 30
0.0
 10
37.142858
 20
268.285716
 30
0.0
 10
29.714286
 20
255.714284
 30
0.0
 10
30.000000
 20
230.571428
 30
0.0
 10
26.571429
 20
221.714284
 30
0.0
 10
25.714286
 20
210.571428
 30
0.0
 10
37.428571
 20
203.714284
 30
0.0
 10
48.571429
 20
202.285716
 30
0.0
 10
64.857143
 20
192.285716
 30
0.0
 10
72.857143
 20
156.285716
 30
0.0
 10
68.571429
 20
138.285716
 30
0.0
  0
LWPOLYLINE
  5
11d
100
AcDbEntity
  8
Layer_1
 62
7
100
AcDbPolyline
 90
15
 70
1
 10
128.857144
 20
151.142860
 30
0.0
 10
151.428568
 20
148.000004
 30
0.0
 10
168.285712
 20
148.571428
 30
0.0
 10
196.571432
 20
157.714284
 30
0.0
 10
194.571432
 20
168.857140
 30
0.0
 10
193.714288
 20
181.142860
 30
0.0
 10
186.000000
 20
192.857140
 30
0.0
 10
174.000000
 20
201.142860
 30
0.0
 10
158.285712
 20
202.285716
 30
0.0
 10
159.714288
 20
192.857140
 30
0.0
 10
156.285712
 20
186.857140
 30
0.0
 10
133.142856
 20
195.428572
 30
0.0
 10
134.857144
 20
187.428572
 30
0.0
 10
124.000000
 20
162.571428
 30
0.0
 10
128.857144
 20
151.142860
 30
0.0
  0
LWPOLYLINE
  5
11e
100
AcDbEntity
  8
Layer_1
 62
7
100
AcDbPolyline
 90
21
 70
1
 10
196.000000
 20
158.571428
 30
0.0
 10
221.714288
 20
166.000004
 30
0.0
 10
255.142856
 20
180.857140
 30
0.0
 10
247.428568
 20
187.714284
 30
0.0
 10
239.714288
 20
202.857140
 30
0.0
 10
228.000000
 20
242.857140
 30
0.0
 10
217.142856
 20
250.857140
 30
0.0
 10
190.571432
 20
258.000004
 30
0.0
 10
162.571432
 20
259.142860
 30
0.0
 10
135.142856
 20
275.428572
 30
0.0
 10
135.142856
 20
264.857140
 30
0.0
 10
135.714288
 20
244.857140
 30
0.0
 10
138.285712
 20
230.857140
 30
0.0
 10
142.285712
 20
224.571428
 30
0.0
 10
149.142856
 20
223.714284
 30
0.0
 10
159.142856
 20
201.142860
 30
0.0
 10
174.000000
 20
201.142860
 30
0.0
 10
186.857144
 20
192.000004
 30
0.0
 10
194.285712
 20
179.714284
 30
0.0
 10
194.857144
 20
167.714284
 30
0.0
 10
196.000000
 20
158.571428
 30
0.0
  0
ENDSEC
  0
SECTION
  2
OBJECTS
  0
DICTIONARY
  5
C
330
0
100
AcDbDictionary
  3
ACAD_GROUP
350
D
  3
ACAD_MLINESTYLE
350
17
  0
DICTIONARY
  5
D
330
C
100
AcDbDictionary
  0
DICTIONARY
  5
1A
330
C
100
AcDbDictionary
  0
DICTIONARY
  5
17
330
C
100
AcDbDictionary
  3
STANDARD
350
18
  0
DICTIONARY
  5
19
330
C
100
AcDbDictionary
  0
ENDSEC
  0
EOF
