  0
SECTION
  2
HEADER
  9
$ACADVER
  1
AC1014
  9
$HANDSEED
  5
FFFF
  9
$MEASUREMENT
 70
     1
  0
ENDSEC
  0
SECTION
  2
TABLES
  0
TABLE
  2
VPORT
  5
8
330
0
100
AcDbSymbolTable
 70
     4
  0
VPORT
  5
2E
330
8
100
AcDbSymbolTableRecord
100
AcDbViewportTableRecord
  2
*ACTIVE
 70
     0
 10
0.0
 20
0.0
 11
1.0
 21
1.0
 12
210.0
 22
148.5
 13
0.0
 23
0.0
 14
10.0
 24
10.0
 15
10.0
 25
10.0
 16
0.0
 26
0.0
 36
1.0
 17
0.0
 27
0.0
 37
0.0
 40
341.0
 41
1.24
 42
50.0
 43
0.0
 44
0.0
 50
0.0
 51
0.0
 71
     0
 72
   100
 73
     1
 74
     3
 75
     0
 76
     0
 77
     0
 78
     0
  0
ENDTAB
  0
TABLE
  2
LTYPE
  5
5
330
0
100
AcDbSymbolTable
 70
     1
  0
LTYPE
  5
14
330
5
100
AcDbSymbolTableRecord
100
AcDbLinetypeTableRecord
  2
BYBLOCK
 70
     0
  3

 72
    65
 73
     0
 40
0.0
  0
LTYPE
  5
15
330
5
100
AcDbSymbolTableRecord
100
AcDbLinetypeTableRecord
  2
BYLAYER
 70
     0
  3

 72
    65
 73
     0
 40
0.0
  0
LTYPE
  5
16
330
5
100
AcDbSymbolTableRecord
100
AcDbLinetypeTableRecord
  2
CONTINUOUS
 70
     0
  3
Solid line
 72
    65
 73
     0
 40
0.0
  0
ENDTAB
  0
TABLE
  2
LAYER
  5
2
100
AcDbSymbolTable
 70
2
  0
LAYER
  5
50
100
AcDbSymbolTableRecord
100
AcDbLayerTableRecord
  2
0
 70
0
  6
CONTINUOUS
  0
LAYER
  5
51
100
AcDbSymbolTableRecord
100
AcDbLayerTableRecord
  2
Layer_1
 70
0
  6
CONTINUOUS
  0
ENDTAB
  0
TABLE
  2
STYLE
  5
3
330
0
100
AcDbSymbolTable
 70
     1
  0
STYLE
  5
11
330
3
100
AcDbSymbolTableRecord
100
AcDbTextStyleTableRecord
  2
STANDARD
 70
     0
 40
0.0
 41
1.0
 50
0.0
 71
     0
 42
2.5
  3
txt
  4

  0
ENDTAB
  0
TABLE
  2
VIEW
  5
6
330
0
100
AcDbSymbolTable
 70
     0
  0
ENDTAB
  0
TABLE
  2
UCS
  5
7
330
0
100
AcDbSymbolTable
 70
     0
  0
ENDTAB
  0
TABLE
  2
APPID
  5
9
330
0
100
AcDbSymbolTable
 70
     2
  0
APPID
  5
12
330
9
100
AcDbSymbolTableRecord
100
AcDbRegAppTableRecord
  2
ACAD
 70
     0
  0
ENDTAB
  0
TABLE
  2
DIMSTYLE
  5
A
330
0
100
AcDbSymbolTable
 70
     1
  0
DIMSTYLE
105
27
330
A
100
AcDbSymbolTableRecord
100
AcDbDimStyleTableRecord
  2
ISO-25
 70
     0
  3

  4

  5

  6

  7

 40
1.0
 41
2.5
 42
0.625
 43
3.75
 44
1.25
 45
0.0
 46
0.0
 47
0.0
 48
0.0
140
2.5
141
2.5
142
0.0
143
0.03937007874016
144
1.0
145
0.0
146
1.0
147
0.625
 71
     0
 72
     0
 73
     0
 74
     0
 75
     0
 76
     0
 77
     1
 78
     8
170
     0
171
     3
172
     1
173
     0
174
     0
175
     0
176
     0
177
     0
178
     0
270
     2
271
     2
272
     2
273
     2
274
     3
340
11
275
     0
280
     0
281
     0
282
     0
283
     0
284
     8
285
     0
286
     0
287
     3
288
     0
  0
ENDTAB
  0
TABLE
  2
BLOCK_RECORD
  5
1
330
0
100
AcDbSymbolTable
 70
     1
  0
BLOCK_RECORD
  5
1F
330
1
100
AcDbSymbolTableRecord
100
AcDbBlockTableRecord
  2
*MODEL_SPACE
  0
BLOCK_RECORD
  5
1B
330
1
100
AcDbSymbolTableRecord
100
AcDbBlockTableRecord
  2
*PAPER_SPACE
  0
ENDTAB
  0
ENDSEC
  0
SECTION
  2
BLOCKS
  0
BLOCK
  5
20
330
1F
100
AcDbEntity
  8
0
100
AcDbBlockBegin
  2
*MODEL_SPACE
 70
     0
 10
0.0
 20
0.0
 30
0.0
  3
*MODEL_SPACE
  1

  0
ENDBLK
  5
21
330
1F
100
AcDbEntity
  8
0
100
AcDbBlockEnd
  0
BLOCK
  5
1C
330
1B
100
AcDbEntity
 67
     1
  8
0
100
AcDbBlockBegin
  2
*PAPER_SPACE
  1

  0
ENDBLK
  5
1D
330
1B
100
AcDbEntity
 67
     1
  8
0
100
AcDbBlockEnd
  0
ENDSEC
  0
SECTION
  2
ENTITIES
  0
LWPOLYLINE
  5
100
100
AcDbEntity
  8
Layer_1
 62
7
100
AcDbPolyline
 90
21
 70
1
 10
-251.428568
 20
223.428572
 30
0.0
 10
-213.714288
 20
173.142860
 30
0.0
 10
-186.285712
 20
120.571428
 30
0.0
 10
-132.000000
 20
120.000004
 30
0.0
 10
-65.714286
 20
123.428572
 30
0.0
 10
-10.857143
 20
133.142860
 30
0.0
 10
7.428571
 20
164.000004
 30
0.0
 10
25.714286
 20
183.428572
 30
0.0
 10
17.142857
 20
188.000004
 30
0.0
 10
11.428571
 20
201.142860
 30
0.0
 10
1.142857
 20
200.000004
 30
0.0
 10
-14.857143
 20
184.571428
 30
0.0
 10
-149.142856
 20
196.571428
 30
0.0
 10
-162.285712
 20
202.857140
 30
0.0
 10
-168.000000
 20
213.714284
 30
0.0
 10
-170.285712
 20
240.571428
 30
0.0
 10
-192.571432
 20
246.857140
 30
0.0
 10
-199.428568
 20
246.285716
 30
0.0
 10
-218.857144
 20
257.142860
 30
0.0
 10
-231.428568
 20
237.142860
 30
0.0
 10
-251.428568
 20
223.428572
 30
0.0
  0
LWPOLYLINE
  5
101
100
AcDbEntity
  8
Layer_1
 62
7
100
AcDbPolyline
 90
21
 70
1
 10
-169.142856
 20
241.142860
 30
0.0
 10
-167.428568
 20
217.714284
 30
0.0
 10
-162.857144
 20
204.000004
 30
0.0
 10
-148.571432
 20
197.142860
 30
0.0
 10
-14.857143
 20
185.142860
 30
0.0
 10
0.000000
 20
200.571428
 30
0.0
 10
13.142857
 20
201.142860
 30
0.0
 10
18.857143
 20
188.571428
 30
0.0
 10
25.714286
 20
182.857140
 30
0.0
 10
33.714286
 20
189.714284
 30
0.0
 10
124.000000
 20
224.000004
 30
0.0
 10
117.142856
 20
241.142860
 30
0.0
 10
107.428568
 20
241.142860
 30
0.0
 10
65.142858
 20
223.428572
 30
0.0
 10
45.714286
 20
246.857140
 30
0.0
 10
29.714286
 20
251.428572
 30
0.0
 10
11.428571
 20
240.571428
 30
0.0
 10
-68.571429
 20
232.000004
 30
0.0
 10
-103.428568
 20
230.285716
 30
0.0
 10
-136.000000
 20
232.571428
 30
0.0
 10
-169.142856
 20
241.142860
 30
0.0
  0
LWPOLYLINE
  5
102
100
AcDbEntity
  8
Layer_1
 62
7
100
AcDbPolyline
 90
20
 70
1
 10
-217.714288
 20
256.571428
 30
0.0
 10
-246.285712
 20
273.142860
 30
0.0
 10
-252.571432
 20
300.571428
 30
0.0
 10
-217.714288
 20
327.428572
 30
0.0
 10
-201.142856
 20
362.857140
 30
0.0
 10
-162.857144
 20
354.857140
 30
0.0
 10
-153.714288
 20
354.857140
 30
0.0
 10
-146.285712
 20
342.857140
 30
0.0
 10
-148.000000
 20
336.000004
 30
0.0
 10
-157.714288
 20
331.428572
 30
0.0
 10
-162.285712
 20
324.000004
 30
0.0
 10
-149.142856
 20
292.571428
 30
0.0
 10
-121.714288
 20
283.428572
 30
0.0
 10
-66.857143
 20
233.714284
 30
0.0
 10
-91.428568
 20
230.857140
 30
0.0
 10
-127.428568
 20
232.571428
 30
0.0
 10
-169.714288
 20
241.714284
 30
0.0
 10
-193.142856
 20
246.857140
 30
0.0
 10
-200.000000
 20
246.857140
 30
0.0
 10
-217.714288
 20
256.571428
 30
0.0
  0
LWPOLYLINE
  5
103
100
AcDbEntity
  8
Layer_1
 62
7
100
AcDbPolyline
 90
28
 70
1
 10
-66.285714
 20
234.285716
 30
0.0
 10
11.428571
 20
241.714284
 30
0.0
 10
28.571429
 20
252.000004
 30
0.0
 10
48.000000
 20
245.714284
 30
0.0
 10
61.142858
 20
276.000004
 30
0.0
 10
58.285714
 20
290.857140
 30
0.0
 10
5.714286
 20
294.285716
 30
0.0
 10
-33.714286
 20
294.285716
 30
0.0
 10
-64.000000
 20
305.142860
 30
0.0
 10
-88.571432
 20
325.142860
 30
0.0
 10
-74.285714
 20
351.428572
 30
0.0
 10
-53.714286
 20
361.714284
 30
0.0
 10
-52.571429
 20
384.000004
 30
0.0
 10
-68.571429
 20
398.857140
 30
0.0
 10
-98.285712
 20
402.285716
 30
0.0
 10
-115.428568
 20
402.285716
 30
0.0
 10
-144.571432
 20
410.857140
 30
0.0
 10
-184.571432
 20
413.714284
 30
0.0
 10
-201.142856
 20
364.000004
 30
0.0
 10
-162.285712
 20
355.428572
 30
0.0
 10
-154.285712
 20
355.428572
 30
0.0
 10
-146.857144
 20
344.000004
 30
0.0
 10
-147.428568
 20
335.428572
 30
0.0
 10
-158.285712
 20
330.285716
 30
0.0
 10
-160.571432
 20
324.000004
 30
0.0
 10
-149.142856
 20
293.142860
 30
0.0
 10
-121.142856
 20
284.000004
 30
0.0
 10
-66.285714
 20
234.285716
 30
0.0
  0
LWPOLYLINE
  5
104
100
AcDbEntity
  8
Layer_1
 62
7
100
AcDbPolyline
 90
22
 70
1
 10
-180.571432
 20
414.857140
 30
0.0
 10
-173.714288
 20
437.714284
 30
0.0
 10
-169.142856
 20
481.142860
 30
0.0
 10
-177.142856
 20
515.428572
 30
0.0
 10
-124.000000
 20
518.285716
 30
0.0
 10
-106.857144
 20
518.857140
 30
0.0
 10
-61.142858
 20
532.571428
 30
0.0
 10
-29.142857
 20
564.571428
 30
0.0
 10
8.000000
 20
603.428572
 30
0.0
 10
24.571429
 20
609.142860
 30
0.0
 10
33.714286
 20
537.142860
 30
0.0
 10
34.285714
 20
492.571428
 30
0.0
 10
36.000000
 20
489.714284
 30
0.0
 10
23.428571
 20
465.142860
 30
0.0
 10
18.857143
 20
433.714284
 30
0.0
 10
-1.714286
 20
398.857140
 30
0.0
 10
-29.142857
 20
386.285716
 30
0.0
 10
-52.571429
 20
382.857140
 30
0.0
 10
-68.000000
 20
399.428572
 30
0.0
 10
-113.142856
 20
403.428572
 30
0.0
 10
-142.857144
 20
410.857140
 30
0.0
 10
-180.571432
 20
414.857140
 30
0.0
  0
LWPOLYLINE
  5
105
100
AcDbEntity
  8
Layer_1
 62
7
100
AcDbPolyline
 90
17
 70
1
 10
-176.000000
 20
516.571428
 30
0.0
 10
-104.000000
 20
520.000004
 30
0.0
 10
-59.428571
 20
533.142860
 30
0.0
 10
-9.142857
 20
585.142860
 30
0.0
 10
8.000000
 20
603.428572
 30
0.0
 10
23.428571
 20
610.285716
 30
0.0
 10
12.571429
 20
662.857140
 30
0.0
 10
-5.142857
 20
679.428572
 30
0.0
 10
-48.000000
 20
683.428572
 30
0.0
 10
-82.857144
 20
672.000004
 30
0.0
 10
-74.285714
 20
651.428572
 30
0.0
 10
-80.571432
 20
641.142860
 30
0.0
 10
-91.428568
 20
638.285716
 30
0.0
 10
-114.285712
 20
644.571428
 30
0.0
 10
-160.000000
 20
616.571428
 30
0.0
 10
-173.714288
 20
550.857140
 30
0.0
 10
-176.000000
 20
516.571428
 30
0.0
  0
ENDSEC
  0
SECTION
  2
OBJECTS
  0
DICTIONARY
  5
C
330
0
100
AcDbDictionary
  3
ACAD_GROUP
350
D
  3
ACAD_MLINESTYLE
350
17
  0
DICTIONARY
  5
D
330
C
100
AcDbDictionary
  0
DICTIONARY
  5
1A
330
C
100
AcDbDictionary
  0
DICTIONARY
  5
17
330
C
100
AcDbDictionary
  3
STANDARD
350
18
  0
DICTIONARY
  5
19
330
C
100
AcDbDictionary
  0
ENDSEC
  0
EOF
