  0
SECTION
  2
HEADER
  9
$ACADVER
  1
AC1014
  9
$HANDSEED
  5
FFFF
  9
$MEASUREMENT
 70
     1
  0
ENDSEC
  0
SECTION
  2
TABLES
  0
TABLE
  2
VPORT
  5
8
330
0
100
AcDbSymbolTable
 70
     4
  0
VPORT
  5
2E
330
8
100
AcDbSymbolTableRecord
100
AcDbViewportTableRecord
  2
*ACTIVE
 70
     0
 10
0.0
 20
0.0
 11
1.0
 21
1.0
 12
210.0
 22
148.5
 13
0.0
 23
0.0
 14
10.0
 24
10.0
 15
10.0
 25
10.0
 16
0.0
 26
0.0
 36
1.0
 17
0.0
 27
0.0
 37
0.0
 40
341.0
 41
1.24
 42
50.0
 43
0.0
 44
0.0
 50
0.0
 51
0.0
 71
     0
 72
   100
 73
     1
 74
     3
 75
     0
 76
     0
 77
     0
 78
     0
  0
ENDTAB
  0
TABLE
  2
LTYPE
  5
5
330
0
100
AcDbSymbolTable
 70
     1
  0
LTYPE
  5
14
330
5
100
AcDbSymbolTableRecord
100
AcDbLinetypeTableRecord
  2
BYBLOCK
 70
     0
  3

 72
    65
 73
     0
 40
0.0
  0
LTYPE
  5
15
330
5
100
AcDbSymbolTableRecord
100
AcDbLinetypeTableRecord
  2
BYLAYER
 70
     0
  3

 72
    65
 73
     0
 40
0.0
  0
LTYPE
  5
16
330
5
100
AcDbSymbolTableRecord
100
AcDbLinetypeTableRecord
  2
CONTINUOUS
 70
     0
  3
Solid line
 72
    65
 73
     0
 40
0.0
  0
ENDTAB
  0
TABLE
  2
LAYER
  5
2
100
AcDbSymbolTable
 70
2
  0
LAYER
  5
50
100
AcDbSymbolTableRecord
100
AcDbLayerTableRecord
  2
0
 70
0
  6
CONTINUOUS
  0
LAYER
  5
51
100
AcDbSymbolTableRecord
100
AcDbLayerTableRecord
  2
Layer_1
 70
0
  6
CONTINUOUS
  0
ENDTAB
  0
TABLE
  2
STYLE
  5
3
330
0
100
AcDbSymbolTable
 70
     1
  0
STYLE
  5
11
330
3
100
AcDbSymbolTableRecord
100
AcDbTextStyleTableRecord
  2
STANDARD
 70
     0
 40
0.0
 41
1.0
 50
0.0
 71
     0
 42
2.5
  3
txt
  4

  0
ENDTAB
  0
TABLE
  2
VIEW
  5
6
330
0
100
AcDbSymbolTable
 70
     0
  0
ENDTAB
  0
TABLE
  2
UCS
  5
7
330
0
100
AcDbSymbolTable
 70
     0
  0
ENDTAB
  0
TABLE
  2
APPID
  5
9
330
0
100
AcDbSymbolTable
 70
     2
  0
APPID
  5
12
330
9
100
AcDbSymbolTableRecord
100
AcDbRegAppTableRecord
  2
ACAD
 70
     0
  0
ENDTAB
  0
TABLE
  2
DIMSTYLE
  5
A
330
0
100
AcDbSymbolTable
 70
     1
  0
DIMSTYLE
105
27
330
A
100
AcDbSymbolTableRecord
100
AcDbDimStyleTableRecord
  2
ISO-25
 70
     0
  3

  4

  5

  6

  7

 40
1.0
 41
2.5
 42
0.625
 43
3.75
 44
1.25
 45
0.0
 46
0.0
 47
0.0
 48
0.0
140
2.5
141
2.5
142
0.0
143
0.03937007874016
144
1.0
145
0.0
146
1.0
147
0.625
 71
     0
 72
     0
 73
     0
 74
     0
 75
     0
 76
     0
 77
     1
 78
     8
170
     0
171
     3
172
     1
173
     0
174
     0
175
     0
176
     0
177
     0
178
     0
270
     2
271
     2
272
     2
273
     2
274
     3
340
11
275
     0
280
     0
281
     0
282
     0
283
     0
284
     8
285
     0
286
     0
287
     3
288
     0
  0
ENDTAB
  0
TABLE
  2
BLOCK_RECORD
  5
1
330
0
100
AcDbSymbolTable
 70
     1
  0
BLOCK_RECORD
  5
1F
330
1
100
AcDbSymbolTableRecord
100
AcDbBlockTableRecord
  2
*MODEL_SPACE
  0
BLOCK_RECORD
  5
1B
330
1
100
AcDbSymbolTableRecord
100
AcDbBlockTableRecord
  2
*PAPER_SPACE
  0
ENDTAB
  0
ENDSEC
  0
SECTION
  2
BLOCKS
  0
BLOCK
  5
20
330
1F
100
AcDbEntity
  8
0
100
AcDbBlockBegin
  2
*MODEL_SPACE
 70
     0
 10
0.0
 20
0.0
 30
0.0
  3
*MODEL_SPACE
  1

  0
ENDBLK
  5
21
330
1F
100
AcDbEntity
  8
0
100
AcDbBlockEnd
  0
BLOCK
  5
1C
330
1B
100
AcDbEntity
 67
     1
  8
0
100
AcDbBlockBegin
  2
*PAPER_SPACE
  1

  0
ENDBLK
  5
1D
330
1B
100
AcDbEntity
 67
     1
  8
0
100
AcDbBlockEnd
  0
ENDSEC
  0
SECTION
  2
ENTITIES
  0
LWPOLYLINE
  5
100
100
AcDbEntity
  8
Layer_1
 62
7
100
AcDbPolyline
 90
27
 70
1
 10
155.159432
 20
602.050916
 30
0.0
 10
192.333048
 20
619.021484
 30
0.0
 10
220.617312
 20
618.213356
 30
0.0
 10
234.355392
 20
598.818428
 30
0.0
 10
227.890416
 20
593.161572
 30
0.0
 10
225.466048
 20
581.847868
 30
0.0
 10
230.314784
 20
572.150404
 30
0.0
 10
275.569616
 20
547.906740
 30
0.0
 10
299.813272
 20
545.482372
 30
0.0
 10
313.551352
 20
535.784908
 30
0.0
 10
251.325952
 20
472.751388
 30
0.0
 10
240.820368
 20
454.972708
 30
0.0
 10
237.587880
 20
429.920924
 30
0.0
 10
222.233560
 20
430.729044
 30
0.0
 10
194.757408
 20
421.839700
 30
0.0
 10
164.048776
 20
419.415340
 30
0.0
 10
151.118824
 20
416.182852
 30
0.0
 10
131.723888
 20
407.293508
 30
0.0
 10
125.258912
 20
423.455948
 30
0.0
 10
117.985816
 20
467.094540
 30
0.0
 10
132.532016
 20
482.448852
 30
0.0
 10
144.653848
 20
528.511812
 30
0.0
 10
133.340136
 20
564.877300
 30
0.0
 10
121.218304
 20
578.615380
 30
0.0
 10
124.450792
 20
594.777820
 30
0.0
 10
130.915768
 20
601.242796
 30
0.0
 10
155.159432
 20
602.050916
 30
0.0
  0
LWPOLYLINE
  5
101
100
AcDbEntity
  8
Layer_1
 62
7
100
AcDbPolyline
 90
24
 70
1
 10
314.359472
 20
535.784908
 30
0.0
 10
251.325952
 20
473.559516
 30
0.0
 10
239.204120
 20
452.548340
 30
0.0
 10
239.204120
 20
429.112804
 30
0.0
 10
282.034592
 20
416.182852
 30
0.0
 10
315.975720
 20
383.049844
 30
0.0
 10
328.905672
 20
372.544260
 30
0.0
 10
387.898576
 20
353.957452
 30
0.0
 10
413.758480
 20
372.544260
 30
0.0
 10
350.724960
 20
399.212284
 30
0.0
 10
357.189944
 20
422.647828
 30
0.0
 10
362.846792
 20
457.397076
 30
0.0
 10
373.352384
 20
465.478292
 30
0.0
 10
394.363552
 20
468.710780
 30
0.0
 10
407.293504
 20
480.832612
 30
0.0
 10
438.810264
 20
475.175756
 30
0.0
 10
470.327024
 20
488.105708
 30
0.0
 10
446.083368
 20
507.500636
 30
0.0
 10
421.839704
 20
518.814348
 30
0.0
 10
388.706696
 20
515.581860
 30
0.0
 10
356.381816
 20
516.389980
 30
0.0
 10
333.754400
 20
521.238716
 30
0.0
 10
328.097544
 20
529.319932
 30
0.0
 10
314.359472
 20
535.784908
 30
0.0
  0
LWPOLYLINE
  5
102
100
AcDbEntity
  8
Layer_1
 62
7
100
AcDbPolyline
 90
18
 70
1
 10
393.555432
 20
467.902660
 30
0.0
 10
373.352384
 20
465.478292
 30
0.0
 10
363.654920
 20
458.205196
 30
0.0
 10
360.422432
 20
437.194020
 30
0.0
 10
351.533088
 20
399.212284
 30
0.0
 10
414.566608
 20
373.352380
 30
0.0
 10
421.839704
 20
379.009236
 30
0.0
 10
423.455944
 20
391.131068
 30
0.0
 10
416.182848
 20
404.869140
 30
0.0
 10
398.404160
 20
408.101628
 30
0.0
 10
386.282336
 20
414.566604
 30
0.0
 10
385.474208
 20
429.112804
 30
0.0
 10
418.607216
 20
429.920924
 30
0.0
 10
431.537168
 20
434.769652
 30
0.0
 10
431.537168
 20
443.658996
 30
0.0
 10
414.566608
 20
451.740220
 30
0.0
 10
406.485384
 20
453.356460
 30
0.0
 10
393.555432
 20
467.902660
 30
0.0
  0
LWPOLYLINE
  5
103
100
AcDbEntity
  8
Layer_1
 62
7
100
AcDbPolyline
 90
33
 70
1
 10
468.710784
 20
488.913836
 30
0.0
 10
438.810264
 20
476.792004
 30
0.0
 10
408.909752
 20
480.832612
 30
0.0
 10
393.555432
 20
467.902660
 30
0.0
 10
407.293504
 20
452.548340
 30
0.0
 10
421.031584
 20
449.315852
 30
0.0
 10
430.729048
 20
443.658996
 30
0.0
 10
428.304680
 20
434.769652
 30
0.0
 10
416.990968
 20
431.537164
 30
0.0
 10
385.474208
 20
431.537164
 30
0.0
 10
387.090456
 20
412.142236
 30
0.0
 10
400.020408
 20
407.293508
 30
0.0
 10
415.374728
 20
404.869140
 30
0.0
 10
422.647824
 20
391.939188
 30
0.0
 10
422.647824
 20
378.201116
 30
0.0
 10
412.142240
 20
372.544260
 30
0.0
 10
387.090456
 20
352.341212
 30
0.0
 10
387.898576
 20
323.248812
 30
0.0
 10
399.212288
 20
318.400084
 30
0.0
 10
425.880312
 20
320.824452
 30
0.0
 10
454.164584
 20
306.278252
 30
0.0
 10
511.541248
 20
291.732052
 30
0.0
 10
519.622472
 20
286.883324
 30
0.0
 10
555.987960
 20
311.935108
 30
0.0
 10
555.987960
 20
333.754404
 30
0.0
 10
564.877304
 20
338.603132
 30
0.0
 10
564.877304
 20
379.009236
 30
0.0
 10
587.504720
 20
397.596044
 30
0.0
 10
577.807256
 20
445.275244
 30
0.0
 10
568.917912
 20
453.356460
 30
0.0
 10
518.006224
 20
453.356460
 30
0.0
 10
501.843784
 20
461.437684
 30
0.0
 10
468.710784
 20
488.913836
 30
0.0
  0
LWPOLYLINE
  5
104
100
AcDbEntity
  8
Layer_1
 62
7
100
AcDbPolyline
 90
24
 70
1
 10
313.551352
 20
383.857964
 30
0.0
 10
328.905672
 20
373.352380
 30
0.0
 10
388.706696
 20
354.765572
 30
0.0
 10
388.706696
 20
322.440692
 30
0.0
 10
402.444776
 20
318.400084
 30
0.0
 10
428.304680
 20
320.824452
 30
0.0
 10
454.972704
 20
307.894500
 30
0.0
 10
514.773736
 20
291.732052
 30
0.0
 10
524.471200
 20
285.267076
 30
0.0
 10
508.308760
 20
244.860980
 30
0.0
 10
462.245808
 20
258.599052
 30
0.0
 10
410.525992
 20
266.680276
 30
0.0
 10
373.352384
 20
280.418348
 30
0.0
 10
329.713792
 20
262.639660
 30
0.0
 10
286.883320
 20
274.761492
 30
0.0
 10
269.912760
 20
275.569612
 30
0.0
 10
253.750320
 20
269.104636
 30
0.0
 10
260.215296
 20
317.591964
 30
0.0
 10
269.104640
 20
328.905668
 30
0.0
 10
277.993984
 20
357.998060
 30
0.0
 10
278.802104
 20
366.887404
 30
0.0
 10
284.458960
 20
370.928012
 30
0.0
 10
308.702616
 20
370.928012
 30
0.0
 10
313.551352
 20
383.857964
 30
0.0
  0
LWPOLYLINE
  5
105
100
AcDbEntity
  8
Layer_1
 62
7
100
AcDbPolyline
 90
33
 70
1
 10
115.561448
 20
464.670172
 30
0.0
 10
80.812200
 20
426.688436
 30
0.0
 10
31.516759
 20
391.939188
 30
0.0
 10
8.889342
 20
391.939188
 30
0.0
 10
-21.819295
 20
399.212284
 30
0.0
 10
-37.981736
 20
416.182852
 30
0.0
 10
-83.236568
 20
421.839700
 30
0.0
 10
-100.207136
 20
419.415340
 30
0.0
 10
-117.177696
 20
378.201116
 30
0.0
 10
-75.155350
 20
354.765572
 30
0.0
 10
-63.033519
 20
350.724964
 30
0.0
 10
-41.214224
 20
336.178764
 30
0.0
 10
-13.738074
 20
335.370644
 30
0.0
 10
-7.273098
 20
328.905668
 30
0.0
 10
-3.232488
 20
316.783836
 30
0.0
 10
-6.464976
 20
290.923932
 30
0.0
 10
-1.616244
 20
268.296516
 30
0.0
 10
6.464976
 20
262.639660
 30
0.0
 10
22.627417
 20
263.447788
 30
0.0
 10
19.394929
 20
283.650836
 30
0.0
 10
25.051783
 20
292.540180
 30
0.0
 10
42.022346
 20
303.045764
 30
0.0
 10
58.184786
 20
306.278252
 30
0.0
 10
77.579715
 20
303.045764
 30
0.0
 10
84.044688
 20
299.813276
 30
0.0
 10
111.520840
 20
314.359476
 30
0.0
 10
107.480232
 20
328.905668
 30
0.0
 10
114.753328
 20
353.149332
 30
0.0
 10
118.793936
 20
372.544260
 30
0.0
 10
130.915768
 20
392.747308
 30
0.0
 10
133.340136
 20
411.334116
 30
0.0
 10
126.067040
 20
425.072188
 30
0.0
 10
115.561448
 20
464.670172
 30
0.0
  0
LWPOLYLINE
  5
106
100
AcDbEntity
  8
Layer_1
 62
7
100
AcDbPolyline
 90
13
 70
1
 10
110.712720
 20
314.359476
 30
0.0
 10
83.236568
 20
301.429516
 30
0.0
 10
63.841641
 20
306.278252
 30
0.0
 10
43.638590
 20
305.470132
 30
0.0
 10
25.859905
 20
294.964540
 30
0.0
 10
17.778685
 20
282.034588
 30
0.0
 10
22.627417
 20
261.023420
 30
0.0
 10
42.830468
 20
261.023420
 30
0.0
 10
59.801030
 20
256.982804
 30
0.0
 10
75.155350
 20
254.558444
 30
0.0
 10
92.125912
 20
252.942196
 30
0.0
 10
118.793936
 20
269.912764
 30
0.0
 10
110.712720
 20
314.359476
 30
0.0
  0
LWPOLYLINE
  5
107
100
AcDbEntity
  8
Layer_1
 62
7
100
AcDbPolyline
 90
15
 70
1
 10
22.627417
 20
261.023420
 30
0.0
 10
25.859905
 20
248.901588
 30
0.0
 10
20.203051
 20
230.314780
 30
0.0
 10
14.546197
 20
217.384828
 30
0.0
 10
5.656854
 20
214.960460
 30
0.0
 10
23.435539
 20
197.181780
 30
0.0
 10
60.609153
 20
196.373652
 30
0.0
 10
93.742160
 20
194.757412
 30
0.0
 10
109.096472
 20
202.030508
 30
0.0
 10
118.793936
 20
198.798020
 30
0.0
 10
134.148256
 20
227.890412
 30
0.0
 10
119.602064
 20
269.912764
 30
0.0
 10
92.125912
 20
252.134076
 30
0.0
 10
46.062956
 20
261.023420
 30
0.0
 10
22.627417
 20
261.023420
 30
0.0
  0
LWPOLYLINE
  5
108
100
AcDbEntity
  8
Layer_1
 62
7
100
AcDbPolyline
 90
12
 70
1
 10
24.243661
 20
197.181780
 30
0.0
 10
69.498495
 20
195.565532
 30
0.0
 10
94.550280
 20
193.949292
 30
0.0
 10
108.288352
 20
202.838628
 30
0.0
 10
119.602064
 20
197.181780
 30
0.0
 10
111.520840
 20
176.978724
 30
0.0
 10
119.602064
 20
146.270092
 30
0.0
 10
103.439624
 20
151.926940
 30
0.0
 10
88.893424
 20
147.078212
 30
0.0
 10
54.144177
 20
151.118820
 30
0.0
 10
33.941126
 20
189.100556
 30
0.0
 10
24.243661
 20
197.181780
 30
0.0
  0
LWPOLYLINE
  5
109
100
AcDbEntity
  8
Layer_1
 62
7
100
AcDbPolyline
 90
11
 70
1
 10
4.848732
 20
215.768580
 30
0.0
 10
-8.889342
 20
209.303604
 30
0.0
 10
-20.203051
 20
206.879244
 30
0.0
 10
-51.719810
 20
181.827460
 30
0.0
 10
-47.679200
 20
168.089380
 30
0.0
 10
-36.365492
 20
139.805116
 30
0.0
 10
-4.040610
 20
142.229476
 30
0.0
 10
25.859905
 20
149.502580
 30
0.0
 10
54.952298
 20
150.310700
 30
0.0
 10
34.749247
 20
188.292436
 30
0.0
 10
4.848732
 20
215.768580
 30
0.0
  0
LWPOLYLINE
  5
10a
100
AcDbEntity
  8
Layer_1
 62
7
100
AcDbPolyline
 90
28
 70
1
 10
253.750320
 20
269.912764
 30
0.0
 10
260.215296
 20
318.400084
 30
0.0
 10
268.296520
 20
328.905668
 30
0.0
 10
276.377736
 20
352.341212
 30
0.0
 10
278.802104
 20
369.311772
 30
0.0
 10
308.702616
 20
369.311772
 30
0.0
 10
315.975720
 20
384.666092
 30
0.0
 10
282.842712
 20
417.799092
 30
0.0
 10
226.274168
 20
433.961532
 30
0.0
 10
192.333048
 20
423.455948
 30
0.0
 10
167.281264
 20
421.839700
 30
0.0
 10
134.148256
 20
412.142236
 30
0.0
 10
130.915768
 20
395.979796
 30
0.0
 10
115.561448
 20
373.352380
 30
0.0
 10
107.480232
 20
329.713788
 30
0.0
 10
110.712720
 20
312.743228
 30
0.0
 10
117.985816
 20
268.296516
 30
0.0
 10
134.148256
 20
225.466052
 30
0.0
 10
119.602064
 20
201.222388
 30
0.0
 10
110.712720
 20
177.786852
 30
0.0
 10
117.985816
 20
146.270092
 30
0.0
 10
134.148256
 20
143.037604
 30
0.0
 10
219.001072
 20
178.594972
 30
0.0
 10
235.163512
 20
220.617316
 30
0.0
 10
231.122904
 20
235.971636
 30
0.0
 10
235.163512
 20
251.325956
 30
0.0
 10
241.628488
 20
260.215292
 30
0.0
 10
253.750320
 20
269.912764
 30
0.0
  0
LWPOLYLINE
  5
10b
100
AcDbEntity
  8
Layer_1
 62
7
100
AcDbPolyline
 90
30
 70
1
 10
-49.295444
 20
181.827460
 30
0.0
 10
-18.586807
 20
204.454876
 30
0.0
 10
15.354318
 20
216.576708
 30
0.0
 10
26.668027
 20
243.244732
 30
0.0
 10
24.243661
 20
264.255908
 30
0.0
 10
8.889342
 20
263.447788
 30
0.0
 10
-0.808122
 20
268.296516
 30
0.0
 10
-5.656854
 20
290.115812
 30
0.0
 10
-2.424366
 20
315.975716
 30
0.0
 10
-12.121830
 20
336.986892
 30
0.0
 10
-42.022346
 20
337.795012
 30
0.0
 10
-60.609153
 20
350.724964
 30
0.0
 10
-71.922862
 20
353.957452
 30
0.0
 10
-117.985816
 20
380.625476
 30
0.0
 10
-126.067040
 20
356.381820
 30
0.0
 10
-151.118824
 20
325.673180
 30
0.0
 10
-160.816288
 20
319.208204
 30
0.0
 10
-185.059944
 20
312.743228
 30
0.0
 10
-204.454872
 20
297.388908
 30
0.0
 10
-214.960464
 20
286.883324
 30
0.0
 10
-222.233560
 20
261.831540
 30
0.0
 10
-212.536096
 20
256.174684
 30
0.0
 10
-193.141168
 20
227.890412
 30
0.0
 10
-175.362480
 20
212.536092
 30
0.0
 10
-153.543184
 20
209.303604
 30
0.0
 10
-131.723888
 20
214.960460
 30
0.0
 10
-101.015256
 20
207.687364
 30
0.0
 10
-60.609153
 20
213.344220
 30
0.0
 10
-51.719810
 20
190.716804
 30
0.0
 10
-49.295444
 20
181.827460
 30
0.0
  0
ENDSEC
  0
SECTION
  2
OBJECTS
  0
DICTIONARY
  5
C
330
0
100
AcDbDictionary
  3
ACAD_GROUP
350
D
  3
ACAD_MLINESTYLE
350
17
  0
DICTIONARY
  5
D
330
C
100
AcDbDictionary
  0
DICTIONARY
  5
1A
330
C
100
AcDbDictionary
  0
DICTIONARY
  5
17
330
C
100
AcDbDictionary
  3
STANDARD
350
18
  0
DICTIONARY
  5
19
330
C
100
AcDbDictionary
  0
ENDSEC
  0
EOF
