  0
SECTION
  2
HEADER
  9
$ACADVER
  1
AC1014
  9
$HANDSEED
  5
FFFF
  9
$MEASUREMENT
 70
     1
  0
ENDSEC
  0
SECTION
  2
TABLES
  0
TABLE
  2
VPORT
  5
8
330
0
100
AcDbSymbolTable
 70
     4
  0
VPORT
  5
2E
330
8
100
AcDbSymbolTableRecord
100
AcDbViewportTableRecord
  2
*ACTIVE
 70
     0
 10
0.0
 20
0.0
 11
1.0
 21
1.0
 12
210.0
 22
148.5
 13
0.0
 23
0.0
 14
10.0
 24
10.0
 15
10.0
 25
10.0
 16
0.0
 26
0.0
 36
1.0
 17
0.0
 27
0.0
 37
0.0
 40
341.0
 41
1.24
 42
50.0
 43
0.0
 44
0.0
 50
0.0
 51
0.0
 71
     0
 72
   100
 73
     1
 74
     3
 75
     0
 76
     0
 77
     0
 78
     0
  0
ENDTAB
  0
TABLE
  2
LTYPE
  5
5
330
0
100
AcDbSymbolTable
 70
     1
  0
LTYPE
  5
14
330
5
100
AcDbSymbolTableRecord
100
AcDbLinetypeTableRecord
  2
BYBLOCK
 70
     0
  3

 72
    65
 73
     0
 40
0.0
  0
LTYPE
  5
15
330
5
100
AcDbSymbolTableRecord
100
AcDbLinetypeTableRecord
  2
BYLAYER
 70
     0
  3

 72
    65
 73
     0
 40
0.0
  0
LTYPE
  5
16
330
5
100
AcDbSymbolTableRecord
100
AcDbLinetypeTableRecord
  2
CONTINUOUS
 70
     0
  3
Solid line
 72
    65
 73
     0
 40
0.0
  0
ENDTAB
  0
TABLE
  2
LAYER
  5
2
100
AcDbSymbolTable
 70
2
  0
LAYER
  5
50
100
AcDbSymbolTableRecord
100
AcDbLayerTableRecord
  2
0
 70
0
  6
CONTINUOUS
  0
LAYER
  5
51
100
AcDbSymbolTableRecord
100
AcDbLayerTableRecord
  2
Layer_1
 70
0
  6
CONTINUOUS
  0
ENDTAB
  0
TABLE
  2
STYLE
  5
3
330
0
100
AcDbSymbolTable
 70
     1
  0
STYLE
  5
11
330
3
100
AcDbSymbolTableRecord
100
AcDbTextStyleTableRecord
  2
STANDARD
 70
     0
 40
0.0
 41
1.0
 50
0.0
 71
     0
 42
2.5
  3
txt
  4

  0
ENDTAB
  0
TABLE
  2
VIEW
  5
6
330
0
100
AcDbSymbolTable
 70
     0
  0
ENDTAB
  0
TABLE
  2
UCS
  5
7
330
0
100
AcDbSymbolTable
 70
     0
  0
ENDTAB
  0
TABLE
  2
APPID
  5
9
330
0
100
AcDbSymbolTable
 70
     2
  0
APPID
  5
12
330
9
100
AcDbSymbolTableRecord
100
AcDbRegAppTableRecord
  2
ACAD
 70
     0
  0
ENDTAB
  0
TABLE
  2
DIMSTYLE
  5
A
330
0
100
AcDbSymbolTable
 70
     1
  0
DIMSTYLE
105
27
330
A
100
AcDbSymbolTableRecord
100
AcDbDimStyleTableRecord
  2
ISO-25
 70
     0
  3

  4

  5

  6

  7

 40
1.0
 41
2.5
 42
0.625
 43
3.75
 44
1.25
 45
0.0
 46
0.0
 47
0.0
 48
0.0
140
2.5
141
2.5
142
0.0
143
0.03937007874016
144
1.0
145
0.0
146
1.0
147
0.625
 71
     0
 72
     0
 73
     0
 74
     0
 75
     0
 76
     0
 77
     1
 78
     8
170
     0
171
     3
172
     1
173
     0
174
     0
175
     0
176
     0
177
     0
178
     0
270
     2
271
     2
272
     2
273
     2
274
     3
340
11
275
     0
280
     0
281
     0
282
     0
283
     0
284
     8
285
     0
286
     0
287
     3
288
     0
  0
ENDTAB
  0
TABLE
  2
BLOCK_RECORD
  5
1
330
0
100
AcDbSymbolTable
 70
     1
  0
BLOCK_RECORD
  5
1F
330
1
100
AcDbSymbolTableRecord
100
AcDbBlockTableRecord
  2
*MODEL_SPACE
  0
BLOCK_RECORD
  5
1B
330
1
100
AcDbSymbolTableRecord
100
AcDbBlockTableRecord
  2
*PAPER_SPACE
  0
ENDTAB
  0
ENDSEC
  0
SECTION
  2
BLOCKS
  0
BLOCK
  5
20
330
1F
100
AcDbEntity
  8
0
100
AcDbBlockBegin
  2
*MODEL_SPACE
 70
     0
 10
0.0
 20
0.0
 30
0.0
  3
*MODEL_SPACE
  1

  0
ENDBLK
  5
21
330
1F
100
AcDbEntity
  8
0
100
AcDbBlockEnd
  0
BLOCK
  5
1C
330
1B
100
AcDbEntity
 67
     1
  8
0
100
AcDbBlockBegin
  2
*PAPER_SPACE
  1

  0
ENDBLK
  5
1D
330
1B
100
AcDbEntity
 67
     1
  8
0
100
AcDbBlockEnd
  0
ENDSEC
  0
SECTION
  2
ENTITIES
  0
LWPOLYLINE
  5
100
100
AcDbEntity
  8
Layer_1
 62
7
100
AcDbPolyline
 90
18
 70
1
 10
121.142856
 20
647.428572
 30
0.0
 10
111.428568
 20
638.857140
 30
0.0
 10
91.428568
 20
592.571428
 30
0.0
 10
110.285712
 20
585.142860
 30
0.0
 10
130.285712
 20
577.142860
 30
0.0
 10
136.000000
 20
566.285716
 30
0.0
 10
146.285712
 20
557.714284
 30
0.0
 10
176.000000
 20
558.857140
 30
0.0
 10
201.714288
 20
562.285716
 30
0.0
 10
217.142856
 20
568.000004
 30
0.0
 10
212.000000
 20
570.857140
 30
0.0
 10
209.142856
 20
594.857140
 30
0.0
 10
203.428568
 20
605.714284
 30
0.0
 10
205.142856
 20
629.142860
 30
0.0
 10
200.571432
 20
639.428572
 30
0.0
 10
174.857144
 20
632.571428
 30
0.0
 10
156.000000
 20
634.857140
 30
0.0
 10
121.142856
 20
647.428572
 30
0.0
  0
LWPOLYLINE
  5
101
100
AcDbEntity
  8
Layer_1
 62
7
100
AcDbPolyline
 90
46
 70
1
 10
91.115760
 20
592.353452
 30
0.0
 10
60.609153
 20
538.815372
 30
0.0
 10
59.599000
 20
510.127036
 30
0.0
 10
58.184786
 20
498.207236
 30
0.0
 10
52.729963
 20
488.105708
 30
0.0
 10
7.071068
 20
486.287436
 30
0.0
 10
-24.041630
 20
494.166628
 30
0.0
 10
-34.345186
 20
504.066124
 30
0.0
 10
-44.244682
 20
484.065100
 30
0.0
 10
-44.648742
 20
477.802156
 30
0.0
 10
-25.455844
 20
461.235652
 30
0.0
 10
-13.536044
 20
450.730068
 30
0.0
 10
-1.616244
 20
446.083364
 30
0.0
 10
7.273098
 20
448.911788
 30
0.0
 10
24.849753
 20
463.053924
 30
0.0
 10
36.163461
 20
466.084388
 30
0.0
 10
40.406102
 20
464.064084
 30
0.0
 10
53.740115
 20
454.568644
 30
0.0
 10
71.114739
 20
451.538188
 30
0.0
 10
90.105608
 20
447.295548
 30
0.0
 10
98.186824
 20
436.789964
 30
0.0
 10
105.055864
 20
423.455948
 30
0.0
 10
111.722872
 20
416.586908
 30
0.0
 10
123.844704
 20
408.909748
 30
0.0
 10
145.461968
 20
404.263052
 30
0.0
 10
165.867048
 20
403.858988
 30
0.0
 10
177.180760
 20
411.940212
 30
0.0
 10
198.191928
 20
412.344268
 30
0.0
 10
212.940160
 20
420.627524
 30
0.0
 10
221.223408
 20
431.537172
 30
0.0
 10
206.677208
 20
461.437684
 30
0.0
 10
204.050816
 20
482.044796
 30
0.0
 10
205.263000
 20
501.439724
 30
0.0
 10
216.778736
 20
510.329068
 30
0.0
 10
229.102600
 20
532.350396
 30
0.0
 10
225.870112
 20
540.835676
 30
0.0
 10
226.274168
 20
546.896588
 30
0.0
 10
239.406152
 20
559.624508
 30
0.0
 10
227.486352
 20
562.452940
 30
0.0
 10
217.182800
 20
567.907764
 30
0.0
 10
202.636600
 20
562.452940
 30
0.0
 10
183.443704
 20
560.028572
 30
0.0
 10
146.674152
 20
557.402172
 30
0.0
 10
136.370592
 20
565.887460
 30
0.0
 10
130.309680
 20
576.999132
 30
0.0
 10
91.115760
 20
592.353452
 30
0.0
  0
LWPOLYLINE
  5
102
100
AcDbEntity
  8
Layer_1
 62
7
100
AcDbPolyline
 90
41
 70
1
 10
240.012248
 20
559.422484
 30
0.0
 10
290.115808
 20
546.492524
 30
0.0
 10
353.553392
 20
551.543292
 30
0.0
 10
370.725984
 20
547.300652
 30
0.0
 10
351.331056
 20
526.087444
 30
0.0
 10
352.139176
 20
521.238716
 30
0.0
 10
408.707720
 20
461.033620
 30
0.0
 10
411.132088
 20
451.740220
 30
0.0
 10
412.142240
 20
418.809244
 30
0.0
 10
418.203152
 20
401.232588
 30
0.0
 10
425.678280
 20
391.939188
 30
0.0
 10
435.779808
 20
385.070148
 30
0.0
 10
445.477272
 20
372.140196
 30
0.0
 10
451.336160
 20
357.391972
 30
0.0
 10
453.558496
 20
345.472172
 30
0.0
 10
454.568648
 20
334.360492
 30
0.0
 10
451.538192
 20
321.026476
 30
0.0
 10
438.204176
 20
309.712772
 30
0.0
 10
419.011280
 20
300.621396
 30
0.0
 10
398.404168
 20
292.944236
 30
0.0
 10
390.929032
 20
284.660988
 30
0.0
 10
379.009232
 20
292.338148
 30
0.0
 10
368.705680
 20
301.227492
 30
0.0
 10
357.796032
 20
323.652876
 30
0.0
 10
342.037656
 20
332.138156
 30
0.0
 10
323.652872
 20
334.966588
 30
0.0
 10
315.975720
 20
332.340188
 30
0.0
 10
291.327992
 20
351.331052
 30
0.0
 10
272.135096
 20
362.038676
 30
0.0
 10
252.336104
 20
378.403148
 30
0.0
 10
226.678232
 20
406.687412
 30
0.0
 10
213.546248
 20
420.829548
 30
0.0
 10
221.021376
 20
432.345292
 30
0.0
 10
207.081272
 20
460.629564
 30
0.0
 10
203.646752
 20
480.024492
 30
0.0
 10
204.656904
 20
501.237692
 30
0.0
 10
217.182800
 20
511.541252
 30
0.0
 10
228.900568
 20
532.552420
 30
0.0
 10
226.072136
 20
539.219428
 30
0.0
 10
226.476200
 20
547.300652
 30
0.0
 10
240.012248
 20
559.422484
 30
0.0
  0
LWPOLYLINE
  5
103
100
AcDbEntity
  8
Layer_1
 62
7
100
AcDbPolyline
 90
30
 70
1
 10
390.727008
 20
284.660988
 30
0.0
 10
378.201112
 20
292.742212
 30
0.0
 10
368.705680
 20
301.227492
 30
0.0
 10
358.200096
 20
323.450844
 30
0.0
 10
342.037656
 20
332.340188
 30
0.0
 10
322.642720
 20
334.966588
 30
0.0
 10
315.167592
 20
331.734100
 30
0.0
 10
305.268096
 20
320.824452
 30
0.0
 10
293.146272
 20
313.753380
 30
0.0
 10
282.034592
 20
303.247796
 30
0.0
 10
275.771648
 20
296.378756
 30
0.0
 10
263.245752
 20
275.165556
 30
0.0
 10
236.981784
 20
260.619356
 30
0.0
 10
221.829496
 20
243.850828
 30
0.0
 10
212.738128
 20
229.506660
 30
0.0
 10
219.203104
 20
211.121884
 30
0.0
 10
221.021376
 20
200.414268
 30
0.0
 10
249.305648
 20
192.131012
 30
0.0
 10
263.043720
 20
185.666036
 30
0.0
 10
268.902608
 20
200.212236
 30
0.0
 10
277.791952
 20
215.364524
 30
0.0
 10
299.005152
 20
217.384828
 30
0.0
 10
305.470128
 20
212.940156
 30
0.0
 10
306.278256
 20
199.404116
 30
0.0
 10
311.935104
 20
196.777716
 30
0.0
 10
325.875208
 20
209.303604
 30
0.0
 10
348.502632
 20
210.515788
 30
0.0
 10
356.785880
 20
210.111732
 30
0.0
 10
362.846792
 20
203.848788
 30
0.0
 10
390.727008
 20
284.660988
 30
0.0
  0
LWPOLYLINE
  5
104
100
AcDbEntity
  8
Layer_1
 62
7
100
AcDbPolyline
 90
23
 70
1
 10
212.536096
 20
229.506660
 30
0.0
 10
203.040664
 20
256.578748
 30
0.0
 10
184.655888
 20
293.348300
 30
0.0
 10
201.828480
 20
310.924956
 30
0.0
 10
209.101576
 20
324.056940
 30
0.0
 10
202.232536
 20
340.421412
 30
0.0
 10
200.414264
 20
348.704660
 30
0.0
 10
190.312736
 20
367.897556
 30
0.0
 10
186.878224
 20
380.019388
 30
0.0
 10
187.888376
 20
394.161524
 30
0.0
 10
197.989896
 20
411.940212
 30
0.0
 10
213.546248
 20
420.829548
 30
0.0
 10
251.932048
 20
378.807204
 30
0.0
 10
273.347280
 20
361.230548
 30
0.0
 10
290.317840
 20
352.543236
 30
0.0
 10
316.379776
 20
332.542220
 30
0.0
 10
305.672160
 20
320.420388
 30
0.0
 10
293.348296
 20
313.551348
 30
0.0
 10
275.973672
 20
295.974700
 30
0.0
 10
264.053872
 20
274.963524
 30
0.0
 10
236.779760
 20
261.023420
 30
0.0
 10
222.233560
 20
244.052852
 30
0.0
 10
212.536096
 20
229.506660
 30
0.0
  0
LWPOLYLINE
  5
105
100
AcDbEntity
  8
Layer_1
 62
7
100
AcDbPolyline
 90
15
 70
1
 10
262.437632
 20
185.464004
 30
0.0
 10
272.135096
 20
166.069076
 30
0.0
 10
270.518848
 20
127.683284
 30
0.0
 10
332.542216
 20
165.058924
 30
0.0
 10
343.249832
 20
172.736084
 30
0.0
 10
362.846792
 20
204.050812
 30
0.0
 10
356.179784
 20
210.111732
 30
0.0
 10
326.683336
 20
209.909700
 30
0.0
 10
312.339168
 20
196.777716
 30
0.0
 10
306.884344
 20
199.606140
 30
0.0
 10
305.268096
 20
213.546252
 30
0.0
 10
298.399064
 20
217.788892
 30
0.0
 10
277.993984
 20
215.162492
 30
0.0
 10
268.700576
 20
200.212236
 30
0.0
 10
262.437632
 20
185.464004
 30
0.0
  0
LWPOLYLINE
  5
106
100
AcDbEntity
  8
Layer_1
 62
7
100
AcDbPolyline
 90
15
 70
1
 10
184.251824
 20
293.146268
 30
0.0
 10
202.030512
 20
310.520892
 30
0.0
 10
209.101576
 20
324.056940
 30
0.0
 10
203.444720
 20
337.188924
 30
0.0
 10
200.616296
 20
348.098564
 30
0.0
 10
182.231520
 20
351.129028
 30
0.0
 10
166.877200
 20
348.300596
 30
0.0
 10
153.745216
 20
341.835620
 30
0.0
 10
138.592928
 20
331.330036
 30
0.0
 10
130.713736
 20
320.824452
 30
0.0
 10
149.300544
 20
298.803124
 30
0.0
 10
161.220344
 20
294.358452
 30
0.0
 10
169.503600
 20
296.176724
 30
0.0
 10
175.362480
 20
295.772668
 30
0.0
 10
184.251824
 20
293.146268
 30
0.0
  0
LWPOLYLINE
  5
107
100
AcDbEntity
  8
Layer_1
 62
7
100
AcDbPolyline
 90
37
 70
1
 10
200.616296
 20
347.896540
 30
0.0
 10
183.241672
 20
351.331052
 30
0.0
 10
166.675168
 20
347.694508
 30
0.0
 10
151.320848
 20
339.815316
 30
0.0
 10
138.996992
 20
330.723940
 30
0.0
 10
130.713736
 20
320.420388
 30
0.0
 10
121.420336
 20
322.642724
 30
0.0
 10
106.672112
 20
319.814300
 30
0.0
 10
87.479208
 20
314.561500
 30
0.0
 10
75.761441
 20
304.257948
 30
0.0
 10
77.175654
 20
315.571652
 30
0.0
 10
93.540128
 20
344.259988
 30
0.0
 10
93.338096
 20
359.614308
 30
0.0
 10
77.983777
 20
358.806188
 30
0.0
 10
48.487322
 20
363.654916
 30
0.0
 10
21.011173
 20
370.725988
 30
0.0
 10
-14.142136
 20
369.917860
 30
0.0
 10
-15.960410
 20
387.090460
 30
0.0
 10
-6.464976
 20
420.223460
 30
0.0
 10
3.636549
 20
433.153412
 30
0.0
 10
6.667007
 20
448.103668
 30
0.0
 10
25.051783
 20
463.457988
 30
0.0
 10
36.365492
 20
466.084388
 30
0.0
 10
52.729963
 20
455.578796
 30
0.0
 10
90.711696
 20
447.093516
 30
0.0
 10
98.186824
 20
437.598084
 30
0.0
 10
104.247744
 20
424.870164
 30
0.0
 10
114.551296
 20
414.970668
 30
0.0
 10
125.258912
 20
408.505692
 30
0.0
 10
144.451816
 20
404.465076
 30
0.0
 10
166.069080
 20
404.061020
 30
0.0
 10
177.382784
 20
412.344268
 30
0.0
 10
198.595992
 20
412.546300
 30
0.0
 10
188.292432
 20
394.363556
 30
0.0
 10
186.878224
 20
380.019388
 30
0.0
 10
190.918832
 20
367.089436
 30
0.0
 10
200.616296
 20
347.896540
 30
0.0
  0
LWPOLYLINE
  5
108
100
AcDbEntity
  8
Layer_1
 62
7
100
AcDbPolyline
 90
16
 70
1
 10
92.934032
 20
359.816340
 30
0.0
 10
77.781746
 20
358.806188
 30
0.0
 10
46.669048
 20
364.058980
 30
0.0
 10
20.607112
 20
370.725988
 30
0.0
 10
-14.142136
 20
369.917860
 30
0.0
 10
-17.374624
 20
349.108724
 30
0.0
 10
-15.152288
 20
333.956436
 30
0.0
 10
-6.262946
 20
320.622420
 30
0.0
 10
4.848732
 20
310.520892
 30
0.0
 10
32.526912
 20
307.894500
 30
0.0
 10
42.426407
 20
302.439676
 30
0.0
 10
64.649763
 20
301.227492
 30
0.0
 10
75.963471
 20
304.257948
 30
0.0
 10
77.175654
 20
315.975716
 30
0.0
 10
93.540128
 20
343.653900
 30
0.0
 10
92.934032
 20
359.816340
 30
0.0
  0
LWPOLYLINE
  5
109
100
AcDbEntity
  8
Layer_1
 62
7
100
AcDbPolyline
 90
32
 70
1
 10
7.071068
 20
448.305700
 30
0.0
 10
3.636549
 20
431.739196
 30
0.0
 10
-6.869037
 20
419.819396
 30
0.0
 10
-15.556350
 20
387.090460
 30
0.0
 10
-14.142136
 20
368.907708
 30
0.0
 10
-17.374624
 20
348.098564
 30
0.0
 10
-14.950258
 20
334.966588
 30
0.0
 10
-5.252793
 20
320.420388
 30
0.0
 10
4.848732
 20
311.329012
 30
0.0
 10
31.516759
 20
308.298556
 30
0.0
 10
43.638590
 20
302.035612
 30
0.0
 10
22.223356
 20
267.286364
 30
0.0
 10
1.010153
 20
251.527988
 30
0.0
 10
-16.566502
 20
227.890412
 30
0.0
 10
-15.960410
 20
218.394980
 30
0.0
 10
-21.415234
 20
210.919852
 30
0.0
 10
-25.657874
 20
230.314780
 30
0.0
 10
-34.951278
 20
251.730012
 30
0.0
 10
-56.568542
 20
282.438652
 30
0.0
 10
-75.559410
 20
289.509724
 30
0.0
 10
-113.339112
 20
294.964540
 30
0.0
 10
-135.764504
 20
319.208204
 30
0.0
 10
-135.158408
 20
353.351364
 30
0.0
 10
-118.389880
 20
361.634612
 30
0.0
 10
-98.388856
 20
367.695524
 30
0.0
 10
-84.650784
 20
378.201116
 30
0.0
 10
-68.690373
 20
402.646804
 30
0.0
 10
-56.770573
 20
424.870164
 30
0.0
 10
-44.648742
 20
478.408244
 30
0.0
 10
-14.142136
 20
451.740220
 30
0.0
 10
-1.212183
 20
446.689460
 30
0.0
 10
7.071068
 20
448.305700
 30
0.0
  0
LWPOLYLINE
  5
10a
100
AcDbEntity
  8
Layer_1
 62
7
100
AcDbPolyline
 90
12
 70
1
 10
-21.415234
 20
211.727972
 30
0.0
 10
-15.960410
 20
218.394980
 30
0.0
 10
-16.162441
 20
227.890412
 30
0.0
 10
1.212183
 20
251.730012
 30
0.0
 10
23.435539
 20
268.296516
 30
0.0
 10
22.627417
 20
258.194988
 30
0.0
 10
14.142136
 20
244.052852
 30
0.0
 10
12.727922
 20
230.718844
 30
0.0
 10
18.788838
 20
210.717820
 30
0.0
 10
7.677159
 20
200.616292
 30
0.0
 10
-13.536044
 20
185.464004
 30
0.0
 10
-21.415234
 20
211.727972
 30
0.0
  0
LWPOLYLINE
  5
10b
100
AcDbEntity
  8
Layer_1
 62
7
100
AcDbPolyline
 90
21
 70
1
 10
33.133003
 20
283.852868
 30
0.0
 10
23.233509
 20
268.700580
 30
0.0
 10
23.031478
 20
257.588900
 30
0.0
 10
14.344166
 20
244.860980
 30
0.0
 10
13.131983
 20
230.516812
 30
0.0
 10
19.192898
 20
210.313764
 30
0.0
 10
5.252793
 20
198.798020
 30
0.0
 10
-13.334014
 20
185.464004
 30
0.0
 10
-10.707617
 20
176.372636
 30
0.0
 10
-12.121830
 20
153.543188
 30
0.0
 10
-4.040610
 20
157.583796
 30
0.0
 10
6.464976
 20
174.958420
 30
0.0
 10
15.354318
 20
186.878220
 30
0.0
 10
37.577674
 20
203.242692
 30
0.0
 10
49.295444
 20
221.627468
 30
0.0
 10
54.750268
 20
230.516812
 30
0.0
 10
56.972604
 20
242.840676
 30
0.0
 10
56.770573
 20
263.447788
 30
0.0
 10
47.073109
 20
274.357428
 30
0.0
 10
40.608132
 20
280.014284
 30
0.0
 10
33.133003
 20
283.852868
 30
0.0
  0
LWPOLYLINE
  5
10c
100
AcDbEntity
  8
Layer_1
 62
7
100
AcDbPolyline
 90
35
 70
1
 10
-12.525891
 20
153.341156
 30
0.0
 10
-12.323861
 20
136.976684
 30
0.0
 10
23.233509
 20
141.623388
 30
0.0
 10
44.850773
 20
140.613236
 30
0.0
 10
54.548238
 20
136.774652
 30
0.0
 10
71.518800
 20
155.361460
 30
0.0
 10
89.903576
 20
164.654868
 30
0.0
 10
142.835568
 20
182.635580
 30
0.0
 10
161.826440
 20
190.918828
 30
0.0
 10
175.160448
 20
201.626452
 30
0.0
 10
200.818328
 20
205.465028
 30
0.0
 10
221.829496
 20
200.212236
 30
0.0
 10
219.607160
 20
210.919852
 30
0.0
 10
203.848784
 20
255.972652
 30
0.0
 10
185.059944
 20
293.146268
 30
0.0
 10
174.352328
 20
296.176724
 30
0.0
 10
166.069080
 20
295.570636
 30
0.0
 10
162.028472
 20
294.762516
 30
0.0
 10
149.098512
 20
299.005156
 30
0.0
 10
131.925920
 20
320.218356
 30
0.0
 10
121.016272
 20
322.642724
 30
0.0
 10
86.469056
 20
314.359476
 30
0.0
 10
74.751289
 20
303.853884
 30
0.0
 10
65.255854
 20
301.227492
 30
0.0
 10
43.032498
 20
302.237644
 30
0.0
 10
32.122851
 20
284.054900
 30
0.0
 10
46.669048
 20
274.761492
 30
0.0
 10
56.568542
 20
262.841692
 30
0.0
 10
56.164482
 20
240.214276
 30
0.0
 10
54.144177
 20
229.708692
 30
0.0
 10
37.173614
 20
202.434572
 30
0.0
 10
15.960410
 20
187.080252
 30
0.0
 10
6.667007
 20
175.968572
 30
0.0
 10
-4.040610
 20
157.785828
 30
0.0
 10
-12.525891
 20
153.341156
 30
0.0
  0
ENDSEC
  0
SECTION
  2
OBJECTS
  0
DICTIONARY
  5
C
330
0
100
AcDbDictionary
  3
ACAD_GROUP
350
D
  3
ACAD_MLINESTYLE
350
17
  0
DICTIONARY
  5
D
330
C
100
AcDbDictionary
  0
DICTIONARY
  5
1A
330
C
100
AcDbDictionary
  0
DICTIONARY
  5
17
330
C
100
AcDbDictionary
  3
STANDARD
350
18
  0
DICTIONARY
  5
19
330
C
100
AcDbDictionary
  0
ENDSEC
  0
EOF
