  0
SECTION
  2
HEADER
  9
$ACADVER
  1
AC1014
  9
$HANDSEED
  5
FFFF
  9
$MEASUREMENT
 70
     1
  0
ENDSEC
  0
SECTION
  2
TABLES
  0
TABLE
  2
VPORT
  5
8
330
0
100
AcDbSymbolTable
 70
     4
  0
VPORT
  5
2E
330
8
100
AcDbSymbolTableRecord
100
AcDbViewportTableRecord
  2
*ACTIVE
 70
     0
 10
0.0
 20
0.0
 11
1.0
 21
1.0
 12
210.0
 22
148.5
 13
0.0
 23
0.0
 14
10.0
 24
10.0
 15
10.0
 25
10.0
 16
0.0
 26
0.0
 36
1.0
 17
0.0
 27
0.0
 37
0.0
 40
341.0
 41
1.24
 42
50.0
 43
0.0
 44
0.0
 50
0.0
 51
0.0
 71
     0
 72
   100
 73
     1
 74
     3
 75
     0
 76
     0
 77
     0
 78
     0
  0
ENDTAB
  0
TABLE
  2
LTYPE
  5
5
330
0
100
AcDbSymbolTable
 70
     1
  0
LTYPE
  5
14
330
5
100
AcDbSymbolTableRecord
100
AcDbLinetypeTableRecord
  2
BYBLOCK
 70
     0
  3

 72
    65
 73
     0
 40
0.0
  0
LTYPE
  5
15
330
5
100
AcDbSymbolTableRecord
100
AcDbLinetypeTableRecord
  2
BYLAYER
 70
     0
  3

 72
    65
 73
     0
 40
0.0
  0
LTYPE
  5
16
330
5
100
AcDbSymbolTableRecord
100
AcDbLinetypeTableRecord
  2
CONTINUOUS
 70
     0
  3
Solid line
 72
    65
 73
     0
 40
0.0
  0
ENDTAB
  0
TABLE
  2
LAYER
  5
2
100
AcDbSymbolTable
 70
2
  0
LAYER
  5
50
100
AcDbSymbolTableRecord
100
AcDbLayerTableRecord
  2
0
 70
0
  6
CONTINUOUS
  0
LAYER
  5
51
100
AcDbSymbolTableRecord
100
AcDbLayerTableRecord
  2
Layer_1
 70
0
  6
CONTINUOUS
  0
ENDTAB
  0
TABLE
  2
STYLE
  5
3
330
0
100
AcDbSymbolTable
 70
     1
  0
STYLE
  5
11
330
3
100
AcDbSymbolTableRecord
100
AcDbTextStyleTableRecord
  2
STANDARD
 70
     0
 40
0.0
 41
1.0
 50
0.0
 71
     0
 42
2.5
  3
txt
  4

  0
ENDTAB
  0
TABLE
  2
VIEW
  5
6
330
0
100
AcDbSymbolTable
 70
     0
  0
ENDTAB
  0
TABLE
  2
UCS
  5
7
330
0
100
AcDbSymbolTable
 70
     0
  0
ENDTAB
  0
TABLE
  2
APPID
  5
9
330
0
100
AcDbSymbolTable
 70
     2
  0
APPID
  5
12
330
9
100
AcDbSymbolTableRecord
100
AcDbRegAppTableRecord
  2
ACAD
 70
     0
  0
ENDTAB
  0
TABLE
  2
DIMSTYLE
  5
A
330
0
100
AcDbSymbolTable
 70
     1
  0
DIMSTYLE
105
27
330
A
100
AcDbSymbolTableRecord
100
AcDbDimStyleTableRecord
  2
ISO-25
 70
     0
  3

  4

  5

  6

  7

 40
1.0
 41
2.5
 42
0.625
 43
3.75
 44
1.25
 45
0.0
 46
0.0
 47
0.0
 48
0.0
140
2.5
141
2.5
142
0.0
143
0.03937007874016
144
1.0
145
0.0
146
1.0
147
0.625
 71
     0
 72
     0
 73
     0
 74
     0
 75
     0
 76
     0
 77
     1
 78
     8
170
     0
171
     3
172
     1
173
     0
174
     0
175
     0
176
     0
177
     0
178
     0
270
     2
271
     2
272
     2
273
     2
274
     3
340
11
275
     0
280
     0
281
     0
282
     0
283
     0
284
     8
285
     0
286
     0
287
     3
288
     0
  0
ENDTAB
  0
TABLE
  2
BLOCK_RECORD
  5
1
330
0
100
AcDbSymbolTable
 70
     1
  0
BLOCK_RECORD
  5
1F
330
1
100
AcDbSymbolTableRecord
100
AcDbBlockTableRecord
  2
*MODEL_SPACE
  0
BLOCK_RECORD
  5
1B
330
1
100
AcDbSymbolTableRecord
100
AcDbBlockTableRecord
  2
*PAPER_SPACE
  0
ENDTAB
  0
ENDSEC
  0
SECTION
  2
BLOCKS
  0
BLOCK
  5
20
330
1F
100
AcDbEntity
  8
0
100
AcDbBlockBegin
  2
*MODEL_SPACE
 70
     0
 10
0.0
 20
0.0
 30
0.0
  3
*MODEL_SPACE
  1

  0
ENDBLK
  5
21
330
1F
100
AcDbEntity
  8
0
100
AcDbBlockEnd
  0
BLOCK
  5
1C
330
1B
100
AcDbEntity
 67
     1
  8
0
100
AcDbBlockBegin
  2
*PAPER_SPACE
  1

  0
ENDBLK
  5
1D
330
1B
100
AcDbEntity
 67
     1
  8
0
100
AcDbBlockEnd
  0
ENDSEC
  0
SECTION
  2
ENTITIES
  0
LWPOLYLINE
  5
100
100
AcDbEntity
  8
Layer_1
 62
7
100
AcDbPolyline
 90
32
 70
1
 10
-62.857143
 20
691.428572
 30
0.0
 10
-69.714286
 20
664.571428
 30
0.0
 10
-81.714288
 20
642.285716
 30
0.0
 10
-86.285712
 20
597.142860
 30
0.0
 10
-96.000000
 20
559.428572
 30
0.0
 10
-96.571432
 20
498.285716
 30
0.0
 10
-74.285714
 20
488.000004
 30
0.0
 10
-54.857143
 20
488.000004
 30
0.0
 10
-44.000000
 20
494.285716
 30
0.0
 10
-29.142857
 20
491.428572
 30
0.0
 10
-20.000000
 20
446.285716
 30
0.0
 10
-4.571429
 20
423.428572
 30
0.0
 10
12.000000
 20
420.571428
 30
0.0
 10
58.285714
 20
439.428572
 30
0.0
 10
82.285712
 20
440.571428
 30
0.0
 10
109.142856
 20
434.285716
 30
0.0
 10
122.857144
 20
424.000004
 30
0.0
 10
155.428568
 20
424.000004
 30
0.0
 10
174.857144
 20
436.571428
 30
0.0
 10
190.857144
 20
477.142860
 30
0.0
 10
192.571432
 20
513.714284
 30
0.0
 10
179.428568
 20
560.000004
 30
0.0
 10
134.857144
 20
629.714284
 30
0.0
 10
128.571432
 20
661.142860
 30
0.0
 10
147.428568
 20
677.714284
 30
0.0
 10
102.285712
 20
683.428572
 30
0.0
 10
81.142856
 20
692.000004
 30
0.0
 10
54.857143
 20
688.000004
 30
0.0
 10
16.000000
 20
688.000004
 30
0.0
 10
-28.000000
 20
694.285716
 30
0.0
 10
-42.285714
 20
690.285716
 30
0.0
 10
-62.857143
 20
691.428572
 30
0.0
  0
LWPOLYLINE
  5
101
100
AcDbEntity
  8
Layer_1
 62
7
100
AcDbPolyline
 90
23
 70
1
 10
-96.000000
 20
496.571428
 30
0.0
 10
-94.285712
 20
441.142860
 30
0.0
 10
-68.571429
 20
403.428572
 30
0.0
 10
-37.142857
 20
375.428572
 30
0.0
 10
10.285714
 20
367.428572
 30
0.0
 10
86.285712
 20
364.571428
 30
0.0
 10
147.428568
 20
368.000004
 30
0.0
 10
168.571432
 20
401.714284
 30
0.0
 10
184.000000
 20
414.857140
 30
0.0
 10
174.285712
 20
435.428572
 30
0.0
 10
154.857144
 20
422.857140
 30
0.0
 10
121.714288
 20
424.000004
 30
0.0
 10
108.571432
 20
434.285716
 30
0.0
 10
85.714288
 20
440.571428
 30
0.0
 10
58.857143
 20
440.571428
 30
0.0
 10
11.428571
 20
420.571428
 30
0.0
 10
-5.142857
 20
424.571428
 30
0.0
 10
-20.571429
 20
446.857140
 30
0.0
 10
-29.142857
 20
491.428572
 30
0.0
 10
-43.428571
 20
494.000004
 30
0.0
 10
-54.571429
 20
487.714284
 30
0.0
 10
-74.857143
 20
488.000004
 30
0.0
 10
-96.000000
 20
496.571428
 30
0.0
  0
LWPOLYLINE
  5
102
100
AcDbEntity
  8
Layer_1
 62
7
100
AcDbPolyline
 90
39
 70
1
 10
184.571432
 20
415.428572
 30
0.0
 10
194.285712
 20
425.428572
 30
0.0
 10
214.285712
 20
428.571428
 30
0.0
 10
226.000000
 20
423.714284
 30
0.0
 10
246.857144
 20
424.285716
 30
0.0
 10
298.285712
 20
403.142860
 30
0.0
 10
310.285712
 20
431.428572
 30
0.0
 10
307.428568
 20
454.285716
 30
0.0
 10
321.428568
 20
469.142860
 30
0.0
 10
344.857144
 20
474.285716
 30
0.0
 10
349.142856
 20
494.571428
 30
0.0
 10
364.285712
 20
510.857140
 30
0.0
 10
410.000000
 20
543.714284
 30
0.0
 10
447.428576
 20
554.285716
 30
0.0
 10
490.285712
 20
558.285716
 30
0.0
 10
489.714288
 20
620.285716
 30
0.0
 10
496.285712
 20
666.000004
 30
0.0
 10
506.000000
 20
681.714284
 30
0.0
 10
484.571432
 20
713.428572
 30
0.0
 10
448.000000
 20
672.285716
 30
0.0
 10
412.000000
 20
642.285716
 30
0.0
 10
353.714288
 20
646.000004
 30
0.0
 10
315.142856
 20
629.428572
 30
0.0
 10
302.857144
 20
636.571428
 30
0.0
 10
319.714288
 20
672.857148
 30
0.0
 10
312.285712
 20
709.714284
 30
0.0
 10
293.428568
 20
727.142860
 30
0.0
 10
258.571432
 20
699.714284
 30
0.0
 10
228.000000
 20
684.571428
 30
0.0
 10
191.142856
 20
690.000004
 30
0.0
 10
167.428568
 20
691.714284
 30
0.0
 10
147.428568
 20
677.714284
 30
0.0
 10
128.571432
 20
661.428572
 30
0.0
 10
135.714288
 20
628.285716
 30
0.0
 10
179.142856
 20
560.571428
 30
0.0
 10
192.571432
 20
516.285716
 30
0.0
 10
191.142856
 20
477.142860
 30
0.0
 10
174.571432
 20
435.142860
 30
0.0
 10
184.571432
 20
415.428572
 30
0.0
  0
LWPOLYLINE
  5
103
100
AcDbEntity
  8
Layer_1
 62
7
100
AcDbPolyline
 90
32
 70
1
 10
298.571432
 20
402.857140
 30
0.0
 10
306.857144
 20
398.571428
 30
0.0
 10
324.000000
 20
371.714284
 30
0.0
 10
327.142856
 20
347.714284
 30
0.0
 10
324.285712
 20
327.142860
 30
0.0
 10
307.428568
 20
321.142860
 30
0.0
 10
290.000000
 20
282.857140
 30
0.0
 10
321.714288
 20
212.000004
 30
0.0
 10
352.857144
 20
202.857140
 30
0.0
 10
365.142856
 20
225.428572
 30
0.0
 10
368.571432
 20
245.714284
 30
0.0
 10
414.285712
 20
262.571428
 30
0.0
 10
447.428576
 20
286.000004
 30
0.0
 10
485.428576
 20
322.857140
 30
0.0
 10
518.285712
 20
342.571428
 30
0.0
 10
579.428576
 20
330.571428
 30
0.0
 10
592.285712
 20
317.714284
 30
0.0
 10
608.285712
 20
392.857140
 30
0.0
 10
607.428576
 20
413.428572
 30
0.0
 10
600.000000
 20
428.000004
 30
0.0
 10
521.714288
 20
496.285716
 30
0.0
 10
490.857144
 20
506.000004
 30
0.0
 10
490.285712
 20
557.714284
 30
0.0
 10
445.428576
 20
554.000004
 30
0.0
 10
410.285712
 20
544.000004
 30
0.0
 10
365.142856
 20
511.714284
 30
0.0
 10
349.142856
 20
495.142860
 30
0.0
 10
344.857144
 20
474.571428
 30
0.0
 10
321.428568
 20
469.142860
 30
0.0
 10
307.714288
 20
454.571428
 30
0.0
 10
310.571432
 20
430.285716
 30
0.0
 10
298.571432
 20
402.857140
 30
0.0
  0
ENDSEC
  0
SECTION
  2
OBJECTS
  0
DICTIONARY
  5
C
330
0
100
AcDbDictionary
  3
ACAD_GROUP
350
D
  3
ACAD_MLINESTYLE
350
17
  0
DICTIONARY
  5
D
330
C
100
AcDbDictionary
  0
DICTIONARY
  5
1A
330
C
100
AcDbDictionary
  0
DICTIONARY
  5
17
330
C
100
AcDbDictionary
  3
STANDARD
350
18
  0
DICTIONARY
  5
19
330
C
100
AcDbDictionary
  0
ENDSEC
  0
EOF
