  0
SECTION
  2
HEADER
  9
$ACADVER
  1
AC1014
  9
$HANDSEED
  5
FFFF
  9
$MEASUREMENT
 70
     1
  0
ENDSEC
  0
SECTION
  2
TABLES
  0
TABLE
  2
VPORT
  5
8
330
0
100
AcDbSymbolTable
 70
     4
  0
VPORT
  5
2E
330
8
100
AcDbSymbolTableRecord
100
AcDbViewportTableRecord
  2
*ACTIVE
 70
     0
 10
0.0
 20
0.0
 11
1.0
 21
1.0
 12
210.0
 22
148.5
 13
0.0
 23
0.0
 14
10.0
 24
10.0
 15
10.0
 25
10.0
 16
0.0
 26
0.0
 36
1.0
 17
0.0
 27
0.0
 37
0.0
 40
341.0
 41
1.24
 42
50.0
 43
0.0
 44
0.0
 50
0.0
 51
0.0
 71
     0
 72
   100
 73
     1
 74
     3
 75
     0
 76
     0
 77
     0
 78
     0
  0
ENDTAB
  0
TABLE
  2
LTYPE
  5
5
330
0
100
AcDbSymbolTable
 70
     1
  0
LTYPE
  5
14
330
5
100
AcDbSymbolTableRecord
100
AcDbLinetypeTableRecord
  2
BYBLOCK
 70
     0
  3

 72
    65
 73
     0
 40
0.0
  0
LTYPE
  5
15
330
5
100
AcDbSymbolTableRecord
100
AcDbLinetypeTableRecord
  2
BYLAYER
 70
     0
  3

 72
    65
 73
     0
 40
0.0
  0
LTYPE
  5
16
330
5
100
AcDbSymbolTableRecord
100
AcDbLinetypeTableRecord
  2
CONTINUOUS
 70
     0
  3
Solid line
 72
    65
 73
     0
 40
0.0
  0
ENDTAB
  0
TABLE
  2
LAYER
  5
2
100
AcDbSymbolTable
 70
2
  0
LAYER
  5
50
100
AcDbSymbolTableRecord
100
AcDbLayerTableRecord
  2
0
 70
0
  6
CONTINUOUS
  0
LAYER
  5
51
100
AcDbSymbolTableRecord
100
AcDbLayerTableRecord
  2
Layer_1
 70
0
  6
CONTINUOUS
  0
ENDTAB
  0
TABLE
  2
STYLE
  5
3
330
0
100
AcDbSymbolTable
 70
     1
  0
STYLE
  5
11
330
3
100
AcDbSymbolTableRecord
100
AcDbTextStyleTableRecord
  2
STANDARD
 70
     0
 40
0.0
 41
1.0
 50
0.0
 71
     0
 42
2.5
  3
txt
  4

  0
ENDTAB
  0
TABLE
  2
VIEW
  5
6
330
0
100
AcDbSymbolTable
 70
     0
  0
ENDTAB
  0
TABLE
  2
UCS
  5
7
330
0
100
AcDbSymbolTable
 70
     0
  0
ENDTAB
  0
TABLE
  2
APPID
  5
9
330
0
100
AcDbSymbolTable
 70
     2
  0
APPID
  5
12
330
9
100
AcDbSymbolTableRecord
100
AcDbRegAppTableRecord
  2
ACAD
 70
     0
  0
ENDTAB
  0
TABLE
  2
DIMSTYLE
  5
A
330
0
100
AcDbSymbolTable
 70
     1
  0
DIMSTYLE
105
27
330
A
100
AcDbSymbolTableRecord
100
AcDbDimStyleTableRecord
  2
ISO-25
 70
     0
  3

  4

  5

  6

  7

 40
1.0
 41
2.5
 42
0.625
 43
3.75
 44
1.25
 45
0.0
 46
0.0
 47
0.0
 48
0.0
140
2.5
141
2.5
142
0.0
143
0.03937007874016
144
1.0
145
0.0
146
1.0
147
0.625
 71
     0
 72
     0
 73
     0
 74
     0
 75
     0
 76
     0
 77
     1
 78
     8
170
     0
171
     3
172
     1
173
     0
174
     0
175
     0
176
     0
177
     0
178
     0
270
     2
271
     2
272
     2
273
     2
274
     3
340
11
275
     0
280
     0
281
     0
282
     0
283
     0
284
     8
285
     0
286
     0
287
     3
288
     0
  0
ENDTAB
  0
TABLE
  2
BLOCK_RECORD
  5
1
330
0
100
AcDbSymbolTable
 70
     1
  0
BLOCK_RECORD
  5
1F
330
1
100
AcDbSymbolTableRecord
100
AcDbBlockTableRecord
  2
*MODEL_SPACE
  0
BLOCK_RECORD
  5
1B
330
1
100
AcDbSymbolTableRecord
100
AcDbBlockTableRecord
  2
*PAPER_SPACE
  0
ENDTAB
  0
ENDSEC
  0
SECTION
  2
BLOCKS
  0
BLOCK
  5
20
330
1F
100
AcDbEntity
  8
0
100
AcDbBlockBegin
  2
*MODEL_SPACE
 70
     0
 10
0.0
 20
0.0
 30
0.0
  3
*MODEL_SPACE
  1

  0
ENDBLK
  5
21
330
1F
100
AcDbEntity
  8
0
100
AcDbBlockEnd
  0
BLOCK
  5
1C
330
1B
100
AcDbEntity
 67
     1
  8
0
100
AcDbBlockBegin
  2
*PAPER_SPACE
  1

  0
ENDBLK
  5
1D
330
1B
100
AcDbEntity
 67
     1
  8
0
100
AcDbBlockEnd
  0
ENDSEC
  0
SECTION
  2
ENTITIES
  0
LWPOLYLINE
  5
100
100
AcDbEntity
  8
Layer_1
 62
7
100
AcDbPolyline
 90
55
 70
1
 10
-352.341208
 20
871.155555
 30
0.0
 10
-256.982808
 20
779.029643
 30
0.0
 10
-140.613232
 20
707.914908
 30
0.0
 10
-125.258912
 20
710.339268
 30
0.0
 10
-83.236568
 20
682.054996
 30
0.0
 10
-88.893424
 20
662.660068
 30
0.0
 10
-21.819295
 20
631.143308
 30
0.0
 10
-46.871078
 20
528.511812
 30
0.0
 10
-19.394929
 20
526.895564
 30
0.0
 10
-21.819295
 20
492.954444
 30
0.0
 10
-50.911688
 20
488.105708
 30
0.0
 10
-73.539106
 20
462.245804
 30
0.0
 10
-58.184786
 20
404.869140
 30
0.0
 10
-45.254834
 20
391.131068
 30
0.0
 10
-56.568542
 20
384.666092
 30
0.0
 10
-54.144177
 20
365.271164
 30
0.0
 10
-78.387838
 20
368.503652
 30
0.0
 10
-88.893424
 20
384.666092
 30
0.0
 10
-94.550280
 20
373.352380
 30
0.0
 10
-101.015256
 20
376.584868
 30
0.0
 10
-101.015256
 20
352.341212
 30
0.0
 10
-105.055864
 20
325.673180
 30
0.0
 10
-162.432528
 20
349.916844
 30
0.0
 10
-172.129992
 20
341.835620
 30
0.0
 10
-176.170600
 20
427.496556
 30
0.0
 10
-182.635584
 20
428.304676
 30
0.0
 10
-180.211216
 20
475.983876
 30
0.0
 10
-226.274168
 20
515.581860
 30
0.0
 10
-237.587880
 20
549.522988
 30
0.0
 10
-225.466048
 20
568.917916
 30
0.0
 10
-223.041680
 20
582.655988
 30
0.0
 10
-233.547272
 20
585.888476
 30
0.0
 10
-247.285344
 20
581.847868
 30
0.0
 10
-264.255904
 20
595.585940
 30
0.0
 10
-252.134072
 20
622.253972
 30
0.0
 10
-262.639664
 20
630.335188
 30
0.0
 10
-268.296520
 20
623.870212
 30
0.0
 10
-300.621400
 20
623.062092
 30
0.0
 10
-306.278248
 20
610.940260
 30
0.0
 10
-315.975720
 20
624.678332
 30
0.0
 10
-366.079280
 20
640.840772
 30
0.0
 10
-369.311768
 20
616.597116
 30
0.0
 10
-374.160504
 20
613.364628
 30
0.0
 10
-363.654920
 20
595.585940
 30
0.0
 10
-383.049848
 20
572.958524
 30
0.0
 10
-412.950360
 20
572.150404
 30
0.0
 10
-394.363552
 20
686.903732
 30
0.0
 10
-374.968624
 20
688.519972
 30
0.0
 10
-380.625480
 20
708.723028
 30
0.0
 10
-386.282336
 20
758.826596
 30
0.0
 10
-411.334120
 20
779.837765
 30
0.0
 10
-411.334120
 20
798.424572
 30
0.0
 10
-372.544256
 20
818.627623
 30
0.0
 10
-369.311768
 20
859.033725
 30
0.0
 10
-352.341208
 20
871.155555
 30
0.0
  0
LWPOLYLINE
  5
101
100
AcDbEntity
  8
Layer_1
 62
7
100
AcDbPolyline
 90
43
 70
1
 10
-170.513752
 20
310.318860
 30
0.0
 10
-168.897504
 20
348.300596
 30
0.0
 10
-173.746240
 20
427.496556
 30
0.0
 10
-180.211216
 20
431.537164
 30
0.0
 10
-176.170600
 20
475.175756
 30
0.0
 10
-223.849808
 20
518.006228
 30
0.0
 10
-233.547272
 20
548.714860
 30
0.0
 10
-222.233560
 20
565.685428
 30
0.0
 10
-219.001072
 20
581.847868
 30
0.0
 10
-231.122904
 20
588.312844
 30
0.0
 10
-246.477224
 20
584.272236
 30
0.0
 10
-259.407176
 20
593.969700
 30
0.0
 10
-250.517832
 20
619.829604
 30
0.0
 10
-260.215296
 20
633.567676
 30
0.0
 10
-267.488392
 20
624.678332
 30
0.0
 10
-296.580784
 20
625.486460
 30
0.0
 10
-302.237640
 20
625.486460
 30
0.0
 10
-307.086376
 20
612.556500
 30
0.0
 10
-311.935104
 20
624.678332
 30
0.0
 10
-365.271160
 20
643.265140
 30
0.0
 10
-368.503648
 20
619.021484
 30
0.0
 10
-375.776744
 20
614.172748
 30
0.0
 10
-362.846792
 20
596.394060
 30
0.0
 10
-383.049848
 20
574.574772
 30
0.0
 10
-411.738176
 20
574.170708
 30
0.0
 10
-420.223456
 20
560.836692
 30
0.0
 10
-474.367632
 20
520.834652
 30
0.0
 10
-477.600120
 20
499.015356
 30
0.0
 10
-455.780832
 20
455.376764
 30
0.0
 10
-465.074232
 20
435.577780
 30
0.0
 10
-488.509768
 20
436.789964
 30
0.0
 10
-494.974744
 20
337.795012
 30
0.0
 10
-471.539208
 20
339.411252
 30
0.0
 10
-470.731088
 20
300.217340
 30
0.0
 10
-418.203152
 20
326.077244
 30
0.0
 10
-382.645784
 20
328.501612
 30
0.0
 10
-381.433600
 20
333.350340
 30
0.0
 10
-328.097544
 20
341.027500
 30
0.0
 10
-318.804144
 20
336.582828
 30
0.0
 10
-301.429520
 20
344.259988
 30
0.0
 10
-286.883320
 20
341.027500
 30
0.0
 10
-287.691448
 20
334.158460
 30
0.0
 10
-170.513752
 20
310.318860
 30
0.0
  0
LWPOLYLINE
  5
102
100
AcDbEntity
  8
Layer_1
 62
7
100
AcDbPolyline
 90
30
 70
1
 10
-170.917808
 20
310.722924
 30
0.0
 10
-170.513752
 20
345.472172
 30
0.0
 10
-162.432528
 20
351.533084
 30
0.0
 10
-106.268048
 20
328.501612
 30
0.0
 10
-101.823376
 20
376.584868
 30
0.0
 10
-95.358400
 20
376.584868
 30
0.0
 10
-87.277176
 20
387.494516
 30
0.0
 10
-76.771594
 20
370.928012
 30
0.0
 10
-53.336054
 20
365.675220
 30
0.0
 10
-46.062956
 20
360.826492
 30
0.0
 10
-35.153309
 20
377.797052
 30
0.0
 10
-27.476150
 20
379.009236
 30
0.0
 10
-21.011173
 20
390.322940
 30
0.0
 10
-10.101526
 20
390.727004
 30
0.0
 10
-2.020305
 20
375.372684
 30
0.0
 10
4.444671
 20
383.049844
 30
0.0
 10
19.394929
 20
349.512780
 30
0.0
 10
8.889342
 20
327.289428
 30
0.0
 10
14.950258
 20
314.359476
 30
0.0
 10
11.313709
 20
295.772668
 30
0.0
 10
17.778685
 20
277.589916
 30
0.0
 10
2.020305
 20
248.901588
 30
0.0
 10
-8.081220
 20
265.468092
 30
0.0
 10
-15.354318
 20
273.145252
 30
0.0
 10
-33.537065
 20
277.589916
 30
0.0
 10
-46.467017
 20
264.255908
 30
0.0
 10
-53.336054
 20
244.052852
 30
0.0
 10
-100.207136
 20
270.720884
 30
0.0
 10
-110.308656
 20
283.246772
 30
0.0
 10
-170.917808
 20
310.722924
 30
0.0
  0
LWPOLYLINE
  5
103
100
AcDbEntity
  8
Layer_1
 62
7
100
AcDbPolyline
 90
17
 70
1
 10
18.586807
 20
276.377740
 30
0.0
 10
67.074129
 20
254.154380
 30
0.0
 10
61.821336
 20
246.073164
 30
0.0
 10
74.347227
 20
238.396004
 30
0.0
 10
69.498495
 20
228.698540
 30
0.0
 10
60.609153
 20
223.849804
 30
0.0
 10
59.396970
 20
218.192948
 30
0.0
 10
53.740115
 20
223.041684
 30
0.0
 10
50.911688
 20
216.172644
 30
0.0
 10
11.717770
 20
217.384828
 30
0.0
 10
5.656854
 20
213.748276
 30
0.0
 10
-9.293403
 20
226.678228
 30
0.0
 10
-12.525891
 20
243.244732
 30
0.0
 10
-8.485282
 20
265.468092
 30
0.0
 10
3.232488
 20
249.305652
 30
0.0
 10
15.758380
 20
276.377740
 30
0.0
 10
18.586807
 20
276.377740
 30
0.0
  0
LWPOLYLINE
  5
104
100
AcDbEntity
  8
Layer_1
 62
7
100
AcDbPolyline
 90
27
 70
1
 10
69.700526
 20
229.304628
 30
0.0
 10
73.539106
 20
237.991940
 30
0.0
 10
60.811183
 20
245.669100
 30
0.0
 10
66.670068
 20
254.962500
 30
0.0
 10
71.316770
 20
263.649812
 30
0.0
 10
72.124892
 20
285.671140
 30
0.0
 10
63.235550
 20
290.721900
 30
0.0
 10
68.892404
 20
298.803124
 30
0.0
 10
63.841641
 20
301.833580
 30
0.0
 10
57.982756
 20
312.339164
 30
0.0
 10
65.053824
 20
317.389932
 30
0.0
 10
70.710678
 20
318.602116
 30
0.0
 10
72.124892
 20
332.138156
 30
0.0
 10
63.639610
 20
366.281316
 30
0.0
 10
67.882251
 20
366.483348
 30
0.0
 10
96.772616
 20
324.056940
 30
0.0
 10
105.863984
 20
320.420388
 30
0.0
 10
101.217288
 20
303.853884
 30
0.0
 10
106.874136
 20
281.024436
 30
0.0
 10
109.904600
 20
252.134076
 30
0.0
 10
115.763480
 20
234.759452
 30
0.0
 10
109.904600
 20
232.739148
 30
0.0
 10
105.257896
 20
227.082292
 30
0.0
 10
85.862968
 20
226.072140
 30
0.0
 10
84.246720
 20
224.051836
 30
0.0
 10
78.387838
 20
227.688388
 30
0.0
 10
69.700526
 20
229.304628
 30
0.0
  0
LWPOLYLINE
  5
105
100
AcDbEntity
  8
Layer_1
 62
7
100
AcDbPolyline
 90
17
 70
1
 10
18.788838
 20
349.310748
 30
0.0
 10
25.657874
 20
359.614308
 30
0.0
 10
35.961430
 20
336.582828
 30
0.0
 10
65.659915
 20
316.985868
 30
0.0
 10
59.396970
 20
312.339164
 30
0.0
 10
65.053824
 20
302.641700
 30
0.0
 10
70.508648
 20
299.005156
 30
0.0
 10
64.649763
 20
290.519876
 30
0.0
 10
72.933014
 20
286.277228
 30
0.0
 10
72.730983
 20
263.649812
 30
0.0
 10
67.276159
 20
253.346260
 30
0.0
 10
16.566502
 20
276.175708
 30
0.0
 10
10.303556
 20
294.762516
 30
0.0
 10
13.738074
 20
314.359476
 30
0.0
 10
8.485282
 20
326.077244
 30
0.0
 10
8.283251
 20
328.703636
 30
0.0
 10
18.788838
 20
349.310748
 30
0.0
  0
LWPOLYLINE
  5
106
100
AcDbEntity
  8
Layer_1
 62
7
100
AcDbPolyline
 90
21
 70
1
 10
104.651800
 20
320.218356
 30
0.0
 10
133.744200
 20
320.420388
 30
0.0
 10
144.047752
 20
322.844756
 30
0.0
 10
158.795984
 20
317.996020
 30
0.0
 10
155.967552
 20
299.611244
 30
0.0
 10
158.189888
 20
284.256924
 30
0.0
 10
154.149280
 20
273.751340
 30
0.0
 10
158.593952
 20
256.376716
 30
0.0
 10
149.300544
 20
255.972652
 30
0.0
 10
148.290392
 20
248.901588
 30
0.0
 10
149.300544
 20
237.789908
 30
0.0
 10
144.047752
 20
243.850828
 30
0.0
 10
129.501560
 20
241.022396
 30
0.0
 10
128.895464
 20
236.375700
 30
0.0
 10
122.430488
 20
238.800060
 30
0.0
 10
121.218304
 20
236.173668
 30
0.0
 10
115.359424
 20
235.567572
 30
0.0
 10
109.298504
 20
251.527988
 30
0.0
 10
106.470080
 20
281.024436
 30
0.0
 10
100.611192
 20
303.247796
 30
0.0
 10
104.651800
 20
320.218356
 30
0.0
  0
LWPOLYLINE
  5
107
100
AcDbEntity
  8
Layer_1
 62
7
100
AcDbPolyline
 90
29
 70
1
 10
120.814248
 20
236.577724
 30
0.0
 10
154.351312
 20
212.334068
 30
0.0
 10
155.563496
 20
209.707668
 30
0.0
 10
158.795984
 20
209.505636
 30
0.0
 10
163.644712
 20
207.687364
 30
0.0
 10
169.099536
 20
209.303604
 30
0.0
 10
172.534056
 20
207.283300
 30
0.0
 10
173.544208
 20
210.111732
 30
0.0
 10
181.221368
 20
210.919852
 30
0.0
 10
189.504616
 20
227.486356
 30
0.0
 10
203.040664
 20
228.092444
 30
0.0
 10
203.646752
 20
221.627468
 30
0.0
 10
211.323912
 20
222.233564
 30
0.0
 10
220.011224
 20
233.345236
 30
0.0
 10
223.445744
 20
249.305652
 30
0.0
 10
220.617320
 20
256.376716
 30
0.0
 10
190.312736
 20
246.477220
 30
0.0
 10
179.403096
 20
247.083316
 30
0.0
 10
172.332024
 20
246.275188
 30
0.0
 10
164.250808
 20
246.275188
 30
0.0
 10
157.381768
 20
257.386868
 30
0.0
 10
148.694456
 20
256.376716
 30
0.0
 10
147.684304
 20
249.103620
 30
0.0
 10
148.896488
 20
239.810212
 30
0.0
 10
144.653848
 20
244.456916
 30
0.0
 10
129.097496
 20
242.234580
 30
0.0
 10
128.087344
 20
237.385852
 30
0.0
 10
121.824400
 20
239.406156
 30
0.0
 10
120.814248
 20
236.577724
 30
0.0
  0
LWPOLYLINE
  5
108
100
AcDbEntity
  8
Layer_1
 62
7
100
AcDbPolyline
 90
14
 70
1
 10
157.583800
 20
282.842716
 30
0.0
 10
165.665016
 20
276.175708
 30
0.0
 10
187.484312
 20
278.600076
 30
0.0
 10
196.777720
 20
273.751340
 30
0.0
 10
205.060968
 20
259.407172
 30
0.0
 10
212.334064
 20
271.731036
 30
0.0
 10
215.566552
 20
257.790932
 30
0.0
 10
221.021376
 20
254.962500
 30
0.0
 10
191.322896
 20
245.467068
 30
0.0
 10
179.403096
 20
245.871132
 30
0.0
 10
163.240648
 20
244.860980
 30
0.0
 10
156.371616
 20
256.174684
 30
0.0
 10
152.735064
 20
272.539156
 30
0.0
 10
157.583800
 20
282.842716
 30
0.0
  0
LWPOLYLINE
  5
109
100
AcDbEntity
  8
Layer_1
 62
7
100
AcDbPolyline
 90
16
 70
1
 10
196.777720
 20
273.751340
 30
0.0
 10
195.363504
 20
282.438652
 30
0.0
 10
204.858936
 20
282.034588
 30
0.0
 10
206.677208
 20
293.348300
 30
0.0
 10
208.697520
 20
291.530028
 30
0.0
 10
209.909696
 20
287.893476
 30
0.0
 10
214.354368
 20
290.317844
 30
0.0
 10
220.011224
 20
286.681292
 30
0.0
 10
217.990920
 20
279.004132
 30
0.0
 10
218.192952
 20
273.953372
 30
0.0
 10
227.688384
 20
274.761492
 30
0.0
 10
220.617320
 20
253.952348
 30
0.0
 10
215.970616
 20
256.578748
 30
0.0
 10
212.132032
 20
269.912764
 30
0.0
 10
205.263000
 20
257.588900
 30
0.0
 10
196.777720
 20
273.751340
 30
0.0
  0
LWPOLYLINE
  5
10a
100
AcDbEntity
  8
Layer_1
 62
7
100
AcDbPolyline
 90
16
 70
1
 10
158.189888
 20
317.793988
 30
0.0
 10
161.422376
 20
328.097548
 30
0.0
 10
163.240648
 20
330.925972
 30
0.0
 10
185.059944
 20
322.844756
 30
0.0
 10
195.767560
 20
328.905668
 30
0.0
 10
192.737104
 20
315.773684
 30
0.0
 10
197.787872
 20
295.166572
 30
0.0
 10
207.485336
 20
291.530028
 30
0.0
 10
206.879240
 20
282.640684
 30
0.0
 10
196.373656
 20
280.620380
 30
0.0
 10
197.585840
 20
274.357428
 30
0.0
 10
187.282280
 20
278.196012
 30
0.0
 10
166.675168
 20
275.569612
 30
0.0
 10
156.371616
 20
281.630532
 30
0.0
 10
155.361464
 20
298.601092
 30
0.0
 10
158.189888
 20
317.793988
 30
0.0
  0
LWPOLYLINE
  5
10b
100
AcDbEntity
  8
Layer_1
 62
7
100
AcDbPolyline
 90
20
 70
1
 10
177.786848
 20
325.471148
 30
0.0
 10
190.312736
 20
363.856948
 30
0.0
 10
194.555384
 20
362.240700
 30
0.0
 10
211.121880
 20
335.370644
 30
0.0
 10
217.384824
 20
316.783836
 30
0.0
 10
218.192952
 20
297.792972
 30
0.0
 10
219.607160
 20
294.964540
 30
0.0
 10
226.678232
 20
289.105660
 30
0.0
 10
227.890416
 20
274.559460
 30
0.0
 10
218.799040
 20
273.347276
 30
0.0
 10
216.980768
 20
278.600076
 30
0.0
 10
219.607160
 20
286.075204
 30
0.0
 10
214.152336
 20
289.711748
 30
0.0
 10
210.111728
 20
287.287388
 30
0.0
 10
207.485336
 20
290.519876
 30
0.0
 10
197.585840
 20
294.156420
 30
0.0
 10
192.535072
 20
314.561500
 30
0.0
 10
195.161472
 20
327.491452
 30
0.0
 10
185.261976
 20
322.036636
 30
0.0
 10
177.786848
 20
325.471148
 30
0.0
  0
LWPOLYLINE
  5
10c
100
AcDbEntity
  8
Layer_1
 62
7
100
AcDbPolyline
 90
13
 70
1
 10
220.415288
 20
233.749300
 30
0.0
 10
232.941176
 20
232.941180
 30
0.0
 10
240.416304
 20
241.022396
 30
0.0
 10
243.850824
 20
247.083316
 30
0.0
 10
246.073160
 20
274.155404
 30
0.0
 10
250.719864
 20
281.024436
 30
0.0
 10
242.638640
 20
283.044740
 30
0.0
 10
236.375696
 20
287.691444
 30
0.0
 10
227.082296
 20
283.852868
 30
0.0
 10
226.678232
 20
274.761492
 30
0.0
 10
220.415288
 20
255.164532
 30
0.0
 10
222.637624
 20
249.103620
 30
0.0
 10
220.415288
 20
233.749300
 30
0.0
  0
LWPOLYLINE
  5
10d
100
AcDbEntity
  8
Layer_1
 62
7
100
AcDbPolyline
 90
25
 70
1
 10
240.618336
 20
242.032548
 30
0.0
 10
243.446760
 20
247.083316
 30
0.0
 10
245.063008
 20
273.145252
 30
0.0
 10
250.517832
 20
280.822412
 30
0.0
 10
254.558440
 20
282.236620
 30
0.0
 10
261.629512
 20
296.580788
 30
0.0
 10
270.316824
 20
284.458956
 30
0.0
 10
275.771648
 20
279.812252
 30
0.0
 10
276.377736
 20
276.579764
 30
0.0
 10
285.469112
 20
273.347276
 30
0.0
 10
290.519872
 20
271.933068
 30
0.0
 10
295.166576
 20
272.539156
 30
0.0
 10
296.378760
 20
267.084332
 30
0.0
 10
293.348296
 20
256.780780
 30
0.0
 10
289.307688
 20
254.356412
 30
0.0
 10
278.600072
 20
254.558444
 30
0.0
 10
270.518848
 20
253.346260
 30
0.0
 10
268.296520
 20
251.325956
 30
0.0
 10
265.670120
 20
253.750316
 30
0.0
 10
257.790928
 20
254.962500
 30
0.0
 10
253.548288
 20
247.083316
 30
0.0
 10
252.942200
 20
244.658948
 30
0.0
 10
249.507680
 20
243.244732
 30
0.0
 10
247.689408
 20
240.214276
 30
0.0
 10
240.618336
 20
242.032548
 30
0.0
  0
LWPOLYLINE
  5
10e
100
AcDbEntity
  8
Layer_1
 62
7
100
AcDbPolyline
 90
12
 70
1
 10
244.052856
 20
282.842716
 30
0.0
 10
242.436608
 20
294.964540
 30
0.0
 10
237.789912
 20
308.298556
 30
0.0
 10
227.486352
 20
323.652876
 30
0.0
 10
213.950312
 20
333.350340
 30
0.0
 10
210.515792
 20
334.562524
 30
0.0
 10
216.172648
 20
317.389932
 30
0.0
 10
217.182800
 20
297.388908
 30
0.0
 10
225.466048
 20
288.701596
 30
0.0
 10
227.082296
 20
282.842716
 30
0.0
 10
236.577728
 20
286.883324
 30
0.0
 10
244.052856
 20
282.842716
 30
0.0
  0
LWPOLYLINE
  5
10f
100
AcDbEntity
  8
Layer_1
 62
7
100
AcDbPolyline
 90
14
 70
1
 10
238.396000
 20
307.086372
 30
0.0
 10
240.820368
 20
312.339164
 30
0.0
 10
257.588896
 20
313.551348
 30
0.0
 10
253.346256
 20
326.279276
 30
0.0
 10
244.052856
 20
324.460996
 30
0.0
 10
241.224432
 20
328.299580
 30
0.0
 10
245.265040
 20
351.129028
 30
0.0
 10
241.830520
 20
350.926996
 30
0.0
 10
215.768584
 20
347.492476
 30
0.0
 10
207.889392
 20
339.613284
 30
0.0
 10
211.323912
 20
333.956436
 30
0.0
 10
222.031528
 20
326.481300
 30
0.0
 10
228.092448
 20
322.036636
 30
0.0
 10
238.396000
 20
307.086372
 30
0.0
  0
LWPOLYLINE
  5
110
100
AcDbEntity
  8
Layer_1
 62
7
100
AcDbPolyline
 90
16
 70
1
 10
300.823432
 20
291.934084
 30
0.0
 10
287.287384
 20
301.631548
 30
0.0
 10
282.640680
 20
301.429524
 30
0.0
 10
266.276208
 20
320.824452
 30
0.0
 10
265.468088
 20
311.329012
 30
0.0
 10
260.215296
 20
307.692468
 30
0.0
 10
260.417328
 20
303.045764
 30
0.0
 10
265.468088
 20
297.590940
 30
0.0
 10
268.700576
 20
291.732052
 30
0.0
 10
277.791952
 20
287.287388
 30
0.0
 10
281.024440
 20
284.256924
 30
0.0
 10
281.024440
 20
277.791948
 30
0.0
 10
290.721904
 20
277.589916
 30
0.0
 10
296.176728
 20
284.256924
 30
0.0
 10
301.429520
 20
288.903628
 30
0.0
 10
300.823432
 20
291.934084
 30
0.0
  0
LWPOLYLINE
  5
111
100
AcDbEntity
  8
Layer_1
 62
7
100
AcDbPolyline
 90
15
 70
1
 10
278.398040
 20
307.086372
 30
0.0
 10
279.206160
 20
312.541196
 30
0.0
 10
300.015304
 20
333.148308
 30
0.0
 10
312.137136
 20
330.925972
 30
0.0
 10
311.126984
 20
356.785876
 30
0.0
 10
295.772664
 20
355.371668
 30
0.0
 10
294.156424
 20
365.271164
 30
0.0
 10
282.842712
 20
364.261012
 30
0.0
 10
275.165552
 20
369.917860
 30
0.0
 10
275.569616
 20
365.877252
 30
0.0
 10
275.771648
 20
362.442732
 30
0.0
 10
271.326976
 20
359.210244
 30
0.0
 10
282.640680
 20
349.108724
 30
0.0
 10
267.084336
 20
319.612268
 30
0.0
 10
278.398040
 20
307.086372
 30
0.0
  0
LWPOLYLINE
  5
112
100
AcDbEntity
  8
Layer_1
 62
7
100
AcDbPolyline
 90
22
 70
1
 10
244.658944
 20
350.522932
 30
0.0
 10
245.063008
 20
373.150348
 30
0.0
 10
221.425440
 20
397.798076
 30
0.0
 10
219.405136
 20
405.273204
 30
0.0
 10
214.758432
 20
405.879292
 30
0.0
 10
211.727976
 20
402.040716
 30
0.0
 10
209.505640
 20
403.858988
 30
0.0
 10
210.313760
 20
414.162548
 30
0.0
 10
203.848784
 20
409.717876
 30
0.0
 10
200.818328
 20
420.829548
 30
0.0
 10
197.383808
 20
420.627524
 30
0.0
 10
185.059944
 20
411.940212
 30
0.0
 10
176.978728
 20
400.424468
 30
0.0
 10
175.564512
 20
395.171676
 30
0.0
 10
169.907656
 20
395.777764
 30
0.0
 10
185.868072
 20
377.190964
 30
0.0
 10
190.716800
 20
362.644764
 30
0.0
 10
195.161472
 20
361.028524
 30
0.0
 10
206.475184
 20
339.815316
 30
0.0
 10
209.101576
 20
339.209228
 30
0.0
 10
215.566552
 20
346.280292
 30
0.0
 10
244.658944
 20
350.522932
 30
0.0
  0
LWPOLYLINE
  5
113
100
AcDbEntity
  8
Layer_1
 62
7
100
AcDbPolyline
 90
21
 70
1
 10
300.621400
 20
292.742212
 30
0.0
 10
312.339168
 20
291.934084
 30
0.0
 10
316.985872
 20
298.399060
 30
0.0
 10
328.501608
 20
301.429524
 30
0.0
 10
332.138160
 20
305.672164
 30
0.0
 10
343.249832
 20
324.056940
 30
0.0
 10
343.047808
 20
332.340188
 30
0.0
 10
351.937144
 20
338.603132
 30
0.0
 10
342.239680
 20
340.825468
 30
0.0
 10
339.411256
 20
346.482324
 30
0.0
 10
328.501608
 20
349.512780
 30
0.0
 10
332.340184
 20
355.977756
 30
0.0
 10
325.673184
 20
357.189940
 30
0.0
 10
319.006176
 20
363.856948
 30
0.0
 10
310.924952
 20
353.755420
 30
0.0
 10
310.520896
 20
342.643740
 30
0.0
 10
319.410232
 20
331.532068
 30
0.0
 10
316.177744
 20
321.228508
 30
0.0
 10
309.308712
 20
321.834604
 30
0.0
 10
306.278256
 20
306.278252
 30
0.0
 10
300.621400
 20
292.742212
 30
0.0
  0
LWPOLYLINE
  5
114
100
AcDbEntity
  8
Layer_1
 62
7
100
AcDbPolyline
 90
14
 70
1
 10
300.823432
 20
292.338148
 30
0.0
 10
307.086376
 20
306.076220
 30
0.0
 10
309.712768
 20
321.026476
 30
0.0
 10
316.783840
 20
320.016324
 30
0.0
 10
320.420384
 20
331.330036
 30
0.0
 10
312.743232
 20
342.037652
 30
0.0
 10
311.531048
 20
342.037652
 30
0.0
 10
311.531048
 20
331.734100
 30
0.0
 10
299.611248
 20
333.754404
 30
0.0
 10
277.993984
 20
312.541196
 30
0.0
 10
277.387888
 20
307.894500
 30
0.0
 10
282.034592
 20
301.227492
 30
0.0
 10
287.893472
 20
301.227492
 30
0.0
 10
300.823432
 20
292.338148
 30
0.0
  0
LWPOLYLINE
  5
115
100
AcDbEntity
  8
Layer_1
 62
7
100
AcDbPolyline
 90
19
 70
1
 10
275.367584
 20
369.311772
 30
0.0
 10
278.802104
 20
376.180812
 30
0.0
 10
275.973672
 20
386.282332
 30
0.0
 10
280.216320
 20
389.110764
 30
0.0
 10
289.913784
 20
408.909748
 30
0.0
 10
304.662008
 20
407.495540
 30
0.0
 10
303.853888
 20
400.222436
 30
0.0
 10
316.783840
 20
398.606196
 30
0.0
 10
321.834600
 20
406.081324
 30
0.0
 10
327.895520
 20
397.596044
 30
0.0
 10
327.693488
 20
365.473188
 30
0.0
 10
319.208208
 20
365.069132
 30
0.0
 10
318.198056
 20
361.836644
 30
0.0
 10
310.722920
 20
352.947300
 30
0.0
 10
310.116832
 20
355.775724
 30
0.0
 10
295.570632
 20
354.765572
 30
0.0
 10
293.348296
 20
365.069132
 30
0.0
 10
282.842712
 20
364.058980
 30
0.0
 10
275.367584
 20
369.311772
 30
0.0
  0
LWPOLYLINE
  5
116
100
AcDbEntity
  8
Layer_1
 62
7
100
AcDbPolyline
 90
88
 70
1
 10
289.307688
 20
407.495540
 30
0.0
 10
285.873168
 20
415.980820
 30
0.0
 10
275.569616
 20
417.395036
 30
0.0
 10
271.529008
 20
422.849860
 30
0.0
 10
274.155400
 20
436.789964
 30
0.0
 10
271.731032
 20
454.568644
 30
0.0
 10
266.882304
 20
460.629564
 30
0.0
 10
269.104640
 20
472.751388
 30
0.0
 10
272.943216
 20
481.236676
 30
0.0
 10
263.043720
 20
484.873220
 30
0.0
 10
255.972656
 20
495.580836
 30
0.0
 10
264.255904
 20
520.430596
 30
0.0
 10
269.508696
 20
521.844804
 30
0.0
 10
270.518848
 20
526.693540
 30
0.0
 10
277.791952
 20
526.895572
 30
0.0
 10
284.054896
 20
516.187948
 30
0.0
 10
299.005152
 20
514.773740
 30
0.0
 10
318.400080
 20
508.914852
 30
0.0
 10
334.562520
 20
509.520948
 30
0.0
 10
341.431560
 20
521.844804
 30
0.0
 10
343.249832
 20
520.228564
 30
0.0
 10
343.653896
 20
515.783892
 30
0.0
 10
345.674200
 20
515.985924
 30
0.0
 10
347.492472
 20
520.026532
 30
0.0
 10
358.200096
 20
517.400132
 30
0.0
 10
359.008216
 20
514.975772
 30
0.0
 10
362.038672
 20
516.794044
 30
0.0
 10
366.281312
 20
509.520948
 30
0.0
 10
369.109744
 20
516.592012
 30
0.0
 10
372.948320
 20
516.389980
 30
0.0
 10
372.948320
 20
510.935156
 30
0.0
 10
376.988928
 20
510.733124
 30
0.0
 10
377.392992
 20
513.561556
 30
0.0
 10
382.645784
 20
510.935156
 30
0.0
 10
382.847816
 20
505.278300
 30
0.0
 10
384.666088
 20
506.288460
 30
0.0
 10
387.090456
 20
501.641756
 30
0.0
 10
388.504672
 20
504.672212
 30
0.0
 10
393.757464
 20
498.409268
 30
0.0
 10
397.191984
 20
501.237692
 30
0.0
 10
398.000104
 20
498.005204
 30
0.0
 10
395.777768
 20
494.772716
 30
0.0
 10
399.010256
 20
496.388964
 30
0.0
 10
400.020408
 20
495.580836
 30
0.0
 10
398.404168
 20
491.338196
 30
0.0
 10
398.606192
 20
488.711804
 30
0.0
 10
395.171680
 20
486.287436
 30
0.0
 10
392.747312
 20
482.044796
 30
0.0
 10
394.767616
 20
474.165604
 30
0.0
 10
391.535128
 20
464.872204
 30
0.0
 10
383.251880
 20
461.841748
 30
0.0
 10
376.584872
 20
457.397076
 30
0.0
 10
375.372688
 20
448.911788
 30
0.0
 10
369.311768
 20
444.467124
 30
0.0
 10
365.675224
 20
433.961532
 30
0.0
 10
356.381816
 20
430.122956
 30
0.0
 10
353.351360
 20
425.274220
 30
0.0
 10
348.098568
 20
423.860012
 30
0.0
 10
337.795008
 20
414.566604
 30
0.0
 10
342.845776
 20
407.899596
 30
0.0
 10
348.098568
 20
407.899596
 30
0.0
 10
353.553392
 20
399.818380
 30
0.0
 10
350.320904
 20
396.383860
 30
0.0
 10
351.331056
 20
394.565588
 30
0.0
 10
356.179784
 20
392.747308
 30
0.0
 10
364.463040
 20
381.635636
 30
0.0
 10
364.261008
 20
377.595020
 30
0.0
 10
357.594000
 20
369.513804
 30
0.0
 10
351.937144
 20
371.332076
 30
0.0
 10
351.129024
 20
370.725988
 30
0.0
 10
353.553392
 20
366.887404
 30
0.0
 10
353.553392
 20
362.038676
 30
0.0
 10
350.118872
 20
359.412276
 30
0.0
 10
352.341208
 20
338.199076
 30
0.0
 10
342.037656
 20
339.815316
 30
0.0
 10
338.805168
 20
345.876236
 30
0.0
 10
327.895520
 20
348.300596
 30
0.0
 10
331.734096
 20
355.371668
 30
0.0
 10
325.875208
 20
355.775724
 30
0.0
 10
318.400080
 20
362.644764
 30
0.0
 10
317.996024
 20
365.473188
 30
0.0
 10
326.885368
 20
366.281316
 30
0.0
 10
327.693488
 20
397.191980
 30
0.0
 10
321.834600
 20
405.475236
 30
0.0
 10
317.187896
 20
398.404164
 30
0.0
 10
303.449824
 20
400.020412
 30
0.0
 10
304.055920
 20
407.091476
 30
0.0
 10
289.307688
 20
407.495540
 30
0.0
  0
LWPOLYLINE
  5
117
100
AcDbEntity
  8
Layer_1
 62
7
100
AcDbPolyline
 90
77
 70
1
 10
262.235600
 20
295.974700
 30
0.0
 10
255.972656
 20
283.246772
 30
0.0
 10
250.921896
 20
280.418348
 30
0.0
 10
243.850824
 20
282.438652
 30
0.0
 10
241.224432
 20
295.570636
 30
0.0
 10
236.577728
 20
306.884340
 30
0.0
 10
240.214272
 20
312.339164
 30
0.0
 10
256.982808
 20
313.955412
 30
0.0
 10
254.154384
 20
325.471148
 30
0.0
 10
245.669096
 20
324.460996
 30
0.0
 10
241.022400
 20
327.693484
 30
0.0
 10
244.658944
 20
351.533084
 30
0.0
 10
244.254888
 20
372.746292
 30
0.0
 10
221.223408
 20
396.989948
 30
0.0
 10
219.607160
 20
404.667108
 30
0.0
 10
214.960464
 20
405.273204
 30
0.0
 10
213.344216
 20
401.636652
 30
0.0
 10
209.505640
 20
402.848836
 30
0.0
 10
209.101576
 20
411.940212
 30
0.0
 10
204.656904
 20
408.505692
 30
0.0
 10
200.212232
 20
419.617372
 30
0.0
 10
187.484312
 20
412.950364
 30
0.0
 10
178.392936
 20
400.424468
 30
0.0
 10
177.180760
 20
395.575740
 30
0.0
 10
171.119840
 20
394.767612
 30
0.0
 10
163.846744
 20
398.606196
 30
0.0
 10
162.836592
 20
435.981836
 30
0.0
 10
166.877200
 20
434.567628
 30
0.0
 10
167.281264
 20
473.559516
 30
0.0
 10
145.866024
 20
499.823484
 30
0.0
 10
138.794960
 20
524.269172
 30
0.0
 10
132.734048
 20
524.673236
 30
0.0
 10
129.501560
 20
536.795060
 30
0.0
 10
137.986840
 20
543.260036
 30
0.0
 10
141.421360
 20
555.987964
 30
0.0
 10
142.633536
 20
580.433652
 30
0.0
 10
150.108672
 20
570.938220
 30
0.0
 10
156.775672
 20
568.311820
 30
0.0
 10
156.573648
 20
563.867148
 30
0.0
 10
164.452832
 20
560.230604
 30
0.0
 10
174.756392
 20
560.836692
 30
0.0
 10
181.423400
 20
554.371716
 30
0.0
 10
196.979744
 20
551.341260
 30
0.0
 10
207.687360
 20
543.058012
 30
0.0
 10
211.323912
 20
544.270196
 30
0.0
 10
213.950312
 20
540.229580
 30
0.0
 10
249.103616
 20
535.986940
 30
0.0
 10
270.720880
 20
526.289476
 30
0.0
 10
269.508696
 20
520.430596
 30
0.0
 10
264.659968
 20
519.622468
 30
0.0
 10
256.780776
 20
495.378812
 30
0.0
 10
263.649816
 20
485.277284
 30
0.0
 10
273.751344
 20
481.438700
 30
0.0
 10
268.902608
 20
471.135148
 30
0.0
 10
267.690424
 20
460.427532
 30
0.0
 10
272.337128
 20
454.568644
 30
0.0
 10
274.559464
 20
436.991988
 30
0.0
 10
272.539160
 20
423.455948
 30
0.0
 10
275.771648
 20
418.405188
 30
0.0
 10
287.085352
 20
416.384876
 30
0.0
 10
289.913784
 20
407.899596
 30
0.0
 10
281.428496
 20
388.706700
 30
0.0
 10
276.579768
 20
386.686396
 30
0.0
 10
279.812256
 20
377.392988
 30
0.0
 10
275.973672
 20
368.503652
 30
0.0
 10
276.579768
 20
362.846796
 30
0.0
 10
271.933064
 20
358.806188
 30
0.0
 10
282.640680
 20
350.118876
 30
0.0
 10
283.448808
 20
347.896540
 30
0.0
 10
267.488392
 20
319.208204
 30
0.0
 10
265.872152
 20
312.945260
 30
0.0
 10
260.215296
 20
312.137140
 30
0.0
 10
255.770624
 20
307.692468
 30
0.0
 10
257.184840
 20
303.449828
 30
0.0
 10
259.811232
 20
298.197028
 30
0.0
 10
262.235600
 20
298.399060
 30
0.0
 10
262.235600
 20
295.974700
 30
0.0
  0
LWPOLYLINE
  5
118
100
AcDbEntity
  8
Layer_1
 62
7
100
AcDbPolyline
 90
33
 70
1
 10
25.657874
 20
359.412276
 30
0.0
 10
35.759400
 20
336.178764
 30
0.0
 10
64.851794
 20
316.783836
 30
0.0
 10
71.720830
 20
318.198052
 30
0.0
 10
72.730983
 20
331.532068
 30
0.0
 10
64.851794
 20
365.473188
 30
0.0
 10
67.680221
 20
366.079284
 30
0.0
 10
96.570584
 20
323.450844
 30
0.0
 10
105.863984
 20
319.410236
 30
0.0
 10
133.542168
 20
320.016324
 30
0.0
 10
143.643696
 20
322.238660
 30
0.0
 10
158.189888
 20
317.793988
 30
0.0
 10
162.634560
 20
327.693484
 30
0.0
 10
164.250808
 20
330.117852
 30
0.0
 10
178.999032
 20
323.652876
 30
0.0
 10
190.514768
 20
360.422428
 30
0.0
 10
191.726952
 20
363.856948
 30
0.0
 10
186.878224
 20
376.988932
 30
0.0
 10
172.332024
 20
394.161524
 30
0.0
 10
167.281264
 20
396.787924
 30
0.0
 10
160.210192
 20
395.373708
 30
0.0
 10
156.371616
 20
397.191980
 30
0.0
 10
140.007144
 20
410.930060
 30
0.0
 10
119.400032
 20
391.939188
 30
0.0
 10
100.409160
 20
395.373708
 30
0.0
 10
91.721848
 20
372.746292
 30
0.0
 10
83.640632
 20
372.544260
 30
0.0
 10
60.811183
 20
385.878276
 30
0.0
 10
53.134024
 20
376.180812
 30
0.0
 10
54.144177
 20
371.332076
 30
0.0
 10
38.183766
 20
359.412276
 30
0.0
 10
26.870058
 20
365.271164
 30
0.0
 10
25.657874
 20
359.412276
 30
0.0
  0
LWPOLYLINE
  5
119
100
AcDbEntity
  8
Layer_1
 62
7
100
AcDbPolyline
 90
55
 70
1
 10
-83.640632
 20
681.852972
 30
0.0
 10
-89.499512
 20
661.851948
 30
0.0
 10
-22.425386
 20
630.537220
 30
0.0
 10
-48.083262
 20
527.905724
 30
0.0
 10
-19.596959
 20
526.087444
 30
0.0
 10
-22.223356
 20
493.964596
 30
0.0
 10
-50.709658
 20
489.317892
 30
0.0
 10
-74.145197
 20
462.447836
 30
0.0
 10
-58.790878
 20
405.273204
 30
0.0
 10
-46.264986
 20
391.333100
 30
0.0
 10
-57.578695
 20
385.878276
 30
0.0
 10
-55.558390
 20
365.675220
 30
0.0
 10
-46.467017
 20
359.412276
 30
0.0
 10
-34.951278
 20
376.180812
 30
0.0
 10
-25.859905
 20
377.999084
 30
0.0
 10
-20.809142
 20
389.110764
 30
0.0
 10
-10.707617
 20
389.514820
 30
0.0
 10
-2.424366
 20
375.776748
 30
0.0
 10
5.050763
 20
382.443756
 30
0.0
 10
18.586807
 20
349.310748
 30
0.0
 10
26.061936
 20
357.796036
 30
0.0
 10
27.274118
 20
364.058980
 30
0.0
 10
37.981736
 20
359.210244
 30
0.0
 10
55.154329
 20
371.534108
 30
0.0
 10
54.346207
 20
376.180812
 30
0.0
 10
60.407122
 20
384.059996
 30
0.0
 10
82.024384
 20
372.544260
 30
0.0
 10
91.923880
 20
371.130044
 30
0.0
 10
100.813224
 20
394.565588
 30
0.0
 10
119.804096
 20
391.333100
 30
0.0
 10
140.209176
 20
409.717876
 30
0.0
 10
155.563496
 20
395.979796
 30
0.0
 10
161.220344
 20
394.161524
 30
0.0
 10
167.887352
 20
396.989948
 30
0.0
 10
165.260960
 20
399.010260
 30
0.0
 10
163.038624
 20
435.173716
 30
0.0
 10
167.685320
 20
433.759500
 30
0.0
 10
167.685320
 20
473.357484
 30
0.0
 10
146.270088
 20
499.419420
 30
0.0
 10
138.794960
 20
524.875260
 30
0.0
 10
132.734048
 20
525.279324
 30
0.0
 10
129.905616
 20
535.582884
 30
0.0
 10
137.986840
 20
542.653948
 30
0.0
 10
142.027448
 20
554.977812
 30
0.0
 10
142.027448
 20
581.241772
 30
0.0
 10
104.045712
 20
600.232644
 30
0.0
 10
96.974648
 20
594.575788
 30
0.0
 10
64.851794
 20
611.142292
 30
0.0
 10
63.437580
 20
617.405236
 30
0.0
 10
59.599000
 20
618.213356
 30
0.0
 10
56.568542
 20
612.152444
 30
0.0
 10
42.830468
 20
619.627572
 30
0.0
 10
30.708638
 20
620.233660
 30
0.0
 10
-32.930973
 20
659.427580
 30
0.0
 10
-83.640632
 20
681.852972
 30
0.0
  0
LWPOLYLINE
  5
11a
100
AcDbEntity
  8
Layer_1
 62
7
100
AcDbPolyline
 90
21
 70
1
 10
378.201112
 20
203.646756
 30
0.0
 10
393.151368
 20
209.303604
 30
0.0
 10
379.009232
 20
235.567572
 30
0.0
 10
361.230552
 20
246.477220
 30
0.0
 10
343.451864
 20
255.366564
 30
0.0
 10
342.239680
 20
264.255908
 30
0.0
 10
336.178768
 20
266.680276
 30
0.0
 10
320.420384
 20
250.113772
 30
0.0
 10
324.461000
 20
245.669100
 30
0.0
 10
317.591960
 20
245.669100
 30
0.0
 10
323.652872
 20
232.335084
 30
0.0
 10
334.966584
 20
234.759452
 30
0.0
 10
337.390952
 20
227.082292
 30
0.0
 10
331.734096
 20
221.829500
 30
0.0
 10
331.330032
 20
219.001076
 30
0.0
 10
340.219376
 20
219.001076
 30
0.0
 10
346.684352
 20
218.192948
 30
0.0
 10
365.271160
 20
207.283300
 30
0.0
 10
369.715832
 20
202.838628
 30
0.0
 10
374.564568
 20
205.262996
 30
0.0
 10
378.201112
 20
203.646756
 30
0.0
  0
LWPOLYLINE
  5
11b
100
AcDbEntity
  8
Layer_1
 62
7
100
AcDbPolyline
 90
23
 70
1
 10
357.998064
 20
335.774708
 30
0.0
 10
371.332072
 20
316.783836
 30
0.0
 10
379.817360
 20
296.176724
 30
0.0
 10
377.392992
 20
285.671140
 30
0.0
 10
370.119896
 20
284.458956
 30
0.0
 10
375.776744
 20
262.235604
 30
0.0
 10
363.250856
 20
258.194988
 30
0.0
 10
364.058976
 20
244.860980
 30
0.0
 10
343.451864
 20
253.750316
 30
0.0
 10
340.623440
 20
263.447788
 30
0.0
 10
335.370648
 20
265.468092
 30
0.0
 10
321.228512
 20
250.921892
 30
0.0
 10
315.167592
 20
255.366564
 30
0.0
 10
311.531048
 20
263.851844
 30
0.0
 10
315.167592
 20
268.296516
 30
0.0
 10
312.339168
 20
274.357428
 30
0.0
 10
312.339168
 20
279.610228
 30
0.0
 10
322.440696
 20
282.438652
 30
0.0
 10
350.320904
 20
305.066068
 30
0.0
 10
347.896536
 20
318.804140
 30
0.0
 10
351.533088
 20
320.824452
 30
0.0
 10
351.533088
 20
328.905668
 30
0.0
 10
357.998064
 20
335.774708
 30
0.0
  0
LWPOLYLINE
  5
11c
100
AcDbEntity
  8
Layer_1
 62
7
100
AcDbPolyline
 90
20
 70
1
 10
379.009232
 20
203.242692
 30
0.0
 10
392.343248
 20
209.303604
 30
0.0
 10
400.020408
 20
214.556404
 30
0.0
 10
406.081320
 20
224.253868
 30
0.0
 10
425.072192
 20
224.657924
 30
0.0
 10
433.153408
 20
231.931028
 30
0.0
 10
450.528032
 20
226.678228
 30
0.0
 10
458.609256
 20
233.143204
 30
0.0
 10
467.498600
 20
224.657924
 30
0.0
 10
473.155456
 20
227.082292
 30
0.0
 10
471.135144
 20
214.960460
 30
0.0
 10
471.135144
 20
209.707668
 30
0.0
 10
476.387944
 20
196.777716
 30
0.0
 10
465.478296
 20
170.109692
 30
0.0
 10
444.467120
 20
167.685324
 30
0.0
 10
425.880312
 20
158.391916
 30
0.0
 10
418.607216
 20
162.028468
 30
0.0
 10
414.566608
 20
153.543188
 30
0.0
 10
393.151368
 20
187.080252
 30
0.0
 10
379.009232
 20
203.242692
 30
0.0
  0
LWPOLYLINE
  5
11d
100
AcDbEntity
  8
Layer_1
 62
7
100
AcDbPolyline
 90
20
 70
1
 10
413.758480
 20
153.947252
 30
0.0
 10
417.799096
 20
162.028468
 30
0.0
 10
426.284376
 20
160.008164
 30
0.0
 10
442.446816
 20
168.897508
 30
0.0
 10
463.053928
 20
171.321876
 30
0.0
 10
475.579816
 20
195.161476
 30
0.0
 10
482.448856
 20
202.030508
 30
0.0
 10
488.509768
 20
195.969596
 30
0.0
 10
500.631600
 20
200.414268
 30
0.0
 10
505.076272
 20
180.211212
 30
0.0
 10
496.186928
 20
167.685324
 30
0.0
 10
500.227544
 20
149.502580
 30
0.0
 10
486.489464
 20
137.784804
 30
0.0
 10
482.044792
 20
145.057908
 30
0.0
 10
475.579816
 20
124.046732
 30
0.0
 10
450.932096
 20
134.148260
 30
0.0
 10
445.275240
 20
132.936076
 30
0.0
 10
435.981840
 20
143.441660
 30
0.0
 10
419.415336
 20
148.290396
 30
0.0
 10
413.758480
 20
153.947252
 30
0.0
  0
LWPOLYLINE
  5
11e
100
AcDbEntity
  8
Layer_1
 62
7
100
AcDbPolyline
 90
13
 70
1
 10
504.672208
 20
181.423396
 30
0.0
 10
523.259016
 20
181.827460
 30
0.0
 10
541.441768
 20
188.292436
 30
0.0
 10
549.522984
 20
197.989900
 30
0.0
 10
550.331104
 20
209.707668
 30
0.0
 10
544.674256
 20
210.515788
 30
0.0
 10
535.784912
 20
224.657924
 30
0.0
 10
532.148360
 20
252.942196
 30
0.0
 10
511.945312
 20
254.558444
 30
0.0
 10
501.035664
 20
217.788892
 30
0.0
 10
499.015360
 20
217.384828
 30
0.0
 10
501.843784
 20
198.798020
 30
0.0
 10
504.672208
 20
181.423396
 30
0.0
  0
LWPOLYLINE
  5
11f
100
AcDbEntity
  8
Layer_1
 62
7
100
AcDbPolyline
 90
60
 70
1
 10
475.983880
 20
123.642668
 30
0.0
 10
491.742256
 20
113.137084
 30
0.0
 10
490.126016
 20
120.006124
 30
0.0
 10
502.247848
 20
116.773636
 30
0.0
 10
505.480336
 20
109.904596
 30
0.0
 10
503.460032
 20
105.863988
 30
0.0
 10
509.520944
 20
101.015252
 30
0.0
 10
518.006224
 20
101.823380
 30
0.0
 10
530.936176
 20
99.803068
 30
0.0
 10
542.249888
 20
109.500540
 30
0.0
 10
548.310800
 20
105.863988
 30
0.0
 10
554.371720
 20
109.096476
 30
0.0
 10
549.118920
 20
123.642668
 30
0.0
 10
564.069184
 20
139.805116
 30
0.0
 10
567.705728
 20
159.200044
 30
0.0
 10
572.150400
 20
180.211212
 30
0.0
 10
603.667160
 20
197.585836
 30
0.0
 10
620.233664
 20
207.283300
 30
0.0
 10
621.849904
 20
214.960460
 30
0.0
 10
626.294576
 20
209.707668
 30
0.0
 10
634.779856
 20
222.637620
 30
0.0
 10
657.407280
 20
225.061988
 30
0.0
 10
663.064128
 20
228.294476
 30
0.0
 10
664.680376
 20
201.626452
 30
0.0
 10
674.781904
 20
199.606140
 30
0.0
 10
699.833680
 20
237.183820
 30
0.0
 10
701.045864
 20
252.134076
 30
0.0
 10
694.984952
 20
257.386868
 30
0.0
 10
701.853992
 20
274.761492
 30
0.0
 10
701.045864
 20
282.034588
 30
0.0
 10
697.813376
 20
288.499564
 30
0.0
 10
687.711856
 20
282.438652
 30
0.0
 10
684.883424
 20
271.124940
 30
0.0
 10
668.316928
 20
252.942196
 30
0.0
 10
654.982912
 20
247.285340
 30
0.0
 10
650.134176
 20
251.730012
 30
0.0
 10
649.326056
 20
261.427476
 30
0.0
 10
644.073264
 20
267.084332
 30
0.0
 10
643.669200
 20
272.741188
 30
0.0
 10
629.931128
 20
277.589916
 30
0.0
 10
624.274272
 20
276.377740
 30
0.0
 10
610.536200
 20
280.822404
 30
0.0
 10
603.263104
 20
295.368604
 30
0.0
 10
586.292536
 20
291.732052
 30
0.0
 10
591.545328
 20
277.993980
 30
0.0
 10
576.999136
 20
269.912764
 30
0.0
 10
539.825520
 20
266.680276
 30
0.0
 10
531.340240
 20
251.325956
 30
0.0
 10
535.380848
 20
223.041684
 30
0.0
 10
543.866128
 20
210.515788
 30
0.0
 10
549.522984
 20
208.899548
 30
0.0
 10
549.522984
 20
198.798020
 30
0.0
 10
540.633640
 20
189.504620
 30
0.0
 10
524.875264
 20
183.039644
 30
0.0
 10
504.672208
 20
181.423396
 30
0.0
 10
495.782872
 20
168.897508
 30
0.0
 10
499.015360
 20
150.310700
 30
0.0
 10
487.297592
 20
141.017292
 30
0.0
 10
482.044792
 20
145.866028
 30
0.0
 10
475.983880
 20
123.642668
 30
0.0
  0
LWPOLYLINE
  5
120
100
AcDbEntity
  8
Layer_1
 62
7
100
AcDbPolyline
 90
58
 70
1
 10
531.744304
 20
99.399012
 30
0.0
 10
534.572728
 20
92.934036
 30
0.0
 10
534.168664
 20
86.469060
 30
0.0
 10
528.511816
 20
86.469060
 30
0.0
 10
527.703688
 20
80.408140
 30
0.0
 10
521.642776
 20
80.004084
 30
0.0
 10
518.814344
 20
82.832508
 30
0.0
 10
517.198104
 20
93.742156
 30
0.0
 10
513.561552
 20
86.873116
 30
0.0
 10
516.389984
 20
82.024388
 30
0.0
 10
515.177800
 20
77.579716
 30
0.0
 10
524.471200
 20
75.559412
 30
0.0
 10
524.875264
 20
69.902556
 30
0.0
 10
522.046832
 20
63.841644
 30
0.0
 10
517.198104
 20
64.649764
 30
0.0
 10
516.794040
 20
58.992908
 30
0.0
 10
513.157496
 20
58.184788
 30
0.0
 10
512.753432
 20
62.225396
 30
0.0
 10
511.541248
 20
62.225396
 30
0.0
 10
510.329064
 20
58.992908
 30
0.0
 10
505.076272
 20
58.588844
 30
0.0
 10
507.096576
 20
47.275140
 30
0.0
 10
513.561552
 20
48.083260
 30
0.0
 10
510.733128
 20
55.356356
 30
0.0
 10
528.107752
 20
56.972604
 30
0.0
 10
536.997096
 20
54.952300
 30
0.0
 10
537.401152
 20
61.013212
 30
0.0
 10
540.633640
 20
60.609156
 30
0.0
 10
547.502680
 20
53.740116
 30
0.0
 10
553.967656
 20
62.225396
 30
0.0
 10
562.857000
 20
60.609156
 30
0.0
 10
571.342280
 20
51.719812
 30
0.0
 10
583.464112
 20
67.882252
 30
0.0
 10
591.141272
 20
60.609156
 30
0.0
 10
597.606248
 20
81.216268
 30
0.0
 10
591.545328
 20
94.146220
 30
0.0
 10
604.071224
 20
115.965516
 30
0.0
 10
628.314880
 20
124.450796
 30
0.0
 10
632.759552
 20
142.633540
 30
0.0
 10
654.174792
 20
145.866028
 30
0.0
 10
663.872256
 20
160.816284
 30
0.0
 10
654.982912
 20
163.644716
 30
0.0
 10
651.750424
 20
184.655884
 30
0.0
 10
667.104744
 20
202.434572
 30
0.0
 10
665.084440
 20
229.910716
 30
0.0
 10
659.023520
 20
228.294476
 30
0.0
 10
656.599152
 20
225.061988
 30
0.0
 10
635.587984
 20
223.445740
 30
0.0
 10
626.698640
 20
212.132036
 30
0.0
 10
621.849904
 20
217.384828
 30
0.0
 10
620.233664
 20
209.707668
 30
0.0
 10
571.342280
 20
180.615276
 30
0.0
 10
564.069184
 20
141.421356
 30
0.0
 10
548.714864
 20
125.258916
 30
0.0
 10
552.755472
 20
110.712716
 30
0.0
 10
549.118920
 20
108.288356
 30
0.0
 10
542.249888
 20
111.520844
 30
0.0
 10
531.744304
 20
99.399012
 30
0.0
  0
LWPOLYLINE
  5
121
100
AcDbEntity
  8
Layer_1
 62
7
100
AcDbPolyline
 90
19
 70
1
 10
472.751392
 20
228.294476
 30
0.0
 10
456.588952
 20
242.840676
 30
0.0
 10
443.254936
 20
242.840676
 30
0.0
 10
436.385896
 20
248.497524
 30
0.0
 10
421.839704
 20
247.285340
 30
0.0
 10
394.767616
 20
249.305652
 30
0.0
 10
373.756440
 20
263.043724
 30
0.0
 10
362.846792
 20
259.003116
 30
0.0
 10
362.846792
 20
244.052852
 30
0.0
 10
378.201112
 20
234.759452
 30
0.0
 10
392.343248
 20
210.111732
 30
0.0
 10
401.232592
 20
212.940156
 30
0.0
 10
405.677264
 20
221.829500
 30
0.0
 10
426.688432
 20
224.253868
 30
0.0
 10
433.557472
 20
230.718844
 30
0.0
 10
450.528032
 20
226.274172
 30
0.0
 10
458.205192
 20
230.314780
 30
0.0
 10
467.902656
 20
223.041684
 30
0.0
 10
472.751392
 20
228.294476
 30
0.0
  0
LWPOLYLINE
  5
122
100
AcDbEntity
  8
Layer_1
 62
7
100
AcDbPolyline
 90
25
 70
1
 10
457.801136
 20
242.436612
 30
0.0
 10
453.356464
 20
260.215300
 30
0.0
 10
464.670168
 20
266.276212
 30
0.0
 10
492.550384
 20
269.508700
 30
0.0
 10
503.055968
 20
280.014284
 30
0.0
 10
514.369680
 20
280.822404
 30
0.0
 10
523.663080
 20
295.368604
 30
0.0
 10
534.572728
 20
305.470132
 30
0.0
 10
546.290496
 20
301.833580
 30
0.0
 10
579.423504
 20
300.217340
 30
0.0
 10
588.312840
 20
291.732052
 30
0.0
 10
593.161576
 20
277.589916
 30
0.0
 10
577.807256
 20
268.296516
 30
0.0
 10
540.633640
 20
265.064028
 30
0.0
 10
532.956480
 20
250.517828
 30
0.0
 10
513.157496
 20
252.134076
 30
0.0
 10
504.672208
 20
218.597012
 30
0.0
 10
500.631600
 20
216.172644
 30
0.0
 10
502.247848
 20
198.798020
 30
0.0
 10
490.126016
 20
194.757412
 30
0.0
 10
482.852920
 20
200.010204
 30
0.0
 10
475.579816
 20
195.161476
 30
0.0
 10
470.327024
 20
208.495484
 30
0.0
 10
471.943272
 20
226.274172
 30
0.0
 10
457.801136
 20
242.436612
 30
0.0
  0
LWPOLYLINE
  5
123
100
AcDbEntity
  8
Layer_1
 62
7
100
AcDbPolyline
 90
22
 70
1
 10
366.079280
 20
320.016324
 30
0.0
 10
383.857968
 20
320.824452
 30
0.0
 10
383.857968
 20
315.167596
 30
0.0
 10
394.767616
 20
316.379780
 30
0.0
 10
402.444776
 20
304.257948
 30
0.0
 10
413.758480
 20
306.682316
 30
0.0
 10
417.799096
 20
289.307692
 30
0.0
 10
436.385896
 20
287.287388
 30
0.0
 10
442.446816
 20
282.842716
 30
0.0
 10
452.548344
 20
267.892452
 30
0.0
 10
465.882352
 20
264.255908
 30
0.0
 10
455.376768
 20
259.003116
 30
0.0
 10
460.225496
 20
241.224428
 30
0.0
 10
444.063056
 20
240.820364
 30
0.0
 10
436.789960
 20
247.689404
 30
0.0
 10
415.374728
 20
245.669100
 30
0.0
 10
396.383856
 20
248.497524
 30
0.0
 10
373.352384
 20
261.427476
 30
0.0
 10
368.503648
 20
283.650836
 30
0.0
 10
376.584872
 20
286.075204
 30
0.0
 10
378.201112
 20
295.368604
 30
0.0
 10
366.079280
 20
320.016324
 30
0.0
  0
LWPOLYLINE
  5
124
100
AcDbEntity
  8
Layer_1
 62
7
100
AcDbPolyline
 90
43
 70
1
 10
601.646856
 20
294.964540
 30
0.0
 10
606.899648
 20
316.783836
 30
0.0
 10
621.849904
 20
338.603132
 30
0.0
 10
614.576808
 20
343.047804
 30
0.0
 10
617.405240
 20
349.108724
 30
0.0
 10
624.678336
 20
348.704660
 30
0.0
 10
623.870216
 20
353.957452
 30
0.0
 10
609.324016
 20
365.675220
 30
0.0
 10
605.687464
 20
379.009236
 30
0.0
 10
594.777816
 20
379.009236
 30
0.0
 10
590.333144
 20
381.433604
 30
0.0
 10
583.464112
 20
380.625476
 30
0.0
 10
580.635680
 20
385.474212
 30
0.0
 10
568.513856
 20
379.413300
 30
0.0
 10
557.200144
 20
386.282332
 30
0.0
 10
549.927048
 20
378.605172
 30
0.0
 10
531.744304
 20
388.302636
 30
0.0
 10
529.319936
 20
376.584868
 30
0.0
 10
510.329064
 20
373.352380
 30
0.0
 10
501.035664
 20
358.806188
 30
0.0
 10
488.509768
 20
365.271164
 30
0.0
 10
481.236672
 20
359.210244
 30
0.0
 10
480.832608
 20
350.724964
 30
0.0
 10
469.518904
 20
341.027500
 30
0.0
 10
465.478296
 20
328.501612
 30
0.0
 10
473.559512
 20
311.935108
 30
0.0
 10
456.993008
 20
307.490436
 30
0.0
 10
436.789960
 20
308.298556
 30
0.0
 10
413.758480
 20
296.580788
 30
0.0
 10
416.990968
 20
286.479260
 30
0.0
 10
437.194024
 20
285.671140
 30
0.0
 10
448.103672
 20
271.124940
 30
0.0
 10
461.033624
 20
263.851844
 30
0.0
 10
491.338200
 20
267.084332
 30
0.0
 10
502.651904
 20
277.993980
 30
0.0
 10
513.965616
 20
279.610228
 30
0.0
 10
525.279320
 20
294.560484
 30
0.0
 10
534.976792
 20
303.449828
 30
0.0
 10
545.886432
 20
299.409212
 30
0.0
 10
566.897608
 20
300.621396
 30
0.0
 10
579.423504
 20
298.197028
 30
0.0
 10
589.120968
 20
289.711748
 30
0.0
 10
601.646856
 20
294.964540
 30
0.0
  0
LWPOLYLINE
  5
125
100
AcDbEntity
  8
Layer_1
 62
7
100
AcDbPolyline
 90
67
 70
1
 10
592.353456
 20
381.029540
 30
0.0
 10
595.181880
 20
393.555436
 30
0.0
 10
587.908784
 20
401.232588
 30
0.0
 10
586.292536
 20
409.313812
 30
0.0
 10
579.019440
 20
408.505692
 30
0.0
 10
577.807256
 20
418.203156
 30
0.0
 10
568.109792
 20
414.162548
 30
0.0
 10
559.624512
 20
432.749348
 30
0.0
 10
560.836696
 20
451.336156
 30
0.0
 10
568.917912
 20
475.579820
 30
0.0
 10
513.157496
 20
492.146324
 30
0.0
 10
510.329064
 20
496.186932
 30
0.0
 10
501.035664
 20
488.105708
 30
0.0
 10
476.387944
 20
491.742260
 30
0.0
 10
480.832608
 20
485.277284
 30
0.0
 10
473.559512
 20
480.832612
 30
0.0
 10
469.922968
 20
485.277284
 30
0.0
 10
463.053928
 20
482.448860
 30
0.0
 10
442.446816
 20
482.044796
 30
0.0
 10
438.810264
 20
475.579820
 30
0.0
 10
427.900616
 20
480.832612
 30
0.0
 10
424.668128
 20
472.751388
 30
0.0
 10
414.566608
 20
471.943268
 30
0.0
 10
409.313808
 20
465.074236
 30
0.0
 10
408.909752
 20
459.821436
 30
0.0
 10
400.828528
 20
459.417380
 30
0.0
 10
400.020408
 20
455.780828
 30
0.0
 10
403.252896
 20
449.315852
 30
0.0
 10
393.555432
 20
441.234636
 30
0.0
 10
376.584872
 20
435.173716
 30
0.0
 10
372.544256
 20
427.900620
 30
0.0
 10
364.867096
 20
423.455948
 30
0.0
 10
369.311768
 20
415.778788
 30
0.0
 10
368.099584
 20
409.717876
 30
0.0
 10
362.442736
 20
401.232588
 30
0.0
 10
371.332072
 20
394.363556
 30
0.0
 10
381.837664
 20
387.494516
 30
0.0
 10
383.453904
 20
375.776748
 30
0.0
 10
378.201112
 20
372.140196
 30
0.0
 10
372.948320
 20
364.463036
 30
0.0
 10
361.230552
 20
359.210244
 30
0.0
 10
358.402120
 20
334.562524
 30
0.0
 10
368.099584
 20
317.996020
 30
0.0
 10
382.241720
 20
319.612268
 30
0.0
 10
385.070152
 20
312.339164
 30
0.0
 10
393.555432
 20
312.339164
 30
0.0
 10
401.232592
 20
301.833580
 30
0.0
 10
410.525992
 20
301.429516
 30
0.0
 10
416.586912
 20
296.580788
 30
0.0
 10
435.981840
 20
306.278252
 30
0.0
 10
466.690480
 20
308.298556
 30
0.0
 10
476.792000
 20
311.126988
 30
0.0
 10
468.710784
 20
327.289428
 30
0.0
 10
469.114840
 20
339.007196
 30
0.0
 10
481.640736
 20
347.492476
 30
0.0
 10
482.044792
 20
356.381820
 30
0.0
 10
487.297592
 20
362.038676
 30
0.0
 10
501.035664
 20
358.402124
 30
0.0
 10
510.329064
 20
370.523956
 30
0.0
 10
530.936176
 20
374.968628
 30
0.0
 10
533.360544
 20
384.666092
 30
0.0
 10
551.947352
 20
375.776748
 30
0.0
 10
556.392024
 20
383.857964
 30
0.0
 10
567.301672
 20
377.392988
 30
0.0
 10
578.615376
 20
383.453908
 30
0.0
 10
585.080352
 20
378.201116
 30
0.0
 10
592.353456
 20
381.029540
 30
0.0
  0
LWPOLYLINE
  5
126
100
AcDbEntity
  8
Layer_1
 62
7
100
AcDbPolyline
 90
75
 70
1
 10
567.705728
 20
475.175756
 30
0.0
 10
560.432632
 20
453.356460
 30
0.0
 10
558.412328
 20
431.133108
 30
0.0
 10
565.685424
 20
412.546300
 30
0.0
 10
575.382888
 20
415.374724
 30
0.0
 10
579.019440
 20
406.889444
 30
0.0
 10
586.292536
 20
406.485388
 30
0.0
 10
588.312840
 20
398.404164
 30
0.0
 10
593.565632
 20
393.555436
 30
0.0
 10
590.333144
 20
379.009236
 30
0.0
 10
605.687464
 20
377.797052
 30
0.0
 10
609.324016
 20
364.867100
 30
0.0
 10
623.870216
 20
354.361516
 30
0.0
 10
625.486456
 20
349.108724
 30
0.0
 10
617.001176
 20
348.300596
 30
0.0
 10
614.576808
 20
343.451868
 30
0.0
 10
620.637728
 20
338.603132
 30
0.0
 10
606.495592
 20
318.400084
 30
0.0
 10
600.030616
 20
293.752364
 30
0.0
 10
609.728080
 20
280.014284
 30
0.0
 10
622.658032
 20
273.953372
 30
0.0
 10
631.951432
 20
276.377740
 30
0.0
 10
640.436712
 20
270.720884
 30
0.0
 10
646.497632
 20
261.023420
 30
0.0
 10
650.134176
 20
249.305652
 30
0.0
 10
657.003216
 20
244.860980
 30
0.0
 10
686.095608
 20
269.104636
 30
0.0
 10
688.519976
 20
278.802100
 30
0.0
 10
697.005256
 20
286.075204
 30
0.0
 10
700.641808
 20
274.357428
 30
0.0
 10
713.975816
 20
295.772668
 30
0.0
 10
725.289528
 20
285.267076
 30
0.0
 10
750.745376
 20
288.903628
 30
0.0
 10
776.605280
 20
280.014284
 30
0.0
 10
779.433704
 20
252.538140
 30
0.0
 10
787.110864
 20
256.174684
 30
0.0
 10
789.939288
 20
230.314780
 30
0.0
 10
838.426640
 20
215.364524
 30
0.0
 10
852.164720
 20
238.396004
 30
0.0
 10
874.792080
 20
257.790932
 30
0.0
 10
859.033760
 20
271.124940
 30
0.0
 10
882.065200
 20
289.711748
 30
0.0
 10
964.493680
 20
260.619356
 30
0.0
 10
1034.800240
 20
338.199076
 30
0.0
 10
1058.639840
 20
331.734100
 30
0.0
 10
1059.448000
 20
351.937148
 30
0.0
 10
1031.567760
 20
352.745268
 30
0.0
 10
1027.527200
 20
398.000100
 30
0.0
 10
975.403280
 20
396.787924
 30
0.0
 10
949.947440
 20
395.171676
 30
0.0
 10
936.209360
 20
407.697564
 30
0.0
 10
928.532240
 20
405.273204
 30
0.0
 10
923.683520
 20
411.738180
 30
0.0
 10
909.945440
 20
415.778788
 30
0.0
 10
905.500720
 20
411.738180
 30
0.0
 10
898.227680
 20
415.374724
 30
0.0
 10
872.771760
 20
412.950364
 30
0.0
 10
856.609360
 20
418.607212
 30
0.0
 10
837.214400
 20
419.011276
 30
0.0
 10
830.345360
 20
423.860012
 30
0.0
 10
830.345360
 20
419.415340
 30
0.0
 10
816.607280
 20
425.072188
 30
0.0
 10
798.424576
 20
430.729044
 30
0.0
 10
783.878376
 20
443.254940
 30
0.0
 10
780.645888
 20
438.406204
 30
0.0
 10
785.494616
 20
435.173716
 30
0.0
 10
778.285712
 20
434.571428
 30
0.0
 10
780.571432
 20
431.428572
 30
0.0
 10
775.714288
 20
428.000004
 30
0.0
 10
742.285712
 20
432.857140
 30
0.0
 10
665.714288
 20
454.571428
 30
0.0
 10
617.428576
 20
470.285716
 30
0.0
 10
614.285712
 20
473.714284
 30
0.0
 10
610.000000
 20
470.571428
 30
0.0
 10
567.705728
 20
475.175756
 30
0.0
  0
LWPOLYLINE
  5
127
100
AcDbEntity
  8
Layer_1
 62
7
100
AcDbPolyline
 90
5
 70
1
 10
367.897560
 20
129.905620
 30
0.0
 10
368.301616
 20
132.532012
 30
0.0
 10
367.089432
 20
133.340140
 30
0.0
 10
365.473192
 20
131.117804
 30
0.0
 10
367.897560
 20
129.905620
 30
0.0
  0
LWPOLYLINE
  5
128
100
AcDbEntity
  8
Layer_1
 62
7
100
AcDbPolyline
 90
9
 70
1
 10
337.592984
 20
160.816284
 30
0.0
 10
338.805168
 20
155.361460
 30
0.0
 10
342.441712
 20
154.957404
 30
0.0
 10
342.441712
 20
150.310700
 30
0.0
 10
347.088416
 20
150.916788
 30
0.0
 10
350.926992
 20
152.533036
 30
0.0
 10
351.129024
 20
158.593948
 30
0.0
 10
347.290448
 20
163.442684
 30
0.0
 10
337.592984
 20
160.816284
 30
0.0
  0
LWPOLYLINE
  5
129
100
AcDbEntity
  8
Layer_1
 62
7
100
AcDbPolyline
 90
10
 70
1
 10
350.724968
 20
134.754348
 30
0.0
 10
352.139176
 20
130.915772
 30
0.0
 10
348.502632
 20
126.067036
 30
0.0
 10
350.118872
 20
122.430492
 30
0.0
 10
355.573696
 20
121.622364
 30
0.0
 10
362.644768
 20
126.067036
 30
0.0
 10
361.028520
 20
129.299524
 30
0.0
 10
360.826488
 20
132.734044
 30
0.0
 10
353.957456
 20
133.946228
 30
0.0
 10
350.724968
 20
134.754348
 30
0.0
  0
LWPOLYLINE
  5
12a
100
AcDbEntity
  8
Layer_1
 62
7
100
AcDbPolyline
 90
15
 70
1
 10
378.201112
 20
132.329980
 30
0.0
 10
375.978776
 20
130.309676
 30
0.0
 10
375.776744
 20
126.875164
 30
0.0
 10
368.705680
 20
122.834548
 30
0.0
 10
365.473192
 20
121.218308
 30
0.0
 10
364.463040
 20
116.167540
 30
0.0
 10
371.534104
 20
114.955364
 30
0.0
 10
371.332080
 20
118.389876
 30
0.0
 10
374.362536
 20
118.389876
 30
0.0
 10
374.160504
 20
115.763484
 30
0.0
 10
382.039696
 20
116.369572
 30
0.0
 10
387.292488
 20
120.612212
 30
0.0
 10
384.464056
 20
128.087340
 30
0.0
 10
383.251880
 20
132.532012
 30
0.0
 10
378.201112
 20
132.329980
 30
0.0
  0
LWPOLYLINE
  5
12b
100
AcDbEntity
  8
Layer_1
 62
7
100
AcDbPolyline
 90
18
 70
1
 10
407.091480
 20
122.430492
 30
0.0
 10
399.616344
 20
118.187852
 30
0.0
 10
395.979800
 20
118.187852
 30
0.0
 10
395.777768
 20
110.106628
 30
0.0
 10
390.524976
 20
108.894444
 30
0.0
 10
390.524976
 20
107.076172
 30
0.0
 10
395.373704
 20
106.268052
 30
0.0
 10
393.353400
 20
100.005100
 30
0.0
 10
395.979800
 20
93.742156
 30
0.0
 10
392.343248
 20
89.499516
 30
0.0
 10
393.353400
 20
87.479212
 30
0.0
 10
395.171680
 20
86.873116
 30
0.0
 10
395.373704
 20
85.054844
 30
0.0
 10
403.454928
 20
84.852812
 30
0.0
 10
404.061016
 20
102.025404
 30
0.0
 10
414.970664
 20
117.581756
 30
0.0
 10
410.525992
 20
122.834548
 30
0.0
 10
407.091480
 20
122.430492
 30
0.0
  0
LWPOLYLINE
  5
12c
100
AcDbEntity
  8
Layer_1
 62
7
100
AcDbPolyline
 90
7
 70
1
 10
418.001120
 20
102.833532
 30
0.0
 10
415.778792
 20
97.176676
 30
0.0
 10
420.021432
 20
93.338092
 30
0.0
 10
421.839704
 20
93.742156
 30
0.0
 10
422.041736
 20
96.166524
 30
0.0
 10
421.031584
 20
99.196980
 30
0.0
 10
418.001120
 20
102.833532
 30
0.0
  0
ENDSEC
  0
SECTION
  2
OBJECTS
  0
DICTIONARY
  5
C
330
0
100
AcDbDictionary
  3
ACAD_GROUP
350
D
  3
ACAD_MLINESTYLE
350
17
  0
DICTIONARY
  5
D
330
C
100
AcDbDictionary
  0
DICTIONARY
  5
1A
330
C
100
AcDbDictionary
  0
DICTIONARY
  5
17
330
C
100
AcDbDictionary
  3
STANDARD
350
18
  0
DICTIONARY
  5
19
330
C
100
AcDbDictionary
  0
ENDSEC
  0
EOF
