  0
SECTION
  2
HEADER
  9
$ACADVER
  1
AC1014
  9
$HANDSEED
  5
FFFF
  9
$MEASUREMENT
 70
     1
  0
ENDSEC
  0
SECTION
  2
TABLES
  0
TABLE
  2
VPORT
  5
8
330
0
100
AcDbSymbolTable
 70
     4
  0
VPORT
  5
2E
330
8
100
AcDbSymbolTableRecord
100
AcDbViewportTableRecord
  2
*ACTIVE
 70
     0
 10
0.0
 20
0.0
 11
1.0
 21
1.0
 12
210.0
 22
148.5
 13
0.0
 23
0.0
 14
10.0
 24
10.0
 15
10.0
 25
10.0
 16
0.0
 26
0.0
 36
1.0
 17
0.0
 27
0.0
 37
0.0
 40
341.0
 41
1.24
 42
50.0
 43
0.0
 44
0.0
 50
0.0
 51
0.0
 71
     0
 72
   100
 73
     1
 74
     3
 75
     0
 76
     0
 77
     0
 78
     0
  0
ENDTAB
  0
TABLE
  2
LTYPE
  5
5
330
0
100
AcDbSymbolTable
 70
     1
  0
LTYPE
  5
14
330
5
100
AcDbSymbolTableRecord
100
AcDbLinetypeTableRecord
  2
BYBLOCK
 70
     0
  3

 72
    65
 73
     0
 40
0.0
  0
LTYPE
  5
15
330
5
100
AcDbSymbolTableRecord
100
AcDbLinetypeTableRecord
  2
BYLAYER
 70
     0
  3

 72
    65
 73
     0
 40
0.0
  0
LTYPE
  5
16
330
5
100
AcDbSymbolTableRecord
100
AcDbLinetypeTableRecord
  2
CONTINUOUS
 70
     0
  3
Solid line
 72
    65
 73
     0
 40
0.0
  0
ENDTAB
  0
TABLE
  2
LAYER
  5
2
100
AcDbSymbolTable
 70
2
  0
LAYER
  5
50
100
AcDbSymbolTableRecord
100
AcDbLayerTableRecord
  2
0
 70
0
  6
CONTINUOUS
  0
LAYER
  5
51
100
AcDbSymbolTableRecord
100
AcDbLayerTableRecord
  2
Layer_1
 70
0
  6
CONTINUOUS
  0
ENDTAB
  0
TABLE
  2
STYLE
  5
3
330
0
100
AcDbSymbolTable
 70
     1
  0
STYLE
  5
11
330
3
100
AcDbSymbolTableRecord
100
AcDbTextStyleTableRecord
  2
STANDARD
 70
     0
 40
0.0
 41
1.0
 50
0.0
 71
     0
 42
2.5
  3
txt
  4

  0
ENDTAB
  0
TABLE
  2
VIEW
  5
6
330
0
100
AcDbSymbolTable
 70
     0
  0
ENDTAB
  0
TABLE
  2
UCS
  5
7
330
0
100
AcDbSymbolTable
 70
     0
  0
ENDTAB
  0
TABLE
  2
APPID
  5
9
330
0
100
AcDbSymbolTable
 70
     2
  0
APPID
  5
12
330
9
100
AcDbSymbolTableRecord
100
AcDbRegAppTableRecord
  2
ACAD
 70
     0
  0
ENDTAB
  0
TABLE
  2
DIMSTYLE
  5
A
330
0
100
AcDbSymbolTable
 70
     1
  0
DIMSTYLE
105
27
330
A
100
AcDbSymbolTableRecord
100
AcDbDimStyleTableRecord
  2
ISO-25
 70
     0
  3

  4

  5

  6

  7

 40
1.0
 41
2.5
 42
0.625
 43
3.75
 44
1.25
 45
0.0
 46
0.0
 47
0.0
 48
0.0
140
2.5
141
2.5
142
0.0
143
0.03937007874016
144
1.0
145
0.0
146
1.0
147
0.625
 71
     0
 72
     0
 73
     0
 74
     0
 75
     0
 76
     0
 77
     1
 78
     8
170
     0
171
     3
172
     1
173
     0
174
     0
175
     0
176
     0
177
     0
178
     0
270
     2
271
     2
272
     2
273
     2
274
     3
340
11
275
     0
280
     0
281
     0
282
     0
283
     0
284
     8
285
     0
286
     0
287
     3
288
     0
  0
ENDTAB
  0
TABLE
  2
BLOCK_RECORD
  5
1
330
0
100
AcDbSymbolTable
 70
     1
  0
BLOCK_RECORD
  5
1F
330
1
100
AcDbSymbolTableRecord
100
AcDbBlockTableRecord
  2
*MODEL_SPACE
  0
BLOCK_RECORD
  5
1B
330
1
100
AcDbSymbolTableRecord
100
AcDbBlockTableRecord
  2
*PAPER_SPACE
  0
ENDTAB
  0
ENDSEC
  0
SECTION
  2
BLOCKS
  0
BLOCK
  5
20
330
1F
100
AcDbEntity
  8
0
100
AcDbBlockBegin
  2
*MODEL_SPACE
 70
     0
 10
0.0
 20
0.0
 30
0.0
  3
*MODEL_SPACE
  1

  0
ENDBLK
  5
21
330
1F
100
AcDbEntity
  8
0
100
AcDbBlockEnd
  0
BLOCK
  5
1C
330
1B
100
AcDbEntity
 67
     1
  8
0
100
AcDbBlockBegin
  2
*PAPER_SPACE
  1

  0
ENDBLK
  5
1D
330
1B
100
AcDbEntity
 67
     1
  8
0
100
AcDbBlockEnd
  0
ENDSEC
  0
SECTION
  2
ENTITIES
  0
LWPOLYLINE
  5
100
100
AcDbEntity
  8
Layer_1
 62
7
100
AcDbPolyline
 90
25
 70
1
 10
-362.857144
 20
501.428572
 30
0.0
 10
-353.714288
 20
508.285716
 30
0.0
 10
-329.428568
 20
512.857140
 30
0.0
 10
-312.571432
 20
513.428572
 30
0.0
 10
-275.428568
 20
523.428572
 30
0.0
 10
-262.571432
 20
534.571428
 30
0.0
 10
-230.571432
 20
549.428572
 30
0.0
 10
-161.142856
 20
576.571428
 30
0.0
 10
-165.714288
 20
548.857140
 30
0.0
 10
-159.428568
 20
533.428572
 30
0.0
 10
-180.285712
 20
521.714284
 30
0.0
 10
-196.857144
 20
527.142860
 30
0.0
 10
-202.000000
 20
518.857140
 30
0.0
 10
-218.857144
 20
511.428572
 30
0.0
 10
-224.571432
 20
506.285716
 30
0.0
 10
-227.714288
 20
500.285716
 30
0.0
 10
-224.285712
 20
487.142860
 30
0.0
 10
-219.428568
 20
471.428572
 30
0.0
 10
-210.857144
 20
458.571428
 30
0.0
 10
-262.000000
 20
460.857140
 30
0.0
 10
-283.142856
 20
454.857140
 30
0.0
 10
-290.285712
 20
450.000004
 30
0.0
 10
-308.857144
 20
434.000004
 30
0.0
 10
-331.428568
 20
435.428572
 30
0.0
 10
-362.857144
 20
501.428572
 30
0.0
  0
LWPOLYLINE
  5
101
100
AcDbEntity
  8
Layer_1
 62
7
100
AcDbPolyline
 90
15
 70
1
 10
-331.428568
 20
434.571428
 30
0.0
 10
-317.428568
 20
394.000004
 30
0.0
 10
-290.571432
 20
378.285716
 30
0.0
 10
-282.285712
 20
375.714284
 30
0.0
 10
-273.428568
 20
369.714284
 30
0.0
 10
-234.857144
 20
379.714284
 30
0.0
 10
-211.714288
 20
382.857140
 30
0.0
 10
-188.857144
 20
380.857140
 30
0.0
 10
-188.571432
 20
411.142860
 30
0.0
 10
-243.714288
 20
459.714284
 30
0.0
 10
-262.285712
 20
460.285716
 30
0.0
 10
-285.142856
 20
454.000004
 30
0.0
 10
-308.857144
 20
433.428572
 30
0.0
 10
-332.000000
 20
435.714284
 30
0.0
 10
-331.428568
 20
434.571428
 30
0.0
  0
LWPOLYLINE
  5
102
100
AcDbEntity
  8
Layer_1
 62
7
100
AcDbPolyline
 90
26
 70
1
 10
-272.571432
 20
369.428572
 30
0.0
 10
-245.142856
 20
314.000004
 30
0.0
 10
-205.714288
 20
302.571428
 30
0.0
 10
-188.857144
 20
292.571428
 30
0.0
 10
-156.571432
 20
293.714284
 30
0.0
 10
-140.285712
 20
296.285716
 30
0.0
 10
-118.000000
 20
284.571428
 30
0.0
 10
-99.142856
 20
279.142860
 30
0.0
 10
-73.428571
 20
280.571428
 30
0.0
 10
-65.428571
 20
303.714284
 30
0.0
 10
-65.428571
 20
321.142860
 30
0.0
 10
-65.428571
 20
336.285716
 30
0.0
 10
-66.000000
 20
347.714284
 30
0.0
 10
-62.857143
 20
355.714284
 30
0.0
 10
-66.285714
 20
373.142860
 30
0.0
 10
-61.142858
 20
382.285716
 30
0.0
 10
-73.428571
 20
398.000004
 30
0.0
 10
-83.714288
 20
394.000004
 30
0.0
 10
-93.714288
 20
394.000004
 30
0.0
 10
-102.000000
 20
402.000004
 30
0.0
 10
-126.571432
 20
392.571428
 30
0.0
 10
-163.714288
 20
381.714284
 30
0.0
 10
-189.714288
 20
380.857140
 30
0.0
 10
-211.714288
 20
383.428572
 30
0.0
 10
-234.285712
 20
380.000004
 30
0.0
 10
-272.571432
 20
369.428572
 30
0.0
  0
LWPOLYLINE
  5
103
100
AcDbEntity
  8
Layer_1
 62
7
100
AcDbPolyline
 90
24
 70
1
 10
-188.571432
 20
380.285716
 30
0.0
 10
-188.285712
 20
410.571428
 30
0.0
 10
-244.000000
 20
460.000004
 30
0.0
 10
-194.571432
 20
458.857140
 30
0.0
 10
-174.857144
 20
469.714284
 30
0.0
 10
-164.285712
 20
479.142860
 30
0.0
 10
-168.000000
 20
501.714284
 30
0.0
 10
-168.571432
 20
509.428572
 30
0.0
 10
-152.285712
 20
526.571428
 30
0.0
 10
-137.142856
 20
520.000004
 30
0.0
 10
-112.285712
 20
518.857140
 30
0.0
 10
-104.285712
 20
521.714284
 30
0.0
 10
-94.571432
 20
504.285716
 30
0.0
 10
-100.000000
 20
495.142860
 30
0.0
 10
-106.857144
 20
488.571428
 30
0.0
 10
-105.142856
 20
476.571428
 30
0.0
 10
-96.285712
 20
471.428572
 30
0.0
 10
-96.000000
 20
457.428572
 30
0.0
 10
-96.571432
 20
438.571428
 30
0.0
 10
-90.571432
 20
421.714284
 30
0.0
 10
-98.285712
 20
413.428572
 30
0.0
 10
-101.714288
 20
401.142860
 30
0.0
 10
-163.714288
 20
381.428572
 30
0.0
 10
-188.571432
 20
380.285716
 30
0.0
  0
LWPOLYLINE
  5
104
100
AcDbEntity
  8
Layer_1
 62
7
100
AcDbPolyline
 90
14
 70
1
 10
-159.714288
 20
533.428572
 30
0.0
 10
-152.285712
 20
525.714284
 30
0.0
 10
-168.857144
 20
508.285716
 30
0.0
 10
-163.714288
 20
478.571428
 30
0.0
 10
-177.142856
 20
467.714284
 30
0.0
 10
-194.571432
 20
458.571428
 30
0.0
 10
-211.714288
 20
458.857140
 30
0.0
 10
-219.142856
 20
471.142860
 30
0.0
 10
-227.714288
 20
500.000004
 30
0.0
 10
-222.571432
 20
508.857140
 30
0.0
 10
-200.857144
 20
519.714284
 30
0.0
 10
-196.857144
 20
527.142860
 30
0.0
 10
-179.428568
 20
522.000004
 30
0.0
 10
-159.714288
 20
533.428572
 30
0.0
  0
LWPOLYLINE
  5
105
100
AcDbEntity
  8
Layer_1
 62
7
100
AcDbPolyline
 90
12
 70
1
 10
-161.142856
 20
576.571428
 30
0.0
 10
-145.428568
 20
584.000004
 30
0.0
 10
-76.571429
 20
577.142860
 30
0.0
 10
-76.000000
 20
537.714284
 30
0.0
 10
-97.142856
 20
535.428572
 30
0.0
 10
-104.000000
 20
522.285716
 30
0.0
 10
-111.428568
 20
518.857140
 30
0.0
 10
-136.571432
 20
519.714284
 30
0.0
 10
-152.571432
 20
526.000004
 30
0.0
 10
-160.000000
 20
534.000004
 30
0.0
 10
-166.000000
 20
548.000004
 30
0.0
 10
-161.142856
 20
576.571428
 30
0.0
  0
LWPOLYLINE
  5
106
100
AcDbEntity
  8
Layer_1
 62
7
100
AcDbPolyline
 90
11
 70
1
 10
-76.000000
 20
576.857140
 30
0.0
 10
-57.714286
 20
570.857140
 30
0.0
 10
14.857143
 20
564.000004
 30
0.0
 10
16.857143
 20
542.857140
 30
0.0
 10
29.428571
 20
519.428572
 30
0.0
 10
31.142857
 20
511.428572
 30
0.0
 10
14.285714
 20
490.857140
 30
0.0
 10
5.714286
 20
490.857140
 30
0.0
 10
-27.428571
 20
512.571428
 30
0.0
 10
-76.000000
 20
538.000004
 30
0.0
 10
-76.000000
 20
576.857140
 30
0.0
  0
LWPOLYLINE
  5
107
100
AcDbEntity
  8
Layer_1
 62
7
100
AcDbPolyline
 90
22
 70
1
 10
15.142857
 20
563.142860
 30
0.0
 10
50.285714
 20
563.142860
 30
0.0
 10
50.857143
 20
552.285716
 30
0.0
 10
56.571429
 20
544.857140
 30
0.0
 10
77.428571
 20
545.142860
 30
0.0
 10
85.142856
 20
540.285716
 30
0.0
 10
87.714288
 20
527.428572
 30
0.0
 10
99.714288
 20
507.142860
 30
0.0
 10
103.142856
 20
490.571428
 30
0.0
 10
93.428568
 20
478.571428
 30
0.0
 10
82.285712
 20
473.428572
 30
0.0
 10
79.714286
 20
480.571428
 30
0.0
 10
74.571429
 20
482.857140
 30
0.0
 10
43.714286
 20
483.714284
 30
0.0
 10
41.428571
 20
490.285716
 30
0.0
 10
50.000000
 20
492.857140
 30
0.0
 10
50.571429
 20
498.571428
 30
0.0
 10
35.714286
 20
504.571428
 30
0.0
 10
31.142857
 20
510.857140
 30
0.0
 10
29.714286
 20
519.142860
 30
0.0
 10
17.428571
 20
542.000004
 30
0.0
 10
15.142857
 20
563.142860
 30
0.0
  0
LWPOLYLINE
  5
108
100
AcDbEntity
  8
Layer_1
 62
7
100
AcDbPolyline
 90
7
 70
1
 10
50.857143
 20
563.428572
 30
0.0
 10
81.142856
 20
566.857140
 30
0.0
 10
85.428568
 20
540.571428
 30
0.0
 10
77.142858
 20
545.714284
 30
0.0
 10
56.857143
 20
545.142860
 30
0.0
 10
50.857143
 20
552.000004
 30
0.0
 10
50.857143
 20
563.428572
 30
0.0
  0
LWPOLYLINE
  5
109
100
AcDbEntity
  8
Layer_1
 62
7
100
AcDbPolyline
 90
17
 70
1
 10
81.714288
 20
566.857140
 30
0.0
 10
115.428568
 20
563.714284
 30
0.0
 10
145.714288
 20
556.571428
 30
0.0
 10
148.857144
 20
526.000004
 30
0.0
 10
147.428568
 20
517.142860
 30
0.0
 10
156.285712
 20
500.571428
 30
0.0
 10
161.428568
 20
480.571428
 30
0.0
 10
162.000000
 20
462.857140
 30
0.0
 10
124.857144
 20
464.285716
 30
0.0
 10
102.571432
 20
452.857140
 30
0.0
 10
84.571432
 20
465.714284
 30
0.0
 10
82.571432
 20
473.142860
 30
0.0
 10
93.428568
 20
478.571428
 30
0.0
 10
103.142856
 20
490.571428
 30
0.0
 10
100.285712
 20
507.428572
 30
0.0
 10
88.285712
 20
527.142860
 30
0.0
 10
81.714288
 20
566.857140
 30
0.0
  0
LWPOLYLINE
  5
10a
100
AcDbEntity
  8
Layer_1
 62
7
100
AcDbPolyline
 90
16
 70
1
 10
162.000000
 20
463.428572
 30
0.0
 10
230.285712
 20
456.000004
 30
0.0
 10
256.571432
 20
445.142860
 30
0.0
 10
262.571432
 20
440.857140
 30
0.0
 10
271.142856
 20
424.285716
 30
0.0
 10
274.571432
 20
413.714284
 30
0.0
 10
267.714288
 20
401.428572
 30
0.0
 10
244.285712
 20
383.428572
 30
0.0
 10
230.857144
 20
371.142860
 30
0.0
 10
223.714288
 20
375.142860
 30
0.0
 10
208.285712
 20
375.428572
 30
0.0
 10
184.571432
 20
409.428572
 30
0.0
 10
181.714288
 20
420.857140
 30
0.0
 10
167.142856
 20
437.714284
 30
0.0
 10
160.571432
 20
451.142860
 30
0.0
 10
162.000000
 20
463.428572
 30
0.0
  0
LWPOLYLINE
  5
10b
100
AcDbEntity
  8
Layer_1
 62
7
100
AcDbPolyline
 90
39
 70
1
 10
231.142856
 20
370.571428
 30
0.0
 10
225.714288
 20
364.000004
 30
0.0
 10
232.000000
 20
268.857140
 30
0.0
 10
218.571432
 20
267.428572
 30
0.0
 10
208.000000
 20
260.571428
 30
0.0
 10
172.000000
 20
205.142860
 30
0.0
 10
156.000000
 20
213.142860
 30
0.0
 10
149.714288
 20
199.714284
 30
0.0
 10
139.428568
 20
215.428572
 30
0.0
 10
131.428568
 20
220.000004
 30
0.0
 10
132.000000
 20
236.857140
 30
0.0
 10
137.714288
 20
249.714284
 30
0.0
 10
136.000000
 20
259.142860
 30
0.0
 10
131.428568
 20
268.571428
 30
0.0
 10
110.571432
 20
268.857140
 30
0.0
 10
94.285712
 20
273.428572
 30
0.0
 10
82.571432
 20
289.142860
 30
0.0
 10
65.142858
 20
303.428572
 30
0.0
 10
57.714286
 20
317.428572
 30
0.0
 10
69.714286
 20
328.000004
 30
0.0
 10
67.428571
 20
339.142860
 30
0.0
 10
56.285714
 20
349.142860
 30
0.0
 10
51.428571
 20
357.428572
 30
0.0
 10
50.285714
 20
366.285716
 30
0.0
 10
50.285714
 20
379.714284
 30
0.0
 10
79.714286
 20
403.142860
 30
0.0
 10
94.857144
 20
422.571428
 30
0.0
 10
98.000000
 20
433.714284
 30
0.0
 10
97.428568
 20
442.000004
 30
0.0
 10
102.285712
 20
452.857140
 30
0.0
 10
124.857144
 20
465.142860
 30
0.0
 10
161.714288
 20
463.428572
 30
0.0
 10
160.571432
 20
452.000004
 30
0.0
 10
168.285712
 20
435.714284
 30
0.0
 10
181.714288
 20
421.428572
 30
0.0
 10
184.571432
 20
410.000004
 30
0.0
 10
209.142856
 20
374.857140
 30
0.0
 10
224.285712
 20
374.857140
 30
0.0
 10
231.142856
 20
370.571428
 30
0.0
  0
LWPOLYLINE
  5
10c
100
AcDbEntity
  8
Layer_1
 62
7
100
AcDbPolyline
 90
26
 70
1
 10
172.000000
 20
205.428572
 30
0.0
 10
167.142856
 20
198.857140
 30
0.0
 10
143.142856
 20
150.000004
 30
0.0
 10
146.285712
 20
134.857140
 30
0.0
 10
167.428568
 20
122.285716
 30
0.0
 10
164.857144
 20
98.285716
 30
0.0
 10
159.142856
 20
92.000004
 30
0.0
 10
106.000000
 20
72.571428
 30
0.0
 10
93.142856
 20
70.285716
 30
0.0
 10
72.857143
 20
70.571428
 30
0.0
 10
54.285714
 20
73.714284
 30
0.0
 10
10.000000
 20
98.857140
 30
0.0
 10
2.571429
 20
109.714284
 30
0.0
 10
3.714286
 20
127.714284
 30
0.0
 10
19.428571
 20
149.714284
 30
0.0
 10
40.857143
 20
152.285716
 30
0.0
 10
60.857143
 20
182.571428
 30
0.0
 10
71.428571
 20
188.857140
 30
0.0
 10
86.285712
 20
184.857140
 30
0.0
 10
110.857144
 20
192.000004
 30
0.0
 10
132.285712
 20
194.571428
 30
0.0
 10
131.714288
 20
219.142860
 30
0.0
 10
138.857144
 20
215.714284
 30
0.0
 10
150.285712
 20
199.428572
 30
0.0
 10
155.714288
 20
213.142860
 30
0.0
 10
172.000000
 20
205.428572
 30
0.0
  0
LWPOLYLINE
  5
10d
100
AcDbEntity
  8
Layer_1
 62
7
100
AcDbPolyline
 90
47
 70
1
 10
20.000000
 20
150.285716
 30
0.0
 10
26.285714
 20
158.285716
 30
0.0
 10
24.857143
 20
168.857140
 30
0.0
 10
17.714286
 20
177.714284
 30
0.0
 10
-6.571429
 20
166.571428
 30
0.0
 10
-5.428571
 20
182.285716
 30
0.0
 10
-15.428571
 20
206.857140
 30
0.0
 10
-38.571429
 20
243.428572
 30
0.0
 10
-43.714286
 20
264.571428
 30
0.0
 10
-51.428571
 20
278.571428
 30
0.0
 10
-70.857143
 20
288.285716
 30
0.0
 10
-65.428571
 20
305.142860
 30
0.0
 10
-66.000000
 20
348.000004
 30
0.0
 10
-62.857143
 20
356.000004
 30
0.0
 10
-66.571429
 20
372.857140
 30
0.0
 10
-61.428571
 20
382.857140
 30
0.0
 10
-47.714286
 20
376.571428
 30
0.0
 10
-40.571429
 20
380.857140
 30
0.0
 10
-31.142857
 20
380.000004
 30
0.0
 10
-21.428571
 20
371.428572
 30
0.0
 10
-8.571429
 20
370.000004
 30
0.0
 10
-2.285714
 20
371.428572
 30
0.0
 10
16.571429
 20
364.571428
 30
0.0
 10
30.857143
 20
366.857140
 30
0.0
 10
42.857143
 20
376.000004
 30
0.0
 10
51.142858
 20
380.000004
 30
0.0
 10
50.571429
 20
362.857140
 30
0.0
 10
52.857143
 20
354.857140
 30
0.0
 10
60.000000
 20
345.714284
 30
0.0
 10
68.000000
 20
339.428572
 30
0.0
 10
70.000000
 20
327.714284
 30
0.0
 10
57.714286
 20
317.142860
 30
0.0
 10
65.428571
 20
304.000004
 30
0.0
 10
81.714288
 20
290.285716
 30
0.0
 10
94.857144
 20
273.714284
 30
0.0
 10
112.285712
 20
268.571428
 30
0.0
 10
132.000000
 20
268.857140
 30
0.0
 10
135.428568
 20
259.428572
 30
0.0
 10
138.000000
 20
249.142860
 30
0.0
 10
132.571432
 20
237.714284
 30
0.0
 10
132.285712
 20
194.285716
 30
0.0
 10
111.428568
 20
192.000004
 30
0.0
 10
86.285712
 20
184.571428
 30
0.0
 10
71.428571
 20
189.428572
 30
0.0
 10
62.285714
 20
183.428572
 30
0.0
 10
41.428571
 20
152.000004
 30
0.0
 10
20.000000
 20
150.285716
 30
0.0
  0
LWPOLYLINE
  5
10e
100
AcDbEntity
  8
Layer_1
 62
7
100
AcDbPolyline
 90
17
 70
1
 10
-6.571429
 20
166.285716
 30
0.0
 10
-32.857143
 20
152.857140
 30
0.0
 10
-55.714286
 20
177.428572
 30
0.0
 10
-82.000000
 20
192.000004
 30
0.0
 10
-83.428568
 20
200.285716
 30
0.0
 10
-70.285714
 20
211.142860
 30
0.0
 10
-74.571429
 20
231.428572
 30
0.0
 10
-75.714286
 20
245.428572
 30
0.0
 10
-74.285714
 20
264.571428
 30
0.0
 10
-73.142858
 20
280.571428
 30
0.0
 10
-70.285714
 20
288.000004
 30
0.0
 10
-52.571429
 20
279.428572
 30
0.0
 10
-43.428571
 20
265.428572
 30
0.0
 10
-38.571429
 20
244.571428
 30
0.0
 10
-16.000000
 20
208.000004
 30
0.0
 10
-5.428571
 20
182.571428
 30
0.0
 10
-6.571429
 20
166.285716
 30
0.0
  0
LWPOLYLINE
  5
10f
100
AcDbEntity
  8
Layer_1
 62
7
100
AcDbPolyline
 90
25
 70
1
 10
-33.142857
 20
152.857140
 30
0.0
 10
-123.142856
 20
112.571428
 30
0.0
 10
-136.571432
 20
117.142860
 30
0.0
 10
-160.571432
 20
144.000004
 30
0.0
 10
-205.142856
 20
170.857140
 30
0.0
 10
-234.857144
 20
174.000004
 30
0.0
 10
-263.428568
 20
206.571428
 30
0.0
 10
-284.000000
 20
218.571428
 30
0.0
 10
-286.571432
 20
241.142860
 30
0.0
 10
-286.000000
 20
261.428572
 30
0.0
 10
-275.714288
 20
278.285716
 30
0.0
 10
-254.285712
 20
298.285716
 30
0.0
 10
-246.000000
 20
314.571428
 30
0.0
 10
-204.857144
 20
302.571428
 30
0.0
 10
-188.000000
 20
292.571428
 30
0.0
 10
-140.000000
 20
296.571428
 30
0.0
 10
-116.857144
 20
285.142860
 30
0.0
 10
-98.857144
 20
279.142860
 30
0.0
 10
-72.857143
 20
280.571428
 30
0.0
 10
-75.428571
 20
242.000004
 30
0.0
 10
-70.000000
 20
211.428572
 30
0.0
 10
-83.142856
 20
200.571428
 30
0.0
 10
-81.714288
 20
192.285716
 30
0.0
 10
-57.142858
 20
178.571428
 30
0.0
 10
-33.142857
 20
152.857140
 30
0.0
  0
LWPOLYLINE
  5
110
100
AcDbEntity
  8
Layer_1
 62
7
100
AcDbPolyline
 90
14
 70
1
 10
-96.166520
 20
471.135148
 30
0.0
 10
-84.852816
 20
470.327028
 30
0.0
 10
-77.983777
 20
463.457988
 30
0.0
 10
-53.740115
 20
451.740220
 30
0.0
 10
-42.830468
 20
438.002148
 30
0.0
 10
-56.164482
 20
421.435644
 30
0.0
 10
-58.992909
 20
406.081324
 30
0.0
 10
-82.428448
 20
394.767612
 30
0.0
 10
-93.742160
 20
393.959492
 30
0.0
 10
-101.015256
 20
401.232588
 30
0.0
 10
-97.782768
 20
412.950364
 30
0.0
 10
-89.701544
 20
422.243764
 30
0.0
 10
-96.570584
 20
438.810268
 30
0.0
 10
-96.166520
 20
471.135148
 30
0.0
  0
LWPOLYLINE
  5
111
100
AcDbEntity
  8
Layer_1
 62
7
100
AcDbPolyline
 90
32
 70
1
 10
-106.268048
 20
488.509772
 30
0.0
 10
-104.651800
 20
476.792004
 30
0.0
 10
-94.550280
 20
469.922964
 30
0.0
 10
-84.852816
 20
469.922964
 30
0.0
 10
-78.387838
 20
463.862052
 30
0.0
 10
-52.931994
 20
451.740220
 30
0.0
 10
-43.234529
 20
438.810268
 30
0.0
 10
-30.304576
 20
442.042756
 30
0.0
 10
-11.717770
 20
439.214324
 30
0.0
 10
-5.252793
 20
447.699612
 30
0.0
 10
7.273098
 20
453.356460
 30
0.0
 10
12.121830
 20
459.013316
 30
0.0
 10
9.697465
 20
472.751388
 30
0.0
 10
9.697465
 20
478.812308
 30
0.0
 10
14.950258
 20
480.428548
 30
0.0
 10
26.668027
 20
475.983876
 30
0.0
 10
34.749247
 20
477.196060
 30
0.0
 10
43.234529
 20
483.661036
 30
0.0
 10
41.214224
 20
489.721956
 30
0.0
 10
49.699506
 20
492.550380
 30
0.0
 10
50.507627
 20
498.207236
 30
0.0
 10
34.749247
 20
505.076276
 30
0.0
 10
29.900515
 20
511.137188
 30
0.0
 10
14.546197
 20
490.126012
 30
0.0
 10
6.464976
 20
490.934140
 30
0.0
 10
-28.284271
 20
512.349372
 30
0.0
 10
-77.579715
 20
537.805212
 30
0.0
 10
-97.378704
 20
535.784908
 30
0.0
 10
-105.055864
 20
520.834652
 30
0.0
 10
-94.954336
 20
503.864092
 30
0.0
 10
-99.803072
 20
494.974748
 30
0.0
 10
-106.268048
 20
488.509772
 30
0.0
  0
LWPOLYLINE
  5
112
100
AcDbEntity
  8
Layer_1
 62
7
100
AcDbPolyline
 90
27
 70
1
 10
102.227440
 20
452.952404
 30
0.0
 10
97.378704
 20
441.234636
 30
0.0
 10
98.590888
 20
432.749348
 30
0.0
 10
94.146216
 20
421.031580
 30
0.0
 10
82.428448
 20
406.081324
 30
0.0
 10
51.719810
 20
380.221420
 30
0.0
 10
41.214224
 20
374.968628
 30
0.0
 10
32.324882
 20
367.291468
 30
0.0
 10
16.970562
 20
364.058980
 30
0.0
 10
-2.828427
 20
371.332076
 30
0.0
 10
-4.444671
 20
387.090452
 30
0.0
 10
-7.273098
 20
393.959492
 30
0.0
 10
-4.444671
 20
400.828532
 30
0.0
 10
-2.828427
 20
414.970668
 30
0.0
 10
-12.525891
 20
439.618388
 30
0.0
 10
-5.656854
 20
447.295548
 30
0.0
 10
7.273098
 20
452.952404
 30
0.0
 10
12.121830
 20
458.205196
 30
0.0
 10
9.697465
 20
478.004188
 30
0.0
 10
16.566502
 20
480.428548
 30
0.0
 10
28.688332
 20
475.579820
 30
0.0
 10
37.981736
 20
478.812308
 30
0.0
 10
44.042651
 20
484.065100
 30
0.0
 10
75.963471
 20
482.852916
 30
0.0
 10
81.620328
 20
479.620428
 30
0.0
 10
85.256872
 20
465.882356
 30
0.0
 10
102.227440
 20
452.952404
 30
0.0
  0
LWPOLYLINE
  5
113
100
AcDbEntity
  8
Layer_1
 62
7
100
AcDbPolyline
 90
18
 70
1
 10
-2.424366
 20
371.736140
 30
0.0
 10
-4.848732
 20
387.494516
 30
0.0
 10
-7.677159
 20
394.363556
 30
0.0
 10
-5.656854
 20
398.404164
 30
0.0
 10
-2.828427
 20
416.182852
 30
0.0
 10
-13.334014
 20
439.214324
 30
0.0
 10
-30.304576
 20
442.850876
 30
0.0
 10
-44.446712
 20
438.002148
 30
0.0
 10
-56.164482
 20
422.647828
 30
0.0
 10
-58.992909
 20
405.273204
 30
0.0
 10
-74.751288
 20
398.000100
 30
0.0
 10
-61.417274
 20
382.645788
 30
0.0
 10
-48.487322
 20
376.584868
 30
0.0
 10
-41.618285
 20
380.221420
 30
0.0
 10
-30.708638
 20
379.817356
 30
0.0
 10
-21.415234
 20
371.736140
 30
0.0
 10
-8.485282
 20
369.715836
 30
0.0
 10
-2.424366
 20
371.736140
 30
0.0
  0
ENDSEC
  0
SECTION
  2
OBJECTS
  0
DICTIONARY
  5
C
330
0
100
AcDbDictionary
  3
ACAD_GROUP
350
D
  3
ACAD_MLINESTYLE
350
17
  0
DICTIONARY
  5
D
330
C
100
AcDbDictionary
  0
DICTIONARY
  5
1A
330
C
100
AcDbDictionary
  0
DICTIONARY
  5
17
330
C
100
AcDbDictionary
  3
STANDARD
350
18
  0
DICTIONARY
  5
19
330
C
100
AcDbDictionary
  0
ENDSEC
  0
EOF
