  0
SECTION
  2
HEADER
  9
$ACADVER
  1
AC1014
  9
$HANDSEED
  5
FFFF
  9
$MEASUREMENT
 70
     1
  0
ENDSEC
  0
SECTION
  2
TABLES
  0
TABLE
  2
VPORT
  5
8
330
0
100
AcDbSymbolTable
 70
     4
  0
VPORT
  5
2E
330
8
100
AcDbSymbolTableRecord
100
AcDbViewportTableRecord
  2
*ACTIVE
 70
     0
 10
0.0
 20
0.0
 11
1.0
 21
1.0
 12
210.0
 22
148.5
 13
0.0
 23
0.0
 14
10.0
 24
10.0
 15
10.0
 25
10.0
 16
0.0
 26
0.0
 36
1.0
 17
0.0
 27
0.0
 37
0.0
 40
341.0
 41
1.24
 42
50.0
 43
0.0
 44
0.0
 50
0.0
 51
0.0
 71
     0
 72
   100
 73
     1
 74
     3
 75
     0
 76
     0
 77
     0
 78
     0
  0
ENDTAB
  0
TABLE
  2
LTYPE
  5
5
330
0
100
AcDbSymbolTable
 70
     1
  0
LTYPE
  5
14
330
5
100
AcDbSymbolTableRecord
100
AcDbLinetypeTableRecord
  2
BYBLOCK
 70
     0
  3

 72
    65
 73
     0
 40
0.0
  0
LTYPE
  5
15
330
5
100
AcDbSymbolTableRecord
100
AcDbLinetypeTableRecord
  2
BYLAYER
 70
     0
  3

 72
    65
 73
     0
 40
0.0
  0
LTYPE
  5
16
330
5
100
AcDbSymbolTableRecord
100
AcDbLinetypeTableRecord
  2
CONTINUOUS
 70
     0
  3
Solid line
 72
    65
 73
     0
 40
0.0
  0
ENDTAB
  0
TABLE
  2
LAYER
  5
2
100
AcDbSymbolTable
 70
2
  0
LAYER
  5
50
100
AcDbSymbolTableRecord
100
AcDbLayerTableRecord
  2
0
 70
0
  6
CONTINUOUS
  0
LAYER
  5
51
100
AcDbSymbolTableRecord
100
AcDbLayerTableRecord
  2
Layer_1
 70
0
  6
CONTINUOUS
  0
ENDTAB
  0
TABLE
  2
STYLE
  5
3
330
0
100
AcDbSymbolTable
 70
     1
  0
STYLE
  5
11
330
3
100
AcDbSymbolTableRecord
100
AcDbTextStyleTableRecord
  2
STANDARD
 70
     0
 40
0.0
 41
1.0
 50
0.0
 71
     0
 42
2.5
  3
txt
  4

  0
ENDTAB
  0
TABLE
  2
VIEW
  5
6
330
0
100
AcDbSymbolTable
 70
     0
  0
ENDTAB
  0
TABLE
  2
UCS
  5
7
330
0
100
AcDbSymbolTable
 70
     0
  0
ENDTAB
  0
TABLE
  2
APPID
  5
9
330
0
100
AcDbSymbolTable
 70
     2
  0
APPID
  5
12
330
9
100
AcDbSymbolTableRecord
100
AcDbRegAppTableRecord
  2
ACAD
 70
     0
  0
ENDTAB
  0
TABLE
  2
DIMSTYLE
  5
A
330
0
100
AcDbSymbolTable
 70
     1
  0
DIMSTYLE
105
27
330
A
100
AcDbSymbolTableRecord
100
AcDbDimStyleTableRecord
  2
ISO-25
 70
     0
  3

  4

  5

  6

  7

 40
1.0
 41
2.5
 42
0.625
 43
3.75
 44
1.25
 45
0.0
 46
0.0
 47
0.0
 48
0.0
140
2.5
141
2.5
142
0.0
143
0.03937007874016
144
1.0
145
0.0
146
1.0
147
0.625
 71
     0
 72
     0
 73
     0
 74
     0
 75
     0
 76
     0
 77
     1
 78
     8
170
     0
171
     3
172
     1
173
     0
174
     0
175
     0
176
     0
177
     0
178
     0
270
     2
271
     2
272
     2
273
     2
274
     3
340
11
275
     0
280
     0
281
     0
282
     0
283
     0
284
     8
285
     0
286
     0
287
     3
288
     0
  0
ENDTAB
  0
TABLE
  2
BLOCK_RECORD
  5
1
330
0
100
AcDbSymbolTable
 70
     1
  0
BLOCK_RECORD
  5
1F
330
1
100
AcDbSymbolTableRecord
100
AcDbBlockTableRecord
  2
*MODEL_SPACE
  0
BLOCK_RECORD
  5
1B
330
1
100
AcDbSymbolTableRecord
100
AcDbBlockTableRecord
  2
*PAPER_SPACE
  0
ENDTAB
  0
ENDSEC
  0
SECTION
  2
BLOCKS
  0
BLOCK
  5
20
330
1F
100
AcDbEntity
  8
0
100
AcDbBlockBegin
  2
*MODEL_SPACE
 70
     0
 10
0.0
 20
0.0
 30
0.0
  3
*MODEL_SPACE
  1

  0
ENDBLK
  5
21
330
1F
100
AcDbEntity
  8
0
100
AcDbBlockEnd
  0
BLOCK
  5
1C
330
1B
100
AcDbEntity
 67
     1
  8
0
100
AcDbBlockBegin
  2
*PAPER_SPACE
  1

  0
ENDBLK
  5
1D
330
1B
100
AcDbEntity
 67
     1
  8
0
100
AcDbBlockEnd
  0
ENDSEC
  0
SECTION
  2
ENTITIES
  0
LWPOLYLINE
  5
100
100
AcDbEntity
  8
Layer_1
 62
7
100
AcDbPolyline
 90
13
 70
1
 10
-241.142856
 20
158.857140
 30
0.0
 10
-248.285712
 20
159.142860
 30
0.0
 10
-260.000000
 20
153.142860
 30
0.0
 10
-264.285712
 20
141.142860
 30
0.0
 10
-282.857144
 20
123.428572
 30
0.0
 10
-314.285712
 20
119.142860
 30
0.0
 10
-336.285712
 20
129.142860
 30
0.0
 10
-324.857144
 20
164.857140
 30
0.0
 10
-324.857144
 20
218.000004
 30
0.0
 10
-279.714288
 20
216.000004
 30
0.0
 10
-240.000000
 20
199.142860
 30
0.0
 10
-228.000000
 20
200.285716
 30
0.0
 10
-241.142856
 20
158.857140
 30
0.0
  0
LWPOLYLINE
  5
101
100
AcDbEntity
  8
Layer_1
 62
7
100
AcDbPolyline
 90
29
 70
1
 10
-228.571432
 20
200.571428
 30
0.0
 10
-241.428568
 20
198.857140
 30
0.0
 10
-281.142856
 20
216.285716
 30
0.0
 10
-324.857144
 20
218.285716
 30
0.0
 10
-328.571432
 20
253.714284
 30
0.0
 10
-336.000000
 20
262.000004
 30
0.0
 10
-326.857144
 20
302.857140
 30
0.0
 10
-287.142856
 20
317.142860
 30
0.0
 10
-278.000000
 20
327.428572
 30
0.0
 10
-269.142856
 20
358.857140
 30
0.0
 10
-268.000000
 20
366.285716
 30
0.0
 10
-260.571432
 20
374.857140
 30
0.0
 10
-232.571432
 20
376.000004
 30
0.0
 10
-224.000000
 20
382.285716
 30
0.0
 10
-199.428568
 20
383.428572
 30
0.0
 10
-197.428568
 20
374.285716
 30
0.0
 10
-210.571432
 20
364.000004
 30
0.0
 10
-215.142856
 20
357.714284
 30
0.0
 10
-206.000000
 20
353.428572
 30
0.0
 10
-189.714288
 20
354.571428
 30
0.0
 10
-186.285712
 20
336.285716
 30
0.0
 10
-165.714288
 20
306.000004
 30
0.0
 10
-146.571432
 20
272.285716
 30
0.0
 10
-138.000000
 20
261.714284
 30
0.0
 10
-140.000000
 20
252.000004
 30
0.0
 10
-159.428568
 20
223.714284
 30
0.0
 10
-200.571432
 20
244.000004
 30
0.0
 10
-212.857144
 20
239.142860
 30
0.0
 10
-228.571432
 20
200.571428
 30
0.0
  0
LWPOLYLINE
  5
102
100
AcDbEntity
  8
Layer_1
 62
7
100
AcDbPolyline
 90
14
 70
1
 10
-326.857144
 20
302.857140
 30
0.0
 10
-287.142856
 20
317.142860
 30
0.0
 10
-276.857144
 20
327.714284
 30
0.0
 10
-268.000000
 20
367.142860
 30
0.0
 10
-248.571432
 20
388.000004
 30
0.0
 10
-243.714288
 20
392.000004
 30
0.0
 10
-240.857144
 20
403.714284
 30
0.0
 10
-245.428568
 20
420.285716
 30
0.0
 10
-272.571432
 20
415.142860
 30
0.0
 10
-307.428568
 20
412.285716
 30
0.0
 10
-308.571432
 20
364.000004
 30
0.0
 10
-313.428568
 20
335.428572
 30
0.0
 10
-322.571432
 20
320.285716
 30
0.0
 10
-326.857144
 20
302.857140
 30
0.0
  0
LWPOLYLINE
  5
103
100
AcDbEntity
  8
Layer_1
 62
7
100
AcDbPolyline
 90
29
 70
1
 10
-245.428568
 20
419.714284
 30
0.0
 10
-240.571432
 20
402.857140
 30
0.0
 10
-244.000000
 20
392.571428
 30
0.0
 10
-247.142856
 20
388.000004
 30
0.0
 10
-260.000000
 20
374.571428
 30
0.0
 10
-231.428568
 20
376.000004
 30
0.0
 10
-223.142856
 20
382.285716
 30
0.0
 10
-199.714288
 20
383.428572
 30
0.0
 10
-196.857144
 20
373.714284
 30
0.0
 10
-211.428568
 20
363.714284
 30
0.0
 10
-214.571432
 20
357.714284
 30
0.0
 10
-206.000000
 20
353.142860
 30
0.0
 10
-190.000000
 20
354.857140
 30
0.0
 10
-176.285712
 20
365.714284
 30
0.0
 10
-167.714288
 20
367.428572
 30
0.0
 10
-152.571432
 20
358.285716
 30
0.0
 10
-143.428568
 20
361.714284
 30
0.0
 10
-141.428568
 20
367.714284
 30
0.0
 10
-146.571432
 20
379.714284
 30
0.0
 10
-144.571432
 20
388.571428
 30
0.0
 10
-128.571432
 20
422.857140
 30
0.0
 10
-125.428568
 20
434.857140
 30
0.0
 10
-118.857144
 20
445.142860
 30
0.0
 10
-114.857144
 20
461.428572
 30
0.0
 10
-176.857144
 20
465.428572
 30
0.0
 10
-192.285712
 20
464.000004
 30
0.0
 10
-202.571432
 20
456.000004
 30
0.0
 10
-208.571432
 20
444.857140
 30
0.0
 10
-245.428568
 20
419.714284
 30
0.0
  0
LWPOLYLINE
  5
104
100
AcDbEntity
  8
Layer_1
 62
7
100
AcDbPolyline
 90
21
 70
1
 10
-142.000000
 20
367.428572
 30
0.0
 10
-133.142856
 20
367.428572
 30
0.0
 10
-126.000000
 20
363.142860
 30
0.0
 10
-111.714288
 20
363.714284
 30
0.0
 10
-100.571432
 20
369.714284
 30
0.0
 10
-95.428568
 20
367.142860
 30
0.0
 10
-97.714288
 20
358.000004
 30
0.0
 10
-97.714288
 20
352.571428
 30
0.0
 10
-87.142856
 20
353.428572
 30
0.0
 10
-81.428568
 20
386.285716
 30
0.0
 10
-78.000000
 20
416.571428
 30
0.0
 10
-68.285714
 20
444.000004
 30
0.0
 10
-61.142858
 20
455.142860
 30
0.0
 10
-61.714286
 20
466.000004
 30
0.0
 10
-80.285712
 20
462.285716
 30
0.0
 10
-114.571432
 20
460.571428
 30
0.0
 10
-118.285712
 20
444.857140
 30
0.0
 10
-125.428568
 20
435.142860
 30
0.0
 10
-128.857144
 20
420.857140
 30
0.0
 10
-146.285712
 20
381.142860
 30
0.0
 10
-142.000000
 20
367.428572
 30
0.0
  0
LWPOLYLINE
  5
105
100
AcDbEntity
  8
Layer_1
 62
7
100
AcDbPolyline
 90
27
 70
1
 10
-61.428571
 20
465.428572
 30
0.0
 10
-60.857143
 20
454.571428
 30
0.0
 10
-67.714286
 20
444.000004
 30
0.0
 10
-78.285714
 20
414.857140
 30
0.0
 10
-86.857144
 20
353.142860
 30
0.0
 10
-69.714286
 20
354.571428
 30
0.0
 10
-52.000000
 20
333.142860
 30
0.0
 10
-53.428571
 20
326.285716
 30
0.0
 10
-33.714286
 20
324.571428
 30
0.0
 10
-19.428571
 20
326.857140
 30
0.0
 10
4.857143
 20
337.142860
 30
0.0
 10
21.142857
 20
339.428572
 30
0.0
 10
44.571429
 20
330.571428
 30
0.0
 10
62.285714
 20
326.857140
 30
0.0
 10
57.142858
 20
340.571428
 30
0.0
 10
55.714286
 20
353.714284
 30
0.0
 10
60.571429
 20
368.571428
 30
0.0
 10
59.714286
 20
393.714284
 30
0.0
 10
50.571429
 20
382.000004
 30
0.0
 10
40.571429
 20
377.714284
 30
0.0
 10
25.428571
 20
376.571428
 30
0.0
 10
13.714286
 20
380.000004
 30
0.0
 10
26.571429
 20
402.285716
 30
0.0
 10
31.142857
 20
454.571428
 30
0.0
 10
20.857143
 20
482.000004
 30
0.0
 10
-27.142857
 20
469.142860
 30
0.0
 10
-61.428571
 20
465.428572
 30
0.0
  0
LWPOLYLINE
  5
106
100
AcDbEntity
  8
Layer_1
 62
7
100
AcDbPolyline
 90
17
 70
1
 10
14.285714
 20
380.571428
 30
0.0
 10
26.857143
 20
401.714284
 30
0.0
 10
30.857143
 20
455.428572
 30
0.0
 10
21.142857
 20
482.000004
 30
0.0
 10
56.857143
 20
487.428572
 30
0.0
 10
91.428568
 20
482.571428
 30
0.0
 10
84.571432
 20
471.142860
 30
0.0
 10
83.428568
 20
461.714284
 30
0.0
 10
70.857143
 20
445.714284
 30
0.0
 10
56.571429
 20
434.285716
 30
0.0
 10
52.857143
 20
424.000004
 30
0.0
 10
52.857143
 20
408.285716
 30
0.0
 10
59.428571
 20
394.285716
 30
0.0
 10
50.857143
 20
382.857140
 30
0.0
 10
39.714286
 20
378.000004
 30
0.0
 10
25.428571
 20
376.571428
 30
0.0
 10
14.285714
 20
380.571428
 30
0.0
  0
LWPOLYLINE
  5
107
100
AcDbEntity
  8
Layer_1
 62
7
100
AcDbPolyline
 90
21
 70
1
 10
91.428568
 20
482.857140
 30
0.0
 10
84.857144
 20
470.857140
 30
0.0
 10
83.714288
 20
461.142860
 30
0.0
 10
69.428571
 20
443.714284
 30
0.0
 10
57.428571
 20
435.142860
 30
0.0
 10
52.857143
 20
424.285716
 30
0.0
 10
53.142858
 20
408.000004
 30
0.0
 10
59.428571
 20
394.285716
 30
0.0
 10
68.285714
 20
402.857140
 30
0.0
 10
84.857144
 20
402.857140
 30
0.0
 10
90.571432
 20
399.428572
 30
0.0
 10
95.142856
 20
391.142860
 30
0.0
 10
102.857144
 20
386.857140
 30
0.0
 10
119.142856
 20
391.428572
 30
0.0
 10
124.857144
 20
389.428572
 30
0.0
 10
140.000000
 20
396.285716
 30
0.0
 10
142.000000
 20
432.857140
 30
0.0
 10
118.000000
 20
465.714284
 30
0.0
 10
116.571432
 20
475.714284
 30
0.0
 10
121.714288
 20
486.000004
 30
0.0
 10
91.428568
 20
482.857140
 30
0.0
  0
LWPOLYLINE
  5
108
100
AcDbEntity
  8
Layer_1
 62
7
100
AcDbPolyline
 90
24
 70
1
 10
122.285712
 20
487.142860
 30
0.0
 10
116.857144
 20
475.714284
 30
0.0
 10
117.714288
 20
465.142860
 30
0.0
 10
142.000000
 20
432.000004
 30
0.0
 10
139.428568
 20
396.285716
 30
0.0
 10
152.285712
 20
384.000004
 30
0.0
 10
153.714288
 20
367.142860
 30
0.0
 10
160.857144
 20
353.142860
 30
0.0
 10
179.428568
 20
355.142860
 30
0.0
 10
194.571432
 20
364.285716
 30
0.0
 10
208.000000
 20
383.428572
 30
0.0
 10
216.285712
 20
391.142860
 30
0.0
 10
208.571432
 20
411.428572
 30
0.0
 10
200.571432
 20
422.000004
 30
0.0
 10
200.285712
 20
444.000004
 30
0.0
 10
206.571432
 20
455.142860
 30
0.0
 10
244.000000
 20
474.285716
 30
0.0
 10
263.714288
 20
493.714284
 30
0.0
 10
266.000000
 20
506.571428
 30
0.0
 10
275.714288
 20
520.571428
 30
0.0
 10
279.714288
 20
528.571428
 30
0.0
 10
239.428568
 20
530.000004
 30
0.0
 10
208.857144
 20
515.142860
 30
0.0
 10
122.285712
 20
487.142860
 30
0.0
  0
LWPOLYLINE
  5
109
100
AcDbEntity
  8
Layer_1
 62
7
100
AcDbPolyline
 90
23
 70
1
 10
216.571432
 20
390.857140
 30
0.0
 10
236.857144
 20
406.571428
 30
0.0
 10
259.428568
 20
411.142860
 30
0.0
 10
290.000000
 20
394.857140
 30
0.0
 10
296.285712
 20
395.142860
 30
0.0
 10
316.571432
 20
384.571428
 30
0.0
 10
332.000000
 20
389.142860
 30
0.0
 10
328.000000
 20
402.285716
 30
0.0
 10
340.285712
 20
421.428572
 30
0.0
 10
305.714288
 20
494.285716
 30
0.0
 10
318.000000
 20
508.857140
 30
0.0
 10
301.428568
 20
514.571428
 30
0.0
 10
296.285712
 20
528.571428
 30
0.0
 10
280.000000
 20
528.571428
 30
0.0
 10
266.857144
 20
506.285716
 30
0.0
 10
263.428568
 20
493.714284
 30
0.0
 10
244.000000
 20
474.000004
 30
0.0
 10
207.714288
 20
455.428572
 30
0.0
 10
200.285712
 20
443.428572
 30
0.0
 10
200.857144
 20
420.857140
 30
0.0
 10
208.857144
 20
411.142860
 30
0.0
 10
216.571432
 20
389.714284
 30
0.0
 10
216.571432
 20
390.857140
 30
0.0
  0
LWPOLYLINE
  5
10a
100
AcDbEntity
  8
Layer_1
 62
7
100
AcDbPolyline
 90
5
 70
1
 10
318.285712
 20
508.571428
 30
0.0
 10
305.428568
 20
493.714284
 30
0.0
 10
340.571432
 20
421.142860
 30
0.0
 10
369.428576
 20
471.428572
 30
0.0
 10
318.285712
 20
508.571428
 30
0.0
  0
LWPOLYLINE
  5
10b
100
AcDbEntity
  8
Layer_1
 62
7
100
AcDbPolyline
 90
30
 70
1
 10
-119.142856
 20
204.857140
 30
0.0
 10
-116.000000
 20
221.142860
 30
0.0
 10
-126.571432
 20
238.571428
 30
0.0
 10
-128.285712
 20
246.571428
 30
0.0
 10
-118.000000
 20
248.857140
 30
0.0
 10
-101.428568
 20
260.571428
 30
0.0
 10
-79.714286
 20
296.285716
 30
0.0
 10
-52.857143
 20
327.142860
 30
0.0
 10
-51.428571
 20
333.714284
 30
0.0
 10
-69.714286
 20
355.428572
 30
0.0
 10
-97.142856
 20
352.571428
 30
0.0
 10
-98.285712
 20
358.000004
 30
0.0
 10
-95.142856
 20
368.000004
 30
0.0
 10
-100.571432
 20
369.714284
 30
0.0
 10
-111.714288
 20
363.714284
 30
0.0
 10
-125.714288
 20
363.714284
 30
0.0
 10
-133.142856
 20
367.428572
 30
0.0
 10
-142.000000
 20
367.428572
 30
0.0
 10
-142.857144
 20
362.285716
 30
0.0
 10
-153.714288
 20
358.285716
 30
0.0
 10
-167.714288
 20
367.714284
 30
0.0
 10
-176.000000
 20
365.428572
 30
0.0
 10
-190.285712
 20
354.857140
 30
0.0
 10
-185.714288
 20
336.000004
 30
0.0
 10
-164.285712
 20
306.000004
 30
0.0
 10
-146.285712
 20
272.571428
 30
0.0
 10
-138.000000
 20
262.571428
 30
0.0
 10
-140.000000
 20
252.285716
 30
0.0
 10
-160.000000
 20
222.571428
 30
0.0
 10
-119.142856
 20
204.857140
 30
0.0
  0
LWPOLYLINE
  5
10c
100
AcDbEntity
  8
Layer_1
 62
7
100
AcDbPolyline
 90
15
 70
1
 10
-119.142856
 20
205.428572
 30
0.0
 10
-115.428568
 20
222.000004
 30
0.0
 10
-126.285712
 20
239.142860
 30
0.0
 10
-128.285712
 20
245.714284
 30
0.0
 10
-116.571432
 20
248.857140
 30
0.0
 10
-101.142856
 20
261.142860
 30
0.0
 10
-90.000000
 20
277.714284
 30
0.0
 10
-74.571429
 20
262.857140
 30
0.0
 10
-58.000000
 20
262.000004
 30
0.0
 10
-42.571429
 20
256.000004
 30
0.0
 10
-33.142857
 20
249.428572
 30
0.0
 10
-26.285714
 20
236.000004
 30
0.0
 10
-40.571429
 20
188.000004
 30
0.0
 10
-82.285712
 20
190.571428
 30
0.0
 10
-119.142856
 20
205.428572
 30
0.0
  0
LWPOLYLINE
  5
10d
100
AcDbEntity
  8
Layer_1
 62
7
100
AcDbPolyline
 90
27
 70
1
 10
-40.000000
 20
188.285716
 30
0.0
 10
-7.142857
 20
183.428572
 30
0.0
 10
30.000000
 20
185.428572
 30
0.0
 10
62.000000
 20
189.142860
 30
0.0
 10
69.428571
 20
193.142860
 30
0.0
 10
79.714286
 20
203.714284
 30
0.0
 10
93.428568
 20
237.142860
 30
0.0
 10
102.285712
 20
246.000004
 30
0.0
 10
112.000000
 20
248.000004
 30
0.0
 10
108.000000
 20
267.142860
 30
0.0
 10
109.428568
 20
291.714284
 30
0.0
 10
91.142856
 20
315.714284
 30
0.0
 10
62.571429
 20
327.142860
 30
0.0
 10
44.000000
 20
330.285716
 30
0.0
 10
20.857143
 20
339.428572
 30
0.0
 10
4.571429
 20
337.142860
 30
0.0
 10
-19.714286
 20
326.571428
 30
0.0
 10
-40.857143
 20
324.285716
 30
0.0
 10
-53.428571
 20
326.285716
 30
0.0
 10
-78.857143
 20
297.142860
 30
0.0
 10
-90.000000
 20
277.714284
 30
0.0
 10
-73.428571
 20
262.285716
 30
0.0
 10
-60.571429
 20
263.142860
 30
0.0
 10
-43.714286
 20
256.857140
 30
0.0
 10
-32.571429
 20
249.714284
 30
0.0
 10
-25.714286
 20
236.285716
 30
0.0
 10
-40.000000
 20
188.285716
 30
0.0
  0
LWPOLYLINE
  5
10e
100
AcDbEntity
  8
Layer_1
 62
7
100
AcDbPolyline
 90
16
 70
1
 10
60.000000
 20
395.428572
 30
0.0
 10
61.428571
 20
370.285716
 30
0.0
 10
55.428571
 20
352.571428
 30
0.0
 10
57.714286
 20
338.571428
 30
0.0
 10
62.857143
 20
326.857140
 30
0.0
 10
88.285712
 20
317.142860
 30
0.0
 10
113.142856
 20
337.714284
 30
0.0
 10
126.285712
 20
357.142860
 30
0.0
 10
125.428568
 20
389.714284
 30
0.0
 10
118.857144
 20
391.714284
 30
0.0
 10
101.714288
 20
387.142860
 30
0.0
 10
95.714288
 20
391.142860
 30
0.0
 10
90.000000
 20
400.000004
 30
0.0
 10
84.571432
 20
403.142860
 30
0.0
 10
68.857143
 20
403.142860
 30
0.0
 10
60.000000
 20
395.428572
 30
0.0
  0
LWPOLYLINE
  5
10f
100
AcDbEntity
  8
Layer_1
 62
7
100
AcDbPolyline
 90
31
 70
1
 10
89.142856
 20
317.428572
 30
0.0
 10
109.428568
 20
291.428572
 30
0.0
 10
108.285712
 20
266.571428
 30
0.0
 10
112.571432
 20
248.000004
 30
0.0
 10
132.285712
 20
249.428572
 30
0.0
 10
145.428568
 20
244.000004
 30
0.0
 10
184.000000
 20
209.428572
 30
0.0
 10
211.142856
 20
200.285716
 30
0.0
 10
258.571432
 20
194.857140
 30
0.0
 10
236.000000
 20
225.428572
 30
0.0
 10
240.857144
 20
241.428572
 30
0.0
 10
234.000000
 20
244.857140
 30
0.0
 10
236.285712
 20
261.714284
 30
0.0
 10
241.428568
 20
273.428572
 30
0.0
 10
243.142856
 20
278.571428
 30
0.0
 10
233.714288
 20
297.428572
 30
0.0
 10
234.571432
 20
324.000004
 30
0.0
 10
227.428568
 20
348.285716
 30
0.0
 10
221.142856
 20
358.000004
 30
0.0
 10
215.142856
 20
391.142860
 30
0.0
 10
208.285712
 20
383.714284
 30
0.0
 10
195.714288
 20
364.571428
 30
0.0
 10
178.000000
 20
354.857140
 30
0.0
 10
160.857144
 20
353.142860
 30
0.0
 10
152.000000
 20
368.285716
 30
0.0
 10
151.714288
 20
384.285716
 30
0.0
 10
138.857144
 20
396.571428
 30
0.0
 10
124.857144
 20
388.857140
 30
0.0
 10
126.857144
 20
358.000004
 30
0.0
 10
115.428568
 20
340.857140
 30
0.0
 10
89.142856
 20
317.428572
 30
0.0
  0
LWPOLYLINE
  5
110
100
AcDbEntity
  8
Layer_1
 62
7
100
AcDbPolyline
 90
23
 70
1
 10
241.428568
 20
242.285716
 30
0.0
 10
250.285712
 20
257.714284
 30
0.0
 10
263.142856
 20
264.000004
 30
0.0
 10
315.142856
 20
260.857140
 30
0.0
 10
374.571432
 20
310.571428
 30
0.0
 10
364.000000
 20
346.571428
 30
0.0
 10
354.571432
 20
349.428572
 30
0.0
 10
344.000000
 20
359.428572
 30
0.0
 10
330.857144
 20
388.571428
 30
0.0
 10
315.714288
 20
384.857140
 30
0.0
 10
297.142856
 20
395.142860
 30
0.0
 10
289.428568
 20
394.857140
 30
0.0
 10
258.857144
 20
411.142860
 30
0.0
 10
236.857144
 20
406.857140
 30
0.0
 10
215.714288
 20
390.285716
 30
0.0
 10
221.428568
 20
357.142860
 30
0.0
 10
228.571432
 20
347.142860
 30
0.0
 10
234.857144
 20
324.000004
 30
0.0
 10
234.285712
 20
296.285716
 30
0.0
 10
244.000000
 20
277.428572
 30
0.0
 10
236.000000
 20
260.000004
 30
0.0
 10
234.285712
 20
244.000004
 30
0.0
 10
241.428568
 20
242.285716
 30
0.0
  0
ENDSEC
  0
SECTION
  2
OBJECTS
  0
DICTIONARY
  5
C
330
0
100
AcDbDictionary
  3
ACAD_GROUP
350
D
  3
ACAD_MLINESTYLE
350
17
  0
DICTIONARY
  5
D
330
C
100
AcDbDictionary
  0
DICTIONARY
  5
1A
330
C
100
AcDbDictionary
  0
DICTIONARY
  5
17
330
C
100
AcDbDictionary
  3
STANDARD
350
18
  0
DICTIONARY
  5
19
330
C
100
AcDbDictionary
  0
ENDSEC
  0
EOF
