  0
SECTION
  2
HEADER
  9
$ACADVER
  1
AC1014
  9
$HANDSEED
  5
FFFF
  9
$MEASUREMENT
 70
     1
  0
ENDSEC
  0
SECTION
  2
TABLES
  0
TABLE
  2
VPORT
  5
8
330
0
100
AcDbSymbolTable
 70
     4
  0
VPORT
  5
2E
330
8
100
AcDbSymbolTableRecord
100
AcDbViewportTableRecord
  2
*ACTIVE
 70
     0
 10
0.0
 20
0.0
 11
1.0
 21
1.0
 12
210.0
 22
148.5
 13
0.0
 23
0.0
 14
10.0
 24
10.0
 15
10.0
 25
10.0
 16
0.0
 26
0.0
 36
1.0
 17
0.0
 27
0.0
 37
0.0
 40
341.0
 41
1.24
 42
50.0
 43
0.0
 44
0.0
 50
0.0
 51
0.0
 71
     0
 72
   100
 73
     1
 74
     3
 75
     0
 76
     0
 77
     0
 78
     0
  0
ENDTAB
  0
TABLE
  2
LTYPE
  5
5
330
0
100
AcDbSymbolTable
 70
     1
  0
LTYPE
  5
14
330
5
100
AcDbSymbolTableRecord
100
AcDbLinetypeTableRecord
  2
BYBLOCK
 70
     0
  3

 72
    65
 73
     0
 40
0.0
  0
LTYPE
  5
15
330
5
100
AcDbSymbolTableRecord
100
AcDbLinetypeTableRecord
  2
BYLAYER
 70
     0
  3

 72
    65
 73
     0
 40
0.0
  0
LTYPE
  5
16
330
5
100
AcDbSymbolTableRecord
100
AcDbLinetypeTableRecord
  2
CONTINUOUS
 70
     0
  3
Solid line
 72
    65
 73
     0
 40
0.0
  0
ENDTAB
  0
TABLE
  2
LAYER
  5
2
100
AcDbSymbolTable
 70
2
  0
LAYER
  5
50
100
AcDbSymbolTableRecord
100
AcDbLayerTableRecord
  2
0
 70
0
  6
CONTINUOUS
  0
LAYER
  5
51
100
AcDbSymbolTableRecord
100
AcDbLayerTableRecord
  2
Layer_1
 70
0
  6
CONTINUOUS
  0
ENDTAB
  0
TABLE
  2
STYLE
  5
3
330
0
100
AcDbSymbolTable
 70
     1
  0
STYLE
  5
11
330
3
100
AcDbSymbolTableRecord
100
AcDbTextStyleTableRecord
  2
STANDARD
 70
     0
 40
0.0
 41
1.0
 50
0.0
 71
     0
 42
2.5
  3
txt
  4

  0
ENDTAB
  0
TABLE
  2
VIEW
  5
6
330
0
100
AcDbSymbolTable
 70
     0
  0
ENDTAB
  0
TABLE
  2
UCS
  5
7
330
0
100
AcDbSymbolTable
 70
     0
  0
ENDTAB
  0
TABLE
  2
APPID
  5
9
330
0
100
AcDbSymbolTable
 70
     2
  0
APPID
  5
12
330
9
100
AcDbSymbolTableRecord
100
AcDbRegAppTableRecord
  2
ACAD
 70
     0
  0
ENDTAB
  0
TABLE
  2
DIMSTYLE
  5
A
330
0
100
AcDbSymbolTable
 70
     1
  0
DIMSTYLE
105
27
330
A
100
AcDbSymbolTableRecord
100
AcDbDimStyleTableRecord
  2
ISO-25
 70
     0
  3

  4

  5

  6

  7

 40
1.0
 41
2.5
 42
0.625
 43
3.75
 44
1.25
 45
0.0
 46
0.0
 47
0.0
 48
0.0
140
2.5
141
2.5
142
0.0
143
0.03937007874016
144
1.0
145
0.0
146
1.0
147
0.625
 71
     0
 72
     0
 73
     0
 74
     0
 75
     0
 76
     0
 77
     1
 78
     8
170
     0
171
     3
172
     1
173
     0
174
     0
175
     0
176
     0
177
     0
178
     0
270
     2
271
     2
272
     2
273
     2
274
     3
340
11
275
     0
280
     0
281
     0
282
     0
283
     0
284
     8
285
     0
286
     0
287
     3
288
     0
  0
ENDTAB
  0
TABLE
  2
BLOCK_RECORD
  5
1
330
0
100
AcDbSymbolTable
 70
     1
  0
BLOCK_RECORD
  5
1F
330
1
100
AcDbSymbolTableRecord
100
AcDbBlockTableRecord
  2
*MODEL_SPACE
  0
BLOCK_RECORD
  5
1B
330
1
100
AcDbSymbolTableRecord
100
AcDbBlockTableRecord
  2
*PAPER_SPACE
  0
ENDTAB
  0
ENDSEC
  0
SECTION
  2
BLOCKS
  0
BLOCK
  5
20
330
1F
100
AcDbEntity
  8
0
100
AcDbBlockBegin
  2
*MODEL_SPACE
 70
     0
 10
0.0
 20
0.0
 30
0.0
  3
*MODEL_SPACE
  1

  0
ENDBLK
  5
21
330
1F
100
AcDbEntity
  8
0
100
AcDbBlockEnd
  0
BLOCK
  5
1C
330
1B
100
AcDbEntity
 67
     1
  8
0
100
AcDbBlockBegin
  2
*PAPER_SPACE
  1

  0
ENDBLK
  5
1D
330
1B
100
AcDbEntity
 67
     1
  8
0
100
AcDbBlockEnd
  0
ENDSEC
  0
SECTION
  2
ENTITIES
  0
LWPOLYLINE
  5
100
100
AcDbEntity
  8
Layer_1
 62
7
100
AcDbPolyline
 90
68
 70
1
 10
-277.185856
 20
463.862052
 30
0.0
 10
-268.296520
 20
477.600124
 30
0.0
 10
-242.436608
 20
481.640732
 30
0.0
 10
-239.204120
 20
492.954444
 30
0.0
 10
-245.669096
 20
501.035660
 30
0.0
 10
-281.226472
 20
494.570684
 30
0.0
 10
-294.156424
 20
494.570684
 30
0.0
 10
-299.005152
 20
502.651908
 30
0.0
 10
-279.610224
 20
547.906740
 30
0.0
 10
-270.720880
 20
552.755476
 30
0.0
 10
-227.890416
 20
545.482372
 30
0.0
 10
-177.786848
 20
548.310804
 30
0.0
 10
-170.917808
 20
552.351412
 30
0.0
 10
-169.705624
 20
586.292540
 30
0.0
 10
-138.996992
 20
586.696596
 30
0.0
 10
-112.328960
 20
592.757516
 30
0.0
 10
-69.094434
 20
576.595076
 30
0.0
 10
-52.527932
 20
566.089484
 30
0.0
 10
-61.417274
 20
551.543292
 30
0.0
 10
-59.801030
 20
531.340236
 30
0.0
 10
-58.588848
 20
515.581860
 30
0.0
 10
-62.225397
 20
503.055972
 30
0.0
 10
-78.387838
 20
513.561556
 30
0.0
 10
-85.256872
 20
515.985924
 30
0.0
 10
-107.076168
 20
503.055972
 30
0.0
 10
-116.369576
 20
494.974748
 30
0.0
 10
-109.500536
 20
477.196060
 30
0.0
 10
-113.137088
 20
467.498596
 30
0.0
 10
-143.037600
 20
433.557476
 30
0.0
 10
-155.563496
 20
431.133108
 30
0.0
 10
-195.161472
 20
436.385900
 30
0.0
 10
-216.980768
 20
448.507732
 30
0.0
 10
-254.558440
 20
459.417380
 30
0.0
 10
-267.488392
 20
459.417380
 30
0.0
 10
-277.185856
 20
463.862052
 30
0.0
 10
-296.176728
 20
433.153412
 30
0.0
 10
-303.449824
 20
373.352380
 30
0.0
 10
-296.176728
 20
358.402124
 30
0.0
 10
-288.903632
 20
325.269116
 30
0.0
 10
-286.479264
 20
313.955412
 30
0.0
 10
-269.912760
 20
310.318860
 30
0.0
 10
-248.901584
 20
298.197028
 30
0.0
 10
-230.314784
 20
292.136116
 30
0.0
 10
-216.980768
 20
291.327996
 30
0.0
 10
-208.091424
 20
293.752364
 30
0.0
 10
-197.989896
 20
294.560484
 30
0.0
 10
-175.766544
 20
271.933068
 30
0.0
 10
-156.371616
 20
263.447788
 30
0.0
 10
-149.906640
 20
279.610228
 30
0.0
 10
-134.552320
 20
289.307692
 30
0.0
 10
-142.633536
 20
305.874188
 30
0.0
 10
-151.118824
 20
311.935108
 30
0.0
 10
-164.048776
 20
327.693484
 30
0.0
 10
-166.877200
 20
339.007196
 30
0.0
 10
-173.342176
 20
346.684356
 30
0.0
 10
-187.484312
 20
349.512780
 30
0.0
 10
-191.928984
 20
355.169636
 30
0.0
 10
-190.716800
 20
370.928012
 30
0.0
 10
-187.080248
 20
378.605172
 30
0.0
 10
-196.777712
 20
397.191980
 30
0.0
 10
-201.222384
 20
403.656956
 30
0.0
 10
-200.414264
 20
415.778788
 30
0.0
 10
-194.757408
 20
436.385900
 30
0.0
 10
-221.425440
 20
450.123972
 30
0.0
 10
-247.285344
 20
457.397076
 30
0.0
 10
-256.174688
 20
459.417380
 30
0.0
 10
-267.488392
 20
459.013316
 30
0.0
 10
-277.185856
 20
463.862052
 30
0.0
  0
LWPOLYLINE
  5
101
100
AcDbEntity
  8
Layer_1
 62
7
100
AcDbPolyline
 90
30
 70
1
 10
-287.691448
 20
313.551348
 30
0.0
 10
-269.912760
 20
309.106676
 30
0.0
 10
-248.497528
 20
297.792972
 30
0.0
 10
-235.971632
 20
293.348300
 30
0.0
 10
-217.788888
 20
290.519876
 30
0.0
 10
-208.899544
 20
294.156420
 30
0.0
 10
-196.777712
 20
294.560484
 30
0.0
 10
-174.554360
 20
271.529004
 30
0.0
 10
-155.159432
 20
262.235604
 30
0.0
 10
-147.078208
 20
255.366564
 30
0.0
 10
-120.814248
 20
253.750316
 30
0.0
 10
-116.369576
 20
245.669100
 30
0.0
 10
-117.581760
 20
237.183820
 30
0.0
 10
-147.886336
 20
225.061988
 30
0.0
 10
-158.795984
 20
225.870108
 30
0.0
 10
-164.856896
 20
221.829500
 30
0.0
 10
-166.069080
 20
212.940156
 30
0.0
 10
-175.766544
 20
207.687364
 30
0.0
 10
-183.443704
 20
191.928980
 30
0.0
 10
-175.766544
 20
185.059948
 30
0.0
 10
-173.342176
 20
159.200044
 30
0.0
 10
-192.737104
 20
152.735068
 30
0.0
 10
-217.788888
 20
181.827460
 30
0.0
 10
-255.366560
 20
194.757412
 30
0.0
 10
-281.226472
 20
195.161476
 30
0.0
 10
-290.519872
 20
198.798020
 30
0.0
 10
-298.197032
 20
206.475180
 30
0.0
 10
-290.923936
 20
216.172644
 30
0.0
 10
-288.095504
 20
228.698540
 30
0.0
 10
-287.691448
 20
313.551348
 30
0.0
  0
LWPOLYLINE
  5
102
100
AcDbEntity
  8
Layer_1
 62
7
100
AcDbPolyline
 90
44
 70
1
 10
-134.552320
 20
289.711748
 30
0.0
 10
-127.279224
 20
290.923932
 30
0.0
 10
-94.146216
 20
310.722924
 30
0.0
 10
-61.417274
 20
339.007196
 30
0.0
 10
-40.406102
 20
345.472172
 30
0.0
 10
8.081220
 20
353.553388
 30
0.0
 10
36.365492
 20
350.320900
 30
0.0
 10
43.234529
 20
370.523956
 30
0.0
 10
43.638590
 20
421.435644
 30
0.0
 10
10.909647
 20
422.243764
 30
0.0
 10
-9.293403
 20
446.083364
 30
0.0
 10
-21.415234
 20
452.952404
 30
0.0
 10
-31.112698
 20
454.164588
 30
0.0
 10
-34.749247
 20
463.862052
 30
0.0
 10
-41.618285
 20
470.327028
 30
0.0
 10
-45.254834
 20
480.428548
 30
0.0
 10
-36.365492
 20
486.085404
 30
0.0
 10
-29.092394
 20
494.974748
 30
0.0
 10
-26.263966
 20
499.015356
 30
0.0
 10
-35.961430
 20
503.864092
 30
0.0
 10
-47.679200
 20
504.268148
 30
0.0
 10
-58.184786
 20
498.207236
 30
0.0
 10
-64.649763
 20
505.480332
 30
0.0
 10
-84.852816
 20
515.581860
 30
0.0
 10
-103.439624
 20
505.480332
 30
0.0
 10
-115.561448
 20
494.570684
 30
0.0
 10
-109.500536
 20
477.600124
 30
0.0
 10
-111.520840
 20
468.710780
 30
0.0
 10
-142.229480
 20
434.365596
 30
0.0
 10
-156.775672
 20
431.537164
 30
0.0
 10
-195.161472
 20
436.789964
 30
0.0
 10
-200.010208
 20
413.758484
 30
0.0
 10
-201.222384
 20
403.252900
 30
0.0
 10
-193.949288
 20
393.555436
 30
0.0
 10
-186.676192
 20
377.797052
 30
0.0
 10
-190.716800
 20
371.736140
 30
0.0
 10
-191.928984
 20
355.977756
 30
0.0
 10
-188.292432
 20
350.320900
 30
0.0
 10
-172.938112
 20
345.876228
 30
0.0
 10
-165.665016
 20
338.199076
 30
0.0
 10
-163.644712
 20
326.885364
 30
0.0
 10
-149.906640
 20
310.722924
 30
0.0
 10
-141.825416
 20
305.470132
 30
0.0
 10
-134.552320
 20
289.711748
 30
0.0
  0
LWPOLYLINE
  5
103
100
AcDbEntity
  8
Layer_1
 62
7
100
AcDbPolyline
 90
42
 70
1
 10
97.378704
 20
514.773740
 30
0.0
 10
98.590888
 20
508.712820
 30
0.0
 10
94.550280
 20
497.399116
 30
0.0
 10
102.227440
 20
485.681348
 30
0.0
 10
108.692416
 20
478.408244
 30
0.0
 10
123.238608
 20
473.559516
 30
0.0
 10
181.827456
 20
469.922964
 30
0.0
 10
201.222384
 20
445.679300
 30
0.0
 10
209.303608
 20
442.446812
 30
0.0
 10
217.788888
 20
447.699612
 30
0.0
 10
242.032552
 20
446.083364
 30
0.0
 10
247.285344
 20
442.850876
 30
0.0
 10
250.113768
 20
427.900620
 30
0.0
 10
245.265040
 20
423.051884
 30
0.0
 10
234.759448
 20
421.435644
 30
0.0
 10
233.143208
 20
415.374724
 30
0.0
 10
231.526960
 20
407.697564
 30
0.0
 10
256.174688
 20
407.293508
 30
0.0
 10
266.680272
 20
411.334116
 30
0.0
 10
286.883320
 20
439.214324
 30
0.0
 10
305.066072
 20
446.487428
 30
0.0
 10
307.894496
 20
450.123972
 30
0.0
 10
307.086376
 20
463.053924
 30
0.0
 10
296.580784
 20
473.963572
 30
0.0
 10
290.923936
 20
483.256980
 30
0.0
 10
280.822408
 20
492.146324
 30
0.0
 10
262.235600
 20
500.227540
 30
0.0
 10
252.134072
 20
507.096580
 30
0.0
 10
250.517832
 20
510.733124
 30
0.0
 10
254.962504
 20
517.602164
 30
0.0
 10
267.488392
 20
522.450900
 30
0.0
 10
254.558440
 20
539.017396
 30
0.0
 10
236.779760
 20
537.805212
 30
0.0
 10
216.172648
 20
538.209276
 30
0.0
 10
203.646752
 20
541.845828
 30
0.0
 10
198.798024
 20
545.886436
 30
0.0
 10
184.251824
 20
551.139228
 30
0.0
 10
179.403096
 20
554.371716
 30
0.0
 10
169.301568
 20
539.017396
 30
0.0
 10
158.391920
 20
532.956484
 30
0.0
 10
105.459928
 20
516.389980
 30
0.0
 10
97.378704
 20
514.773740
 30
0.0
  0
LWPOLYLINE
  5
104
100
AcDbEntity
  8
Layer_1
 62
7
100
AcDbPolyline
 90
17
 70
1
 10
267.084336
 20
522.854956
 30
0.0
 10
293.348296
 20
528.511812
 30
0.0
 10
316.783840
 20
527.703692
 30
0.0
 10
310.318864
 20
536.593036
 30
0.0
 10
311.935104
 20
558.412324
 30
0.0
 10
322.844752
 20
583.868172
 30
0.0
 10
312.339168
 20
583.868172
 30
0.0
 10
265.468088
 20
593.969700
 30
0.0
 10
192.333048
 20
570.938220
 30
0.0
 10
184.251824
 20
562.856996
 30
0.0
 10
179.403096
 20
553.967660
 30
0.0
 10
200.414264
 20
545.482372
 30
0.0
 10
204.050816
 20
542.249884
 30
0.0
 10
217.788888
 20
538.209276
 30
0.0
 10
238.800064
 20
537.401156
 30
0.0
 10
255.366560
 20
539.421460
 30
0.0
 10
267.084336
 20
522.854956
 30
0.0
  0
LWPOLYLINE
  5
105
100
AcDbEntity
  8
Layer_1
 62
7
100
AcDbPolyline
 90
34
 70
1
 10
225.870112
 20
366.483340
 30
0.0
 10
237.991936
 20
368.099588
 30
0.0
 10
276.377736
 20
380.625476
 30
0.0
 10
415.374728
 20
372.948324
 30
0.0
 10
432.345288
 20
365.675220
 30
0.0
 10
430.324984
 20
376.584868
 30
0.0
 10
433.961536
 20
398.808228
 30
0.0
 10
453.356464
 20
427.496556
 30
0.0
 10
452.144280
 20
438.810268
 30
0.0
 10
431.941232
 20
447.295548
 30
0.0
 10
416.586912
 20
457.801132
 30
0.0
 10
402.444776
 20
478.408244
 30
0.0
 10
403.252896
 20
510.329068
 30
0.0
 10
396.787920
 20
522.854956
 30
0.0
 10
384.666088
 20
526.895572
 30
0.0
 10
338.199072
 20
528.107748
 30
0.0
 10
294.156424
 20
527.703692
 30
0.0
 10
268.296520
 20
522.854956
 30
0.0
 10
255.770624
 20
517.602164
 30
0.0
 10
251.325952
 20
510.329068
 30
0.0
 10
253.346256
 20
506.288460
 30
0.0
 10
265.064032
 20
498.611300
 30
0.0
 10
283.650832
 20
489.721956
 30
0.0
 10
292.136120
 20
482.852916
 30
0.0
 10
297.388912
 20
473.155452
 30
0.0
 10
307.894496
 20
462.245804
 30
0.0
 10
308.298560
 20
449.719916
 30
0.0
 10
303.853888
 20
445.275244
 30
0.0
 10
286.883320
 20
439.618388
 30
0.0
 10
267.892456
 20
412.546300
 30
0.0
 10
254.962504
 20
406.485388
 30
0.0
 10
231.526960
 20
408.909748
 30
0.0
 10
227.486352
 20
398.404164
 30
0.0
 10
225.870112
 20
366.483340
 30
0.0
  0
LWPOLYLINE
  5
106
100
AcDbEntity
  8
Layer_1
 62
7
100
AcDbPolyline
 90
23
 70
1
 10
225.466048
 20
366.887404
 30
0.0
 10
227.890416
 20
399.212284
 30
0.0
 10
235.163512
 20
421.839700
 30
0.0
 10
243.648792
 20
422.647828
 30
0.0
 10
250.113768
 20
428.304676
 30
0.0
 10
246.477224
 20
442.850876
 30
0.0
 10
241.224424
 20
446.487428
 30
0.0
 10
217.384824
 20
447.295548
 30
0.0
 10
208.899544
 20
442.042756
 30
0.0
 10
201.626448
 20
444.871180
 30
0.0
 10
181.423400
 20
470.731084
 30
0.0
 10
122.834552
 20
474.367636
 30
0.0
 10
119.198000
 20
465.074236
 30
0.0
 10
119.198000
 20
458.609260
 30
0.0
 10
103.439624
 20
436.789964
 30
0.0
 10
101.419312
 20
431.133108
 30
0.0
 10
101.419312
 20
421.031580
 30
0.0
 10
150.714760
 20
418.607212
 30
0.0
 10
166.877200
 20
395.171676
 30
0.0
 10
181.423400
 20
388.302636
 30
0.0
 10
198.393960
 20
375.776748
 30
0.0
 10
213.344216
 20
368.099588
 30
0.0
 10
225.466048
 20
366.887404
 30
0.0
  0
LWPOLYLINE
  5
107
100
AcDbEntity
  8
Layer_1
 62
7
100
AcDbPolyline
 90
45
 70
1
 10
36.365492
 20
350.724964
 30
0.0
 10
43.436559
 20
370.523956
 30
0.0
 10
43.638590
 20
421.839700
 30
0.0
 10
10.909647
 20
423.051884
 30
0.0
 10
-9.899495
 20
446.285396
 30
0.0
 10
-21.213203
 20
452.548340
 30
0.0
 10
-31.314729
 20
453.962556
 30
0.0
 10
-34.547217
 20
463.457988
 30
0.0
 10
-41.214224
 20
470.529060
 30
0.0
 10
-45.254834
 20
480.832612
 30
0.0
 10
-35.759400
 20
486.287436
 30
0.0
 10
-25.657874
 20
499.015356
 30
0.0
 10
-36.163461
 20
504.268148
 30
0.0
 10
-47.881230
 20
504.066124
 30
0.0
 10
-57.982756
 20
498.207236
 30
0.0
 10
-62.023366
 20
502.449876
 30
0.0
 10
-58.992909
 20
515.379828
 30
0.0
 10
-61.619306
 20
551.341260
 30
0.0
 10
-52.527933
 20
566.897612
 30
0.0
 10
-33.941126
 20
555.785932
 30
0.0
 10
-6.464976
 20
533.966636
 30
0.0
 10
36.163461
 20
515.985924
 30
0.0
 10
45.254834
 20
514.369676
 30
0.0
 10
97.176672
 20
515.177796
 30
0.0
 10
98.388856
 20
509.116884
 30
0.0
 10
94.146216
 20
497.601148
 30
0.0
 10
109.298504
 20
478.004188
 30
0.0
 10
123.036584
 20
473.963572
 30
0.0
 10
119.400032
 20
465.074236
 30
0.0
 10
119.602064
 20
458.609260
 30
0.0
 10
103.843680
 20
438.204172
 30
0.0
 10
101.823376
 20
432.143260
 30
0.0
 10
101.621344
 20
421.435644
 30
0.0
 10
151.320848
 20
418.203156
 30
0.0
 10
167.079232
 20
395.171676
 30
0.0
 10
181.423400
 20
388.504668
 30
0.0
 10
198.393960
 20
375.776748
 30
0.0
 10
166.675168
 20
368.907708
 30
0.0
 10
129.299528
 20
333.956436
 30
0.0
 10
107.278200
 20
332.946276
 30
0.0
 10
103.237592
 20
349.310748
 30
0.0
 10
75.357380
 20
343.653900
 30
0.0
 10
62.629458
 20
344.866076
 30
0.0
 10
36.769553
 20
350.118876
 30
0.0
 10
36.365492
 20
350.724964
 30
0.0
  0
ENDSEC
  0
SECTION
  2
OBJECTS
  0
DICTIONARY
  5
C
330
0
100
AcDbDictionary
  3
ACAD_GROUP
350
D
  3
ACAD_MLINESTYLE
350
17
  0
DICTIONARY
  5
D
330
C
100
AcDbDictionary
  0
DICTIONARY
  5
1A
330
C
100
AcDbDictionary
  0
DICTIONARY
  5
17
330
C
100
AcDbDictionary
  3
STANDARD
350
18
  0
DICTIONARY
  5
19
330
C
100
AcDbDictionary
  0
ENDSEC
  0
EOF
