  0
SECTION
  2
HEADER
  9
$ACADVER
  1
AC1014
  9
$HANDSEED
  5
FFFF
  9
$MEASUREMENT
 70
     1
  0
ENDSEC
  0
SECTION
  2
TABLES
  0
TABLE
  2
VPORT
  5
8
330
0
100
AcDbSymbolTable
 70
     4
  0
VPORT
  5
2E
330
8
100
AcDbSymbolTableRecord
100
AcDbViewportTableRecord
  2
*ACTIVE
 70
     0
 10
0.0
 20
0.0
 11
1.0
 21
1.0
 12
210.0
 22
148.5
 13
0.0
 23
0.0
 14
10.0
 24
10.0
 15
10.0
 25
10.0
 16
0.0
 26
0.0
 36
1.0
 17
0.0
 27
0.0
 37
0.0
 40
341.0
 41
1.24
 42
50.0
 43
0.0
 44
0.0
 50
0.0
 51
0.0
 71
     0
 72
   100
 73
     1
 74
     3
 75
     0
 76
     0
 77
     0
 78
     0
  0
ENDTAB
  0
TABLE
  2
LTYPE
  5
5
330
0
100
AcDbSymbolTable
 70
     1
  0
LTYPE
  5
14
330
5
100
AcDbSymbolTableRecord
100
AcDbLinetypeTableRecord
  2
BYBLOCK
 70
     0
  3

 72
    65
 73
     0
 40
0.0
  0
LTYPE
  5
15
330
5
100
AcDbSymbolTableRecord
100
AcDbLinetypeTableRecord
  2
BYLAYER
 70
     0
  3

 72
    65
 73
     0
 40
0.0
  0
LTYPE
  5
16
330
5
100
AcDbSymbolTableRecord
100
AcDbLinetypeTableRecord
  2
CONTINUOUS
 70
     0
  3
Solid line
 72
    65
 73
     0
 40
0.0
  0
ENDTAB
  0
TABLE
  2
LAYER
  5
2
100
AcDbSymbolTable
 70
2
  0
LAYER
  5
50
100
AcDbSymbolTableRecord
100
AcDbLayerTableRecord
  2
0
 70
0
  6
CONTINUOUS
  0
LAYER
  5
51
100
AcDbSymbolTableRecord
100
AcDbLayerTableRecord
  2
Layer_1
 70
0
  6
CONTINUOUS
  0
ENDTAB
  0
TABLE
  2
STYLE
  5
3
330
0
100
AcDbSymbolTable
 70
     1
  0
STYLE
  5
11
330
3
100
AcDbSymbolTableRecord
100
AcDbTextStyleTableRecord
  2
STANDARD
 70
     0
 40
0.0
 41
1.0
 50
0.0
 71
     0
 42
2.5
  3
txt
  4

  0
ENDTAB
  0
TABLE
  2
VIEW
  5
6
330
0
100
AcDbSymbolTable
 70
     0
  0
ENDTAB
  0
TABLE
  2
UCS
  5
7
330
0
100
AcDbSymbolTable
 70
     0
  0
ENDTAB
  0
TABLE
  2
APPID
  5
9
330
0
100
AcDbSymbolTable
 70
     2
  0
APPID
  5
12
330
9
100
AcDbSymbolTableRecord
100
AcDbRegAppTableRecord
  2
ACAD
 70
     0
  0
ENDTAB
  0
TABLE
  2
DIMSTYLE
  5
A
330
0
100
AcDbSymbolTable
 70
     1
  0
DIMSTYLE
105
27
330
A
100
AcDbSymbolTableRecord
100
AcDbDimStyleTableRecord
  2
ISO-25
 70
     0
  3

  4

  5

  6

  7

 40
1.0
 41
2.5
 42
0.625
 43
3.75
 44
1.25
 45
0.0
 46
0.0
 47
0.0
 48
0.0
140
2.5
141
2.5
142
0.0
143
0.03937007874016
144
1.0
145
0.0
146
1.0
147
0.625
 71
     0
 72
     0
 73
     0
 74
     0
 75
     0
 76
     0
 77
     1
 78
     8
170
     0
171
     3
172
     1
173
     0
174
     0
175
     0
176
     0
177
     0
178
     0
270
     2
271
     2
272
     2
273
     2
274
     3
340
11
275
     0
280
     0
281
     0
282
     0
283
     0
284
     8
285
     0
286
     0
287
     3
288
     0
  0
ENDTAB
  0
TABLE
  2
BLOCK_RECORD
  5
1
330
0
100
AcDbSymbolTable
 70
     1
  0
BLOCK_RECORD
  5
1F
330
1
100
AcDbSymbolTableRecord
100
AcDbBlockTableRecord
  2
*MODEL_SPACE
  0
BLOCK_RECORD
  5
1B
330
1
100
AcDbSymbolTableRecord
100
AcDbBlockTableRecord
  2
*PAPER_SPACE
  0
ENDTAB
  0
ENDSEC
  0
SECTION
  2
BLOCKS
  0
BLOCK
  5
20
330
1F
100
AcDbEntity
  8
0
100
AcDbBlockBegin
  2
*MODEL_SPACE
 70
     0
 10
0.0
 20
0.0
 30
0.0
  3
*MODEL_SPACE
  1

  0
ENDBLK
  5
21
330
1F
100
AcDbEntity
  8
0
100
AcDbBlockEnd
  0
BLOCK
  5
1C
330
1B
100
AcDbEntity
 67
     1
  8
0
100
AcDbBlockBegin
  2
*PAPER_SPACE
  1

  0
ENDBLK
  5
1D
330
1B
100
AcDbEntity
 67
     1
  8
0
100
AcDbBlockEnd
  0
ENDSEC
  0
SECTION
  2
ENTITIES
  0
LWPOLYLINE
  5
100
100
AcDbEntity
  8
Layer_1
 62
7
100
AcDbPolyline
 90
35
 70
1
 10
-202.285712
 20
281.142860
 30
0.0
 10
-133.714288
 20
300.571428
 30
0.0
 10
67.428571
 20
269.714284
 30
0.0
 10
97.142856
 20
268.571428
 30
0.0
 10
202.285712
 20
338.285716
 30
0.0
 10
276.571432
 20
366.857140
 30
0.0
 10
302.857144
 20
433.142860
 30
0.0
 10
264.000000
 20
434.285716
 30
0.0
 10
192.000000
 20
449.142860
 30
0.0
 10
157.714288
 20
475.428572
 30
0.0
 10
142.857144
 20
521.142860
 30
0.0
 10
124.571432
 20
646.857140
 30
0.0
 10
105.142856
 20
681.142860
 30
0.0
 10
53.142857
 20
669.714284
 30
0.0
 10
-23.428571
 20
661.142860
 30
0.0
 10
-26.857143
 20
587.428572
 30
0.0
 10
-48.571429
 20
548.000004
 30
0.0
 10
-51.428571
 20
500.000004
 30
0.0
 10
-60.000000
 20
493.142860
 30
0.0
 10
-146.285712
 20
496.571428
 30
0.0
 10
-207.428568
 20
550.285716
 30
0.0
 10
-213.714288
 20
540.000004
 30
0.0
 10
-269.142856
 20
527.428572
 30
0.0
 10
-301.142856
 20
495.428572
 30
0.0
 10
-304.000000
 20
479.428572
 30
0.0
 10
-289.714288
 20
478.285716
 30
0.0
 10
-268.000000
 20
446.285716
 30
0.0
 10
-240.000000
 20
414.857140
 30
0.0
 10
-205.142856
 20
403.428572
 30
0.0
 10
-200.571432
 20
393.714284
 30
0.0
 10
-224.571432
 20
366.857140
 30
0.0
 10
-231.428568
 20
353.714284
 30
0.0
 10
-229.714288
 20
334.285716
 30
0.0
 10
-208.571432
 20
297.714284
 30
0.0
 10
-202.285712
 20
281.142860
 30
0.0
  0
LWPOLYLINE
  5
101
100
AcDbEntity
  8
Layer_1
 62
7
100
AcDbPolyline
 90
11
 70
1
 10
-206.857144
 20
549.714284
 30
0.0
 10
-161.142856
 20
603.428572
 30
0.0
 10
-140.000000
 20
667.428572
 30
0.0
 10
-55.428571
 20
656.571428
 30
0.0
 10
-24.000000
 20
660.571428
 30
0.0
 10
-26.857143
 20
588.000004
 30
0.0
 10
-49.142857
 20
548.571428
 30
0.0
 10
-51.428571
 20
500.000004
 30
0.0
 10
-59.428571
 20
493.142860
 30
0.0
 10
-146.285712
 20
497.142860
 30
0.0
 10
-206.857144
 20
549.714284
 30
0.0
  0
LWPOLYLINE
  5
102
100
AcDbEntity
  8
Layer_1
 62
7
100
AcDbPolyline
 90
23
 70
1
 10
-303.428568
 20
479.428572
 30
0.0
 10
-289.714288
 20
478.285716
 30
0.0
 10
-265.714288
 20
443.428572
 30
0.0
 10
-238.285712
 20
413.714284
 30
0.0
 10
-205.142856
 20
402.857140
 30
0.0
 10
-200.000000
 20
392.571428
 30
0.0
 10
-228.571432
 20
360.571428
 30
0.0
 10
-229.142856
 20
332.571428
 30
0.0
 10
-201.714288
 20
280.571428
 30
0.0
 10
-268.571432
 20
258.857140
 30
0.0
 10
-277.142856
 20
254.285716
 30
0.0
 10
-288.000000
 20
241.714284
 30
0.0
 10
-303.428568
 20
213.142860
 30
0.0
 10
-315.428568
 20
197.714284
 30
0.0
 10
-330.285712
 20
188.571428
 30
0.0
 10
-375.428568
 20
214.857140
 30
0.0
 10
-393.142856
 20
252.571428
 30
0.0
 10
-392.571432
 20
269.714284
 30
0.0
 10
-356.000000
 20
313.142860
 30
0.0
 10
-317.142856
 20
341.714284
 30
0.0
 10
-308.000000
 20
408.571428
 30
0.0
 10
-306.857144
 20
456.000004
 30
0.0
 10
-303.428568
 20
479.428572
 30
0.0
  0
ENDSEC
  0
SECTION
  2
OBJECTS
  0
DICTIONARY
  5
C
330
0
100
AcDbDictionary
  3
ACAD_GROUP
350
D
  3
ACAD_MLINESTYLE
350
17
  0
DICTIONARY
  5
D
330
C
100
AcDbDictionary
  0
DICTIONARY
  5
1A
330
C
100
AcDbDictionary
  0
DICTIONARY
  5
17
330
C
100
AcDbDictionary
  3
STANDARD
350
18
  0
DICTIONARY
  5
19
330
C
100
AcDbDictionary
  0
ENDSEC
  0
EOF
