  0
SECTION
  2
HEADER
  9
$ACADVER
  1
AC1014
  9
$HANDSEED
  5
FFFF
  9
$MEASUREMENT
 70
     1
  0
ENDSEC
  0
SECTION
  2
TABLES
  0
TABLE
  2
VPORT
  5
8
330
0
100
AcDbSymbolTable
 70
     4
  0
VPORT
  5
2E
330
8
100
AcDbSymbolTableRecord
100
AcDbViewportTableRecord
  2
*ACTIVE
 70
     0
 10
0.0
 20
0.0
 11
1.0
 21
1.0
 12
210.0
 22
148.5
 13
0.0
 23
0.0
 14
10.0
 24
10.0
 15
10.0
 25
10.0
 16
0.0
 26
0.0
 36
1.0
 17
0.0
 27
0.0
 37
0.0
 40
341.0
 41
1.24
 42
50.0
 43
0.0
 44
0.0
 50
0.0
 51
0.0
 71
     0
 72
   100
 73
     1
 74
     3
 75
     0
 76
     0
 77
     0
 78
     0
  0
ENDTAB
  0
TABLE
  2
LTYPE
  5
5
330
0
100
AcDbSymbolTable
 70
     1
  0
LTYPE
  5
14
330
5
100
AcDbSymbolTableRecord
100
AcDbLinetypeTableRecord
  2
BYBLOCK
 70
     0
  3

 72
    65
 73
     0
 40
0.0
  0
LTYPE
  5
15
330
5
100
AcDbSymbolTableRecord
100
AcDbLinetypeTableRecord
  2
BYLAYER
 70
     0
  3

 72
    65
 73
     0
 40
0.0
  0
LTYPE
  5
16
330
5
100
AcDbSymbolTableRecord
100
AcDbLinetypeTableRecord
  2
CONTINUOUS
 70
     0
  3
Solid line
 72
    65
 73
     0
 40
0.0
  0
ENDTAB
  0
TABLE
  2
LAYER
  5
2
100
AcDbSymbolTable
 70
2
  0
LAYER
  5
50
100
AcDbSymbolTableRecord
100
AcDbLayerTableRecord
  2
0
 70
0
  6
CONTINUOUS
  0
LAYER
  5
51
100
AcDbSymbolTableRecord
100
AcDbLayerTableRecord
  2
Layer_1
 70
0
  6
CONTINUOUS
  0
ENDTAB
  0
TABLE
  2
STYLE
  5
3
330
0
100
AcDbSymbolTable
 70
     1
  0
STYLE
  5
11
330
3
100
AcDbSymbolTableRecord
100
AcDbTextStyleTableRecord
  2
STANDARD
 70
     0
 40
0.0
 41
1.0
 50
0.0
 71
     0
 42
2.5
  3
txt
  4

  0
ENDTAB
  0
TABLE
  2
VIEW
  5
6
330
0
100
AcDbSymbolTable
 70
     0
  0
ENDTAB
  0
TABLE
  2
UCS
  5
7
330
0
100
AcDbSymbolTable
 70
     0
  0
ENDTAB
  0
TABLE
  2
APPID
  5
9
330
0
100
AcDbSymbolTable
 70
     2
  0
APPID
  5
12
330
9
100
AcDbSymbolTableRecord
100
AcDbRegAppTableRecord
  2
ACAD
 70
     0
  0
ENDTAB
  0
TABLE
  2
DIMSTYLE
  5
A
330
0
100
AcDbSymbolTable
 70
     1
  0
DIMSTYLE
105
27
330
A
100
AcDbSymbolTableRecord
100
AcDbDimStyleTableRecord
  2
ISO-25
 70
     0
  3

  4

  5

  6

  7

 40
1.0
 41
2.5
 42
0.625
 43
3.75
 44
1.25
 45
0.0
 46
0.0
 47
0.0
 48
0.0
140
2.5
141
2.5
142
0.0
143
0.03937007874016
144
1.0
145
0.0
146
1.0
147
0.625
 71
     0
 72
     0
 73
     0
 74
     0
 75
     0
 76
     0
 77
     1
 78
     8
170
     0
171
     3
172
     1
173
     0
174
     0
175
     0
176
     0
177
     0
178
     0
270
     2
271
     2
272
     2
273
     2
274
     3
340
11
275
     0
280
     0
281
     0
282
     0
283
     0
284
     8
285
     0
286
     0
287
     3
288
     0
  0
ENDTAB
  0
TABLE
  2
BLOCK_RECORD
  5
1
330
0
100
AcDbSymbolTable
 70
     1
  0
BLOCK_RECORD
  5
1F
330
1
100
AcDbSymbolTableRecord
100
AcDbBlockTableRecord
  2
*MODEL_SPACE
  0
BLOCK_RECORD
  5
1B
330
1
100
AcDbSymbolTableRecord
100
AcDbBlockTableRecord
  2
*PAPER_SPACE
  0
ENDTAB
  0
ENDSEC
  0
SECTION
  2
BLOCKS
  0
BLOCK
  5
20
330
1F
100
AcDbEntity
  8
0
100
AcDbBlockBegin
  2
*MODEL_SPACE
 70
     0
 10
0.0
 20
0.0
 30
0.0
  3
*MODEL_SPACE
  1

  0
ENDBLK
  5
21
330
1F
100
AcDbEntity
  8
0
100
AcDbBlockEnd
  0
BLOCK
  5
1C
330
1B
100
AcDbEntity
 67
     1
  8
0
100
AcDbBlockBegin
  2
*PAPER_SPACE
  1

  0
ENDBLK
  5
1D
330
1B
100
AcDbEntity
 67
     1
  8
0
100
AcDbBlockEnd
  0
ENDSEC
  0
SECTION
  2
ENTITIES
  0
LWPOLYLINE
  5
100
100
AcDbEntity
  8
Layer_1
 62
7
100
AcDbPolyline
 90
12
 70
1
 10
130.857144
 20
487.000004
 30
0.0
 10
127.571432
 20
492.000004
 30
0.0
 10
132.571432
 20
499.714284
 30
0.0
 10
139.857144
 20
507.142860
 30
0.0
 10
167.857144
 20
506.571428
 30
0.0
 10
174.428568
 20
500.428572
 30
0.0
 10
160.142856
 20
489.428572
 30
0.0
 10
152.714288
 20
490.000004
 30
0.0
 10
149.857144
 20
488.142860
 30
0.0
 10
145.571432
 20
491.571428
 30
0.0
 10
139.857144
 20
493.714284
 30
0.0
 10
130.857144
 20
487.000004
 30
0.0
  0
LWPOLYLINE
  5
101
100
AcDbEntity
  8
Layer_1
 62
7
100
AcDbPolyline
 90
20
 70
1
 10
150.285712
 20
487.714284
 30
0.0
 10
159.142856
 20
477.285716
 30
0.0
 10
162.000000
 20
471.857148
 30
0.0
 10
162.142856
 20
462.000004
 30
0.0
 10
169.428568
 20
460.857148
 30
0.0
 10
169.285712
 20
455.000004
 30
0.0
 10
178.000000
 20
456.142860
 30
0.0
 10
181.000000
 20
465.714284
 30
0.0
 10
181.428568
 20
476.000004
 30
0.0
 10
185.142856
 20
479.857148
 30
0.0
 10
185.714288
 20
485.000004
 30
0.0
 10
187.857144
 20
488.142860
 30
0.0
 10
188.285712
 20
492.142860
 30
0.0
 10
191.571432
 20
495.857148
 30
0.0
 10
189.000000
 20
499.285716
 30
0.0
 10
182.428568
 20
497.571428
 30
0.0
 10
174.285712
 20
500.142860
 30
0.0
 10
160.428568
 20
489.428572
 30
0.0
 10
152.142856
 20
489.857148
 30
0.0
 10
150.285712
 20
487.714284
 30
0.0
  0
LWPOLYLINE
  5
102
100
AcDbEntity
  8
Layer_1
 62
7
100
AcDbPolyline
 90
14
 70
1
 10
192.000000
 20
495.428572
 30
0.0
 10
209.285712
 20
482.571428
 30
0.0
 10
213.142856
 20
481.000004
 30
0.0
 10
205.857144
 20
454.285716
 30
0.0
 10
195.714288
 20
454.285716
 30
0.0
 10
191.714288
 20
456.285716
 30
0.0
 10
178.285712
 20
456.285716
 30
0.0
 10
181.428568
 20
465.714284
 30
0.0
 10
181.571432
 20
476.142860
 30
0.0
 10
185.571432
 20
480.000004
 30
0.0
 10
185.857144
 20
484.857148
 30
0.0
 10
188.000000
 20
487.857148
 30
0.0
 10
188.428568
 20
492.142860
 30
0.0
 10
192.000000
 20
495.428572
 30
0.0
  0
LWPOLYLINE
  5
103
100
AcDbEntity
  8
Layer_1
 62
7
100
AcDbPolyline
 90
22
 70
1
 10
177.571432
 20
456.000004
 30
0.0
 10
175.000000
 20
451.428572
 30
0.0
 10
167.428568
 20
441.000004
 30
0.0
 10
167.285712
 20
438.285716
 30
0.0
 10
161.285712
 20
437.857148
 30
0.0
 10
149.571432
 20
430.428572
 30
0.0
 10
145.857144
 20
426.285716
 30
0.0
 10
148.000000
 20
420.000004
 30
0.0
 10
134.857144
 20
413.571428
 30
0.0
 10
129.285712
 20
409.428572
 30
0.0
 10
121.571432
 20
406.428572
 30
0.0
 10
116.428568
 20
401.000004
 30
0.0
 10
114.142856
 20
404.571428
 30
0.0
 10
114.142856
 20
409.000004
 30
0.0
 10
128.857144
 20
426.714284
 30
0.0
 10
143.857144
 20
439.714284
 30
0.0
 10
159.714288
 20
448.142860
 30
0.0
 10
162.714288
 20
456.428572
 30
0.0
 10
161.857144
 20
461.857148
 30
0.0
 10
169.571432
 20
460.428572
 30
0.0
 10
169.857144
 20
455.142860
 30
0.0
 10
177.571432
 20
456.000004
 30
0.0
  0
LWPOLYLINE
  5
104
100
AcDbEntity
  8
Layer_1
 62
7
100
AcDbPolyline
 90
20
 70
1
 10
177.857144
 20
456.000004
 30
0.0
 10
168.142856
 20
441.857148
 30
0.0
 10
167.285712
 20
437.428572
 30
0.0
 10
167.000000
 20
431.142860
 30
0.0
 10
165.285712
 20
422.857140
 30
0.0
 10
172.142856
 20
416.857140
 30
0.0
 10
171.000000
 20
406.714284
 30
0.0
 10
176.714288
 20
406.142860
 30
0.0
 10
181.000000
 20
407.000004
 30
0.0
 10
185.571432
 20
409.857140
 30
0.0
 10
188.285712
 20
410.142860
 30
0.0
 10
188.285712
 20
415.000004
 30
0.0
 10
191.571432
 20
419.142860
 30
0.0
 10
190.285712
 20
421.857140
 30
0.0
 10
201.714288
 20
427.000004
 30
0.0
 10
200.000000
 20
432.714284
 30
0.0
 10
205.857144
 20
454.285716
 30
0.0
 10
196.000000
 20
454.142860
 30
0.0
 10
191.428568
 20
456.285716
 30
0.0
 10
177.857144
 20
456.000004
 30
0.0
  0
LWPOLYLINE
  5
105
100
AcDbEntity
  8
Layer_1
 62
7
100
AcDbPolyline
 90
13
 70
1
 10
202.000000
 20
426.857140
 30
0.0
 10
203.428568
 20
421.571428
 30
0.0
 10
213.142856
 20
408.142860
 30
0.0
 10
209.571432
 20
404.857140
 30
0.0
 10
208.142856
 20
401.714284
 30
0.0
 10
205.428568
 20
400.571428
 30
0.0
 10
198.142856
 20
404.000004
 30
0.0
 10
194.000000
 20
409.142860
 30
0.0
 10
188.428568
 20
409.857140
 30
0.0
 10
188.285712
 20
415.000004
 30
0.0
 10
192.000000
 20
419.000004
 30
0.0
 10
190.285712
 20
421.857140
 30
0.0
 10
202.000000
 20
426.857140
 30
0.0
  0
LWPOLYLINE
  5
106
100
AcDbEntity
  8
Layer_1
 62
7
100
AcDbPolyline
 90
9
 70
1
 10
167.142856
 20
437.714284
 30
0.0
 10
167.142856
 20
430.571428
 30
0.0
 10
164.714288
 20
422.714284
 30
0.0
 10
159.857144
 20
424.857140
 30
0.0
 10
148.142856
 20
420.000004
 30
0.0
 10
146.142856
 20
426.285716
 30
0.0
 10
150.142856
 20
431.142860
 30
0.0
 10
161.142856
 20
437.714284
 30
0.0
 10
167.142856
 20
437.714284
 30
0.0
  0
LWPOLYLINE
  5
107
100
AcDbEntity
  8
Layer_1
 62
7
100
AcDbPolyline
 90
17
 70
1
 10
179.000000
 20
392.428572
 30
0.0
 10
182.285712
 20
392.000004
 30
0.0
 10
180.571432
 20
389.285716
 30
0.0
 10
181.714288
 20
368.857140
 30
0.0
 10
180.142856
 20
363.714284
 30
0.0
 10
171.142856
 20
359.428572
 30
0.0
 10
163.714288
 20
359.428572
 30
0.0
 10
161.714288
 20
355.571428
 30
0.0
 10
159.714288
 20
357.142860
 30
0.0
 10
159.857144
 20
366.714284
 30
0.0
 10
156.857144
 20
372.571428
 30
0.0
 10
155.714288
 20
377.142860
 30
0.0
 10
161.000000
 20
382.714284
 30
0.0
 10
164.285712
 20
391.428572
 30
0.0
 10
173.000000
 20
389.571428
 30
0.0
 10
176.428568
 20
390.000004
 30
0.0
 10
179.000000
 20
392.428572
 30
0.0
  0
LWPOLYLINE
  5
108
100
AcDbEntity
  8
Layer_1
 62
7
100
AcDbPolyline
 90
15
 70
1
 10
161.571432
 20
355.428572
 30
0.0
 10
159.000000
 20
351.285716
 30
0.0
 10
159.142856
 20
343.571428
 30
0.0
 10
157.000000
 20
338.142860
 30
0.0
 10
155.428568
 20
338.571428
 30
0.0
 10
151.714288
 20
344.000004
 30
0.0
 10
129.571432
 20
353.714284
 30
0.0
 10
135.714288
 20
364.000004
 30
0.0
 10
135.142856
 20
366.142860
 30
0.0
 10
145.428568
 20
366.571428
 30
0.0
 10
148.714288
 20
364.714284
 30
0.0
 10
156.142856
 20
364.285716
 30
0.0
 10
159.714288
 20
362.142860
 30
0.0
 10
159.571432
 20
356.857140
 30
0.0
 10
161.571432
 20
355.428572
 30
0.0
  0
LWPOLYLINE
  5
109
100
AcDbEntity
  8
Layer_1
 62
7
100
AcDbPolyline
 90
15
 70
1
 10
145.142856
 20
367.285716
 30
0.0
 10
139.571432
 20
371.571428
 30
0.0
 10
139.571432
 20
374.428572
 30
0.0
 10
148.571432
 20
382.428572
 30
0.0
 10
148.857144
 20
384.571428
 30
0.0
 10
144.428568
 20
388.428572
 30
0.0
 10
143.142856
 20
393.428572
 30
0.0
 10
135.142856
 20
401.571428
 30
0.0
 10
129.428568
 20
409.571428
 30
0.0
 10
121.857144
 20
406.428572
 30
0.0
 10
116.857144
 20
401.000004
 30
0.0
 10
126.714288
 20
385.857140
 30
0.0
 10
131.428568
 20
378.285716
 30
0.0
 10
135.142856
 20
366.571428
 30
0.0
 10
145.142856
 20
367.285716
 30
0.0
  0
LWPOLYLINE
  5
10a
100
AcDbEntity
  8
Layer_1
 62
7
100
AcDbPolyline
 90
26
 70
1
 10
182.428568
 20
392.571428
 30
0.0
 10
183.000000
 20
394.571428
 30
0.0
 10
199.142856
 20
397.285716
 30
0.0
 10
207.571432
 20
395.142860
 30
0.0
 10
215.285712
 20
397.142860
 30
0.0
 10
216.285712
 20
404.571428
 30
0.0
 10
213.142856
 20
408.000004
 30
0.0
 10
209.428568
 20
404.714284
 30
0.0
 10
208.571432
 20
401.857140
 30
0.0
 10
206.000000
 20
401.000004
 30
0.0
 10
198.000000
 20
404.142860
 30
0.0
 10
194.285712
 20
409.000004
 30
0.0
 10
186.000000
 20
410.000004
 30
0.0
 10
181.285712
 20
407.000004
 30
0.0
 10
177.142856
 20
405.857140
 30
0.0
 10
167.285712
 20
406.714284
 30
0.0
 10
165.571432
 20
404.857140
 30
0.0
 10
164.714288
 20
403.714284
 30
0.0
 10
166.000000
 20
402.571428
 30
0.0
 10
170.285712
 20
403.428572
 30
0.0
 10
173.285712
 20
399.285716
 30
0.0
 10
179.142856
 20
400.142860
 30
0.0
 10
180.142856
 20
397.428572
 30
0.0
 10
179.000000
 20
396.857140
 30
0.0
 10
179.000000
 20
392.428572
 30
0.0
 10
182.428568
 20
392.571428
 30
0.0
  0
LWPOLYLINE
  5
10b
100
AcDbEntity
  8
Layer_1
 62
7
100
AcDbPolyline
 90
33
 70
1
 10
159.714288
 20
362.428572
 30
0.0
 10
160.142856
 20
367.142860
 30
0.0
 10
157.142856
 20
371.857140
 30
0.0
 10
155.428568
 20
377.142860
 30
0.0
 10
161.142856
 20
383.142860
 30
0.0
 10
164.428568
 20
392.000004
 30
0.0
 10
172.571432
 20
389.571428
 30
0.0
 10
176.714288
 20
390.428572
 30
0.0
 10
179.000000
 20
392.428572
 30
0.0
 10
178.571432
 20
396.857140
 30
0.0
 10
180.285712
 20
397.714284
 30
0.0
 10
179.142856
 20
400.000004
 30
0.0
 10
173.285712
 20
399.142860
 30
0.0
 10
170.285712
 20
403.000004
 30
0.0
 10
166.142856
 20
402.714284
 30
0.0
 10
164.857144
 20
403.428572
 30
0.0
 10
167.000000
 20
406.857140
 30
0.0
 10
170.571432
 20
406.857140
 30
0.0
 10
172.285712
 20
417.000004
 30
0.0
 10
165.000000
 20
422.142860
 30
0.0
 10
159.571432
 20
424.571428
 30
0.0
 10
135.000000
 20
413.571428
 30
0.0
 10
130.000000
 20
409.571428
 30
0.0
 10
136.428568
 20
400.142860
 30
0.0
 10
142.857144
 20
394.000004
 30
0.0
 10
145.000000
 20
387.714284
 30
0.0
 10
149.285712
 20
384.285716
 30
0.0
 10
148.428568
 20
382.285716
 30
0.0
 10
139.857144
 20
374.714284
 30
0.0
 10
139.714288
 20
372.000004
 30
0.0
 10
148.857144
 20
364.571428
 30
0.0
 10
156.428568
 20
364.000004
 30
0.0
 10
159.714288
 20
362.428572
 30
0.0
  0
ENDSEC
  0
SECTION
  2
OBJECTS
  0
DICTIONARY
  5
C
330
0
100
AcDbDictionary
  3
ACAD_GROUP
350
D
  3
ACAD_MLINESTYLE
350
17
  0
DICTIONARY
  5
D
330
C
100
AcDbDictionary
  0
DICTIONARY
  5
1A
330
C
100
AcDbDictionary
  0
DICTIONARY
  5
17
330
C
100
AcDbDictionary
  3
STANDARD
350
18
  0
DICTIONARY
  5
19
330
C
100
AcDbDictionary
  0
ENDSEC
  0
EOF
