  0
SECTION
  2
HEADER
  9
$ACADVER
  1
AC1014
  9
$HANDSEED
  5
FFFF
  9
$MEASUREMENT
 70
     1
  0
ENDSEC
  0
SECTION
  2
TABLES
  0
TABLE
  2
VPORT
  5
8
330
0
100
AcDbSymbolTable
 70
     4
  0
VPORT
  5
2E
330
8
100
AcDbSymbolTableRecord
100
AcDbViewportTableRecord
  2
*ACTIVE
 70
     0
 10
0.0
 20
0.0
 11
1.0
 21
1.0
 12
210.0
 22
148.5
 13
0.0
 23
0.0
 14
10.0
 24
10.0
 15
10.0
 25
10.0
 16
0.0
 26
0.0
 36
1.0
 17
0.0
 27
0.0
 37
0.0
 40
341.0
 41
1.24
 42
50.0
 43
0.0
 44
0.0
 50
0.0
 51
0.0
 71
     0
 72
   100
 73
     1
 74
     3
 75
     0
 76
     0
 77
     0
 78
     0
  0
ENDTAB
  0
TABLE
  2
LTYPE
  5
5
330
0
100
AcDbSymbolTable
 70
     1
  0
LTYPE
  5
14
330
5
100
AcDbSymbolTableRecord
100
AcDbLinetypeTableRecord
  2
BYBLOCK
 70
     0
  3

 72
    65
 73
     0
 40
0.0
  0
LTYPE
  5
15
330
5
100
AcDbSymbolTableRecord
100
AcDbLinetypeTableRecord
  2
BYLAYER
 70
     0
  3

 72
    65
 73
     0
 40
0.0
  0
LTYPE
  5
16
330
5
100
AcDbSymbolTableRecord
100
AcDbLinetypeTableRecord
  2
CONTINUOUS
 70
     0
  3
Solid line
 72
    65
 73
     0
 40
0.0
  0
ENDTAB
  0
TABLE
  2
LAYER
  5
2
100
AcDbSymbolTable
 70
2
  0
LAYER
  5
50
100
AcDbSymbolTableRecord
100
AcDbLayerTableRecord
  2
0
 70
0
  6
CONTINUOUS
  0
LAYER
  5
51
100
AcDbSymbolTableRecord
100
AcDbLayerTableRecord
  2
Layer_1
 70
0
  6
CONTINUOUS
  0
ENDTAB
  0
TABLE
  2
STYLE
  5
3
330
0
100
AcDbSymbolTable
 70
     1
  0
STYLE
  5
11
330
3
100
AcDbSymbolTableRecord
100
AcDbTextStyleTableRecord
  2
STANDARD
 70
     0
 40
0.0
 41
1.0
 50
0.0
 71
     0
 42
2.5
  3
txt
  4

  0
ENDTAB
  0
TABLE
  2
VIEW
  5
6
330
0
100
AcDbSymbolTable
 70
     0
  0
ENDTAB
  0
TABLE
  2
UCS
  5
7
330
0
100
AcDbSymbolTable
 70
     0
  0
ENDTAB
  0
TABLE
  2
APPID
  5
9
330
0
100
AcDbSymbolTable
 70
     2
  0
APPID
  5
12
330
9
100
AcDbSymbolTableRecord
100
AcDbRegAppTableRecord
  2
ACAD
 70
     0
  0
ENDTAB
  0
TABLE
  2
DIMSTYLE
  5
A
330
0
100
AcDbSymbolTable
 70
     1
  0
DIMSTYLE
105
27
330
A
100
AcDbSymbolTableRecord
100
AcDbDimStyleTableRecord
  2
ISO-25
 70
     0
  3

  4

  5

  6

  7

 40
1.0
 41
2.5
 42
0.625
 43
3.75
 44
1.25
 45
0.0
 46
0.0
 47
0.0
 48
0.0
140
2.5
141
2.5
142
0.0
143
0.03937007874016
144
1.0
145
0.0
146
1.0
147
0.625
 71
     0
 72
     0
 73
     0
 74
     0
 75
     0
 76
     0
 77
     1
 78
     8
170
     0
171
     3
172
     1
173
     0
174
     0
175
     0
176
     0
177
     0
178
     0
270
     2
271
     2
272
     2
273
     2
274
     3
340
11
275
     0
280
     0
281
     0
282
     0
283
     0
284
     8
285
     0
286
     0
287
     3
288
     0
  0
ENDTAB
  0
TABLE
  2
BLOCK_RECORD
  5
1
330
0
100
AcDbSymbolTable
 70
     1
  0
BLOCK_RECORD
  5
1F
330
1
100
AcDbSymbolTableRecord
100
AcDbBlockTableRecord
  2
*MODEL_SPACE
  0
BLOCK_RECORD
  5
1B
330
1
100
AcDbSymbolTableRecord
100
AcDbBlockTableRecord
  2
*PAPER_SPACE
  0
ENDTAB
  0
ENDSEC
  0
SECTION
  2
BLOCKS
  0
BLOCK
  5
20
330
1F
100
AcDbEntity
  8
0
100
AcDbBlockBegin
  2
*MODEL_SPACE
 70
     0
 10
0.0
 20
0.0
 30
0.0
  3
*MODEL_SPACE
  1

  0
ENDBLK
  5
21
330
1F
100
AcDbEntity
  8
0
100
AcDbBlockEnd
  0
BLOCK
  5
1C
330
1B
100
AcDbEntity
 67
     1
  8
0
100
AcDbBlockBegin
  2
*PAPER_SPACE
  1

  0
ENDBLK
  5
1D
330
1B
100
AcDbEntity
 67
     1
  8
0
100
AcDbBlockEnd
  0
ENDSEC
  0
SECTION
  2
ENTITIES
  0
LWPOLYLINE
  5
100
100
AcDbEntity
  8
Layer_1
 62
7
100
AcDbPolyline
 90
20
 70
1
 10
-470.285712
 20
158.857140
 30
0.0
 10
-452.000000
 20
164.000004
 30
0.0
 10
-432.571432
 20
190.857140
 30
0.0
 10
-413.714288
 20
205.142860
 30
0.0
 10
-398.857144
 20
203.428572
 30
0.0
 10
-374.857144
 20
190.285716
 30
0.0
 10
-353.714288
 20
167.428572
 30
0.0
 10
-345.142856
 20
143.428572
 30
0.0
 10
-322.857144
 20
149.714284
 30
0.0
 10
-362.857144
 20
251.428572
 30
0.0
 10
-381.714288
 20
249.142860
 30
0.0
 10
-401.142856
 20
250.285716
 30
0.0
 10
-418.285712
 20
257.142860
 30
0.0
 10
-446.857144
 20
258.857140
 30
0.0
 10
-470.857144
 20
260.571428
 30
0.0
 10
-476.000000
 20
230.857140
 30
0.0
 10
-464.571432
 20
212.571428
 30
0.0
 10
-468.000000
 20
185.142860
 30
0.0
 10
-473.142856
 20
171.428572
 30
0.0
 10
-470.285712
 20
158.857140
 30
0.0
  0
LWPOLYLINE
  5
101
100
AcDbEntity
  8
Layer_1
 62
7
100
AcDbPolyline
 90
20
 70
1
 10
-322.000000
 20
150.000004
 30
0.0
 10
-363.428576
 20
252.285716
 30
0.0
 10
-369.714288
 20
282.285716
 30
0.0
 10
-377.142856
 20
295.142860
 30
0.0
 10
-383.142856
 20
323.142860
 30
0.0
 10
-393.428576
 20
338.000004
 30
0.0
 10
-419.142856
 20
361.428572
 30
0.0
 10
-410.285712
 20
379.714284
 30
0.0
 10
-367.142856
 20
343.428572
 30
0.0
 10
-354.857144
 20
326.000004
 30
0.0
 10
-341.142856
 20
312.285716
 30
0.0
 10
-335.142856
 20
307.714284
 30
0.0
 10
-308.000000
 20
305.428572
 30
0.0
 10
-260.000000
 20
278.000004
 30
0.0
 10
-268.285712
 20
266.000004
 30
0.0
 10
-276.571432
 20
242.000004
 30
0.0
 10
-280.000000
 20
216.857140
 30
0.0
 10
-280.857144
 20
196.000004
 30
0.0
 10
-284.571432
 20
187.428572
 30
0.0
 10
-322.000000
 20
150.000004
 30
0.0
  0
LWPOLYLINE
  5
102
100
AcDbEntity
  8
Layer_1
 62
7
100
AcDbPolyline
 90
13
 70
1
 10
-471.714288
 20
260.857140
 30
0.0
 10
-419.428576
 20
258.000004
 30
0.0
 10
-403.714288
 20
251.428572
 30
0.0
 10
-382.571432
 20
249.428572
 30
0.0
 10
-364.000000
 20
252.285716
 30
0.0
 10
-370.000000
 20
282.285716
 30
0.0
 10
-378.571432
 20
295.428572
 30
0.0
 10
-384.285712
 20
324.857140
 30
0.0
 10
-395.142856
 20
338.857140
 30
0.0
 10
-418.857144
 20
360.857140
 30
0.0
 10
-441.428576
 20
329.428572
 30
0.0
 10
-458.285712
 20
310.285716
 30
0.0
 10
-471.714288
 20
260.857140
 30
0.0
  0
LWPOLYLINE
  5
103
100
AcDbEntity
  8
Layer_1
 62
7
100
AcDbPolyline
 90
19
 70
1
 10
-409.428576
 20
379.714284
 30
0.0
 10
-367.142856
 20
344.000004
 30
0.0
 10
-354.000000
 20
324.857140
 30
0.0
 10
-335.428568
 20
308.571428
 30
0.0
 10
-307.714288
 20
305.714284
 30
0.0
 10
-260.285712
 20
278.571428
 30
0.0
 10
-242.571432
 20
293.142860
 30
0.0
 10
-182.857144
 20
321.428572
 30
0.0
 10
-198.285712
 20
328.285716
 30
0.0
 10
-209.428568
 20
345.142860
 30
0.0
 10
-235.142856
 20
352.285716
 30
0.0
 10
-254.285712
 20
362.571428
 30
0.0
 10
-278.285712
 20
384.857140
 30
0.0
 10
-307.714288
 20
411.428572
 30
0.0
 10
-324.285712
 20
418.857140
 30
0.0
 10
-347.714288
 20
418.571428
 30
0.0
 10
-370.000000
 20
419.428572
 30
0.0
 10
-391.428576
 20
415.428572
 30
0.0
 10
-409.428576
 20
379.714284
 30
0.0
  0
LWPOLYLINE
  5
104
100
AcDbEntity
  8
Layer_1
 62
7
100
AcDbPolyline
 90
22
 70
1
 10
-210.000000
 20
346.571428
 30
0.0
 10
-220.571432
 20
377.714284
 30
0.0
 10
-220.857144
 20
390.285716
 30
0.0
 10
-210.000000
 20
402.285716
 30
0.0
 10
-204.000000
 20
416.285716
 30
0.0
 10
-207.142856
 20
437.714284
 30
0.0
 10
-213.142856
 20
449.714284
 30
0.0
 10
-221.428568
 20
458.285716
 30
0.0
 10
-243.142856
 20
454.000004
 30
0.0
 10
-259.142856
 20
452.000004
 30
0.0
 10
-271.714288
 20
445.142860
 30
0.0
 10
-290.000000
 20
442.857140
 30
0.0
 10
-330.000000
 20
444.857140
 30
0.0
 10
-360.571432
 20
440.857140
 30
0.0
 10
-371.428576
 20
435.714284
 30
0.0
 10
-390.000000
 20
430.571428
 30
0.0
 10
-391.142856
 20
416.285716
 30
0.0
 10
-348.857144
 20
420.285716
 30
0.0
 10
-321.428568
 20
419.142860
 30
0.0
 10
-257.428568
 20
366.000004
 30
0.0
 10
-235.142856
 20
352.857140
 30
0.0
 10
-210.000000
 20
346.571428
 30
0.0
  0
LWPOLYLINE
  5
105
100
AcDbEntity
  8
Layer_1
 62
7
100
AcDbPolyline
 90
17
 70
1
 10
-181.714288
 20
320.857140
 30
0.0
 10
-94.857144
 20
354.285716
 30
0.0
 10
-98.000000
 20
378.571428
 30
0.0
 10
-95.428568
 20
404.571428
 30
0.0
 10
-117.714288
 20
435.142860
 30
0.0
 10
-131.142856
 20
464.285716
 30
0.0
 10
-156.000000
 20
473.142860
 30
0.0
 10
-185.714288
 20
471.428572
 30
0.0
 10
-213.142856
 20
449.142860
 30
0.0
 10
-206.000000
 20
436.285716
 30
0.0
 10
-203.428568
 20
415.714284
 30
0.0
 10
-209.428568
 20
402.571428
 30
0.0
 10
-220.857144
 20
389.714284
 30
0.0
 10
-220.285712
 20
376.571428
 30
0.0
 10
-209.142856
 20
345.142860
 30
0.0
 10
-197.428568
 20
328.285716
 30
0.0
 10
-181.714288
 20
320.857140
 30
0.0
  0
LWPOLYLINE
  5
106
100
AcDbEntity
  8
Layer_1
 62
7
100
AcDbPolyline
 90
32
 70
1
 10
-29.714286
 20
320.857140
 30
0.0
 10
-21.142857
 20
317.714284
 30
0.0
 10
96.000000
 20
316.857140
 30
0.0
 10
139.142856
 20
320.857140
 30
0.0
 10
152.285712
 20
327.714284
 30
0.0
 10
168.000000
 20
360.285716
 30
0.0
 10
174.571432
 20
381.142860
 30
0.0
 10
182.857144
 20
393.428572
 30
0.0
 10
197.428568
 20
402.285716
 30
0.0
 10
204.285712
 20
401.714284
 30
0.0
 10
181.714288
 20
434.000004
 30
0.0
 10
158.571432
 20
444.857140
 30
0.0
 10
129.428568
 20
484.857140
 30
0.0
 10
118.285712
 20
504.857140
 30
0.0
 10
89.142856
 20
496.285716
 30
0.0
 10
40.000000
 20
492.857140
 30
0.0
 10
32.571429
 20
482.571428
 30
0.0
 10
17.714286
 20
480.285716
 30
0.0
 10
0.857143
 20
462.000004
 30
0.0
 10
-21.142857
 20
456.571428
 30
0.0
 10
-42.285714
 20
455.142860
 30
0.0
 10
-62.000000
 20
447.428572
 30
0.0
 10
-67.428571
 20
443.142860
 30
0.0
 10
-72.285714
 20
430.571428
 30
0.0
 10
-87.714288
 20
416.285716
 30
0.0
 10
-94.571432
 20
404.857140
 30
0.0
 10
-97.428568
 20
379.428572
 30
0.0
 10
-94.857144
 20
354.000004
 30
0.0
 10
-73.142858
 20
361.142860
 30
0.0
 10
-57.428571
 20
361.142860
 30
0.0
 10
-44.571429
 20
351.142860
 30
0.0
 10
-29.714286
 20
320.857140
 30
0.0
  0
LWPOLYLINE
  5
107
100
AcDbEntity
  8
Layer_1
 62
7
100
AcDbPolyline
 90
14
 70
1
 10
-6.571429
 20
533.142860
 30
0.0
 10
-43.142858
 20
504.571428
 30
0.0
 10
-48.000000
 20
500.285716
 30
0.0
 10
-51.714286
 20
488.000004
 30
0.0
 10
-43.428571
 20
456.571428
 30
0.0
 10
-23.142857
 20
456.571428
 30
0.0
 10
-0.571429
 20
462.571428
 30
0.0
 10
18.000000
 20
481.142860
 30
0.0
 10
32.000000
 20
483.142860
 30
0.0
 10
40.285714
 20
493.428572
 30
0.0
 10
24.285714
 20
513.714284
 30
0.0
 10
10.571429
 20
522.571428
 30
0.0
 10
1.714286
 20
523.142860
 30
0.0
 10
-6.571429
 20
533.142860
 30
0.0
  0
LWPOLYLINE
  5
108
100
AcDbEntity
  8
Layer_1
 62
7
100
AcDbPolyline
 90
17
 70
1
 10
-5.714286
 20
533.428572
 30
0.0
 10
-8.571429
 20
554.000004
 30
0.0
 10
-0.571429
 20
578.571428
 30
0.0
 10
6.857143
 20
593.142860
 30
0.0
 10
17.428571
 20
584.285716
 30
0.0
 10
32.857143
 20
579.428572
 30
0.0
 10
60.571429
 20
577.428572
 30
0.0
 10
84.285712
 20
576.285716
 30
0.0
 10
109.714288
 20
558.571428
 30
0.0
 10
110.000000
 20
542.000004
 30
0.0
 10
118.857144
 20
505.428572
 30
0.0
 10
88.285712
 20
497.142860
 30
0.0
 10
40.571429
 20
493.428572
 30
0.0
 10
26.285714
 20
513.428572
 30
0.0
 10
12.571429
 20
522.857140
 30
0.0
 10
3.142857
 20
523.714284
 30
0.0
 10
-5.714286
 20
533.428572
 30
0.0
  0
LWPOLYLINE
  5
109
100
AcDbEntity
  8
Layer_1
 62
7
100
AcDbPolyline
 90
36
 70
1
 10
6.857143
 20
593.428572
 30
0.0
 10
-6.285714
 20
564.000004
 30
0.0
 10
-9.428571
 20
552.000004
 30
0.0
 10
-6.285714
 20
533.142860
 30
0.0
 10
-48.285714
 20
501.714284
 30
0.0
 10
-52.571429
 20
488.285716
 30
0.0
 10
-43.428571
 20
456.285716
 30
0.0
 10
-67.142858
 20
445.142860
 30
0.0
 10
-72.285714
 20
431.428572
 30
0.0
 10
-86.857144
 20
418.571428
 30
0.0
 10
-94.571432
 20
405.142860
 30
0.0
 10
-115.142856
 20
431.428572
 30
0.0
 10
-131.142856
 20
464.857140
 30
0.0
 10
-157.428568
 20
474.000004
 30
0.0
 10
-186.857144
 20
471.714284
 30
0.0
 10
-212.285712
 20
450.000004
 30
0.0
 10
-221.142856
 20
458.857140
 30
0.0
 10
-219.428568
 20
468.571428
 30
0.0
 10
-200.000000
 20
494.571428
 30
0.0
 10
-200.857144
 20
506.000004
 30
0.0
 10
-208.285712
 20
523.714284
 30
0.0
 10
-208.000000
 20
536.000004
 30
0.0
 10
-216.857144
 20
539.714284
 30
0.0
 10
-223.428568
 20
550.857140
 30
0.0
 10
-225.714288
 20
564.571428
 30
0.0
 10
-213.142856
 20
586.571428
 30
0.0
 10
-200.857144
 20
621.714284
 30
0.0
 10
-192.285712
 20
596.285716
 30
0.0
 10
-184.285712
 20
583.714284
 30
0.0
 10
-182.000000
 20
580.857140
 30
0.0
 10
-171.428568
 20
578.571428
 30
0.0
 10
-149.428568
 20
590.571428
 30
0.0
 10
-60.571429
 20
658.857148
 30
0.0
 10
-42.285714
 20
651.142860
 30
0.0
 10
-30.000000
 20
628.857148
 30
0.0
 10
6.857143
 20
593.428572
 30
0.0
  0
LWPOLYLINE
  5
10a
100
AcDbEntity
  8
Layer_1
 62
7
100
AcDbPolyline
 90
25
 70
1
 10
-390.000000
 20
432.000004
 30
0.0
 10
-413.428576
 20
444.000004
 30
0.0
 10
-412.857144
 20
513.714284
 30
0.0
 10
-398.000000
 20
527.428572
 30
0.0
 10
-290.285712
 20
598.571428
 30
0.0
 10
-267.714288
 20
618.000004
 30
0.0
 10
-223.428568
 20
622.571428
 30
0.0
 10
-202.000000
 20
622.000004
 30
0.0
 10
-213.142856
 20
587.428572
 30
0.0
 10
-226.285712
 20
564.571428
 30
0.0
 10
-224.000000
 20
550.857140
 30
0.0
 10
-217.142856
 20
538.857140
 30
0.0
 10
-209.142856
 20
536.000004
 30
0.0
 10
-208.857144
 20
522.571428
 30
0.0
 10
-201.714288
 20
506.285716
 30
0.0
 10
-200.000000
 20
494.857140
 30
0.0
 10
-221.142856
 20
467.714284
 30
0.0
 10
-220.571432
 20
459.142860
 30
0.0
 10
-249.714288
 20
453.714284
 30
0.0
 10
-257.142856
 20
453.714284
 30
0.0
 10
-270.571432
 20
446.285716
 30
0.0
 10
-293.428568
 20
443.142860
 30
0.0
 10
-329.142856
 20
445.428572
 30
0.0
 10
-358.285712
 20
441.142860
 30
0.0
 10
-390.000000
 20
432.000004
 30
0.0
  0
ENDSEC
  0
SECTION
  2
OBJECTS
  0
DICTIONARY
  5
C
330
0
100
AcDbDictionary
  3
ACAD_GROUP
350
D
  3
ACAD_MLINESTYLE
350
17
  0
DICTIONARY
  5
D
330
C
100
AcDbDictionary
  0
DICTIONARY
  5
1A
330
C
100
AcDbDictionary
  0
DICTIONARY
  5
17
330
C
100
AcDbDictionary
  3
STANDARD
350
18
  0
DICTIONARY
  5
19
330
C
100
AcDbDictionary
  0
ENDSEC
  0
EOF
