  0
SECTION
  2
HEADER
  9
$ACADVER
  1
AC1014
  9
$HANDSEED
  5
FFFF
  9
$MEASUREMENT
 70
     1
  0
ENDSEC
  0
SECTION
  2
TABLES
  0
TABLE
  2
VPORT
  5
8
330
0
100
AcDbSymbolTable
 70
     4
  0
VPORT
  5
2E
330
8
100
AcDbSymbolTableRecord
100
AcDbViewportTableRecord
  2
*ACTIVE
 70
     0
 10
0.0
 20
0.0
 11
1.0
 21
1.0
 12
210.0
 22
148.5
 13
0.0
 23
0.0
 14
10.0
 24
10.0
 15
10.0
 25
10.0
 16
0.0
 26
0.0
 36
1.0
 17
0.0
 27
0.0
 37
0.0
 40
341.0
 41
1.24
 42
50.0
 43
0.0
 44
0.0
 50
0.0
 51
0.0
 71
     0
 72
   100
 73
     1
 74
     3
 75
     0
 76
     0
 77
     0
 78
     0
  0
ENDTAB
  0
TABLE
  2
LTYPE
  5
5
330
0
100
AcDbSymbolTable
 70
     1
  0
LTYPE
  5
14
330
5
100
AcDbSymbolTableRecord
100
AcDbLinetypeTableRecord
  2
BYBLOCK
 70
     0
  3

 72
    65
 73
     0
 40
0.0
  0
LTYPE
  5
15
330
5
100
AcDbSymbolTableRecord
100
AcDbLinetypeTableRecord
  2
BYLAYER
 70
     0
  3

 72
    65
 73
     0
 40
0.0
  0
LTYPE
  5
16
330
5
100
AcDbSymbolTableRecord
100
AcDbLinetypeTableRecord
  2
CONTINUOUS
 70
     0
  3
Solid line
 72
    65
 73
     0
 40
0.0
  0
ENDTAB
  0
TABLE
  2
LAYER
  5
2
100
AcDbSymbolTable
 70
2
  0
LAYER
  5
50
100
AcDbSymbolTableRecord
100
AcDbLayerTableRecord
  2
0
 70
0
  6
CONTINUOUS
  0
LAYER
  5
51
100
AcDbSymbolTableRecord
100
AcDbLayerTableRecord
  2
Layer_1
 70
0
  6
CONTINUOUS
  0
ENDTAB
  0
TABLE
  2
STYLE
  5
3
330
0
100
AcDbSymbolTable
 70
     1
  0
STYLE
  5
11
330
3
100
AcDbSymbolTableRecord
100
AcDbTextStyleTableRecord
  2
STANDARD
 70
     0
 40
0.0
 41
1.0
 50
0.0
 71
     0
 42
2.5
  3
txt
  4

  0
ENDTAB
  0
TABLE
  2
VIEW
  5
6
330
0
100
AcDbSymbolTable
 70
     0
  0
ENDTAB
  0
TABLE
  2
UCS
  5
7
330
0
100
AcDbSymbolTable
 70
     0
  0
ENDTAB
  0
TABLE
  2
APPID
  5
9
330
0
100
AcDbSymbolTable
 70
     2
  0
APPID
  5
12
330
9
100
AcDbSymbolTableRecord
100
AcDbRegAppTableRecord
  2
ACAD
 70
     0
  0
ENDTAB
  0
TABLE
  2
DIMSTYLE
  5
A
330
0
100
AcDbSymbolTable
 70
     1
  0
DIMSTYLE
105
27
330
A
100
AcDbSymbolTableRecord
100
AcDbDimStyleTableRecord
  2
ISO-25
 70
     0
  3

  4

  5

  6

  7

 40
1.0
 41
2.5
 42
0.625
 43
3.75
 44
1.25
 45
0.0
 46
0.0
 47
0.0
 48
0.0
140
2.5
141
2.5
142
0.0
143
0.03937007874016
144
1.0
145
0.0
146
1.0
147
0.625
 71
     0
 72
     0
 73
     0
 74
     0
 75
     0
 76
     0
 77
     1
 78
     8
170
     0
171
     3
172
     1
173
     0
174
     0
175
     0
176
     0
177
     0
178
     0
270
     2
271
     2
272
     2
273
     2
274
     3
340
11
275
     0
280
     0
281
     0
282
     0
283
     0
284
     8
285
     0
286
     0
287
     3
288
     0
  0
ENDTAB
  0
TABLE
  2
BLOCK_RECORD
  5
1
330
0
100
AcDbSymbolTable
 70
     1
  0
BLOCK_RECORD
  5
1F
330
1
100
AcDbSymbolTableRecord
100
AcDbBlockTableRecord
  2
*MODEL_SPACE
  0
BLOCK_RECORD
  5
1B
330
1
100
AcDbSymbolTableRecord
100
AcDbBlockTableRecord
  2
*PAPER_SPACE
  0
ENDTAB
  0
ENDSEC
  0
SECTION
  2
BLOCKS
  0
BLOCK
  5
20
330
1F
100
AcDbEntity
  8
0
100
AcDbBlockBegin
  2
*MODEL_SPACE
 70
     0
 10
0.0
 20
0.0
 30
0.0
  3
*MODEL_SPACE
  1

  0
ENDBLK
  5
21
330
1F
100
AcDbEntity
  8
0
100
AcDbBlockEnd
  0
BLOCK
  5
1C
330
1B
100
AcDbEntity
 67
     1
  8
0
100
AcDbBlockBegin
  2
*PAPER_SPACE
  1

  0
ENDBLK
  5
1D
330
1B
100
AcDbEntity
 67
     1
  8
0
100
AcDbBlockEnd
  0
ENDSEC
  0
SECTION
  2
ENTITIES
  0
LWPOLYLINE
  5
100
100
AcDbEntity
  8
Layer_1
 62
7
100
AcDbPolyline
 90
31
 70
1
 10
-235.163512
 20
179.403092
 30
0.0
 10
-176.978728
 20
181.827460
 30
0.0
 10
-165.665016
 20
198.798020
 30
0.0
 10
-161.624408
 20
237.587876
 30
0.0
 10
-151.926944
 20
246.477220
 30
0.0
 10
-93.742160
 20
244.860980
 30
0.0
 10
-62.225397
 20
237.587876
 30
0.0
 10
-5.656854
 20
237.587876
 30
0.0
 10
82.428448
 20
281.226468
 30
0.0
 10
58.992909
 20
301.429516
 30
0.0
 10
37.981736
 20
304.662004
 30
0.0
 10
7.273098
 20
338.603132
 30
0.0
 10
-4.848732
 20
359.614308
 30
0.0
 10
-7.273098
 20
373.352380
 30
0.0
 10
-63.033519
 20
353.149332
 30
0.0
 10
-81.620328
 20
352.341212
 30
0.0
 10
-94.550280
 20
345.068108
 30
0.0
 10
-106.672112
 20
332.138156
 30
0.0
 10
-124.450792
 20
318.400084
 30
0.0
 10
-164.856896
 20
299.005156
 30
0.0
 10
-173.746240
 20
298.197028
 30
0.0
 10
-210.111728
 20
308.702620
 30
0.0
 10
-212.536096
 20
294.156420
 30
0.0
 10
-228.698536
 20
296.580788
 30
0.0
 10
-238.396000
 20
302.237644
 30
0.0
 10
-257.790928
 20
259.407172
 30
0.0
 10
-259.407176
 20
248.093468
 30
0.0
 10
-247.285344
 20
231.931028
 30
0.0
 10
-239.204120
 20
227.082292
 30
0.0
 10
-235.163512
 20
205.262996
 30
0.0
 10
-235.163512
 20
179.403092
 30
0.0
  0
LWPOLYLINE
  5
101
100
AcDbEntity
  8
Layer_1
 62
7
100
AcDbPolyline
 90
27
 70
1
 10
83.236568
 20
282.034588
 30
0.0
 10
118.793936
 20
301.429516
 30
0.0
 10
109.904600
 20
325.673180
 30
0.0
 10
92.125912
 20
338.603132
 30
0.0
 10
78.387838
 20
379.817356
 30
0.0
 10
84.044688
 20
395.171676
 30
0.0
 10
122.834552
 20
443.658996
 30
0.0
 10
123.642672
 20
473.559516
 30
0.0
 10
112.328960
 20
496.995052
 30
0.0
 10
96.166520
 20
513.157492
 30
0.0
 10
90.509672
 20
483.256980
 30
0.0
 10
80.812200
 20
469.518900
 30
0.0
 10
63.033519
 20
471.135148
 30
0.0
 10
54.952298
 20
476.792004
 30
0.0
 10
33.133003
 20
484.065100
 30
0.0
 10
30.708638
 20
492.146324
 30
0.0
 10
15.354318
 20
490.530076
 30
0.0
 10
-9.697465
 20
470.327028
 30
0.0
 10
-25.859905
 20
450.932100
 30
0.0
 10
-8.889342
 20
416.182852
 30
0.0
 10
-10.505586
 20
392.747308
 30
0.0
 10
-5.656854
 20
371.736140
 30
0.0
 10
-4.848732
 20
359.614308
 30
0.0
 10
11.313709
 20
334.562524
 30
0.0
 10
40.406102
 20
302.237644
 30
0.0
 10
60.609153
 20
300.621396
 30
0.0
 10
83.236568
 20
282.034588
 30
0.0
  0
LWPOLYLINE
  5
102
100
AcDbEntity
  8
Layer_1
 62
7
100
AcDbPolyline
 90
29
 70
1
 10
-25.714286
 20
450.857140
 30
0.0
 10
8.000000
 20
486.285716
 30
0.0
 10
15.428571
 20
490.857140
 30
0.0
 10
32.000000
 20
492.571428
 30
0.0
 10
33.714286
 20
483.428572
 30
0.0
 10
57.714286
 20
476.000004
 30
0.0
 10
63.428571
 20
471.428572
 30
0.0
 10
80.571432
 20
469.714284
 30
0.0
 10
91.428568
 20
485.142860
 30
0.0
 10
97.142856
 20
514.285716
 30
0.0
 10
85.142856
 20
570.857140
 30
0.0
 10
97.142856
 20
597.714284
 30
0.0
 10
68.571429
 20
649.142860
 30
0.0
 10
32.571429
 20
645.142860
 30
0.0
 10
-28.000000
 20
697.714284
 30
0.0
 10
-38.285714
 20
649.714284
 30
0.0
 10
-42.285714
 20
635.428572
 30
0.0
 10
-57.142858
 20
612.571428
 30
0.0
 10
-56.000000
 20
600.000004
 30
0.0
 10
-33.142857
 20
576.000004
 30
0.0
 10
-35.428571
 20
573.142860
 30
0.0
 10
-47.428571
 20
562.857140
 30
0.0
 10
-57.142858
 20
543.428572
 30
0.0
 10
-60.571429
 20
524.000004
 30
0.0
 10
-72.571429
 20
516.000004
 30
0.0
 10
-70.285714
 20
497.142860
 30
0.0
 10
-76.000000
 20
482.857140
 30
0.0
 10
-36.571429
 20
477.714284
 30
0.0
 10
-25.714286
 20
450.857140
 30
0.0
  0
LWPOLYLINE
  5
103
100
AcDbEntity
  8
Layer_1
 62
7
100
AcDbPolyline
 90
24
 70
1
 10
-30.857143
 20
697.714284
 30
0.0
 10
-37.142857
 20
692.571428
 30
0.0
 10
-92.000000
 20
668.571428
 30
0.0
 10
-104.000000
 20
669.142860
 30
0.0
 10
-141.142856
 20
683.428572
 30
0.0
 10
-147.428568
 20
670.285716
 30
0.0
 10
-229.714288
 20
622.857140
 30
0.0
 10
-210.285712
 20
617.714284
 30
0.0
 10
-201.714288
 20
609.714284
 30
0.0
 10
-186.857144
 20
617.142860
 30
0.0
 10
-181.714288
 20
630.285716
 30
0.0
 10
-172.000000
 20
627.428572
 30
0.0
 10
-166.857144
 20
621.142860
 30
0.0
 10
-149.142856
 20
622.285716
 30
0.0
 10
-144.000000
 20
611.428572
 30
0.0
 10
-126.285712
 20
601.714284
 30
0.0
 10
-108.000000
 20
601.714284
 30
0.0
 10
-72.571429
 20
598.857140
 30
0.0
 10
-66.285714
 20
592.000004
 30
0.0
 10
-56.000000
 20
599.428572
 30
0.0
 10
-57.714286
 20
612.000004
 30
0.0
 10
-41.714286
 20
637.714284
 30
0.0
 10
-27.428571
 20
696.571428
 30
0.0
 10
-30.857143
 20
697.714284
 30
0.0
  0
LWPOLYLINE
  5
104
100
AcDbEntity
  8
Layer_1
 62
7
100
AcDbPolyline
 90
20
 70
1
 10
-204.571432
 20
610.857140
 30
0.0
 10
-220.000000
 20
594.285716
 30
0.0
 10
-224.000000
 20
589.142860
 30
0.0
 10
-262.857144
 20
574.285716
 30
0.0
 10
-265.714288
 20
568.571428
 30
0.0
 10
-259.428568
 20
554.857140
 30
0.0
 10
-253.142856
 20
552.571428
 30
0.0
 10
-238.857144
 20
521.714284
 30
0.0
 10
-212.000000
 20
535.428572
 30
0.0
 10
-200.000000
 20
521.714284
 30
0.0
 10
-200.571432
 20
506.285716
 30
0.0
 10
-185.714288
 20
502.285716
 30
0.0
 10
-190.285712
 20
512.000004
 30
0.0
 10
-186.857144
 20
534.285716
 30
0.0
 10
-195.428568
 20
548.571428
 30
0.0
 10
-190.285712
 20
562.285716
 30
0.0
 10
-180.571432
 20
566.857140
 30
0.0
 10
-173.714288
 20
573.714284
 30
0.0
 10
-204.000000
 20
599.428572
 30
0.0
 10
-204.571432
 20
610.857140
 30
0.0
  0
LWPOLYLINE
  5
105
100
AcDbEntity
  8
Layer_1
 62
7
100
AcDbPolyline
 90
33
 70
1
 10
-185.142856
 20
502.285716
 30
0.0
 10
-142.857144
 20
492.571428
 30
0.0
 10
-125.142856
 20
485.714284
 30
0.0
 10
-114.857144
 20
490.857140
 30
0.0
 10
-97.142856
 20
476.000004
 30
0.0
 10
-86.857144
 20
474.857140
 30
0.0
 10
-79.428571
 20
477.714284
 30
0.0
 10
-72.571429
 20
491.428572
 30
0.0
 10
-70.285714
 20
498.285716
 30
0.0
 10
-73.142858
 20
516.000004
 30
0.0
 10
-60.000000
 20
524.571428
 30
0.0
 10
-57.714286
 20
543.428572
 30
0.0
 10
-49.142857
 20
561.142860
 30
0.0
 10
-33.714286
 20
576.000004
 30
0.0
 10
-55.428571
 20
598.857140
 30
0.0
 10
-67.428571
 20
592.571428
 30
0.0
 10
-73.714286
 20
598.857140
 30
0.0
 10
-125.142856
 20
601.714284
 30
0.0
 10
-144.571432
 20
612.000004
 30
0.0
 10
-149.714288
 20
622.285716
 30
0.0
 10
-164.571432
 20
620.571428
 30
0.0
 10
-173.142856
 20
626.857140
 30
0.0
 10
-180.571432
 20
629.142860
 30
0.0
 10
-186.285712
 20
617.142860
 30
0.0
 10
-202.857144
 20
608.000004
 30
0.0
 10
-202.857144
 20
600.571428
 30
0.0
 10
-172.000000
 20
572.571428
 30
0.0
 10
-186.857144
 20
562.857140
 30
0.0
 10
-192.571432
 20
555.428572
 30
0.0
 10
-194.857144
 20
548.000004
 30
0.0
 10
-185.714288
 20
534.857140
 30
0.0
 10
-189.714288
 20
511.428572
 30
0.0
 10
-185.142856
 20
502.285716
 30
0.0
  0
LWPOLYLINE
  5
106
100
AcDbEntity
  8
Layer_1
 62
7
100
AcDbPolyline
 90
14
 70
1
 10
-240.571432
 20
522.285716
 30
0.0
 10
-300.571432
 20
493.714284
 30
0.0
 10
-306.857144
 20
491.428572
 30
0.0
 10
-312.000000
 20
483.428572
 30
0.0
 10
-338.857144
 20
469.142860
 30
0.0
 10
-329.142856
 20
495.428572
 30
0.0
 10
-334.285712
 20
521.714284
 30
0.0
 10
-317.714288
 20
553.142860
 30
0.0
 10
-312.000000
 20
573.714284
 30
0.0
 10
-274.857144
 20
562.857140
 30
0.0
 10
-265.714288
 20
566.857140
 30
0.0
 10
-258.857144
 20
553.714284
 30
0.0
 10
-252.571432
 20
551.428572
 30
0.0
 10
-240.571432
 20
522.285716
 30
0.0
  0
LWPOLYLINE
  5
107
100
AcDbEntity
  8
Layer_1
 62
7
100
AcDbPolyline
 90
29
 70
1
 10
-187.428568
 20
502.857140
 30
0.0
 10
-205.142856
 20
497.714284
 30
0.0
 10
-209.714288
 20
486.857140
 30
0.0
 10
-225.142856
 20
470.285716
 30
0.0
 10
-239.428568
 20
445.714284
 30
0.0
 10
-241.142856
 20
405.142860
 30
0.0
 10
-233.714288
 20
385.142860
 30
0.0
 10
-228.000000
 20
374.857140
 30
0.0
 10
-205.714288
 20
351.428572
 30
0.0
 10
-202.857144
 20
336.571428
 30
0.0
 10
-209.714288
 20
308.571428
 30
0.0
 10
-169.142856
 20
298.285716
 30
0.0
 10
-115.428568
 20
325.142860
 30
0.0
 10
-93.714288
 20
347.428572
 30
0.0
 10
-81.142856
 20
352.571428
 30
0.0
 10
-60.000000
 20
353.714284
 30
0.0
 10
-8.000000
 20
374.285716
 30
0.0
 10
-11.428571
 20
398.857140
 30
0.0
 10
-9.142857
 20
416.571428
 30
0.0
 10
-22.857143
 20
444.000004
 30
0.0
 10
-36.571429
 20
476.571428
 30
0.0
 10
-76.000000
 20
482.285716
 30
0.0
 10
-81.142856
 20
475.428572
 30
0.0
 10
-91.428568
 20
474.857140
 30
0.0
 10
-100.000000
 20
476.571428
 30
0.0
 10
-116.571432
 20
489.142860
 30
0.0
 10
-125.714288
 20
484.571428
 30
0.0
 10
-148.000000
 20
493.142860
 30
0.0
 10
-187.428568
 20
502.857140
 30
0.0
  0
ENDSEC
  0
SECTION
  2
OBJECTS
  0
DICTIONARY
  5
C
330
0
100
AcDbDictionary
  3
ACAD_GROUP
350
D
  3
ACAD_MLINESTYLE
350
17
  0
DICTIONARY
  5
D
330
C
100
AcDbDictionary
  0
DICTIONARY
  5
1A
330
C
100
AcDbDictionary
  0
DICTIONARY
  5
17
330
C
100
AcDbDictionary
  3
STANDARD
350
18
  0
DICTIONARY
  5
19
330
C
100
AcDbDictionary
  0
ENDSEC
  0
EOF
