  0
SECTION
  2
HEADER
  9
$ACADVER
  1
AC1014
  9
$HANDSEED
  5
FFFF
  9
$MEASUREMENT
 70
     1
  0
ENDSEC
  0
SECTION
  2
TABLES
  0
TABLE
  2
VPORT
  5
8
330
0
100
AcDbSymbolTable
 70
     4
  0
VPORT
  5
2E
330
8
100
AcDbSymbolTableRecord
100
AcDbViewportTableRecord
  2
*ACTIVE
 70
     0
 10
0.0
 20
0.0
 11
1.0
 21
1.0
 12
210.0
 22
148.5
 13
0.0
 23
0.0
 14
10.0
 24
10.0
 15
10.0
 25
10.0
 16
0.0
 26
0.0
 36
1.0
 17
0.0
 27
0.0
 37
0.0
 40
341.0
 41
1.24
 42
50.0
 43
0.0
 44
0.0
 50
0.0
 51
0.0
 71
     0
 72
   100
 73
     1
 74
     3
 75
     0
 76
     0
 77
     0
 78
     0
  0
ENDTAB
  0
TABLE
  2
LTYPE
  5
5
330
0
100
AcDbSymbolTable
 70
     1
  0
LTYPE
  5
14
330
5
100
AcDbSymbolTableRecord
100
AcDbLinetypeTableRecord
  2
BYBLOCK
 70
     0
  3

 72
    65
 73
     0
 40
0.0
  0
LTYPE
  5
15
330
5
100
AcDbSymbolTableRecord
100
AcDbLinetypeTableRecord
  2
BYLAYER
 70
     0
  3

 72
    65
 73
     0
 40
0.0
  0
LTYPE
  5
16
330
5
100
AcDbSymbolTableRecord
100
AcDbLinetypeTableRecord
  2
CONTINUOUS
 70
     0
  3
Solid line
 72
    65
 73
     0
 40
0.0
  0
ENDTAB
  0
TABLE
  2
LAYER
  5
2
100
AcDbSymbolTable
 70
2
  0
LAYER
  5
50
100
AcDbSymbolTableRecord
100
AcDbLayerTableRecord
  2
0
 70
0
  6
CONTINUOUS
  0
LAYER
  5
51
100
AcDbSymbolTableRecord
100
AcDbLayerTableRecord
  2
Layer_1
 70
0
  6
CONTINUOUS
  0
ENDTAB
  0
TABLE
  2
STYLE
  5
3
330
0
100
AcDbSymbolTable
 70
     1
  0
STYLE
  5
11
330
3
100
AcDbSymbolTableRecord
100
AcDbTextStyleTableRecord
  2
STANDARD
 70
     0
 40
0.0
 41
1.0
 50
0.0
 71
     0
 42
2.5
  3
txt
  4

  0
ENDTAB
  0
TABLE
  2
VIEW
  5
6
330
0
100
AcDbSymbolTable
 70
     0
  0
ENDTAB
  0
TABLE
  2
UCS
  5
7
330
0
100
AcDbSymbolTable
 70
     0
  0
ENDTAB
  0
TABLE
  2
APPID
  5
9
330
0
100
AcDbSymbolTable
 70
     2
  0
APPID
  5
12
330
9
100
AcDbSymbolTableRecord
100
AcDbRegAppTableRecord
  2
ACAD
 70
     0
  0
ENDTAB
  0
TABLE
  2
DIMSTYLE
  5
A
330
0
100
AcDbSymbolTable
 70
     1
  0
DIMSTYLE
105
27
330
A
100
AcDbSymbolTableRecord
100
AcDbDimStyleTableRecord
  2
ISO-25
 70
     0
  3

  4

  5

  6

  7

 40
1.0
 41
2.5
 42
0.625
 43
3.75
 44
1.25
 45
0.0
 46
0.0
 47
0.0
 48
0.0
140
2.5
141
2.5
142
0.0
143
0.03937007874016
144
1.0
145
0.0
146
1.0
147
0.625
 71
     0
 72
     0
 73
     0
 74
     0
 75
     0
 76
     0
 77
     1
 78
     8
170
     0
171
     3
172
     1
173
     0
174
     0
175
     0
176
     0
177
     0
178
     0
270
     2
271
     2
272
     2
273
     2
274
     3
340
11
275
     0
280
     0
281
     0
282
     0
283
     0
284
     8
285
     0
286
     0
287
     3
288
     0
  0
ENDTAB
  0
TABLE
  2
BLOCK_RECORD
  5
1
330
0
100
AcDbSymbolTable
 70
     1
  0
BLOCK_RECORD
  5
1F
330
1
100
AcDbSymbolTableRecord
100
AcDbBlockTableRecord
  2
*MODEL_SPACE
  0
BLOCK_RECORD
  5
1B
330
1
100
AcDbSymbolTableRecord
100
AcDbBlockTableRecord
  2
*PAPER_SPACE
  0
ENDTAB
  0
ENDSEC
  0
SECTION
  2
BLOCKS
  0
BLOCK
  5
20
330
1F
100
AcDbEntity
  8
0
100
AcDbBlockBegin
  2
*MODEL_SPACE
 70
     0
 10
0.0
 20
0.0
 30
0.0
  3
*MODEL_SPACE
  1

  0
ENDBLK
  5
21
330
1F
100
AcDbEntity
  8
0
100
AcDbBlockEnd
  0
BLOCK
  5
1C
330
1B
100
AcDbEntity
 67
     1
  8
0
100
AcDbBlockBegin
  2
*PAPER_SPACE
  1

  0
ENDBLK
  5
1D
330
1B
100
AcDbEntity
 67
     1
  8
0
100
AcDbBlockEnd
  0
ENDSEC
  0
SECTION
  2
ENTITIES
  0
LWPOLYLINE
  5
100
100
AcDbEntity
  8
Layer_1
 62
7
100
AcDbPolyline
 90
24
 70
1
 10
-103.428568
 20
812.000001
 30
0.0
 10
-184.000000
 20
740.571428
 30
0.0
 10
-195.428568
 20
728.000004
 30
0.0
 10
-207.428568
 20
711.428572
 30
0.0
 10
-228.000000
 20
698.857140
 30
0.0
 10
-199.428568
 20
642.857140
 30
0.0
 10
-179.428568
 20
639.428572
 30
0.0
 10
-154.857144
 20
666.285716
 30
0.0
 10
-142.285712
 20
672.000004
 30
0.0
 10
-121.142856
 20
673.714284
 30
0.0
 10
-100.571432
 20
668.571428
 30
0.0
 10
-89.714288
 20
663.428572
 30
0.0
 10
-65.142858
 20
634.857140
 30
0.0
 10
-44.571429
 20
636.571428
 30
0.0
 10
-2.285714
 20
654.857140
 30
0.0
 10
9.714286
 20
668.571428
 30
0.0
 10
20.571429
 20
672.571428
 30
0.0
 10
24.571429
 20
681.142860
 30
0.0
 10
-50.857143
 20
750.857140
 30
0.0
 10
-52.000000
 20
762.857144
 30
0.0
 10
-48.000000
 20
769.714286
 30
0.0
 10
-68.000000
 20
777.142858
 30
0.0
 10
-82.857144
 20
802.857144
 30
0.0
 10
-103.428568
 20
812.000001
 30
0.0
  0
LWPOLYLINE
  5
101
100
AcDbEntity
  8
Layer_1
 62
7
100
AcDbPolyline
 90
18
 70
1
 10
-228.000000
 20
698.857140
 30
0.0
 10
-199.428568
 20
641.714284
 30
0.0
 10
-186.285712
 20
640.571428
 30
0.0
 10
-201.714288
 20
625.714284
 30
0.0
 10
-234.285712
 20
581.142860
 30
0.0
 10
-252.000000
 20
574.285716
 30
0.0
 10
-291.428568
 20
576.571428
 30
0.0
 10
-299.428568
 20
593.714284
 30
0.0
 10
-316.000000
 20
617.142860
 30
0.0
 10
-320.571432
 20
627.428572
 30
0.0
 10
-320.571432
 20
637.714284
 30
0.0
 10
-309.714288
 20
645.714284
 30
0.0
 10
-294.285712
 20
651.428572
 30
0.0
 10
-288.000000
 20
663.428572
 30
0.0
 10
-285.142856
 20
679.428572
 30
0.0
 10
-262.857144
 20
690.857140
 30
0.0
 10
-244.000000
 20
693.714284
 30
0.0
 10
-228.000000
 20
698.857140
 30
0.0
  0
LWPOLYLINE
  5
102
100
AcDbEntity
  8
Layer_1
 62
7
100
AcDbPolyline
 90
11
 70
1
 10
-252.000000
 20
573.714284
 30
0.0
 10
-239.428568
 20
554.857140
 30
0.0
 10
-234.285712
 20
539.428572
 30
0.0
 10
-245.714288
 20
539.428572
 30
0.0
 10
-267.428568
 20
530.285716
 30
0.0
 10
-290.285712
 20
528.571428
 30
0.0
 10
-309.714288
 20
529.714284
 30
0.0
 10
-314.285712
 20
540.000004
 30
0.0
 10
-311.428568
 20
558.285716
 30
0.0
 10
-311.428568
 20
577.714284
 30
0.0
 10
-252.000000
 20
573.714284
 30
0.0
  0
LWPOLYLINE
  5
103
100
AcDbEntity
  8
Layer_1
 62
7
100
AcDbPolyline
 90
20
 70
1
 10
-234.285712
 20
540.000004
 30
0.0
 10
-226.285712
 20
526.857140
 30
0.0
 10
-227.428568
 20
485.142860
 30
0.0
 10
-230.285712
 20
458.285716
 30
0.0
 10
-228.000000
 20
435.428572
 30
0.0
 10
-232.000000
 20
412.000004
 30
0.0
 10
-241.714288
 20
409.142860
 30
0.0
 10
-241.142856
 20
422.285716
 30
0.0
 10
-262.857144
 20
438.285716
 30
0.0
 10
-308.000000
 20
441.142860
 30
0.0
 10
-320.000000
 20
444.000004
 30
0.0
 10
-329.714288
 20
454.857140
 30
0.0
 10
-354.285712
 20
478.857140
 30
0.0
 10
-366.285712
 20
497.142860
 30
0.0
 10
-344.000000
 20
509.142860
 30
0.0
 10
-325.714288
 20
525.142860
 30
0.0
 10
-311.428568
 20
530.285716
 30
0.0
 10
-267.428568
 20
529.142860
 30
0.0
 10
-246.857144
 20
538.285716
 30
0.0
 10
-234.285712
 20
540.000004
 30
0.0
  0
LWPOLYLINE
  5
104
100
AcDbEntity
  8
Layer_1
 62
7
100
AcDbPolyline
 90
24
 70
1
 10
-208.571432
 20
339.428572
 30
0.0
 10
-199.428568
 20
326.857140
 30
0.0
 10
-181.714288
 20
318.285716
 30
0.0
 10
-161.714288
 20
286.285716
 30
0.0
 10
-145.714288
 20
274.857140
 30
0.0
 10
-71.428571
 20
297.714284
 30
0.0
 10
-61.142858
 20
304.000004
 30
0.0
 10
-51.428571
 20
313.142860
 30
0.0
 10
-21.714286
 20
312.000004
 30
0.0
 10
-11.428571
 20
333.142860
 30
0.0
 10
-8.000000
 20
352.571428
 30
0.0
 10
-9.142857
 20
367.428572
 30
0.0
 10
-37.142857
 20
377.142860
 30
0.0
 10
-51.428571
 20
400.571428
 30
0.0
 10
-74.857143
 20
416.000004
 30
0.0
 10
-88.571432
 20
428.571428
 30
0.0
 10
-94.857144
 20
439.428572
 30
0.0
 10
-119.428568
 20
440.571428
 30
0.0
 10
-136.000000
 20
432.571428
 30
0.0
 10
-142.285712
 20
422.285716
 30
0.0
 10
-173.142856
 20
398.857140
 30
0.0
 10
-174.857144
 20
388.000004
 30
0.0
 10
-198.857144
 20
353.142860
 30
0.0
 10
-208.571432
 20
339.428572
 30
0.0
  0
LWPOLYLINE
  5
105
100
AcDbEntity
  8
Layer_1
 62
7
100
AcDbPolyline
 90
19
 70
1
 10
-7.428571
 20
367.428572
 30
0.0
 10
1.714286
 20
402.857140
 30
0.0
 10
-15.428571
 20
412.000004
 30
0.0
 10
-26.857143
 20
423.428572
 30
0.0
 10
-24.571429
 20
450.285716
 30
0.0
 10
-24.000000
 20
469.142860
 30
0.0
 10
-28.000000
 20
482.857140
 30
0.0
 10
-46.285714
 20
493.142860
 30
0.0
 10
-49.714286
 20
504.000004
 30
0.0
 10
-74.857143
 20
506.285716
 30
0.0
 10
-110.285712
 20
506.857140
 30
0.0
 10
-116.571432
 20
498.857140
 30
0.0
 10
-117.714288
 20
485.142860
 30
0.0
 10
-92.000000
 20
462.857140
 30
0.0
 10
-94.285712
 20
437.714284
 30
0.0
 10
-88.000000
 20
426.857140
 30
0.0
 10
-52.000000
 20
401.142860
 30
0.0
 10
-35.428571
 20
377.142860
 30
0.0
 10
-7.428571
 20
367.428572
 30
0.0
  0
LWPOLYLINE
  5
106
100
AcDbEntity
  8
Layer_1
 62
7
100
AcDbPolyline
 90
16
 70
1
 10
0.404061
 20
403.252900
 30
0.0
 10
12.929953
 20
447.295548
 30
0.0
 10
24.647722
 20
481.640732
 30
0.0
 10
24.243661
 20
498.207236
 30
0.0
 10
16.162441
 20
526.087444
 30
0.0
 10
13.334014
 20
543.866132
 30
0.0
 10
-1.212183
 20
545.886436
 30
0.0
 10
-50.103566
 20
520.026532
 30
0.0
 10
-49.699506
 20
503.864092
 30
0.0
 10
-45.658895
 20
492.954444
 30
0.0
 10
-27.072088
 20
481.640732
 30
0.0
 10
-23.839600
 20
467.498596
 30
0.0
 10
-26.668027
 20
422.243764
 30
0.0
 10
-13.738074
 20
410.121932
 30
0.0
 10
2.020305
 20
402.848836
 30
0.0
 10
0.404061
 20
403.252900
 30
0.0
  0
LWPOLYLINE
  5
107
100
AcDbEntity
  8
Layer_1
 62
7
100
AcDbPolyline
 90
25
 70
1
 10
13.334014
 20
545.078316
 30
0.0
 10
12.121830
 20
560.028572
 30
0.0
 10
18.182746
 20
575.382892
 30
0.0
 10
22.627417
 20
581.039748
 30
0.0
 10
54.952298
 20
593.161572
 30
0.0
 10
77.983777
 20
606.091524
 30
0.0
 10
84.448752
 20
621.849908
 30
0.0
 10
83.236568
 20
631.951436
 30
0.0
 10
24.243661
 20
681.650940
 30
0.0
 10
20.203051
 20
671.549412
 30
0.0
 10
9.697465
 20
667.912860
 30
0.0
 10
-2.020305
 20
654.982908
 30
0.0
 10
-34.749247
 20
641.244836
 30
0.0
 10
-47.679200
 20
635.587980
 30
0.0
 10
-65.861946
 20
633.971740
 30
0.0
 10
-76.367533
 20
616.193052
 30
0.0
 10
-79.195959
 20
603.667164
 30
0.0
 10
-77.175654
 20
597.202188
 30
0.0
 10
-58.184786
 20
586.292540
 30
0.0
 10
-59.801030
 20
572.554460
 30
0.0
 10
-73.539106
 20
556.796084
 30
0.0
 10
-75.155350
 20
542.249884
 30
0.0
 10
-49.699506
 20
519.622468
 30
0.0
 10
-1.616244
 20
545.078316
 30
0.0
 10
13.334014
 20
545.078316
 30
0.0
  0
LWPOLYLINE
  5
108
100
AcDbEntity
  8
Layer_1
 62
7
100
AcDbPolyline
 90
20
 70
1
 10
-74.347227
 20
556.796084
 30
0.0
 10
-103.843680
 20
552.351412
 30
0.0
 10
-136.572624
 20
549.927044
 30
0.0
 10
-154.755368
 20
560.836692
 30
0.0
 10
-160.412224
 20
566.089484
 30
0.0
 10
-166.069080
 20
584.676292
 30
0.0
 10
-167.685320
 20
601.242796
 30
0.0
 10
-173.746240
 20
612.556508
 30
0.0
 10
-181.019336
 20
640.436716
 30
0.0
 10
-155.967552
 20
665.488500
 30
0.0
 10
-141.421360
 20
671.953476
 30
0.0
 10
-120.006120
 20
673.569716
 30
0.0
 10
-90.509672
 20
664.680372
 30
0.0
 10
-64.245702
 20
634.779860
 30
0.0
 10
-76.771594
 20
615.384932
 30
0.0
 10
-78.791898
 20
602.859036
 30
0.0
 10
-76.367533
 20
595.585940
 30
0.0
 10
-58.588848
 20
586.696596
 30
0.0
 10
-58.992909
 20
572.554460
 30
0.0
 10
-74.347227
 20
556.796084
 30
0.0
  0
LWPOLYLINE
  5
109
100
AcDbEntity
  8
Layer_1
 62
7
100
AcDbPolyline
 90
37
 70
1
 10
-181.019336
 20
639.628596
 30
0.0
 10
-187.484312
 20
640.032652
 30
0.0
 10
-203.242696
 20
624.274276
 30
0.0
 10
-235.567576
 20
579.423500
 30
0.0
 10
-252.538136
 20
574.170708
 30
0.0
 10
-242.436608
 20
559.220452
 30
0.0
 10
-233.951328
 20
539.421460
 30
0.0
 10
-225.870112
 20
525.683388
 30
0.0
 10
-227.486352
 20
491.338196
 30
0.0
 10
-230.718840
 20
455.780828
 30
0.0
 10
-227.890416
 20
437.194020
 30
0.0
 10
-231.526960
 20
412.546300
 30
0.0
 10
-241.224424
 20
409.313812
 30
0.0
 10
-237.587880
 20
389.514820
 30
0.0
 10
-229.102600
 20
367.291468
 30
0.0
 10
-216.576704
 20
349.108724
 30
0.0
 10
-207.687360
 20
338.603132
 30
0.0
 10
-177.382784
 20
383.857964
 30
0.0
 10
-172.534056
 20
398.808228
 30
0.0
 10
-141.421360
 20
421.839700
 30
0.0
 10
-135.764504
 20
431.133108
 30
0.0
 10
-120.006120
 20
440.022452
 30
0.0
 10
-94.146216
 20
439.618388
 30
0.0
 10
-91.317792
 20
462.649868
 30
0.0
 10
-116.773632
 20
484.873220
 30
0.0
 10
-117.177696
 20
497.803172
 30
0.0
 10
-109.904600
 20
506.692516
 30
0.0
 10
-48.487322
 20
503.864092
 30
0.0
 10
-49.699506
 20
520.026532
 30
0.0
 10
-75.155350
 20
542.249884
 30
0.0
 10
-72.730983
 20
557.604204
 30
0.0
 10
-136.976688
 20
549.927044
 30
0.0
 10
-159.604104
 20
566.089484
 30
0.0
 10
-166.069080
 20
585.484412
 30
0.0
 10
-167.685320
 20
600.838732
 30
0.0
 10
-173.746240
 20
612.152444
 30
0.0
 10
-181.019336
 20
639.628596
 30
0.0
  0
LWPOLYLINE
  5
10a
100
AcDbEntity
  8
Layer_1
 62
7
100
AcDbPolyline
 90
14
 70
1
 10
-366.079280
 20
498.207236
 30
0.0
 10
-345.068112
 20
507.500636
 30
0.0
 10
-326.885360
 20
524.471204
 30
0.0
 10
-309.914800
 20
530.532116
 30
0.0
 10
-314.359472
 20
539.825524
 30
0.0
 10
-311.126984
 20
560.836692
 30
0.0
 10
-311.935104
 20
576.595076
 30
0.0
 10
-326.885360
 20
576.999132
 30
0.0
 10
-362.846792
 20
592.757516
 30
0.0
 10
-364.463040
 20
582.251924
 30
0.0
 10
-359.614304
 20
570.938220
 30
0.0
 10
-357.189944
 20
523.259020
 30
0.0
 10
-364.058976
 20
507.904700
 30
0.0
 10
-366.079280
 20
498.207236
 30
0.0
  0
LWPOLYLINE
  5
10b
100
AcDbEntity
  8
Layer_1
 62
7
100
AcDbPolyline
 90
14
 70
1
 10
-291.327992
 20
576.999132
 30
0.0
 10
-300.217336
 20
595.181884
 30
0.0
 10
-320.016328
 20
626.294580
 30
0.0
 10
-320.420384
 20
637.204228
 30
0.0
 10
-309.510744
 20
645.285444
 30
0.0
 10
-294.156424
 20
650.942300
 30
0.0
 10
-286.883320
 20
665.488500
 30
0.0
 10
-285.267080
 20
679.226572
 30
0.0
 10
-310.722920
 20
665.892556
 30
0.0
 10
-344.664048
 20
632.759556
 30
0.0
 10
-380.625480
 20
598.414372
 30
0.0
 10
-362.442736
 20
592.353452
 30
0.0
 10
-327.693488
 20
577.403196
 30
0.0
 10
-291.327992
 20
576.999132
 30
0.0
  0
LWPOLYLINE
  5
10c
100
AcDbEntity
  8
Layer_1
 62
7
100
AcDbPolyline
 90
19
 70
1
 10
-381.837664
 20
598.010308
 30
0.0
 10
-421.839704
 20
568.513852
 30
0.0
 10
-433.961536
 20
527.299628
 30
0.0
 10
-428.708744
 20
507.904700
 30
0.0
 10
-441.234632
 20
488.509772
 30
0.0
 10
-468.306720
 20
471.539212
 30
0.0
 10
-496.995056
 20
473.559516
 30
0.0
 10
-488.913832
 20
451.740220
 30
0.0
 10
-482.044792
 20
441.234636
 30
0.0
 10
-473.559512
 20
438.406204
 30
0.0
 10
-454.972704
 20
446.487428
 30
0.0
 10
-380.625480
 20
504.268148
 30
0.0
 10
-365.675224
 20
498.207236
 30
0.0
 10
-363.250856
 20
509.925004
 30
0.0
 10
-356.785880
 20
522.046836
 30
0.0
 10
-359.210248
 20
570.938220
 30
0.0
 10
-364.867096
 20
581.443804
 30
0.0
 10
-362.846792
 20
592.353452
 30
0.0
 10
-381.837664
 20
598.010308
 30
0.0
  0
ENDSEC
  0
SECTION
  2
OBJECTS
  0
DICTIONARY
  5
C
330
0
100
AcDbDictionary
  3
ACAD_GROUP
350
D
  3
ACAD_MLINESTYLE
350
17
  0
DICTIONARY
  5
D
330
C
100
AcDbDictionary
  0
DICTIONARY
  5
1A
330
C
100
AcDbDictionary
  0
DICTIONARY
  5
17
330
C
100
AcDbDictionary
  3
STANDARD
350
18
  0
DICTIONARY
  5
19
330
C
100
AcDbDictionary
  0
ENDSEC
  0
EOF
