  0
SECTION
  2
HEADER
  9
$ACADVER
  1
AC1014
  9
$HANDSEED
  5
FFFF
  9
$MEASUREMENT
 70
     1
  0
ENDSEC
  0
SECTION
  2
TABLES
  0
TABLE
  2
VPORT
  5
8
330
0
100
AcDbSymbolTable
 70
     4
  0
VPORT
  5
2E
330
8
100
AcDbSymbolTableRecord
100
AcDbViewportTableRecord
  2
*ACTIVE
 70
     0
 10
0.0
 20
0.0
 11
1.0
 21
1.0
 12
210.0
 22
148.5
 13
0.0
 23
0.0
 14
10.0
 24
10.0
 15
10.0
 25
10.0
 16
0.0
 26
0.0
 36
1.0
 17
0.0
 27
0.0
 37
0.0
 40
341.0
 41
1.24
 42
50.0
 43
0.0
 44
0.0
 50
0.0
 51
0.0
 71
     0
 72
   100
 73
     1
 74
     3
 75
     0
 76
     0
 77
     0
 78
     0
  0
ENDTAB
  0
TABLE
  2
LTYPE
  5
5
330
0
100
AcDbSymbolTable
 70
     1
  0
LTYPE
  5
14
330
5
100
AcDbSymbolTableRecord
100
AcDbLinetypeTableRecord
  2
BYBLOCK
 70
     0
  3

 72
    65
 73
     0
 40
0.0
  0
LTYPE
  5
15
330
5
100
AcDbSymbolTableRecord
100
AcDbLinetypeTableRecord
  2
BYLAYER
 70
     0
  3

 72
    65
 73
     0
 40
0.0
  0
LTYPE
  5
16
330
5
100
AcDbSymbolTableRecord
100
AcDbLinetypeTableRecord
  2
CONTINUOUS
 70
     0
  3
Solid line
 72
    65
 73
     0
 40
0.0
  0
ENDTAB
  0
TABLE
  2
LAYER
  5
2
100
AcDbSymbolTable
 70
2
  0
LAYER
  5
50
100
AcDbSymbolTableRecord
100
AcDbLayerTableRecord
  2
0
 70
0
  6
CONTINUOUS
  0
LAYER
  5
51
100
AcDbSymbolTableRecord
100
AcDbLayerTableRecord
  2
Layer_1
 70
0
  6
CONTINUOUS
  0
ENDTAB
  0
TABLE
  2
STYLE
  5
3
330
0
100
AcDbSymbolTable
 70
     1
  0
STYLE
  5
11
330
3
100
AcDbSymbolTableRecord
100
AcDbTextStyleTableRecord
  2
STANDARD
 70
     0
 40
0.0
 41
1.0
 50
0.0
 71
     0
 42
2.5
  3
txt
  4

  0
ENDTAB
  0
TABLE
  2
VIEW
  5
6
330
0
100
AcDbSymbolTable
 70
     0
  0
ENDTAB
  0
TABLE
  2
UCS
  5
7
330
0
100
AcDbSymbolTable
 70
     0
  0
ENDTAB
  0
TABLE
  2
APPID
  5
9
330
0
100
AcDbSymbolTable
 70
     2
  0
APPID
  5
12
330
9
100
AcDbSymbolTableRecord
100
AcDbRegAppTableRecord
  2
ACAD
 70
     0
  0
ENDTAB
  0
TABLE
  2
DIMSTYLE
  5
A
330
0
100
AcDbSymbolTable
 70
     1
  0
DIMSTYLE
105
27
330
A
100
AcDbSymbolTableRecord
100
AcDbDimStyleTableRecord
  2
ISO-25
 70
     0
  3

  4

  5

  6

  7

 40
1.0
 41
2.5
 42
0.625
 43
3.75
 44
1.25
 45
0.0
 46
0.0
 47
0.0
 48
0.0
140
2.5
141
2.5
142
0.0
143
0.03937007874016
144
1.0
145
0.0
146
1.0
147
0.625
 71
     0
 72
     0
 73
     0
 74
     0
 75
     0
 76
     0
 77
     1
 78
     8
170
     0
171
     3
172
     1
173
     0
174
     0
175
     0
176
     0
177
     0
178
     0
270
     2
271
     2
272
     2
273
     2
274
     3
340
11
275
     0
280
     0
281
     0
282
     0
283
     0
284
     8
285
     0
286
     0
287
     3
288
     0
  0
ENDTAB
  0
TABLE
  2
BLOCK_RECORD
  5
1
330
0
100
AcDbSymbolTable
 70
     1
  0
BLOCK_RECORD
  5
1F
330
1
100
AcDbSymbolTableRecord
100
AcDbBlockTableRecord
  2
*MODEL_SPACE
  0
BLOCK_RECORD
  5
1B
330
1
100
AcDbSymbolTableRecord
100
AcDbBlockTableRecord
  2
*PAPER_SPACE
  0
ENDTAB
  0
ENDSEC
  0
SECTION
  2
BLOCKS
  0
BLOCK
  5
20
330
1F
100
AcDbEntity
  8
0
100
AcDbBlockBegin
  2
*MODEL_SPACE
 70
     0
 10
0.0
 20
0.0
 30
0.0
  3
*MODEL_SPACE
  1

  0
ENDBLK
  5
21
330
1F
100
AcDbEntity
  8
0
100
AcDbBlockEnd
  0
BLOCK
  5
1C
330
1B
100
AcDbEntity
 67
     1
  8
0
100
AcDbBlockBegin
  2
*PAPER_SPACE
  1

  0
ENDBLK
  5
1D
330
1B
100
AcDbEntity
 67
     1
  8
0
100
AcDbBlockEnd
  0
ENDSEC
  0
SECTION
  2
ENTITIES
  0
LWPOLYLINE
  5
100
100
AcDbEntity
  8
Layer_1
 62
7
100
AcDbPolyline
 90
28
 70
1
 10
-52.527932
 20
714.783940
 30
0.0
 10
-58.992909
 20
699.833684
 30
0.0
 10
-82.428448
 20
682.459060
 30
0.0
 10
-104.247744
 20
667.912860
 30
0.0
 10
-113.541144
 20
657.407276
 30
0.0
 10
-118.793936
 20
645.689508
 30
0.0
 10
-122.430488
 20
627.102700
 30
0.0
 10
-130.107648
 20
609.728076
 30
0.0
 10
-102.227440
 20
601.242796
 30
0.0
 10
-77.983777
 20
595.990004
 30
0.0
 10
-69.498495
 20
587.100660
 30
0.0
 10
-71.518800
 20
574.170708
 30
0.0
 10
-82.024384
 20
561.240756
 30
0.0
 10
-80.004080
 20
555.987964
 30
0.0
 10
-71.922862
 20
553.563596
 30
0.0
 10
-41.214224
 20
556.796084
 30
0.0
 10
-30.708638
 20
560.432636
 30
0.0
 10
-22.223356
 20
556.796084
 30
0.0
 10
-18.586807
 20
564.877300
 30
0.0
 10
-8.889342
 20
573.362588
 30
0.0
 10
-2.424366
 20
588.716900
 30
0.0
 10
4.444671
 20
597.606244
 30
0.0
 10
8.081220
 20
614.980868
 30
0.0
 10
2.828427
 20
651.346364
 30
0.0
 10
4.040610
 20
659.831644
 30
0.0
 10
8.889342
 20
668.720988
 30
0.0
 10
-36.769553
 20
699.429620
 30
0.0
 10
-52.527932
 20
714.783940
 30
0.0
  0
LWPOLYLINE
  5
101
100
AcDbEntity
  8
Layer_1
 62
7
100
AcDbPolyline
 90
31
 70
1
 10
-130.915768
 20
608.515892
 30
0.0
 10
-143.441664
 20
573.766644
 30
0.0
 10
-153.543184
 20
562.856996
 30
0.0
 10
-162.028472
 20
558.008268
 30
0.0
 10
-170.109688
 20
523.663084
 30
0.0
 10
-156.371616
 20
520.430588
 30
0.0
 10
-143.441664
 20
521.642772
 30
0.0
 10
-132.936072
 20
511.137188
 30
0.0
 10
-117.581760
 20
494.570684
 30
0.0
 10
-101.823376
 20
492.550380
 30
0.0
 10
-92.934032
 20
487.701652
 30
0.0
 10
-83.640632
 20
475.579820
 30
0.0
 10
-76.367533
 20
463.457988
 30
0.0
 10
-56.972603
 20
454.972708
 30
0.0
 10
-34.749247
 20
482.448860
 30
0.0
 10
-24.647722
 20
501.035660
 30
0.0
 10
-21.819295
 20
523.663084
 30
0.0
 10
-23.031478
 20
544.270188
 30
0.0
 10
-24.243661
 20
550.331108
 30
0.0
 10
-21.819295
 20
556.392020
 30
0.0
 10
-30.708638
 20
560.836692
 30
0.0
 10
-48.487322
 20
555.987964
 30
0.0
 10
-65.457885
 20
554.371716
 30
0.0
 10
-74.751288
 20
555.179836
 30
0.0
 10
-80.004080
 20
555.179836
 30
0.0
 10
-81.620328
 20
561.240756
 30
0.0
 10
-71.518800
 20
573.362588
 30
0.0
 10
-70.306617
 20
585.888476
 30
0.0
 10
-77.175654
 20
595.585940
 30
0.0
 10
-129.703584
 20
610.132140
 30
0.0
 10
-130.915768
 20
608.515892
 30
0.0
  0
LWPOLYLINE
  5
102
100
AcDbEntity
  8
Layer_1
 62
7
100
AcDbPolyline
 90
20
 70
1
 10
-168.897504
 20
524.471204
 30
0.0
 10
-211.323912
 20
519.622468
 30
0.0
 10
-236.375696
 20
496.590988
 30
0.0
 10
-251.325952
 20
472.751388
 30
0.0
 10
-270.720880
 20
424.264068
 30
0.0
 10
-257.386872
 20
395.575740
 30
0.0
 10
-195.161472
 20
356.381820
 30
0.0
 10
-151.118824
 20
334.966588
 30
0.0
 10
-131.723888
 20
345.876228
 30
0.0
 10
-107.076168
 20
368.503652
 30
0.0
 10
-69.498495
 20
419.415340
 30
0.0
 10
-65.053824
 20
441.638692
 30
0.0
 10
-56.972603
 20
455.376764
 30
0.0
 10
-77.175654
 20
463.862052
 30
0.0
 10
-92.934032
 20
487.701652
 30
0.0
 10
-101.015256
 20
492.550380
 30
0.0
 10
-117.985816
 20
494.974748
 30
0.0
 10
-143.845720
 20
522.046836
 30
0.0
 10
-156.775672
 20
520.834652
 30
0.0
 10
-168.897504
 20
524.471204
 30
0.0
  0
LWPOLYLINE
  5
103
100
AcDbEntity
  8
Layer_1
 62
7
100
AcDbPolyline
 90
42
 70
1
 10
-151.118824
 20
334.562524
 30
0.0
 10
-133.340136
 20
326.481300
 30
0.0
 10
-102.227440
 20
316.379780
 30
0.0
 10
-108.288352
 20
293.752364
 30
0.0
 10
-49.699506
 20
240.820364
 30
0.0
 10
-37.173614
 20
243.244732
 30
0.0
 10
-22.223356
 20
242.032548
 30
0.0
 10
-10.909647
 20
232.739148
 30
0.0
 10
4.040610
 20
208.091428
 30
0.0
 10
21.011173
 20
187.888372
 30
0.0
 10
32.324882
 20
193.141164
 30
0.0
 10
38.385797
 20
203.646756
 30
0.0
 10
40.406102
 20
219.809196
 30
0.0
 10
44.446712
 20
231.122900
 30
0.0
 10
50.911688
 20
235.567572
 30
0.0
 10
40.810163
 20
251.730012
 30
0.0
 10
36.769553
 20
265.468092
 30
0.0
 10
39.193918
 20
288.095508
 30
0.0
 10
46.062956
 20
320.420388
 30
0.0
 10
34.345186
 20
357.998060
 30
0.0
 10
34.749247
 20
383.049844
 30
0.0
 10
21.819295
 20
395.575740
 30
0.0
 10
15.758380
 20
415.374724
 30
0.0
 10
15.354318
 20
431.133108
 30
0.0
 10
21.819295
 20
450.528036
 30
0.0
 10
47.275139
 20
503.460028
 30
0.0
 10
48.891383
 20
515.581860
 30
0.0
 10
56.568542
 20
529.319932
 30
0.0
 10
68.690373
 20
544.674252
 30
0.0
 10
32.324882
 20
543.866132
 30
0.0
 10
6.060915
 20
550.735172
 30
0.0
 10
-19.394929
 20
561.644812
 30
0.0
 10
-24.647722
 20
550.331108
 30
0.0
 10
-21.819295
 20
524.471204
 30
0.0
 10
-25.455844
 20
497.803172
 30
0.0
 10
-35.557370
 20
481.236676
 30
0.0
 10
-58.184786
 20
454.568644
 30
0.0
 10
-65.053824
 20
441.234636
 30
0.0
 10
-69.902556
 20
418.607212
 30
0.0
 10
-107.076168
 20
368.907708
 30
0.0
 10
-131.319832
 20
345.876228
 30
0.0
 10
-151.118824
 20
334.562524
 30
0.0
  0
LWPOLYLINE
  5
104
100
AcDbEntity
  8
Layer_1
 62
7
100
AcDbPolyline
 90
24
 70
1
 10
8.485282
 20
669.529108
 30
0.0
 10
54.952298
 20
678.418452
 30
0.0
 10
90.105608
 20
668.316924
 30
0.0
 10
100.611192
 20
640.840772
 30
0.0
 10
136.572624
 20
611.344324
 30
0.0
 10
121.218304
 20
580.635684
 30
0.0
 10
177.786848
 20
536.593036
 30
0.0
 10
168.493448
 20
512.753436
 30
0.0
 10
154.755368
 20
518.006228
 30
0.0
 10
130.107648
 20
517.602164
 30
0.0
 10
113.541144
 20
520.430588
 30
0.0
 10
101.823376
 20
526.087444
 30
0.0
 10
85.256872
 20
544.674252
 30
0.0
 10
32.728942
 20
543.866132
 30
0.0
 10
0.808122
 20
552.351412
 30
0.0
 10
-19.798990
 20
561.240756
 30
0.0
 10
-18.990868
 20
565.281364
 30
0.0
 10
-8.485282
 20
574.574772
 30
0.0
 10
-4.040610
 20
588.716900
 30
0.0
 10
3.232488
 20
597.202188
 30
0.0
 10
7.273098
 20
615.788996
 30
0.0
 10
2.424366
 20
651.750420
 30
0.0
 10
4.848732
 20
663.064132
 30
0.0
 10
8.485282
 20
669.529108
 30
0.0
  0
LWPOLYLINE
  5
105
100
AcDbEntity
  8
Layer_1
 62
7
100
AcDbPolyline
 90
22
 70
1
 10
68.690373
 20
543.866132
 30
0.0
 10
57.376665
 20
530.532116
 30
0.0
 10
48.891383
 20
515.177796
 30
0.0
 10
46.467017
 20
503.055972
 30
0.0
 10
21.011173
 20
450.932100
 30
0.0
 10
14.950258
 20
431.537164
 30
0.0
 10
16.162441
 20
412.142236
 30
0.0
 10
22.223356
 20
395.979796
 30
0.0
 10
35.557370
 20
382.645788
 30
0.0
 10
50.507627
 20
405.677260
 30
0.0
 10
81.620328
 20
438.810268
 30
0.0
 10
103.439624
 20
452.952404
 30
0.0
 10
132.532016
 20
459.417380
 30
0.0
 10
158.391920
 20
466.286412
 30
0.0
 10
159.604104
 20
488.509772
 30
0.0
 10
168.493448
 20
512.753436
 30
0.0
 10
154.351312
 20
518.814348
 30
0.0
 10
133.340136
 20
518.410284
 30
0.0
 10
117.581760
 20
520.026532
 30
0.0
 10
101.419312
 20
526.491508
 30
0.0
 10
84.852816
 20
545.886436
 30
0.0
 10
68.690373
 20
543.866132
 30
0.0
  0
LWPOLYLINE
  5
106
100
AcDbEntity
  8
Layer_1
 62
7
100
AcDbPolyline
 90
32
 70
1
 10
157.987856
 20
466.286412
 30
0.0
 10
102.227440
 20
452.952404
 30
0.0
 10
81.620328
 20
438.002148
 30
0.0
 10
51.315750
 20
408.101628
 30
0.0
 10
34.345186
 20
382.241724
 30
0.0
 10
34.749247
 20
357.189940
 30
0.0
 10
46.062956
 20
320.016324
 30
0.0
 10
38.789858
 20
283.650836
 30
0.0
 10
36.769553
 20
263.447788
 30
0.0
 10
40.810163
 20
249.305652
 30
0.0
 10
51.719810
 20
235.163516
 30
0.0
 10
90.509672
 20
229.910716
 30
0.0
 10
106.268048
 20
243.648796
 30
0.0
 10
107.884288
 20
256.578748
 30
0.0
 10
117.985816
 20
268.296516
 30
0.0
 10
124.046736
 20
292.540180
 30
0.0
 10
149.098512
 20
306.682316
 30
0.0
 10
141.825416
 20
339.815316
 30
0.0
 10
166.877200
 20
340.623436
 30
0.0
 10
176.170608
 20
342.239684
 30
0.0
 10
166.473136
 20
361.634612
 30
0.0
 10
163.240648
 20
387.494516
 30
0.0
 10
181.019336
 20
398.404164
 30
0.0
 10
193.141168
 20
411.334116
 30
0.0
 10
190.716800
 20
429.112804
 30
0.0
 10
193.949288
 20
442.850876
 30
0.0
 10
214.152336
 20
462.245804
 30
0.0
 10
218.192952
 20
475.579820
 30
0.0
 10
208.091424
 20
481.236676
 30
0.0
 10
181.423400
 20
459.417380
 30
0.0
 10
166.069080
 20
456.588948
 30
0.0
 10
157.987856
 20
466.286412
 30
0.0
  0
ENDSEC
  0
SECTION
  2
OBJECTS
  0
DICTIONARY
  5
C
330
0
100
AcDbDictionary
  3
ACAD_GROUP
350
D
  3
ACAD_MLINESTYLE
350
17
  0
DICTIONARY
  5
D
330
C
100
AcDbDictionary
  0
DICTIONARY
  5
1A
330
C
100
AcDbDictionary
  0
DICTIONARY
  5
17
330
C
100
AcDbDictionary
  3
STANDARD
350
18
  0
DICTIONARY
  5
19
330
C
100
AcDbDictionary
  0
ENDSEC
  0
EOF
