  0
SECTION
  2
HEADER
  9
$ACADVER
  1
AC1014
  9
$HANDSEED
  5
FFFF
  9
$MEASUREMENT
 70
     1
  0
ENDSEC
  0
SECTION
  2
TABLES
  0
TABLE
  2
VPORT
  5
8
330
0
100
AcDbSymbolTable
 70
     4
  0
VPORT
  5
2E
330
8
100
AcDbSymbolTableRecord
100
AcDbViewportTableRecord
  2
*ACTIVE
 70
     0
 10
0.0
 20
0.0
 11
1.0
 21
1.0
 12
210.0
 22
148.5
 13
0.0
 23
0.0
 14
10.0
 24
10.0
 15
10.0
 25
10.0
 16
0.0
 26
0.0
 36
1.0
 17
0.0
 27
0.0
 37
0.0
 40
341.0
 41
1.24
 42
50.0
 43
0.0
 44
0.0
 50
0.0
 51
0.0
 71
     0
 72
   100
 73
     1
 74
     3
 75
     0
 76
     0
 77
     0
 78
     0
  0
ENDTAB
  0
TABLE
  2
LTYPE
  5
5
330
0
100
AcDbSymbolTable
 70
     1
  0
LTYPE
  5
14
330
5
100
AcDbSymbolTableRecord
100
AcDbLinetypeTableRecord
  2
BYBLOCK
 70
     0
  3

 72
    65
 73
     0
 40
0.0
  0
LTYPE
  5
15
330
5
100
AcDbSymbolTableRecord
100
AcDbLinetypeTableRecord
  2
BYLAYER
 70
     0
  3

 72
    65
 73
     0
 40
0.0
  0
LTYPE
  5
16
330
5
100
AcDbSymbolTableRecord
100
AcDbLinetypeTableRecord
  2
CONTINUOUS
 70
     0
  3
Solid line
 72
    65
 73
     0
 40
0.0
  0
ENDTAB
  0
TABLE
  2
LAYER
  5
2
100
AcDbSymbolTable
 70
2
  0
LAYER
  5
50
100
AcDbSymbolTableRecord
100
AcDbLayerTableRecord
  2
0
 70
0
  6
CONTINUOUS
  0
LAYER
  5
51
100
AcDbSymbolTableRecord
100
AcDbLayerTableRecord
  2
Layer_1
 70
0
  6
CONTINUOUS
  0
ENDTAB
  0
TABLE
  2
STYLE
  5
3
330
0
100
AcDbSymbolTable
 70
     1
  0
STYLE
  5
11
330
3
100
AcDbSymbolTableRecord
100
AcDbTextStyleTableRecord
  2
STANDARD
 70
     0
 40
0.0
 41
1.0
 50
0.0
 71
     0
 42
2.5
  3
txt
  4

  0
ENDTAB
  0
TABLE
  2
VIEW
  5
6
330
0
100
AcDbSymbolTable
 70
     0
  0
ENDTAB
  0
TABLE
  2
UCS
  5
7
330
0
100
AcDbSymbolTable
 70
     0
  0
ENDTAB
  0
TABLE
  2
APPID
  5
9
330
0
100
AcDbSymbolTable
 70
     2
  0
APPID
  5
12
330
9
100
AcDbSymbolTableRecord
100
AcDbRegAppTableRecord
  2
ACAD
 70
     0
  0
ENDTAB
  0
TABLE
  2
DIMSTYLE
  5
A
330
0
100
AcDbSymbolTable
 70
     1
  0
DIMSTYLE
105
27
330
A
100
AcDbSymbolTableRecord
100
AcDbDimStyleTableRecord
  2
ISO-25
 70
     0
  3

  4

  5

  6

  7

 40
1.0
 41
2.5
 42
0.625
 43
3.75
 44
1.25
 45
0.0
 46
0.0
 47
0.0
 48
0.0
140
2.5
141
2.5
142
0.0
143
0.03937007874016
144
1.0
145
0.0
146
1.0
147
0.625
 71
     0
 72
     0
 73
     0
 74
     0
 75
     0
 76
     0
 77
     1
 78
     8
170
     0
171
     3
172
     1
173
     0
174
     0
175
     0
176
     0
177
     0
178
     0
270
     2
271
     2
272
     2
273
     2
274
     3
340
11
275
     0
280
     0
281
     0
282
     0
283
     0
284
     8
285
     0
286
     0
287
     3
288
     0
  0
ENDTAB
  0
TABLE
  2
BLOCK_RECORD
  5
1
330
0
100
AcDbSymbolTable
 70
     1
  0
BLOCK_RECORD
  5
1F
330
1
100
AcDbSymbolTableRecord
100
AcDbBlockTableRecord
  2
*MODEL_SPACE
  0
BLOCK_RECORD
  5
1B
330
1
100
AcDbSymbolTableRecord
100
AcDbBlockTableRecord
  2
*PAPER_SPACE
  0
ENDTAB
  0
ENDSEC
  0
SECTION
  2
BLOCKS
  0
BLOCK
  5
20
330
1F
100
AcDbEntity
  8
0
100
AcDbBlockBegin
  2
*MODEL_SPACE
 70
     0
 10
0.0
 20
0.0
 30
0.0
  3
*MODEL_SPACE
  1

  0
ENDBLK
  5
21
330
1F
100
AcDbEntity
  8
0
100
AcDbBlockEnd
  0
BLOCK
  5
1C
330
1B
100
AcDbEntity
 67
     1
  8
0
100
AcDbBlockBegin
  2
*PAPER_SPACE
  1

  0
ENDBLK
  5
1D
330
1B
100
AcDbEntity
 67
     1
  8
0
100
AcDbBlockEnd
  0
ENDSEC
  0
SECTION
  2
ENTITIES
  0
LWPOLYLINE
  5
100
100
AcDbEntity
  8
Layer_1
 62
7
100
AcDbPolyline
 90
21
 70
1
 10
156.775672
 20
622.658028
 30
0.0
 10
173.746240
 20
642.861084
 30
0.0
 10
185.868072
 20
651.346364
 30
0.0
 10
220.617320
 20
665.892556
 30
0.0
 10
241.628488
 20
680.034692
 30
0.0
 10
255.770624
 20
701.449932
 30
0.0
 10
259.407176
 20
712.359572
 30
0.0
 10
153.947248
 20
747.512884
 30
0.0
 10
146.674152
 20
756.806284
 30
0.0
 10
130.915768
 20
754.381924
 30
0.0
 10
124.046736
 20
749.129132
 30
0.0
 10
87.681240
 20
694.580892
 30
0.0
 10
64.649763
 20
647.305748
 30
0.0
 10
67.478190
 20
635.183924
 30
0.0
 10
87.277176
 20
622.658028
 30
0.0
 10
92.125912
 20
631.547372
 30
0.0
 10
107.076168
 20
638.416412
 30
0.0
 10
119.602064
 20
638.416412
 30
0.0
 10
136.168560
 20
628.314884
 30
0.0
 10
145.057904
 20
623.466148
 30
0.0
 10
156.775672
 20
622.658028
 30
0.0
  0
LWPOLYLINE
  5
101
100
AcDbEntity
  8
Layer_1
 62
7
100
AcDbPolyline
 90
35
 70
1
 10
86.873120
 20
622.658028
 30
0.0
 10
84.852816
 20
602.859036
 30
0.0
 10
80.004080
 20
596.798124
 30
0.0
 10
68.690373
 20
591.949396
 30
0.0
 10
71.922862
 20
576.191012
 30
0.0
 10
80.408144
 20
566.493548
 30
0.0
 10
83.236568
 20
560.432636
 30
0.0
 10
82.832512
 20
544.674252
 30
0.0
 10
85.660936
 20
535.380852
 30
0.0
 10
90.913728
 20
530.532116
 30
0.0
 10
98.186824
 20
528.915876
 30
0.0
 10
103.843680
 20
534.168668
 30
0.0
 10
111.924904
 20
532.148364
 30
0.0
 10
114.753328
 20
524.875260
 30
0.0
 10
115.965512
 20
511.945308
 30
0.0
 10
126.067040
 20
486.489468
 30
0.0
 10
122.430488
 20
474.367636
 30
0.0
 10
123.238608
 20
463.862052
 30
0.0
 10
127.683280
 20
450.932100
 30
0.0
 10
140.613232
 20
458.205196
 30
0.0
 10
161.220344
 20
467.902660
 30
0.0
 10
165.260960
 20
472.751388
 30
0.0
 10
178.999032
 20
474.771700
 30
0.0
 10
214.152336
 20
489.317892
 30
0.0
 10
194.353352
 20
521.238716
 30
0.0
 10
178.999032
 20
550.331108
 30
0.0
 10
173.342176
 20
581.443804
 30
0.0
 10
165.260960
 20
595.181884
 30
0.0
 10
170.109688
 20
608.919956
 30
0.0
 10
156.775672
 20
623.062092
 30
0.0
 10
145.866024
 20
623.466148
 30
0.0
 10
121.218304
 20
638.820468
 30
0.0
 10
107.884288
 20
639.628596
 30
0.0
 10
92.529976
 20
632.355492
 30
0.0
 10
86.873120
 20
622.658028
 30
0.0
  0
SPLINE
  5
102
100
AcDbEntity
  8
Layer_1
 62
7
100
AcDbSpline
 70
8
 71
3
 72
8
 73
4
 74
0
 40
0
 40
0
 40
0
 40
0
 40
1
 40
1
 40
1
 40
1
 10
179.285712
 20
475.857148
 30
0.0
 10
178.714288
 20
475.857148
 30
0.0
 10
165.142856
 20
473.714284
 30
0.0
 10
165.142856
 20
473.714284
 30
0.0
  0
LWPOLYLINE
  5
103
100
AcDbEntity
  8
Layer_1
 62
7
100
AcDbPolyline
 90
34
 70
1
 10
67.074129
 20
591.949396
 30
0.0
 10
28.284271
 20
578.211316
 30
0.0
 10
10.101526
 20
575.382892
 30
0.0
 10
18.586807
 20
559.220452
 30
0.0
 10
15.758380
 20
527.299628
 30
0.0
 10
14.142136
 20
515.985924
 30
0.0
 10
15.354318
 20
503.864092
 30
0.0
 10
20.203051
 20
485.277284
 30
0.0
 10
25.455844
 20
456.588948
 30
0.0
 10
38.385797
 20
429.112804
 30
0.0
 10
51.315750
 20
427.496556
 30
0.0
 10
60.205092
 20
431.133108
 30
0.0
 10
75.559410
 20
424.264068
 30
0.0
 10
90.105608
 20
425.072188
 30
0.0
 10
97.378704
 20
428.708740
 30
0.0
 10
108.288352
 20
428.708740
 30
0.0
 10
126.067040
 20
439.214324
 30
0.0
 10
128.491400
 20
451.336156
 30
0.0
 10
124.046736
 20
465.478292
 30
0.0
 10
123.238608
 20
475.175756
 30
0.0
 10
128.087344
 20
486.893524
 30
0.0
 10
117.177696
 20
510.329068
 30
0.0
 10
117.177696
 20
524.875260
 30
0.0
 10
111.520840
 20
532.956484
 30
0.0
 10
105.055864
 20
536.188972
 30
0.0
 10
98.994952
 20
531.340236
 30
0.0
 10
92.934032
 20
530.936180
 30
0.0
 10
86.772104
 20
535.986940
 30
0.0
 10
83.741648
 20
544.371204
 30
0.0
 10
84.347736
 20
560.129588
 30
0.0
 10
81.620328
 20
566.796596
 30
0.0
 10
72.933014
 20
576.595076
 30
0.0
 10
69.700526
 20
592.353452
 30
0.0
 10
67.074129
 20
591.949396
 30
0.0
  0
LWPOLYLINE
  5
104
100
AcDbEntity
  8
Layer_1
 62
7
100
AcDbPolyline
 90
35
 70
1
 10
165.142856
 20
473.714284
 30
0.0
 10
161.142856
 20
468.571428
 30
0.0
 10
136.428568
 20
456.714284
 30
0.0
 10
127.142856
 20
451.571428
 30
0.0
 10
125.428568
 20
439.571428
 30
0.0
 10
109.142856
 20
430.000004
 30
0.0
 10
97.285712
 20
429.571428
 30
0.0
 10
90.285712
 20
425.857140
 30
0.0
 10
75.714286
 20
424.571428
 30
0.0
 10
74.428571
 20
416.000004
 30
0.0
 10
69.571429
 20
407.142860
 30
0.0
 10
69.571429
 20
399.000004
 30
0.0
 10
77.285714
 20
392.142860
 30
0.0
 10
87.428568
 20
387.571428
 30
0.0
 10
95.571432
 20
388.285716
 30
0.0
 10
99.285712
 20
400.285716
 30
0.0
 10
109.571432
 20
409.714284
 30
0.0
 10
122.714288
 20
406.857140
 30
0.0
 10
121.142856
 20
398.000004
 30
0.0
 10
113.571432
 20
391.714284
 30
0.0
 10
110.285712
 20
382.714284
 30
0.0
 10
113.285712
 20
373.428572
 30
0.0
 10
119.857144
 20
366.857140
 30
0.0
 10
136.571432
 20
365.571428
 30
0.0
 10
165.428568
 20
366.857140
 30
0.0
 10
164.571432
 20
381.285716
 30
0.0
 10
169.857144
 20
393.000004
 30
0.0
 10
170.000000
 20
403.142860
 30
0.0
 10
174.714288
 20
412.428572
 30
0.0
 10
187.428568
 20
427.142860
 30
0.0
 10
185.142856
 20
436.571428
 30
0.0
 10
185.428568
 20
449.000004
 30
0.0
 10
187.428568
 20
456.571428
 30
0.0
 10
179.428568
 20
467.142860
 30
0.0
 10
179.285712
 20
475.857148
 30
0.0
  0
LWPOLYLINE
  5
105
100
AcDbEntity
  8
Layer_1
 62
7
100
AcDbPolyline
 90
53
 70
1
 10
38.000000
 20
429.428572
 30
0.0
 10
51.000000
 20
428.000004
 30
0.0
 10
59.142858
 20
432.000004
 30
0.0
 10
76.142858
 20
425.000004
 30
0.0
 10
74.857143
 20
415.571428
 30
0.0
 10
70.142858
 20
407.142860
 30
0.0
 10
70.285714
 20
399.000004
 30
0.0
 10
77.857143
 20
392.714284
 30
0.0
 10
87.571432
 20
388.714284
 30
0.0
 10
94.142856
 20
389.285716
 30
0.0
 10
98.428568
 20
400.428572
 30
0.0
 10
109.428568
 20
410.285716
 30
0.0
 10
124.000000
 20
407.285716
 30
0.0
 10
121.428568
 20
397.428572
 30
0.0
 10
113.857144
 20
390.714284
 30
0.0
 10
111.142856
 20
382.428572
 30
0.0
 10
114.000000
 20
374.142860
 30
0.0
 10
120.285712
 20
367.714284
 30
0.0
 10
165.428568
 20
367.428572
 30
0.0
 10
169.285712
 20
360.571428
 30
0.0
 10
177.714288
 20
360.142860
 30
0.0
 10
197.857144
 20
348.857140
 30
0.0
 10
198.428568
 20
334.857140
 30
0.0
 10
208.428568
 20
319.142860
 30
0.0
 10
208.285712
 20
307.857140
 30
0.0
 10
202.714288
 20
297.142860
 30
0.0
 10
196.571432
 20
287.714284
 30
0.0
 10
194.285712
 20
282.857140
 30
0.0
 10
193.571432
 20
274.000004
 30
0.0
 10
182.857144
 20
268.714284
 30
0.0
 10
171.571432
 20
267.142860
 30
0.0
 10
157.714288
 20
265.428572
 30
0.0
 10
141.428568
 20
256.714284
 30
0.0
 10
140.285712
 20
227.571428
 30
0.0
 10
129.428568
 20
227.428572
 30
0.0
 10
118.571432
 20
223.571428
 30
0.0
 10
102.285712
 20
207.285716
 30
0.0
 10
37.285714
 20
199.857140
 30
0.0
 10
17.857143
 20
190.428572
 30
0.0
 10
16.142857
 20
205.857140
 30
0.0
 10
31.285714
 20
222.000004
 30
0.0
 10
62.428571
 20
242.285716
 30
0.0
 10
42.000000
 20
266.428572
 30
0.0
 10
33.285714
 20
280.000004
 30
0.0
 10
31.285714
 20
292.714284
 30
0.0
 10
25.857143
 20
303.571428
 30
0.0
 10
24.714286
 20
319.142860
 30
0.0
 10
-8.571429
 20
328.142860
 30
0.0
 10
-8.428571
 20
335.857140
 30
0.0
 10
33.428571
 20
361.285716
 30
0.0
 10
51.285714
 20
395.714284
 30
0.0
 10
44.714286
 20
418.857140
 30
0.0
 10
38.000000
 20
429.428572
 30
0.0
  0
LWPOLYLINE
  5
106
100
AcDbEntity
  8
Layer_1
 62
7
100
AcDbPolyline
 90
16
 70
1
 10
203.285712
 20
297.714284
 30
0.0
 10
195.000000
 20
285.428572
 30
0.0
 10
193.000000
 20
274.428572
 30
0.0
 10
183.714288
 20
269.571428
 30
0.0
 10
158.714288
 20
266.285716
 30
0.0
 10
140.571432
 20
257.000004
 30
0.0
 10
139.571432
 20
228.285716
 30
0.0
 10
161.000000
 20
225.428572
 30
0.0
 10
212.285712
 20
224.714284
 30
0.0
 10
210.714288
 20
238.714284
 30
0.0
 10
217.142856
 20
259.428572
 30
0.0
 10
213.142856
 20
265.428572
 30
0.0
 10
210.428568
 20
277.857140
 30
0.0
 10
210.571432
 20
285.571428
 30
0.0
 10
216.571432
 20
295.714284
 30
0.0
 10
203.285712
 20
297.714284
 30
0.0
  0
LWPOLYLINE
  5
107
100
AcDbEntity
  8
Layer_1
 62
7
100
AcDbPolyline
 90
38
 70
1
 10
212.000000
 20
225.142860
 30
0.0
 10
210.857144
 20
239.142860
 30
0.0
 10
216.571432
 20
259.000004
 30
0.0
 10
212.857144
 20
264.571428
 30
0.0
 10
209.857144
 20
276.000004
 30
0.0
 10
209.571432
 20
285.000004
 30
0.0
 10
216.000000
 20
294.857140
 30
0.0
 10
201.857144
 20
297.142860
 30
0.0
 10
207.857144
 20
308.285716
 30
0.0
 10
207.857144
 20
318.000004
 30
0.0
 10
198.142856
 20
333.571428
 30
0.0
 10
198.285712
 20
348.285716
 30
0.0
 10
208.857144
 20
348.000004
 30
0.0
 10
213.000000
 20
340.142860
 30
0.0
 10
219.142856
 20
333.857140
 30
0.0
 10
233.142856
 20
340.857140
 30
0.0
 10
251.428568
 20
343.285716
 30
0.0
 10
271.428576
 20
344.714284
 30
0.0
 10
278.714288
 20
354.000004
 30
0.0
 10
282.571432
 20
356.142860
 30
0.0
 10
293.428576
 20
354.285716
 30
0.0
 10
321.857144
 20
338.714284
 30
0.0
 10
341.571432
 20
337.857140
 30
0.0
 10
361.000000
 20
346.000004
 30
0.0
 10
357.714288
 20
328.857140
 30
0.0
 10
357.142856
 20
319.857140
 30
0.0
 10
360.285712
 20
312.857140
 30
0.0
 10
358.857144
 20
300.714284
 30
0.0
 10
364.428576
 20
285.714284
 30
0.0
 10
361.857144
 20
265.142860
 30
0.0
 10
344.857144
 20
250.857140
 30
0.0
 10
331.142856
 20
241.857140
 30
0.0
 10
323.285712
 20
240.714284
 30
0.0
 10
311.428576
 20
242.714284
 30
0.0
 10
295.142856
 20
248.714284
 30
0.0
 10
281.571432
 20
249.714284
 30
0.0
 10
249.142856
 20
228.285716
 30
0.0
 10
212.000000
 20
225.142860
 30
0.0
  0
LWPOLYLINE
  5
108
100
AcDbEntity
  8
Layer_1
 62
7
100
AcDbPolyline
 90
18
 70
1
 10
213.714288
 20
489.857148
 30
0.0
 10
233.142856
 20
506.142860
 30
0.0
 10
233.714288
 20
518.857148
 30
0.0
 10
238.285712
 20
528.285716
 30
0.0
 10
244.714288
 20
535.000004
 30
0.0
 10
231.714288
 20
541.285716
 30
0.0
 10
218.571432
 20
554.285716
 30
0.0
 10
214.000000
 20
560.142860
 30
0.0
 10
211.142856
 20
571.142860
 30
0.0
 10
189.285712
 20
596.428572
 30
0.0
 10
170.428568
 20
609.142860
 30
0.0
 10
164.857144
 20
595.428572
 30
0.0
 10
169.714288
 20
586.285716
 30
0.0
 10
172.714288
 20
581.000004
 30
0.0
 10
177.571432
 20
552.571428
 30
0.0
 10
179.714288
 20
547.428572
 30
0.0
 10
196.428568
 20
516.571428
 30
0.0
 10
213.714288
 20
489.857148
 30
0.0
  0
LWPOLYLINE
  5
109
100
AcDbEntity
  8
Layer_1
 62
7
100
AcDbPolyline
 90
10
 70
1
 10
189.714288
 20
597.142860
 30
0.0
 10
214.857144
 20
595.285716
 30
0.0
 10
226.571432
 20
593.857148
 30
0.0
 10
260.285712
 20
582.571428
 30
0.0
 10
281.428576
 20
572.285716
 30
0.0
 10
244.571432
 20
534.571428
 30
0.0
 10
232.000000
 20
540.571428
 30
0.0
 10
213.428568
 20
559.000004
 30
0.0
 10
210.142856
 20
570.428572
 30
0.0
 10
189.714288
 20
597.142860
 30
0.0
  0
LWPOLYLINE
  5
10a
100
AcDbEntity
  8
Layer_1
 62
7
100
AcDbPolyline
 90
14
 70
1
 10
233.285712
 20
506.428572
 30
0.0
 10
233.000000
 20
519.285716
 30
0.0
 10
237.857144
 20
528.428572
 30
0.0
 10
281.285712
 20
573.142860
 30
0.0
 10
317.857144
 20
568.571428
 30
0.0
 10
317.857144
 20
561.285716
 30
0.0
 10
332.142856
 20
522.000004
 30
0.0
 10
309.571432
 20
520.857148
 30
0.0
 10
300.428576
 20
522.857148
 30
0.0
 10
292.714288
 20
528.000004
 30
0.0
 10
272.000000
 20
509.000004
 30
0.0
 10
262.285712
 20
506.142860
 30
0.0
 10
237.285712
 20
508.142860
 30
0.0
 10
233.285712
 20
506.428572
 30
0.0
  0
LWPOLYLINE
  5
10b
100
AcDbEntity
  8
Layer_1
 62
7
100
AcDbPolyline
 90
25
 70
1
 10
317.571432
 20
568.428572
 30
0.0
 10
279.571432
 20
572.571428
 30
0.0
 10
259.142856
 20
582.000004
 30
0.0
 10
225.714288
 20
593.000004
 30
0.0
 10
187.857144
 20
596.285716
 30
0.0
 10
169.571432
 20
608.285716
 30
0.0
 10
155.714288
 20
622.714284
 30
0.0
 10
174.142856
 20
644.428572
 30
0.0
 10
184.857144
 20
651.428572
 30
0.0
 10
219.000000
 20
665.857148
 30
0.0
 10
241.000000
 20
680.714284
 30
0.0
 10
254.714288
 20
701.428572
 30
0.0
 10
258.857144
 20
712.714284
 30
0.0
 10
267.571432
 20
718.428572
 30
0.0
 10
273.714288
 20
735.714284
 30
0.0
 10
279.285712
 20
731.714284
 30
0.0
 10
285.714288
 20
720.714284
 30
0.0
 10
292.285712
 20
704.285716
 30
0.0
 10
295.428576
 20
686.428572
 30
0.0
 10
298.857144
 20
670.285716
 30
0.0
 10
303.857144
 20
663.428572
 30
0.0
 10
336.142856
 20
666.571428
 30
0.0
 10
337.714288
 20
648.142860
 30
0.0
 10
324.285712
 20
611.857148
 30
0.0
 10
317.571432
 20
568.428572
 30
0.0
  0
LWPOLYLINE
  5
10c
100
AcDbEntity
  8
Layer_1
 62
7
100
AcDbPolyline
 90
13
 70
1
 10
360.220400
 20
312.137140
 30
0.0
 10
367.089432
 20
316.985868
 30
0.0
 10
393.151368
 20
317.389932
 30
0.0
 10
400.424472
 20
318.400084
 30
0.0
 10
408.303656
 20
322.642724
 30
0.0
 10
412.546296
 20
364.463036
 30
0.0
 10
418.203152
 20
375.574716
 30
0.0
 10
395.373704
 20
364.665068
 30
0.0
 10
383.251880
 20
355.977756
 30
0.0
 10
360.624456
 20
345.674204
 30
0.0
 10
357.391968
 20
329.713788
 30
0.0
 10
356.785880
 20
319.410236
 30
0.0
 10
360.220400
 20
312.137140
 30
0.0
  0
LWPOLYLINE
  5
10d
100
AcDbEntity
  8
Layer_1
 62
7
100
AcDbPolyline
 90
22
 70
1
 10
360.624456
 20
346.078260
 30
0.0
 10
384.262032
 20
355.573700
 30
0.0
 10
395.777768
 20
364.058980
 30
0.0
 10
418.809248
 20
376.382836
 30
0.0
 10
441.032600
 20
407.495540
 30
0.0
 10
447.093520
 20
428.910772
 30
0.0
 10
449.719912
 20
462.649868
 30
0.0
 10
444.871184
 20
472.145300
 30
0.0
 10
408.505688
 20
490.328044
 30
0.0
 10
385.676240
 20
495.580836
 30
0.0
 10
375.978776
 20
490.934140
 30
0.0
 10
372.544256
 20
485.479316
 30
0.0
 10
373.150352
 20
478.004188
 30
0.0
 10
362.240704
 20
460.427532
 30
0.0
 10
350.118872
 20
454.164588
 30
0.0
 10
341.431560
 20
445.073212
 30
0.0
 10
340.825472
 20
402.242748
 30
0.0
 10
346.078264
 20
393.555436
 30
0.0
 10
345.068112
 20
370.523956
 30
0.0
 10
355.371664
 20
360.624460
 30
0.0
 10
358.806184
 20
355.977756
 30
0.0
 10
360.624456
 20
346.078260
 30
0.0
  0
LWPOLYLINE
  5
10e
100
AcDbEntity
  8
Layer_1
 62
7
100
AcDbPolyline
 90
49
 70
1
 10
385.676240
 20
495.176780
 30
0.0
 10
377.190960
 20
491.136172
 30
0.0
 10
373.352384
 20
485.479316
 30
0.0
 10
374.362536
 20
477.802156
 30
0.0
 10
362.846792
 20
459.821436
 30
0.0
 10
351.331056
 20
454.164588
 30
0.0
 10
341.431560
 20
444.467124
 30
0.0
 10
341.633592
 20
402.848836
 30
0.0
 10
346.280296
 20
394.363556
 30
0.0
 10
345.472168
 20
370.321924
 30
0.0
 10
355.977760
 20
361.634612
 30
0.0
 10
360.018368
 20
355.775724
 30
0.0
 10
361.230552
 20
344.866076
 30
0.0
 10
342.845776
 20
337.390948
 30
0.0
 10
322.440696
 20
337.795012
 30
0.0
 10
293.550328
 20
352.947300
 30
0.0
 10
282.842712
 20
354.765572
 30
0.0
 10
279.610224
 20
352.745268
 30
0.0
 10
272.943216
 20
344.462020
 30
0.0
 10
232.537120
 20
339.815316
 30
0.0
 10
219.809192
 20
333.350340
 30
0.0
 10
211.727976
 20
339.613284
 30
0.0
 10
209.101576
 20
347.088412
 30
0.0
 10
197.181776
 20
347.492476
 30
0.0
 10
177.584816
 20
359.210244
 30
0.0
 10
169.503600
 20
359.412276
 30
0.0
 10
164.250808
 20
367.291468
 30
0.0
 10
164.048776
 20
382.443756
 30
0.0
 10
169.705624
 20
393.151372
 30
0.0
 10
169.503600
 20
403.050868
 30
0.0
 10
173.948272
 20
413.354420
 30
0.0
 10
186.272128
 20
427.496556
 30
0.0
 10
183.645736
 20
435.981836
 30
0.0
 10
184.453856
 20
449.315852
 30
0.0
 10
186.272128
 20
455.982860
 30
0.0
 10
179.403096
 20
465.680324
 30
0.0
 10
178.797000
 20
475.781852
 30
0.0
 10
213.546248
 20
491.338196
 30
0.0
 10
236.981784
 20
509.722972
 30
0.0
 10
262.437632
 20
506.894548
 30
0.0
 10
271.529008
 20
509.722972
 30
0.0
 10
292.742208
 20
529.521964
 30
0.0
 10
301.227488
 20
523.865108
 30
0.0
 10
313.551352
 20
521.440748
 30
0.0
 10
331.936128
 20
522.854956
 30
0.0
 10
337.592984
 20
507.500636
 30
0.0
 10
344.462016
 20
502.247844
 30
0.0
 10
371.938168
 20
498.409268
 30
0.0
 10
385.676240
 20
495.176780
 30
0.0
  0
ENDSEC
  0
SECTION
  2
OBJECTS
  0
DICTIONARY
  5
C
330
0
100
AcDbDictionary
  3
ACAD_GROUP
350
D
  3
ACAD_MLINESTYLE
350
17
  0
DICTIONARY
  5
D
330
C
100
AcDbDictionary
  0
DICTIONARY
  5
1A
330
C
100
AcDbDictionary
  0
DICTIONARY
  5
17
330
C
100
AcDbDictionary
  3
STANDARD
350
18
  0
DICTIONARY
  5
19
330
C
100
AcDbDictionary
  0
ENDSEC
  0
EOF
