  0
SECTION
  2
HEADER
  9
$ACADVER
  1
AC1014
  9
$HANDSEED
  5
FFFF
  9
$MEASUREMENT
 70
     1
  0
ENDSEC
  0
SECTION
  2
TABLES
  0
TABLE
  2
VPORT
  5
8
330
0
100
AcDbSymbolTable
 70
     4
  0
VPORT
  5
2E
330
8
100
AcDbSymbolTableRecord
100
AcDbViewportTableRecord
  2
*ACTIVE
 70
     0
 10
0.0
 20
0.0
 11
1.0
 21
1.0
 12
210.0
 22
148.5
 13
0.0
 23
0.0
 14
10.0
 24
10.0
 15
10.0
 25
10.0
 16
0.0
 26
0.0
 36
1.0
 17
0.0
 27
0.0
 37
0.0
 40
341.0
 41
1.24
 42
50.0
 43
0.0
 44
0.0
 50
0.0
 51
0.0
 71
     0
 72
   100
 73
     1
 74
     3
 75
     0
 76
     0
 77
     0
 78
     0
  0
ENDTAB
  0
TABLE
  2
LTYPE
  5
5
330
0
100
AcDbSymbolTable
 70
     1
  0
LTYPE
  5
14
330
5
100
AcDbSymbolTableRecord
100
AcDbLinetypeTableRecord
  2
BYBLOCK
 70
     0
  3

 72
    65
 73
     0
 40
0.0
  0
LTYPE
  5
15
330
5
100
AcDbSymbolTableRecord
100
AcDbLinetypeTableRecord
  2
BYLAYER
 70
     0
  3

 72
    65
 73
     0
 40
0.0
  0
LTYPE
  5
16
330
5
100
AcDbSymbolTableRecord
100
AcDbLinetypeTableRecord
  2
CONTINUOUS
 70
     0
  3
Solid line
 72
    65
 73
     0
 40
0.0
  0
ENDTAB
  0
TABLE
  2
LAYER
  5
2
100
AcDbSymbolTable
 70
2
  0
LAYER
  5
50
100
AcDbSymbolTableRecord
100
AcDbLayerTableRecord
  2
0
 70
0
  6
CONTINUOUS
  0
LAYER
  5
51
100
AcDbSymbolTableRecord
100
AcDbLayerTableRecord
  2
Layer_1
 70
0
  6
CONTINUOUS
  0
ENDTAB
  0
TABLE
  2
STYLE
  5
3
330
0
100
AcDbSymbolTable
 70
     1
  0
STYLE
  5
11
330
3
100
AcDbSymbolTableRecord
100
AcDbTextStyleTableRecord
  2
STANDARD
 70
     0
 40
0.0
 41
1.0
 50
0.0
 71
     0
 42
2.5
  3
txt
  4

  0
ENDTAB
  0
TABLE
  2
VIEW
  5
6
330
0
100
AcDbSymbolTable
 70
     0
  0
ENDTAB
  0
TABLE
  2
UCS
  5
7
330
0
100
AcDbSymbolTable
 70
     0
  0
ENDTAB
  0
TABLE
  2
APPID
  5
9
330
0
100
AcDbSymbolTable
 70
     2
  0
APPID
  5
12
330
9
100
AcDbSymbolTableRecord
100
AcDbRegAppTableRecord
  2
ACAD
 70
     0
  0
ENDTAB
  0
TABLE
  2
DIMSTYLE
  5
A
330
0
100
AcDbSymbolTable
 70
     1
  0
DIMSTYLE
105
27
330
A
100
AcDbSymbolTableRecord
100
AcDbDimStyleTableRecord
  2
ISO-25
 70
     0
  3

  4

  5

  6

  7

 40
1.0
 41
2.5
 42
0.625
 43
3.75
 44
1.25
 45
0.0
 46
0.0
 47
0.0
 48
0.0
140
2.5
141
2.5
142
0.0
143
0.03937007874016
144
1.0
145
0.0
146
1.0
147
0.625
 71
     0
 72
     0
 73
     0
 74
     0
 75
     0
 76
     0
 77
     1
 78
     8
170
     0
171
     3
172
     1
173
     0
174
     0
175
     0
176
     0
177
     0
178
     0
270
     2
271
     2
272
     2
273
     2
274
     3
340
11
275
     0
280
     0
281
     0
282
     0
283
     0
284
     8
285
     0
286
     0
287
     3
288
     0
  0
ENDTAB
  0
TABLE
  2
BLOCK_RECORD
  5
1
330
0
100
AcDbSymbolTable
 70
     1
  0
BLOCK_RECORD
  5
1F
330
1
100
AcDbSymbolTableRecord
100
AcDbBlockTableRecord
  2
*MODEL_SPACE
  0
BLOCK_RECORD
  5
1B
330
1
100
AcDbSymbolTableRecord
100
AcDbBlockTableRecord
  2
*PAPER_SPACE
  0
ENDTAB
  0
ENDSEC
  0
SECTION
  2
BLOCKS
  0
BLOCK
  5
20
330
1F
100
AcDbEntity
  8
0
100
AcDbBlockBegin
  2
*MODEL_SPACE
 70
     0
 10
0.0
 20
0.0
 30
0.0
  3
*MODEL_SPACE
  1

  0
ENDBLK
  5
21
330
1F
100
AcDbEntity
  8
0
100
AcDbBlockEnd
  0
BLOCK
  5
1C
330
1B
100
AcDbEntity
 67
     1
  8
0
100
AcDbBlockBegin
  2
*PAPER_SPACE
  1

  0
ENDBLK
  5
1D
330
1B
100
AcDbEntity
 67
     1
  8
0
100
AcDbBlockEnd
  0
ENDSEC
  0
SECTION
  2
ENTITIES
  0
LWPOLYLINE
  5
100
100
AcDbEntity
  8
Layer_1
 62
7
100
AcDbPolyline
 90
15
 70
1
 10
-64.000000
 20
673.714284
 30
0.0
 10
-58.285714
 20
690.285716
 30
0.0
 10
-62.285714
 20
702.857140
 30
0.0
 10
-45.714286
 20
718.857140
 30
0.0
 10
40.000000
 20
732.000004
 30
0.0
 10
50.857143
 20
728.571428
 30
0.0
 10
53.142857
 20
700.000004
 30
0.0
 10
26.857143
 20
683.428572
 30
0.0
 10
-5.714286
 20
653.714284
 30
0.0
 10
-10.857143
 20
645.714284
 30
0.0
 10
-17.714286
 20
644.000004
 30
0.0
 10
-37.714286
 20
655.428572
 30
0.0
 10
-44.571429
 20
663.428572
 30
0.0
 10
-58.285714
 20
667.428572
 30
0.0
 10
-64.000000
 20
673.714284
 30
0.0
  0
LWPOLYLINE
  5
101
100
AcDbEntity
  8
Layer_1
 62
7
100
AcDbPolyline
 90
24
 70
1
 10
-12.000000
 20
645.714284
 30
0.0
 10
-6.857143
 20
639.428572
 30
0.0
 10
0.000000
 20
636.000004
 30
0.0
 10
-0.571429
 20
626.285716
 30
0.0
 10
-9.142857
 20
617.714284
 30
0.0
 10
-12.000000
 20
601.714284
 30
0.0
 10
-11.428571
 20
586.285716
 30
0.0
 10
-17.714286
 20
567.428572
 30
0.0
 10
-29.142857
 20
538.857140
 30
0.0
 10
-21.714286
 20
513.714284
 30
0.0
 10
-29.714286
 20
513.142860
 30
0.0
 10
-43.428571
 20
517.142860
 30
0.0
 10
-58.285714
 20
582.857140
 30
0.0
 10
-121.142856
 20
622.285716
 30
0.0
 10
-127.428568
 20
634.285716
 30
0.0
 10
-121.142856
 20
653.142860
 30
0.0
 10
-113.142856
 20
663.428572
 30
0.0
 10
-69.714286
 20
663.428572
 30
0.0
 10
-64.571429
 20
674.285716
 30
0.0
 10
-56.000000
 20
665.714284
 30
0.0
 10
-45.142857
 20
664.000004
 30
0.0
 10
-32.000000
 20
651.428572
 30
0.0
 10
-16.571429
 20
644.000004
 30
0.0
 10
-12.000000
 20
645.714284
 30
0.0
  0
LWPOLYLINE
  5
102
100
AcDbEntity
  8
Layer_1
 62
7
100
AcDbPolyline
 90
11
 70
1
 10
-10.857143
 20
645.142860
 30
0.0
 10
-4.000000
 20
656.571428
 30
0.0
 10
26.857143
 20
682.857140
 30
0.0
 10
53.714286
 20
700.571428
 30
0.0
 10
47.428571
 20
627.428572
 30
0.0
 10
42.285714
 20
616.571428
 30
0.0
 10
32.000000
 20
608.000004
 30
0.0
 10
31.428571
 20
619.428572
 30
0.0
 10
0.000000
 20
626.857140
 30
0.0
 10
0.000000
 20
636.571428
 30
0.0
 10
-10.857143
 20
645.142860
 30
0.0
  0
LWPOLYLINE
  5
103
100
AcDbEntity
  8
Layer_1
 62
7
100
AcDbPolyline
 90
18
 70
1
 10
-21.142857
 20
513.714284
 30
0.0
 10
-29.142857
 20
538.857140
 30
0.0
 10
-9.714286
 20
588.000004
 30
0.0
 10
-12.000000
 20
603.428572
 30
0.0
 10
-7.428571
 20
618.285716
 30
0.0
 10
-0.571429
 20
627.428572
 30
0.0
 10
30.857143
 20
619.428572
 30
0.0
 10
32.000000
 20
606.285716
 30
0.0
 10
37.714286
 20
597.142860
 30
0.0
 10
61.714286
 20
587.428572
 30
0.0
 10
60.571429
 20
568.571428
 30
0.0
 10
57.142858
 20
555.428572
 30
0.0
 10
35.428571
 20
524.000004
 30
0.0
 10
30.857143
 20
510.857140
 30
0.0
 10
16.000000
 20
512.571428
 30
0.0
 10
-2.285714
 20
519.428572
 30
0.0
 10
-13.714286
 20
514.857140
 30
0.0
 10
-21.142857
 20
513.714284
 30
0.0
  0
LWPOLYLINE
  5
104
100
AcDbEntity
  8
Layer_1
 62
7
100
AcDbPolyline
 90
28
 70
1
 10
-45.142857
 20
517.142860
 30
0.0
 10
-25.714286
 20
513.142860
 30
0.0
 10
-2.857143
 20
520.000004
 30
0.0
 10
17.714286
 20
512.000004
 30
0.0
 10
32.000000
 20
510.857140
 30
0.0
 10
26.857143
 20
493.714284
 30
0.0
 10
32.571429
 20
459.428572
 30
0.0
 10
41.142857
 20
443.428572
 30
0.0
 10
40.000000
 20
421.714284
 30
0.0
 10
27.428571
 20
406.285716
 30
0.0
 10
-8.000000
 20
386.857140
 30
0.0
 10
-16.000000
 20
373.714284
 30
0.0
 10
-13.142857
 20
364.571428
 30
0.0
 10
-25.714286
 20
370.285716
 30
0.0
 10
-46.285714
 20
368.571428
 30
0.0
 10
-45.142857
 20
376.000004
 30
0.0
 10
-58.857143
 20
376.000004
 30
0.0
 10
-73.142858
 20
381.142860
 30
0.0
 10
-74.285714
 20
387.428572
 30
0.0
 10
-96.571432
 20
384.000004
 30
0.0
 10
-88.000000
 20
400.000004
 30
0.0
 10
-68.571429
 20
424.571428
 30
0.0
 10
-65.142858
 20
440.571428
 30
0.0
 10
-65.714286
 20
461.142860
 30
0.0
 10
-69.142858
 20
468.000004
 30
0.0
 10
-44.000000
 20
482.857140
 30
0.0
 10
-41.714286
 20
492.000004
 30
0.0
 10
-45.142857
 20
517.142860
 30
0.0
  0
LWPOLYLINE
  5
105
100
AcDbEntity
  8
Layer_1
 62
7
100
AcDbPolyline
 90
14
 70
1
 10
-121.142856
 20
371.428572
 30
0.0
 10
-105.714288
 20
378.285716
 30
0.0
 10
-102.285712
 20
382.857140
 30
0.0
 10
-95.428568
 20
385.142860
 30
0.0
 10
-84.571432
 20
404.000004
 30
0.0
 10
-69.142858
 20
424.571428
 30
0.0
 10
-65.142858
 20
443.428572
 30
0.0
 10
-66.857143
 20
462.285716
 30
0.0
 10
-69.714286
 20
468.571428
 30
0.0
 10
-106.857144
 20
450.285716
 30
0.0
 10
-114.857144
 20
450.285716
 30
0.0
 10
-130.285712
 20
442.285716
 30
0.0
 10
-129.714288
 20
388.000004
 30
0.0
 10
-121.142856
 20
371.428572
 30
0.0
  0
LWPOLYLINE
  5
106
100
AcDbEntity
  8
Layer_1
 62
7
100
AcDbPolyline
 90
23
 70
1
 10
-176.571432
 20
275.428572
 30
0.0
 10
-160.571432
 20
305.714284
 30
0.0
 10
-137.714288
 20
318.285716
 30
0.0
 10
-117.142856
 20
336.571428
 30
0.0
 10
-114.857144
 20
364.000004
 30
0.0
 10
-120.571432
 20
370.857140
 30
0.0
 10
-104.571432
 20
378.857140
 30
0.0
 10
-102.285712
 20
383.428572
 30
0.0
 10
-73.142858
 20
388.000004
 30
0.0
 10
-72.571429
 20
381.142860
 30
0.0
 10
-60.571429
 20
376.571428
 30
0.0
 10
-44.571429
 20
376.571428
 30
0.0
 10
-45.142857
 20
368.571428
 30
0.0
 10
-49.142857
 20
364.000004
 30
0.0
 10
-57.142858
 20
352.571428
 30
0.0
 10
-77.714286
 20
315.428572
 30
0.0
 10
-92.571432
 20
301.714284
 30
0.0
 10
-92.000000
 20
289.142860
 30
0.0
 10
-106.285712
 20
273.142860
 30
0.0
 10
-122.857144
 20
265.714284
 30
0.0
 10
-140.571432
 20
266.285716
 30
0.0
 10
-156.571432
 20
274.285716
 30
0.0
 10
-176.571432
 20
275.428572
 30
0.0
  0
LWPOLYLINE
  5
107
100
AcDbEntity
  8
Layer_1
 62
7
100
AcDbPolyline
 90
18
 70
1
 10
-178.285712
 20
276.571428
 30
0.0
 10
-187.428568
 20
259.428572
 30
0.0
 10
-197.714288
 20
254.857140
 30
0.0
 10
-209.714288
 20
255.428572
 30
0.0
 10
-205.142856
 20
220.571428
 30
0.0
 10
-198.857144
 20
206.285716
 30
0.0
 10
-184.571432
 20
200.571428
 30
0.0
 10
-134.857144
 20
200.000004
 30
0.0
 10
-121.714288
 20
206.857140
 30
0.0
 10
-124.000000
 20
217.142860
 30
0.0
 10
-122.285712
 20
234.857140
 30
0.0
 10
-140.000000
 20
237.714284
 30
0.0
 10
-143.428568
 20
244.571428
 30
0.0
 10
-131.428568
 20
253.142860
 30
0.0
 10
-130.285712
 20
266.285716
 30
0.0
 10
-142.285712
 20
266.285716
 30
0.0
 10
-158.285712
 20
274.285716
 30
0.0
 10
-178.285712
 20
276.571428
 30
0.0
  0
LWPOLYLINE
  5
108
100
AcDbEntity
  8
Layer_1
 62
7
100
AcDbPolyline
 90
28
 70
1
 10
-120.571432
 20
207.428572
 30
0.0
 10
-31.428571
 20
217.142860
 30
0.0
 10
-22.285714
 20
217.714284
 30
0.0
 10
-4.571429
 20
228.000004
 30
0.0
 10
-9.714286
 20
242.285716
 30
0.0
 10
-0.000000
 20
254.285716
 30
0.0
 10
-14.285714
 20
278.285716
 30
0.0
 10
-16.571429
 20
300.000004
 30
0.0
 10
-13.142857
 20
324.571428
 30
0.0
 10
-9.142857
 20
338.857140
 30
0.0
 10
-0.571429
 20
344.000004
 30
0.0
 10
1.142857
 20
353.714284
 30
0.0
 10
-12.571429
 20
365.714284
 30
0.0
 10
-24.571429
 20
369.714284
 30
0.0
 10
-45.142857
 20
368.000004
 30
0.0
 10
-61.142858
 20
347.428572
 30
0.0
 10
-77.714286
 20
316.000004
 30
0.0
 10
-91.428568
 20
302.285716
 30
0.0
 10
-92.000000
 20
289.714284
 30
0.0
 10
-104.571432
 20
274.285716
 30
0.0
 10
-119.428568
 20
267.428572
 30
0.0
 10
-129.714288
 20
267.428572
 30
0.0
 10
-131.428568
 20
253.142860
 30
0.0
 10
-144.000000
 20
245.142860
 30
0.0
 10
-138.857144
 20
237.142860
 30
0.0
 10
-122.285712
 20
233.714284
 30
0.0
 10
-124.000000
 20
217.714284
 30
0.0
 10
-120.571432
 20
207.428572
 30
0.0
  0
ENDSEC
  0
SECTION
  2
OBJECTS
  0
DICTIONARY
  5
C
330
0
100
AcDbDictionary
  3
ACAD_GROUP
350
D
  3
ACAD_MLINESTYLE
350
17
  0
DICTIONARY
  5
D
330
C
100
AcDbDictionary
  0
DICTIONARY
  5
1A
330
C
100
AcDbDictionary
  0
DICTIONARY
  5
17
330
C
100
AcDbDictionary
  3
STANDARD
350
18
  0
DICTIONARY
  5
19
330
C
100
AcDbDictionary
  0
ENDSEC
  0
EOF
