  0
SECTION
  2
HEADER
  9
$ACADVER
  1
AC1014
  9
$HANDSEED
  5
FFFF
  9
$MEASUREMENT
 70
     1
  0
ENDSEC
  0
SECTION
  2
TABLES
  0
TABLE
  2
VPORT
  5
8
330
0
100
AcDbSymbolTable
 70
     4
  0
VPORT
  5
2E
330
8
100
AcDbSymbolTableRecord
100
AcDbViewportTableRecord
  2
*ACTIVE
 70
     0
 10
0.0
 20
0.0
 11
1.0
 21
1.0
 12
210.0
 22
148.5
 13
0.0
 23
0.0
 14
10.0
 24
10.0
 15
10.0
 25
10.0
 16
0.0
 26
0.0
 36
1.0
 17
0.0
 27
0.0
 37
0.0
 40
341.0
 41
1.24
 42
50.0
 43
0.0
 44
0.0
 50
0.0
 51
0.0
 71
     0
 72
   100
 73
     1
 74
     3
 75
     0
 76
     0
 77
     0
 78
     0
  0
ENDTAB
  0
TABLE
  2
LTYPE
  5
5
330
0
100
AcDbSymbolTable
 70
     1
  0
LTYPE
  5
14
330
5
100
AcDbSymbolTableRecord
100
AcDbLinetypeTableRecord
  2
BYBLOCK
 70
     0
  3

 72
    65
 73
     0
 40
0.0
  0
LTYPE
  5
15
330
5
100
AcDbSymbolTableRecord
100
AcDbLinetypeTableRecord
  2
BYLAYER
 70
     0
  3

 72
    65
 73
     0
 40
0.0
  0
LTYPE
  5
16
330
5
100
AcDbSymbolTableRecord
100
AcDbLinetypeTableRecord
  2
CONTINUOUS
 70
     0
  3
Solid line
 72
    65
 73
     0
 40
0.0
  0
ENDTAB
  0
TABLE
  2
LAYER
  5
2
100
AcDbSymbolTable
 70
2
  0
LAYER
  5
50
100
AcDbSymbolTableRecord
100
AcDbLayerTableRecord
  2
0
 70
0
  6
CONTINUOUS
  0
LAYER
  5
51
100
AcDbSymbolTableRecord
100
AcDbLayerTableRecord
  2
Layer_1
 70
0
  6
CONTINUOUS
  0
ENDTAB
  0
TABLE
  2
STYLE
  5
3
330
0
100
AcDbSymbolTable
 70
     1
  0
STYLE
  5
11
330
3
100
AcDbSymbolTableRecord
100
AcDbTextStyleTableRecord
  2
STANDARD
 70
     0
 40
0.0
 41
1.0
 50
0.0
 71
     0
 42
2.5
  3
txt
  4

  0
ENDTAB
  0
TABLE
  2
VIEW
  5
6
330
0
100
AcDbSymbolTable
 70
     0
  0
ENDTAB
  0
TABLE
  2
UCS
  5
7
330
0
100
AcDbSymbolTable
 70
     0
  0
ENDTAB
  0
TABLE
  2
APPID
  5
9
330
0
100
AcDbSymbolTable
 70
     2
  0
APPID
  5
12
330
9
100
AcDbSymbolTableRecord
100
AcDbRegAppTableRecord
  2
ACAD
 70
     0
  0
ENDTAB
  0
TABLE
  2
DIMSTYLE
  5
A
330
0
100
AcDbSymbolTable
 70
     1
  0
DIMSTYLE
105
27
330
A
100
AcDbSymbolTableRecord
100
AcDbDimStyleTableRecord
  2
ISO-25
 70
     0
  3

  4

  5

  6

  7

 40
1.0
 41
2.5
 42
0.625
 43
3.75
 44
1.25
 45
0.0
 46
0.0
 47
0.0
 48
0.0
140
2.5
141
2.5
142
0.0
143
0.03937007874016
144
1.0
145
0.0
146
1.0
147
0.625
 71
     0
 72
     0
 73
     0
 74
     0
 75
     0
 76
     0
 77
     1
 78
     8
170
     0
171
     3
172
     1
173
     0
174
     0
175
     0
176
     0
177
     0
178
     0
270
     2
271
     2
272
     2
273
     2
274
     3
340
11
275
     0
280
     0
281
     0
282
     0
283
     0
284
     8
285
     0
286
     0
287
     3
288
     0
  0
ENDTAB
  0
TABLE
  2
BLOCK_RECORD
  5
1
330
0
100
AcDbSymbolTable
 70
     1
  0
BLOCK_RECORD
  5
1F
330
1
100
AcDbSymbolTableRecord
100
AcDbBlockTableRecord
  2
*MODEL_SPACE
  0
BLOCK_RECORD
  5
1B
330
1
100
AcDbSymbolTableRecord
100
AcDbBlockTableRecord
  2
*PAPER_SPACE
  0
ENDTAB
  0
ENDSEC
  0
SECTION
  2
BLOCKS
  0
BLOCK
  5
20
330
1F
100
AcDbEntity
  8
0
100
AcDbBlockBegin
  2
*MODEL_SPACE
 70
     0
 10
0.0
 20
0.0
 30
0.0
  3
*MODEL_SPACE
  1

  0
ENDBLK
  5
21
330
1F
100
AcDbEntity
  8
0
100
AcDbBlockEnd
  0
BLOCK
  5
1C
330
1B
100
AcDbEntity
 67
     1
  8
0
100
AcDbBlockBegin
  2
*PAPER_SPACE
  1

  0
ENDBLK
  5
1D
330
1B
100
AcDbEntity
 67
     1
  8
0
100
AcDbBlockEnd
  0
ENDSEC
  0
SECTION
  2
ENTITIES
  0
LWPOLYLINE
  5
100
100
AcDbEntity
  8
Layer_1
 62
7
100
AcDbPolyline
 90
22
 70
1
 10
-256.000000
 20
530.285716
 30
0.0
 10
-262.857144
 20
536.000004
 30
0.0
 10
-273.142856
 20
567.428572
 30
0.0
 10
-268.571432
 20
578.857140
 30
0.0
 10
-242.285712
 20
609.714284
 30
0.0
 10
-226.285712
 20
608.571428
 30
0.0
 10
-203.428568
 20
590.285716
 30
0.0
 10
-170.285712
 20
599.428572
 30
0.0
 10
-147.428568
 20
599.428572
 30
0.0
 10
-129.714288
 20
610.285716
 30
0.0
 10
-125.142856
 20
606.285716
 30
0.0
 10
-125.142856
 20
587.428572
 30
0.0
 10
-116.571432
 20
580.000004
 30
0.0
 10
-109.714288
 20
578.857140
 30
0.0
 10
-109.142856
 20
565.142860
 30
0.0
 10
-104.000000
 20
562.285716
 30
0.0
 10
-109.142856
 20
550.285716
 30
0.0
 10
-180.571432
 20
544.000004
 30
0.0
 10
-209.714288
 20
558.285716
 30
0.0
 10
-238.857144
 20
549.714284
 30
0.0
 10
-244.571432
 20
536.571428
 30
0.0
 10
-256.000000
 20
530.285716
 30
0.0
  0
LWPOLYLINE
  5
101
100
AcDbEntity
  8
Layer_1
 62
7
100
AcDbPolyline
 90
34
 70
1
 10
-170.285712
 20
600.000004
 30
0.0
 10
-146.857144
 20
598.857140
 30
0.0
 10
-129.714288
 20
610.285716
 30
0.0
 10
-124.571432
 20
605.142860
 30
0.0
 10
-124.571432
 20
586.285716
 30
0.0
 10
-115.428568
 20
579.428572
 30
0.0
 10
-109.142856
 20
579.428572
 30
0.0
 10
-109.142856
 20
565.142860
 30
0.0
 10
-103.428568
 20
561.714284
 30
0.0
 10
-109.142856
 20
549.142860
 30
0.0
 10
-22.857143
 20
557.714284
 30
0.0
 10
-26.857143
 20
573.714284
 30
0.0
 10
-6.857143
 20
595.428572
 30
0.0
 10
-2.285714
 20
606.857140
 30
0.0
 10
-4.000000
 20
620.571428
 30
0.0
 10
-14.857143
 20
625.714284
 30
0.0
 10
-24.571429
 20
644.000004
 30
0.0
 10
-39.428571
 20
653.714284
 30
0.0
 10
-48.571429
 20
670.285716
 30
0.0
 10
-52.571429
 20
686.285716
 30
0.0
 10
-54.285714
 20
702.857140
 30
0.0
 10
-45.714286
 20
718.285716
 30
0.0
 10
-45.714286
 20
730.857140
 30
0.0
 10
-90.285712
 20
735.428572
 30
0.0
 10
-146.285712
 20
757.714284
 30
0.0
 10
-179.428568
 20
775.428573
 30
0.0
 10
-189.714288
 20
772.000001
 30
0.0
 10
-222.285712
 20
682.285716
 30
0.0
 10
-215.428568
 20
668.000004
 30
0.0
 10
-185.714288
 20
652.000004
 30
0.0
 10
-172.571432
 20
653.714284
 30
0.0
 10
-165.142856
 20
657.714284
 30
0.0
 10
-156.000000
 20
638.285716
 30
0.0
 10
-170.285712
 20
600.000004
 30
0.0
  0
LWPOLYLINE
  5
102
100
AcDbEntity
  8
Layer_1
 62
7
100
AcDbPolyline
 90
22
 70
1
 10
-45.714286
 20
731.428572
 30
0.0
 10
-44.571429
 20
717.714284
 30
0.0
 10
-54.285714
 20
702.857140
 30
0.0
 10
-52.000000
 20
680.571428
 30
0.0
 10
-47.428571
 20
666.857140
 30
0.0
 10
-38.857143
 20
652.571428
 30
0.0
 10
-24.000000
 20
644.000004
 30
0.0
 10
-15.428571
 20
625.714284
 30
0.0
 10
-1.714286
 20
617.714284
 30
0.0
 10
23.428571
 20
641.142860
 30
0.0
 10
42.857143
 20
645.714284
 30
0.0
 10
57.142858
 20
657.142860
 30
0.0
 10
72.571429
 20
671.428572
 30
0.0
 10
92.571432
 20
673.142860
 30
0.0
 10
108.571432
 20
681.714284
 30
0.0
 10
83.428568
 20
700.571428
 30
0.0
 10
69.714286
 20
722.285716
 30
0.0
 10
61.142858
 20
728.000004
 30
0.0
 10
36.571429
 20
754.285716
 30
0.0
 10
23.428571
 20
736.571428
 30
0.0
 10
6.285714
 20
732.571428
 30
0.0
 10
-45.714286
 20
731.428572
 30
0.0
  0
LWPOLYLINE
  5
103
100
AcDbEntity
  8
Layer_1
 62
7
100
AcDbPolyline
 90
13
 70
1
 10
108.000000
 20
681.142860
 30
0.0
 10
82.857144
 20
698.857140
 30
0.0
 10
70.857143
 20
722.285716
 30
0.0
 10
58.857143
 20
731.428572
 30
0.0
 10
36.571429
 20
754.285716
 30
0.0
 10
43.428571
 20
773.714286
 30
0.0
 10
72.571429
 20
780.000001
 30
0.0
 10
88.000000
 20
770.857144
 30
0.0
 10
109.142856
 20
750.857140
 30
0.0
 10
136.000000
 20
740.571428
 30
0.0
 10
131.428568
 20
715.428572
 30
0.0
 10
122.857144
 20
694.857140
 30
0.0
 10
108.000000
 20
681.142860
 30
0.0
  0
LWPOLYLINE
  5
104
100
AcDbEntity
  8
Layer_1
 62
7
100
AcDbPolyline
 90
17
 70
1
 10
-231.428568
 20
430.285716
 30
0.0
 10
-193.142856
 20
447.428572
 30
0.0
 10
-185.714288
 20
445.714284
 30
0.0
 10
-59.428571
 20
465.142860
 30
0.0
 10
-18.285714
 20
477.714284
 30
0.0
 10
-9.714286
 20
472.000004
 30
0.0
 10
-2.857143
 20
473.142860
 30
0.0
 10
4.000000
 20
468.000004
 30
0.0
 10
-17.714286
 20
453.714284
 30
0.0
 10
-46.285714
 20
445.714284
 30
0.0
 10
-60.000000
 20
445.714284
 30
0.0
 10
-113.714288
 20
450.857140
 30
0.0
 10
-130.857144
 20
423.428572
 30
0.0
 10
-186.285712
 20
416.000004
 30
0.0
 10
-193.142856
 20
408.000004
 30
0.0
 10
-224.571432
 20
420.571428
 30
0.0
 10
-231.428568
 20
430.285716
 30
0.0
  0
LWPOLYLINE
  5
105
100
AcDbEntity
  8
Layer_1
 62
7
100
AcDbPolyline
 90
35
 70
1
 10
-17.714286
 20
477.142860
 30
0.0
 10
-9.714286
 20
471.428572
 30
0.0
 10
-2.285714
 20
473.142860
 30
0.0
 10
2.857143
 20
467.428572
 30
0.0
 10
12.571429
 20
466.857140
 30
0.0
 10
13.714286
 20
435.428572
 30
0.0
 10
0.000000
 20
429.142860
 30
0.0
 10
-14.857143
 20
430.285716
 30
0.0
 10
-37.142857
 20
420.571428
 30
0.0
 10
-24.571429
 20
415.428572
 30
0.0
 10
-16.000000
 20
419.428572
 30
0.0
 10
-5.714286
 20
416.000004
 30
0.0
 10
1.142857
 20
402.857140
 30
0.0
 10
-10.285714
 20
385.714284
 30
0.0
 10
-32.571429
 20
388.571428
 30
0.0
 10
-38.857143
 20
385.714284
 30
0.0
 10
-31.428571
 20
370.285716
 30
0.0
 10
-0.571429
 20
384.571428
 30
0.0
 10
61.714286
 20
442.285716
 30
0.0
 10
51.428571
 20
456.571428
 30
0.0
 10
48.571429
 20
468.571428
 30
0.0
 10
52.571429
 20
481.142860
 30
0.0
 10
59.428571
 20
486.285716
 30
0.0
 10
67.428571
 20
485.714284
 30
0.0
 10
77.142858
 20
474.857140
 30
0.0
 10
99.428568
 20
460.000004
 30
0.0
 10
108.571432
 20
476.571428
 30
0.0
 10
96.000000
 20
484.571428
 30
0.0
 10
92.000000
 20
492.000004
 30
0.0
 10
97.142856
 20
520.571428
 30
0.0
 10
77.142858
 20
533.714284
 30
0.0
 10
61.142858
 20
552.571428
 30
0.0
 10
36.000000
 20
537.714284
 30
0.0
 10
-4.571429
 20
521.714284
 30
0.0
 10
-17.714286
 20
477.142860
 30
0.0
  0
LWPOLYLINE
  5
106
100
AcDbEntity
  8
Layer_1
 62
7
100
AcDbPolyline
 90
18
 70
1
 10
203.428568
 20
605.714284
 30
0.0
 10
200.571432
 20
616.571428
 30
0.0
 10
186.285712
 20
621.714284
 30
0.0
 10
161.714288
 20
617.714284
 30
0.0
 10
148.571432
 20
609.714284
 30
0.0
 10
123.428568
 20
603.428572
 30
0.0
 10
97.714288
 20
606.857140
 30
0.0
 10
76.571429
 20
588.000004
 30
0.0
 10
77.714286
 20
563.428572
 30
0.0
 10
61.714286
 20
551.428572
 30
0.0
 10
76.571429
 20
532.571428
 30
0.0
 10
97.142856
 20
520.000004
 30
0.0
 10
113.714288
 20
539.428572
 30
0.0
 10
133.714288
 20
549.142860
 30
0.0
 10
150.285712
 20
572.000004
 30
0.0
 10
163.428568
 20
598.857140
 30
0.0
 10
171.428568
 20
605.142860
 30
0.0
 10
203.428568
 20
605.714284
 30
0.0
  0
LWPOLYLINE
  5
107
100
AcDbEntity
  8
Layer_1
 62
7
100
AcDbPolyline
 90
11
 70
1
 10
168.571432
 20
468.571428
 30
0.0
 10
177.714288
 20
493.142860
 30
0.0
 10
189.142856
 20
496.571428
 30
0.0
 10
209.714288
 20
487.428572
 30
0.0
 10
219.428568
 20
484.000004
 30
0.0
 10
230.857144
 20
485.142860
 30
0.0
 10
227.428568
 20
451.428572
 30
0.0
 10
220.571432
 20
417.142860
 30
0.0
 10
183.428568
 20
431.428572
 30
0.0
 10
169.714288
 20
460.571428
 30
0.0
 10
168.571432
 20
468.571428
 30
0.0
  0
LWPOLYLINE
  5
108
100
AcDbEntity
  8
Layer_1
 62
7
100
AcDbPolyline
 90
35
 70
1
 10
-25.142857
 20
558.285716
 30
0.0
 10
64.571429
 20
564.571428
 30
0.0
 10
78.285714
 20
562.285716
 30
0.0
 10
77.714286
 20
587.428572
 30
0.0
 10
97.714288
 20
607.428572
 30
0.0
 10
122.857144
 20
604.000004
 30
0.0
 10
149.714288
 20
611.428572
 30
0.0
 10
161.142856
 20
617.714284
 30
0.0
 10
185.142856
 20
621.714284
 30
0.0
 10
201.714288
 20
616.000004
 30
0.0
 10
202.285712
 20
606.285716
 30
0.0
 10
220.000000
 20
615.428572
 30
0.0
 10
257.142856
 20
615.428572
 30
0.0
 10
270.285712
 20
626.285716
 30
0.0
 10
252.000000
 20
638.857140
 30
0.0
 10
233.714288
 20
639.428572
 30
0.0
 10
221.142856
 20
653.714284
 30
0.0
 10
216.000000
 20
681.714284
 30
0.0
 10
204.000000
 20
696.000004
 30
0.0
 10
174.857144
 20
697.714284
 30
0.0
 10
169.142856
 20
720.000004
 30
0.0
 10
168.000000
 20
738.857140
 30
0.0
 10
134.285712
 20
741.142860
 30
0.0
 10
129.714288
 20
708.000004
 30
0.0
 10
119.428568
 20
689.714284
 30
0.0
 10
106.285712
 20
680.571428
 30
0.0
 10
88.571432
 20
673.142860
 30
0.0
 10
72.571429
 20
673.142860
 30
0.0
 10
41.142857
 20
645.142860
 30
0.0
 10
23.428571
 20
641.714284
 30
0.0
 10
-3.428571
 20
618.857140
 30
0.0
 10
-2.857143
 20
606.857140
 30
0.0
 10
-7.428571
 20
594.285716
 30
0.0
 10
-26.285714
 20
575.428572
 30
0.0
 10
-25.142857
 20
558.285716
 30
0.0
  0
LWPOLYLINE
  5
109
100
AcDbEntity
  8
Layer_1
 62
7
100
AcDbPolyline
 90
24
 70
1
 10
97.142856
 20
485.714284
 30
0.0
 10
91.428568
 20
492.571428
 30
0.0
 10
96.571432
 20
521.142860
 30
0.0
 10
113.714288
 20
540.000004
 30
0.0
 10
136.000000
 20
550.857140
 30
0.0
 10
162.857144
 20
600.000004
 30
0.0
 10
174.285712
 20
605.714284
 30
0.0
 10
204.000000
 20
606.285716
 30
0.0
 10
220.000000
 20
616.000004
 30
0.0
 10
256.571432
 20
615.428572
 30
0.0
 10
269.714288
 20
626.857140
 30
0.0
 10
306.857144
 20
600.000004
 30
0.0
 10
312.571432
 20
587.428572
 30
0.0
 10
300.000000
 20
569.714284
 30
0.0
 10
302.285712
 20
547.428572
 30
0.0
 10
296.571432
 20
537.142860
 30
0.0
 10
229.714288
 20
484.571428
 30
0.0
 10
216.000000
 20
485.714284
 30
0.0
 10
188.571432
 20
497.142860
 30
0.0
 10
176.571432
 20
492.000004
 30
0.0
 10
168.000000
 20
468.000004
 30
0.0
 10
118.285712
 20
498.857140
 30
0.0
 10
98.285712
 20
492.000004
 30
0.0
 10
97.142856
 20
485.714284
 30
0.0
  0
LWPOLYLINE
  5
10a
100
AcDbEntity
  8
Layer_1
 62
7
100
AcDbPolyline
 90
17
 70
1
 10
220.571432
 20
418.285716
 30
0.0
 10
228.000000
 20
452.571428
 30
0.0
 10
230.285712
 20
486.285716
 30
0.0
 10
294.857144
 20
536.571428
 30
0.0
 10
302.285712
 20
548.571428
 30
0.0
 10
299.428568
 20
570.285716
 30
0.0
 10
313.142856
 20
588.571428
 30
0.0
 10
320.000000
 20
567.428572
 30
0.0
 10
324.000000
 20
533.142860
 30
0.0
 10
353.714288
 20
502.285716
 30
0.0
 10
330.285712
 20
496.571428
 30
0.0
 10
301.714288
 20
488.571428
 30
0.0
 10
273.714288
 20
461.142860
 30
0.0
 10
270.857144
 20
443.428572
 30
0.0
 10
250.285712
 20
422.857140
 30
0.0
 10
245.142856
 20
409.714284
 30
0.0
 10
220.571432
 20
418.285716
 30
0.0
  0
LWPOLYLINE
  5
10b
100
AcDbEntity
  8
Layer_1
 62
7
100
AcDbPolyline
 90
37
 70
1
 10
353.714288
 20
503.428572
 30
0.0
 10
300.571432
 20
489.142860
 30
0.0
 10
273.142856
 20
461.142860
 30
0.0
 10
270.285712
 20
442.857140
 30
0.0
 10
308.000000
 20
421.142860
 30
0.0
 10
320.000000
 20
397.142860
 30
0.0
 10
305.142856
 20
393.714284
 30
0.0
 10
300.000000
 20
365.142860
 30
0.0
 10
309.142856
 20
364.000004
 30
0.0
 10
319.428568
 20
370.857140
 30
0.0
 10
333.142856
 20
362.285716
 30
0.0
 10
324.000000
 20
336.000004
 30
0.0
 10
332.000000
 20
297.714284
 30
0.0
 10
348.000000
 20
281.714284
 30
0.0
 10
377.142856
 20
264.000004
 30
0.0
 10
392.571432
 20
276.571428
 30
0.0
 10
399.428568
 20
324.571428
 30
0.0
 10
475.428568
 20
385.142860
 30
0.0
 10
483.428568
 20
400.000004
 30
0.0
 10
481.714288
 20
433.142860
 30
0.0
 10
488.571432
 20
460.571428
 30
0.0
 10
510.857144
 20
505.142860
 30
0.0
 10
508.000000
 20
525.714284
 30
0.0
 10
498.285712
 20
540.571428
 30
0.0
 10
469.714288
 20
557.714284
 30
0.0
 10
459.428568
 20
556.000004
 30
0.0
 10
441.714288
 20
536.571428
 30
0.0
 10
433.714288
 20
526.285716
 30
0.0
 10
422.285712
 20
523.428572
 30
0.0
 10
419.428568
 20
536.000004
 30
0.0
 10
426.285712
 20
561.714284
 30
0.0
 10
418.285712
 20
575.428572
 30
0.0
 10
407.428568
 20
570.857140
 30
0.0
 10
402.285712
 20
563.428572
 30
0.0
 10
400.000000
 20
532.000004
 30
0.0
 10
377.142856
 20
498.285716
 30
0.0
 10
353.714288
 20
503.428572
 30
0.0
  0
ENDSEC
  0
SECTION
  2
OBJECTS
  0
DICTIONARY
  5
C
330
0
100
AcDbDictionary
  3
ACAD_GROUP
350
D
  3
ACAD_MLINESTYLE
350
17
  0
DICTIONARY
  5
D
330
C
100
AcDbDictionary
  0
DICTIONARY
  5
1A
330
C
100
AcDbDictionary
  0
DICTIONARY
  5
17
330
C
100
AcDbDictionary
  3
STANDARD
350
18
  0
DICTIONARY
  5
19
330
C
100
AcDbDictionary
  0
ENDSEC
  0
EOF
