  0
SECTION
  2
HEADER
  9
$ACADVER
  1
AC1014
  9
$HANDSEED
  5
FFFF
  9
$MEASUREMENT
 70
     1
  0
ENDSEC
  0
SECTION
  2
TABLES
  0
TABLE
  2
VPORT
  5
8
330
0
100
AcDbSymbolTable
 70
     4
  0
VPORT
  5
2E
330
8
100
AcDbSymbolTableRecord
100
AcDbViewportTableRecord
  2
*ACTIVE
 70
     0
 10
0.0
 20
0.0
 11
1.0
 21
1.0
 12
210.0
 22
148.5
 13
0.0
 23
0.0
 14
10.0
 24
10.0
 15
10.0
 25
10.0
 16
0.0
 26
0.0
 36
1.0
 17
0.0
 27
0.0
 37
0.0
 40
341.0
 41
1.24
 42
50.0
 43
0.0
 44
0.0
 50
0.0
 51
0.0
 71
     0
 72
   100
 73
     1
 74
     3
 75
     0
 76
     0
 77
     0
 78
     0
  0
ENDTAB
  0
TABLE
  2
LTYPE
  5
5
330
0
100
AcDbSymbolTable
 70
     1
  0
LTYPE
  5
14
330
5
100
AcDbSymbolTableRecord
100
AcDbLinetypeTableRecord
  2
BYBLOCK
 70
     0
  3

 72
    65
 73
     0
 40
0.0
  0
LTYPE
  5
15
330
5
100
AcDbSymbolTableRecord
100
AcDbLinetypeTableRecord
  2
BYLAYER
 70
     0
  3

 72
    65
 73
     0
 40
0.0
  0
LTYPE
  5
16
330
5
100
AcDbSymbolTableRecord
100
AcDbLinetypeTableRecord
  2
CONTINUOUS
 70
     0
  3
Solid line
 72
    65
 73
     0
 40
0.0
  0
ENDTAB
  0
TABLE
  2
LAYER
  5
2
100
AcDbSymbolTable
 70
2
  0
LAYER
  5
50
100
AcDbSymbolTableRecord
100
AcDbLayerTableRecord
  2
0
 70
0
  6
CONTINUOUS
  0
LAYER
  5
51
100
AcDbSymbolTableRecord
100
AcDbLayerTableRecord
  2
Layer_1
 70
0
  6
CONTINUOUS
  0
ENDTAB
  0
TABLE
  2
STYLE
  5
3
330
0
100
AcDbSymbolTable
 70
     1
  0
STYLE
  5
11
330
3
100
AcDbSymbolTableRecord
100
AcDbTextStyleTableRecord
  2
STANDARD
 70
     0
 40
0.0
 41
1.0
 50
0.0
 71
     0
 42
2.5
  3
txt
  4

  0
ENDTAB
  0
TABLE
  2
VIEW
  5
6
330
0
100
AcDbSymbolTable
 70
     0
  0
ENDTAB
  0
TABLE
  2
UCS
  5
7
330
0
100
AcDbSymbolTable
 70
     0
  0
ENDTAB
  0
TABLE
  2
APPID
  5
9
330
0
100
AcDbSymbolTable
 70
     2
  0
APPID
  5
12
330
9
100
AcDbSymbolTableRecord
100
AcDbRegAppTableRecord
  2
ACAD
 70
     0
  0
ENDTAB
  0
TABLE
  2
DIMSTYLE
  5
A
330
0
100
AcDbSymbolTable
 70
     1
  0
DIMSTYLE
105
27
330
A
100
AcDbSymbolTableRecord
100
AcDbDimStyleTableRecord
  2
ISO-25
 70
     0
  3

  4

  5

  6

  7

 40
1.0
 41
2.5
 42
0.625
 43
3.75
 44
1.25
 45
0.0
 46
0.0
 47
0.0
 48
0.0
140
2.5
141
2.5
142
0.0
143
0.03937007874016
144
1.0
145
0.0
146
1.0
147
0.625
 71
     0
 72
     0
 73
     0
 74
     0
 75
     0
 76
     0
 77
     1
 78
     8
170
     0
171
     3
172
     1
173
     0
174
     0
175
     0
176
     0
177
     0
178
     0
270
     2
271
     2
272
     2
273
     2
274
     3
340
11
275
     0
280
     0
281
     0
282
     0
283
     0
284
     8
285
     0
286
     0
287
     3
288
     0
  0
ENDTAB
  0
TABLE
  2
BLOCK_RECORD
  5
1
330
0
100
AcDbSymbolTable
 70
     1
  0
BLOCK_RECORD
  5
1F
330
1
100
AcDbSymbolTableRecord
100
AcDbBlockTableRecord
  2
*MODEL_SPACE
  0
BLOCK_RECORD
  5
1B
330
1
100
AcDbSymbolTableRecord
100
AcDbBlockTableRecord
  2
*PAPER_SPACE
  0
ENDTAB
  0
ENDSEC
  0
SECTION
  2
BLOCKS
  0
BLOCK
  5
20
330
1F
100
AcDbEntity
  8
0
100
AcDbBlockBegin
  2
*MODEL_SPACE
 70
     0
 10
0.0
 20
0.0
 30
0.0
  3
*MODEL_SPACE
  1

  0
ENDBLK
  5
21
330
1F
100
AcDbEntity
  8
0
100
AcDbBlockEnd
  0
BLOCK
  5
1C
330
1B
100
AcDbEntity
 67
     1
  8
0
100
AcDbBlockBegin
  2
*PAPER_SPACE
  1

  0
ENDBLK
  5
1D
330
1B
100
AcDbEntity
 67
     1
  8
0
100
AcDbBlockEnd
  0
ENDSEC
  0
SECTION
  2
ENTITIES
  0
LWPOLYLINE
  5
100
100
AcDbEntity
  8
Layer_1
 62
7
100
AcDbPolyline
 90
26
 70
1
 10
-5266.285680
 20
-630.857116
 30
0.0
 10
-5312.000000
 20
-420.571436
 30
0.0
 10
-5056.000000
 20
-146.285676
 30
0.0
 10
-4818.285680
 20
-18.285676
 30
0.0
 10
-4800.000000
 20
155.428572
 30
0.0
 10
-4004.571440
 20
383.999996
 30
0.0
 10
-3840.000000
 20
493.714284
 30
0.0
 10
-3428.571440
 20
530.285716
 30
0.0
 10
-3035.428560
 20
347.428572
 30
0.0
 10
-2843.428560
 20
182.857140
 30
0.0
 10
-2057.142880
 20
-91.428556
 30
0.0
 10
-2377.142880
 20
-1060.571436
 30
0.0
 10
-2413.714320
 20
-1426.285676
 30
0.0
 10
-2541.714320
 20
-1727.999996
 30
0.0
 10
-2678.857120
 20
-1801.142876
 30
0.0
 10
-2724.571440
 20
-1938.285676
 30
0.0
 10
-2934.857120
 20
-1737.142876
 30
0.0
 10
-3318.857120
 20
-1709.714316
 30
0.0
 10
-3392.000000
 20
-1627.428556
 30
0.0
 10
-3620.571440
 20
-1618.285676
 30
0.0
 10
-3830.857120
 20
-1481.142876
 30
0.0
 10
-3995.428560
 20
-1371.428556
 30
0.0
 10
-4352.000000
 20
-868.571436
 30
0.0
 10
-4736.000000
 20
-850.285676
 30
0.0
 10
-4827.428560
 20
-731.428556
 30
0.0
 10
-5266.285680
 20
-630.857116
 30
0.0
  0
LWPOLYLINE
  5
101
100
AcDbEntity
  8
Layer_1
 62
7
100
AcDbPolyline
 90
24
 70
1
 10
-2075.428560
 20
-109.714316
 30
0.0
 10
-1782.857120
 20
-27.428556
 30
0.0
 10
-941.714320
 20
-173.714316
 30
0.0
 10
-475.428568
 20
539.428572
 30
0.0
 10
27.428571
 20
804.571428
 30
0.0
 10
54.857142
 20
1042.285716
 30
0.0
 10
310.857144
 20
1289.142860
 30
0.0
 10
329.142856
 20
1426.285716
 30
0.0
 10
-64.000000
 20
1417.142852
 30
0.0
 10
-274.285712
 20
1599.999996
 30
0.0
 10
-320.000000
 20
1599.999996
 30
0.0
 10
-329.142856
 20
1435.428572
 30
0.0
 10
-493.714288
 20
1371.428572
 30
0.0
 10
-1380.571440
 20
1353.142852
 30
0.0
 10
-2102.857120
 20
1398.857140
 30
0.0
 10
-2276.571440
 20
1444.571428
 30
0.0
 10
-2752.000000
 20
1161.142860
 30
0.0
 10
-2880.000000
 20
941.714284
 30
0.0
 10
-3181.714320
 20
758.857140
 30
0.0
 10
-3328.000000
 20
694.857140
 30
0.0
 10
-3437.714320
 20
511.999996
 30
0.0
 10
-3044.571440
 20
329.142860
 30
0.0
 10
-2852.571440
 20
155.428572
 30
0.0
 10
-2075.428560
 20
-109.714316
 30
0.0
  0
LWPOLYLINE
  5
102
100
AcDbEntity
  8
Layer_1
 62
7
100
AcDbPolyline
 90
13
 70
1
 10
-941.714320
 20
-155.428556
 30
0.0
 10
-109.714288
 20
-493.714316
 30
0.0
 10
164.571432
 20
-9.142876
 30
0.0
 10
365.714288
 20
274.285716
 30
0.0
 10
685.714288
 20
621.714284
 30
0.0
 10
612.571424
 20
978.285716
 30
0.0
 10
603.428568
 20
1435.428572
 30
0.0
 10
320.000000
 20
1435.428572
 30
0.0
 10
292.571432
 20
1298.285716
 30
0.0
 10
36.571429
 20
1042.285716
 30
0.0
 10
18.285714
 20
804.571428
 30
0.0
 10
-475.428568
 20
566.857140
 30
0.0
 10
-941.714320
 20
-155.428556
 30
0.0
  0
LWPOLYLINE
  5
103
100
AcDbEntity
  8
Layer_1
 62
7
100
AcDbPolyline
 90
22
 70
1
 10
-109.714288
 20
-475.428556
 30
0.0
 10
621.714288
 20
-767.999996
 30
0.0
 10
1097.142880
 20
-795.428556
 30
0.0
 10
1755.428560
 20
-758.857116
 30
0.0
 10
1956.571440
 20
-548.571436
 30
0.0
 10
2240.000000
 20
-457.142876
 30
0.0
 10
2422.857120
 20
-301.714316
 30
0.0
 10
2669.714320
 20
-347.428556
 30
0.0
 10
2605.714320
 20
-36.571436
 30
0.0
 10
2459.428560
 20
27.428564
 30
0.0
 10
2121.142880
 20
356.571428
 30
0.0
 10
2093.714320
 20
786.285713
 30
0.0
 10
1956.571440
 20
1234.285716
 30
0.0
 10
1956.571440
 20
1535.999996
 30
0.0
 10
1490.285680
 20
1462.857140
 30
0.0
 10
1206.857120
 20
1371.428572
 30
0.0
 10
1005.714320
 20
1417.142852
 30
0.0
 10
557.714288
 20
1435.428572
 30
0.0
 10
594.285712
 20
969.142860
 30
0.0
 10
676.571424
 20
639.999996
 30
0.0
 10
201.142856
 20
100.571428
 30
0.0
 10
-109.714288
 20
-475.428556
 30
0.0
  0
LWPOLYLINE
  5
104
100
AcDbEntity
  8
Layer_1
 62
7
100
AcDbPolyline
 90
21
 70
1
 10
1947.428560
 20
1499.428572
 30
0.0
 10
1947.428560
 20
1170.285716
 30
0.0
 10
2075.428560
 20
804.571428
 30
0.0
 10
2102.857120
 20
347.428572
 30
0.0
 10
2450.285680
 20
27.428564
 30
0.0
 10
2624.000000
 20
-63.999996
 30
0.0
 10
2651.428560
 20
-347.428556
 30
0.0
 10
3337.142880
 20
-575.999996
 30
0.0
 10
3337.142880
 20
-374.857116
 30
0.0
 10
3766.857120
 20
722.285716
 30
0.0
 10
3803.428560
 20
1023.999996
 30
0.0
 10
3666.285680
 20
1316.571428
 30
0.0
 10
3730.285680
 20
1572.571428
 30
0.0
 10
3730.285680
 20
1910.857124
 30
0.0
 10
3510.857120
 20
1810.285684
 30
0.0
 10
3446.857120
 20
1801.142884
 30
0.0
 10
3126.857120
 20
2084.571444
 30
0.0
 10
2934.857120
 20
2084.571444
 30
0.0
 10
2505.142880
 20
1627.428572
 30
0.0
 10
2157.714320
 20
1535.999996
 30
0.0
 10
1947.428560
 20
1499.428572
 30
0.0
  0
LWPOLYLINE
  5
105
100
AcDbEntity
  8
Layer_1
 62
7
100
AcDbPolyline
 90
24
 70
1
 10
3328.000000
 20
-557.714316
 30
0.0
 10
4205.714320
 20
-566.857116
 30
0.0
 10
4434.285680
 20
-191.999996
 30
0.0
 10
4342.857120
 20
219.428572
 30
0.0
 10
4397.714320
 20
667.428572
 30
0.0
 10
4571.428560
 20
969.142860
 30
0.0
 10
4982.857120
 20
1206.857140
 30
0.0
 10
5284.571440
 20
1407.999996
 30
0.0
 10
5266.285680
 20
1728.000004
 30
0.0
 10
4781.714320
 20
2331.428564
 30
0.0
 10
4781.714320
 20
2678.857124
 30
0.0
 10
4726.857120
 20
2697.142884
 30
0.0
 10
4598.857120
 20
2450.285684
 30
0.0
 10
4461.714320
 20
2304.000004
 30
0.0
 10
4361.142880
 20
2368.000004
 30
0.0
 10
4141.714320
 20
2185.142884
 30
0.0
 10
4114.285680
 20
2020.571444
 30
0.0
 10
3702.857120
 20
1874.285684
 30
0.0
 10
3721.142880
 20
1563.428572
 30
0.0
 10
3657.142880
 20
1316.571428
 30
0.0
 10
3794.285680
 20
1033.142860
 30
0.0
 10
3739.428560
 20
676.571428
 30
0.0
 10
3318.857120
 20
-374.857116
 30
0.0
 10
3328.000000
 20
-557.714316
 30
0.0
  0
ENDSEC
  0
SECTION
  2
OBJECTS
  0
DICTIONARY
  5
C
330
0
100
AcDbDictionary
  3
ACAD_GROUP
350
D
  3
ACAD_MLINESTYLE
350
17
  0
DICTIONARY
  5
D
330
C
100
AcDbDictionary
  0
DICTIONARY
  5
1A
330
C
100
AcDbDictionary
  0
DICTIONARY
  5
17
330
C
100
AcDbDictionary
  3
STANDARD
350
18
  0
DICTIONARY
  5
19
330
C
100
AcDbDictionary
  0
ENDSEC
  0
EOF
