  0
SECTION
  2
HEADER
  9
$ACADVER
  1
AC1014
  9
$HANDSEED
  5
FFFF
  9
$MEASUREMENT
 70
     1
  0
ENDSEC
  0
SECTION
  2
TABLES
  0
TABLE
  2
VPORT
  5
8
330
0
100
AcDbSymbolTable
 70
     4
  0
VPORT
  5
2E
330
8
100
AcDbSymbolTableRecord
100
AcDbViewportTableRecord
  2
*ACTIVE
 70
     0
 10
0.0
 20
0.0
 11
1.0
 21
1.0
 12
210.0
 22
148.5
 13
0.0
 23
0.0
 14
10.0
 24
10.0
 15
10.0
 25
10.0
 16
0.0
 26
0.0
 36
1.0
 17
0.0
 27
0.0
 37
0.0
 40
341.0
 41
1.24
 42
50.0
 43
0.0
 44
0.0
 50
0.0
 51
0.0
 71
     0
 72
   100
 73
     1
 74
     3
 75
     0
 76
     0
 77
     0
 78
     0
  0
ENDTAB
  0
TABLE
  2
LTYPE
  5
5
330
0
100
AcDbSymbolTable
 70
     1
  0
LTYPE
  5
14
330
5
100
AcDbSymbolTableRecord
100
AcDbLinetypeTableRecord
  2
BYBLOCK
 70
     0
  3

 72
    65
 73
     0
 40
0.0
  0
LTYPE
  5
15
330
5
100
AcDbSymbolTableRecord
100
AcDbLinetypeTableRecord
  2
BYLAYER
 70
     0
  3

 72
    65
 73
     0
 40
0.0
  0
LTYPE
  5
16
330
5
100
AcDbSymbolTableRecord
100
AcDbLinetypeTableRecord
  2
CONTINUOUS
 70
     0
  3
Solid line
 72
    65
 73
     0
 40
0.0
  0
ENDTAB
  0
TABLE
  2
LAYER
  5
2
100
AcDbSymbolTable
 70
2
  0
LAYER
  5
50
100
AcDbSymbolTableRecord
100
AcDbLayerTableRecord
  2
0
 70
0
  6
CONTINUOUS
  0
LAYER
  5
51
100
AcDbSymbolTableRecord
100
AcDbLayerTableRecord
  2
Layer_1
 70
0
  6
CONTINUOUS
  0
ENDTAB
  0
TABLE
  2
STYLE
  5
3
330
0
100
AcDbSymbolTable
 70
     1
  0
STYLE
  5
11
330
3
100
AcDbSymbolTableRecord
100
AcDbTextStyleTableRecord
  2
STANDARD
 70
     0
 40
0.0
 41
1.0
 50
0.0
 71
     0
 42
2.5
  3
txt
  4

  0
ENDTAB
  0
TABLE
  2
VIEW
  5
6
330
0
100
AcDbSymbolTable
 70
     0
  0
ENDTAB
  0
TABLE
  2
UCS
  5
7
330
0
100
AcDbSymbolTable
 70
     0
  0
ENDTAB
  0
TABLE
  2
APPID
  5
9
330
0
100
AcDbSymbolTable
 70
     2
  0
APPID
  5
12
330
9
100
AcDbSymbolTableRecord
100
AcDbRegAppTableRecord
  2
ACAD
 70
     0
  0
ENDTAB
  0
TABLE
  2
DIMSTYLE
  5
A
330
0
100
AcDbSymbolTable
 70
     1
  0
DIMSTYLE
105
27
330
A
100
AcDbSymbolTableRecord
100
AcDbDimStyleTableRecord
  2
ISO-25
 70
     0
  3

  4

  5

  6

  7

 40
1.0
 41
2.5
 42
0.625
 43
3.75
 44
1.25
 45
0.0
 46
0.0
 47
0.0
 48
0.0
140
2.5
141
2.5
142
0.0
143
0.03937007874016
144
1.0
145
0.0
146
1.0
147
0.625
 71
     0
 72
     0
 73
     0
 74
     0
 75
     0
 76
     0
 77
     1
 78
     8
170
     0
171
     3
172
     1
173
     0
174
     0
175
     0
176
     0
177
     0
178
     0
270
     2
271
     2
272
     2
273
     2
274
     3
340
11
275
     0
280
     0
281
     0
282
     0
283
     0
284
     8
285
     0
286
     0
287
     3
288
     0
  0
ENDTAB
  0
TABLE
  2
BLOCK_RECORD
  5
1
330
0
100
AcDbSymbolTable
 70
     1
  0
BLOCK_RECORD
  5
1F
330
1
100
AcDbSymbolTableRecord
100
AcDbBlockTableRecord
  2
*MODEL_SPACE
  0
BLOCK_RECORD
  5
1B
330
1
100
AcDbSymbolTableRecord
100
AcDbBlockTableRecord
  2
*PAPER_SPACE
  0
ENDTAB
  0
ENDSEC
  0
SECTION
  2
BLOCKS
  0
BLOCK
  5
20
330
1F
100
AcDbEntity
  8
0
100
AcDbBlockBegin
  2
*MODEL_SPACE
 70
     0
 10
0.0
 20
0.0
 30
0.0
  3
*MODEL_SPACE
  1

  0
ENDBLK
  5
21
330
1F
100
AcDbEntity
  8
0
100
AcDbBlockEnd
  0
BLOCK
  5
1C
330
1B
100
AcDbEntity
 67
     1
  8
0
100
AcDbBlockBegin
  2
*PAPER_SPACE
  1

  0
ENDBLK
  5
1D
330
1B
100
AcDbEntity
 67
     1
  8
0
100
AcDbBlockEnd
  0
ENDSEC
  0
SECTION
  2
ENTITIES
  0
LWPOLYLINE
  5
100
100
AcDbEntity
  8
Layer_1
 62
7
100
AcDbPolyline
 90
26
 70
1
 10
-39.142858
 20
696.000004
 30
0.0
 10
-69.714286
 20
697.714284
 30
0.0
 10
-80.857144
 20
703.428572
 30
0.0
 10
-90.000000
 20
699.428572
 30
0.0
 10
-97.428568
 20
680.000004
 30
0.0
 10
-98.571432
 20
666.000004
 30
0.0
 10
-83.714288
 20
634.571428
 30
0.0
 10
-82.857144
 20
624.000004
 30
0.0
 10
-86.857144
 20
611.142860
 30
0.0
 10
-93.142856
 20
604.857148
 30
0.0
 10
-81.428568
 20
603.428572
 30
0.0
 10
-70.571429
 20
596.571428
 30
0.0
 10
-57.428571
 20
588.000004
 30
0.0
 10
-37.714286
 20
586.857148
 30
0.0
 10
-29.428571
 20
589.714284
 30
0.0
 10
-16.000000
 20
580.285716
 30
0.0
 10
-10.285714
 20
573.714284
 30
0.0
 10
-7.142857
 20
580.285716
 30
0.0
 10
-5.714286
 20
599.714284
 30
0.0
 10
-8.857143
 20
612.285716
 30
0.0
 10
-21.142857
 20
626.000004
 30
0.0
 10
-23.714286
 20
646.857148
 30
0.0
 10
-22.571429
 20
668.285716
 30
0.0
 10
-31.428571
 20
673.428572
 30
0.0
 10
-36.571429
 20
682.571428
 30
0.0
 10
-39.142858
 20
696.000004
 30
0.0
  0
LWPOLYLINE
  5
101
100
AcDbEntity
  8
Layer_1
 62
7
100
AcDbPolyline
 90
43
 70
1
 10
-38.991888
 20
695.591044
 30
0.0
 10
-35.961430
 20
681.650940
 30
0.0
 10
-30.910668
 20
672.963628
 30
0.0
 10
-22.021326
 20
667.912860
 30
0.0
 10
-23.435539
 20
650.740268
 30
0.0
 10
-23.233509
 20
645.083420
 30
0.0
 10
-21.011173
 20
626.092548
 30
0.0
 10
-8.081220
 20
611.950412
 30
0.0
 10
-5.858885
 20
598.818428
 30
0.0
 10
-7.071068
 20
580.029596
 30
0.0
 10
-9.697465
 20
573.362588
 30
0.0
 10
-11.111678
 20
574.574772
 30
0.0
 10
-26.870058
 20
558.614356
 30
0.0
 10
-37.375644
 20
543.058012
 30
0.0
 10
-42.224377
 20
536.188972
 30
0.0
 10
-45.456865
 20
522.652924
 30
0.0
 10
-43.638590
 20
513.561556
 30
0.0
 10
-35.759400
 20
480.832612
 30
0.0
 10
-20.809142
 20
480.832612
 30
0.0
 10
-9.293403
 20
487.499620
 30
0.0
 10
1.010153
 20
490.732108
 30
0.0
 10
26.870058
 20
493.560532
 30
0.0
 10
42.022346
 20
493.156476
 30
0.0
 10
40.204071
 20
511.945308
 30
0.0
 10
45.456865
 20
522.652924
 30
0.0
 10
58.386817
 20
531.542268
 30
0.0
 10
68.488342
 20
546.088468
 30
0.0
 10
80.408144
 20
554.573748
 30
0.0
 10
88.085304
 20
558.412324
 30
0.0
 10
104.449776
 20
576.797108
 30
0.0
 10
109.500536
 20
593.363604
 30
0.0
 10
106.470080
 20
620.031636
 30
0.0
 10
99.803072
 20
649.730116
 30
0.0
 10
89.095456
 20
677.610332
 30
0.0
 10
84.448752
 20
695.995108
 30
0.0
 10
78.387838
 20
708.723028
 30
0.0
 10
73.135044
 20
713.167700
 30
0.0
 10
59.599000
 20
725.895620
 30
0.0
 10
31.920821
 20
721.248916
 30
0.0
 10
14.546197
 20
716.400188
 30
0.0
 10
-8.485282
 20
702.662108
 30
0.0
 10
-21.415234
 20
693.570740
 30
0.0
 10
-38.991888
 20
695.591044
 30
0.0
  0
LWPOLYLINE
  5
102
100
AcDbEntity
  8
Layer_1
 62
7
100
AcDbPolyline
 90
19
 70
1
 10
147.684304
 20
480.226524
 30
0.0
 10
115.157392
 20
487.903684
 30
0.0
 10
74.549258
 20
493.156476
 30
0.0
 10
42.426407
 20
493.560532
 30
0.0
 10
40.002041
 20
512.551404
 30
0.0
 10
46.062956
 20
523.259020
 30
0.0
 10
58.992909
 20
531.946332
 30
0.0
 10
69.094434
 20
546.896588
 30
0.0
 10
87.681240
 20
558.614356
 30
0.0
 10
100.207136
 20
554.977812
 30
0.0
 10
122.228456
 20
556.998116
 30
0.0
 10
137.784808
 20
555.381868
 30
0.0
 10
143.239632
 20
547.098620
 30
0.0
 10
146.270088
 20
537.401156
 30
0.0
 10
155.967552
 20
527.703692
 30
0.0
 10
166.877200
 20
499.217388
 30
0.0
 10
186.474160
 20
486.287436
 30
0.0
 10
180.817304
 20
483.661036
 30
0.0
 10
147.684304
 20
480.226524
 30
0.0
  0
LWPOLYLINE
  5
103
100
AcDbEntity
  8
Layer_1
 62
7
100
AcDbPolyline
 90
37
 70
1
 10
156.371616
 20
528.107748
 30
0.0
 10
165.462984
 20
550.735172
 30
0.0
 10
197.383808
 20
592.959548
 30
0.0
 10
216.374672
 20
595.181884
 30
0.0
 10
202.636600
 20
605.485436
 30
0.0
 10
192.333048
 20
617.607268
 30
0.0
 10
180.009184
 20
637.406260
 30
0.0
 10
172.736088
 20
649.326060
 30
0.0
 10
174.554360
 20
671.751444
 30
0.0
 10
167.483296
 20
673.771748
 30
0.0
 10
160.816288
 20
670.943324
 30
0.0
 10
152.128976
 20
674.579868
 30
0.0
 10
149.098512
 20
680.640788
 30
0.0
 10
149.704608
 20
689.934188
 30
0.0
 10
150.714760
 20
722.865164
 30
0.0
 10
147.078208
 20
727.309836
 30
0.0
 10
134.956384
 20
729.532172
 30
0.0
 10
121.420336
 20
736.199180
 30
0.0
 10
104.651800
 20
724.885468
 30
0.0
 10
87.479208
 20
724.279380
 30
0.0
 10
72.326922
 20
726.501708
 30
0.0
 10
61.013214
 20
726.703740
 30
0.0
 10
61.013214
 20
725.289532
 30
0.0
 10
79.600021
 20
707.914908
 30
0.0
 10
85.256872
 20
694.984956
 30
0.0
 10
89.903576
 20
675.387996
 30
0.0
 10
99.399008
 20
651.144332
 30
0.0
 10
105.055864
 20
627.910820
 30
0.0
 10
110.106624
 20
594.171732
 30
0.0
 10
104.651800
 20
577.403196
 30
0.0
 10
88.287336
 20
558.412324
 30
0.0
 10
100.611192
 20
554.977812
 30
0.0
 10
121.016272
 20
556.392020
 30
0.0
 10
138.188872
 20
554.775780
 30
0.0
 10
143.441664
 20
546.088468
 30
0.0
 10
146.674152
 20
537.603188
 30
0.0
 10
156.371616
 20
528.107748
 30
0.0
  0
LWPOLYLINE
  5
104
100
AcDbEntity
  8
Layer_1
 62
7
100
AcDbPolyline
 90
34
 70
1
 10
216.172648
 20
594.777820
 30
0.0
 10
232.537120
 20
593.363604
 30
0.0
 10
237.991936
 20
590.939236
 30
0.0
 10
245.669096
 20
591.545332
 30
0.0
 10
244.860976
 20
641.042804
 30
0.0
 10
239.406152
 20
661.649916
 30
0.0
 10
232.537120
 20
679.630636
 30
0.0
 10
232.335088
 20
682.257028
 30
0.0
 10
237.385848
 20
700.843836
 30
0.0
 10
264.255904
 20
703.470236
 30
0.0
 10
247.083312
 20
724.077348
 30
0.0
 10
234.355392
 20
732.966684
 30
0.0
 10
214.960464
 20
741.856028
 30
0.0
 10
201.626448
 20
744.280396
 30
0.0
 10
173.544208
 20
744.684460
 30
0.0
 10
164.452832
 20
749.331156
 30
0.0
 10
161.018312
 20
754.785980
 30
0.0
 10
157.987856
 20
755.190044
 30
0.0
 10
142.633536
 20
749.129132
 30
0.0
 10
129.501560
 20
741.856028
 30
0.0
 10
121.622368
 20
736.401204
 30
0.0
 10
133.744200
 20
729.330140
 30
0.0
 10
147.482272
 20
727.107804
 30
0.0
 10
151.118824
 20
722.663132
 30
0.0
 10
149.300544
 20
680.438756
 30
0.0
 10
152.331000
 20
674.377844
 30
0.0
 10
160.412224
 20
670.741292
 30
0.0
 10
168.291416
 20
673.569716
 30
0.0
 10
174.756392
 20
671.145356
 30
0.0
 10
172.534056
 20
648.719964
 30
0.0
 10
190.110712
 20
621.445844
 30
0.0
 10
197.383808
 20
611.344324
 30
0.0
 10
203.242696
 20
604.273252
 30
0.0
 10
216.172648
 20
594.777820
 30
0.0
  0
LWPOLYLINE
  5
105
100
AcDbEntity
  8
Layer_1
 62
7
100
AcDbPolyline
 90
33
 70
1
 10
-81.418296
 20
603.465132
 30
0.0
 10
-93.742160
 20
604.677316
 30
0.0
 10
-118.793936
 20
578.615380
 30
0.0
 10
-150.310696
 20
551.543292
 30
0.0
 10
-174.756392
 20
534.572724
 30
0.0
 10
-180.615272
 20
534.168668
 30
0.0
 10
-181.625424
 20
532.956484
 30
0.0
 10
-180.615272
 20
525.683388
 30
0.0
 10
-185.464008
 20
517.400132
 30
0.0
 10
-188.090408
 20
512.147340
 30
0.0
 10
-200.010208
 20
503.662060
 30
0.0
 10
-206.273152
 20
496.388964
 30
0.0
 10
-213.142184
 20
483.863068
 30
0.0
 10
-207.081272
 20
475.983884
 30
0.0
 10
-185.666040
 20
479.620428
 30
0.0
 10
-178.594968
 20
481.438700
 30
0.0
 10
-130.309680
 20
474.569668
 30
0.0
 10
-59.599000
 20
441.234636
 30
0.0
 10
-54.952298
 20
454.770676
 30
0.0
 10
-51.719810
 20
459.215348
 30
0.0
 10
-42.830468
 20
460.427532
 30
0.0
 10
-38.183766
 20
465.074236
 30
0.0
 10
-41.214224
 20
472.347332
 30
0.0
 10
-42.022346
 20
478.812308
 30
0.0
 10
-35.355339
 20
481.236676
 30
0.0
 10
-45.254834
 20
523.259020
 30
0.0
 10
-41.214224
 20
536.593036
 30
0.0
 10
-26.263966
 20
558.614356
 30
0.0
 10
-10.707617
 20
574.776796
 30
0.0
 10
-29.294424
 20
589.727060
 30
0.0
 10
-37.375644
 20
586.494572
 30
0.0
 10
-56.770573
 20
587.908780
 30
0.0
 10
-81.418296
 20
603.465132
 30
0.0
  0
LWPOLYLINE
  5
106
100
AcDbEntity
  8
Layer_1
 62
7
100
AcDbPolyline
 90
33
 70
1
 10
-59.194939
 20
441.032604
 30
0.0
 10
-44.446712
 20
433.961532
 30
0.0
 10
-35.961430
 20
426.284372
 30
0.0
 10
-26.870058
 20
416.182852
 30
0.0
 10
-23.031478
 20
406.889444
 30
0.0
 10
-23.435539
 20
394.363556
 30
0.0
 10
-32.526912
 20
362.240700
 30
0.0
 10
-18.384776
 20
358.402124
 30
0.0
 10
2.424366
 20
367.493500
 30
0.0
 10
14.546197
 20
367.493500
 30
0.0
 10
39.597980
 20
362.644764
 30
0.0
 10
46.062956
 20
356.785876
 30
0.0
 10
51.719810
 20
373.756444
 30
0.0
 10
57.376665
 20
379.615324
 30
0.0
 10
70.104586
 20
394.363556
 30
0.0
 10
76.165502
 20
415.778788
 30
0.0
 10
77.579715
 20
428.910772
 30
0.0
 10
87.075152
 20
447.901636
 30
0.0
 10
106.874136
 20
472.347332
 30
0.0
 10
117.581760
 20
487.095556
 30
0.0
 10
75.963471
 20
492.954444
 30
0.0
 10
25.859905
 20
493.358500
 30
0.0
 10
1.818275
 20
491.136172
 30
0.0
 10
-10.909647
 20
486.691500
 30
0.0
 10
-20.607112
 20
480.832612
 30
0.0
 10
-36.567522
 20
481.034644
 30
0.0
 10
-42.022346
 20
479.216372
 30
0.0
 10
-41.416254
 20
472.145300
 30
0.0
 10
-38.183766
 20
465.680324
 30
0.0
 10
-42.224377
 20
460.831588
 30
0.0
 10
-51.719810
 20
459.215348
 30
0.0
 10
-55.558390
 20
453.760524
 30
0.0
 10
-59.194939
 20
441.032604
 30
0.0
  0
LWPOLYLINE
  5
107
100
AcDbEntity
  8
Layer_1
 62
7
100
AcDbPolyline
 90
16
 70
1
 10
85.054848
 20
442.850876
 30
0.0
 10
106.066016
 20
426.890468
 30
0.0
 10
142.835568
 20
393.555436
 30
0.0
 10
160.412224
 20
374.160500
 30
0.0
 10
172.534056
 20
370.523956
 30
0.0
 10
163.442680
 20
362.442732
 30
0.0
 10
88.287336
 20
324.663028
 30
0.0
 10
87.681240
 20
342.643740
 30
0.0
 10
56.568542
 20
344.259988
 30
0.0
 10
49.295444
 20
348.704660
 30
0.0
 10
45.658895
 20
357.391972
 30
0.0
 10
51.719810
 20
373.958476
 30
0.0
 10
70.710678
 20
395.171676
 30
0.0
 10
76.165502
 20
415.172700
 30
0.0
 10
77.781746
 20
429.920924
 30
0.0
 10
85.054848
 20
442.850876
 30
0.0
  0
LWPOLYLINE
  5
108
100
AcDbEntity
  8
Layer_1
 62
7
100
AcDbPolyline
 90
33
 70
1
 10
84.852816
 20
443.254940
 30
0.0
 10
113.541144
 20
420.627524
 30
0.0
 10
143.037600
 20
392.545276
 30
0.0
 10
161.018312
 20
373.352380
 30
0.0
 10
172.938112
 20
370.119892
 30
0.0
 10
194.353352
 20
378.807204
 30
0.0
 10
224.051832
 20
386.888428
 30
0.0
 10
248.699560
 20
371.332076
 30
0.0
 10
263.851848
 20
371.534108
 30
0.0
 10
275.973672
 20
377.392988
 30
0.0
 10
277.589920
 20
381.029540
 30
0.0
 10
286.681296
 20
389.918884
 30
0.0
 10
290.923936
 20
397.394012
 30
0.0
 10
279.812256
 20
402.646804
 30
0.0
 10
277.791952
 20
411.536148
 30
0.0
 10
270.114792
 20
416.182852
 30
0.0
 10
261.427480
 20
426.082348
 30
0.0
 10
259.003112
 20
437.396052
 30
0.0
 10
264.053872
 20
460.629564
 30
0.0
 10
254.962504
 20
451.942252
 30
0.0
 10
239.204120
 20
445.679300
 30
0.0
 10
217.384824
 20
445.679300
 30
0.0
 10
207.081272
 20
441.032604
 30
0.0
 10
155.563496
 20
442.042756
 30
0.0
 10
154.351312
 20
450.123972
 30
0.0
 10
138.996992
 20
466.084388
 30
0.0
 10
132.936072
 20
471.741236
 30
0.0
 10
143.037600
 20
475.579820
 30
0.0
 10
147.482272
 20
480.630580
 30
0.0
 10
116.975664
 20
487.701652
 30
0.0
 10
103.843680
 20
468.508748
 30
0.0
 10
87.883272
 20
449.113820
 30
0.0
 10
84.852816
 20
443.254940
 30
0.0
  0
LWPOLYLINE
  5
109
100
AcDbEntity
  8
Layer_1
 62
7
100
AcDbPolyline
 90
15
 70
1
 10
186.272128
 20
485.883372
 30
0.0
 10
197.585840
 20
480.226524
 30
0.0
 10
263.447784
 20
460.427532
 30
0.0
 10
255.366560
 20
452.548340
 30
0.0
 10
240.012248
 20
445.275244
 30
0.0
 10
216.980768
 20
445.275244
 30
0.0
 10
207.283304
 20
441.436660
 30
0.0
 10
155.563496
 20
441.638692
 30
0.0
 10
154.351312
 20
450.123972
 30
0.0
 10
132.734048
 20
471.539212
 30
0.0
 10
142.229480
 20
475.781852
 30
0.0
 10
147.280240
 20
480.226524
 30
0.0
 10
180.413248
 20
483.459012
 30
0.0
 10
186.878224
 20
486.691500
 30
0.0
 10
186.272128
 20
485.883372
 30
0.0
  0
LWPOLYLINE
  5
10a
100
AcDbEntity
  8
Layer_1
 62
7
100
AcDbPolyline
 90
13
 70
1
 10
264.053872
 20
461.033620
 30
0.0
 10
287.085352
 20
456.790980
 30
0.0
 10
310.116832
 20
454.770676
 30
0.0
 10
323.046784
 20
439.416356
 30
0.0
 10
312.541200
 20
416.990972
 30
0.0
 10
300.823432
 20
400.020412
 30
0.0
 10
290.721904
 20
396.989948
 30
0.0
 10
279.610224
 20
402.242748
 30
0.0
 10
277.791952
 20
411.940212
 30
0.0
 10
269.912760
 20
416.384876
 30
0.0
 10
261.831544
 20
426.284372
 30
0.0
 10
259.407176
 20
437.194020
 30
0.0
 10
264.053872
 20
461.033620
 30
0.0
  0
LWPOLYLINE
  5
10b
100
AcDbEntity
  8
Layer_1
 62
7
100
AcDbPolyline
 90
28
 70
1
 10
323.652872
 20
438.810268
 30
0.0
 10
353.553392
 20
418.405188
 30
0.0
 10
353.351360
 20
411.132084
 30
0.0
 10
341.027496
 20
400.222436
 30
0.0
 10
325.875208
 20
391.131068
 30
0.0
 10
324.865056
 20
385.070148
 30
0.0
 10
329.511760
 20
379.615324
 30
0.0
 10
341.431560
 20
376.584868
 30
0.0
 10
367.493496
 20
373.150348
 30
0.0
 10
389.716856
 20
371.938164
 30
0.0
 10
398.808224
 20
365.069132
 30
0.0
 10
389.514824
 20
351.937148
 30
0.0
 10
372.544256
 20
341.633588
 30
0.0
 10
340.219376
 20
330.723940
 30
0.0
 10
245.063008
 20
326.077244
 30
0.0
 10
223.849808
 20
343.249836
 30
0.0
 10
236.375696
 20
355.371668
 30
0.0
 10
246.679248
 20
362.644764
 30
0.0
 10
248.093464
 20
371.736140
 30
0.0
 10
264.255904
 20
371.736140
 30
0.0
 10
276.175704
 20
377.190964
 30
0.0
 10
278.196008
 20
381.029540
 30
0.0
 10
285.873168
 20
388.706700
 30
0.0
 10
290.923936
 20
397.191980
 30
0.0
 10
301.429520
 20
400.828532
 30
0.0
 10
311.733072
 20
415.980820
 30
0.0
 10
323.046784
 20
439.820420
 30
0.0
 10
323.652872
 20
438.810268
 30
0.0
  0
LWPOLYLINE
  5
10c
100
AcDbEntity
  8
Layer_1
 62
7
100
AcDbPolyline
 90
15
 70
1
 10
352.947296
 20
419.213308
 30
0.0
 10
395.777768
 20
426.890468
 30
0.0
 10
401.636656
 20
425.072188
 30
0.0
 10
409.313808
 20
410.930060
 30
0.0
 10
406.687416
 20
387.898580
 30
0.0
 10
398.808224
 20
365.271164
 30
0.0
 10
389.716856
 20
371.938164
 30
0.0
 10
369.513800
 20
372.948324
 30
0.0
 10
341.633592
 20
376.180812
 30
0.0
 10
329.511760
 20
379.817356
 30
0.0
 10
325.067088
 20
384.464060
 30
0.0
 10
325.875208
 20
391.535124
 30
0.0
 10
339.815320
 20
399.212284
 30
0.0
 10
353.351360
 20
410.930060
 30
0.0
 10
352.947296
 20
419.213308
 30
0.0
  0
LWPOLYLINE
  5
10d
100
AcDbEntity
  8
Layer_1
 62
7
100
AcDbPolyline
 90
26
 70
1
 10
-33.335034
 20
361.634612
 30
0.0
 10
-49.497474
 20
311.935108
 30
0.0
 10
-75.559410
 20
246.275188
 30
0.0
 10
-86.469056
 20
224.859956
 30
0.0
 10
-94.550280
 20
213.344220
 30
0.0
 10
-60.205092
 20
221.627468
 30
0.0
 10
-36.365492
 20
226.678228
 30
0.0
 10
-20.607112
 20
238.396004
 30
0.0
 10
-6.262946
 20
241.628492
 30
0.0
 10
5.454824
 20
241.426460
 30
0.0
 10
14.344166
 20
239.204124
 30
0.0
 10
34.951278
 20
233.749300
 30
0.0
 10
100.207136
 20
257.588900
 30
0.0
 10
104.651800
 20
264.659964
 30
0.0
 10
88.085304
 20
324.865060
 30
0.0
 10
87.479208
 20
342.643740
 30
0.0
 10
60.205092
 20
344.259988
 30
0.0
 10
55.962451
 20
344.462020
 30
0.0
 10
49.093414
 20
349.108724
 30
0.0
 10
46.062956
 20
357.594004
 30
0.0
 10
39.800010
 20
362.644764
 30
0.0
 10
15.354318
 20
367.897556
 30
0.0
 10
1.414214
 20
367.493500
 30
0.0
 10
-18.182746
 20
358.402124
 30
0.0
 10
-32.930973
 20
362.644764
 30
0.0
 10
-33.335034
 20
361.634612
 30
0.0
  0
ENDSEC
  0
SECTION
  2
OBJECTS
  0
DICTIONARY
  5
C
330
0
100
AcDbDictionary
  3
ACAD_GROUP
350
D
  3
ACAD_MLINESTYLE
350
17
  0
DICTIONARY
  5
D
330
C
100
AcDbDictionary
  0
DICTIONARY
  5
1A
330
C
100
AcDbDictionary
  0
DICTIONARY
  5
17
330
C
100
AcDbDictionary
  3
STANDARD
350
18
  0
DICTIONARY
  5
19
330
C
100
AcDbDictionary
  0
ENDSEC
  0
EOF
